ply
format ascii 1.0
element vertex 10
property float x
property float y
property float z
element face 16
property list uchar int vertex_indices
end_header
1188.47754 -893.238708 268.184692
1220.93372 -881.817322 268.644196
1226.0946 -896.46698 268.644196
1207.01013 -903.190674 261.356445
1193.62866 -907.899475 261.356445
1188.47754 -893.238708 276.184692
1220.93372 -881.817322 276.644196
1226.0946 -896.46698 276.644196
1207.01013 -903.190674 269.356445
1193.62866 -907.899475 269.356445
3 6 5 9
3 4 0 1
3 9 8 7
3 2 3 4
3 7 6 9
3 4 1 2
3 0 1 6
3 0 6 5
3 1 2 7
3 1 7 6
3 2 3 8
3 2 8 7
3 3 4 9
3 3 9 8
3 4 0 5
3 4 5 9
