ply
format ascii 1.0
element vertex 8
property float x
property float y
property float z
element face 12
property list uchar int vertex_indices
end_header
-2203.63574 -953.050659 302.977905
-2145.71411 -930.586426 303.763336
-2142.70264 -938.356506 303.763336
-2200.62427 -960.820801 308.245361
-2203.63574 -953.050659 306.177917
-2145.71411 -930.586426 306.963348
-2142.70264 -938.356506 306.963348
-2200.62427 -960.820801 311.445374
3 5 4 7
3 3 0 1
3 7 6 5
3 1 2 3
3 0 1 5
3 0 5 4
3 1 2 6
3 1 6 5
3 2 3 7
3 2 7 6
3 3 0 4
3 3 4 7
