ply
format ascii 1.0
element vertex 8
property float x
property float y
property float z
element face 12
property list uchar int vertex_indices
end_header
480.850098 -306.985748 282.572296
501.60968 -301.942993 282.078278
508.35849 -329.739471 287.00354
487.598907 -334.782227 287.00354
480.850098 -306.985748 285.772308
501.60968 -301.942993 285.27829
508.35849 -329.739471 290.203552
487.598907 -334.782227 290.203552
3 5 4 7
3 3 0 1
3 7 6 5
3 1 2 3
3 0 1 5
3 0 5 4
3 1 2 6
3 1 6 5
3 2 3 7
3 2 7 6
3 3 0 4
3 3 4 7
