ply
format ascii 1.0
element vertex 20
property float x
property float y
property float z
element face 36
property list uchar int vertex_indices
end_header
550.894409 1002.68805 198.909851
550.43927 980.557739 195.039871
580.474854 973.778381 195.352066
621.132324 974.457397 195.710129
641.456238 967.689209 195.710129
664.481567 973.566895 194.43454
661.102295 1003.1333 200.930923
641.001099 1009.01099 201.428741
623.16571 1002.91071 201.428741
579.574402 1009.69006 200.97644
550.894409 1002.68805 206.909851
550.43927 980.557739 203.039871
580.474854 973.778381 203.352066
621.132324 974.457397 203.710129
641.456238 967.689209 203.710129
664.481567 973.566895 202.43454
661.102295 1003.1333 208.930923
641.001099 1009.01099 209.428741
623.16571 1002.91071 209.428741
579.574402 1009.69006 208.97644
3 18 19 10
3 0 9 8
3 10 11 12
3 2 1 0
3 13 14 15
3 5 4 3
3 15 16 17
3 7 6 5
3 18 10 12
3 2 0 8
3 13 15 17
3 7 5 3
3 17 18 12
3 2 8 7
3 12 13 17
3 7 3 2
3 0 1 11
3 0 11 10
3 1 2 12
3 1 12 11
3 2 3 13
3 2 13 12
3 3 4 14
3 3 14 13
3 4 5 15
3 4 15 14
3 5 6 16
3 5 16 15
3 6 7 17
3 6 17 16
3 7 8 18
3 7 18 17
3 8 9 19
3 8 19 18
3 9 0 10
3 9 10 19
