ply
format ascii 1.0
element vertex 8
property float x
property float y
property float z
element face 12
property list uchar int vertex_indices
end_header
-2271.6853 638.539734 199.496506
-2263.85205 632.328125 199.496506
-2305.24536 580.141541 201.039169
-2313.07861 586.353149 201.006683
-2271.6853 638.539734 207.496506
-2263.85205 632.328125 207.496506
-2305.24536 580.141541 209.039169
-2313.07861 586.353149 209.006683
3 5 4 7
3 3 0 1
3 7 6 5
3 1 2 3
3 0 1 5
3 0 5 4
3 1 2 6
3 1 6 5
3 2 3 7
3 2 7 6
3 3 0 4
3 3 4 7
