ply
format ascii 1.0
element vertex 18
property float x
property float y
property float z
element face 16
property list uchar int vertex_indices
end_header
-3000.73877 -67.8769302 222.958939
-3004.42139 -63.7917633 222.958939
-3003.46655 -70.3237228 222.958939
-3006.80615 -65.953598 222.958939
-3006.60498 -72.1642227 222.958939
-3008.25732 -66.9183426 222.958939
-3010.64673 -72.636116 222.958939
-3010.72241 -67.1366348 222.958939
-3040.59204 -72.747673 227.184372
-3040.61597 -67.2477188 227.184372
-3141.10156 -73.2008286 234.127121
-3141.36987 -67.7073822 234.127121
-3142.44067 -75.2623215 234.127121
-3147.93188 -74.9521942 234.127121
-3141.96191 -131.976532 224.511475
-3147.46167 -132.028778 224.511475
-3141.67139 -155.601974 221.048431
-3147.17114 -155.669571 221.048431
3 0 1 2
3 1 3 2
3 2 3 4
3 3 5 4
3 4 5 6
3 5 7 6
3 6 7 8
3 7 9 8
3 8 9 10
3 9 11 10
3 10 11 12
3 11 13 12
3 12 13 14
3 13 15 14
3 14 15 16
3 15 17 16
