ply
format ascii 1.0
element vertex 58
property float x
property float y
property float z
element face 112
property list uchar int vertex_indices
end_header
-2603.55811 14.0039921 201.996185
-2627.45483 0.0111319488 202.576828
-2622.48779 -8.47141361 205.372711
-2615.7583 -4.53070307 205.372711
-2613.10522 -9.06140614 205.372711
-2619.7959 -12.9687204 205.372711
-2617.16235 -17.4771595 205.372711
-2617.77222 -18.4233761 205.372711
-2624.18213 -14.3156862 205.372711
-2630.21436 -23.7110519 205.372711
-2636.89551 -19.425251 207.909409
-2640.15845 -24.5125523 207.909409
-2633.57422 -28.7426929 205.372711
-2643.04395 -43.5036583 208.927902
-2661.1311 -31.893034 208.927902
-2666.9021 -40.8876495 212.404861
-2649.83154 -51.8414879 208.927902
-2652.14575 -55.4482384 208.927902
-2653.72388 -54.4352303 208.927902
-2656.97729 -59.5113983 208.927902
-2647.73999 -65.444725 207.49939
-2628.39404 -35.3105431 204.885468
-2626.27368 -36.6797714 204.885468
-2615.09985 -19.2694035 205.372711
-2592.10352 -5.79974556 204.630249
-2595.96704 0.80150032 201.996185
-2601.59253 -2.4935565 204.630249
-2604.00342 1.62526453 201.996185
-2598.28101 4.987113 201.996185
-2603.55811 14.0039921 209.996185
-2627.45483 0.0111319488 210.576828
-2622.48779 -8.47141361 213.372711
-2615.7583 -4.53070307 213.372711
-2613.10522 -9.06140614 213.372711
-2619.7959 -12.9687204 213.372711
-2617.16235 -17.4771595 213.372711
-2617.77222 -18.4233761 213.372711
-2624.18213 -14.3156862 213.372711
-2630.21436 -23.7110519 213.372711
-2636.89551 -19.425251 215.909409
-2640.15845 -24.5125523 215.909409
-2633.57422 -28.7426929 213.372711
-2643.04395 -43.5036583 216.927902
-2661.1311 -31.893034 216.927902
-2666.9021 -40.8876495 220.404861
-2649.83154 -51.8414879 216.927902
-2652.14575 -55.4482384 216.927902
-2653.72388 -54.4352303 216.927902
-2656.97729 -59.5113983 216.927902
-2647.73999 -65.444725 215.49939
-2628.39404 -35.3105431 212.885468
-2626.27368 -36.6797714 212.885468
-2615.09985 -19.2694035 213.372711
-2592.10352 -5.79974556 212.630249
-2595.96704 0.80150032 209.996185
-2601.59253 -2.4935565 212.630249
-2604.00342 1.62526453 209.996185
-2598.28101 4.987113 209.996185
3 56 57 29
3 0 28 27
3 29 30 31
3 2 1 0
3 33 34 35
3 6 5 4
3 36 37 38
3 9 8 7
3 38 39 40
3 11 10 9
3 42 43 44
3 15 14 13
3 46 47 48
3 19 18 17
3 50 51 52
3 23 22 21
3 52 53 54
3 25 24 23
3 29 31 32
3 3 2 0
3 38 40 41
3 12 11 9
3 42 44 45
3 16 15 13
3 46 48 49
3 20 19 17
3 52 54 55
3 26 25 23
3 56 29 32
3 3 0 27
3 36 38 41
3 12 9 7
3 42 45 46
3 17 16 13
3 46 49 50
3 21 20 17
3 50 52 55
3 26 23 21
3 55 56 32
3 3 27 26
3 36 41 42
3 13 12 7
3 42 46 50
3 21 17 13
3 55 32 33
3 4 3 26
3 36 42 50
3 21 13 7
3 55 33 35
3 6 4 26
3 35 36 50
3 21 7 6
3 50 55 35
3 6 26 21
3 0 1 30
3 0 30 29
3 1 2 31
3 1 31 30
3 2 3 32
3 2 32 31
3 3 4 33
3 3 33 32
3 4 5 34
3 4 34 33
3 5 6 35
3 5 35 34
3 6 7 36
3 6 36 35
3 7 8 37
3 7 37 36
3 8 9 38
3 8 38 37
3 9 10 39
3 9 39 38
3 10 11 40
3 10 40 39
3 11 12 41
3 11 41 40
3 12 13 42
3 12 42 41
3 13 14 43
3 13 43 42
3 14 15 44
3 14 44 43
3 15 16 45
3 15 45 44
3 16 17 46
3 16 46 45
3 17 18 47
3 17 47 46
3 18 19 48
3 18 48 47
3 19 20 49
3 19 49 48
3 20 21 50
3 20 50 49
3 21 22 51
3 21 51 50
3 22 23 52
3 22 52 51
3 23 24 53
3 23 53 52
3 24 25 54
3 24 54 53
3 25 26 55
3 25 55 54
3 26 27 56
3 26 56 55
3 27 28 57
3 27 57 56
3 28 0 29
3 28 29 57
