ply
format ascii 1.0
element vertex 8
property float x
property float y
property float z
element face 12
property list uchar int vertex_indices
end_header
-2257.3938 1287.81067 265.228516
-2223.97876 1275.29834 265.304169
-2226.87402 1267.56165 262.346802
-2260.28882 1280.07397 267.691467
-2257.3938 1287.81067 273.228516
-2223.97876 1275.29834 273.304169
-2226.87402 1267.56165 270.346802
-2260.28882 1280.07397 275.691467
3 5 4 7
3 3 0 1
3 7 6 5
3 1 2 3
3 0 1 5
3 0 5 4
3 1 2 6
3 1 6 5
3 2 3 7
3 2 7 6
3 3 0 4
3 3 4 7
