ply
format ascii 1.0
element vertex 8
property float x
property float y
property float z
element face 12
property list uchar int vertex_indices
end_header
2150.92334 -641.745728 227.517548
2157.75928 -633.452454 216.247955
2168.37134 -642.202148 216.247955
2161.5354 -650.495422 209.893372
2150.92334 -641.745728 235.517548
2157.75928 -633.452454 224.247955
2168.37134 -642.202148 224.247955
2161.5354 -650.495422 217.893372
3 5 4 7
3 3 0 1
3 7 6 5
3 1 2 3
3 0 1 5
3 0 5 4
3 1 2 6
3 1 6 5
3 2 3 7
3 2 7 6
3 3 0 4
3 3 4 7
