ply
format ascii 1.0
element vertex 16
property float x
property float y
property float z
element face 28
property list uchar int vertex_indices
end_header
-844.288391 -57.5187798 254.182007
-840.696106 -54.6801338 254.182007
-835.235107 -61.5930748 254.182007
-838.827332 -64.4317245 250.037491
-833.327576 -71.3891907 250.037491
-841.015625 -77.478363 250.037491
-853.506226 -61.6821289 254.182007
-845.808533 -55.604084 254.182007
-844.288391 -57.5187798 262.182007
-840.696106 -54.6801338 262.182007
-835.235107 -61.5930748 262.182007
-838.827332 -64.4317245 258.037476
-833.327576 -71.3891907 258.037476
-841.015625 -77.478363 258.037476
-853.506226 -61.6821289 262.182007
-845.808533 -55.604084 262.182007
3 8 15 14
3 6 7 0
3 14 13 12
3 4 5 6
3 11 10 9
3 1 2 3
3 14 12 11
3 3 4 6
3 11 9 8
3 0 1 3
3 8 14 11
3 3 6 0
3 0 1 9
3 0 9 8
3 1 2 10
3 1 10 9
3 2 3 11
3 2 11 10
3 3 4 12
3 3 12 11
3 4 5 13
3 4 13 12
3 5 6 14
3 5 14 13
3 6 7 15
3 6 15 14
3 7 0 8
3 7 8 15
