ply
format ascii 1.0
element vertex 38
property float x
property float y
property float z
element face 36
property list uchar int vertex_indices
end_header
118.9888 -1259.32349 194.012131
124.355568 -1260.52673 194.012131
121.94944 -1246.1698 194.012131
127.185143 -1247.85425 194.012131
124.934959 -1241.89404 194.012131
128.73111 -1245.8739 194.012131
128.619064 -1239.76636 194.012131
130.178818 -1245.04053 194.012131
133.565796 -1239.27783 194.012131
132.823273 -1244.72754 194.012131
173.819534 -1245.68054 195.349777
173.051727 -1251.12659 195.349777
181.641129 -1246.08789 195.349777
181.710007 -1251.58752 195.349777
190.942078 -1245.44434 195.058655
191.483871 -1250.9176 195.058655
200.426712 -1244.22607 195.058655
201.383911 -1249.64221 195.058655
208.759293 -1242.32373 195.058655
210.57692 -1247.51477 195.058655
216.717163 -1238.5929 191.620911
219.873535 -1243.09705 191.620911
222.41835 -1232.8468 202.509384
226.972809 -1235.93005 202.509384
232.917618 -1214.39258 202.509384
237.872208 -1216.78052 202.509384
233.400269 -1210.59631 202.509384
238.90004 -1210.64709 202.509384
232.860565 -1205.8999 211.415192
238.12291 -1204.30066 211.415192
230.925507 -1202.19043 211.415192
235.197281 -1198.72607 211.415192
227.148926 -1198.90662 211.415192
229.949615 -1194.1731 211.415192
221.362335 -1196.63684 211.415192
222.935745 -1191.3667 211.415192
202.338959 -1191.58337 207.285126
203.751389 -1186.26782 207.285126
3 0 1 2
3 1 3 2
3 2 3 4
3 3 5 4
3 4 5 6
3 5 7 6
3 6 7 8
3 7 9 8
3 8 9 10
3 9 11 10
3 10 11 12
3 11 13 12
3 12 13 14
3 13 15 14
3 14 15 16
3 15 17 16
3 16 17 18
3 17 19 18
3 18 19 20
3 19 21 20
3 20 21 22
3 21 23 22
3 22 23 24
3 23 25 24
3 24 25 26
3 25 27 26
3 26 27 28
3 27 29 28
3 28 29 30
3 29 31 30
3 30 31 32
3 31 33 32
3 32 33 34
3 33 35 34
3 34 35 36
3 35 37 36
