ply
format ascii 1.0
element vertex 8
property float x
property float y
property float z
element face 12
property list uchar int vertex_indices
end_header
-1656.14954 1309.10608 295.628448
-1600.49365 1293.44348 291.365417
-1602.77881 1285.32825 291.365417
-1658.43469 1300.99084 295.628448
-1656.14954 1309.10608 303.628448
-1600.49365 1293.44348 299.365417
-1602.77881 1285.32825 299.365417
-1658.43469 1300.99084 303.628448
3 5 4 7
3 3 0 1
3 7 6 5
3 1 2 3
3 0 1 5
3 0 5 4
3 1 2 6
3 1 6 5
3 2 3 7
3 2 7 6
3 3 0 4
3 3 4 7
