ply
format ascii 1.0
element vertex 72
property float x
property float y
property float z
element face 70
property list uchar int vertex_indices
end_header
3046.22314 -1389.63855 260.74707
3036.90186 -1393.25964 260.74707
3048.10352 -1395.45105 259.30835
3040.77295 -1402.25269 259.30835
3079.37939 -1424.87109 249.337677
3072.49243 -1432.12146 249.337677
3098.6543 -1443.48059 250.603119
3092.41284 -1451.29382 250.603119
3113.79419 -1452.61536 248.355911
3110.09717 -1461.90698 248.355911
3131.76001 -1456.70886 241.759171
3131.26855 -1466.69678 241.759171
3144.29077 -1454.0376 241.759171
3146.54639 -1463.77979 241.759171
3154.7146 -1451.2356 242.329147
3158.12158 -1460.63733 242.329147
3162.57568 -1447.4115 256.816803
3167.08887 -1456.33508 256.816803
3170.35449 -1443.32056 256.816803
3175.84814 -1451.67639 256.816803
3178.08398 -1437.2771 257.021332
3185.00513 -1444.495 257.021332
3185.0813 -1429.17786 257.021332
3193.09351 -1435.16162 257.021332
3191.70679 -1418.97107 265.356873
3200.31396 -1424.06189 265.356873
3194.64404 -1412.98193 265.356873
3203.61255 -1417.40515 265.356873
3241.85742 -1317.26477 256.191986
3250.99878 -1321.31885 256.191986
3242.12524 -1306.98279 256.191986
3252.12524 -1306.95471 256.191986
3241.4502 -1299.46741 257.112274
3251.28955 -1297.68311 257.112274
3239.39087 -1291.63611 257.112274
3248.58496 -1287.70325 257.112274
3220.5835 -1251.00647 258.400604
3229.80444 -1247.1366 258.400604
3217.97852 -1240.33716 258.400604
3227.80054 -1238.4585 258.400604
3216.64893 -1230.78333 262.891083
3226.63184 -1230.20117 262.891083
3212.93433 -1154.52539 268.303375
3222.92969 -1154.21863 268.303375
3214.20215 -1145.03149 268.303375
3223.9082 -1147.43762 268.303375
3217.30493 -1136.55005 270.501099
3226.32446 -1140.86865 270.501099
3222.19482 -1128.42053 270.501099
3229.95532 -1134.72705 270.501099
3229.09009 -1122.35352 274.312042
3234.07886 -1131.02014 274.312042
3238.91699 -1118.60095 274.312042
3241.54517 -1128.24939 274.312042
3248.76196 -1117.04663 274.312042
3248.48999 -1127.04297 274.312042
3328.08887 -1120.81519 283.064453
3327.53247 -1130.79968 283.064453
3337.31421 -1122.0293 280.776215
3335.34863 -1131.83423 280.776215
3347.61646 -1124.71118 280.776215
3344.54736 -1134.22852 280.776215
3357.50049 -1128.54529 280.776215
3353.27319 -1137.60779 280.776215
3365.77954 -1133.20984 280.546783
3360.17651 -1141.49268 280.546783
3371.95581 -1138.31213 280.546783
3365.21265 -1145.69666 280.546783
3377.94141 -1144.43018 287.163177
3369.66504 -1150.04272 287.163177
3414.54077 -1200.86584 287.765472
3406.15039 -1206.30676 287.765472
3 0 1 2
3 1 3 2
3 2 3 4
3 3 5 4
3 4 5 6
3 5 7 6
3 6 7 8
3 7 9 8
3 8 9 10
3 9 11 10
3 10 11 12
3 11 13 12
3 12 13 14
3 13 15 14
3 14 15 16
3 15 17 16
3 16 17 18
3 17 19 18
3 18 19 20
3 19 21 20
3 20 21 22
3 21 23 22
3 22 23 24
3 23 25 24
3 24 25 26
3 25 27 26
3 26 27 28
3 27 29 28
3 28 29 30
3 29 31 30
3 30 31 32
3 31 33 32
3 32 33 34
3 33 35 34
3 34 35 36
3 35 37 36
3 36 37 38
3 37 39 38
3 38 39 40
3 39 41 40
3 40 41 42
3 41 43 42
3 42 43 44
3 43 45 44
3 44 45 46
3 45 47 46
3 46 47 48
3 47 49 48
3 48 49 50
3 49 51 50
3 50 51 52
3 51 53 52
3 52 53 54
3 53 55 54
3 54 55 56
3 55 57 56
3 56 57 58
3 57 59 58
3 58 59 60
3 59 61 60
3 60 61 62
3 61 63 62
3 62 63 64
3 63 65 64
3 64 65 66
3 65 67 66
3 66 67 68
3 67 69 68
3 68 69 70
3 69 71 70
