ply
format ascii 1.0
element vertex 34
property float x
property float y
property float z
element face 32
property list uchar int vertex_indices
end_header
1027.39563 814.033203 194.779938
1025.51978 814.726807 194.779938
1026.2074 810.819946 194.779938
1024.34546 811.550293 194.779938
1021.93835 800.332764 193.107132
1019.9389 800.285645 193.107132
1026.71729 788.221558 194.539566
1024.93945 787.305481 194.539566
1031.6908 781.476929 194.539566
1030.36511 779.979309 194.539566
1047.79028 769.644897 184.047211
1046.70251 767.966675 184.047211
1059.1886 763.629639 183.713211
1058.5426 761.736816 183.713211
1073.35254 760.927734 183.713211
1073.13611 758.939514 183.713211
1101.0343 759.096069 182.59317
1100.95532 757.097656 182.59317
1115.08899 759.269897 182.736984
1115.29016 757.280029 182.736984
1128.09192 761.835693 182.736984
1128.50781 759.879456 182.736984
1150.09009 766.71814 180.652985
1150.54639 764.770874 180.652985
1167.21545 771.003174 176.999084
1167.6781 769.057434 176.999084
1181.10291 774.085266 191.081879
1181.32812 772.097961 191.081879
1197.15222 774.391479 189.209747
1197.07666 772.392883 189.209747
1213.76868 772.857849 178.614136
1213.49744 770.876343 178.614136
1221.8158 771.016113 178.614136
1221.36865 769.066772 178.614136
3 0 1 2
3 1 3 2
3 2 3 4
3 3 5 4
3 4 5 6
3 5 7 6
3 6 7 8
3 7 9 8
3 8 9 10
3 9 11 10
3 10 11 12
3 11 13 12
3 12 13 14
3 13 15 14
3 14 15 16
3 15 17 16
3 16 17 18
3 17 19 18
3 18 19 20
3 19 21 20
3 20 21 22
3 21 23 22
3 22 23 24
3 23 25 24
3 24 25 26
3 25 27 26
3 26 27 28
3 27 29 28
3 28 29 30
3 29 31 30
3 30 31 32
3 31 33 32
