ply
format ascii 1.0
element vertex 32
property float x
property float y
property float z
element face 60
property list uchar int vertex_indices
end_header
-2972.11841 -1184.20557 240.302109
-2970.30786 -1188.55823 240.302109
-2974.11304 -1190.13892 240.302109
-2975.91406 -1185.77527 240.302109
-2982.75977 -1188.61389 240.302109
-2984.948 -1183.33728 230.89827
-2978.11206 -1180.49866 240.302109
-2982.18848 -1170.66919 219.125458
-2949.86768 -1157.25513 232.42514
-2943.60303 -1172.37231 232.42514
-2937.4353 -1187.25574 249.033051
-2957.2168 -1195.45996 249.033051
-2961.97119 -1197.43042 240.302109
-2963.09424 -1194.72534 240.302109
-2958.34009 -1192.755 240.302109
-2963.38477 -1180.58777 240.302109
-2972.11841 -1184.20557 248.302109
-2970.30786 -1188.55823 248.302109
-2974.11304 -1190.13892 248.302109
-2975.91406 -1185.77527 248.302109
-2982.75977 -1188.61389 248.302109
-2984.948 -1183.33728 238.89827
-2978.11206 -1180.49866 248.302109
-2982.18848 -1170.66919 227.125458
-2949.86768 -1157.25513 240.42514
-2943.60303 -1172.37231 240.42514
-2937.4353 -1187.25574 257.033051
-2957.2168 -1195.45996 257.033051
-2961.97119 -1197.43042 248.302109
-2963.09424 -1194.72534 248.302109
-2958.34009 -1192.755 248.302109
-2963.38477 -1180.58777 248.302109
3 30 29 28
3 12 13 14
3 28 27 26
3 10 11 12
3 25 24 23
3 7 8 9
3 22 21 20
3 4 5 6
3 19 18 17
3 1 2 3
3 30 28 26
3 10 12 14
3 26 25 23
3 7 9 10
3 22 20 19
3 3 4 6
3 19 17 16
3 0 1 3
3 31 30 26
3 10 14 15
3 23 22 19
3 3 6 7
3 19 16 31
3 15 0 3
3 31 26 23
3 7 10 15
3 23 19 31
3 15 3 7
3 0 1 17
3 0 17 16
3 1 2 18
3 1 18 17
3 2 3 19
3 2 19 18
3 3 4 20
3 3 20 19
3 4 5 21
3 4 21 20
3 5 6 22
3 5 22 21
3 6 7 23
3 6 23 22
3 7 8 24
3 7 24 23
3 8 9 25
3 8 25 24
3 9 10 26
3 9 26 25
3 10 11 27
3 10 27 26
3 11 12 28
3 11 28 27
3 12 13 29
3 12 29 28
3 13 14 30
3 13 30 29
3 14 15 31
3 14 31 30
3 15 0 16
3 15 16 31
