ply
format ascii 1.0
element vertex 8
property float x
property float y
property float z
element face 12
property list uchar int vertex_indices
end_header
51.0662956 -434.747131 289.926453
66.3939285 -441.114624 295.555939
61.4364166 -453.036926 295.555939
46.1184616 -446.680603 289.926453
51.0662956 -434.747131 293.126465
66.3939285 -441.114624 298.755951
61.4364166 -453.036926 298.755951
46.1184616 -446.680603 293.126465
3 5 4 7
3 3 0 1
3 7 6 5
3 1 2 3
3 0 1 5
3 0 5 4
3 1 2 6
3 1 6 5
3 2 3 7
3 2 7 6
3 3 0 4
3 3 4 7
