ply
format ascii 1.0
element vertex 12
property float x
property float y
property float z
element face 20
property list uchar int vertex_indices
end_header
-2048.70361 1262.49658 277.098572
-2032.19458 1268.98657 280.597504
-2008.89819 1265.44653 280.992096
-2013.03259 1232.4292 273.968933
-2036.61963 1214.43994 271.982666
-2062.26904 1222.69995 271.282074
-2048.70361 1262.49658 285.098572
-2032.19458 1268.98657 288.597504
-2008.89819 1265.44653 288.992096
-2013.03259 1232.4292 281.968933
-2036.61963 1214.43994 279.982666
-2062.26904 1222.69995 279.282074
3 7 6 11
3 5 0 1
3 11 10 9
3 3 4 5
3 9 8 7
3 1 2 3
3 7 11 9
3 3 5 1
3 0 1 7
3 0 7 6
3 1 2 8
3 1 8 7
3 2 3 9
3 2 9 8
3 3 4 10
3 3 10 9
3 4 5 11
3 4 11 10
3 5 0 6
3 5 6 11
