ply
format ascii 1.0
element vertex 36
property float x
property float y
property float z
element face 34
property list uchar int vertex_indices
end_header
3040.32983 2151.24023 268.212585
3036.65625 2144.13354 268.212585
3056.47729 2142.88623 268.976288
3053.19751 2135.58936 268.976288
3070.35718 2137.74683 263.244232
3066.85498 2130.5542 263.244232
3076.91675 2132.69116 269.576904
3071.2561 2127.03809 269.576904
3081.96655 2126.29663 269.576904
3075.21118 2122.01123 269.576904
3085.40991 2119.33691 269.576904
3077.94556 2116.45874 269.576904
3087.93994 2110.81616 269.576904
3080.06323 2109.41699 269.576904
3088.50415 2101.89746 272.758179
3080.50586 2102.06079 272.758179
3087.59058 2090.71436 272.758179
3079.6377 2091.5813 272.758179
3086.19336 2080.61963 272.758179
3078.30469 2081.9502 272.758179
3084.21045 2070.72949 269.944672
3076.47241 2072.76001 269.944672
3076.02002 2041.8197 269.944672
3068.43481 2044.36267 269.944672
3063.56934 2009.16907 273.408508
3056.19482 2012.26978 273.408508
3046.76196 1972.23645 271.114044
3039.65503 1975.90967 271.114044
3020.05176 1924.97144 269.626373
3013.24609 1929.17651 269.626373
3002.3811 1900.44055 264.802704
2996.11743 1905.41699 264.802704
2835.9165 1693.16516 266.072571
2829.61523 1698.09399 266.072571
2824.58276 1673.19922 258.319855
2817.63281 1677.16125 258.319855
3 0 1 2
3 1 3 2
3 2 3 4
3 3 5 4
3 4 5 6
3 5 7 6
3 6 7 8
3 7 9 8
3 8 9 10
3 9 11 10
3 10 11 12
3 11 13 12
3 12 13 14
3 13 15 14
3 14 15 16
3 15 17 16
3 16 17 18
3 17 19 18
3 18 19 20
3 19 21 20
3 20 21 22
3 21 23 22
3 22 23 24
3 23 25 24
3 24 25 26
3 25 27 26
3 26 27 28
3 27 29 28
3 28 29 30
3 29 31 30
3 30 31 32
3 31 33 32
3 32 33 34
3 33 35 34
