ply
format ascii 1.0
element vertex 18
property float x
property float y
property float z
element face 16
property list uchar int vertex_indices
end_header
290.270447 -123.045578 252.53624
290.901581 -126.488197 252.53624
310.407013 -119.375587 250.846268
311.567719 -122.677513 250.846268
374.019867 -93.5830231 251.851776
375.242981 -96.8623581 251.851776
416.870361 -79.6937027 250.593323
418.62616 -82.7214279 250.593323
451.399231 -48.717701 247.20726
453.696198 -51.3585205 247.20726
453.191956 -48.332531 247.20726
453.975525 -51.7436943 247.20726
491.230225 -39.4787254 232.957138
490.726074 -42.9422264 232.957138
516.183289 -57.5898666 223.078247
514.108765 -60.4087906 223.078247
522.040833 -61.8975868 224.680527
519.967224 -64.7172012 224.680527
3 0 1 2
3 1 3 2
3 2 3 4
3 3 5 4
3 4 5 6
3 5 7 6
3 6 7 8
3 7 9 8
3 8 9 10
3 9 11 10
3 10 11 12
3 11 13 12
3 12 13 14
3 13 15 14
3 14 15 16
3 15 17 16
