ply
format ascii 1.0
element vertex 22
property float x
property float y
property float z
element face 40
property list uchar int vertex_indices
end_header
1615.71484 1381.95361 216.386459
1626.73364 1378.62512 216.386459
1624.95203 1372.73633 216.386459
1628.72827 1371.58972 216.386459
1629.92896 1375.58606 216.386459
1640.8606 1372.27991 216.386459
1639.14685 1366.62488 216.386459
1637.34583 1367.17029 216.386459
1629.92896 1342.62439 217.744064
1617.02197 1346.53174 217.744064
1606.00305 1349.86011 222.552689
1615.71484 1381.95361 224.386459
1626.73364 1378.62512 224.386459
1624.95203 1372.73633 224.386459
1628.72827 1371.58972 224.386459
1629.92896 1375.58606 224.386459
1640.8606 1372.27991 224.386459
1639.14685 1366.62488 224.386459
1637.34583 1367.17029 224.386459
1629.92896 1342.62439 225.744064
1617.02197 1346.53174 225.744064
1606.00305 1349.86011 230.552689
3 12 11 21
3 10 0 1
3 20 19 18
3 7 8 9
3 18 17 16
3 5 6 7
3 16 15 14
3 3 4 5
3 13 12 21
3 10 1 2
3 21 20 18
3 7 9 10
3 18 16 14
3 3 5 7
3 14 13 21
3 10 2 3
3 21 18 14
3 3 7 10
3 0 1 12
3 0 12 11
3 1 2 13
3 1 13 12
3 2 3 14
3 2 14 13
3 3 4 15
3 3 15 14
3 4 5 16
3 4 16 15
3 5 6 17
3 5 17 16
3 6 7 18
3 6 18 17
3 7 8 19
3 7 19 18
3 8 9 20
3 8 20 19
3 9 10 21
3 9 21 20
3 10 0 11
3 10 11 21
