ply
format ascii 1.0
element vertex 10
property float x
property float y
property float z
element face 8
property list uchar int vertex_indices
end_header
734.782104 915.689819 197.723129
732.836548 915.226379 197.723129
738.7099 899.197327 197.723129
736.751709 898.790527 197.723129
738.839783 895.901917 195.873398
736.854187 896.141541 195.873398
737.825684 892.273804 195.873398
736.144775 893.357605 195.873398
714.59314 858.111694 191.785645
712.939331 859.236389 191.785645
3 0 1 2
3 1 3 2
3 2 3 4
3 3 5 4
3 4 5 6
3 5 7 6
3 6 7 8
3 7 9 8
