ply
format ascii 1.0
element vertex 8
property float x
property float y
property float z
element face 12
property list uchar int vertex_indices
end_header
1325.33215 -1060.55188 214.533157
1342.78992 -1055.59814 214.533157
1381.43335 -1107.75134 214.666214
1367.79053 -1117.85925 222.353622
1325.33215 -1060.55188 222.533157
1342.78992 -1055.59814 222.533157
1381.43335 -1107.75134 222.666214
1367.79053 -1117.85925 230.353622
3 5 4 7
3 3 0 1
3 7 6 5
3 1 2 3
3 0 1 5
3 0 5 4
3 1 2 6
3 1 6 5
3 2 3 7
3 2 7 6
3 3 0 4
3 3 4 7
