ply
format ascii 1.0
element vertex 14
property float x
property float y
property float z
element face 12
property list uchar int vertex_indices
end_header
-1070.81348 -1290.63416 189.811661
-1073.48682 -1287.65881 189.811661
-1117.66846 -1332.73145 195.674744
-1120.39868 -1329.80811 195.674744
-1131.82361 -1347.58325 194.498703
-1134.94299 -1345.07935 194.498703
-1142.45764 -1363.54993 194.37616
-1146.09473 -1361.88513 194.37616
-1149.90076 -1387.14697 194.37616
-1153.776 -1386.15552 194.37616
-1154.70471 -1411.51245 194.406097
-1158.65466 -1410.88196 194.406097
-1163.98608 -1475.44873 191.772278
-1167.94458 -1474.87402 191.772278
3 0 1 2
3 1 3 2
3 2 3 4
3 3 5 4
3 4 5 6
3 5 7 6
3 6 7 8
3 7 9 8
3 8 9 10
3 9 11 10
3 10 11 12
3 11 13 12
