ply
format ascii 1.0
element vertex 12
property float x
property float y
property float z
element face 10
property list uchar int vertex_indices
end_header
175.702545 -2271.11401 202.919815
174.247803 -2274.84009 202.919815
235.466415 -2294.448 206.094528
234.122757 -2298.21558 206.094528
260.423065 -2301.34155 203.533997
259.5159 -2305.2373 203.533997
349.551208 -2321.00073 201.870041
348.742157 -2324.91821 201.870041
370.943451 -2324.25 197.848251
371.270416 -2328.23682 197.848251
379.875549 -2318.64038 195.652145
381.935974 -2322.06885 195.652145
3 0 1 2
3 1 3 2
3 2 3 4
3 3 5 4
3 4 5 6
3 5 7 6
3 6 7 8
3 7 9 8
3 8 9 10
3 9 11 10
