ply
format ascii 1.0
element vertex 16
property float x
property float y
property float z
element face 28
property list uchar int vertex_indices
end_header
-1423.85303 -115.716614 237.894302
-1446.19092 -103.115242 240.454834
-1449.69604 -109.093102 240.454834
-1455.14734 -111.297226 238.844803
-1446.71387 -131.167755 246.182068
-1437.2345 -126.49234 246.182068
-1441.0011 -119.601662 240.454834
-1428.40393 -125.056313 246.182068
-1423.85303 -115.716614 282.694305
-1446.19092 -103.115242 285.254822
-1449.69604 -109.093102 285.254822
-1455.14734 -111.297226 283.644806
-1446.71387 -131.167755 290.982056
-1437.2345 -126.49234 290.982056
-1441.0011 -119.601662 285.254822
-1428.40393 -125.056313 290.982056
3 14 15 8
3 0 7 6
3 8 9 10
3 2 1 0
3 10 11 12
3 4 3 2
3 12 13 14
3 6 5 4
3 14 8 10
3 2 0 6
3 10 12 14
3 6 4 2
3 0 1 9
3 0 9 8
3 1 2 10
3 1 10 9
3 2 3 11
3 2 11 10
3 3 4 12
3 3 12 11
3 4 5 13
3 4 13 12
3 5 6 14
3 5 14 13
3 6 7 15
3 6 15 14
3 7 0 8
3 7 8 15
