ply
format ascii 1.0
element vertex 14
property float x
property float y
property float z
element face 12
property list uchar int vertex_indices
end_header
-3163.16602 -12.2335052 219.323486
-3164.13599 -15.5963678 219.323486
-3134.39038 -20.5348206 225.938293
-3135.33862 -23.9039211 225.938293
-3130.21606 -21.513773 225.938293
-3130.87598 -24.950983 225.938293
-3125.59814 -22.2505093 225.938293
-3125.57886 -25.7504559 225.938293
-3070.53149 -21.1493378 227.12001
-3070.41821 -24.6474991 227.12001
-3060.0813 -20.160078 225.27272
-3059.27612 -23.5662174 225.27272
-3017.99976 -8.69761562 223.997726
-3017.07983 -12.0746012 223.997726
3 0 1 2
3 1 3 2
3 2 3 4
3 3 5 4
3 4 5 6
3 5 7 6
3 6 7 8
3 7 9 8
3 8 9 10
3 9 11 10
3 10 11 12
3 11 13 12
