ply
format ascii 1.0
element vertex 8
property float x
property float y
property float z
element face 12
property list uchar int vertex_indices
end_header
-1024.81165 -671.512573 273.719086
-1012.99884 -690.982361 269.530396
-1022.08118 -696.503784 272.674103
-1033.90369 -677.022888 273.719086
-1024.81165 -671.512573 276.919098
-1012.99884 -690.982361 272.730408
-1022.08118 -696.503784 275.874115
-1033.90369 -677.022888 276.919098
3 5 4 7
3 3 0 1
3 7 6 5
3 1 2 3
3 0 1 5
3 0 5 4
3 1 2 6
3 1 6 5
3 2 3 7
3 2 7 6
3 3 0 4
3 3 4 7
