ply
format ascii 1.0
element vertex 12
property float x
property float y
property float z
element face 20
property list uchar int vertex_indices
end_header
710.764648 977.58551 197.833832
703.880249 965.095459 197.833832
710.17395 953.006165 195.723404
725.898621 952.516357 195.723404
731.998657 964.705811 197.438141
725.704956 976.995483 197.833832
710.764648 977.58551 205.833832
703.880249 965.095459 205.833832
710.17395 953.006165 203.723404
725.898621 952.516357 203.723404
731.998657 964.705811 205.438141
725.704956 976.995483 205.833832
3 10 11 6
3 0 5 4
3 6 7 8
3 2 1 0
3 8 9 10
3 4 3 2
3 10 6 8
3 2 0 4
3 0 1 7
3 0 7 6
3 1 2 8
3 1 8 7
3 2 3 9
3 2 9 8
3 3 4 10
3 3 10 9
3 4 5 11
3 4 11 10
3 5 0 6
3 5 6 11
