ply
format ascii 1.0
element vertex 8
property float x
property float y
property float z
element face 12
property list uchar int vertex_indices
end_header
-1730.47351 1280.1073 292.179596
-1682.45728 1265.86963 290.592163
-1686.86292 1251.04187 290.592163
-1734.86951 1265.27954 289.245087
-1730.47351 1280.1073 300.179596
-1682.45728 1265.86963 298.592163
-1686.86292 1251.04187 298.592163
-1734.86951 1265.27954 297.245087
3 5 4 7
3 3 0 1
3 7 6 5
3 1 2 3
3 0 1 5
3 0 5 4
3 1 2 6
3 1 6 5
3 2 3 7
3 2 7 6
3 3 0 4
3 3 4 7
