ply
format ascii 1.0
element vertex 10
property float x
property float y
property float z
element face 8
property list uchar int vertex_indices
end_header
-225.190826 87.1164246 221.017609
-221.779678 87.9000778 221.017609
-234.055984 126.132187 222.819382
-230.575668 125.761551 222.819382
-219.001953 137.929672 222.819382
-217.569382 134.736282 222.819382
-190.866348 145.609283 225.216293
-192.721512 142.641403 225.216293
-175.13913 111.07489 218.677521
-178.335693 109.649399 218.677521
3 0 1 2
3 1 3 2
3 2 3 4
3 3 5 4
3 4 5 6
3 5 7 6
3 6 7 8
3 7 9 8
