ply
format ascii 1.0
element vertex 40
property float x
property float y
property float z
element face 38
property list uchar int vertex_indices
end_header
1525.71619 1460.03809 221.577713
1532.20032 1457.40088 221.577713
1526.52454 1461.90564 221.577713
1533.34778 1460.34241 221.577713
1526.61658 1463.375 221.577713
1533.58508 1464.03821 221.577713
1526.24365 1464.81262 221.577713
1532.6604 1467.60999 221.577713
1525.44666 1466.06238 221.577713
1530.66882 1470.72388 221.577713
1524.29382 1466.99841 221.577713
1527.7937 1473.06067 221.577713
1522.91431 1467.526 221.577713
1524.33191 1474.38098 221.577713
1521.48926 1467.59399 221.577713
1520.58643 1474.53552 221.577713
1519.87439 1467.12891 221.577713
1516.75964 1473.39771 221.577713
1518.5741 1466.16663 221.577713
1513.50903 1470.99817 221.577713
1517.6759 1464.82239 221.577713
1511.27014 1467.64478 221.577713
1517.2876 1463.25305 221.577713
1510.30286 1463.71484 221.577713
1517.46606 1461.64404 221.577713
1510.74402 1459.69104 221.577713
1518.18079 1460.18237 221.577713
1512.52747 1456.05432 221.577713
1519.34741 1459.06543 221.577713
1515.4469 1453.25281 221.577713
1520.87842 1458.39587 221.577713
1519.08643 1451.62915 221.577713
1522.30884 1458.28027 221.577713
1522.82654 1451.29944 221.577713
1523.7511 1458.62683 221.577713
1526.41919 1452.15527 221.577713
1525.0116 1459.39246 221.577713
1529.57397 1454.0835 221.577713
1526.27893 1460.97144 221.577713
1531.63757 1456.46753 221.577713
3 0 1 2
3 1 3 2
3 2 3 4
3 3 5 4
3 4 5 6
3 5 7 6
3 6 7 8
3 7 9 8
3 8 9 10
3 9 11 10
3 10 11 12
3 11 13 12
3 12 13 14
3 13 15 14
3 14 15 16
3 15 17 16
3 16 17 18
3 17 19 18
3 18 19 20
3 19 21 20
3 20 21 22
3 21 23 22
3 22 23 24
3 23 25 24
3 24 25 26
3 25 27 26
3 26 27 28
3 27 29 28
3 28 29 30
3 29 31 30
3 30 31 32
3 31 33 32
3 32 33 34
3 33 35 34
3 34 35 36
3 35 37 36
3 36 37 38
3 37 39 38
