ply
format ascii 1.0
element vertex 12
property float x
property float y
property float z
element face 20
property list uchar int vertex_indices
end_header
2402.01367 -236.453735 200.281448
2399.99976 -243.811951 200.281448
2396.84326 -242.698761 200.281448
2393.62866 -241.563293 209.399872
2395.81689 -234.850723 200.281448
2399.14771 -235.707886 200.281448
2402.01367 -236.453735 208.281448
2399.99976 -243.811951 208.281448
2396.84326 -242.698761 208.281448
2393.62866 -241.563293 217.399872
2395.81689 -234.850723 208.281448
2399.14771 -235.707886 208.281448
3 7 6 11
3 5 0 1
3 11 10 9
3 3 4 5
3 9 8 7
3 1 2 3
3 7 11 9
3 3 5 1
3 0 1 7
3 0 7 6
3 1 2 8
3 1 8 7
3 2 3 9
3 2 9 8
3 3 4 10
3 3 10 9
3 4 5 11
3 4 11 10
3 5 0 6
3 5 6 11
