ply
format ascii 1.0
element vertex 8
property float x
property float y
property float z
element face 12
property list uchar int vertex_indices
end_header
2237.57324 -2009.52832 199.918182
2226.448 -2052.09692 203.377899
2256.48364 -2059.95605 204.726181
2267.60889 -2017.37634 200.734085
2237.57324 -2009.52832 207.918182
2226.448 -2052.09692 211.377899
2256.48364 -2059.95605 212.726181
2267.60889 -2017.37634 208.734085
3 6 7 4
3 0 3 2
3 4 5 6
3 2 1 0
3 0 1 5
3 0 5 4
3 1 2 6
3 1 6 5
3 2 3 7
3 2 7 6
3 3 0 4
3 3 4 7
