ply
format ascii 1.0
element vertex 118
property float x
property float y
property float z
element face 232
property list uchar int vertex_indices
end_header
2720.20508 2061.60352 271.028381
2721.52173 2062.80591 271.028381
2720.18555 2064.28638 271.028381
2737.24658 2079.78198 269.939331
2738.59229 2078.31274 269.939331
2742.00073 2081.38501 269.939331
2743.17236 2082.40918 269.939331
2741.83594 2083.88965 269.939331
2758.89697 2099.39648 268.834839
2760.24268 2097.91602 268.834839
2761.9856 2099.50781 268.834839
2766.04272 2095.04395 268.834839
2760.95923 2090.42407 268.834839
2762.48926 2088.74316 268.834839
2766.71069 2092.58374 268.834839
2770.02222 2088.93262 268.834839
2768.8313 2087.85278 268.834839
2770.62256 2085.87134 268.834839
2755.60474 2072.22339 268.834839
2753.81348 2074.20483 268.834839
2752.68066 2073.16968 268.834839
2749.35938 2076.82104 268.834839
2753.45532 2080.53906 268.834839
2751.92529 2082.21997 268.834839
2745.52515 2076.39795 268.834839
2745.48633 2076.4314 268.834839
2739.30884 2070.8208 271.028381
2740.83862 2069.13989 271.028381
2745.0603 2072.98047 268.834839
2748.37183 2069.3291 272.041412
2747.18091 2068.24927 272.041412
2748.98193 2066.26782 272.041412
2733.95435 2052.62012 271.028381
2732.16309 2054.60156 271.028381
2731.03027 2053.56641 271.028381
2727.71875 2057.21753 271.028381
2731.80493 2060.92456 271.028381
2730.2749 2062.6167 271.028381
2724.26196 2057.15088 271.028381
2724.37817 2057.01709 271.028381
2717.30029 2050.58301 271.028381
2718.90747 2048.81299 271.028381
2723.34229 2052.85376 271.028381
2726.82788 2049.01343 271.028381
2725.57886 2047.87793 271.028381
2727.46704 2045.79626 271.028381
2711.66479 2031.43604 269.01474
2709.77686 2033.5177 269.01474
2708.58594 2032.43787 269.01474
2705.1001 2036.26721 269.01474
2709.39917 2040.17456 269.01474
2707.79175 2041.94458 267.004883
2701.0625 2035.82202 269.01474
2696.79248 2040.51965 269.01474
2698.59326 2042.15601 267.004883
2697.17969 2043.70337 267.004883
2715.13135 2060.01172 267.004883
2716.5354 2058.46436 267.004883
2720.11792 2061.71484 271.028381
2720.20508 2061.60352 279.028381
2721.52173 2062.80591 279.028381
2720.18555 2064.28638 279.028381
2737.24658 2079.78198 277.939331
2738.59229 2078.31274 277.939331
2742.00073 2081.38501 277.939331
2743.17236 2082.40918 277.939331
2741.83594 2083.88965 277.939331
2758.89697 2099.39648 276.834839
2760.24268 2097.91602 276.834839
2761.9856 2099.50781 276.834839
2766.04272 2095.04395 276.834839
2760.95923 2090.42407 276.834839
2762.48926 2088.74316 276.834839
2766.71069 2092.58374 276.834839
2770.02222 2088.93262 276.834839
2768.8313 2087.85278 276.834839
2770.62256 2085.87134 276.834839
2755.60474 2072.22339 276.834839
2753.81348 2074.20483 276.834839
2752.68066 2073.16968 276.834839
2749.35938 2076.82104 276.834839
2753.45532 2080.53906 276.834839
2751.92529 2082.21997 276.834839
2745.52515 2076.39795 276.834839
2745.48633 2076.4314 276.834839
2739.30884 2070.8208 279.028381
2740.83862 2069.13989 279.028381
2745.0603 2072.98047 276.834839
2748.37183 2069.3291 280.041412
2747.18091 2068.24927 280.041412
2748.98193 2066.26782 280.041412
2733.95435 2052.62012 279.028381
2732.16309 2054.60156 279.028381
2731.03027 2053.56641 279.028381
2727.71875 2057.21753 279.028381
2731.80493 2060.92456 279.028381
2730.2749 2062.6167 279.028381
2724.26196 2057.15088 279.028381
2724.37817 2057.01709 279.028381
2717.30029 2050.58301 279.028381
2718.90747 2048.81299 279.028381
2723.34229 2052.85376 279.028381
2726.82788 2049.01343 279.028381
2725.57886 2047.87793 279.028381
2727.46704 2045.79626 279.028381
2711.66479 2031.43604 277.01474
2709.77686 2033.5177 277.01474
2708.58594 2032.43787 277.01474
2705.1001 2036.26721 277.01474
2709.39917 2040.17456 277.01474
2707.79175 2041.94458 275.004883
2701.0625 2035.82202 277.01474
2696.79248 2040.51965 277.01474
2698.59326 2042.15601 275.004883
2697.17969 2043.70337 275.004883
2715.13135 2060.01172 275.004883
2716.5354 2058.46436 275.004883
2720.11792 2061.71484 279.028381
3 59 117 116
3 57 58 0
3 116 115 114
3 55 56 57
3 113 112 111
3 52 53 54
3 109 108 107
3 48 49 50
3 106 105 104
3 45 46 47
3 103 102 101
3 42 43 44
3 99 98 97
3 38 39 40
3 95 94 93
3 34 35 36
3 92 91 90
3 31 32 33
3 89 88 87
3 28 29 30
3 84 83 82
3 23 24 25
3 81 80 79
3 20 21 22
3 78 77 76
3 17 18 19
3 75 74 73
3 14 15 16
3 71 70 69
3 10 11 12
3 68 67 66
3 7 8 9
3 65 64 63
3 4 5 6
3 63 62 61
3 2 3 4
3 116 114 113
3 54 55 57
3 113 111 110
3 51 52 54
3 109 107 106
3 47 48 50
3 106 104 103
3 44 45 47
3 103 101 100
3 41 42 44
3 95 93 92
3 33 34 36
3 92 90 89
3 30 31 33
3 89 87 86
3 27 28 30
3 81 79 78
3 19 20 22
3 78 76 75
3 16 17 19
3 75 73 72
3 13 14 16
3 71 69 68
3 9 10 12
3 68 66 65
3 6 7 9
3 63 61 60
3 1 2 4
3 59 116 113
3 54 57 0
3 109 106 103
3 44 47 50
3 95 92 89
3 30 33 36
3 81 78 75
3 16 19 22
3 71 68 65
3 6 9 12
3 65 63 60
3 1 4 6
3 59 113 110
3 51 54 0
3 110 109 103
3 44 50 51
3 96 95 89
3 30 36 37
3 82 81 75
3 16 22 23
3 72 71 65
3 6 12 13
3 65 60 59
3 0 1 6
3 110 103 100
3 41 44 51
3 96 89 86
3 27 30 37
3 82 75 72
3 13 16 23
3 65 59 110
3 51 0 6
3 110 100 99
3 40 41 51
3 96 86 85
3 26 27 37
3 82 72 65
3 6 13 23
3 65 110 99
3 40 51 6
3 96 85 84
3 25 26 37
3 84 82 65
3 6 23 25
3 65 99 97
3 38 40 6
3 96 84 65
3 6 25 37
3 65 97 96
3 37 38 6
3 0 1 60
3 0 60 59
3 1 2 61
3 1 61 60
3 2 3 62
3 2 62 61
3 3 4 63
3 3 63 62
3 4 5 64
3 4 64 63
3 5 6 65
3 5 65 64
3 6 7 66
3 6 66 65
3 7 8 67
3 7 67 66
3 8 9 68
3 8 68 67
3 9 10 69
3 9 69 68
3 10 11 70
3 10 70 69
3 11 12 71
3 11 71 70
3 12 13 72
3 12 72 71
3 13 14 73
3 13 73 72
3 14 15 74
3 14 74 73
3 15 16 75
3 15 75 74
3 16 17 76
3 16 76 75
3 17 18 77
3 17 77 76
3 18 19 78
3 18 78 77
3 19 20 79
3 19 79 78
3 20 21 80
3 20 80 79
3 21 22 81
3 21 81 80
3 22 23 82
3 22 82 81
3 23 24 83
3 23 83 82
3 24 25 84
3 24 84 83
3 25 26 85
3 25 85 84
3 26 27 86
3 26 86 85
3 27 28 87
3 27 87 86
3 28 29 88
3 28 88 87
3 29 30 89
3 29 89 88
3 30 31 90
3 30 90 89
3 31 32 91
3 31 91 90
3 32 33 92
3 32 92 91
3 33 34 93
3 33 93 92
3 34 35 94
3 34 94 93
3 35 36 95
3 35 95 94
3 36 37 96
3 36 96 95
3 37 38 97
3 37 97 96
3 38 39 98
3 38 98 97
3 39 40 99
3 39 99 98
3 40 41 100
3 40 100 99
3 41 42 101
3 41 101 100
3 42 43 102
3 42 102 101
3 43 44 103
3 43 103 102
3 44 45 104
3 44 104 103
3 45 46 105
3 45 105 104
3 46 47 106
3 46 106 105
3 47 48 107
3 47 107 106
3 48 49 108
3 48 108 107
3 49 50 109
3 49 109 108
3 50 51 110
3 50 110 109
3 51 52 111
3 51 111 110
3 52 53 112
3 52 112 111
3 53 54 113
3 53 113 112
3 54 55 114
3 54 114 113
3 55 56 115
3 55 115 114
3 56 57 116
3 56 116 115
3 57 58 117
3 57 117 116
3 58 0 59
3 58 59 117
