ply
format ascii 1.0
element vertex 8
property float x
property float y
property float z
element face 12
property list uchar int vertex_indices
end_header
-2004.30859 -335.038269 235.507187
-1954.05566 -315.167755 231.177124
-1946.27075 -334.860168 231.177124
-1996.52368 -354.730682 232.392883
-2004.30859 -335.038269 238.707184
-1954.05566 -315.167755 234.377121
-1946.27075 -334.860168 234.377121
-1996.52368 -354.730682 235.59288
3 5 4 7
3 3 0 1
3 7 6 5
3 1 2 3
3 0 1 5
3 0 5 4
3 1 2 6
3 1 6 5
3 2 3 7
3 2 7 6
3 3 0 4
3 3 4 7
