ply
format ascii 1.0
element vertex 10
property float x
property float y
property float z
element face 8
property list uchar int vertex_indices
end_header
2266.2793 -167.185089 231.94516
2264.83301 -170.914459 231.94516
2270.78418 -169.005051 231.94516
2268.42285 -172.233719 231.94516
2269.6958 -173.804596 231.94516
2269.0271 -169.860931 231.94516
2266.84741 -173.058853 231.94516
2265.27197 -169.382172 231.94516
2267.64185 -173.761337 231.94516
2263.70288 -173.065659 231.94516
3 0 1 2
3 1 3 2
3 2 3 4
3 3 5 4
3 4 5 6
3 5 7 6
3 6 7 8
3 7 9 8
