ply
format ascii 1.0
element vertex 20
property float x
property float y
property float z
element face 18
property list uchar int vertex_indices
end_header
720.497986 -194.063629 240.590836
719.331421 -195.688171 240.590836
753.202515 -217.733887 255.214569
753.069275 -219.729446 255.214569
773.274902 -197.461472 241.37262
773.586548 -199.437042 241.37262
786.686646 -212.444427 246.230865
786.627808 -214.443558 246.230865
818.348206 -198.776276 254.448013
818.484436 -200.771637 254.448013
825.414429 -209.795883 254.448013
825.516113 -211.793289 254.448013
844.692749 -197.483429 260.05957
844.174438 -199.415085 260.05957
862.615845 -220.284729 271.617798
860.663513 -220.718567 271.617798
854.172791 -237.749832 266.761017
852.336243 -238.541733 266.761017
876.233337 -252.22998 273.724274
875.125671 -253.895218 273.724274
3 0 1 2
3 1 3 2
3 2 3 4
3 3 5 4
3 4 5 6
3 5 7 6
3 6 7 8
3 7 9 8
3 8 9 10
3 9 11 10
3 10 11 12
3 11 13 12
3 12 13 14
3 13 15 14
3 14 15 16
3 15 17 16
3 16 17 18
3 17 19 18
