ply
format ascii 1.0
element vertex 16
property float x
property float y
property float z
element face 14
property list uchar int vertex_indices
end_header
411.492004 1031.4325 192.273392
412.191681 1029.55884 192.273392
422.189575 1035.42297 192.273392
422.718475 1033.49426 192.273392
429.636078 1036.39893 192.273392
429.854034 1034.41077 192.273392
436.813568 1037.03772 192.528854
436.929413 1035.04102 192.528854
446.075623 1037.35071 192.528854
446.025665 1035.35132 192.528854
456.217468 1036.54358 192.528854
455.849426 1034.57776 192.528854
466.705505 1033.48035 200.395782
465.946716 1031.62988 200.395782
504.299377 1016.84955 197.324905
503.490234 1015.02057 197.324905
3 0 1 2
3 1 3 2
3 2 3 4
3 3 5 4
3 4 5 6
3 5 7 6
3 6 7 8
3 7 9 8
3 8 9 10
3 9 11 10
3 10 11 12
3 11 13 12
3 12 13 14
3 13 15 14
