ply
format ascii 1.0
element vertex 10
property float x
property float y
property float z
element face 16
property list uchar int vertex_indices
end_header
1593.49316 -137.201279 275.562378
1601.95569 -159.298187 276.868958
1612.67444 -163.828888 276.868958
1639.85364 -151.461304 259.602814
1625.79443 -121.86145 267.454132
1593.49316 -137.201279 283.562378
1601.95569 -159.298187 284.868958
1612.67444 -163.828888 284.868958
1639.85364 -151.461304 267.602814
1625.79443 -121.86145 275.454132
3 8 9 5
3 0 4 3
3 5 6 7
3 2 1 0
3 7 8 5
3 0 3 2
3 0 1 6
3 0 6 5
3 1 2 7
3 1 7 6
3 2 3 8
3 2 8 7
3 3 4 9
3 3 9 8
3 4 0 5
3 4 5 9
