ply
format ascii 1.0
element vertex 34
property float x
property float y
property float z
element face 32
property list uchar int vertex_indices
end_header
2995.89209 715.937378 178.960724
3005.80176 717.278809 178.960724
2981.37524 823.176514 186.624496
2991.27075 824.619141 186.624496
2969.2876 898.428406 185.163055
2979.15161 900.071533 185.163055
2964.60156 923.891724 185.163055
2974.3877 925.948792 185.163055
2962.10889 932.616638 187.238617
2971.729 935.34668 187.238617
2949.28101 977.855164 182.380249
2958.76221 981.033936 182.380249
2929.68188 1029.36426 192.006638
2938.89502 1033.25232 192.006638
2908.67725 1074.07678 190.851593
2917.52832 1078.73083 190.851593
2880.3418 1123.20142 189.22937
2888.73608 1128.63611 189.22937
2844.95874 1172.50452 193.487717
2852.75781 1178.76355 193.487717
2790.11841 1235.59229 188.835312
2797.6228 1242.20154 188.835312
2770.83008 1256.6687 188.835312
2778.18066 1263.44873 188.835312
2615.78247 1424.60205 190.089981
2623.22852 1431.27722 190.089981
2504.44067 1553.82214 195.463882
2512.02417 1560.34058 195.463882
2501.97412 1557.01379 195.463882
2509.8623 1563.16016 195.463882
2495.10376 1565.83337 194.070953
2503.54517 1571.19446 194.070953
2472.60547 1603.21667 195.524597
2481.17383 1608.3728 195.524597
3 0 1 2
3 1 3 2
3 2 3 4
3 3 5 4
3 4 5 6
3 5 7 6
3 6 7 8
3 7 9 8
3 8 9 10
3 9 11 10
3 10 11 12
3 11 13 12
3 12 13 14
3 13 15 14
3 14 15 16
3 15 17 16
3 16 17 18
3 17 19 18
3 18 19 20
3 19 21 20
3 20 21 22
3 21 23 22
3 22 23 24
3 23 25 24
3 24 25 26
3 25 27 26
3 26 27 28
3 27 29 28
3 28 29 30
3 29 31 30
3 30 31 32
3 31 33 32
