ply
format ascii 1.0
element vertex 8
property float x
property float y
property float z
element face 12
property list uchar int vertex_indices
end_header
-1146.23218 457.845947 247.714813
-1084.74731 452.090729 246.747665
-1087.21643 425.730255 250.540695
-1148.69153 431.485474 250.536804
-1146.23218 457.845947 250.91481
-1084.74731 452.090729 249.947662
-1087.21643 425.730255 253.740692
-1148.69153 431.485474 253.736801
3 5 4 7
3 3 0 1
3 7 6 5
3 1 2 3
3 0 1 5
3 0 5 4
3 1 2 6
3 1 6 5
3 2 3 7
3 2 7 6
3 3 0 4
3 3 4 7
