ply
format ascii 1.0
element vertex 8
property float x
property float y
property float z
element face 12
property list uchar int vertex_indices
end_header
576.67926 -349.587738 278.097046
583.583008 -325.108582 287.234344
615.787476 -334.203369 282.985748
608.883789 -358.671387 277.896088
576.67926 -349.587738 281.297058
583.583008 -325.108582 290.434357
615.787476 -334.203369 286.18576
608.883789 -358.671387 281.0961
3 5 4 7
3 3 0 1
3 7 6 5
3 1 2 3
3 0 1 5
3 0 5 4
3 1 2 6
3 1 6 5
3 2 3 7
3 2 7 6
3 3 0 4
3 3 4 7
