ply
format ascii 1.0
element vertex 20
property float x
property float y
property float z
element face 18
property list uchar int vertex_indices
end_header
-691.624207 2142.2312 313.385315
-688.211548 2141.4541 313.385315
-688.8573 2154.37769 313.385315
-685.478699 2153.46387 313.385315
-687.351257 2156.54102 313.385315
-685.299988 2153.70508 313.385315
-684.546509 2157.32617 313.385315
-685.141846 2153.8772 313.385315
-672.029846 2154.42603 313.385315
-672.890259 2151.03345 313.385315
-670.436401 2153.55713 312.71109
-672.740845 2150.92285 312.71109
-669.430298 2152.00171 312.71109
-672.817383 2151.11987 312.71109
-669.526428 2149.98267 312.71109
-672.798767 2151.22437 312.71109
-671.012573 2148.31665 312.71109
-672.493835 2151.48779 312.71109
-689.20813 2140.24316 313.385315
-690.627625 2143.44238 313.385315
3 0 1 2
3 1 3 2
3 2 3 4
3 3 5 4
3 4 5 6
3 5 7 6
3 6 7 8
3 7 9 8
3 8 9 10
3 9 11 10
3 10 11 12
3 11 13 12
3 12 13 14
3 13 15 14
3 14 15 16
3 15 17 16
3 16 17 18
3 17 19 18
