ply
format ascii 1.0
element vertex 24
property float x
property float y
property float z
element face 44
property list uchar int vertex_indices
end_header
2175.97217 -2161.96924 220.618225
2169.78516 -2176.14014 219.518921
2179.06104 -2180.19214 219.518921
2174.20996 -2191.302 219.518921
2184.21216 -2195.66553 215.223923
2188.4436 -2185.96973 220.144043
2198.21338 -2190.22217 220.144043
2206.74365 -2170.67432 215.851212
2197.02246 -2166.43311 220.144043
2199.5979 -2160.52197 219.572662
2189.93457 -2156.30298 219.572662
2185.62598 -2166.18823 220.144043
2175.97217 -2161.96924 228.618225
2169.78516 -2176.14014 227.518921
2179.06104 -2180.19214 227.518921
2174.20996 -2191.302 227.518921
2184.21216 -2195.66553 223.223923
2188.4436 -2185.96973 228.144043
2198.21338 -2190.22217 228.144043
2206.74365 -2170.67432 223.851212
2197.02246 -2166.43311 228.144043
2199.5979 -2160.52197 227.572662
2189.93457 -2156.30298 227.572662
2185.62598 -2166.18823 228.144043
3 23 12 13
3 1 0 11
3 14 15 16
3 4 3 2
3 17 18 19
3 7 6 5
3 20 21 22
3 10 9 8
3 23 13 14
3 2 1 11
3 14 16 17
3 5 4 2
3 17 19 20
3 8 7 5
3 20 22 23
3 11 10 8
3 23 14 17
3 5 2 11
3 17 20 23
3 11 8 5
3 0 1 13
3 0 13 12
3 1 2 14
3 1 14 13
3 2 3 15
3 2 15 14
3 3 4 16
3 3 16 15
3 4 5 17
3 4 17 16
3 5 6 18
3 5 18 17
3 6 7 19
3 6 19 18
3 7 8 20
3 7 20 19
3 8 9 21
3 8 21 20
3 9 10 22
3 9 22 21
3 10 11 23
3 10 23 22
3 11 0 12
3 11 12 23
