ply
format ascii 1.0
element vertex 8
property float x
property float y
property float z
element face 12
property list uchar int vertex_indices
end_header
-1227.13062 -57.1514282 249.317108
-1213.88477 -57.2738762 249.317108
-1214.03003 -72.8586044 250.198654
-1227.27588 -72.7361526 250.198654
-1227.13062 -57.1514282 252.517105
-1213.88477 -57.2738762 252.517105
-1214.03003 -72.8586044 253.398651
-1227.27588 -72.7361526 253.398651
3 5 4 7
3 3 0 1
3 7 6 5
3 1 2 3
3 0 1 5
3 0 5 4
3 1 2 6
3 1 6 5
3 2 3 7
3 2 7 6
3 3 0 4
3 3 4 7
