ply
format ascii 1.0
element vertex 24
property float x
property float y
property float z
element face 22
property list uchar int vertex_indices
end_header
-2640.71216 2458.49756 294.757294
-2640.72827 2465.49756 294.757294
-3092.28052 2457.46265 307.413757
-3092.37671 2464.46191 307.413757
-3119.62964 2452.08105 313.813049
-3121.80664 2458.73389 313.813049
-3142.72803 2440.90479 313.813049
-3146.50195 2446.80029 313.813049
-3162.22021 2424.85791 313.491058
-3167.52197 2429.42871 313.491058
-3175.0647 2403.38965 299.714508
-3181.44019 2406.28027 299.714508
-3181.51147 2382.21118 299.714508
-3188.39404 2383.48755 299.714508
-3200.22974 2267.15356 299.491119
-3207.10913 2268.44775 299.491119
-3206.83984 2248.84106 296.526611
-3212.7959 2252.51855 296.526611
-3220.40381 2234.36206 296.526611
-3224.92993 2239.7019 296.526611
-3241.40137 2219.36328 291.150208
-3245.16089 2225.26782 291.150208
-3396.69409 2122.07861 269.33902
-3400.41016 2128.0105 269.33902
3 0 1 2
3 1 3 2
3 2 3 4
3 3 5 4
3 4 5 6
3 5 7 6
3 6 7 8
3 7 9 8
3 8 9 10
3 9 11 10
3 10 11 12
3 11 13 12
3 12 13 14
3 13 15 14
3 14 15 16
3 15 17 16
3 16 17 18
3 17 19 18
3 18 19 20
3 19 21 20
3 20 21 22
3 21 23 22
