ply
format ascii 1.0
element vertex 14
property float x
property float y
property float z
element face 12
property list uchar int vertex_indices
end_header
594.207947 1998.52148 247.77977
595.750977 2002.21191 247.77977
576.474976 2005.94141 248.911423
577.755005 2009.73108 248.911423
563.489685 2008.922 248.385498
564.113037 2012.87305 248.385498
548.716309 2010.30298 248.385498
548.928284 2014.29736 248.385498
535.510254 2010.40063 248.839355
535.448975 2014.40015 248.839355
522.810608 2009.90515 248.839355
522.508972 2013.89368 248.839355
448.799286 2003.83923 256.368439
448.472534 2007.82581 256.368439
3 0 1 2
3 1 3 2
3 2 3 4
3 3 5 4
3 4 5 6
3 5 7 6
3 6 7 8
3 7 9 8
3 8 9 10
3 9 11 10
3 10 11 12
3 11 13 12
