ply
format ascii 1.0
element vertex 50
property float x
property float y
property float z
element face 96
property list uchar int vertex_indices
end_header
1771.94434 1293.42114 196.152298
1773.93896 1283.16858 196.152298
1768.74902 1282.15564 196.152298
1764.45972 1281.32068 196.152298
1751.84314 1278.8606 196.152298
1750.30359 1286.77539 196.152298
1762.92017 1289.22437 196.152298
1762.46509 1291.57324 196.152298
1763.16223 1291.70679 196.152298
1762.14551 1296.90552 196.152298
1756.41333 1295.79224 196.152298
1757.18799 1291.84045 196.152298
1749.71301 1290.3822 196.152298
1746.93408 1304.68665 198.993393
1754.39941 1306.14502 195.465057
1754.96094 1303.25073 195.465057
1760.00562 1304.23035 195.465057
1758.94055 1309.70715 195.465057
1762.51343 1310.40857 195.465057
1767.02551 1311.28796 195.465057
1768.08093 1311.48828 195.465057
1769.64954 1303.39539 195.465057
1764.1886 1302.32678 195.465057
1764.63391 1300.05579 195.465057
1770.43384 1301.19128 195.465057
1771.94434 1293.42114 204.152298
1773.93896 1283.16858 204.152298
1768.74902 1282.15564 204.152298
1764.45972 1281.32068 204.152298
1751.84314 1278.8606 204.152298
1750.30359 1286.77539 204.152298
1762.92017 1289.22437 204.152298
1762.46509 1291.57324 204.152298
1763.16223 1291.70679 204.152298
1762.14551 1296.90552 204.152298
1756.41333 1295.79224 204.152298
1757.18799 1291.84045 204.152298
1749.71301 1290.3822 204.152298
1746.93408 1304.68665 206.993393
1754.39941 1306.14502 203.465057
1754.96094 1303.25073 203.465057
1760.00562 1304.23035 203.465057
1758.94055 1309.70715 203.465057
1762.51343 1310.40857 203.465057
1767.02551 1311.28796 203.465057
1768.08093 1311.48828 203.465057
1769.64954 1303.39539 203.465057
1764.1886 1302.32678 203.465057
1764.63391 1300.05579 203.465057
1770.43384 1301.19128 203.465057
3 25 49 48
3 23 24 0
3 47 46 45
3 20 21 22
3 45 44 43
3 18 19 20
3 43 42 41
3 16 17 18
3 40 39 38
3 13 14 15
3 38 37 36
3 11 12 13
3 33 32 31
3 6 7 8
3 31 30 29
3 4 5 6
3 28 27 26
3 1 2 3
3 26 25 48
3 23 0 1
3 47 45 43
3 18 20 22
3 38 36 35
3 10 11 13
3 31 29 28
3 3 4 6
3 28 26 48
3 23 1 3
3 48 47 43
3 18 22 23
3 40 38 35
3 10 13 15
3 33 31 28
3 3 6 8
3 28 48 43
3 18 23 3
3 41 40 35
3 10 15 16
3 33 28 43
3 18 3 8
3 41 35 34
3 9 10 16
3 34 33 43
3 18 8 9
3 43 41 34
3 9 16 18
3 0 1 26
3 0 26 25
3 1 2 27
3 1 27 26
3 2 3 28
3 2 28 27
3 3 4 29
3 3 29 28
3 4 5 30
3 4 30 29
3 5 6 31
3 5 31 30
3 6 7 32
3 6 32 31
3 7 8 33
3 7 33 32
3 8 9 34
3 8 34 33
3 9 10 35
3 9 35 34
3 10 11 36
3 10 36 35
3 11 12 37
3 11 37 36
3 12 13 38
3 12 38 37
3 13 14 39
3 13 39 38
3 14 15 40
3 14 40 39
3 15 16 41
3 15 41 40
3 16 17 42
3 16 42 41
3 17 18 43
3 17 43 42
3 18 19 44
3 18 44 43
3 19 20 45
3 19 45 44
3 20 21 46
3 20 46 45
3 21 22 47
3 21 47 46
3 22 23 48
3 22 48 47
3 23 24 49
3 23 49 48
3 24 0 25
3 24 25 49
