ply
format ascii 1.0
element vertex 20
property float x
property float y
property float z
element face 36
property list uchar int vertex_indices
end_header
3079.90576 -1609.44604 279.292847
3084.30176 -1611.10474 279.292847
3081.81323 -1617.73938 279.292847
3077.41724 -1616.0918 279.292847
3067.93799 -1612.52966 279.292847
3079.88647 -1580.71448 275.678192
3089.35596 -1584.26562 275.678192
3093.07422 -1585.66821 275.678192
3090.40186 -1592.79272 275.678192
3086.68359 -1591.39001 275.678192
3079.90576 -1609.44604 287.292847
3084.30176 -1611.10474 287.292847
3081.81323 -1617.73938 287.292847
3077.41724 -1616.0918 287.292847
3067.93799 -1612.52966 287.292847
3079.88647 -1580.71448 283.678192
3089.35596 -1584.26562 283.678192
3093.07422 -1585.66821 283.678192
3090.40186 -1592.79272 283.678192
3086.68359 -1591.39001 283.678192
3 19 18 17
3 7 8 9
3 17 16 15
3 5 6 7
3 15 14 13
3 3 4 5
3 13 12 11
3 1 2 3
3 19 17 15
3 5 7 9
3 13 11 10
3 0 1 3
3 10 19 15
3 5 9 0
3 15 13 10
3 0 3 5
3 0 1 11
3 0 11 10
3 1 2 12
3 1 12 11
3 2 3 13
3 2 13 12
3 3 4 14
3 3 14 13
3 4 5 15
3 4 15 14
3 5 6 16
3 5 16 15
3 6 7 17
3 6 17 16
3 7 8 18
3 7 18 17
3 8 9 19
3 8 19 18
3 9 0 10
3 9 10 19
