ply
format ascii 1.0
element vertex 14
property float x
property float y
property float z
element face 12
property list uchar int vertex_indices
end_header
-1906.36511 143.648819 194.182663
-1896.37964 143.110184 194.182663
-1905.40576 161.219559 178.785172
-1895.47986 160.003967 178.785172
-1901.56506 182.540237 178.785172
-1891.90356 179.960556 178.785172
-1894.51855 201.87117 168.029999
-1885.47192 197.609955 168.029999
-1883.42322 221.040649 168.029999
-1875.32349 215.175903 168.029999
-1868.95544 237.113312 168.029999
-1862.35071 229.604782 168.029999
-1852.38672 248.455231 205.419022
-1846.75354 240.19281 205.419022
3 0 1 2
3 1 3 2
3 2 3 4
3 3 5 4
3 4 5 6
3 5 7 6
3 6 7 8
3 7 9 8
3 8 9 10
3 9 11 10
3 10 11 12
3 11 13 12
