ply
format ascii 1.0
element vertex 12
property float x
property float y
property float z
element face 10
property list uchar int vertex_indices
end_header
2737.79785 462.096405 168.029999
2737.31494 464.037231 168.029999
2683.90234 448.688507 168.029999
2683.46167 450.639404 168.029999
2646.34106 441.447906 168.029999
2646.07935 443.430725 168.029999
2602.83447 437.989258 168.029999
2602.75195 439.987549 168.029999
2555.09741 437.676758 178.332153
2555.07617 439.676666 178.332153
2548.98975 437.421539 178.332153
2548.90625 439.4198 178.332153
3 0 1 2
3 1 3 2
3 2 3 4
3 3 5 4
3 4 5 6
3 5 7 6
3 6 7 8
3 7 9 8
3 8 9 10
3 9 11 10
