ply
format ascii 1.0
element vertex 12
property float x
property float y
property float z
element face 10
property list uchar int vertex_indices
end_header
1082.1875 -172.045868 266.913269
1077.62439 -165.474823 266.913269
1078.1106 -174.867111 265.437469
1073.97461 -168.01918 265.437469
1063.64404 -183.249023 265.437469
1059.85803 -176.201599 265.437469
1058.29688 -185.464981 265.437469
1055.61938 -177.926361 265.437469
1053.68994 -186.809586 265.437469
1051.82166 -179.030792 265.437469
1049.83679 -187.513092 266.788818
1048.41284 -179.640854 266.788818
3 0 1 2
3 1 3 2
3 2 3 4
3 3 5 4
3 4 5 6
3 5 7 6
3 6 7 8
3 7 9 8
3 8 9 10
3 9 11 10
