ply
format ascii 1.0
element vertex 8
property float x
property float y
property float z
element face 12
property list uchar int vertex_indices
end_header
-172.418945 175.049896 228.634583
-154.244614 182.140945 233.394897
-141.047165 148.333221 224.545151
-159.231186 141.242172 224.545151
-172.418945 175.049896 236.634583
-154.244614 182.140945 241.394897
-141.047165 148.333221 232.545151
-159.231186 141.242172 232.545151
3 5 4 7
3 3 0 1
3 7 6 5
3 1 2 3
3 0 1 5
3 0 5 4
3 1 2 6
3 1 6 5
3 2 3 7
3 2 7 6
3 3 0 4
3 3 4 7
