ply
format ascii 1.0
element vertex 14
property float x
property float y
property float z
element face 24
property list uchar int vertex_indices
end_header
-2340.74194 -1236.47009 372.550171
-2338.64087 -1250.11792 369.160767
-2304.74194 -1244.24023 365.556641
-2296.23071 -1222.08765 374.402435
-2298.22534 -1218.20264 374.402435
-2314.6084 -1224.60339 373.049103
-2313.65967 -1230.16943 373.049103
-2340.74194 -1236.47009 380.550171
-2338.64087 -1250.11792 377.160767
-2304.74194 -1244.24023 373.556641
-2296.23071 -1222.08765 382.402435
-2298.22534 -1218.20264 382.402435
-2314.6084 -1224.60339 381.049103
-2313.65967 -1230.16943 381.049103
3 13 7 8
3 1 0 6
3 8 9 10
3 3 2 1
3 10 11 12
3 5 4 3
3 13 8 10
3 3 1 6
3 10 12 13
3 6 5 3
3 0 1 8
3 0 8 7
3 1 2 9
3 1 9 8
3 2 3 10
3 2 10 9
3 3 4 11
3 3 11 10
3 4 5 12
3 4 12 11
3 5 6 13
3 5 13 12
3 6 0 7
3 6 7 13
