ply
format ascii 1.0
element vertex 10
property float x
property float y
property float z
element face 16
property list uchar int vertex_indices
end_header
-432.407776 -127.672325 242.569199
-425.55246 -133.57225 246.547653
-434.208771 -143.635544 242.569199
-441.064087 -137.724472 242.569199
-435.854828 -131.679825 242.569199
-432.407776 -127.672325 250.569199
-425.55246 -133.57225 254.547653
-434.208771 -143.635544 250.569199
-441.064087 -137.724472 250.569199
-435.854828 -131.679825 250.569199
3 6 5 9
3 4 0 1
3 9 8 7
3 2 3 4
3 7 6 9
3 4 1 2
3 0 1 6
3 0 6 5
3 1 2 7
3 1 7 6
3 2 3 8
3 2 8 7
3 3 4 9
3 3 9 8
3 4 0 5
3 4 5 9
