ply
format ascii 1.0
element vertex 14
property float x
property float y
property float z
element face 12
property list uchar int vertex_indices
end_header
-1435.07666 -346.571625 251.065811
-1438.34656 -345.323547 251.065811
-1436.96655 -350.166046 251.065811
-1438.4707 -347.005676 251.065811
-1453.3125 -355.779114 255.258469
-1454.54236 -352.502289 255.258469
-1456.80518 -357.618469 255.258469
-1458.02112 -354.336487 255.258469
-1463.82141 -359.564117 255.258469
-1463.8634 -356.064362 255.258469
-1472.80273 -357.827454 255.258469
-1471.76855 -354.483704 255.258469
-1482.32361 -353.922577 252.649506
-1480.99329 -350.685272 252.649506
3 0 1 2
3 1 3 2
3 2 3 4
3 3 5 4
3 4 5 6
3 5 7 6
3 6 7 8
3 7 9 8
3 8 9 10
3 9 11 10
3 10 11 12
3 11 13 12
