ply
format ascii 1.0
element vertex 8
property float x
property float y
property float z
element face 12
property list uchar int vertex_indices
end_header
1623.13171 -785.859924 255.578949
1613.33289 -795.667175 258.505798
1603.01111 -785.3479 258.505798
1612.80994 -775.540649 258.505798
1623.13171 -785.859924 263.578949
1613.33289 -795.667175 266.505798
1603.01111 -785.3479 266.505798
1612.80994 -775.540649 266.505798
3 5 4 7
3 3 0 1
3 7 6 5
3 1 2 3
3 0 1 5
3 0 5 4
3 1 2 6
3 1 6 5
3 2 3 7
3 2 7 6
3 3 0 4
3 3 4 7
