ply
format ascii 1.0
element vertex 8
property float x
property float y
property float z
element face 12
property list uchar int vertex_indices
end_header
408.133392 -782.409058 292.867462
428.040924 -799.318481 292.867462
418.687469 -810.35022 286.877991
398.770264 -793.440796 296.786285
408.133392 -782.409058 296.067474
428.040924 -799.318481 296.067474
418.687469 -810.35022 290.078003
398.770264 -793.440796 299.986298
3 5 4 7
3 3 0 1
3 7 6 5
3 1 2 3
3 0 1 5
3 0 5 4
3 1 2 6
3 1 6 5
3 2 3 7
3 2 7 6
3 3 0 4
3 3 4 7
