ply
format ascii 1.0
element vertex 8
property float x
property float y
property float z
element face 12
property list uchar int vertex_indices
end_header
-1237.77185 1163.94543 262.444153
-1203.06934 1166.22754 251.223572
-1200.98755 1134.67957 238.951141
-1235.69983 1132.39746 245.217804
-1237.77185 1163.94543 270.444153
-1203.06934 1166.22754 259.223572
-1200.98755 1134.67957 246.951141
-1235.69983 1132.39746 253.217804
3 5 4 7
3 3 0 1
3 7 6 5
3 1 2 3
3 0 1 5
3 0 5 4
3 1 2 6
3 1 6 5
3 2 3 7
3 2 7 6
3 3 0 4
3 3 4 7
