ply
format ascii 1.0
element vertex 8
property float x
property float y
property float z
element face 12
property list uchar int vertex_indices
end_header
-2238.29956 -1774.95593 194.692535
-2183.60229 -1737.43005 196.081757
-2195.46338 -1720.13098 199.796005
-2250.16064 -1757.66797 196.324692
-2238.29956 -1774.95593 202.692535
-2183.60229 -1737.43005 204.081757
-2195.46338 -1720.13098 207.796005
-2250.16064 -1757.66797 204.324692
3 6 7 4
3 0 3 2
3 4 5 6
3 2 1 0
3 0 1 5
3 0 5 4
3 1 2 6
3 1 6 5
3 2 3 7
3 2 7 6
3 3 0 4
3 3 4 7
