ply
format ascii 1.0
element vertex 10
property float x
property float y
property float z
element face 8
property list uchar int vertex_indices
end_header
58.1561928 -2385.23413 229.63266
57.3771896 -2381.31055 229.63266
47.6466064 -2387.31909 229.264755
47.0303459 -2383.3667 229.264755
32.4558372 -2389.16382 229.264755
32.9601479 -2385.19556 229.264755
13.84552 -2382.85571 230.439697
16.1900597 -2379.61475 230.439697
-13.7119093 -2356.04028 228.796448
-10.9207525 -2353.17505 228.796448
3 0 1 2
3 1 3 2
3 2 3 4
3 3 5 4
3 4 5 6
3 5 7 6
3 6 7 8
3 7 9 8
