ply
format ascii 1.0
element vertex 26
property float x
property float y
property float z
element face 24
property list uchar int vertex_indices
end_header
1246.51709 919.116333 221.282516
1247.24951 915.18396 221.282516
1268.58887 923.220886 218.506638
1269.64038 919.361572 218.506638
1303.13538 934.550171 220.655899
1304.28613 930.719238 220.655899
1313.0863 936.568665 220.655899
1313.71985 932.619141 220.655899
1324.25854 937.917053 220.264221
1324.1012 933.920166 220.264221
1335.78174 935.64386 220.264221
1334.5769 931.829651 220.264221
1339.77905 932.961243 220.264221
1337.33813 929.792297 220.264221
1351.28723 923.818787 220.428177
1348.35193 921.10144 220.428177
1358.98267 912.093933 220.428177
1355.31592 910.495605 220.428177
1385.94214 844.592102 206.23822
1382.23071 843.100403 206.23822
1408.82068 788.091858 186.043106
1405.15112 786.500122 186.043106
1424.31995 756.110107 178.339432
1420.73315 754.339539 178.339432
1461.51794 681.342407 168.029999
1457.93665 679.560669 168.029999
3 0 1 2
3 1 3 2
3 2 3 4
3 3 5 4
3 4 5 6
3 5 7 6
3 6 7 8
3 7 9 8
3 8 9 10
3 9 11 10
3 10 11 12
3 11 13 12
3 12 13 14
3 13 15 14
3 14 15 16
3 15 17 16
3 16 17 18
3 17 19 18
3 18 19 20
3 19 21 20
3 20 21 22
3 21 23 22
3 22 23 24
3 23 25 24
