ply
format ascii 1.0
element vertex 14
property float x
property float y
property float z
element face 12
property list uchar int vertex_indices
end_header
-2713.71118 1927.14148 285.034424
-2706.73315 1927.69666 285.034424
-2716.48438 1962.00903 284.599823
-2709.51782 1962.69324 284.599823
-2717.80566 1969.24255 284.599823
-2711.02393 1970.97766 284.599823
-2721.46704 1981.42944 283.661255
-2714.95361 1983.99353 283.661255
-2731.21484 2003.30139 283.661255
-2725.05542 2006.62695 283.661255
-2747.62012 2029.8374 289.251068
-2741.72607 2033.61353 289.251068
-2764.45532 2055.16895 285.069031
-2758.62524 2059.04346 285.069031
3 0 1 2
3 1 3 2
3 2 3 4
3 3 5 4
3 4 5 6
3 5 7 6
3 6 7 8
3 7 9 8
3 8 9 10
3 9 11 10
3 10 11 12
3 11 13 12
