ply
format ascii 1.0
element vertex 24
property float x
property float y
property float z
element face 44
property list uchar int vertex_indices
end_header
-2760.95923 -1689.64062 324.255615
-2742.08789 -1689.75195 324.443542
-2742.12646 -1696.80957 324.443542
-2734.88379 -1696.84302 324.443542
-2735 -1715.87866 329.054688
-2743.61768 -1715.823 328.360596
-2743.67578 -1724.08289 328.360596
-2761.23999 -1723.98267 328.360596
-2761.20142 -1716.92505 328.360596
-2769.73169 -1716.88049 328.360596
-2769.62524 -1697.8783 324.255615
-2761.00781 -1697.92285 324.255615
-2760.95923 -1689.64062 332.255615
-2742.08789 -1689.75195 332.443542
-2742.12646 -1696.80957 332.443542
-2734.88379 -1696.84302 332.443542
-2735 -1715.87866 337.054688
-2743.61768 -1715.823 336.360596
-2743.67578 -1724.08289 336.360596
-2761.23999 -1723.98267 336.360596
-2761.20142 -1716.92505 336.360596
-2769.73169 -1716.88049 336.360596
-2769.62524 -1697.8783 332.255615
-2761.00781 -1697.92285 332.255615
3 13 12 23
3 11 0 1
3 23 22 21
3 9 10 11
3 20 19 18
3 6 7 8
3 17 16 15
3 3 4 5
3 14 13 23
3 11 1 2
3 23 21 20
3 8 9 11
3 20 18 17
3 5 6 8
3 17 15 14
3 2 3 5
3 14 23 20
3 8 11 2
3 20 17 14
3 2 5 8
3 0 1 13
3 0 13 12
3 1 2 14
3 1 14 13
3 2 3 15
3 2 15 14
3 3 4 16
3 3 16 15
3 4 5 17
3 4 17 16
3 5 6 18
3 5 18 17
3 6 7 19
3 6 19 18
3 7 8 20
3 7 20 19
3 8 9 21
3 8 21 20
3 9 10 22
3 9 22 21
3 10 11 23
3 10 23 22
3 11 0 12
3 11 12 23
