ply
format ascii 1.0
element vertex 66
property float x
property float y
property float z
element face 128
property list uchar int vertex_indices
end_header
-2379.78247 591.028564 201.820541
-2385.68872 594.056458 201.820541
-2379.9082 607.82666 201.820541
-2385.8147 621.585754 202.848206
-2380.08252 624.535767 202.848206
-2377.75879 620.61731 202.848206
-2376.24829 621.518982 202.848206
-2377.66187 623.912354 202.848206
-2370.10938 628.376282 202.848206
-2363.47681 617.177551 201.859619
-2360.91089 617.199768 201.859619
-2360.93994 619.337097 203.794754
-2358.42236 619.370544 203.794754
-2358.45142 621.852966 203.794754
-2351.10229 621.942017 203.794754
-2351.01514 613.971497 201.859619
-2347.70386 614.004944 201.859619
-2347.60693 604.520508 201.859619
-2350.89893 604.008423 201.859619
-2351.00562 597.418335 201.859619
-2352.24487 597.106628 201.859619
-2352.14819 593.900635 201.859619
-2358.15137 594.546265 201.859619
-2357.92871 596.605652 201.859619
-2360.698 596.895081 201.859619
-2360.17505 601.737488 201.859619
-2366.46875 601.537109 201.820541
-2367.57251 598.186401 201.820541
-2364.72583 596.705872 201.859619
-2369.73169 587.065613 202.216583
-2376.64526 590.650085 201.820541
-2375.18311 593.4776 201.820541
-2377.80713 594.835693 201.820541
-2379.78247 591.028564 374.620544
-2385.68872 594.056458 374.620544
-2379.9082 607.82666 374.620544
-2385.8147 621.585754 375.648193
-2380.08252 624.535767 375.648193
-2377.75879 620.61731 375.648193
-2376.24829 621.518982 375.648193
-2377.66187 623.912354 375.648193
-2370.10938 628.376282 375.648193
-2363.47681 617.177551 374.659607
-2360.91089 617.199768 374.659607
-2360.93994 619.337097 376.594757
-2358.42236 619.370544 376.594757
-2358.45142 621.852966 376.594757
-2351.10229 621.942017 376.594757
-2351.01514 613.971497 374.659607
-2347.70386 614.004944 374.659607
-2347.60693 604.520508 374.659607
-2350.89893 604.008423 374.659607
-2351.00562 597.418335 374.659607
-2352.24487 597.106628 374.659607
-2352.14819 593.900635 374.659607
-2358.15137 594.546265 374.659607
-2357.92871 596.605652 374.659607
-2360.698 596.895081 374.659607
-2360.17505 601.737488 374.659607
-2366.46875 601.537109 374.620544
-2367.57251 598.186401 374.620544
-2364.72583 596.705872 374.659607
-2369.73169 587.065613 375.016571
-2376.64526 590.650085 374.620544
-2375.18311 593.4776 374.620544
-2377.80713 594.835693 374.620544
3 34 33 65
3 32 0 1
3 64 63 62
3 29 30 31
3 62 61 60
3 27 28 29
3 58 57 56
3 23 24 25
3 56 55 54
3 21 22 23
3 53 52 51
3 18 19 20
3 51 50 49
3 16 17 18
3 48 47 46
3 13 14 15
3 45 44 43
3 10 11 12
3 42 41 40
3 7 8 9
3 38 37 36
3 3 4 5
3 35 34 65
3 32 1 2
3 64 62 60
3 27 29 31
3 58 56 54
3 21 23 25
3 51 49 48
3 15 16 18
3 48 46 45
3 12 13 15
3 42 40 39
3 6 7 9
3 38 36 35
3 2 3 5
3 35 65 64
3 31 32 2
3 64 60 59
3 26 27 31
3 58 54 53
3 20 21 25
3 53 51 48
3 15 18 20
3 48 45 43
3 10 12 15
3 42 39 38
3 5 6 9
3 38 35 64
3 31 2 5
3 58 53 48
3 15 20 25
3 48 43 42
3 9 10 15
3 42 38 64
3 31 5 9
3 59 58 48
3 15 25 26
3 42 64 59
3 26 31 9
3 59 48 42
3 9 15 26
3 0 1 34
3 0 34 33
3 1 2 35
3 1 35 34
3 2 3 36
3 2 36 35
3 3 4 37
3 3 37 36
3 4 5 38
3 4 38 37
3 5 6 39
3 5 39 38
3 6 7 40
3 6 40 39
3 7 8 41
3 7 41 40
3 8 9 42
3 8 42 41
3 9 10 43
3 9 43 42
3 10 11 44
3 10 44 43
3 11 12 45
3 11 45 44
3 12 13 46
3 12 46 45
3 13 14 47
3 13 47 46
3 14 15 48
3 14 48 47
3 15 16 49
3 15 49 48
3 16 17 50
3 16 50 49
3 17 18 51
3 17 51 50
3 18 19 52
3 18 52 51
3 19 20 53
3 19 53 52
3 20 21 54
3 20 54 53
3 21 22 55
3 21 55 54
3 22 23 56
3 22 56 55
3 23 24 57
3 23 57 56
3 24 25 58
3 24 58 57
3 25 26 59
3 25 59 58
3 26 27 60
3 26 60 59
3 27 28 61
3 27 61 60
3 28 29 62
3 28 62 61
3 29 30 63
3 29 63 62
3 30 31 64
3 30 64 63
3 31 32 65
3 31 65 64
3 32 0 33
3 32 33 65
