ply
format ascii 1.0
element vertex 10
property float x
property float y
property float z
element face 16
property list uchar int vertex_indices
end_header
-181.665878 -819.556335 296.007202
-156.345749 -818.253906 299.112335
-150.894424 -823.575012 299.112335
-165.960617 -842.410217 293.21286
-186.604034 -825.656677 296.007202
-181.665878 -819.556335 328.007202
-156.345749 -818.253906 331.112335
-150.894424 -823.575012 331.112335
-165.960617 -842.410217 325.21286
-186.604034 -825.656677 328.007202
3 6 5 9
3 4 0 1
3 9 8 7
3 2 3 4
3 7 6 9
3 4 1 2
3 0 1 6
3 0 6 5
3 1 2 7
3 1 7 6
3 2 3 8
3 2 8 7
3 3 4 9
3 3 9 8
3 4 0 5
3 4 5 9
