ply
format ascii 1.0
element vertex 20
property float x
property float y
property float z
element face 18
property list uchar int vertex_indices
end_header
-3147.24731 1806.55054 268.080139
-3137.52856 1808.90613 268.080139
-3162.12427 1867.93481 260.161255
-3152.45483 1870.48535 260.161255
-3169.54395 1891.15369 258.651093
-3160.14014 1894.55505 258.651093
-3178.75415 1913.88696 254.510803
-3169.59814 1917.90796 254.510803
-3188.27002 1933.78247 262.134064
-3179.3313 1938.26562 262.134064
-3199.65356 1955.55176 268.684753
-3190.89551 1960.37854 268.684753
-3237.2832 2022.70715 277.797424
-3228.48071 2027.45215 277.797424
-3265.22363 2077.19385 275.811493
-3256.33179 2081.76904 275.811493
-3314.76367 2173.29199 277.329651
-3305.8645 2177.85303 277.329651
-3368.53638 2278.77686 287.75528
-3359.6272 2283.3186 287.75528
3 0 1 2
3 1 3 2
3 2 3 4
3 3 5 4
3 4 5 6
3 5 7 6
3 6 7 8
3 7 9 8
3 8 9 10
3 9 11 10
3 10 11 12
3 11 13 12
3 12 13 14
3 13 15 14
3 14 15 16
3 15 17 16
3 16 17 18
3 17 19 18
