ply
format ascii 1.0
element vertex 26
property float x
property float y
property float z
element face 48
property list uchar int vertex_indices
end_header
567.984253 -1141.35876 240.554031
585.809998 -1156.21985 237.961227
579.400085 -1163.91211 237.961227
585.180664 -1168.72107 237.961227
582.004761 -1172.5282 237.961227
576.233887 -1167.71924 237.961227
571.295715 -1173.64136 237.961227
574.539429 -1176.34644 227.876038
569.281738 -1182.65833 227.876038
566.038025 -1179.95325 227.876038
568.75885 -1176.68042 227.876038
538.374695 -1151.35522 250.437668
546.35321 -1141.78174 251.956284
567.984253 -1141.35876 248.554031
585.809998 -1156.21985 245.961227
579.400085 -1163.91211 245.961227
585.180664 -1168.72107 245.961227
582.004761 -1172.5282 245.961227
576.233887 -1167.71924 245.961227
571.295715 -1173.64136 245.961227
574.539429 -1176.34644 235.876038
569.281738 -1182.65833 235.876038
566.038025 -1179.95325 235.876038
568.75885 -1176.68042 235.876038
538.374695 -1151.35522 258.437683
546.35321 -1141.78174 259.956299
3 14 13 25
3 12 0 1
3 25 24 23
3 10 11 12
3 23 22 21
3 8 9 10
3 21 20 19
3 6 7 8
3 18 17 16
3 3 4 5
3 15 14 25
3 12 1 2
3 23 21 19
3 6 8 10
3 18 16 15
3 2 3 5
3 15 25 23
3 10 12 2
3 23 19 18
3 5 6 10
3 18 15 23
3 10 2 5
3 0 1 14
3 0 14 13
3 1 2 15
3 1 15 14
3 2 3 16
3 2 16 15
3 3 4 17
3 3 17 16
3 4 5 18
3 4 18 17
3 5 6 19
3 5 19 18
3 6 7 20
3 6 20 19
3 7 8 21
3 7 21 20
3 8 9 22
3 8 22 21
3 9 10 23
3 9 23 22
3 10 11 24
3 10 24 23
3 11 12 25
3 11 25 24
3 12 0 13
3 12 13 25
