ply
format ascii 1.0
element vertex 47
property float x
property float y
property float z
element face 45
property list uchar int vertex_indices
end_header
1167.31128 1640.12573 236.482056
1170.97131 1642.49683 236.482056
1177.33276 1643.25378 236.482056
1177.39087 1641.52832 236.482056
1180.73145 1641.79553 236.482056
1181.06067 1644.33362 236.482056
1182.72607 1644.60071 236.482056
1182.89062 1641.30566 236.482056
1186.71533 1641.90686 235.128128
1187.04456 1644.60071 235.128128
1188.55493 1644.70093 235.128128
1188.6615 1646.8606 235.128128
1190.22046 1647.02747 235.128128
1190.7627 1640.07007 235.128128
1192.00195 1640.07007 235.128128
1192.16663 1644.70093 235.128128
1193.51245 1644.92358 235.128128
1194.10315 1641.79553 235.128128
1195.29407 1641.6842 235.128128
1195.34253 1644.4895 235.128128
1196.80457 1644.4895 235.128128
1197.06604 1641.41699 235.128128
1199.79651 1641.41699 235.128128
1200.61963 1655.35425 235.128128
1193.36731 1662.22266 235.128128
1191.47913 1664.84973 235.128128
1190.35596 1667.3656 235.128128
1189.06812 1671.65137 233.485992
1187.17041 1680.6571 233.485992
1184.31396 1730.88452 232.471405
1186.2699 1737.6416 229.624115
1191.07251 1741.34851 229.624115
1198.48938 1743.75305 229.624115
1205.46094 1743.5304 229.624115
1213.53625 1740.48022 227.498093
1235.12854 1728.26843 228.173401
1242.38086 1742.71777 225.851135
1240.87036 1744.4989 225.851135
1218.59058 1792.68909 225.842072
1216.31519 1796.0509 223.428864
1213.85571 1798.87842 223.428864
1211.27051 1801.29407 223.428864
1195.61365 1816.84546 227.04332
1160.98853 1798.92297 229.720398
1165.00684 1788.91541 230.067688
1167.86316 1778.99683 230.067688
1169.40271 1765.77197 230.067688
3 46 0 1
3 2 3 4
3 6 7 8
3 9 10 11
3 12 13 14
3 16 17 18
3 20 21 22
3 22 23 24
3 34 35 36
3 37 38 39
3 39 40 41
3 41 42 43
3 46 1 2
3 2 4 5
3 6 8 9
3 12 14 15
3 16 18 19
3 20 22 24
3 33 34 36
3 37 39 41
3 41 43 44
3 46 2 5
3 6 9 11
3 12 15 16
3 16 19 20
3 20 24 25
3 32 33 36
3 37 41 44
3 46 5 6
3 12 16 20
3 20 25 26
3 32 36 37
3 37 44 45
3 46 6 11
3 12 20 26
3 32 37 45
3 45 46 11
3 11 12 26
3 31 32 45
3 11 26 27
3 30 31 45
3 11 27 28
3 29 30 45
3 45 11 28
3 28 29 45
