ply
format ascii 1.0
element vertex 20
property float x
property float y
property float z
element face 18
property list uchar int vertex_indices
end_header
-1438.93274 -211.294037 250.606903
-1439.46741 -205.820099 250.606903
-1452.26575 -212.596481 255.759766
-1452.80042 -207.122528 255.759766
-1461.55957 -213.503098 255.759766
-1461.98108 -208.019287 255.759766
-1472.98669 -214.162201 255.759766
-1472.63037 -208.673752 255.759766
-1484.47705 -211.980301 259.599701
-1482.96472 -206.692291 259.599701
-1489.33728 -209.529694 259.599701
-1487.18689 -204.467499 259.599701
-1492.76904 -208.404129 259.599701
-1491.81104 -202.98819 259.599701
-1495.68201 -208.249146 259.599701
-1496.95398 -202.898254 259.599701
-1503.93823 -211.271759 259.599701
-1505.83606 -206.109543 259.599701
-1550.81042 -228.536804 257.874207
-1552.71143 -223.375793 257.874207
3 0 1 2
3 1 3 2
3 2 3 4
3 3 5 4
3 4 5 6
3 5 7 6
3 6 7 8
3 7 9 8
3 8 9 10
3 9 11 10
3 10 11 12
3 11 13 12
3 12 13 14
3 13 15 14
3 14 15 16
3 15 17 16
3 16 17 18
3 17 19 18
