ply
format ascii 1.0
element vertex 14
property float x
property float y
property float z
element face 12
property list uchar int vertex_indices
end_header
-3352.59497 -680.959961 195.385956
-3352.00122 -677.004272 195.385956
-3367.84546 -678.640747 195.374588
-3366.57324 -674.84845 195.374588
-3377.67822 -672.461304 195.374588
-3375.23438 -669.294739 195.374588
-3384.04346 -666.214478 195.374588
-3380.95312 -663.674927 195.374588
-3389.23804 -658.451843 195.374588
-3385.86719 -656.298157 195.374588
-3394.26172 -650.190796 193.00705
-3390.56494 -648.662781 193.00705
-3400.96216 -630.156799 190.15007
-3397.16846 -628.888916 190.15007
3 0 1 2
3 1 3 2
3 2 3 4
3 3 5 4
3 4 5 6
3 5 7 6
3 6 7 8
3 7 9 8
3 8 9 10
3 9 11 10
3 10 11 12
3 11 13 12
