ply
format ascii 1.0
element vertex 10
property float x
property float y
property float z
element face 8
property list uchar int vertex_indices
end_header
3325.63306 -2172.59204 310.331299
3312.46265 -2167.84399 310.331299
3302.74463 -2236.07861 294.008301
3289.64917 -2231.12793 294.008301
3278.69238 -2296.72461 280.056091
3265.90771 -2291.0188 280.056091
3250.39575 -2353.34424 291.989105
3238.12231 -2346.60913 291.989105
3202.51489 -2435.58594 315.753662
3190.41626 -2428.5415 315.753662
3 0 1 2
3 1 3 2
3 2 3 4
3 3 5 4
3 4 5 6
3 5 7 6
3 6 7 8
3 7 9 8
