ply
format ascii 1.0
element vertex 8
property float x
property float y
property float z
element face 12
property list uchar int vertex_indices
end_header
2915.09741 -1682.01526 242.050293
2907.33179 -1680.02258 242.050293
2916.42383 -1644.56738 237.101074
2924.18945 -1646.55994 237.101074
2915.09741 -1682.01526 250.050293
2907.33179 -1680.02258 250.050293
2916.42383 -1644.56738 245.101074
2924.18945 -1646.55994 245.101074
3 5 4 7
3 3 0 1
3 7 6 5
3 1 2 3
3 0 1 5
3 0 5 4
3 1 2 6
3 1 6 5
3 2 3 7
3 2 7 6
3 3 0 4
3 3 4 7
