ply
format ascii 1.0
element vertex 8
property float x
property float y
property float z
element face 12
property list uchar int vertex_indices
end_header
-1702.91675 7.11331558 251.790894
-1665.11572 13.08004 250.733292
-1662.724 -2.07054257 235.861313
-1700.53479 -8.03726768 236.590973
-1702.91675 7.11331558 259.790894
-1665.11572 13.08004 258.733276
-1662.724 -2.07054257 243.861313
-1700.53479 -8.03726768 244.590973
3 5 4 7
3 3 0 1
3 7 6 5
3 1 2 3
3 0 1 5
3 0 5 4
3 1 2 6
3 1 6 5
3 2 3 7
3 2 7 6
3 3 0 4
3 3 4 7
