ply
format ascii 1.0
element vertex 8
property float x
property float y
property float z
element face 12
property list uchar int vertex_indices
end_header
772.510864 -1191.30774 219.031982
767.756714 -1222.62195 218.315994
785.272583 -1225.28247 212.587601
790.036499 -1193.96838 215.640259
772.510864 -1191.30774 227.031982
767.756714 -1222.62195 226.315994
785.272583 -1225.28247 220.587601
790.036499 -1193.96838 223.640259
3 6 7 4
3 0 3 2
3 4 5 6
3 2 1 0
3 0 1 5
3 0 5 4
3 1 2 6
3 1 6 5
3 2 3 7
3 2 7 6
3 3 0 4
3 3 4 7
