ply
format ascii 1.0
element vertex 14
property float x
property float y
property float z
element face 12
property list uchar int vertex_indices
end_header
3099.26025 -455.37384 232.183945
3099.84351 -453.460724 232.183945
3081.1438 -449.852356 230.787399
3081.72729 -447.939362 230.787399
2376.53101 -234.925858 209.429871
2377.1272 -233.016754 209.429871
2312.80469 -209.929916 223.518875
2313.43018 -208.030243 223.518875
2226.16797 -185.419159 240.632675
2226.7085 -183.493622 240.632675
2212.61743 -181.792297 240.632675
2213.39941 -179.951523 240.632675
2204.3855 -176.151993 245.559448
2205.51929 -174.50441 245.559448
3 0 1 2
3 1 3 2
3 2 3 4
3 3 5 4
3 4 5 6
3 5 7 6
3 6 7 8
3 7 9 8
3 8 9 10
3 9 11 10
3 10 11 12
3 11 13 12
