ply
format ascii 1.0
element vertex 8
property float x
property float y
property float z
element face 12
property list uchar int vertex_indices
end_header
-1686.24316 1296.73853 290.56778
-1671.24475 1293.43225 290.56778
-1674.70154 1277.78076 290.56778
-1689.69995 1281.08691 290.56778
-1686.24316 1296.73853 298.56778
-1671.24475 1293.43225 298.56778
-1674.70154 1277.78076 298.56778
-1689.69995 1281.08691 298.56778
3 5 4 7
3 3 0 1
3 7 6 5
3 1 2 3
3 0 1 5
3 0 5 4
3 1 2 6
3 1 6 5
3 2 3 7
3 2 7 6
3 3 0 4
3 3 4 7
