ply
format ascii 1.0
element vertex 8
property float x
property float y
property float z
element face 12
property list uchar int vertex_indices
end_header
402.372223 -433.92337 281.425903
412.161377 -457.16687 280.745178
462.637024 -435.882599 283.989929
452.838196 -412.639099 300.370117
402.372223 -433.92337 289.425903
412.161377 -457.16687 288.745178
462.637024 -435.882599 291.989929
452.838196 -412.639099 308.370117
3 6 7 4
3 0 3 2
3 4 5 6
3 2 1 0
3 0 1 5
3 0 5 4
3 1 2 6
3 1 6 5
3 2 3 7
3 2 7 6
3 3 0 4
3 3 4 7
