ply
format ascii 1.0
element vertex 26
property float x
property float y
property float z
element face 24
property list uchar int vertex_indices
end_header
-2752.59766 -1527.08167 321.13797
-2757.58569 -1524.76453 321.13797
-2765.24438 -1554.27246 323.220337
-2770.44287 -1552.47644 323.220337
-2772.07275 -1583.37671 320.673004
-2777.49951 -1582.48279 320.673004
-2777.80786 -1630.76294 318.427521
-2783.1897 -1629.62903 318.427521
-2789.27393 -1664.9939 318.450012
-2794.55542 -1663.45886 318.450012
-2789.3147 -1669.44006 320.59082
-2794.74707 -1670.30042 320.59082
-2787.76245 -1674.21692 320.59082
-2792.44556 -1677.10095 320.59082
-2784.61133 -1677.17444 320.59082
-2787.61816 -1681.77991 320.59082
-2780.56909 -1679.01587 320.59082
-2780.95166 -1684.50256 320.59082
-2688.3208 -1683.54199 321.533478
-2688.53223 -1689.03784 321.533478
-2685.77393 -1682.91187 321.533478
-2683.6814 -1687.99817 321.533478
-2683.01758 -1681.16174 321.533478
-2679.87305 -1685.67407 321.533478
-2680.79419 -1679.36951 321.533478
-2677.35205 -1683.65918 321.533478
3 0 1 2
3 1 3 2
3 2 3 4
3 3 5 4
3 4 5 6
3 5 7 6
3 6 7 8
3 7 9 8
3 8 9 10
3 9 11 10
3 10 11 12
3 11 13 12
3 12 13 14
3 13 15 14
3 14 15 16
3 15 17 16
3 16 17 18
3 17 19 18
3 18 19 20
3 19 21 20
3 20 21 22
3 21 23 22
3 22 23 24
3 23 25 24
