ply
format ascii 1.0
element vertex 14
property float x
property float y
property float z
element face 24
property list uchar int vertex_indices
end_header
2950.67139 -890.945557 218.479446
2937.83228 -917.628845 220.469193
2962.56177 -929.651306 218.250229
2970.64673 -912.86438 227.962646
2965.91187 -910.560059 227.962646
2970.66602 -900.674866 227.962646
2960.89624 -895.921509 219.977798
2950.67139 -890.945557 226.479446
2937.83228 -917.628845 228.469193
2962.56177 -929.651306 226.250229
2970.64673 -912.86438 235.962646
2965.91187 -910.560059 235.962646
2970.66602 -900.674866 235.962646
2960.89624 -895.921509 227.977798
3 13 7 8
3 1 0 6
3 8 9 10
3 3 2 1
3 11 12 13
3 6 5 4
3 8 10 11
3 4 3 1
3 11 13 8
3 1 6 4
3 0 1 8
3 0 8 7
3 1 2 9
3 1 9 8
3 2 3 10
3 2 10 9
3 3 4 11
3 3 11 10
3 4 5 12
3 4 12 11
3 5 6 13
3 5 13 12
3 6 0 7
3 6 7 13
