ply
format ascii 1.0
element vertex 42
property float x
property float y
property float z
element face 40
property list uchar int vertex_indices
end_header
2993.53076 2534.12915 0.0299999993
2992.22534 2544.04346 0.0299999993
2929.58008 2525.70972 258.445465
2928.0166 2535.58667 258.445465
2909.52393 2520.88086 258.445465
2906.59229 2530.44141 258.445465
2888.3584 2513.06665 256.159912
2884.14722 2522.13672 256.159912
2872.90137 2503.89624 256.230927
2867.30298 2512.18237 256.230927
2794.43408 2449.53271 255.574234
2788.7561 2457.7644 255.574234
2734.44409 2408.39331 255.767395
2728.56519 2416.48291 255.767395
2718.66675 2394.52417 255.520767
2711.77002 2401.76514 255.520767
2703.875 2379.25513 255.520767
2696.25513 2385.7312 255.520767
2691.2959 2362.34912 264.589874
2682.86523 2367.72729 264.589874
2663.46533 2315.82739 254.47937
2654.88525 2320.96338 254.47937
2647.93701 2293.63086 254.47937
2638.59619 2290.06055 254.47937
2677.60425 2280.49121 255.696793
2673.14429 2271.54077 255.696793
2767.06519 2235.73389 265.19693
2763.10303 2226.55225 265.19693
2835.59448 2212.30762 260.694458
2832.35791 2202.84595 260.694458
2841.74268 2210.20386 260.694458
2838.50659 2200.74194 260.694458
2937.875 2177.32275 263.857025
2935.07837 2167.72192 263.857025
3039.64966 2152.55127 268.212585
3037.33667 2142.82251 268.212585
3100.03931 2138.77441 261.248383
3097.67017 2129.05908 261.248383
3141.87598 2127.62085 265.991943
3139.33667 2117.94873 265.991943
3167.46631 2121.07202 268.261749
3164.98706 2111.38428 268.261749
3 0 1 2
3 1 3 2
3 2 3 4
3 3 5 4
3 4 5 6
3 5 7 6
3 6 7 8
3 7 9 8
3 8 9 10
3 9 11 10
3 10 11 12
3 11 13 12
3 12 13 14
3 13 15 14
3 14 15 16
3 15 17 16
3 16 17 18
3 17 19 18
3 18 19 20
3 19 21 20
3 20 21 22
3 21 23 22
3 22 23 24
3 23 25 24
3 24 25 26
3 25 27 26
3 26 27 28
3 27 29 28
3 28 29 30
3 29 31 30
3 30 31 32
3 31 33 32
3 32 33 34
3 33 35 34
3 34 35 36
3 35 37 36
3 36 37 38
3 37 39 38
3 38 39 40
3 39 41 40
