ply
format ascii 1.0
element vertex 34
property float x
property float y
property float z
element face 64
property list uchar int vertex_indices
end_header
-1561.35645 -285.823914 265.044983
-1555.93408 -296.566254 260.558014
-1552.17725 -305.015411 260.558014
-1547.76196 -310.069305 263.541016
-1536.89807 -319.976746 263.541016
-1529.47144 -325.320068 249.199844
-1525.64673 -331.130951 249.199844
-1541.89429 -359.973846 266.584686
-1555.19824 -352.470917 266.584686
-1557.66736 -356.856903 266.584686
-1587.86743 -339.84726 280.676758
-1593.21228 -336.41864 280.676758
-1584.21716 -309.880066 274.923523
-1586.3667 -297.445679 263.278809
-1586.43445 -291.278564 263.278809
-1586.87988 -278.855316 263.278809
-1565.46179 -273.033325 254.733749
-1561.35645 -285.823914 274.644989
-1555.93408 -296.566254 270.15802
-1552.17725 -305.015411 270.15802
-1547.76196 -310.069305 273.141022
-1536.89807 -319.976746 273.141022
-1529.47144 -325.320068 258.799835
-1525.64673 -331.130951 258.799835
-1541.89429 -359.973846 276.184692
-1555.19824 -352.470917 276.184692
-1557.66736 -356.856903 276.184692
-1587.86743 -339.84726 290.276764
-1593.21228 -336.41864 290.276764
-1584.21716 -309.880066 284.523529
-1586.3667 -297.445679 272.878815
-1586.43445 -291.278564 272.878815
-1586.87988 -278.855316 272.878815
-1565.46179 -273.033325 264.33374
3 17 33 32
3 15 16 0
3 31 30 29
3 12 13 14
3 29 28 27
3 10 11 12
3 27 26 25
3 8 9 10
3 25 24 23
3 6 7 8
3 23 22 21
3 4 5 6
3 19 18 17
3 0 1 2
3 17 32 31
3 14 15 0
3 29 27 25
3 8 10 12
3 25 23 21
3 4 6 8
3 19 17 31
3 14 0 2
3 31 29 25
3 8 12 14
3 25 21 20
3 3 4 8
3 20 19 31
3 14 2 3
3 31 25 20
3 3 8 14
3 0 1 18
3 0 18 17
3 1 2 19
3 1 19 18
3 2 3 20
3 2 20 19
3 3 4 21
3 3 21 20
3 4 5 22
3 4 22 21
3 5 6 23
3 5 23 22
3 6 7 24
3 6 24 23
3 7 8 25
3 7 25 24
3 8 9 26
3 8 26 25
3 9 10 27
3 9 27 26
3 10 11 28
3 10 28 27
3 11 12 29
3 11 29 28
3 12 13 30
3 12 30 29
3 13 14 31
3 13 31 30
3 14 15 32
3 14 32 31
3 15 16 33
3 15 33 32
3 16 0 17
3 16 17 33
