ply
format ascii 1.0
element vertex 20
property float x
property float y
property float z
element face 18
property list uchar int vertex_indices
end_header
-69.6731186 -2284.29468 205.158447
-73.6688309 -2284.47998 205.158447
-69.1986084 -2294.74854 221.409256
-73.1557159 -2295.33252 221.409256
-66.9344482 -2303.48608 221.409256
-70.5010834 -2305.29688 221.409256
-59.7502594 -2313.32812 221.409256
-62.619072 -2316.11548 221.409256
-51.106842 -2319.80981 226.598022
-52.884819 -2323.39282 226.598022
-38.1314888 -2324.04883 226.598022
-38.6519279 -2328.01489 226.598022
-15.9420252 -2324.36182 223.568054
-15.6040487 -2328.34766 223.568054
21.3162117 -2318.96509 225.28804
21.8877735 -2322.92407 225.28804
55.4358521 -2314.05347 225.907364
55.9727173 -2318.01733 225.907364
109.698166 -2306.99438 222.365311
110.21418 -2310.96094 222.365311
3 0 1 2
3 1 3 2
3 2 3 4
3 3 5 4
3 4 5 6
3 5 7 6
3 6 7 8
3 7 9 8
3 8 9 10
3 9 11 10
3 10 11 12
3 11 13 12
3 12 13 14
3 13 15 14
3 14 15 16
3 15 17 16
3 16 17 18
3 17 19 18
