ply
format ascii 1.0
element vertex 22
property float x
property float y
property float z
element face 40
property list uchar int vertex_indices
end_header
2984.948 -1056.83386 243.79274
2990.80615 -1054.35144 234.00235
3003.40308 -1084.08484 244.525864
2997.5354 -1086.56726 244.525864
2995.41504 -1081.56909 234.00235
2993.13965 -1082.52637 244.525864
2987.72705 -1069.73572 234.00235
2990.00244 -1068.76733 234.00235
2987.63013 -1063.17908 234.00235
2985.48047 -1064.09192 243.79274
2982.78882 -1057.7467 243.79274
2984.948 -1056.83386 251.79274
2990.80615 -1054.35144 242.00235
3003.40308 -1084.08484 252.525864
2997.5354 -1086.56726 252.525864
2995.41504 -1081.56909 242.00235
2993.13965 -1082.52637 252.525864
2987.72705 -1069.73572 242.00235
2990.00244 -1068.76733 242.00235
2987.63013 -1063.17908 242.00235
2985.48047 -1064.09192 251.79274
2982.78882 -1057.7467 251.79274
3 11 21 20
3 9 10 0
3 18 17 16
3 5 6 7
3 15 14 13
3 2 3 4
3 13 12 11
3 0 1 2
3 11 20 19
3 8 9 0
3 18 16 15
3 4 5 7
3 13 11 19
3 8 0 2
3 18 15 13
3 2 4 7
3 13 19 18
3 7 8 2
3 0 1 12
3 0 12 11
3 1 2 13
3 1 13 12
3 2 3 14
3 2 14 13
3 3 4 15
3 3 15 14
3 4 5 16
3 4 16 15
3 5 6 17
3 5 17 16
3 6 7 18
3 6 18 17
3 7 8 19
3 7 19 18
3 8 9 20
3 8 20 19
3 9 10 21
3 9 21 20
3 10 0 11
3 10 11 21
