ply
format ascii 1.0
element vertex 14
property float x
property float y
property float z
element face 12
property list uchar int vertex_indices
end_header
3046.28394 342.541382 186.42836
3048.84766 340.158783 186.42836
3052.93604 349.699402 186.42836
3055.49951 347.316437 186.42836
3057.77588 354.825531 186.42836
3060.8457 353.144165 186.42836
3067.14453 375.739685 195.51001
3070.33887 374.308777 195.51001
3070.55957 383.310852 195.51001
3073.95337 382.455902 195.51001
3075.4353 408.577484 194.264145
3078.93457 408.507568 194.264145
3071.83984 449.120178 195.350998
3075.32617 449.428497 195.350998
3 0 1 2
3 1 3 2
3 2 3 4
3 3 5 4
3 4 5 6
3 5 7 6
3 6 7 8
3 7 9 8
3 8 9 10
3 9 11 10
3 10 11 12
3 11 13 12
