ply
format ascii 1.0
element vertex 8
property float x
property float y
property float z
element face 12
property list uchar int vertex_indices
end_header
-587.3302 -658.777588 294.139008
-565.002014 -652.93335 294.139008
-558.166077 -679.048889 291.310089
-580.503906 -684.893188 289.311554
-587.3302 -658.777588 297.33902
-565.002014 -652.93335 297.33902
-558.166077 -679.048889 294.510101
-580.503906 -684.893188 292.511566
3 5 4 7
3 3 0 1
3 7 6 5
3 1 2 3
3 0 1 5
3 0 5 4
3 1 2 6
3 1 6 5
3 2 3 7
3 2 7 6
3 3 0 4
3 3 4 7
