ply
format ascii 1.0
element vertex 8
property float x
property float y
property float z
element face 12
property list uchar int vertex_indices
end_header
355.92453 -322.837646 280.251831
352.09021 -297.133972 271.831482
374.67984 -293.761017 271.831482
378.523834 -319.453552 290.317566
355.92453 -322.837646 283.451843
352.09021 -297.133972 275.031494
374.67984 -293.761017 275.031494
378.523834 -319.453552 293.517578
3 5 4 7
3 3 0 1
3 7 6 5
3 1 2 3
3 0 1 5
3 0 5 4
3 1 2 6
3 1 6 5
3 2 3 7
3 2 7 6
3 3 0 4
3 3 4 7
