ply
format ascii 1.0
element vertex 18
property float x
property float y
property float z
element face 16
property list uchar int vertex_indices
end_header
-2108.81982 1097.78674 251.002579
-2101.91309 1098.92529 251.002579
-2109.9314 1104.56714 251.002579
-2102.97021 1105.30286 251.002579
-2110.88013 1117.36804 255.391403
-2103.88062 1117.45984 255.391403
-2110.16797 1129.34631 255.391403
-2103.35352 1127.74548 255.391403
-2087.87598 1215.74438 270.574646
-2081.02783 1214.29333 270.574646
-2073.19312 1303.83398 279.289215
-2066.29468 1302.64502 279.289215
-2069.34912 1323.16772 279.289215
-2062.58643 1321.36035 279.289215
-2062.89844 1342.40796 281.321991
-2056.12036 1340.65894 281.321991
-2062.40942 1349.83801 281.321991
-2055.42822 1349.32568 281.321991
3 0 1 2
3 1 3 2
3 2 3 4
3 3 5 4
3 4 5 6
3 5 7 6
3 6 7 8
3 7 9 8
3 8 9 10
3 9 11 10
3 10 11 12
3 11 13 12
3 12 13 14
3 13 15 14
3 14 15 16
3 15 17 16
