ply
format ascii 1.0
element vertex 18
property float x
property float y
property float z
element face 16
property list uchar int vertex_indices
end_header
524.503906 88.7108459 220.56221
527.670959 96.0572433 220.56221
467.978485 113.079659 214.279007
471.044922 120.468636 214.279007
450.203278 119.556755 209.206497
452.723236 127.149498 209.206497
434.392181 124.220329 205.777359
436.542847 131.925827 205.777359
419.002747 128.261169 205.605545
420.986511 136.011307 205.605545
406.419037 131.388336 205.605545
407.891846 139.251602 205.605545
392.531738 133.228745 204.249359
393.254059 141.19606 204.249359
379.063843 133.869278 204.249359
379.010193 141.869095 204.249359
268.476379 132.377869 206.847076
268.3685 140.377151 206.847076
3 0 1 2
3 1 3 2
3 2 3 4
3 3 5 4
3 4 5 6
3 5 7 6
3 6 7 8
3 7 9 8
3 8 9 10
3 9 11 10
3 10 11 12
3 11 13 12
3 12 13 14
3 13 15 14
3 14 15 16
3 15 17 16
