ply
format ascii 1.0
element vertex 16
property float x
property float y
property float z
element face 14
property list uchar int vertex_indices
end_header
-2307.29932 1464.65625 288.835632
-2312.35107 1466.83118 288.835632
-2346.02612 1374.74512 286.414642
-2350.81445 1377.45117 286.414642
-2405.68604 1290.58679 282.883636
-2410.09619 1293.87329 282.883636
-2416.06104 1280.73254 282.883636
-2420.50024 1283.97949 282.883636
-2416.13159 1280.9375 282.883636
-2419.40332 1276.51648 282.883636
-2383.0498 1259.64697 282.571655
-2385.46191 1254.7041 282.571655
-2374.52173 1260.1532 282.571655
-2373.73389 1254.70996 282.571655
-2330.96509 1267.66675 281.000092
-2330.03027 1262.24683 281.000092
3 0 1 2
3 1 3 2
3 2 3 4
3 3 5 4
3 4 5 6
3 5 7 6
3 6 7 8
3 7 9 8
3 8 9 10
3 9 11 10
3 10 11 12
3 11 13 12
3 12 13 14
3 13 15 14
