ply
format ascii 1.0
element vertex 14
property float x
property float y
property float z
element face 24
property list uchar int vertex_indices
end_header
-1417.73364 1119.76282 268.028351
-1409.20325 1119.4845 268.028351
-1410.18115 1088.90503 252.078796
-1418.7019 1089.17212 252.078796
-1509.39929 1092.0553 260.806091
-1508.15027 1131.44019 269.412415
-1417.45288 1128.55701 268.028351
-1417.73364 1119.76282 276.028351
-1409.20325 1119.4845 276.028351
-1410.18115 1088.90503 260.078796
-1418.7019 1089.17212 260.078796
-1509.39929 1092.0553 268.806091
-1508.15027 1131.44019 277.412415
-1417.45288 1128.55701 276.028351
3 7 13 12
3 5 6 0
3 12 11 10
3 3 4 5
3 10 9 8
3 1 2 3
3 7 12 10
3 3 5 0
3 10 8 7
3 0 1 3
3 0 1 8
3 0 8 7
3 1 2 9
3 1 9 8
3 2 3 10
3 2 10 9
3 3 4 11
3 3 11 10
3 4 5 12
3 4 12 11
3 5 6 13
3 5 13 12
3 6 0 7
3 6 7 13
