ply
format ascii 1.0
element vertex 16
property float x
property float y
property float z
element face 14
property list uchar int vertex_indices
end_header
-185.893295 0.13880901 228.895203
-189.386856 0.350996733 228.895203
-187.978119 -33.8822556 233.358612
-191.465561 -34.1784821 233.358612
-181.807816 -53.4994812 237.298279
-184.118896 -56.1279526 237.298279
-159.473175 -58.7782745 238.585693
-159.705704 -62.2705421 238.585693
-145.019562 -55.9779816 238.585693
-143.000549 -58.8369408 238.585693
-133.547546 -40.1289902 234.549957
-132.667236 -43.5164757 234.549957
-77.9076843 -38.5194359 237.743622
-78.1766434 -42.0090866 237.743622
-59.6571922 -45.8108559 237.743622
-60.969265 -49.0556145 237.743622
3 0 1 2
3 1 3 2
3 2 3 4
3 3 5 4
3 4 5 6
3 5 7 6
3 6 7 8
3 7 9 8
3 8 9 10
3 9 11 10
3 10 11 12
3 11 13 12
3 12 13 14
3 13 15 14
