ply
format ascii 1.0
element vertex 94
property float x
property float y
property float z
element face 92
property list uchar int vertex_indices
end_header
-2775.93018 1865.28894 297.202545
-2770.15625 1861.33142 297.202545
-2744.97412 1910.45178 290.516418
-2739.27881 1906.38184 290.516418
-2739.38818 1916.27563 290.516418
-2734.73706 1911.04431 290.516418
-2731.75171 1922.28552 281.842285
-2727.81079 1916.50024 281.842285
-2724.69165 1926.28992 281.842285
-2721.48901 1920.06555 281.842285
-2718.04712 1929.31824 281.842285
-2715.85596 1922.67004 281.842285
-2710.41821 1930.91357 285.034424
-2710.02612 1923.92456 285.034424
-2701.56128 1930.24487 285.034424
-2702.98413 1923.39099 285.034424
-2693.00024 1927.26575 285.034424
-2696.34351 1921.11584 285.034424
-2606.60791 1878.79456 298.703522
-2609.91992 1872.62769 298.703522
-2593.53125 1873.75476 298.703522
-2595.45923 1867.02539 298.703522
-2580.7915 1871.42334 301.643341
-2581.4939 1864.45874 301.643341
-2570.21118 1871.44104 301.643341
-2570.21118 1864.44104 301.643341
-2561.56152 1871.43738 301.643341
-2561.23828 1864.44482 301.643341
-2507.01514 1874.3667 302.282928
-2506.77734 1867.37073 302.282928
-2480.66943 1874.17773 304.92337
-2480.89478 1867.18127 304.92337
-2474.30835 1873.25867 304.92337
-2475.84985 1866.43054 304.92337
-2468.72192 1871.47876 308.724335
-2471.54053 1865.07129 308.724335
-2464.10474 1868.7511 308.724335
-2468.2373 1863.1012 308.724335
-2435.78711 1847.49084 305.632568
-2439.85327 1841.79297 305.632568
-2433.29712 1846.49597 305.632568
-2435.12012 1839.73755 305.632568
-2429.35962 1845.84851 305.632568
-2429.27808 1838.849 305.632568
-2401.87866 1846.99438 305.168976
-2401.7229 1839.99622 305.168976
-2394.92847 1846.58118 305.168976
-2395.75635 1839.63025 305.168976
-2386.56763 1845.16577 305.110413
-2388.43115 1838.41846 305.110413
-2378.31494 1841.99268 305.110413
-2381.17236 1835.60254 305.110413
-2360.68677 1833.62158 304.923004
-2364.07861 1827.49829 304.923004
-2281.62354 1788.37915 317.351135
-2286.06982 1782.97278 317.351135
-2185.2168 1689.29016 308.393463
-2190.66309 1684.8927 308.393463
-2190.37183 1673.03845 308.393463
-2197.06934 1675.07324 308.393463
-2192.37231 1660.73267 298.798859
-2199.34863 1661.30811 298.798859
-2192.51147 1646.55042 298.798859
-2199.49976 1646.14648 298.798859
-2190.6582 1631.17578 294.113739
-2197.53809 1629.88428 294.113739
-2186.87158 1616.42456 294.113739
-2193.46265 1614.06702 294.113739
-2181.09521 1604.36804 290.033783
-2187.09668 1600.76501 290.033783
-2173.00854 1593.33691 288.971985
-2178.2002 1588.64172 288.971985
-2153.14038 1573.55457 287.543182
-2158.27246 1568.79419 287.543182
-2146.04102 1564.16858 289.173615
-2151.99072 1560.48047 289.173615
-2140.82544 1553.67944 289.173615
-2147.38794 1551.24377 289.173615
-2132.12329 1526.80725 287.725555
-2138.91309 1525.10559 287.725555
-2131.55908 1516.1377 287.725555
-2138.54761 1516.53918 287.725555
-2133.30762 1506.47253 285.988251
-2139.82031 1509.03882 285.988251
-2139.02979 1496.99402 285.988251
-2144.71021 1501.08484 285.988251
-2145.87598 1488.9314 285.988251
-2150.74194 1493.96338 285.988251
-2171.78589 1465.24475 283.809113
-2176.44067 1470.4729 283.809113
-2215.57227 1426.87683 287.392548
-2220.18555 1432.1416 287.392548
-2222.29175 1420.98816 287.392548
-2226.90527 1426.25269 287.392548
3 0 1 2
3 1 3 2
3 2 3 4
3 3 5 4
3 4 5 6
3 5 7 6
3 6 7 8
3 7 9 8
3 8 9 10
3 9 11 10
3 10 11 12
3 11 13 12
3 12 13 14
3 13 15 14
3 14 15 16
3 15 17 16
3 16 17 18
3 17 19 18
3 18 19 20
3 19 21 20
3 20 21 22
3 21 23 22
3 22 23 24
3 23 25 24
3 24 25 26
3 25 27 26
3 26 27 28
3 27 29 28
3 28 29 30
3 29 31 30
3 30 31 32
3 31 33 32
3 32 33 34
3 33 35 34
3 34 35 36
3 35 37 36
3 36 37 38
3 37 39 38
3 38 39 40
3 39 41 40
3 40 41 42
3 41 43 42
3 42 43 44
3 43 45 44
3 44 45 46
3 45 47 46
3 46 47 48
3 47 49 48
3 48 49 50
3 49 51 50
3 50 51 52
3 51 53 52
3 52 53 54
3 53 55 54
3 54 55 56
3 55 57 56
3 56 57 58
3 57 59 58
3 58 59 60
3 59 61 60
3 60 61 62
3 61 63 62
3 62 63 64
3 63 65 64
3 64 65 66
3 65 67 66
3 66 67 68
3 67 69 68
3 68 69 70
3 69 71 70
3 70 71 72
3 71 73 72
3 72 73 74
3 73 75 74
3 74 75 76
3 75 77 76
3 76 77 78
3 77 79 78
3 78 79 80
3 79 81 80
3 80 81 82
3 81 83 82
3 82 83 84
3 83 85 84
3 84 85 86
3 85 87 86
3 86 87 88
3 87 89 88
3 88 89 90
3 89 91 90
3 90 91 92
3 91 93 92
