ply
format ascii 1.0
element vertex 14
property float x
property float y
property float z
element face 12
property list uchar int vertex_indices
end_header
2110.81104 -439.85083 243.949982
2112.58667 -436.834686 243.949982
2060.76099 -410.384216 256.039368
2062.45996 -407.324249 256.039368
2016.17139 -387.301422 265.019501
2017.67871 -384.14267 265.019501
2012.65088 -387.035065 265.019501
2011.94263 -383.607483 265.019501
2010.70325 -388.315186 265.019501
2007.84839 -386.290344 265.019501
1965.05176 -454.956268 268.360474
1962.1731 -452.965485 268.360474
1937.14868 -494.67453 257.29361
1934.28479 -492.662567 257.29361
3 0 1 2
3 1 3 2
3 2 3 4
3 3 5 4
3 4 5 6
3 5 7 6
3 6 7 8
3 7 9 8
3 8 9 10
3 9 11 10
3 10 11 12
3 11 13 12
