ply
format ascii 1.0
element vertex 12
property float x
property float y
property float z
element face 10
property list uchar int vertex_indices
end_header
-2759.58838 -1281.5437 340.326263
-2757.62451 -1281.92163 340.326263
-2759.33081 -1280.21802 340.326263
-2757.39795 -1280.73145 340.326263
-2758.97241 -1279.36316 340.326263
-2757.25269 -1280.38403 340.326263
-2758.12939 -1278.15784 340.326263
-2756.64355 -1279.49658 340.326263
-2756.74927 -1276.89734 340.326263
-2755.56396 -1278.5083 340.326263
-2755.22705 -1276.00391 340.326263
-2754.22021 -1277.73206 340.326263
3 0 1 2
3 1 3 2
3 2 3 4
3 3 5 4
3 4 5 6
3 5 7 6
3 6 7 8
3 7 9 8
3 8 9 10
3 9 11 10
