ply
format ascii 1.0
element vertex 10
property float x
property float y
property float z
element face 8
property list uchar int vertex_indices
end_header
-2034.37109 -1644.37268 194.701462
-2032.84546 -1647.52271 194.701462
-1602.00671 -1434.98303 198.662659
-1600.47168 -1438.12854 198.662659
-1577.61609 -1421.62488 196.965469
-1574.9967 -1423.94617 196.965469
-1574.25867 -1403.47144 195.352341
-1571.5957 -1405.74268 195.352341
-1545.59912 -1384.18457 197.604095
-1543.65051 -1387.09192 197.604095
3 0 1 2
3 1 3 2
3 2 3 4
3 3 5 4
3 4 5 6
3 5 7 6
3 6 7 8
3 7 9 8
