ply
format ascii 1.0
element vertex 8
property float x
property float y
property float z
element face 12
property list uchar int vertex_indices
end_header
-103.23642 -411.781921 296.633911
-86.7468643 -413.529633 296.633911
-87.7829056 -423.336884 296.633911
-104.272461 -421.589172 296.633911
-103.23642 -411.781921 299.833923
-86.7468643 -413.529633 299.833923
-87.7829056 -423.336884 299.833923
-104.272461 -421.589172 299.833923
3 5 4 7
3 3 0 1
3 7 6 5
3 1 2 3
3 0 1 5
3 0 5 4
3 1 2 6
3 1 6 5
3 2 3 7
3 2 7 6
3 3 0 4
3 3 4 7
