ply
format ascii 1.0
element vertex 26
property float x
property float y
property float z
element face 48
property list uchar int vertex_indices
end_header
908.426208 -544.619507 281.252167
918.670471 -547.992432 286.290863
935.179382 -572.727661 284.004395
927.288025 -577.993042 284.004395
914.690918 -559.113281 279.522461
918.302551 -556.708801 284.004395
915.726929 -552.834839 286.290863
910.633911 -567.261841 279.522461
911.679626 -572.282349 279.522461
925.816284 -584.68335 284.004395
919.086853 -592.353271 278.796021
903.40094 -578.605347 279.522461
900.641357 -568.297119 279.522461
908.426208 -544.619507 289.252167
918.670471 -547.992432 294.290863
935.179382 -572.727661 292.004395
927.288025 -577.993042 292.004395
914.690918 -559.113281 287.522461
918.302551 -556.708801 292.004395
915.726929 -552.834839 294.290863
910.633911 -567.261841 287.522461
911.679626 -572.282349 287.522461
925.816284 -584.68335 292.004395
919.086853 -592.353271 286.796021
903.40094 -578.605347 287.522461
900.641357 -568.297119 287.522461
3 14 13 25
3 12 0 1
3 25 24 23
3 10 11 12
3 23 22 21
3 8 9 10
3 18 17 16
3 3 4 5
3 16 15 14
3 1 2 3
3 25 23 21
3 8 10 12
3 18 16 14
3 1 3 5
3 25 21 20
3 7 8 12
3 19 18 14
3 1 5 6
3 25 20 19
3 6 7 12
3 19 14 25
3 12 1 6
3 0 1 14
3 0 14 13
3 1 2 15
3 1 15 14
3 2 3 16
3 2 16 15
3 3 4 17
3 3 17 16
3 4 5 18
3 4 18 17
3 5 6 19
3 5 19 18
3 6 7 20
3 6 20 19
3 7 8 21
3 7 21 20
3 8 9 22
3 8 22 21
3 9 10 23
3 9 23 22
3 10 11 24
3 10 24 23
3 11 12 25
3 11 25 24
3 12 0 13
3 12 13 25
