ply
format ascii 1.0
element vertex 10
property float x
property float y
property float z
element face 8
property list uchar int vertex_indices
end_header
-2238.39941 1225.30432 255.683655
-2238.23828 1228.80066 255.683655
-2247.53125 1225.75037 255.683655
-2247.96826 1229.2229 255.683655
-2276.83862 1220.48401 262.209137
-2278.01538 1223.78027 262.209137
-2298.54736 1207.62146 268.419434
-2300.84692 1210.26013 268.419434
-2321.0459 1181.81921 269.565155
-2323.68262 1184.12073 269.565155
3 0 1 2
3 1 3 2
3 2 3 4
3 3 5 4
3 4 5 6
3 5 7 6
3 6 7 8
3 7 9 8
