ply
format ascii 1.0
element vertex 16
property float x
property float y
property float z
element face 28
property list uchar int vertex_indices
end_header
-3274.04297 -1229.65735 208.509171
-3268.73682 -1228.12109 208.509171
-3266.47119 -1235.93579 208.509171
-3287.08545 -1241.90247 211.007263
-3289.34155 -1234.08789 210.685303
-3282.854 -1232.20654 210.685303
-3283.28979 -1230.69263 210.685303
-3274.47852 -1228.13232 208.509171
-3274.04297 -1229.65735 216.509171
-3268.73682 -1228.12109 216.509171
-3266.47119 -1235.93579 216.509171
-3287.08545 -1241.90247 219.007263
-3289.34155 -1234.08789 218.685303
-3282.854 -1232.20654 218.685303
-3283.28979 -1230.69263 218.685303
-3274.47852 -1228.13232 216.509171
3 8 15 14
3 6 7 0
3 13 12 11
3 3 4 5
3 11 10 9
3 1 2 3
3 8 14 13
3 5 6 0
3 11 9 8
3 0 1 3
3 8 13 11
3 3 5 0
3 0 1 9
3 0 9 8
3 1 2 10
3 1 10 9
3 2 3 11
3 2 11 10
3 3 4 12
3 3 12 11
3 4 5 13
3 4 13 12
3 5 6 14
3 5 14 13
3 6 7 15
3 6 15 14
3 7 0 8
3 7 8 15
