ply
format ascii 1.0
element vertex 16
property float x
property float y
property float z
element face 14
property list uchar int vertex_indices
end_header
744.654602 820.61261 180.750092
740.760742 821.528015 180.750092
741.649414 807.829407 180.750092
737.762695 808.774536 180.750092
738.027588 800.715759 168.029999
736.58197 796.986084 168.029999
801.025452 786.602905 168.029999
800.620422 782.623474 168.029999
800.654541 792.649475 168.029999
804.554565 791.760864 168.029999
804.766052 805.329773 189.024612
807.065979 808.602478 189.024612
769.838623 812.97345 184.479889
770.709778 816.877441 184.479889
742.272522 819.118225 180.750092
743.142822 823.0224 180.750092
3 0 1 2
3 1 3 2
3 2 3 4
3 3 5 4
3 4 5 6
3 5 7 6
3 6 7 8
3 7 9 8
3 8 9 10
3 9 11 10
3 10 11 12
3 11 13 12
3 12 13 14
3 13 15 14
