ply
format ascii 1.0
element vertex 12
property float x
property float y
property float z
element face 10
property list uchar int vertex_indices
end_header
-3396.40625 2122.27954 269.33902
-3400.698 2127.80957 269.33902
-3430.94971 2095.47021 273.66748
-3435.11426 2101.09644 273.66748
-3436.98755 2092.50854 273.66748
-3438.95288 2099.22681 273.66748
-3443.51392 2091.77075 0.0299999993
-3443.17432 2098.76245 0.0299999993
-3449.85864 2093.14819 0.0299999993
-3447.17065 2099.61133 0.0299999993
-3456.78491 2097.09692 0.0299999993
-3453.29639 2103.16553 0.0299999993
3 0 1 2
3 1 3 2
3 2 3 4
3 3 5 4
3 4 5 6
3 5 7 6
3 6 7 8
3 7 9 8
3 8 9 10
3 9 11 10
