ply
format ascii 1.0
element vertex 18
property float x
property float y
property float z
element face 16
property list uchar int vertex_indices
end_header
568.129395 -1091.07324 240.789078
562.629883 -1091.14502 240.789078
568.263855 -1101.58167 240.789078
562.766541 -1101.40881 240.789078
567.480652 -1111.78174 248.040131
561.981079 -1111.71375 248.040131
567.987305 -1122.35657 251.986282
562.520203 -1122.95764 251.986282
569.307739 -1128.70398 240.58403
564.065857 -1130.36914 240.58403
571.880859 -1134.71179 240.58403
567.205444 -1137.6084 240.58403
579.199524 -1144.55444 237.991226
574.933655 -1148.026 237.991226
613.735779 -1186.10706 222.167892
609.492798 -1189.60669 222.167892
620.555603 -1194.69629 222.167892
616.248047 -1198.11609 222.167892
3 0 1 2
3 1 3 2
3 2 3 4
3 3 5 4
3 4 5 6
3 5 7 6
3 6 7 8
3 7 9 8
3 8 9 10
3 9 11 10
3 10 11 12
3 11 13 12
3 12 13 14
3 13 15 14
3 14 15 16
3 15 17 16
