ply
format ascii 1.0
element vertex 40
property float x
property float y
property float z
element face 38
property list uchar int vertex_indices
end_header
3528.22339 -1179.65613 0.0299999993
3520.33936 -1173.50439 0.0299999993
3517.80786 -1192.97241 0.0299999993
3510.49878 -1186.14771 0.0299999993
3507.86304 -1201.25342 0.0299999993
3502.51123 -1192.80591 0.0299999993
3493.28027 -1208.63062 0.0299999993
3489.30469 -1199.45483 0.0299999993
3471.53882 -1217.04211 0.0299999993
3466.89331 -1208.18665 0.0299999993
3463.03882 -1224.30273 0.0299999993
3456.18286 -1217.02283 0.0299999993
3457.64868 -1230.27039 0.0299999993
3449.62476 -1224.30212 0.0299999993
3451.7688 -1239.32935 0.0299999993
3442.52979 -1235.5033 0.0299999993
3448.09888 -1253.15283 281.069763
3438.14404 -1252.20361 281.069763
3445.89795 -1303.20288 276.265961
3435.92944 -1302.40796 276.265961
3433.88745 -1431.37842 272.550873
3423.927 -1430.48987 272.550873
3431.71191 -1462.18933 272.831726
3421.72583 -1461.66162 272.831726
3431.41626 -1477.86255 272.831726
3421.42139 -1478.18201 272.831726
3432.66431 -1492.16846 269.583466
3422.74878 -1493.46484 269.583466
3435.44604 -1508.67505 269.583466
3425.69922 -1510.91064 269.583466
3439.90039 -1523.79968 269.362549
3430.52075 -1527.26721 269.362549
3450.25903 -1548.70325 0.0299999993
3441.28979 -1553.12524 0.0299999993
3460.4668 -1565.63257 0.0299999993
3452.42261 -1571.57336 0.0299999993
3490.21899 -1602.69739 0.0299999993
3482.6062 -1609.18164 0.0299999993
3507.11987 -1620.39917 0.0299999993
3499.88477 -1627.30237 0.0299999993
3 0 1 2
3 1 3 2
3 2 3 4
3 3 5 4
3 4 5 6
3 5 7 6
3 6 7 8
3 7 9 8
3 8 9 10
3 9 11 10
3 10 11 12
3 11 13 12
3 12 13 14
3 13 15 14
3 14 15 16
3 15 17 16
3 16 17 18
3 17 19 18
3 18 19 20
3 19 21 20
3 20 21 22
3 21 23 22
3 22 23 24
3 23 25 24
3 24 25 26
3 25 27 26
3 26 27 28
3 27 29 28
3 28 29 30
3 29 31 30
3 30 31 32
3 31 33 32
3 32 33 34
3 33 35 34
3 34 35 36
3 35 37 36
3 36 37 38
3 37 39 38
