ply
format ascii 1.0
element vertex 12
property float x
property float y
property float z
element face 20
property list uchar int vertex_indices
end_header
-324.988464 -144.704208 228.747513
-337.130524 -143.702332 228.747513
-335.784637 -127.371765 228.747513
-333.615723 -100.899986 231.244965
-332.937927 -92.628952 235.437119
-320.795868 -93.6308212 229.02417
-324.988464 -144.704208 236.747513
-337.130524 -143.702332 236.747513
-335.784637 -127.371765 236.747513
-333.615723 -100.899986 239.244965
-332.937927 -92.628952 243.437119
-320.795868 -93.6308212 237.02417
3 7 6 11
3 5 0 1
3 11 10 9
3 3 4 5
3 8 7 11
3 5 1 2
3 11 9 8
3 2 3 5
3 0 1 7
3 0 7 6
3 1 2 8
3 1 8 7
3 2 3 9
3 2 9 8
3 3 4 10
3 3 10 9
3 4 5 11
3 4 11 10
3 5 0 6
3 5 6 11
