ply
format ascii 1.0
element vertex 8
property float x
property float y
property float z
element face 12
property list uchar int vertex_indices
end_header
-853.14801 -1074.08838 223.135986
-818.600281 -1063.04553 221.497238
-814.872498 -1074.73401 221.497238
-849.410461 -1085.77698 207.52005
-853.14801 -1074.08838 226.335983
-818.600281 -1063.04553 224.697235
-814.872498 -1074.73401 224.697235
-849.410461 -1085.77698 210.720047
3 5 4 7
3 3 0 1
3 7 6 5
3 1 2 3
3 0 1 5
3 0 5 4
3 1 2 6
3 1 6 5
3 2 3 7
3 2 7 6
3 3 0 4
3 3 4 7
