ply
format ascii 1.0
element vertex 8
property float x
property float y
property float z
element face 12
property list uchar int vertex_indices
end_header
-999.491577 -867.85791 265.100433
-987.688416 -869.015625 275.547699
-988.734131 -879.657776 275.547699
-1000.52759 -878.511169 265.100433
-999.491577 -867.85791 268.300446
-987.688416 -869.015625 278.747711
-988.734131 -879.657776 278.747711
-1000.52759 -878.511169 268.300446
3 5 4 7
3 3 0 1
3 7 6 5
3 1 2 3
3 0 1 5
3 0 5 4
3 1 2 6
3 1 6 5
3 2 3 7
3 2 7 6
3 3 0 4
3 3 4 7
