ply
format ascii 1.0
element vertex 8
property float x
property float y
property float z
element face 12
property list uchar int vertex_indices
end_header
456.691864 -389.740662 303.84436
477.935608 -381.625488 303.700134
488.073334 -408.108398 294.431061
466.819916 -416.234711 301.262421
456.691864 -389.740662 307.044373
477.935608 -381.625488 306.900146
488.073334 -408.108398 297.631073
466.819916 -416.234711 304.462433
3 5 4 7
3 3 0 1
3 7 6 5
3 1 2 3
3 0 1 5
3 0 5 4
3 1 2 6
3 1 6 5
3 2 3 7
3 2 7 6
3 3 0 4
3 3 4 7
