ply
format ascii 1.0
element vertex 8
property float x
property float y
property float z
element face 12
property list uchar int vertex_indices
end_header
-175.720734 -153.520706 253.03064
-162.726624 -152.0513 253.03064
-160.673904 -170.185242 268.561554
-173.658325 -171.665787 254.267883
-175.720734 -153.520706 261.03064
-162.726624 -152.0513 261.03064
-160.673904 -170.185242 276.561554
-173.658325 -171.665787 262.267883
3 5 4 7
3 3 0 1
3 7 6 5
3 1 2 3
3 0 1 5
3 0 5 4
3 1 2 6
3 1 6 5
3 2 3 7
3 2 7 6
3 3 0 4
3 3 4 7
