ply
format ascii 1.0
element vertex 30
property float x
property float y
property float z
element face 56
property list uchar int vertex_indices
end_header
2178.04443 14.7943602 281.274231
2186.10034 11.0874214 283.968018
2183.41821 5.27654409 283.968018
2191.81299 1.41375756 283.968018
2192.13257 -3.77373075 280.780701
2190.18652 -10.1412058 280.780701
2188.04663 -13.3249426 280.780701
2182.90503 -17.9669666 280.780701
2175.10083 -14.3824778 278.114349
2172.11865 -20.8724041 278.114349
2162.59082 -16.4975491 278.114349
2165.58276 -10.0076218 278.114349
2161.99048 -8.36009407 278.114349
2170.9082 11.0317612 281.274231
2175.37207 8.97235107 281.274231
2178.04443 14.7943602 289.274231
2186.10034 11.0874214 291.968018
2183.41821 5.27654409 291.968018
2191.81299 1.41375756 291.968018
2192.13257 -3.77373075 288.780701
2190.18652 -10.1412058 288.780701
2188.04663 -13.3249426 288.780701
2182.90503 -17.9669666 288.780701
2175.10083 -14.3824778 286.114349
2172.11865 -20.8724041 286.114349
2162.59082 -16.4975491 286.114349
2165.58276 -10.0076218 286.114349
2161.99048 -8.36009407 286.114349
2170.9082 11.0317612 289.274231
2175.37207 8.97235107 289.274231
3 16 15 29
3 14 0 1
3 29 28 27
3 12 13 14
3 26 25 24
3 9 10 11
3 23 22 21
3 6 7 8
3 21 20 19
3 4 5 6
3 19 18 17
3 2 3 4
3 17 16 29
3 14 1 2
3 29 27 26
3 11 12 14
3 26 24 23
3 8 9 11
3 23 21 19
3 4 6 8
3 19 17 29
3 14 2 4
3 29 26 23
3 8 11 14
3 23 19 29
3 14 4 8
3 0 1 16
3 0 16 15
3 1 2 17
3 1 17 16
3 2 3 18
3 2 18 17
3 3 4 19
3 3 19 18
3 4 5 20
3 4 20 19
3 5 6 21
3 5 21 20
3 6 7 22
3 6 22 21
3 7 8 23
3 7 23 22
3 8 9 24
3 8 24 23
3 9 10 25
3 9 25 24
3 10 11 26
3 10 26 25
3 11 12 27
3 11 27 26
3 12 13 28
3 12 28 27
3 13 14 29
3 13 29 28
3 14 0 15
3 14 15 29
