ply
format ascii 1.0
element vertex 98
property float x
property float y
property float z
element face 96
property list uchar int vertex_indices
end_header
-3067.42212 -1378.52185 335.005249
-3065.43286 -1378.72839 335.005249
-3066.33203 -1368.23901 337.041931
-3064.43164 -1368.8623 337.041931
-3061.21948 -1359.80383 304.936523
-3059.72583 -1361.13391 304.936523
-3052.07104 -1352.17603 304.936523
-3051.07764 -1353.91174 304.936523
-3044.50757 -1350.25281 304.936523
-3044.19458 -1352.22815 304.936523
-3036.99487 -1349.72925 312.18158
-3036.91211 -1351.72754 312.18158
-3028.98242 -1349.60645 312.18158
-3029.04517 -1351.60547 312.18158
-3004.37524 -1350.75269 318.982544
-3004.40625 -1352.75244 318.982544
-2993.22388 -1350.16614 318.982544
-2993.05518 -1352.15906 318.982544
-2986.72949 -1349.26599 318.982544
-2986.26489 -1351.2113 318.982544
-2979.8186 -1346.96484 325.05365
-2979.05859 -1348.8147 325.05365
-2960.49805 -1338.47363 325.05365
-2959.72607 -1340.3186 325.05365
-2951.00366 -1334.91431 330.276031
-2950.39722 -1336.82019 330.276031
-2944.97681 -1333.54333 330.276031
-2944.66943 -1335.51953 330.276031
-2940.92554 -1333.37073 330.276031
-2941.14893 -1335.35815 330.276031
-2935.62183 -1334.57727 330.276031
-2936.20825 -1336.48938 330.276031
-2928.09961 -1337.28699 338.202576
-2928.78052 -1339.16748 338.202576
-2925.66504 -1338.18494 338.202576
-2926.18018 -1340.11743 338.202576
-2922.00928 -1338.91638 338.202576
-2922.26416 -1340.90002 338.202576
-2919.64746 -1338.98413 338.202576
-2919.37793 -1340.96582 338.202576
-2913.34375 -1337.71826 338.202576
-2912.74561 -1339.62683 338.202576
-2903.82568 -1334.01819 344.480255
-2903.0144 -1335.84619 344.480255
-2876.45435 -1321.3418 331.563904
-2875.58228 -1323.14172 331.563904
-2827.48657 -1297.02844 318.299652
-2826.61963 -1298.83081 318.299652
-2810.75562 -1289.74194 324.84256
-2809.96484 -1291.57898 324.84256
-2804.36328 -1287.07837 324.84256
-2803.76953 -1288.98828 324.84256
-2796.61719 -1285.35278 332.601227
-2796.31396 -1287.32971 332.601227
-2785.57202 -1284.18433 332.601227
-2785.26318 -1286.1604 332.601227
-2771.03613 -1281.35815 332.601227
-2770.59644 -1283.30933 332.601227
-2767.24097 -1280.05981 340.326263
-2766.54858 -1281.93604 340.326263
-2763.71924 -1278.65247 340.326263
-2763.19556 -1280.58264 340.326263
-2760.51147 -1278.25171 340.326263
-2760.3999 -1280.24866 340.326263
-2757.83545 -1278.30688 340.326263
-2757.9248 -1280.30481 340.326263
-2756.13672 -1278.44324 340.326263
-2756.31226 -1280.43555 340.326263
-2754.96191 -1278.57544 340.326263
-2755.49243 -1280.50378 340.326263
-2753.45044 -1279.20166 340.326263
-2754.46704 -1280.92407 340.326263
-2752.61914 -1280.00488 340.326263
-2754.21387 -1281.21167 340.326263
-2752.13965 -1280.96167 340.326263
-2754.09302 -1281.39038 340.326263
-2752.15015 -1281.94177 340.326263
-2754.14062 -1281.74609 340.326263
-2752.34692 -1282.90186 340.326263
-2754.13745 -1282.01062 340.326263
-2753.31787 -1284.38782 340.326263
-2754.89014 -1283.15173 340.326263
-2754.02979 -1285.00916 340.326263
-2755.18506 -1283.37646 340.326263
-2754.88037 -1285.45532 340.326263
-2755.34155 -1283.50916 340.326263
-2756.29321 -1285.56738 340.326263
-2756.11694 -1283.5752 340.326263
-2757.44409 -1285.21069 340.326263
-2756.55396 -1283.41968 340.326263
-2758.35718 -1284.58423 340.326263
-2757.05469 -1283.06665 340.326263
-2759.27002 -1283.61682 340.326263
-2757.55542 -1282.58691 340.326263
-2759.62549 -1282.41809 340.326263
-2757.64526 -1282.13806 340.326263
-2759.60498 -1281.67944 340.326263
-2757.60791 -1281.78577 340.326263
3 0 1 2
3 1 3 2
3 2 3 4
3 3 5 4
3 4 5 6
3 5 7 6
3 6 7 8
3 7 9 8
3 8 9 10
3 9 11 10
3 10 11 12
3 11 13 12
3 12 13 14
3 13 15 14
3 14 15 16
3 15 17 16
3 16 17 18
3 17 19 18
3 18 19 20
3 19 21 20
3 20 21 22
3 21 23 22
3 22 23 24
3 23 25 24
3 24 25 26
3 25 27 26
3 26 27 28
3 27 29 28
3 28 29 30
3 29 31 30
3 30 31 32
3 31 33 32
3 32 33 34
3 33 35 34
3 34 35 36
3 35 37 36
3 36 37 38
3 37 39 38
3 38 39 40
3 39 41 40
3 40 41 42
3 41 43 42
3 42 43 44
3 43 45 44
3 44 45 46
3 45 47 46
3 46 47 48
3 47 49 48
3 48 49 50
3 49 51 50
3 50 51 52
3 51 53 52
3 52 53 54
3 53 55 54
3 54 55 56
3 55 57 56
3 56 57 58
3 57 59 58
3 58 59 60
3 59 61 60
3 60 61 62
3 61 63 62
3 62 63 64
3 63 65 64
3 64 65 66
3 65 67 66
3 66 67 68
3 67 69 68
3 68 69 70
3 69 71 70
3 70 71 72
3 71 73 72
3 72 73 74
3 73 75 74
3 74 75 76
3 75 77 76
3 76 77 78
3 77 79 78
3 78 79 80
3 79 81 80
3 80 81 82
3 81 83 82
3 82 83 84
3 83 85 84
3 84 85 86
3 85 87 86
3 86 87 88
3 87 89 88
3 88 89 90
3 89 91 90
3 90 91 92
3 91 93 92
3 92 93 94
3 93 95 94
3 94 95 96
3 95 97 96
