ply
format ascii 1.0
element vertex 8
property float x
property float y
property float z
element face 12
property list uchar int vertex_indices
end_header
-632.887085 2041.28772 300.543884
-646.036072 2020.3374 296.79483
-618.27594 2002.84912 298.54129
-605.126892 2023.79944 302.756653
-632.887085 2041.28772 308.543884
-646.036072 2020.3374 304.79483
-618.27594 2002.84912 306.54129
-605.126892 2023.79944 310.756653
3 6 7 4
3 0 3 2
3 4 5 6
3 2 1 0
3 0 1 5
3 0 5 4
3 1 2 6
3 1 6 5
3 2 3 7
3 2 7 6
3 3 0 4
3 3 4 7
