ply
format ascii 1.0
element vertex 10
property float x
property float y
property float z
element face 16
property list uchar int vertex_indices
end_header
2244.24463 -353.405975 223.819717
2236.38232 -366.152069 223.819717
2235.39478 -367.743927 223.819717
2226.99976 -362.567596 227.605164
2235.84985 -348.229645 223.819717
2244.24463 -353.405975 231.819717
2236.38232 -366.152069 231.819717
2235.39478 -367.743927 231.819717
2226.99976 -362.567596 235.605164
2235.84985 -348.229645 231.819717
3 6 5 9
3 4 0 1
3 9 8 7
3 2 3 4
3 7 6 9
3 4 1 2
3 0 1 6
3 0 6 5
3 1 2 7
3 1 7 6
3 2 3 8
3 2 8 7
3 3 4 9
3 3 9 8
3 4 0 5
3 4 5 9
