ply
format ascii 1.0
element vertex 24
property float x
property float y
property float z
element face 22
property list uchar int vertex_indices
end_header
72.4770203 145.230865 217.621017
70.187149 141.951157 217.621017
97.3776245 127.8442 214.628433
95.190918 124.494827 214.628433
108.360382 121.784088 229.542007
106.633179 118.176208 229.542007
121.488625 116.305893 221.643402
120.190331 112.522453 221.643402
135.22789 112.563232 221.643402
134.395187 108.650864 221.643402
151.154404 109.998772 213.412384
150.673172 106.027832 213.412384
165.748886 108.855499 211.834274
165.785049 104.855659 211.834274
238.328217 110.803673 208.98912
238.329285 106.803673 208.98912
249.270813 108.779198 211.083893
248.030106 104.976486 211.083893
258.164795 104.34745 211.083893
255.8871 101.05928 211.083893
264.845581 97.9944687 211.083893
261.735687 95.4788055 211.083893
270.416931 89.3097382 211.307938
267.047607 87.153923 211.307938
3 0 1 2
3 1 3 2
3 2 3 4
3 3 5 4
3 4 5 6
3 5 7 6
3 6 7 8
3 7 9 8
3 8 9 10
3 9 11 10
3 10 11 12
3 11 13 12
3 12 13 14
3 13 15 14
3 14 15 16
3 15 17 16
3 16 17 18
3 17 19 18
3 18 19 20
3 19 21 20
3 20 21 22
3 21 23 22
