ply
format ascii 1.0
element vertex 8
property float x
property float y
property float z
element face 12
property list uchar int vertex_indices
end_header
790.549683 -3.3841126 246.455948
815.840759 10.4640322 248.008698
832.204407 -19.4029865 250.166733
806.91333 -33.251133 242.872147
790.549683 -3.3841126 254.455948
815.840759 10.4640322 256.008698
832.204407 -19.4029865 258.166748
806.91333 -33.251133 250.872147
3 5 4 7
3 3 0 1
3 7 6 5
3 1 2 3
3 0 1 5
3 0 5 4
3 1 2 6
3 1 6 5
3 2 3 7
3 2 7 6
3 3 0 4
3 3 4 7
