ply
format ascii 1.0
element vertex 16
property float x
property float y
property float z
element face 14
property list uchar int vertex_indices
end_header
1136.63818 -1106.49182 224.175507
1131.17407 -1107.11853 224.175507
1144.59546 -1175.93079 217.424896
1139.19312 -1176.9624 217.424896
1156.69788 -1211.76416 218.247269
1151.58789 -1213.79846 218.247269
1162.00342 -1219.91064 221.22258
1157.80469 -1223.46313 221.22258
1178.96838 -1237.8678 220.207123
1174.88391 -1241.55115 220.207123
1186.15759 -1246.72009 220.207123
1181.67639 -1249.90894 220.207123
1191.28088 -1255.19836 218.610657
1186.35193 -1257.63879 218.610657
1205.87109 -1286.45837 212.653229
1200.88721 -1288.78442 212.653229
3 0 1 2
3 1 3 2
3 2 3 4
3 3 5 4
3 4 5 6
3 5 7 6
3 6 7 8
3 7 9 8
3 8 9 10
3 9 11 10
3 10 11 12
3 11 13 12
3 12 13 14
3 13 15 14
