ply
format ascii 1.0
element vertex 8
property float x
property float y
property float z
element face 12
property list uchar int vertex_indices
end_header
-973.445251 433.945648 247.880585
-965.195618 435.181274 250.17511
-964.517822 430.617188 254.526062
-972.757751 429.381531 251.194016
-973.445251 433.945648 255.880585
-965.195618 435.181274 258.17511
-964.517822 430.617188 262.526062
-972.757751 429.381531 259.194031
3 5 4 7
3 3 0 1
3 7 6 5
3 1 2 3
3 0 1 5
3 0 5 4
3 1 2 6
3 1 6 5
3 2 3 7
3 2 7 6
3 3 0 4
3 3 4 7
