ply
format ascii 1.0
element vertex 8
property float x
property float y
property float z
element face 12
property list uchar int vertex_indices
end_header
-1341.23108 1246.0658 286.396759
-1340.04968 1233.68713 280.579834
-1290.81348 1237.51648 282.373016
-1291.69458 1249.60583 282.373016
-1341.23108 1246.0658 294.396759
-1340.04968 1233.68713 288.579834
-1290.81348 1237.51648 290.373016
-1291.69458 1249.60583 290.373016
3 6 7 4
3 0 3 2
3 4 5 6
3 2 1 0
3 0 1 5
3 0 5 4
3 1 2 6
3 1 6 5
3 2 3 7
3 2 7 6
3 3 0 4
3 3 4 7
