ply
format ascii 1.0
element vertex 26
property float x
property float y
property float z
element face 24
property list uchar int vertex_indices
end_header
-1816.45947 1447.4856 309.978882
-1811.06799 1446.39819 309.978882
-1798.16406 1538.19775 318.073517
-1792.76294 1537.15906 318.073517
-1787.40076 1598.53821 322.815308
-1781.93396 1597.9342 322.815308
-1789.53821 1614.84436 325.309479
-1784.19238 1616.13708 325.309479
-1793.23682 1622.2511 325.309479
-1788.29797 1624.67126 325.309479
-1797.92163 1631.8894 325.309479
-1793.45068 1635.09265 325.309479
-1848.5658 1699.41284 339.610413
-1844.16455 1702.71118 339.610413
-1894.44678 1760.69226 330.141632
-1889.92017 1763.81641 330.141632
-1905.83337 1782.50671 325.15744
-1900.72632 1784.54834 325.15744
-1909.14392 1797.66772 324.027252
-1903.65125 1797.95178 324.027252
-1911.99988 1898.92603 322.662109
-1906.50818 1899.22827 322.662109
-1914.60425 1904.74048 322.662109
-1910.1394 1907.95215 322.662109
-1926.64685 1918.56775 324.122742
-1922.49707 1922.17737 324.122742
3 0 1 2
3 1 3 2
3 2 3 4
3 3 5 4
3 4 5 6
3 5 7 6
3 6 7 8
3 7 9 8
3 8 9 10
3 9 11 10
3 10 11 12
3 11 13 12
3 12 13 14
3 13 15 14
3 14 15 16
3 15 17 16
3 16 17 18
3 17 19 18
3 18 19 20
3 19 21 20
3 20 21 22
3 21 23 22
3 22 23 24
3 23 25 24
