ply
format ascii 1.0
element vertex 76
property float x
property float y
property float z
element face 74
property list uchar int vertex_indices
end_header
1016.90869 -776.70929 246.328461
1008.95349 -775.863647 246.328461
1014.8584 -795.846252 246.328461
1006.85956 -795.710754 246.328461
1015.36603 -868.115234 246.008835
1007.3783 -868.557861 246.008835
1019.38458 -881.739868 246.008835
1012.0354 -884.900452 246.008835
1029.67664 -900.977539 244.414474
1023.10333 -905.537415 244.414474
1046.27698 -920.659851 244.414474
1041.28308 -926.909729 244.414474
1068.33716 -931.962036 246.18898
1065.77698 -939.54126 246.18898
1095.19165 -937.00769 252.065247
1094.13293 -944.937317 252.065247
1111.43188 -937.71405 252.519577
1111.89832 -945.700439 252.519577
1221.7937 -929.543274 255.493866
1222.55261 -937.507202 255.493866
1252.02454 -924.344849 256.314636
1253.76794 -932.152588 256.314636
1282.77783 -915.89917 259.704285
1284.90613 -923.610901 259.704285
1292.27258 -913.257629 256.544617
1295.24133 -920.686401 256.544617
1338.55261 -893.607483 257.118561
1342.28271 -900.684631 257.118561
1413.2074 -849.512939 269.701874
1417.61218 -856.191101 269.701874
1474.4425 -803.978882 295.063171
1479.50171 -810.175964 295.063171
1486.83521 -789.651733 291.378754
1493.62012 -793.89032 291.378754
1489.7168 -779.673218 291.378754
1497.59375 -781.070557 291.378754
1490.55481 -767.864746 286.127411
1498.51794 -767.097412 286.127411
1487.3335 -755.193665 286.127411
1494.86462 -752.4953 286.127411
1482.6189 -745.156311 286.127411
1488.52173 -739.756653 286.127411
1459.84619 -725.603882 280.464325
1465.61169 -720.0578 280.464325
1452.94189 -714.102051 280.464325
1459.96729 -710.275391 280.464325
1445.80969 -700.016479 271.684143
1453.36951 -697.399353 271.684143
1442.44385 -683.363098 271.684143
1450.44153 -683.172729 271.684143
1445.13757 -664.595398 273.207977
1452.49231 -667.743103 273.207977
1471.35168 -614.93811 284.255341
1478.40967 -618.704468 284.255341
1525.63013 -513.724121 292.510529
1532.67371 -517.517395 292.510529
1530.38855 -505.316132 303.722778
1537.40417 -509.160675 303.722778
1534.88538 -496.835419 303.722778
1541.95105 -500.587219 303.722778
1568.22546 -434.057251 291.49704
1575.28564 -437.819244 291.49704
1625.01477 -327.686249 316.59552
1632.09314 -331.414185 316.59552
1637.02502 -303.432434 309.221039
1644.25085 -306.86557 309.221039
1672.01038 -228.764374 271.473724
1679.25159 -232.165115 271.473724
1674.86926 -222.875488 271.473724
1682.33801 -225.742065 271.473724
1681.50439 -204.011871 255.03743
1689.10364 -206.512146 255.03743
1691.86829 -171.20813 244.508789
1699.57678 -173.347961 244.508789
1696.42322 -150.275681 245.168091
1704.23975 -151.978989 245.168091
3 0 1 2
3 1 3 2
3 2 3 4
3 3 5 4
3 4 5 6
3 5 7 6
3 6 7 8
3 7 9 8
3 8 9 10
3 9 11 10
3 10 11 12
3 11 13 12
3 12 13 14
3 13 15 14
3 14 15 16
3 15 17 16
3 16 17 18
3 17 19 18
3 18 19 20
3 19 21 20
3 20 21 22
3 21 23 22
3 22 23 24
3 23 25 24
3 24 25 26
3 25 27 26
3 26 27 28
3 27 29 28
3 28 29 30
3 29 31 30
3 30 31 32
3 31 33 32
3 32 33 34
3 33 35 34
3 34 35 36
3 35 37 36
3 36 37 38
3 37 39 38
3 38 39 40
3 39 41 40
3 40 41 42
3 41 43 42
3 42 43 44
3 43 45 44
3 44 45 46
3 45 47 46
3 46 47 48
3 47 49 48
3 48 49 50
3 49 51 50
3 50 51 52
3 51 53 52
3 52 53 54
3 53 55 54
3 54 55 56
3 55 57 56
3 56 57 58
3 57 59 58
3 58 59 60
3 59 61 60
3 60 61 62
3 61 63 62
3 62 63 64
3 63 65 64
3 64 65 66
3 65 67 66
3 66 67 68
3 67 69 68
3 68 69 70
3 69 71 70
3 70 71 72
3 71 73 72
3 72 73 74
3 73 75 74
