ply
format ascii 1.0
element vertex 58
property float x
property float y
property float z
element face 56
property list uchar int vertex_indices
end_header
-3405.34473 -343.838074 204.185989
-3401.84888 -343.671112 204.185989
-3406.40015 -321.741333 203.47197
-3402.9043 -321.574005 203.47197
-3406.50879 -319.4758 203.47197
-3403.00879 -319.4758 203.47197
-3406.39575 -314.961792 203.47197
-3402.90869 -315.26236 203.47197
-3405.71045 -310.400482 203.47197
-3402.31567 -311.252106 203.47197
-3403.36182 -302.786072 203.036179
-3400.01685 -303.816101 203.036179
-3397.67822 -284.307617 203.036179
-3394.33301 -285.336487 203.036179
-3391.92676 -265.605743 203.30574
-3388.58154 -266.63501 203.30574
-3386.48486 -247.927917 204.917374
-3383.13989 -248.957764 204.917374
-3381.02344 -230.192123 206.012955
-3377.65991 -231.16037 206.012955
-3378.85962 -221.478729 206.012955
-3375.40869 -222.062653 206.012955
-3378.19629 -213.598267 208.082596
-3374.69702 -213.534622 208.082596
-3380.28613 -144.641266 210.302963
-3376.79004 -144.477722 210.302963
-3381.35352 -141.990677 210.302963
-3378.31763 -140.248749 210.302963
-3383.11426 -139.962418 210.302963
-3380.68188 -137.445755 210.302963
-3385.18677 -138.245132 210.302963
-3383.72168 -135.066483 210.302963
-3388.53003 -137.392776 212.373825
-3388.55054 -133.892838 212.373825
-3457.86694 -138.838181 0.0299999993
-3458.02417 -135.341721 0.0299999993
-3462.93213 -140.663162 0.0299999993
-3464.11304 -137.368393 0.0299999993
-3480.15479 -146.907776 0.0299999993
-3481.20581 -143.569305 0.0299999993
-3486.63696 -148.05658 0.0299999993
-3486.73022 -144.557831 0.0299999993
-3573.85205 -149.469849 0.0299999993
-3573.97729 -145.972076 0.0299999993
-3575.62817 -150.751083 0.0299999993
-3578.146 -148.319855 0.0299999993
-3577.2395 -153.036987 0.0299999993
-3580.7373 -152.913498 0.0299999993
-3578.1001 -233.462494 0.0299999993
-3581.6001 -233.455978 0.0299999993
-3577.62329 -235.163269 0.0299999993
-3580.66309 -236.898163 0.0299999993
-3576.62012 -236.148819 0.0299999993
-3578.23853 -239.252197 0.0299999993
-3574.49438 -236.675079 0.0299999993
-3574.61279 -240.17308 0.0299999993
-3563.97583 -236.407471 0.0299999993
-3563.8877 -239.906372 0.0299999993
3 0 1 2
3 1 3 2
3 2 3 4
3 3 5 4
3 4 5 6
3 5 7 6
3 6 7 8
3 7 9 8
3 8 9 10
3 9 11 10
3 10 11 12
3 11 13 12
3 12 13 14
3 13 15 14
3 14 15 16
3 15 17 16
3 16 17 18
3 17 19 18
3 18 19 20
3 19 21 20
3 20 21 22
3 21 23 22
3 22 23 24
3 23 25 24
3 24 25 26
3 25 27 26
3 26 27 28
3 27 29 28
3 28 29 30
3 29 31 30
3 30 31 32
3 31 33 32
3 32 33 34
3 33 35 34
3 34 35 36
3 35 37 36
3 36 37 38
3 37 39 38
3 38 39 40
3 39 41 40
3 40 41 42
3 41 43 42
3 42 43 44
3 43 45 44
3 44 45 46
3 45 47 46
3 46 47 48
3 47 49 48
3 48 49 50
3 49 51 50
3 50 51 52
3 51 53 52
3 52 53 54
3 53 55 54
3 54 55 56
3 55 57 56
