ply
format ascii 1.0
element vertex 32
property float x
property float y
property float z
element face 60
property list uchar int vertex_indices
end_header
-121.807739 -887.383301 294.45105
-132.07135 -888.429749 294.45105
-132.332779 -891.546692 294.45105
-137.396805 -891.936279 291.651703
-136.099335 -905.695374 289.114502
-139.081589 -909.981201 289.114502
-148.948212 -914.133423 289.114502
-152.976196 -919.721619 289.114502
-149.993927 -924.920227 289.114502
-153.102066 -926.734741 289.114502
-147.786285 -934.916748 281.126587
-136.486633 -928.549255 281.126587
-125.961594 -923.87384 287.13858
-120.510262 -916.47113 287.13858
-118.951355 -908.556274 287.13858
-119.47422 -898.548645 287.13858
-121.807739 -887.383301 323.251038
-132.07135 -888.429749 323.251038
-132.332779 -891.546692 323.251038
-137.396805 -891.936279 320.451691
-136.099335 -905.695374 317.91449
-139.081589 -909.981201 317.91449
-148.948212 -914.133423 317.91449
-152.976196 -919.721619 317.91449
-149.993927 -924.920227 317.91449
-153.102066 -926.734741 317.91449
-147.786285 -934.916748 309.926575
-136.486633 -928.549255 309.926575
-125.961594 -923.87384 315.938568
-120.510262 -916.47113 315.938568
-118.951355 -908.556274 315.938568
-119.47422 -898.548645 315.938568
3 30 31 16
3 0 15 14
3 16 17 18
3 2 1 0
3 18 19 20
3 4 3 2
3 21 22 23
3 7 6 5
3 24 25 26
3 10 9 8
3 27 28 29
3 13 12 11
3 29 30 16
3 0 14 13
3 16 18 20
3 4 2 0
3 21 23 24
3 8 7 5
3 24 26 27
3 11 10 8
3 27 29 16
3 0 13 11
3 16 20 21
3 5 4 0
3 21 24 27
3 11 8 5
3 27 16 21
3 5 0 11
3 0 1 17
3 0 17 16
3 1 2 18
3 1 18 17
3 2 3 19
3 2 19 18
3 3 4 20
3 3 20 19
3 4 5 21
3 4 21 20
3 5 6 22
3 5 22 21
3 6 7 23
3 6 23 22
3 7 8 24
3 7 24 23
3 8 9 25
3 8 25 24
3 9 10 26
3 9 26 25
3 10 11 27
3 10 27 26
3 11 12 28
3 11 28 27
3 12 13 29
3 12 29 28
3 13 14 30
3 13 30 29
3 14 15 31
3 14 31 30
3 15 0 16
3 15 16 31
