ply
format ascii 1.0
element vertex 30
property float x
property float y
property float z
element face 28
property list uchar int vertex_indices
end_header
232.615799 161.368958 204.253418
234.591431 161.680206 204.253418
231.693039 167.618317 204.253418
233.655121 167.230713 204.253418
234.391663 168.952942 204.253418
235.410522 167.231918 204.253418
235.715042 170.25325 204.253418
237.417969 169.204407 204.253418
236.275696 172.01265 204.253418
238.270996 171.875519 204.253418
235.960892 173.834854 204.253418
237.791809 174.639679 204.253418
234.829788 175.303116 204.253418
236.076218 176.867218 204.253418
233.154785 176.071365 204.253418
233.529587 178.035934 204.253418
231.306503 175.973618 204.253418
230.730194 177.888779 204.253418
229.714157 175.037186 204.253418
228.313934 176.46524 204.253418
228.746063 173.463745 204.253418
226.841995 174.075714 204.253418
228.614624 171.614532 204.253418
226.644226 171.271759 204.253418
229.361023 169.926971 204.253418
227.77626 168.706924 204.253418
230.807602 168.766815 204.253418
229.970352 166.9505 204.253418
232.860733 168.406937 204.253418
232.487427 166.442093 204.253418
3 0 1 2
3 1 3 2
3 2 3 4
3 3 5 4
3 4 5 6
3 5 7 6
3 6 7 8
3 7 9 8
3 8 9 10
3 9 11 10
3 10 11 12
3 11 13 12
3 12 13 14
3 13 15 14
3 14 15 16
3 15 17 16
3 16 17 18
3 17 19 18
3 18 19 20
3 19 21 20
3 20 21 22
3 21 23 22
3 22 23 24
3 23 25 24
3 24 25 26
3 25 27 26
3 26 27 28
3 27 29 28
