ply
format ascii 1.0
element vertex 20
property float x
property float y
property float z
element face 36
property list uchar int vertex_indices
end_header
1243.69763 -58.6431084 255.953812
1280.47241 -42.9359283 255.847824
1278.81665 -39.0508766 255.847824
1284.56812 -36.6018486 255.847824
1286.22388 -40.4869003 255.847824
1289.43848 -48.0120964 255.847824
1245.02417 -66.9698029 261.331329
1241.80957 -59.4446068 255.953812
1238.11084 -50.7728195 255.953812
1239.98926 -49.960186 255.953812
1243.69763 -58.6431084 263.953796
1280.47241 -42.9359283 263.847839
1278.81665 -39.0508766 263.847839
1284.56812 -36.6018486 263.847839
1286.22388 -40.4869003 263.847839
1289.43848 -48.0120964 263.847839
1245.02417 -66.9698029 269.331329
1241.80957 -59.4446068 263.953796
1238.11084 -50.7728195 263.953796
1239.98926 -49.960186 263.953796
3 10 19 18
3 8 9 0
3 18 17 16
3 6 7 8
3 16 15 14
3 4 5 6
3 14 13 12
3 2 3 4
3 10 18 16
3 6 8 0
3 14 12 11
3 1 2 4
3 11 10 16
3 6 0 1
3 16 14 11
3 1 4 6
3 0 1 11
3 0 11 10
3 1 2 12
3 1 12 11
3 2 3 13
3 2 13 12
3 3 4 14
3 3 14 13
3 4 5 15
3 4 15 14
3 5 6 16
3 5 16 15
3 6 7 17
3 6 17 16
3 7 8 18
3 7 18 17
3 8 9 19
3 8 19 18
3 9 0 10
3 9 10 19
