ply
format ascii 1.0
element vertex 18
property float x
property float y
property float z
element face 16
property list uchar int vertex_indices
end_header
-245.255768 -1170.49011 233.225464
-245.577133 -1174.47717 233.225464
-182.31456 -1175.56384 226.458191
-182.566437 -1179.55591 226.458191
-117.214745 -1178.56848 225.208817
-117.434601 -1182.5625 225.208817
-99.3620224 -1180.14722 227.201416
-100.100571 -1184.07837 227.201416
-87.1103363 -1184.32251 227.201416
-89.1138992 -1187.78455 227.201416
-75.3689117 -1193.98779 227.778259
-78.2366486 -1196.77637 227.778259
-69.2321014 -1202.63269 227.778259
-72.4831619 -1204.96301 227.778259
-60.9528847 -1214.0813 229.487015
-64.4374313 -1216.04541 229.487015
-52.9761047 -1231.46204 229.487015
-56.6121292 -1233.12915 229.487015
3 0 1 2
3 1 3 2
3 2 3 4
3 3 5 4
3 4 5 6
3 5 7 6
3 6 7 8
3 7 9 8
3 8 9 10
3 9 11 10
3 10 11 12
3 11 13 12
3 12 13 14
3 13 15 14
3 14 15 16
3 15 17 16
