ply
format ascii 1.0
element vertex 16
property float x
property float y
property float z
element face 28
property list uchar int vertex_indices
end_header
3170.26416 -567.751648 244.254471
3175.97705 -567.484497 243.185654
3207.53271 -575.154419 244.104431
3207.14551 -577.881714 244.104431
3204.28906 -577.614563 244.104431
3202.34277 -583.592407 244.104431
3174.94092 -577.224976 243.185654
3168.9668 -573.206299 244.254471
3170.26416 -567.751648 252.254471
3175.97705 -567.484497 251.185654
3207.53271 -575.154419 252.104431
3207.14551 -577.881714 252.104431
3204.28906 -577.614563 252.104431
3202.34277 -583.592407 252.104431
3174.94092 -577.224976 251.185654
3168.9668 -573.206299 252.254471
3 9 8 15
3 7 0 1
3 15 14 13
3 5 6 7
3 12 11 10
3 2 3 4
3 10 9 15
3 7 1 2
3 15 13 12
3 4 5 7
3 12 10 15
3 7 2 4
3 0 1 9
3 0 9 8
3 1 2 10
3 1 10 9
3 2 3 11
3 2 11 10
3 3 4 12
3 3 12 11
3 4 5 13
3 4 13 12
3 5 6 14
3 5 14 13
3 6 7 15
3 6 15 14
3 7 0 8
3 7 8 15
