ply
format ascii 1.0
element vertex 22
property float x
property float y
property float z
element face 20
property list uchar int vertex_indices
end_header
-2713.57104 -1348.91089 359.777557
-2712.97363 -1347.0022 359.777557
-2734.09668 -1342.48572 355.061249
-2733.56055 -1340.55896 355.061249
-2755.55957 -1337.2179 355.320221
-2754.75903 -1335.38501 355.320221
-2764.07349 -1329.20044 353.115814
-2762.35718 -1328.17395 353.115814
-2767.04248 -1318.12207 353.115814
-2765.04297 -1318.07935 353.115814
-2764.66064 -1307.81775 353.115814
-2762.66089 -1307.78955 353.115814
-2766.58057 -1297.73206 340.326263
-2766.10498 -1295.78943 340.326263
-2784.78906 -1303.047 350.076294
-2786.37549 -1301.8291 350.076294
-2781.35864 -1316.74963 350.076294
-2782.95068 -1317.96008 350.076294
-2771.81567 -1319.48401 350.076294
-2771.9082 -1321.48181 350.076294
-2766.42163 -1317.17529 353.115814
-2765.66382 -1319.02612 353.115814
3 0 1 2
3 1 3 2
3 2 3 4
3 3 5 4
3 4 5 6
3 5 7 6
3 6 7 8
3 7 9 8
3 8 9 10
3 9 11 10
3 10 11 12
3 11 13 12
3 12 13 14
3 13 15 14
3 14 15 16
3 15 17 16
3 16 17 18
3 17 19 18
3 18 19 20
3 19 21 20
