ply
format ascii 1.0
element vertex 8
property float x
property float y
property float z
element face 12
property list uchar int vertex_indices
end_header
-1416.70728 1300.90186 292.396484
-1417.88855 1290.58252 290.908447
-1357.73999 1284.98315 290.777618
-1357.44946 1297.36182 290.777618
-1416.70728 1300.90186 300.396484
-1417.88855 1290.58252 298.908447
-1357.73999 1284.98315 298.777618
-1357.44946 1297.36182 298.777618
3 6 7 4
3 0 3 2
3 4 5 6
3 2 1 0
3 0 1 5
3 0 5 4
3 1 2 6
3 1 6 5
3 2 3 7
3 2 7 6
3 3 0 4
3 3 4 7
