ply
format ascii 1.0
element vertex 20
property float x
property float y
property float z
element face 36
property list uchar int vertex_indices
end_header
2297.50903 -384.163574 213.330505
2303.62842 -371.083527 213.330505
2305.58423 -366.875641 215.358047
2313.31104 -370.482391 215.358047
2310.85156 -375.736664 213.330505
2306.65894 -384.720154 213.330505
2305.2356 -387.770325 213.330505
2303.69604 -391.05423 213.330505
2296.41479 -387.658997 213.330505
2297.94458 -384.363953 213.330505
2297.50903 -384.163574 221.330505
2303.62842 -371.083527 221.330505
2305.58423 -366.875641 223.358047
2313.31104 -370.482391 223.358047
2310.85156 -375.736664 221.330505
2306.65894 -384.720154 221.330505
2305.2356 -387.770325 221.330505
2303.69604 -391.05423 221.330505
2296.41479 -387.658997 221.330505
2297.94458 -384.363953 221.330505
3 11 10 19
3 9 0 1
3 19 18 17
3 7 8 9
3 17 16 15
3 5 6 7
3 14 13 12
3 2 3 4
3 12 11 19
3 9 1 2
3 19 17 15
3 5 7 9
3 15 14 12
3 2 4 5
3 12 19 15
3 5 9 2
3 0 1 11
3 0 11 10
3 1 2 12
3 1 12 11
3 2 3 13
3 2 13 12
3 3 4 14
3 3 14 13
3 4 5 15
3 4 15 14
3 5 6 16
3 5 16 15
3 6 7 17
3 6 17 16
3 7 8 18
3 7 18 17
3 8 9 19
3 8 19 18
3 9 0 10
3 9 10 19
