ply
format ascii 1.0
element vertex 16
property float x
property float y
property float z
element face 28
property list uchar int vertex_indices
end_header
1927.05066 -2450.17529 233.951202
1930.30408 -2455.552 233.951202
1926.85706 -2457.4668 233.951202
1935.87158 -2474.15356 231.755676
1976.33545 -2452.09009 229.881958
1966.93359 -2436.17139 233.09343
1962.72156 -2437.3291 234.93335
1960.02979 -2432.72046 234.93335
1927.05066 -2450.17529 241.951202
1930.30408 -2455.552 241.951202
1926.85706 -2457.4668 241.951202
1935.87158 -2474.15356 239.755676
1976.33545 -2452.09009 237.881958
1966.93359 -2436.17139 241.09343
1962.72156 -2437.3291 242.93335
1960.02979 -2432.72046 242.93335
3 14 15 8
3 0 7 6
3 9 10 11
3 3 2 1
3 11 12 13
3 5 4 3
3 13 14 8
3 0 6 5
3 9 11 13
3 5 3 1
3 13 8 9
3 1 0 5
3 0 1 9
3 0 9 8
3 1 2 10
3 1 10 9
3 2 3 11
3 2 11 10
3 3 4 12
3 3 12 11
3 4 5 13
3 4 13 12
3 5 6 14
3 5 14 13
3 6 7 15
3 6 15 14
3 7 0 8
3 7 8 15
