ply
format ascii 1.0
element vertex 16
property float x
property float y
property float z
element face 14
property list uchar int vertex_indices
end_header
2074.69922 -148.207092 252.384293
2067.57739 -144.563156 252.384293
2073.36572 -150.791748 252.384293
2066.00586 -147.655807 252.384293
2048.63867 -209.389832 251.342422
2041.19641 -206.455261 251.342422
2049.177 -209.137131 251.342422
2041.76208 -212.14035 251.342422
2048.93384 -210.113556 251.342422
2045.62646 -217.397812 251.342422
2088.32617 -225.710556 245.371979
2085.38013 -233.148376 245.371979
2117.427 -237.237381 241.284927
2114.51074 -244.686951 241.284927
2138.3689 -245.299927 237.486267
2135.49463 -252.765732 237.486267
3 0 1 2
3 1 3 2
3 2 3 4
3 3 5 4
3 4 5 6
3 5 7 6
3 6 7 8
3 7 9 8
3 8 9 10
3 9 11 10
3 10 11 12
3 11 13 12
3 12 13 14
3 13 15 14
