ply
format ascii 1.0
element vertex 8
property float x
property float y
property float z
element face 12
property list uchar int vertex_indices
end_header
-1446.5686 28.0079842 241.664124
-1414.82886 28.3642063 241.674026
-1414.68359 15.8741598 241.674026
-1446.43298 15.5068054 241.664124
-1446.5686 28.0079842 244.86412
-1414.82886 28.3642063 244.874023
-1414.68359 15.8741598 244.874023
-1446.43298 15.5068054 244.86412
3 5 4 7
3 3 0 1
3 7 6 5
3 1 2 3
3 0 1 5
3 0 5 4
3 1 2 6
3 1 6 5
3 2 3 7
3 2 7 6
3 3 0 4
3 3 4 7
