ply
format ascii 1.0
element vertex 8
property float x
property float y
property float z
element face 12
property list uchar int vertex_indices
end_header
2276.11987 -243.221954 228.355103
2278.24048 -244.00119 228.355103
2277.03979 -247.251724 228.355103
2274.90967 -246.461349 228.355103
2276.11987 -243.221954 236.355103
2278.24048 -244.00119 236.355103
2277.03979 -247.251724 236.355103
2274.90967 -246.461349 236.355103
3 5 4 7
3 3 0 1
3 7 6 5
3 1 2 3
3 0 1 5
3 0 5 4
3 1 2 6
3 1 6 5
3 2 3 7
3 2 7 6
3 3 0 4
3 3 4 7
