ply
format ascii 1.0
element vertex 16
property float x
property float y
property float z
element face 28
property list uchar int vertex_indices
end_header
2686.22852 1891.91931 279.207336
2687.01294 1893.88965 279.207336
2699.86182 1888.7467 274.710785
2699.07739 1886.77637 274.710785
2699.67773 1886.53137 274.710785
2695.71753 1876.62402 274.148254
2680.77734 1882.5907 275.901154
2684.74707 1892.50928 279.207336
2686.22852 1891.91931 287.207336
2687.01294 1893.88965 287.207336
2699.86182 1888.7467 282.710785
2699.07739 1886.77637 282.710785
2699.67773 1886.53137 282.710785
2695.71753 1876.62402 282.148254
2680.77734 1882.5907 283.901154
2684.74707 1892.50928 287.207336
3 8 15 14
3 6 7 0
3 14 13 12
3 4 5 6
3 11 10 9
3 1 2 3
3 8 14 12
3 4 6 0
3 11 9 8
3 0 1 3
3 8 12 11
3 3 4 0
3 0 1 9
3 0 9 8
3 1 2 10
3 1 10 9
3 2 3 11
3 2 11 10
3 3 4 12
3 3 12 11
3 4 5 13
3 4 13 12
3 5 6 14
3 5 14 13
3 6 7 15
3 6 15 14
3 7 0 8
3 7 8 15
