ply
format ascii 1.0
element vertex 8
property float x
property float y
property float z
element face 12
property list uchar int vertex_indices
end_header
-1569.01538 -303.534851 265.044983
-1540.57739 -320.310699 263.541016
-1559.78784 -352.90506 275.526123
-1588.22571 -336.14032 280.676758
-1569.01538 -303.534851 335.444977
-1540.57739 -320.310699 333.94101
-1559.78784 -352.90506 345.926117
-1588.22571 -336.14032 351.076752
3 5 4 7
3 3 0 1
3 7 6 5
3 1 2 3
3 0 1 5
3 0 5 4
3 1 2 6
3 1 6 5
3 2 3 7
3 2 7 6
3 3 0 4
3 3 4 7
