ply
format ascii 1.0
element vertex 8
property float x
property float y
property float z
element face 12
property list uchar int vertex_indices
end_header
-1744.78455 1310.34167 295.944702
-1730.58008 1307.20251 295.944702
-1734.0658 1291.38403 292.179596
-1748.27991 1294.52319 287.691498
-1744.78455 1310.34167 303.944702
-1730.58008 1307.20251 303.944702
-1734.0658 1291.38403 300.179596
-1748.27991 1294.52319 295.691498
3 5 4 7
3 3 0 1
3 7 6 5
3 1 2 3
3 0 1 5
3 0 5 4
3 1 2 6
3 1 6 5
3 2 3 7
3 2 7 6
3 3 0 4
3 3 4 7
