ply
format ascii 1.0
element vertex 28
property float x
property float y
property float z
element face 26
property list uchar int vertex_indices
end_header
-1657.32898 -206.058731 237.662491
-1649.58655 -208.072037 237.662491
-1646.69214 -165.257156 251.235596
-1639.23145 -168.14473 251.235596
-1616.07385 -99.4116745 237.977661
-1608.79089 -102.722252 237.977661
-1614.05786 -93.6107864 237.977661
-1606.2948 -95.5432892 237.977661
-1613.12634 -87.5094299 230.96788
-1605.15417 -88.1749878 230.96788
-1613.02478 -81.3929443 230.96788
-1605.06213 -80.6214371 230.96788
-1614.26489 -75.7481613 230.96788
-1606.57178 -73.5535431 230.96788
-1616.22742 -70.2298355 230.96788
-1608.96655 -66.8712463 230.96788
-1619.18762 -64.996109 233.123138
-1612.823 -60.1492615 233.123138
-1623.26587 -60.9444199 231.699509
-1618.27234 -54.6942673 231.699509
-1628.27222 -57.7705421 231.699509
-1624.74963 -50.5878525 231.699509
-1642.49841 -51.6102448 231.148697
-1639.39709 -44.235836 231.148697
-1657.61377 -45.4334946 231.148697
-1654.85962 -37.9225388 231.148697
-1678.3479 -38.4676704 238.217804
-1675.79956 -30.8843727 238.217804
3 0 1 2
3 1 3 2
3 2 3 4
3 3 5 4
3 4 5 6
3 5 7 6
3 6 7 8
3 7 9 8
3 8 9 10
3 9 11 10
3 10 11 12
3 11 13 12
3 12 13 14
3 13 15 14
3 14 15 16
3 15 17 16
3 16 17 18
3 17 19 18
3 18 19 20
3 19 21 20
3 20 21 22
3 21 23 22
3 22 23 24
3 23 25 24
3 24 25 26
3 25 27 26
