ply
format ascii 1.0
element vertex 8
property float x
property float y
property float z
element face 12
property list uchar int vertex_indices
end_header
-1042.74402 389.050476 251.79747
-1039.08386 374.47876 251.79747
-1054.71167 370.560333 253.495041
-1058.3717 385.13205 254.538177
-1042.74402 389.050476 254.997467
-1039.08386 374.47876 254.997467
-1054.71167 370.560333 256.695038
-1058.3717 385.13205 257.73819
3 5 4 7
3 3 0 1
3 7 6 5
3 1 2 3
3 0 1 5
3 0 5 4
3 1 2 6
3 1 6 5
3 2 3 7
3 2 7 6
3 3 0 4
3 3 4 7
