ply
format ascii 1.0
element vertex 10
property float x
property float y
property float z
element face 16
property list uchar int vertex_indices
end_header
1381.20105 -963.470215 239.962067
1352.24988 -982.40564 246.666458
1338.40369 -961.232666 246.737778
1367.35486 -942.297241 256.873596
1368.01318 -943.310242 256.873596
1381.20105 -963.470215 247.962067
1352.24988 -982.40564 254.666458
1338.40369 -961.232666 254.737778
1367.35486 -942.297241 264.873596
1368.01318 -943.310242 264.873596
3 6 5 9
3 4 0 1
3 9 8 7
3 2 3 4
3 7 6 9
3 4 1 2
3 0 1 6
3 0 6 5
3 1 2 7
3 1 7 6
3 2 3 8
3 2 8 7
3 3 4 9
3 3 9 8
3 4 0 5
3 4 5 9
