ply
format ascii 1.0
element vertex 30
property float x
property float y
property float z
element face 28
property list uchar int vertex_indices
end_header
3672.15796 2511.94434 0.0299999993
3672.15137 2515.44434 0.0299999993
3530.09351 2511.67725 0.0299999993
3530.08838 2515.177 0.0299999993
3492.81982 2511.68188 0.0299999993
3493.07666 2515.17236 0.0299999993
3486.50391 2515.32373 0.0299999993
3489.0127 2517.7644 0.0299999993
3482.25635 2521.92944 0.0299999993
3484.42993 2524.67285 0.0299999993
3475.08887 2524.68042 0.0299999993
3475.50464 2528.15576 0.0299999993
3440.46533 2526.80884 269.320862
3439.48364 2530.16846 269.320862
3424.38843 2510.30005 269.320862
3421.26465 2511.87866 269.320862
3403.98193 2453.42725 277.799957
3400.65527 2454.51538 277.799957
3397.5542 2428.27783 276.175049
3394.08887 2428.76953 276.175049
3399.0105 2419.81006 276.175049
3395.75073 2418.53564 276.175049
3403.43115 2413.25464 268.459259
3401.20605 2410.55298 268.459259
3416.98169 2405.05127 272.958679
3416.21948 2401.63525 272.958679
3460.53418 2400.67334 0.0299999993
3460.44995 2397.17432 0.0299999993
3501.56201 2403.04199 0.0299999993
3501.76318 2399.54785 0.0299999993
3 0 1 2
3 1 3 2
3 2 3 4
3 3 5 4
3 4 5 6
3 5 7 6
3 6 7 8
3 7 9 8
3 8 9 10
3 9 11 10
3 10 11 12
3 11 13 12
3 12 13 14
3 13 15 14
3 14 15 16
3 15 17 16
3 16 17 18
3 17 19 18
3 18 19 20
3 19 21 20
3 20 21 22
3 21 23 22
3 22 23 24
3 23 25 24
3 24 25 26
3 25 27 26
3 26 27 28
3 27 29 28
