ply
format ascii 1.0
element vertex 8
property float x
property float y
property float z
element face 12
property list uchar int vertex_indices
end_header
-1153.62964 598.47583 216.64679
-1117.00989 602.104858 213.983673
-1114.52148 577.09137 232.179138
-1151.14124 573.451233 244.531219
-1153.62964 598.47583 219.846786
-1117.00989 602.104858 217.18367
-1114.52148 577.09137 235.379135
-1151.14124 573.451233 247.731216
3 5 4 7
3 3 0 1
3 7 6 5
3 1 2 3
3 0 1 5
3 0 5 4
3 1 2 6
3 1 6 5
3 2 3 7
3 2 7 6
3 3 0 4
3 3 4 7
