ply
format ascii 1.0
element vertex 24
property float x
property float y
property float z
element face 22
property list uchar int vertex_indices
end_header
-2044.6311 -654.196228 259.328308
-2045.0105 -648.709351 259.328308
-2082.09009 -656.784363 250.741531
-2082.24341 -651.286499 250.741531
-2087.46143 -652.906921 250.741531
-2082.00391 -652.225037 250.741531
-2088.92944 -622.089539 252.253464
-2083.47949 -621.349182 252.253464
-2089.86084 -621.477234 252.253464
-2088.78369 -616.083801 252.253464
-2103.21436 -621.119019 248.522629
-2102.52222 -615.662781 248.522629
-2107.42188 -617.030212 248.522629
-2101.93604 -616.634644 248.522629
-2107.04102 -598.70752 248.522629
-2101.54224 -598.600403 248.522629
-2107.24268 -598.143127 248.522629
-2102.90918 -594.756531 248.522629
-2107.63403 -598.317749 248.522629
-2105.40308 -593.290588 248.522629
-2127.26392 -589.588379 247.14061
-2124.42651 -584.87677 247.14061
-2130.1853 -584.170898 247.14061
-2125.14575 -581.967529 247.14061
3 0 1 2
3 1 3 2
3 2 3 4
3 3 5 4
3 4 5 6
3 5 7 6
3 6 7 8
3 7 9 8
3 8 9 10
3 9 11 10
3 10 11 12
3 11 13 12
3 12 13 14
3 13 15 14
3 14 15 16
3 15 17 16
3 16 17 18
3 17 19 18
3 18 19 20
3 19 21 20
3 20 21 22
3 21 23 22
