ply
format ascii 1.0
element vertex 12
property float x
property float y
property float z
element face 20
property list uchar int vertex_indices
end_header
-781.205872 1090.5636 201.336014
-781.380188 1098.22241 201.336014
-774.718506 1098.3783 204.909195
-774.670105 1096.27429 204.909195
-774.534546 1090.71948 204.909195
-778.659363 1090.61926 204.909195
-781.205872 1090.5636 209.336014
-781.380188 1098.22241 209.336014
-774.718506 1098.3783 212.909195
-774.670105 1096.27429 212.909195
-774.534546 1090.71948 212.909195
-778.659363 1090.61926 212.909195
3 7 6 11
3 5 0 1
3 11 10 9
3 3 4 5
3 9 8 7
3 1 2 3
3 7 11 9
3 3 5 1
3 0 1 7
3 0 7 6
3 1 2 8
3 1 8 7
3 2 3 9
3 2 9 8
3 3 4 10
3 3 10 9
3 4 5 11
3 4 11 10
3 5 0 6
3 5 6 11
