ply
format ascii 1.0
element vertex 62
property float x
property float y
property float z
element face 60
property list uchar int vertex_indices
end_header
1233.17529 1982.51318 214.685074
1231.91125 1990.41272 214.685074
1221.52686 1980.64941 214.685074
1220.18579 1988.53613 214.685074
1192.02014 1975.51575 216.638626
1190.84131 1983.42834 216.638626
1133.23035 1967.49548 219.446579
1132.29688 1975.44092 219.446579
1117.27283 1966.75586 221.860855
1117.21167 1974.75562 221.860855
1101.8877 1967.24622 222.173874
1102.50317 1975.22253 222.173874
1087.01147 1969.10657 222.173874
1088.60254 1976.94678 222.173874
1029.20959 1981.97034 225.658951
1031.23901 1989.70874 225.658951
932.221191 2009.69434 226.641373
934.206421 2017.44409 226.641373
880.517456 2020.06873 239.568863
881.995972 2027.93091 239.568863
858.678223 2023.52454 235.702393
859.643616 2031.46606 235.702393
848.989258 2023.90198 235.702393
849.425049 2031.89014 235.702393
834.964783 2024.81055 235.702393
835.195496 2032.80713 235.702393
816.040466 2024.85339 233.265594
816.008972 2032.85339 233.265594
704.881592 2024.29688 240.958633
704.834778 2032.29675 240.958633
669.670715 2024.00037 242.198715
669.30426 2031.99207 242.198715
624.274963 2020.59875 244.337799
623.74115 2028.58093 244.337799
615.053894 2020.34753 245.354279
614.39093 2028.32007 245.354279
571.045776 2016.17969 246.282715
569.880249 2024.09436 246.282715
550.764587 2010.91187 248.385498
548.506653 2018.58655 248.385498
532.057068 2004.67908 250.059341
529.25824 2012.17346 250.059341
514.518616 1997.37878 250.059341
511.125793 2004.62366 250.059341
480.549469 1980.54382 254.248474
477.219543 1987.81787 254.248474
467.020416 1975.68787 254.248474
464.857208 1983.38989 254.248474
453.5065 1972.9436 254.803543
452.499084 1980.87988 254.803543
438.326233 1972.02234 254.803543
438.127899 1980.0199 254.803543
408.715027 1971.81262 258.355438
408.403839 1979.80664 258.355438
395.377319 1970.37671 259.208099
394.145996 1978.28137 259.208099
382.479065 1967.73645 259.208099
380.18457 1975.40027 259.208099
368.670807 1962.36902 259.067505
365.525818 1969.72485 259.067505
352.704651 1954.98047 259.067505
349.345581 1962.24109 259.067505
3 0 1 2
3 1 3 2
3 2 3 4
3 3 5 4
3 4 5 6
3 5 7 6
3 6 7 8
3 7 9 8
3 8 9 10
3 9 11 10
3 10 11 12
3 11 13 12
3 12 13 14
3 13 15 14
3 14 15 16
3 15 17 16
3 16 17 18
3 17 19 18
3 18 19 20
3 19 21 20
3 20 21 22
3 21 23 22
3 22 23 24
3 23 25 24
3 24 25 26
3 25 27 26
3 26 27 28
3 27 29 28
3 28 29 30
3 29 31 30
3 30 31 32
3 31 33 32
3 32 33 34
3 33 35 34
3 34 35 36
3 35 37 36
3 36 37 38
3 37 39 38
3 38 39 40
3 39 41 40
3 40 41 42
3 41 43 42
3 42 43 44
3 43 45 44
3 44 45 46
3 45 47 46
3 46 47 48
3 47 49 48
3 48 49 50
3 49 51 50
3 50 51 52
3 51 53 52
3 52 53 54
3 53 55 54
3 54 55 56
3 55 57 56
3 56 57 58
3 57 59 58
3 58 59 60
3 59 61 60
