ply
format ascii 1.0
element vertex 16
property float x
property float y
property float z
element face 14
property list uchar int vertex_indices
end_header
-2723.83862 625.969604 233.421661
-2728.90698 634.590027 233.421661
-2842.70288 556.083191 228.597046
-2847.77124 564.703735 228.597046
-2878.36133 535.123047 228.89212
-2883.31885 543.807678 228.89212
-2884.10327 532.585938 228.89212
-2887.06592 542.136963 228.89212
-2890.63721 531.303467 228.89212
-2891.57031 541.259827 228.89212
-2899.69653 531.063721 228.89212
-2899.26196 541.05426 228.89212
-2908.55127 532.108704 227.024689
-2906.42236 541.879517 227.024689
-2931.51758 537.924744 227.024689
-2929.06152 547.618408 227.024689
3 0 1 2
3 1 3 2
3 2 3 4
3 3 5 4
3 4 5 6
3 5 7 6
3 6 7 8
3 7 9 8
3 8 9 10
3 9 11 10
3 10 11 12
3 11 13 12
3 12 13 14
3 13 15 14
