ply
format ascii 1.0
element vertex 16
property float x
property float y
property float z
element face 14
property list uchar int vertex_indices
end_header
994.39209 992.519653 231.550095
999.033203 989.56842 231.550095
1021.2179 1034.7063 233.612274
1025.84924 1031.73975 233.612274
1057.19604 1090.56934 237.338165
1061.85193 1087.64148 237.338165
1108.95496 1174.22974 241.858032
1113.62 1171.31641 241.858032
1111.72168 1177.76953 245.93988
1115.69458 1173.96606 245.93988
1114.70081 1180.19275 245.93988
1117.61487 1175.52808 245.93988
1118.83972 1182.19934 245.93988
1120.40869 1176.92786 245.93988
1124.16846 1183.09045 245.93988
1125.0531 1177.66199 245.93988
3 0 1 2
3 1 3 2
3 2 3 4
3 3 5 4
3 4 5 6
3 5 7 6
3 6 7 8
3 7 9 8
3 8 9 10
3 9 11 10
3 10 11 12
3 11 13 12
3 12 13 14
3 13 15 14
