ply
format ascii 1.0
element vertex 44
property float x
property float y
property float z
element face 42
property list uchar int vertex_indices
end_header
-854.242126 -2503.30933 202.231247
-850.87262 -2512.72461 202.231247
-783.929993 -2478.16504 199.630173
-779.779236 -2487.26294 199.630173
-719.233643 -2441.71802 207.079956
-714.263367 -2450.39526 207.079956
-670.294067 -2413.05103 215.512741
-665.33075 -2421.73242 215.512741
-640.425537 -2396.66992 203.120789
-635.941406 -2405.6084 203.120789
-607.840454 -2381.71802 209.524368
-603.788269 -2390.86011 209.524368
-564.706482 -2363.10425 205.574539
-560.920959 -2372.36011 205.574539
-534.09967 -2351.55933 212.853928
-530.604492 -2360.92871 212.853928
-504.525024 -2340.65967 193.326065
-501.560425 -2350.21021 193.326065
-449.298737 -2325.23779 204.216446
-446.927368 -2334.95239 204.216446
-395.505219 -2314.04639 191.32785
-393.688873 -2323.87988 191.32785
-337.750763 -2304.62549 195.605713
-335.968048 -2314.46533 195.605713
-281.513397 -2293.39551 201.648743
-279.47998 -2303.18652 201.648743
-171.609848 -2270.12451 186.142273
-169.994049 -2279.99292 186.142273
9.75028992 -2245.70605 195.540497
10.9705811 -2255.63135 195.540497
82.48806 -2238.88818 198.89711
83.1239853 -2248.86792 198.89711
113.905014 -2239.08008 193.951279
113.656631 -2249.0769 193.951279
153.933746 -2240.64844 190.844223
153.258011 -2250.62549 190.844223
173.415955 -2243.1145 192.501816
172.157837 -2253.03516 192.501816
189.208847 -2245.11523 192.501816
187.678619 -2254.99756 192.501816
215.713959 -2249.66577 192.516937
213.827774 -2259.48608 192.516937
238.646637 -2254.60864 199.551605
236.539108 -2264.38403 199.551605
3 0 1 2
3 1 3 2
3 2 3 4
3 3 5 4
3 4 5 6
3 5 7 6
3 6 7 8
3 7 9 8
3 8 9 10
3 9 11 10
3 10 11 12
3 11 13 12
3 12 13 14
3 13 15 14
3 14 15 16
3 15 17 16
3 16 17 18
3 17 19 18
3 18 19 20
3 19 21 20
3 20 21 22
3 21 23 22
3 22 23 24
3 23 25 24
3 24 25 26
3 25 27 26
3 26 27 28
3 27 29 28
3 28 29 30
3 29 31 30
3 30 31 32
3 31 33 32
3 32 33 34
3 33 35 34
3 34 35 36
3 35 37 36
3 36 37 38
3 37 39 38
3 38 39 40
3 39 41 40
3 40 41 42
3 41 43 42
