ply
format ascii 1.0
element vertex 8
property float x
property float y
property float z
element face 12
property list uchar int vertex_indices
end_header
-231.376602 432.298096 200.309189
-192.616959 414.564911 200.719391
-198.891312 400.850342 201.677032
-237.65097 418.572418 200.309189
-231.376602 432.298096 208.309189
-192.616959 414.564911 208.719391
-198.891312 400.850342 209.677032
-237.65097 418.572418 208.309189
3 5 4 7
3 3 0 1
3 7 6 5
3 1 2 3
3 0 1 5
3 0 5 4
3 1 2 6
3 1 6 5
3 2 3 7
3 2 7 6
3 3 0 4
3 3 4 7
