ply
format ascii 1.0
element vertex 19
property float x
property float y
property float z
element face 17
property list uchar int vertex_indices
end_header
937.067505 2317.33789 237.709106
938.858826 2316.80347 237.709106
940.737244 2316.89258 237.709106
942.470459 2317.60498 234.79686
943.864746 2318.86304 234.79686
944.755554 2320.5105 235.087784
945.036316 2322.36938 235.087784
944.678101 2324.2063 235.087784
943.719482 2325.82031 235.087784
942.276794 2327.02271 235.087784
940.514526 2327.66821 238.649261
938.645813 2327.69067 238.649261
936.864197 2327.06714 238.649261
935.576416 2326.07642 238.649261
934.627502 2324.75171 238.649261
934.114319 2323.21558 238.649261
934.075562 2321.59033 238.649261
934.511292 2320.02075 238.649261
935.557007 2318.46216 237.709106
3 17 18 0
3 0 1 2
3 2 3 4
3 4 5 6
3 6 7 8
3 8 9 10
3 10 11 12
3 12 13 14
3 14 15 16
3 16 17 0
3 0 2 4
3 4 6 8
3 8 10 12
3 12 14 16
3 16 0 4
3 4 8 12
3 12 16 4
