ply
format ascii 1.0
element vertex 14
property float x
property float y
property float z
element face 12
property list uchar int vertex_indices
end_header
780.95166 908.674683 193.009216
783.474121 898.998047 193.009216
803.4776 914.531616 193.009216
806.727783 905.074524 193.009216
821.488892 922.506348 193.096878
826.633728 913.931335 193.096878
838.206421 935.360962 192.585953
845.064209 928.082825 192.585953
852.464355 951.766541 192.585953
860.377075 945.651917 192.585953
860.089111 963.746826 195.45755
868.515686 958.362305 195.45755
888.314331 1007.90771 211.561386
896.740295 1002.52228 211.561386
3 0 1 2
3 1 3 2
3 2 3 4
3 3 5 4
3 4 5 6
3 5 7 6
3 6 7 8
3 7 9 8
3 8 9 10
3 9 11 10
3 10 11 12
3 11 13 12
