ply
format ascii 1.0
element vertex 10
property float x
property float y
property float z
element face 8
property list uchar int vertex_indices
end_header
2406.51807 -42.8794823 228.118759
2408.04419 -46.5768585 228.118759
2430.37231 -33.0526161 217.02832
2431.38306 -36.9228172 217.02832
2457.95923 -29.4554348 210.214615
2458.30957 -33.4400787 210.214615
2463.45605 -30.1683598 210.214615
2462.90186 -34.1297798 210.214615
2488.40869 -33.6638412 208.320236
2487.85376 -37.6251602 208.320236
3 0 1 2
3 1 3 2
3 2 3 4
3 3 5 4
3 4 5 6
3 5 7 6
3 6 7 8
3 7 9 8
