ply
format ascii 1.0
element vertex 10
property float x
property float y
property float z
element face 16
property list uchar int vertex_indices
end_header
3085.47339 -1156.94348 238.631195
3092.74487 -1166.93994 238.631195
3085.12476 -1172.48364 238.631195
3084.67944 -1172.80652 238.631195
3077.40771 -1162.81006 238.631195
3085.47339 -1156.94348 246.631195
3092.74487 -1166.93994 246.631195
3085.12476 -1172.48364 246.631195
3084.67944 -1172.80652 246.631195
3077.40771 -1162.81006 246.631195
3 6 5 9
3 4 0 1
3 9 8 7
3 2 3 4
3 7 6 9
3 4 1 2
3 0 1 6
3 0 6 5
3 1 2 7
3 1 7 6
3 2 3 8
3 2 8 7
3 3 4 9
3 3 9 8
3 4 0 5
3 4 5 9
