ply
format ascii 1.0
element vertex 14
property float x
property float y
property float z
element face 12
property list uchar int vertex_indices
end_header
3343.88379 574.197083 245.751923
3326.22266 561.729309 241.863159
3279.98804 485.898438 231.94014
3276.87036 432.398285 230.004761
3244.66577 363.313416 218.191071
3268.03955 341.50592 224.087769
3312.71533 427.199677 242.526489
3338.16138 465.115082 244.805176
3343.88379 485.375244 244.805176
3344.91992 516.544678 246.204224
3356.86841 534.723145 246.374588
3362.58105 556.53064 252.494537
3378.1604 571.592163 253.281769
3369.32983 578.861328 253.281769
3 12 13 0
3 0 1 2
3 3 4 5
3 6 7 8
3 9 10 11
3 11 12 0
3 0 2 3
3 3 5 6
3 6 8 9
3 9 11 0
3 0 3 6
3 6 9 0
