ply
format ascii 1.0
element vertex 28
property float x
property float y
property float z
element face 52
property list uchar int vertex_indices
end_header
-205.669174 -336.474304 282.910767
-196.577164 -336.195984 282.910767
-196.364151 -343.075531 281.678802
-175.778824 -342.452148 280.54837
-175.623901 -347.539459 280.54837
-168.942886 -347.339081 280.54837
-168.187637 -372.152191 275.476105
-178.809494 -372.475006 275.476105
-178.519028 -382.293396 275.476105
-188.831039 -382.593964 273.802307
-189.586288 -357.680664 281.678802
-194.8246 -357.836517 281.678802
-194.747147 -360.474762 281.678802
-204.933289 -360.786469 281.678802
-205.669174 -336.474304 298.910767
-196.577164 -336.195984 298.910767
-196.364151 -343.075531 297.678802
-175.778824 -342.452148 296.54837
-175.623901 -347.539459 296.54837
-168.942886 -347.339081 296.54837
-168.187637 -372.152191 291.476105
-178.809494 -372.475006 291.476105
-178.519028 -382.293396 291.476105
-188.831039 -382.593964 289.802307
-189.586288 -357.680664 297.678802
-194.8246 -357.836517 297.678802
-194.747147 -360.474762 297.678802
-204.933289 -360.786469 297.678802
3 15 14 27
3 13 0 1
3 27 26 25
3 11 12 13
3 24 23 22
3 8 9 10
3 21 20 19
3 5 6 7
3 18 17 16
3 2 3 4
3 16 15 27
3 13 1 2
3 24 22 21
3 7 8 10
3 21 19 18
3 4 5 7
3 18 16 27
3 13 2 4
3 24 21 18
3 4 7 10
3 18 27 25
3 11 13 4
3 25 24 18
3 4 10 11
3 0 1 15
3 0 15 14
3 1 2 16
3 1 16 15
3 2 3 17
3 2 17 16
3 3 4 18
3 3 18 17
3 4 5 19
3 4 19 18
3 5 6 20
3 5 20 19
3 6 7 21
3 6 21 20
3 7 8 22
3 7 22 21
3 8 9 23
3 8 23 22
3 9 10 24
3 9 24 23
3 10 11 25
3 10 25 24
3 11 12 26
3 11 26 25
3 12 13 27
3 12 27 26
3 13 0 14
3 13 14 27
