ply
format ascii 1.0
element vertex 12
property float x
property float y
property float z
element face 10
property list uchar int vertex_indices
end_header
-1386.50391 -1298.89636 197.731094
-1384.82544 -1297.80884 197.731094
-1453.13538 -1196.05823 196.593063
-1451.42737 -1195.0177 196.593063
-1451.52148 -1190.58191 198.718155
-1450.19446 -1192.07825 198.718155
-1417.62048 -1163.4895 199.536087
-1416.62671 -1165.22522 199.536087
-1407.11194 -1165.22314 199.536087
-1406.87915 -1167.20959 199.536087
-1400.40784 -1161.46558 199.536087
-1399.44666 -1163.21936 199.536087
3 0 1 2
3 1 3 2
3 2 3 4
3 3 5 4
3 4 5 6
3 5 7 6
3 6 7 8
3 7 9 8
3 8 9 10
3 9 11 10
