ply
format ascii 1.0
element vertex 8
property float x
property float y
property float z
element face 12
property list uchar int vertex_indices
end_header
-644.680542 -324.140106 244.294373
-625.867126 -335.071655 244.294373
-637.554077 -355.198242 249.942093
-656.367493 -344.266663 253.581924
-644.680542 -324.140106 247.49437
-625.867126 -335.071655 247.49437
-637.554077 -355.198242 253.14209
-656.367493 -344.266663 256.781921
3 5 4 7
3 3 0 1
3 7 6 5
3 1 2 3
3 0 1 5
3 0 5 4
3 1 2 6
3 1 6 5
3 2 3 7
3 2 7 6
3 3 0 4
3 3 4 7
