ply
format ascii 1.0
element vertex 8
property float x
property float y
property float z
element face 12
property list uchar int vertex_indices
end_header
560.83844 -392.178558 275.031616
570.104736 -366.22998 278.097046
595.560425 -375.324799 269.606964
586.294128 -401.262238 270.856537
560.83844 -392.178558 278.231628
570.104736 -366.22998 281.297058
595.560425 -375.324799 272.806976
586.294128 -401.262238 274.056549
3 5 4 7
3 3 0 1
3 7 6 5
3 1 2 3
3 0 1 5
3 0 5 4
3 1 2 6
3 1 6 5
3 2 3 7
3 2 7 6
3 3 0 4
3 3 4 7
