ply
format ascii 1.0
element vertex 8
property float x
property float y
property float z
element face 12
property list uchar int vertex_indices
end_header
-2698.08984 -1510.76135 333.31897
-2670.47485 -1505.81873 329.404053
-2668.33496 -1517.76331 324.813751
-2695.94995 -1522.70593 323.618439
-2698.08984 -1510.76135 341.31897
-2670.47485 -1505.81873 337.404053
-2668.33496 -1517.76331 332.813751
-2695.94995 -1522.70593 331.618439
3 5 4 7
3 3 0 1
3 7 6 5
3 1 2 3
3 0 1 5
3 0 5 4
3 1 2 6
3 1 6 5
3 2 3 7
3 2 7 6
3 3 0 4
3 3 4 7
