ply
format ascii 1.0
element vertex 22
property float x
property float y
property float z
element face 40
property list uchar int vertex_indices
end_header
-1140.77112 1138.9209 234.533585
-1114.49243 1128.97998 242.85553
-1118.30737 1118.89441 242.85553
-1147.13257 1129.7926 234.533585
-1170.51624 1152.02319 245.155197
-1175.72546 1172.23877 245.155197
-1164.43555 1175.14417 264.672821
-1153.92981 1177.84924 253.759064
-1151.422 1168.09766 239.113373
-1161.92773 1165.39258 245.155197
-1159.75879 1156.9657 245.155197
-1140.77112 1138.9209 242.533585
-1114.49243 1128.97998 250.85553
-1118.30737 1118.89441 250.85553
-1147.13257 1129.7926 242.533585
-1170.51624 1152.02319 253.155197
-1175.72546 1172.23877 253.155197
-1164.43555 1175.14417 272.672821
-1153.92981 1177.84924 261.759064
-1151.422 1168.09766 247.113373
-1161.92773 1165.39258 253.155197
-1159.75879 1156.9657 253.155197
3 20 19 18
3 7 8 9
3 17 16 15
3 4 5 6
3 15 14 13
3 2 3 4
3 13 12 11
3 0 1 2
3 20 18 17
3 6 7 9
3 15 13 11
3 0 2 4
3 20 17 15
3 4 6 9
3 15 11 21
3 10 0 4
3 21 20 15
3 4 9 10
3 0 1 12
3 0 12 11
3 1 2 13
3 1 13 12
3 2 3 14
3 2 14 13
3 3 4 15
3 3 15 14
3 4 5 16
3 4 16 15
3 5 6 17
3 5 17 16
3 6 7 18
3 6 18 17
3 7 8 19
3 7 19 18
3 8 9 20
3 8 20 19
3 9 10 21
3 9 21 20
3 10 0 11
3 10 11 21
