ply
format ascii 1.0
element vertex 14
property float x
property float y
property float z
element face 12
property list uchar int vertex_indices
end_header
1242.64465 157.241852 173.454498
1243.33704 155.36554 173.454498
1260.99866 164.014069 173.454498
1261.60291 162.107513 173.454498
1279.62463 168.961166 171.412109
1280.11951 167.023331 171.412109
1324.35193 180.191605 177.048508
1324.85986 178.257156 177.048508
1344.14893 185.901215 177.048508
1344.66492 183.968918 177.048508
1368.91272 192.086685 168.029999
1369.26331 190.117645 168.029999
1416.85815 198.849457 168.029999
1417.13745 196.869064 168.029999
3 0 1 2
3 1 3 2
3 2 3 4
3 3 5 4
3 4 5 6
3 5 7 6
3 6 7 8
3 7 9 8
3 8 9 10
3 9 11 10
3 10 11 12
3 11 13 12
