ply
format ascii 1.0
element vertex 8
property float x
property float y
property float z
element face 12
property list uchar int vertex_indices
end_header
-1843.80896 -173.235397 245.549973
-1835.08496 -197.369461 233.609238
-1856.63843 -205.161819 242.125214
-1865.36255 -181.027756 251.310318
-1843.80896 -173.235397 248.749969
-1835.08496 -197.369461 236.809235
-1856.63843 -205.161819 245.325211
-1865.36255 -181.027756 254.510315
3 5 4 7
3 3 0 1
3 7 6 5
3 1 2 3
3 0 1 5
3 0 5 4
3 1 2 6
3 1 6 5
3 2 3 7
3 2 7 6
3 3 0 4
3 3 4 7
