ply
format ascii 1.0
element vertex 44
property float x
property float y
property float z
element face 42
property list uchar int vertex_indices
end_header
67.082962 -590.498108 284.029633
72.5795898 -590.690735 284.029633
69.3667526 -525.41748 289.061554
74.8660049 -525.327148 289.061554
65.5825958 -498.397705 289.061554
71.0395966 -497.711365 289.061554
62.0374794 -467.027557 289.544708
67.5357437 -467.165588 289.544708
67.0070724 -444.767975 295.585938
72.2488022 -446.433594 295.585938
79.2802277 -412.471832 294.114777
84.2790985 -414.765564 294.114777
99.8187027 -373.214447 295.054321
104.736961 -375.6763 295.054321
118.869583 -333.382965 277.582703
123.680809 -336.047943 277.582703
127.973587 -323.118896 277.582703
130.843643 -327.810669 277.582703
139.184525 -321.286224 280.212738
138.378326 -326.726807 280.212738
148.911469 -326.241669 280.212738
144.763321 -329.853149 280.212738
151.833206 -335.784607 280.212738
146.33432 -335.894958 280.212738
149.626068 -344.678192 282.153442
144.668411 -342.296661 282.153442
131.50856 -378.771942 289.744812
126.456604 -376.597595 289.744812
131.783905 -384.584717 289.744812
126.491104 -386.080139 289.744812
135.097046 -390.556702 289.744812
131.253296 -394.490601 289.744812
141.406769 -394.154907 281.660919
140.474533 -399.575317 281.660919
151.223129 -393.264374 281.660919
153.315582 -398.3508 281.660919
158.189957 -387.149933 281.660919
162.44133 -390.639343 281.660919
177.64563 -360.592438 275.974701
182.316574 -363.496307 275.974701
218.59285 -289.947754 250.824234
223.342667 -292.720734 250.824234
236.06105 -260.53067 241.38295
240.790115 -263.338867 241.38295
3 0 1 2
3 1 3 2
3 2 3 4
3 3 5 4
3 4 5 6
3 5 7 6
3 6 7 8
3 7 9 8
3 8 9 10
3 9 11 10
3 10 11 12
3 11 13 12
3 12 13 14
3 13 15 14
3 14 15 16
3 15 17 16
3 16 17 18
3 17 19 18
3 18 19 20
3 19 21 20
3 20 21 22
3 21 23 22
3 22 23 24
3 23 25 24
3 24 25 26
3 25 27 26
3 26 27 28
3 27 29 28
3 28 29 30
3 29 31 30
3 30 31 32
3 31 33 32
3 32 33 34
3 33 35 34
3 34 35 36
3 35 37 36
3 36 37 38
3 37 39 38
3 38 39 40
3 39 41 40
3 40 41 42
3 41 43 42
