ply
format ascii 1.0
element vertex 12
property float x
property float y
property float z
element face 20
property list uchar int vertex_indices
end_header
921.236389 -1063.57983 215.176132
928.779175 -1066.91943 215.176132
929.253601 -1067.13086 215.176132
927.307434 -1071.50574 215.176132
919.299866 -1067.95471 215.176132
919.822693 -1066.77466 215.176132
921.236389 -1063.57983 223.176132
928.779175 -1066.91943 223.176132
929.253601 -1067.13086 223.176132
927.307434 -1071.50574 223.176132
919.299866 -1067.95471 223.176132
919.822693 -1066.77466 223.176132
3 7 6 11
3 5 0 1
3 11 10 9
3 3 4 5
3 9 8 7
3 1 2 3
3 7 11 9
3 3 5 1
3 0 1 7
3 0 7 6
3 1 2 8
3 1 8 7
3 2 3 9
3 2 9 8
3 3 4 10
3 3 10 9
3 4 5 11
3 4 11 10
3 5 0 6
3 5 6 11
