ply
format ascii 1.0
element vertex 14
property float x
property float y
property float z
element face 24
property list uchar int vertex_indices
end_header
701.992126 -1010.58063 254.962936
704.325684 -1039.66833 241.416138
703.551025 -1044.47742 241.416138
695.630615 -1049.15283 242.788055
676.797852 -1019.93146 252.581543
693.16156 -1011.23737 252.581543
694.846313 -1014.08716 252.581543
701.992126 -1010.58063 262.962952
704.325684 -1039.66833 249.416138
703.551025 -1044.47742 249.416138
695.630615 -1049.15283 250.788055
676.797852 -1019.93146 260.581543
693.16156 -1011.23737 260.581543
694.846313 -1014.08716 260.581543
3 8 7 13
3 6 0 1
3 13 12 11
3 4 5 6
3 11 10 9
3 2 3 4
3 9 8 13
3 6 1 2
3 13 11 9
3 2 4 6
3 0 1 8
3 0 8 7
3 1 2 9
3 1 9 8
3 2 3 10
3 2 10 9
3 3 4 11
3 3 11 10
3 4 5 12
3 4 12 11
3 5 6 13
3 5 13 12
3 6 0 7
3 6 7 13
