ply
format ascii 1.0
element vertex 14
property float x
property float y
property float z
element face 24
property list uchar int vertex_indices
end_header
1178.02991 -984.075439 250.913345
1178.76587 -977.641174 250.913345
1190.55933 -978.988159 249.177063
1189.82336 -985.411255 249.177063
1188.86487 -993.804749 238.379639
1148.65283 -989.207275 245.850876
1149.60168 -980.82489 245.850876
1178.02991 -984.075439 258.91333
1178.76587 -977.641174 258.91333
1190.55933 -978.988159 257.177063
1189.82336 -985.411255 257.177063
1188.86487 -993.804749 246.379639
1148.65283 -989.207275 253.850876
1149.60168 -980.82489 253.850876
3 7 13 12
3 5 6 0
3 12 11 10
3 3 4 5
3 10 9 8
3 1 2 3
3 7 12 10
3 3 5 0
3 10 8 7
3 0 1 3
3 0 1 8
3 0 8 7
3 1 2 9
3 1 9 8
3 2 3 10
3 2 10 9
3 3 4 11
3 3 11 10
3 4 5 12
3 4 12 11
3 5 6 13
3 5 13 12
3 6 0 7
3 6 7 13
