ply
format ascii 1.0
element vertex 8
property float x
property float y
property float z
element face 12
property list uchar int vertex_indices
end_header
-1890.55676 -230.765305 227.751556
-1874.84192 -231.288513 229.403824
-1875.13232 -240.049347 229.403824
-1890.84729 -239.526154 227.751556
-1890.55676 -230.765305 230.951553
-1874.84192 -231.288513 232.603821
-1875.13232 -240.049347 232.603821
-1890.84729 -239.526154 230.951553
3 5 4 7
3 3 0 1
3 7 6 5
3 1 2 3
3 0 1 5
3 0 5 4
3 1 2 6
3 1 6 5
3 2 3 7
3 2 7 6
3 3 0 4
3 3 4 7
