ply
format ascii 1.0
element vertex 10
property float x
property float y
property float z
element face 16
property list uchar int vertex_indices
end_header
976.078918 1194.1687 238.419662
964.808289 1177.59326 227.210052
952.4823 1160.49451 226.270355
943.196655 1166.59485 226.270355
967.858337 1200.26904 227.210052
976.078918 1194.1687 246.419662
964.808289 1177.59326 235.210052
952.4823 1160.49451 234.270355
943.196655 1166.59485 234.270355
967.858337 1200.26904 235.210052
3 6 5 9
3 4 0 1
3 9 8 7
3 2 3 4
3 7 6 9
3 4 1 2
3 0 1 6
3 0 6 5
3 1 2 7
3 1 7 6
3 2 3 8
3 2 8 7
3 3 4 9
3 3 9 8
3 4 0 5
3 4 5 9
