ply
format ascii 1.0
element vertex 20
property float x
property float y
property float z
element face 18
property list uchar int vertex_indices
end_header
651.878601 -865.16156 269.463806
652.49054 -861.715454 269.463806
629.969971 -861.270752 273.357208
630.517395 -857.813843 273.357208
629.046814 -861.311096 273.357208
627.799927 -858.04071 273.357208
627.788208 -862.137512 273.357208
625.166138 -859.819153 273.357208
627.131958 -863.499878 273.357208
623.750244 -862.597839 273.357208
626.615967 -867.247131 266.551575
623.22052 -866.398071 266.551575
625.354431 -870.228821 266.551575
622.409973 -868.336731 266.551575
622.462952 -873.677429 266.551575
620.363281 -870.877136 266.551575
616.637451 -876.788452 260.192108
615.537842 -873.465637 260.192108
610.591064 -877.672424 260.192108
610.100647 -874.20697 260.192108
3 0 1 2
3 1 3 2
3 2 3 4
3 3 5 4
3 4 5 6
3 5 7 6
3 6 7 8
3 7 9 8
3 8 9 10
3 9 11 10
3 10 11 12
3 11 13 12
3 12 13 14
3 13 15 14
3 14 15 16
3 15 17 16
3 16 17 18
3 17 19 18
