ply
format ascii 1.0
element vertex 38
property float x
property float y
property float z
element face 72
property list uchar int vertex_indices
end_header
-836.997314 58.4316025 242.741028
-836.668091 66.5579224 241.234009
-838.953247 74.3502884 241.234009
-843.610596 80.9960632 241.234009
-850.156067 85.8161926 241.234009
-857.892517 88.2763596 241.234009
-866.016235 88.1316376 243.288345
-873.665527 85.4043121 243.288345
-880.036682 80.3615417 243.288345
-884.558533 73.3150177 243.288345
-886.495056 65.1664276 243.288345
-885.652649 56.8397331 242.698746
-882.099121 49.2477417 242.698746
-876.250793 43.2587547 242.698746
-868.746765 39.5406837 242.698746
-860.439026 38.4942818 242.698746
-852.257202 40.2531281 242.741028
-845.101685 44.6057205 242.741028
-839.911804 50.8507423 242.741028
-836.997314 58.4316025 250.741028
-836.668091 66.5579224 249.234009
-838.953247 74.3502884 249.234009
-843.610596 80.9960632 249.234009
-850.156067 85.8161926 249.234009
-857.892517 88.2763596 249.234009
-866.016235 88.1316376 251.288345
-873.665527 85.4043121 251.288345
-880.036682 80.3615417 251.288345
-884.558533 73.3150177 251.288345
-886.495056 65.1664276 251.288345
-885.652649 56.8397331 250.698746
-882.099121 49.2477417 250.698746
-876.250793 43.2587547 250.698746
-868.746765 39.5406837 250.698746
-860.439026 38.4942818 250.698746
-852.257202 40.2531281 250.741028
-845.101685 44.6057205 250.741028
-839.911804 50.8507423 250.741028
3 36 37 19
3 0 18 17
3 19 20 21
3 2 1 0
3 21 22 23
3 4 3 2
3 23 24 25
3 6 5 4
3 25 26 27
3 8 7 6
3 27 28 29
3 10 9 8
3 29 30 31
3 12 11 10
3 31 32 33
3 14 13 12
3 33 34 35
3 16 15 14
3 35 36 19
3 0 17 16
3 19 21 23
3 4 2 0
3 23 25 27
3 8 6 4
3 27 29 31
3 12 10 8
3 31 33 35
3 16 14 12
3 35 19 23
3 4 0 16
3 23 27 31
3 12 8 4
3 31 35 23
3 4 16 12
3 0 1 20
3 0 20 19
3 1 2 21
3 1 21 20
3 2 3 22
3 2 22 21
3 3 4 23
3 3 23 22
3 4 5 24
3 4 24 23
3 5 6 25
3 5 25 24
3 6 7 26
3 6 26 25
3 7 8 27
3 7 27 26
3 8 9 28
3 8 28 27
3 9 10 29
3 9 29 28
3 10 11 30
3 10 30 29
3 11 12 31
3 11 31 30
3 12 13 32
3 12 32 31
3 13 14 33
3 13 33 32
3 14 15 34
3 14 34 33
3 15 16 35
3 15 35 34
3 16 17 36
3 16 36 35
3 17 18 37
3 17 37 36
3 18 0 19
3 18 19 37
