ply
format ascii 1.0
element vertex 22
property float x
property float y
property float z
element face 20
property list uchar int vertex_indices
end_header
-2565.06396 -950.534302 210.895111
-2563.66162 -951.960327 210.895111
-2535.08936 -921.058289 204.9086
-2533.66187 -922.45929 204.9086
-2487.69043 -871.708008 213.079025
-2486.26758 -873.113647 213.079025
-2472.24854 -857.453186 212.696152
-2470.8606 -858.893005 212.696152
-2469.63647 -854.301941 212.696152
-2468.20532 -855.699036 212.696152
-2394.92432 -778.247559 204.443481
-2393.49487 -779.646484 204.443481
-2388.93628 -771.851685 204.713028
-2387.37939 -773.106995 204.713028
-2374.56519 -752.990601 204.713028
-2373.05127 -754.297607 204.713028
-2356.42578 -734.196228 213.753906
-2354.95825 -735.554993 213.753906
-2336.51074 -711.889526 233.474167
-2335.00024 -713.200378 233.474167
-2309.96753 -680.661072 226.632401
-2308.4436 -681.956299 226.632401
3 0 1 2
3 1 3 2
3 2 3 4
3 3 5 4
3 4 5 6
3 5 7 6
3 6 7 8
3 7 9 8
3 8 9 10
3 9 11 10
3 10 11 12
3 11 13 12
3 12 13 14
3 13 15 14
3 14 15 16
3 15 17 16
3 16 17 18
3 17 19 18
3 18 19 20
3 19 21 20
