ply
format ascii 1.0
element vertex 30
property float x
property float y
property float z
element face 28
property list uchar int vertex_indices
end_header
148.425522 2343.3125 264.401398
151.988388 2345.13062 264.401398
113.525826 2411.69971 252.63443
117.114899 2413.46582 252.63443
108.951027 2423.63086 252.63443
112.820396 2424.64478 252.63443
106.804985 2437.38696 252.63443
110.802895 2437.51636 252.63443
108.011902 2451.92725 246.766022
111.977905 2451.40698 246.766022
110.164833 2462.93823 246.766022
113.969154 2461.70239 246.766022
134.459152 2533.45068 254.461411
138.223648 2532.09839 254.461411
144.599396 2558.7793 0.0299999993
148.223312 2557.08594 0.0299999993
153.665207 2574.4939 0.0299999993
156.915482 2572.16235 0.0299999993
164.514603 2586.56421 0.0299999993
167.387283 2583.78076 0.0299999993
172.545868 2593.94312 0.0299999993
174.751434 2590.6062 0.0299999993
183.552353 2599.15771 0.0299999993
185.066147 2595.45508 0.0299999993
199.161087 2604.85278 0.0299999993
200.24823 2601.00317 0.0299999993
211.193253 2606.96704 0.0299999993
211.899826 2603.03003 0.0299999993
233.400574 2611.00708 0.0299999993
234.116516 2607.07178 0.0299999993
3 0 1 2
3 1 3 2
3 2 3 4
3 3 5 4
3 4 5 6
3 5 7 6
3 6 7 8
3 7 9 8
3 8 9 10
3 9 11 10
3 10 11 12
3 11 13 12
3 12 13 14
3 13 15 14
3 14 15 16
3 15 17 16
3 16 17 18
3 17 19 18
3 18 19 20
3 19 21 20
3 20 21 22
3 21 23 22
3 22 23 24
3 23 25 24
3 24 25 26
3 25 27 26
3 26 27 28
3 27 29 28
