ply
format ascii 1.0
element vertex 14
property float x
property float y
property float z
element face 24
property list uchar int vertex_indices
end_header
-2189.97339 -1031.18579 335.742126
-2186.52637 -1063.17908 336.57193
-2124.68335 -1056.51099 338.343475
-2126.47461 -1039.94666 338.15271
-2177.38599 -1045.43469 336.380951
-2170.73389 -1037.78711 336.380951
-2179.62256 -1030.07263 335.742126
-2189.97339 -1031.18579 343.742126
-2186.52637 -1063.17908 344.57193
-2124.68335 -1056.51099 346.343475
-2126.47461 -1039.94666 346.15271
-2177.38599 -1045.43469 344.380951
-2170.73389 -1037.78711 344.380951
-2179.62256 -1030.07263 343.742126
3 12 13 7
3 0 6 5
3 8 9 10
3 3 2 1
3 11 12 7
3 0 5 4
3 8 10 11
3 4 3 1
3 11 7 8
3 1 0 4
3 0 1 8
3 0 8 7
3 1 2 9
3 1 9 8
3 2 3 10
3 2 10 9
3 3 4 11
3 3 11 10
3 4 5 12
3 4 12 11
3 5 6 13
3 5 13 12
3 6 0 7
3 6 7 13
