ply
format ascii 1.0
element vertex 16
property float x
property float y
property float z
element face 14
property list uchar int vertex_indices
end_header
2790.21387 2026.87427 273.345947
2788.4646 2021.65979 273.345947
2861.1145 2003.0885 267.374268
2859.45337 1997.84534 267.374268
2888.5896 1995.6936 263.88327
2887.40161 1990.32336 263.88327
2917.32227 1990.66064 267.126312
2916.47437 1985.22632 267.126312
2945.5105 1986.81421 272.053162
2944.91016 1981.34717 272.053162
3043.49902 1976.80762 271.114044
3042.91797 1971.3385 271.114044
3056.71997 1974.96973 271.114044
3055.37549 1969.63647 271.114044
3089.17163 1965.32092 275.167969
3087.60376 1960.04919 275.167969
3 0 1 2
3 1 3 2
3 2 3 4
3 3 5 4
3 4 5 6
3 5 7 6
3 6 7 8
3 7 9 8
3 8 9 10
3 9 11 10
3 10 11 12
3 11 13 12
3 12 13 14
3 13 15 14
