ply
format ascii 1.0
element vertex 8
property float x
property float y
property float z
element face 12
property list uchar int vertex_indices
end_header
-329.568359 -547.625122 303.327118
-300.229919 -568.00769 303.48468
-305.061584 -574.965149 303.48468
-334.409698 -554.582581 303.327118
-329.568359 -547.625122 306.52713
-300.229919 -568.00769 306.684692
-305.061584 -574.965149 306.684692
-334.409698 -554.582581 306.52713
3 5 4 7
3 3 0 1
3 7 6 5
3 1 2 3
3 0 1 5
3 0 5 4
3 1 2 6
3 1 6 5
3 2 3 7
3 2 7 6
3 3 0 4
3 3 4 7
