ply
format ascii 1.0
element vertex 10
property float x
property float y
property float z
element face 16
property list uchar int vertex_indices
end_header
1981.90295 -2411.3584 232.977676
1991.17896 -2386.81226 229.749725
1999.41882 -2381.05713 229.749725
2012.52917 -2385.99976 229.749725
2000.31934 -2418.31567 228.9505
1981.90295 -2411.3584 240.977676
1991.17896 -2386.81226 237.749725
1999.41882 -2381.05713 237.749725
2012.52917 -2385.99976 237.749725
2000.31934 -2418.31567 236.9505
3 6 5 9
3 4 0 1
3 9 8 7
3 2 3 4
3 7 6 9
3 4 1 2
3 0 1 6
3 0 6 5
3 1 2 7
3 1 7 6
3 2 3 8
3 2 8 7
3 3 4 9
3 3 9 8
3 4 0 5
3 4 5 9
