ply
format ascii 1.0
element vertex 8
property float x
property float y
property float z
element face 12
property list uchar int vertex_indices
end_header
-1847.57556 -1128.24536 266.821655
-1812.76636 -1124.73877 265.437256
-1810.63623 -1145.95618 249.09964
-1845.43567 -1149.46277 255.089249
-1847.57556 -1128.24536 270.021667
-1812.76636 -1124.73877 268.637268
-1810.63623 -1145.95618 252.299637
-1845.43567 -1149.46277 258.289246
3 5 4 7
3 3 0 1
3 7 6 5
3 1 2 3
3 0 1 5
3 0 5 4
3 1 2 6
3 1 6 5
3 2 3 7
3 2 7 6
3 3 0 4
3 3 4 7
