ply
format ascii 1.0
element vertex 46
property float x
property float y
property float z
element face 44
property list uchar int vertex_indices
end_header
416.072449 976.225952 194.045654
417.177704 974.559082 194.045654
463.600739 1007.74036 196.943298
464.6362 1006.02924 196.943298
480.172699 1014.99866 196.943298
480.888397 1013.1311 196.943298
487.366089 1016.84924 197.324905
487.754242 1014.88727 197.324905
493.28598 1017.60022 197.324905
493.434174 1015.60571 197.324905
498.109741 1017.64551 197.324905
497.983215 1015.64954 197.324905
504.10495 1016.91272 197.324905
503.684631 1014.9574 197.324905
535.340027 1009.51831 199.266953
535.948425 1007.6131 199.266953
562.068542 1035.50354 202.658081
563.268433 1033.90344 202.658081
573.833923 1038.32495 204.070328
574.199158 1036.35864 204.070328
583.456604 1039.57507 204.070328
583.593201 1037.57983 204.070328
595.001831 1039.77771 204.434769
594.976501 1037.77795 204.434769
612.471741 1039.20984 204.434769
612.519104 1037.21033 204.434769
634.555054 1040.70886 205.120956
634.37561 1038.71692 205.120956
667.013 1034.29932 206.158234
666.69458 1032.32483 206.158234
678.052307 1033.68835 206.673126
678.002808 1031.68896 206.673126
693.178955 1033.63391 206.673126
693.589539 1031.67651 206.673126
718.00769 1042.08948 208.486359
718.181091 1040.09705 208.486359
740.588684 1037.70544 211.378418
740.062805 1035.77588 211.378418
757.195129 1031.474 213.269745
756.687256 1029.53955 213.269745
773.579773 1029.01318 213.269745
773.552795 1027.01331 213.269745
788.53717 1031.06055 214.279236
788.108093 1029.10706 214.279236
814.29718 1020.07178 210.533325
813.51123 1018.23267 210.533325
3 0 1 2
3 1 3 2
3 2 3 4
3 3 5 4
3 4 5 6
3 5 7 6
3 6 7 8
3 7 9 8
3 8 9 10
3 9 11 10
3 10 11 12
3 11 13 12
3 12 13 14
3 13 15 14
3 14 15 16
3 15 17 16
3 16 17 18
3 17 19 18
3 18 19 20
3 19 21 20
3 20 21 22
3 21 23 22
3 22 23 24
3 23 25 24
3 24 25 26
3 25 27 26
3 26 27 28
3 27 29 28
3 28 29 30
3 29 31 30
3 30 31 32
3 31 33 32
3 32 33 34
3 33 35 34
3 34 35 36
3 35 37 36
3 36 37 38
3 37 39 38
3 38 39 40
3 39 41 40
3 40 41 42
3 41 43 42
3 42 43 44
3 43 45 44
