ply
format ascii 1.0
element vertex 132
property float x
property float y
property float z
element face 260
property list uchar int vertex_indices
end_header
-3431.01807 -59.2442322 207.351669
-3437.44727 -64.3760605 206.297333
-3436.18848 -65.9456635 206.297333
-3436.92456 -66.5245285 206.297333
-3434.96851 -68.9735565 206.297333
-3434.36816 -68.4948807 206.297333
-3432.82861 -70.4207077 206.297333
-3440.55542 -76.6212082 206.297333
-3438.41553 -79.2928696 206.297333
-3434.66846 -76.2872467 206.297333
-3432.29614 -79.2483444 206.297333
-3430.14648 -77.5228958 206.297333
-3427.58081 -80.7288971 206.297333
-3429.64307 -82.3764267 206.297333
-3430.57275 -81.2187042 206.297333
-3436.27563 -85.7939301 206.297333
-3432.60596 -90.3691635 206.297333
-3429.34302 -87.7531509 206.297333
-3426.69946 -91.0482101 206.297333
-3428.24878 -92.2949905 206.297333
-3423.5625 -98.1281281 205.504669
-3423.41724 -102.057709 205.504669
-3417.68506 -101.846199 205.504669
-3418.1499 -89.6455841 206.297333
-3415.78711 -89.5899277 206.297333
-3415.32251 -101.790543 205.504669
-3409.59033 -101.567902 206.592941
-3409.74536 -97.6494598 206.592941
-3405.51392 -91.4712219 205.787659
-3407.15039 -90.3469009 205.787659
-3404.75879 -86.8626022 205.787659
-3401.32129 -89.2225723 205.787659
-3398.00024 -84.3801727 205.787659
-3404.03247 -80.2502213 205.787659
-3404.875 -81.4747391 205.787659
-3407.05347 -79.9830551 205.787659
-3404.73926 -76.598938 205.787659
-3402.46387 -78.146286 205.787659
-3400.32397 -75.029335 205.787659
-3396.36377 -77.7343979 205.787659
-3394.42725 -74.9068832 205.787659
-3402.59937 -69.3186493 205.787659
-3401.20508 -67.2703705 205.787659
-3400.57568 -67.7045135 205.787659
-3398.81348 -65.1219025 205.787659
-3399.58813 -64.5987015 205.787659
-3398.45532 -62.9400406 205.787659
-3405.25244 -58.2980156 208.21521
-3406.32739 -59.8787537 208.21521
-3409.0481 -58.0308495 208.21521
-3410.2876 -59.8342247 208.21521
-3412.60156 -58.2646217 208.21521
-3415.43872 -62.4279709 206.297333
-3413.95728 -63.440979 205.787659
-3416.27124 -66.8362198 206.297333
-3413.76367 -68.5394135 205.787659
-3415.70972 -71.3891907 206.297333
-3419.60229 -71.5005112 206.297333
-3421.75171 -68.8065796 206.297333
-3419.38916 -66.9141464 206.297333
-3421.95508 -63.6970139 206.297333
-3420.55103 -62.5838165 206.297333
-3423.698 -58.6431084 207.351669
-3425.88623 -60.3908234 207.351669
-3427.25146 -58.6765022 207.351669
-3429.82715 -60.7359123 207.351669
-3431.01807 -59.2442322 215.351669
-3437.44727 -64.3760605 214.297333
-3436.18848 -65.9456635 214.297333
-3436.92456 -66.5245285 214.297333
-3434.96851 -68.9735565 214.297333
-3434.36816 -68.4948807 214.297333
-3432.82861 -70.4207077 214.297333
-3440.55542 -76.6212082 214.297333
-3438.41553 -79.2928696 214.297333
-3434.66846 -76.2872467 214.297333
-3432.29614 -79.2483444 214.297333
-3430.14648 -77.5228958 214.297333
-3427.58081 -80.7288971 214.297333
-3429.64307 -82.3764267 214.297333
-3430.57275 -81.2187042 214.297333
-3436.27563 -85.7939301 214.297333
-3432.60596 -90.3691635 214.297333
-3429.34302 -87.7531509 214.297333
-3426.69946 -91.0482101 214.297333
-3428.24878 -92.2949905 214.297333
-3423.5625 -98.1281281 213.504669
-3423.41724 -102.057709 213.504669
-3417.68506 -101.846199 213.504669
-3418.1499 -89.6455841 214.297333
-3415.78711 -89.5899277 214.297333
-3415.32251 -101.790543 213.504669
-3409.59033 -101.567902 214.592941
-3409.74536 -97.6494598 214.592941
-3405.51392 -91.4712219 213.787659
-3407.15039 -90.3469009 213.787659
-3404.75879 -86.8626022 213.787659
-3401.32129 -89.2225723 213.787659
-3398.00024 -84.3801727 213.787659
-3404.03247 -80.2502213 213.787659
-3404.875 -81.4747391 213.787659
-3407.05347 -79.9830551 213.787659
-3404.73926 -76.598938 213.787659
-3402.46387 -78.146286 213.787659
-3400.32397 -75.029335 213.787659
-3396.36377 -77.7343979 213.787659
-3394.42725 -74.9068832 213.787659
-3402.59937 -69.3186493 213.787659
-3401.20508 -67.2703705 213.787659
-3400.57568 -67.7045135 213.787659
-3398.81348 -65.1219025 213.787659
-3399.58813 -64.5987015 213.787659
-3398.45532 -62.9400406 213.787659
-3405.25244 -58.2980156 216.21521
-3406.32739 -59.8787537 216.21521
-3409.0481 -58.0308495 216.21521
-3410.2876 -59.8342247 216.21521
-3412.60156 -58.2646217 216.21521
-3415.43872 -62.4279709 214.297333
-3413.95728 -63.440979 213.787659
-3416.27124 -66.8362198 214.297333
-3413.76367 -68.5394135 213.787659
-3415.70972 -71.3891907 214.297333
-3419.60229 -71.5005112 214.297333
-3421.75171 -68.8065796 214.297333
-3419.38916 -66.9141464 214.297333
-3421.95508 -63.6970139 214.297333
-3420.55103 -62.5838165 214.297333
-3423.698 -58.6431084 215.351669
-3425.88623 -60.3908234 215.351669
-3427.25146 -58.6765022 215.351669
-3429.82715 -60.7359123 215.351669
3 131 66 67
3 1 0 65
3 68 69 70
3 4 3 2
3 72 73 74
3 8 7 6
3 75 76 77
3 11 10 9
3 79 80 81
3 15 14 13
3 81 82 83
3 17 16 15
3 84 85 86
3 20 19 18
3 86 87 88
3 22 21 20
3 90 91 92
3 26 25 24
3 93 94 95
3 29 28 27
3 96 97 98
3 32 31 30
3 98 99 100
3 34 33 32
3 102 103 104
3 38 37 36
3 104 105 106
3 40 39 38
3 108 109 110
3 44 43 42
3 111 112 113
3 47 46 45
3 114 115 116
3 50 49 48
3 116 117 118
3 52 51 50
3 119 120 121
3 55 54 53
3 124 125 126
3 60 59 58
3 126 127 128
3 62 61 60
3 129 130 131
3 65 64 63
3 131 67 68
3 2 1 65
3 68 70 71
3 5 4 2
3 72 74 75
3 9 8 6
3 79 81 83
3 17 15 13
3 84 86 88
3 22 20 18
3 90 92 93
3 27 26 24
3 96 98 100
3 34 32 30
3 104 106 107
3 41 40 38
3 108 110 111
3 45 44 42
3 111 113 114
3 48 47 45
3 114 116 118
3 52 50 48
3 124 126 128
3 62 60 58
3 129 131 68
3 2 65 63
3 68 71 72
3 6 5 2
3 72 75 77
3 11 9 6
3 78 79 83
3 17 13 12
3 83 84 88
3 22 18 17
3 90 93 95
3 29 27 24
3 95 96 100
3 34 30 29
3 102 104 107
3 41 38 36
3 107 108 111
3 45 42 41
3 111 114 118
3 52 48 45
3 124 128 129
3 63 62 58
3 129 68 72
3 6 2 63
3 72 77 78
3 12 11 6
3 78 83 88
3 22 17 12
3 90 95 100
3 34 29 24
3 101 102 107
3 41 36 35
3 107 111 118
3 52 45 41
3 124 129 72
3 6 63 58
3 78 88 89
3 23 22 12
3 89 90 100
3 34 24 23
3 107 118 119
3 53 52 41
3 123 124 72
3 6 58 57
3 72 78 89
3 23 12 6
3 89 100 101
3 35 34 23
3 101 107 119
3 53 41 35
3 123 72 89
3 23 6 57
3 101 119 121
3 55 53 35
3 122 123 89
3 23 57 56
3 89 101 121
3 55 35 23
3 121 122 89
3 23 56 55
3 0 1 67
3 0 67 66
3 1 2 68
3 1 68 67
3 2 3 69
3 2 69 68
3 3 4 70
3 3 70 69
3 4 5 71
3 4 71 70
3 5 6 72
3 5 72 71
3 6 7 73
3 6 73 72
3 7 8 74
3 7 74 73
3 8 9 75
3 8 75 74
3 9 10 76
3 9 76 75
3 10 11 77
3 10 77 76
3 11 12 78
3 11 78 77
3 12 13 79
3 12 79 78
3 13 14 80
3 13 80 79
3 14 15 81
3 14 81 80
3 15 16 82
3 15 82 81
3 16 17 83
3 16 83 82
3 17 18 84
3 17 84 83
3 18 19 85
3 18 85 84
3 19 20 86
3 19 86 85
3 20 21 87
3 20 87 86
3 21 22 88
3 21 88 87
3 22 23 89
3 22 89 88
3 23 24 90
3 23 90 89
3 24 25 91
3 24 91 90
3 25 26 92
3 25 92 91
3 26 27 93
3 26 93 92
3 27 28 94
3 27 94 93
3 28 29 95
3 28 95 94
3 29 30 96
3 29 96 95
3 30 31 97
3 30 97 96
3 31 32 98
3 31 98 97
3 32 33 99
3 32 99 98
3 33 34 100
3 33 100 99
3 34 35 101
3 34 101 100
3 35 36 102
3 35 102 101
3 36 37 103
3 36 103 102
3 37 38 104
3 37 104 103
3 38 39 105
3 38 105 104
3 39 40 106
3 39 106 105
3 40 41 107
3 40 107 106
3 41 42 108
3 41 108 107
3 42 43 109
3 42 109 108
3 43 44 110
3 43 110 109
3 44 45 111
3 44 111 110
3 45 46 112
3 45 112 111
3 46 47 113
3 46 113 112
3 47 48 114
3 47 114 113
3 48 49 115
3 48 115 114
3 49 50 116
3 49 116 115
3 50 51 117
3 50 117 116
3 51 52 118
3 51 118 117
3 52 53 119
3 52 119 118
3 53 54 120
3 53 120 119
3 54 55 121
3 54 121 120
3 55 56 122
3 55 122 121
3 56 57 123
3 56 123 122
3 57 58 124
3 57 124 123
3 58 59 125
3 58 125 124
3 59 60 126
3 59 126 125
3 60 61 127
3 60 127 126
3 61 62 128
3 61 128 127
3 62 63 129
3 62 129 128
3 63 64 130
3 63 130 129
3 64 65 131
3 64 131 130
3 65 0 66
3 65 66 131
