ply
format ascii 1.0
element vertex 14
property float x
property float y
property float z
element face 24
property list uchar int vertex_indices
end_header
-1259.85803 1261.09399 283.506561
-1261.02966 1238.10657 283.506561
-1238.62402 1237.21594 283.506561
-1239.2146 1246.35522 283.506561
-1244.52075 1246.94531 283.506561
-1244.52075 1262.57458 283.506561
-1258.96716 1264.63391 283.506561
-1259.85803 1261.09399 291.506561
-1261.02966 1238.10657 291.506561
-1238.62402 1237.21594 291.506561
-1239.2146 1246.35522 291.506561
-1244.52075 1246.94531 291.506561
-1244.52075 1262.57458 291.506561
-1258.96716 1264.63391 291.506561
3 12 13 7
3 0 6 5
3 7 8 9
3 2 1 0
3 9 10 11
3 4 3 2
3 11 12 7
3 0 5 4
3 7 9 11
3 4 2 0
3 0 1 8
3 0 8 7
3 1 2 9
3 1 9 8
3 2 3 10
3 2 10 9
3 3 4 11
3 3 11 10
3 4 5 12
3 4 12 11
3 5 6 13
3 5 13 12
3 6 0 7
3 6 7 13
