ply
format ascii 1.0
element vertex 116
property float x
property float y
property float z
element face 228
property list uchar int vertex_indices
end_header
-3389.09229 38.3940926 220.687378
-3390.44775 37.1584473 220.687378
-3387.99805 34.4645157 219.370911
-3384.16357 37.9599457 219.370911
-3382.37231 35.9895897 219.370911
-3377.13403 40.7651978 219.370911
-3379.76782 43.6595039 219.370911
-3379.09009 44.2828941 219.370911
-3380.69727 46.0528717 219.370911
-3379.90332 46.7764511 219.370911
-3376.99854 43.5815811 219.370911
-3375.10083 45.3070335 219.370911
-3372.6123 42.5797043 219.370911
-3369.83325 45.1066589 219.370911
-3371.71191 47.166069 219.370911
-3370.18188 48.5464287 219.370911
-3372.80591 51.4184723 219.370911
-3374.8103 49.5928345 219.370911
-3376.56274 51.5186615 219.370911
-3374.80054 53.1105309 219.370911
-3380.43579 59.2998924 219.370911
-3383.302 56.6838837 219.370911
-3385.17065 58.7432938 219.370911
-3382.30469 61.3593025 219.370911
-3384.36694 63.6302223 222.161957
-3388.28857 60.067997 219.370911
-3386.91357 58.5540504 219.370911
-3388.51123 57.095768 220.687378
-3393.48804 57.1736908 220.687378
-3395.04688 58.6876373 220.687378
-3393.68164 60.1347885 220.687378
-3397.40967 63.8417282 222.395142
-3399.55908 61.6376038 220.687378
-3396.78027 58.9325371 220.687378
-3398.7168 56.9399185 220.687378
-3401.49561 59.6449814 220.687378
-3407.33423 53.6559944 220.687378
-3405.63013 52.0084648 220.687378
-3407.44067 50.1494293 220.687378
-3409.38696 52.0418625 220.687378
-3412.09814 49.2477417 220.687378
-3410.62646 47.8117218 220.687378
-3412.57251 45.8191032 220.687378
-3409.88086 43.2030945 220.687378
-3407.30518 45.8413658 220.687378
-3405.46558 44.0491219 220.687378
-3402.44458 47.1438026 220.687378
-3401.67969 46.3979645 220.687378
-3403.34497 44.6836433 220.687378
-3402.68652 44.0379906 220.687378
-3405.42676 41.2327385 220.687378
-3400.35303 36.2901535 220.687378
-3398.4939 38.193718 220.687378
-3394.77588 34.5758324 220.687378
-3392.23901 37.1807098 220.687378
-3393.55591 38.4608841 220.687378
-3392.0647 39.9859619 220.687378
-3390.52515 39.9748306 220.687378
-3389.09229 38.3940926 228.687378
-3390.44775 37.1584473 228.687378
-3387.99805 34.4645157 227.370911
-3384.16357 37.9599457 227.370911
-3382.37231 35.9895897 227.370911
-3377.13403 40.7651978 227.370911
-3379.76782 43.6595039 227.370911
-3379.09009 44.2828941 227.370911
-3380.69727 46.0528717 227.370911
-3379.90332 46.7764511 227.370911
-3376.99854 43.5815811 227.370911
-3375.10083 45.3070335 227.370911
-3372.6123 42.5797043 227.370911
-3369.83325 45.1066589 227.370911
-3371.71191 47.166069 227.370911
-3370.18188 48.5464287 227.370911
-3372.80591 51.4184723 227.370911
-3374.8103 49.5928345 227.370911
-3376.56274 51.5186615 227.370911
-3374.80054 53.1105309 227.370911
-3380.43579 59.2998924 227.370911
-3383.302 56.6838837 227.370911
-3385.17065 58.7432938 227.370911
-3382.30469 61.3593025 227.370911
-3384.36694 63.6302223 230.161957
-3388.28857 60.067997 227.370911
-3386.91357 58.5540504 227.370911
-3388.51123 57.095768 228.687378
-3393.48804 57.1736908 228.687378
-3395.04688 58.6876373 228.687378
-3393.68164 60.1347885 228.687378
-3397.40967 63.8417282 230.395142
-3399.55908 61.6376038 228.687378
-3396.78027 58.9325371 228.687378
-3398.7168 56.9399185 228.687378
-3401.49561 59.6449814 228.687378
-3407.33423 53.6559944 228.687378
-3405.63013 52.0084648 228.687378
-3407.44067 50.1494293 228.687378
-3409.38696 52.0418625 228.687378
-3412.09814 49.2477417 228.687378
-3410.62646 47.8117218 228.687378
-3412.57251 45.8191032 228.687378
-3409.88086 43.2030945 228.687378
-3407.30518 45.8413658 228.687378
-3405.46558 44.0491219 228.687378
-3402.44458 47.1438026 228.687378
-3401.67969 46.3979645 228.687378
-3403.34497 44.6836433 228.687378
-3402.68652 44.0379906 228.687378
-3405.42676 41.2327385 228.687378
-3400.35303 36.2901535 228.687378
-3398.4939 38.193718 228.687378
-3394.77588 34.5758324 228.687378
-3392.23901 37.1807098 228.687378
-3393.55591 38.4608841 228.687378
-3392.0647 39.9859619 228.687378
-3390.52515 39.9748306 228.687378
3 58 59 60
3 2 1 0
3 61 62 63
3 5 4 3
3 64 65 66
3 8 7 6
3 67 68 69
3 11 10 9
3 69 70 71
3 13 12 11
3 72 73 74
3 16 15 14
3 76 77 78
3 20 19 18
3 80 81 82
3 24 23 22
3 82 83 84
3 26 25 24
3 87 88 89
3 31 30 29
3 89 90 91
3 33 32 31
3 92 93 94
3 36 35 34
3 96 97 98
3 40 39 38
3 99 100 101
3 43 42 41
3 102 103 104
3 46 45 44
3 105 106 107
3 49 48 47
3 107 108 109
3 51 50 49
3 110 111 112
3 54 53 52
3 58 60 61
3 3 2 0
3 61 63 64
3 6 5 3
3 67 69 71
3 13 11 9
3 72 74 75
3 17 16 14
3 76 78 79
3 21 20 18
3 80 82 84
3 26 24 22
3 87 89 91
3 33 31 29
3 92 94 95
3 37 36 34
3 96 98 99
3 41 40 38
3 99 101 102
3 44 43 41
3 105 107 109
3 51 49 47
3 110 112 113
3 55 54 52
3 115 58 61
3 3 0 57
3 61 64 66
3 8 6 3
3 67 71 72
3 14 13 9
3 75 76 79
3 21 18 17
3 79 80 84
3 26 22 21
3 86 87 91
3 33 29 28
3 92 95 96
3 38 37 34
3 96 99 102
3 44 41 38
3 105 109 110
3 52 51 47
3 110 113 114
3 56 55 52
3 115 61 66
3 8 3 57
3 67 72 75
3 17 14 9
3 75 79 84
3 26 21 17
3 86 91 92
3 34 33 28
3 92 96 102
3 44 38 34
3 105 110 114
3 56 52 47
3 114 115 66
3 8 57 56
3 67 75 84
3 26 17 9
3 85 86 92
3 34 28 27
3 92 102 104
3 46 44 34
3 104 105 114
3 56 47 46
3 114 66 67
3 9 8 56
3 67 84 85
3 27 26 9
3 85 92 104
3 46 34 27
3 104 114 67
3 9 56 46
3 67 85 104
3 46 27 9
3 0 1 59
3 0 59 58
3 1 2 60
3 1 60 59
3 2 3 61
3 2 61 60
3 3 4 62
3 3 62 61
3 4 5 63
3 4 63 62
3 5 6 64
3 5 64 63
3 6 7 65
3 6 65 64
3 7 8 66
3 7 66 65
3 8 9 67
3 8 67 66
3 9 10 68
3 9 68 67
3 10 11 69
3 10 69 68
3 11 12 70
3 11 70 69
3 12 13 71
3 12 71 70
3 13 14 72
3 13 72 71
3 14 15 73
3 14 73 72
3 15 16 74
3 15 74 73
3 16 17 75
3 16 75 74
3 17 18 76
3 17 76 75
3 18 19 77
3 18 77 76
3 19 20 78
3 19 78 77
3 20 21 79
3 20 79 78
3 21 22 80
3 21 80 79
3 22 23 81
3 22 81 80
3 23 24 82
3 23 82 81
3 24 25 83
3 24 83 82
3 25 26 84
3 25 84 83
3 26 27 85
3 26 85 84
3 27 28 86
3 27 86 85
3 28 29 87
3 28 87 86
3 29 30 88
3 29 88 87
3 30 31 89
3 30 89 88
3 31 32 90
3 31 90 89
3 32 33 91
3 32 91 90
3 33 34 92
3 33 92 91
3 34 35 93
3 34 93 92
3 35 36 94
3 35 94 93
3 36 37 95
3 36 95 94
3 37 38 96
3 37 96 95
3 38 39 97
3 38 97 96
3 39 40 98
3 39 98 97
3 40 41 99
3 40 99 98
3 41 42 100
3 41 100 99
3 42 43 101
3 42 101 100
3 43 44 102
3 43 102 101
3 44 45 103
3 44 103 102
3 45 46 104
3 45 104 103
3 46 47 105
3 46 105 104
3 47 48 106
3 47 106 105
3 48 49 107
3 48 107 106
3 49 50 108
3 49 108 107
3 50 51 109
3 50 109 108
3 51 52 110
3 51 110 109
3 52 53 111
3 52 111 110
3 53 54 112
3 53 112 111
3 54 55 113
3 54 113 112
3 55 56 114
3 55 114 113
3 56 57 115
3 56 115 114
3 57 0 58
3 57 58 115
