ply
format ascii 1.0
element vertex 24
property float x
property float y
property float z
element face 44
property list uchar int vertex_indices
end_header
-543.041748 -179.914566 226.689819
-542.848083 -191.803482 227.884537
-550.50708 -191.925934 227.884537
-550.410278 -198.26001 227.884537
-562.416748 -198.460388 227.884537
-562.523254 -192.126312 227.884537
-571.48938 -192.28215 224.358704
-571.692688 -180.382095 223.011429
-562.726562 -180.237381 226.689819
-562.833069 -173.725204 226.689819
-550.816895 -173.524826 226.689819
-550.710388 -180.037018 226.689819
-543.041748 -179.914566 234.689819
-542.848083 -191.803482 235.884537
-550.50708 -191.925934 235.884537
-550.410278 -198.26001 235.884537
-562.416748 -198.460388 235.884537
-562.523254 -192.126312 235.884537
-571.48938 -192.28215 232.358704
-571.692688 -180.382095 231.011429
-562.726562 -180.237381 234.689819
-562.833069 -173.725204 234.689819
-550.816895 -173.524826 234.689819
-550.710388 -180.037018 234.689819
3 13 12 23
3 11 0 1
3 23 22 21
3 9 10 11
3 20 19 18
3 6 7 8
3 17 16 15
3 3 4 5
3 14 13 23
3 11 1 2
3 23 21 20
3 8 9 11
3 20 18 17
3 5 6 8
3 17 15 14
3 2 3 5
3 14 23 20
3 8 11 2
3 20 17 14
3 2 5 8
3 0 1 13
3 0 13 12
3 1 2 14
3 1 14 13
3 2 3 15
3 2 15 14
3 3 4 16
3 3 16 15
3 4 5 17
3 4 17 16
3 5 6 18
3 5 18 17
3 6 7 19
3 6 19 18
3 7 8 20
3 7 20 19
3 8 9 21
3 8 21 20
3 9 10 22
3 9 22 21
3 10 11 23
3 10 23 22
3 11 0 12
3 11 12 23
