ply
format ascii 1.0
element vertex 14
property float x
property float y
property float z
element face 24
property list uchar int vertex_indices
end_header
-1054.42126 253.596939 230.219177
-1029.74988 226.067627 223.209915
-989.48938 258.138763 219.14006
-984.425354 252.94014 219.14006
-1029.61426 213.21022 215.643097
-1036.01453 220.445984 223.209915
-1060.68591 247.975296 230.219177
-1054.42126 253.596939 233.419174
-1029.74988 226.067627 226.409912
-989.48938 258.138763 222.340057
-984.425354 252.94014 222.340057
-1029.61426 213.21022 218.843094
-1036.01453 220.445984 226.409912
-1060.68591 247.975296 233.419174
3 8 7 13
3 6 0 1
3 12 11 10
3 3 4 5
3 10 9 8
3 1 2 3
3 8 13 12
3 5 6 1
3 12 10 8
3 1 3 5
3 0 1 8
3 0 8 7
3 1 2 9
3 1 9 8
3 2 3 10
3 2 10 9
3 3 4 11
3 3 11 10
3 4 5 12
3 4 12 11
3 5 6 13
3 5 13 12
3 6 0 7
3 6 7 13
