ply
format ascii 1.0
element vertex 8
property float x
property float y
property float z
element face 12
property list uchar int vertex_indices
end_header
1353.10193 29.9004154 263.199982
1379.7196 34.7094154 263.781189
1381.48181 24.9578304 264.824432
1354.86414 20.1488285 263.199982
1353.10193 29.9004154 271.199982
1379.7196 34.7094154 271.781189
1381.48181 24.9578304 272.824432
1354.86414 20.1488285 271.199982
3 5 4 7
3 3 0 1
3 7 6 5
3 1 2 3
3 0 1 5
3 0 5 4
3 1 2 6
3 1 6 5
3 2 3 7
3 2 7 6
3 3 0 4
3 3 4 7
