ply
format ascii 1.0
element vertex 16
property float x
property float y
property float z
element face 14
property list uchar int vertex_indices
end_header
-1683.8374 1898.01575 324.534943
-1683.88513 1894.01599 324.534943
-1639.03088 1897.48035 322.421539
-1639.16589 1893.48267 322.421539
-1612.11975 1895.5813 326.897461
-1612.6676 1891.61902 326.897461
-1584.84106 1889.97729 317.166473
-1585.95581 1886.13574 317.166473
-1511.12927 1866.29736 320.884674
-1512.25891 1862.46021 320.884674
-1481.97729 1859.68176 314.930573
-1482.65662 1855.73987 314.930573
-1428.19067 1852.01782 306.069916
-1428.927 1848.08618 306.069916
-1311.78552 1827.8092 305.489166
-1312.59998 1823.89307 305.489166
3 0 1 2
3 1 3 2
3 2 3 4
3 3 5 4
3 4 5 6
3 5 7 6
3 6 7 8
3 7 9 8
3 8 9 10
3 9 11 10
3 10 11 12
3 11 13 12
3 12 13 14
3 13 15 14
