ply
format ascii 1.0
element vertex 10
property float x
property float y
property float z
element face 16
property list uchar int vertex_indices
end_header
-1639.93115 34.2752724 254.530457
-1657.20496 20.8946686 250.733292
-1653.177 -1.31357002 235.861313
-1614.74646 4.40825176 246.793488
-1619.81055 29.0766506 246.793488
-1639.93115 34.2752724 267.330444
-1657.20496 20.8946686 263.533295
-1653.177 -1.31357002 248.661316
-1614.74646 4.40825176 259.593475
-1619.81055 29.0766506 259.593475
3 8 9 5
3 0 4 3
3 5 6 7
3 2 1 0
3 7 8 5
3 0 3 2
3 0 1 6
3 0 6 5
3 1 2 7
3 1 7 6
3 2 3 8
3 2 8 7
3 3 4 9
3 3 9 8
3 4 0 5
3 4 5 9
