ply
format ascii 1.0
element vertex 8
property float x
property float y
property float z
element face 12
property list uchar int vertex_indices
end_header
557.856201 -1190.06104 232.087692
578.112305 -1200.44714 227.876038
573.416199 -1209.59753 214.5065
553.160095 -1199.21143 232.087692
557.856201 -1190.06104 240.087692
578.112305 -1200.44714 235.876038
573.416199 -1209.59753 222.5065
553.160095 -1199.21143 240.087692
3 5 4 7
3 3 0 1
3 7 6 5
3 1 2 3
3 0 1 5
3 0 5 4
3 1 2 6
3 1 6 5
3 2 3 7
3 2 7 6
3 3 0 4
3 3 4 7
