ply
format ascii 1.0
element vertex 26
property float x
property float y
property float z
element face 48
property list uchar int vertex_indices
end_header
-987.669067 -411.303253 258.687927
-980.997681 -412.060242 258.687927
-980.668518 -406.850464 258.687927
-987.707764 -406.416321 258.687927
-987.155884 -397.488495 251.180054
-976.601807 -398.145294 251.180054
-976.834167 -401.930145 251.180054
-966.628662 -402.564667 261.191101
-967.316101 -413.629822 261.191101
-967.074036 -413.663239 261.191101
-967.606567 -418.305237 261.191101
-968.187561 -423.359161 258.687927
-988.782532 -420.999176 258.687927
-987.669067 -411.303253 266.687927
-980.997681 -412.060242 266.687927
-980.668518 -406.850464 266.687927
-987.707764 -406.416321 266.687927
-987.155884 -397.488495 259.180054
-976.601807 -398.145294 259.180054
-976.834167 -401.930145 259.180054
-966.628662 -402.564667 269.191101
-967.316101 -413.629822 269.191101
-967.074036 -413.663239 269.191101
-967.606567 -418.305237 269.191101
-968.187561 -423.359161 266.687927
-988.782532 -420.999176 266.687927
3 14 13 25
3 12 0 1
3 25 24 23
3 10 11 12
3 23 22 21
3 8 9 10
3 21 20 19
3 6 7 8
3 19 18 17
3 4 5 6
3 17 16 15
3 2 3 4
3 14 25 23
3 10 12 1
3 23 21 19
3 6 8 10
3 19 17 15
3 2 4 6
3 15 14 23
3 10 1 2
3 23 19 15
3 2 6 10
3 0 1 14
3 0 14 13
3 1 2 15
3 1 15 14
3 2 3 16
3 2 16 15
3 3 4 17
3 3 17 16
3 4 5 18
3 4 18 17
3 5 6 19
3 5 19 18
3 6 7 20
3 6 20 19
3 7 8 21
3 7 21 20
3 8 9 22
3 8 22 21
3 9 10 23
3 9 23 22
3 10 11 24
3 10 24 23
3 11 12 25
3 11 25 24
3 12 0 13
3 12 13 25
