ply
format ascii 1.0
element vertex 8
property float x
property float y
property float z
element face 12
property list uchar int vertex_indices
end_header
-1245.44055 -29.488533 249.740067
-1203.49536 -39.8746414 249.439926
-1206.05151 -50.2050896 249.439926
-1247.99683 -39.8189812 254.327759
-1245.44055 -29.488533 252.940063
-1203.49536 -39.8746414 252.639923
-1206.05151 -50.2050896 252.639923
-1247.99683 -39.8189812 257.527771
3 5 4 7
3 3 0 1
3 7 6 5
3 1 2 3
3 0 1 5
3 0 5 4
3 1 2 6
3 1 6 5
3 2 3 7
3 2 7 6
3 3 0 4
3 3 4 7
