ply
format ascii 1.0
element vertex 22
property float x
property float y
property float z
element face 20
property list uchar int vertex_indices
end_header
1000.76642 1724.33777 222.75148
1001.17957 1727.81323 222.75148
977.09729 1727.15137 232.794067
977.461853 1730.63232 232.794067
964.589233 1728.13293 228.609192
964.659485 1731.63232 228.609192
951.967896 1727.66455 228.609192
951.583008 1731.14331 228.609192
939.903564 1725.40454 224.340363
939.034058 1728.7948 224.340363
928.708435 1721.70007 224.340363
927.358826 1724.92944 224.340363
919.696716 1716.97656 224.340363
917.741089 1719.87915 224.340363
913.162659 1711.26624 237.9991
910.487 1713.52246 237.9991
908.930054 1704.20117 237.9991
905.753479 1705.67065 237.9991
907.39917 1698.79553 245.119736
903.953552 1699.41003 245.119736
906.721558 1691.52502 245.119736
903.236877 1691.85278 245.119736
3 0 1 2
3 1 3 2
3 2 3 4
3 3 5 4
3 4 5 6
3 5 7 6
3 6 7 8
3 7 9 8
3 8 9 10
3 9 11 10
3 10 11 12
3 11 13 12
3 12 13 14
3 13 15 14
3 14 15 16
3 15 17 16
3 16 17 18
3 17 19 18
3 18 19 20
3 19 21 20
