ply
format ascii 1.0
element vertex 10
property float x
property float y
property float z
element face 16
property list uchar int vertex_indices
end_header
2272.06299 -302.054321 227.953476
2278.12427 -304.970886 227.953476
2273.31201 -314.967377 221.049255
2267.93799 -312.384766 221.049255
2267.26025 -312.050812 221.049255
2272.06299 -302.054321 235.953476
2278.12427 -304.970886 235.953476
2273.31201 -314.967377 229.049255
2267.93799 -312.384766 229.049255
2267.26025 -312.050812 229.049255
3 6 5 9
3 4 0 1
3 9 8 7
3 2 3 4
3 7 6 9
3 4 1 2
3 0 1 6
3 0 6 5
3 1 2 7
3 1 7 6
3 2 3 8
3 2 8 7
3 3 4 9
3 3 9 8
3 4 0 5
3 4 5 9
