ply
format ascii 1.0
element vertex 8
property float x
property float y
property float z
element face 12
property list uchar int vertex_indices
end_header
-948.202576 -771.633301 273.851715
-924.828674 -762.148865 280.380829
-920.374634 -773.113892 282.899963
-943.748535 -782.598267 283.059753
-948.202576 -771.633301 277.051727
-924.828674 -762.148865 283.580841
-920.374634 -773.113892 286.099976
-943.748535 -782.598267 286.259766
3 5 4 7
3 3 0 1
3 7 6 5
3 1 2 3
3 0 1 5
3 0 5 4
3 1 2 6
3 1 6 5
3 2 3 7
3 2 7 6
3 3 0 4
3 3 4 7
