ply
format ascii 1.0
element vertex 8
property float x
property float y
property float z
element face 12
property list uchar int vertex_indices
end_header
-707.94696 411.269867 239.401993
-656.832275 443.830811 229.528931
-645.348633 425.808197 225.665695
-696.463318 393.247223 228.324539
-707.94696 411.269867 247.401993
-656.832275 443.830811 237.528931
-645.348633 425.808197 233.665695
-696.463318 393.247223 236.324539
3 5 4 7
3 3 0 1
3 7 6 5
3 1 2 3
3 0 1 5
3 0 5 4
3 1 2 6
3 1 6 5
3 2 3 7
3 2 7 6
3 3 0 4
3 3 4 7
