ply
format ascii 1.0
element vertex 12
property float x
property float y
property float z
element face 20
property list uchar int vertex_indices
end_header
448.122742 -1130.1377 261.464142
458.3573 -1136.28259 258.602203
456.943634 -1138.79834 261.464142
459.34491 -1140.75757 258.602203
452.615479 -1153.81543 254.634598
438.885498 -1145.57776 254.634598
448.122742 -1130.1377 269.464142
458.3573 -1136.28259 266.602203
456.943634 -1138.79834 269.464142
459.34491 -1140.75757 266.602203
452.615479 -1153.81543 262.634583
438.885498 -1145.57776 262.634583
3 7 6 11
3 5 0 1
3 11 10 9
3 3 4 5
3 8 7 11
3 5 1 2
3 11 9 8
3 2 3 5
3 0 1 7
3 0 7 6
3 1 2 8
3 1 8 7
3 2 3 9
3 2 9 8
3 3 4 10
3 3 10 9
3 4 5 11
3 4 11 10
3 5 0 6
3 5 6 11
