ply
format ascii 1.0
element vertex 8
property float x
property float y
property float z
element face 12
property list uchar int vertex_indices
end_header
1339.54626 65.3445435 254.042984
1374.73303 71.3223953 245.850357
1378.7804 47.4888954 263.781189
1343.59363 41.5110397 266.463715
1339.54626 65.3445435 262.042969
1374.73303 71.3223953 253.850357
1378.7804 47.4888954 271.781189
1343.59363 41.5110397 274.463715
3 5 4 7
3 3 0 1
3 7 6 5
3 1 2 3
3 0 1 5
3 0 5 4
3 1 2 6
3 1 6 5
3 2 3 7
3 2 7 6
3 3 0 4
3 3 4 7
