ply
format ascii 1.0
element vertex 30
property float x
property float y
property float z
element face 56
property list uchar int vertex_indices
end_header
-672.905457 1927.04053 291.242554
-666.55365 1923.0553 291.308075
-662.409485 1920.46155 291.308075
-676.110413 1898.8656 290.815582
-672.014648 1896.27185 290.815582
-675.46167 1890.83948 290.815582
-687.516602 1898.72095 290.815582
-686.403076 1900.49084 290.815582
-688.70752 1901.94922 290.815582
-686.557983 1905.34436 290.815582
-685.734985 1906.72473 290.815582
-683.595093 1910.12 290.815582
-681.290649 1908.66174 290.815582
-672.750549 1922.18701 291.242554
-675.054993 1923.64539 291.242554
-672.905457 1927.04053 299.242554
-666.55365 1923.0553 299.308075
-662.409485 1920.46155 299.308075
-676.110413 1898.8656 298.815582
-672.014648 1896.27185 298.815582
-675.46167 1890.83948 298.815582
-687.516602 1898.72095 298.815582
-686.403076 1900.49084 298.815582
-688.70752 1901.94922 298.815582
-686.557983 1905.34436 298.815582
-685.734985 1906.72473 298.815582
-683.595093 1910.12 298.815582
-681.290649 1908.66174 298.815582
-672.750549 1922.18701 299.242554
-675.054993 1923.64539 299.242554
3 16 15 29
3 14 0 1
3 27 26 25
3 10 11 12
3 24 23 22
3 7 8 9
3 22 21 20
3 5 6 7
3 20 19 18
3 3 4 5
3 18 17 16
3 1 2 3
3 16 29 28
3 13 14 1
3 27 25 24
3 9 10 12
3 24 22 20
3 5 7 9
3 18 16 28
3 13 1 3
3 27 24 20
3 5 9 12
3 18 28 27
3 12 13 3
3 27 20 18
3 3 5 12
3 0 1 16
3 0 16 15
3 1 2 17
3 1 17 16
3 2 3 18
3 2 18 17
3 3 4 19
3 3 19 18
3 4 5 20
3 4 20 19
3 5 6 21
3 5 21 20
3 6 7 22
3 6 22 21
3 7 8 23
3 7 23 22
3 8 9 24
3 8 24 23
3 9 10 25
3 9 25 24
3 10 11 26
3 10 26 25
3 11 12 27
3 11 27 26
3 12 13 28
3 12 28 27
3 13 14 29
3 13 29 28
3 14 0 15
3 14 15 29
