ply
format ascii 1.0
element vertex 8
property float x
property float y
property float z
element face 12
property list uchar int vertex_indices
end_header
2096.44873 2397.91089 192.740677
2093.53418 2351.02319 191.883911
2107.71924 2350.1438 190.059967
2110.63379 2397.02026 189.50235
2096.44873 2397.91089 200.740677
2093.53418 2351.02319 199.883911
2107.71924 2350.1438 198.059967
2110.63379 2397.02026 197.50235
3 6 7 4
3 0 3 2
3 4 5 6
3 2 1 0
3 0 1 5
3 0 5 4
3 1 2 6
3 1 6 5
3 2 3 7
3 2 7 6
3 3 0 4
3 3 4 7
