ply
format ascii 1.0
element vertex 22
property float x
property float y
property float z
element face 40
property list uchar int vertex_indices
end_header
1147.5199 -1252.91199 218.19278
1169.85779 -1250.31824 220.177124
1171.26172 -1262.37415 220.177124
1160.94006 -1263.57642 220.177124
1161.35645 -1267.20544 220.177124
1171.41675 -1266.03662 220.177124
1173.07239 -1280.29663 216.91391
1162.84753 -1281.48767 216.91391
1161.50171 -1269.94385 216.91391
1149.65979 -1271.32422 215.588745
1148.92395 -1264.979 218.19278
1147.5199 -1252.91199 226.19278
1169.85779 -1250.31824 228.177124
1171.26172 -1262.37415 228.177124
1160.94006 -1263.57642 228.177124
1161.35645 -1267.20544 228.177124
1171.41675 -1266.03662 228.177124
1173.07239 -1280.29663 224.91391
1162.84753 -1281.48767 224.91391
1161.50171 -1269.94385 224.91391
1149.65979 -1271.32422 223.588745
1148.92395 -1264.979 226.19278
3 12 11 21
3 10 0 1
3 21 20 19
3 8 9 10
3 19 18 17
3 6 7 8
3 17 16 15
3 4 5 6
3 14 13 12
3 1 2 3
3 19 17 15
3 4 6 8
3 14 12 21
3 10 1 3
3 21 19 15
3 4 8 10
3 15 14 21
3 10 3 4
3 0 1 12
3 0 12 11
3 1 2 13
3 1 13 12
3 2 3 14
3 2 14 13
3 3 4 15
3 3 15 14
3 4 5 16
3 4 16 15
3 5 6 17
3 5 17 16
3 6 7 18
3 6 18 17
3 7 8 19
3 7 19 18
3 8 9 20
3 8 20 19
3 9 10 21
3 9 21 20
3 10 0 11
3 10 11 21
