ply
format ascii 1.0
element vertex 44
property float x
property float y
property float z
element face 84
property list uchar int vertex_indices
end_header
-2781.0896 339.335205 235.32283
-2779.94702 329.494568 235.32283
-2767.16577 330.975098 235.644165
-2764.5127 327.25705 235.644165
-2767.08838 325.431396 235.644165
-2765.15186 322.726349 235.644165
-2766.46875 321.79126 235.644165
-2762.77002 316.614899 235.644165
-2759.17773 319.175232 235.644165
-2760.18457 320.588989 235.644165
-2747.20996 329.450043 235.644165
-2746.20288 328.036285 235.644165
-2742.6106 330.607758 235.985504
-2746.31909 335.784119 235.644165
-2747.62622 334.84903 235.644165
-2749.55322 337.542969 235.644165
-2752.11914 335.706177 235.644165
-2754.77197 339.424255 235.644165
-2749.23364 351.034882 239.257782
-2758.18042 355.298431 239.257782
-2764.5708 342.218384 239.257782
-2766.35254 341.038391 239.257782
-2781.0896 339.335205 243.32283
-2779.94702 329.494568 243.32283
-2767.16577 330.975098 243.644165
-2764.5127 327.25705 243.644165
-2767.08838 325.431396 243.644165
-2765.15186 322.726349 243.644165
-2766.46875 321.79126 243.644165
-2762.77002 316.614899 243.644165
-2759.17773 319.175232 243.644165
-2760.18457 320.588989 243.644165
-2747.20996 329.450043 243.644165
-2746.20288 328.036285 243.644165
-2742.6106 330.607758 243.985504
-2746.31909 335.784119 243.644165
-2747.62622 334.84903 243.644165
-2749.55322 337.542969 243.644165
-2752.11914 335.706177 243.644165
-2754.77197 339.424255 243.644165
-2749.23364 351.034882 247.257782
-2758.18042 355.298431 247.257782
-2764.5708 342.218384 247.257782
-2766.35254 341.038391 247.257782
3 43 22 23
3 1 0 21
3 25 26 27
3 5 4 3
3 27 28 29
3 7 6 5
3 29 30 31
3 9 8 7
3 32 33 34
3 12 11 10
3 34 35 36
3 14 13 12
3 36 37 38
3 16 15 14
3 39 40 41
3 19 18 17
3 42 43 23
3 1 21 20
3 25 27 29
3 7 5 3
3 32 34 36
3 14 12 10
3 39 41 42
3 20 19 17
3 42 23 24
3 2 1 20
3 25 29 31
3 9 7 3
3 31 32 36
3 14 10 9
3 38 39 42
3 20 17 16
3 42 24 25
3 3 2 20
3 25 31 36
3 14 9 3
3 38 42 25
3 3 20 16
3 25 36 38
3 16 14 3
3 0 1 23
3 0 23 22
3 1 2 24
3 1 24 23
3 2 3 25
3 2 25 24
3 3 4 26
3 3 26 25
3 4 5 27
3 4 27 26
3 5 6 28
3 5 28 27
3 6 7 29
3 6 29 28
3 7 8 30
3 7 30 29
3 8 9 31
3 8 31 30
3 9 10 32
3 9 32 31
3 10 11 33
3 10 33 32
3 11 12 34
3 11 34 33
3 12 13 35
3 12 35 34
3 13 14 36
3 13 36 35
3 14 15 37
3 14 37 36
3 15 16 38
3 15 38 37
3 16 17 39
3 16 39 38
3 17 18 40
3 17 40 39
3 18 19 41
3 18 41 40
3 19 20 42
3 19 42 41
3 20 21 43
3 20 43 42
3 21 0 22
3 21 22 43
