ply
format ascii 1.0
element vertex 14
property float x
property float y
property float z
element face 12
property list uchar int vertex_indices
end_header
-1441.83643 -901.93103 254.602188
-1441.0177 -898.528137 254.602188
-1459.56909 -897.664429 257.598114
-1458.82043 -894.245422 257.598114
-1465.54907 -896.727478 257.598114
-1465.19556 -893.245361 257.598114
-1471.59692 -896.433105 257.598114
-1471.79321 -892.93866 257.598114
-1477.27698 -897.384277 257.598114
-1478.04211 -893.968933 257.598114
-1481.1134 -898.552124 260.569977
-1482.55212 -895.361511 260.569977
-1498.05078 -906.790466 260.569977
-1499.58154 -903.642944 260.569977
3 0 1 2
3 1 3 2
3 2 3 4
3 3 5 4
3 4 5 6
3 5 7 6
3 6 7 8
3 7 9 8
3 8 9 10
3 9 11 10
3 10 11 12
3 11 13 12
