ply
format ascii 1.0
element vertex 14
property float x
property float y
property float z
element face 12
property list uchar int vertex_indices
end_header
2105.40674 1902.92627 191.047501
2103.69922 1901.88489 191.047501
2120.77319 1877.72815 179.930664
2119.08521 1876.65527 179.930664
2130.63599 1863.22083 188.728439
2129.07153 1861.97461 188.728439
2142.00098 1851.07397 168.029999
2140.61597 1849.6311 168.029999
2154.90283 1839.93701 187.428162
2153.60522 1838.41516 187.428162
2329.17798 1691.47766 177.402359
2327.92505 1689.9187 177.402359
2345.82031 1686.41052 186.752869
2345.22998 1684.49951 186.752869
3 0 1 2
3 1 3 2
3 2 3 4
3 3 5 4
3 4 5 6
3 5 7 6
3 6 7 8
3 7 9 8
3 8 9 10
3 9 11 10
3 10 11 12
3 11 13 12
