ply
format ascii 1.0
element vertex 44
property float x
property float y
property float z
element face 84
property list uchar int vertex_indices
end_header
-2844.75293 363.124176 238.311584
-2843.12622 353.350342 238.311584
-2830.43237 355.465393 238.311584
-2827.60498 351.88092 238.311584
-2830.07397 349.932831 238.311584
-2828.02124 347.327942 238.311584
-2829.28003 346.32608 238.311584
-2825.32959 341.338959 238.311584
-2821.8728 344.077423 238.40889
-2822.94751 345.435516 238.40889
-2810.42798 354.931061 238.40889
-2809.34351 353.572968 238.40889
-2805.88672 356.311432 238.40889
-2809.84692 361.298553 238.40889
-2811.10571 360.296661 238.40889
-2813.16821 362.90155 238.40889
-2815.63721 360.931183 238.40889
-2818.47412 364.504547 238.40889
-2813.5166 376.382324 242.258591
-2822.65723 380.200592 242.258591
-2828.42798 366.831116 238.311584
-2830.11279 365.562073 238.311584
-2844.75293 363.124176 246.311584
-2843.12622 353.350342 246.311584
-2830.43237 355.465393 246.311584
-2827.60498 351.88092 246.311584
-2830.07397 349.932831 246.311584
-2828.02124 347.327942 246.311584
-2829.28003 346.32608 246.311584
-2825.32959 341.338959 246.311584
-2821.8728 344.077423 246.40889
-2822.94751 345.435516 246.40889
-2810.42798 354.931061 246.40889
-2809.34351 353.572968 246.40889
-2805.88672 356.311432 246.40889
-2809.84692 361.298553 246.40889
-2811.10571 360.296661 246.40889
-2813.16821 362.90155 246.40889
-2815.63721 360.931183 246.40889
-2818.47412 364.504547 246.40889
-2813.5166 376.382324 250.258591
-2822.65723 380.200592 250.258591
-2828.42798 366.831116 246.311584
-2830.11279 365.562073 246.311584
3 43 22 23
3 1 0 21
3 25 26 27
3 5 4 3
3 27 28 29
3 7 6 5
3 29 30 31
3 9 8 7
3 32 33 34
3 12 11 10
3 34 35 36
3 14 13 12
3 36 37 38
3 16 15 14
3 39 40 41
3 19 18 17
3 42 43 23
3 1 21 20
3 25 27 29
3 7 5 3
3 32 34 36
3 14 12 10
3 39 41 42
3 20 19 17
3 42 23 24
3 2 1 20
3 25 29 31
3 9 7 3
3 31 32 36
3 14 10 9
3 38 39 42
3 20 17 16
3 42 24 25
3 3 2 20
3 25 31 36
3 14 9 3
3 38 42 25
3 3 20 16
3 25 36 38
3 16 14 3
3 0 1 23
3 0 23 22
3 1 2 24
3 1 24 23
3 2 3 25
3 2 25 24
3 3 4 26
3 3 26 25
3 4 5 27
3 4 27 26
3 5 6 28
3 5 28 27
3 6 7 29
3 6 29 28
3 7 8 30
3 7 30 29
3 8 9 31
3 8 31 30
3 9 10 32
3 9 32 31
3 10 11 33
3 10 33 32
3 11 12 34
3 11 34 33
3 12 13 35
3 12 35 34
3 13 14 36
3 13 36 35
3 14 15 37
3 14 37 36
3 15 16 38
3 15 38 37
3 16 17 39
3 16 39 38
3 17 18 40
3 17 40 39
3 18 19 41
3 18 41 40
3 19 20 42
3 19 42 41
3 20 21 43
3 20 43 42
3 21 0 22
3 21 22 43
