ply
format ascii 1.0
element vertex 24
property float x
property float y
property float z
element face 22
property list uchar int vertex_indices
end_header
3321.23535 664.992737 263.31311
3325.96216 662.180542 263.31311
3326.70947 674.124268 263.31311
3330.92603 670.592957 263.31311
3333.01318 678.474426 263.31311
3334.75024 673.255859 263.31311
3341.00977 679.124695 257.039459
3340.77417 673.629761 257.039459
3352.15698 677.834045 257.039459
3351.95508 672.337769 257.039459
3364.92407 678.177185 261.209961
3365.95093 672.773926 261.209961
3369.42383 680.855469 261.209961
3372.87671 676.574402 261.209961
3371.17627 683.461487 267.057831
3375.79126 680.469482 267.057831
3371.61963 684.264221 267.057831
3376.9165 682.78363 267.057831
3372.2959 687.674744 267.057831
3377.78955 687.4104 267.057831
3372.00049 690.855103 267.057831
3377.31006 692.289551 267.057831
3370.47485 694.057434 267.057831
3375.46631 696.367554 267.057831
3 0 1 2
3 1 3 2
3 2 3 4
3 3 5 4
3 4 5 6
3 5 7 6
3 6 7 8
3 7 9 8
3 8 9 10
3 9 11 10
3 10 11 12
3 11 13 12
3 12 13 14
3 13 15 14
3 14 15 16
3 15 17 16
3 16 17 18
3 17 19 18
3 18 19 20
3 19 21 20
3 20 21 22
3 21 23 22
