ply
format ascii 1.0
element vertex 16
property float x
property float y
property float z
element face 14
property list uchar int vertex_indices
end_header
-231.742935 443.089355 190.684601
-230.177582 446.219788 190.684601
-292.676086 473.561493 193.323685
-291.284546 476.77298 193.323685
-320.521942 481.669098 199.248734
-320.314575 485.162933 199.248734
-332.534637 476.26239 201.814743
-334.696777 479.014679 201.814743
-338.969147 466.719879 201.814743
-341.85672 468.697784 201.814743
-347.807617 453.980865 199.532883
-349.924164 456.768402 199.532883
-363.357758 448.305878 200.708435
-364.061005 451.734497 200.708435
-412.904236 440.454834 203.289246
-413.451874 443.911713 203.289246
3 0 1 2
3 1 3 2
3 2 3 4
3 3 5 4
3 4 5 6
3 5 7 6
3 6 7 8
3 7 9 8
3 8 9 10
3 9 11 10
3 10 11 12
3 11 13 12
3 12 13 14
3 13 15 14
