ply
format ascii 1.0
element vertex 8
property float x
property float y
property float z
element face 12
property list uchar int vertex_indices
end_header
-1117.27136 368.512054 259.827667
-1112.46875 356.945953 259.827667
-1130.90454 349.28717 262.644928
-1135.70703 360.853271 262.644928
-1117.27136 368.512054 263.027679
-1112.46875 356.945953 263.027679
-1130.90454 349.28717 265.84494
-1135.70703 360.853271 265.84494
3 5 4 7
3 3 0 1
3 7 6 5
3 1 2 3
3 0 1 5
3 0 5 4
3 1 2 6
3 1 6 5
3 2 3 7
3 2 7 6
3 3 0 4
3 3 4 7
