ply
format ascii 1.0
element vertex 12
property float x
property float y
property float z
element face 20
property list uchar int vertex_indices
end_header
1013.39587 1101.23914 233.44371
1011.64331 1098.54529 233.44371
991.048279 1066.86377 233.202148
989.363525 1064.28113 233.202148
1003.94556 1054.79675 236.527634
1027.97791 1091.75476 235.707336
1013.39587 1101.23914 241.44371
1011.64331 1098.54529 241.44371
991.048279 1066.86377 241.202148
989.363525 1064.28113 241.202148
1003.94556 1054.79675 244.527634
1027.97791 1091.75476 243.707336
3 10 11 6
3 0 5 4
3 6 7 8
3 2 1 0
3 8 9 10
3 4 3 2
3 10 6 8
3 2 0 4
3 0 1 7
3 0 7 6
3 1 2 8
3 1 8 7
3 2 3 9
3 2 9 8
3 3 4 10
3 3 10 9
3 4 5 11
3 4 11 10
3 5 0 6
3 5 6 11
