ply
format ascii 1.0
element vertex 8
property float x
property float y
property float z
element face 12
property list uchar int vertex_indices
end_header
3092.74487 -1166.93994 238.631195
3098.15747 -1174.38721 241.685822
3090.53735 -1179.93091 248.293533
3085.12476 -1172.48364 238.631195
3092.74487 -1166.93994 246.631195
3098.15747 -1174.38721 249.685822
3090.53735 -1179.93091 256.293518
3085.12476 -1172.48364 246.631195
3 5 4 7
3 3 0 1
3 7 6 5
3 1 2 3
3 0 1 5
3 0 5 4
3 1 2 6
3 1 6 5
3 2 3 7
3 2 7 6
3 3 0 4
3 3 4 7
