ply
format ascii 1.0
element vertex 8
property float x
property float y
property float z
element face 12
property list uchar int vertex_indices
end_header
-1191.54688 -398.412445 248.118408
-1181.09937 -403.399567 256.573669
-1200.19348 -443.396667 251.136475
-1210.63147 -438.409546 248.562668
-1191.54688 -398.412445 251.318405
-1181.09937 -403.399567 259.773682
-1200.19348 -443.396667 254.336472
-1210.63147 -438.409546 251.762665
3 5 4 7
3 3 0 1
3 7 6 5
3 1 2 3
3 0 1 5
3 0 5 4
3 1 2 6
3 1 6 5
3 2 3 7
3 2 7 6
3 3 0 4
3 3 4 7
