ply
format ascii 1.0
element vertex 16
property float x
property float y
property float z
element face 14
property list uchar int vertex_indices
end_header
846.965332 -824.823242 252.560165
846.5495 -826.779541 252.560165
997.306641 -856.780823 247.908218
996.912598 -858.741577 247.908218
1043.86108 -864.477661 249.270554
1044.29932 -866.429077 249.270554
1072.57288 -840.000122 252.977722
1074.10938 -841.280396 252.977722
1081.60449 -818.886719 260.638458
1083.35864 -819.847534 260.638458
1097.12842 -795.145203 257.947449
1098.76099 -796.300476 257.947449
1107.19104 -782.71875 263.523254
1108.81909 -783.880432 263.523254
1152.8667 -717.027954 256.800171
1154.50879 -718.169739 256.800171
3 0 1 2
3 1 3 2
3 2 3 4
3 3 5 4
3 4 5 6
3 5 7 6
3 6 7 8
3 7 9 8
3 8 9 10
3 9 11 10
3 10 11 12
3 11 13 12
3 12 13 14
3 13 15 14
