ply
format ascii 1.0
element vertex 14
property float x
property float y
property float z
element face 24
property list uchar int vertex_indices
end_header
1792.91699 -290.176514 276.612061
1829.25598 -323.327454 277.078278
1839.67444 -321.04541 283.039429
1861.55725 -297.044922 293.931091
1844.38025 -281.382263 290.094818
1836.93433 -289.553131 290.094818
1813.22144 -267.912628 280.421448
1792.91699 -290.176514 284.612061
1829.25598 -323.327454 285.078278
1839.67444 -321.04541 291.039429
1861.55725 -297.044922 301.931091
1844.38025 -281.382263 298.094818
1836.93433 -289.553131 298.094818
1813.22144 -267.912628 288.421448
3 12 13 7
3 0 6 5
3 7 8 9
3 2 1 0
3 9 10 11
3 4 3 2
3 12 7 9
3 2 0 5
3 9 11 12
3 5 4 2
3 0 1 8
3 0 8 7
3 1 2 9
3 1 9 8
3 2 3 10
3 2 10 9
3 3 4 11
3 3 11 10
3 4 5 12
3 4 12 11
3 5 6 13
3 5 13 12
3 6 0 7
3 6 7 13
