ply
format ascii 1.0
element vertex 46
property float x
property float y
property float z
element face 44
property list uchar int vertex_indices
end_header
-3317.87524 44.8234711 211.092804
-3310.22803 42.4732742 211.092804
-3282.87915 158.691757 211.84787
-3275.21851 156.386932 211.84787
-3260.50366 235.505234 216.825958
-3252.76343 233.48378 216.825958
-3256.04565 261.391235 218.826309
-3248.15845 260.051514 218.826309
-3240.27441 354.670898 222.448151
-3232.34497 353.610474 222.448151
-3227.14624 477.496521 229.686432
-3219.19409 476.622833 229.686432
-3221.28516 527.518616 228.602692
-3213.33936 526.587891 228.602692
-3219.87524 539.445129 228.602692
-3212.03833 537.838074 228.602692
-3214.96924 558.233093 231.267456
-3207.39697 555.651978 231.267456
-3207.49902 575.830383 231.267456
-3200.09155 572.808655 231.267456
-3200.42578 593.900513 237.298355
-3192.95068 591.050903 237.298355
-3194.4209 610.046204 237.298355
-3186.63916 608.189758 237.298355
-3190.83545 633.962524 236.714111
-3182.84644 633.543457 236.714111
-3191.05347 674.922485 234.547562
-3183.07397 675.494202 234.547562
-3195.68896 701.573975 235.735397
-3187.81104 702.966309 235.735397
-3202.32568 738.577087 237.394043
-3194.4397 739.923889 237.394043
-3214.76099 813.249878 249.253616
-3206.8501 814.441467 249.253616
-3217.22534 837.712952 249.871857
-3209.22705 837.867981 249.871857
-3215.74048 863.739807 249.871857
-3207.78784 862.870056 249.871857
-3211.78149 887.593201 251.443451
-3203.96191 885.904419 251.443451
-3205.37158 911.782227 254.57576
-3197.72632 909.42688 254.57576
-3201.03809 922.341919 251.604416
-3193.86816 918.793396 251.604416
-3195.26709 932.294983 250.170502
-3188.34937 928.276733 250.170502
3 0 1 2
3 1 3 2
3 2 3 4
3 3 5 4
3 4 5 6
3 5 7 6
3 6 7 8
3 7 9 8
3 8 9 10
3 9 11 10
3 10 11 12
3 11 13 12
3 12 13 14
3 13 15 14
3 14 15 16
3 15 17 16
3 16 17 18
3 17 19 18
3 18 19 20
3 19 21 20
3 20 21 22
3 21 23 22
3 22 23 24
3 23 25 24
3 24 25 26
3 25 27 26
3 26 27 28
3 27 29 28
3 28 29 30
3 29 31 30
3 30 31 32
3 31 33 32
3 32 33 34
3 33 35 34
3 34 35 36
3 35 37 36
3 36 37 38
3 37 39 38
3 38 39 40
3 39 41 40
3 40 41 42
3 41 43 42
3 42 43 44
3 43 45 44
