ply
format ascii 1.0
element vertex 8
property float x
property float y
property float z
element face 12
property list uchar int vertex_indices
end_header
330.827118 -416.958282 293.196198
337.295105 -433.489227 294.755524
371.21344 -420.21994 292.184723
364.745422 -403.688995 292.184723
330.827118 -416.958282 301.196198
337.295105 -433.489227 302.755524
371.21344 -420.21994 300.184723
364.745422 -403.688995 300.184723
3 6 7 4
3 0 3 2
3 4 5 6
3 2 1 0
3 0 1 5
3 0 5 4
3 1 2 6
3 1 6 5
3 2 3 7
3 2 7 6
3 3 0 4
3 3 4 7
