ply
format ascii 1.0
element vertex 8
property float x
property float y
property float z
element face 12
property list uchar int vertex_indices
end_header
2744.46973 2136.66626 268.527039
2752.96143 2139.47144 268.527039
2757.25073 2126.4917 265.769958
2748.75903 2123.68652 265.769958
2744.46973 2136.66626 276.527039
2752.96143 2139.47144 276.527039
2757.25073 2126.4917 273.769958
2748.75903 2123.68652 273.769958
3 5 4 7
3 3 0 1
3 7 6 5
3 1 2 3
3 0 1 5
3 0 5 4
3 1 2 6
3 1 6 5
3 2 3 7
3 2 7 6
3 3 0 4
3 3 4 7
