ply
format ascii 1.0
element vertex 50
property float x
property float y
property float z
element face 96
property list uchar int vertex_indices
end_header
-3294.96704 -610.164368 206.240555
-3298.60791 -615.162659 206.240555
-3294.48291 -618.168274 206.240555
-3292.60449 -624.758362 201.618973
-3295.48999 -631.693604 201.618973
-3286.51416 -635.433899 201.618973
-3284.42261 -639.675171 201.618973
-3280.4624 -637.715942 199.14917
-3280.69482 -632.851318 199.14917
-3277.29639 -629.823425 199.14917
-3272.59058 -630.012634 199.14917
-3269.67603 -634.632446 199.14917
-3265.6189 -633.908813 199.14917
-3266.41309 -629.433777 199.14917
-3262.4624 -621.463318 199.14917
-3268.47534 -618.47998 199.14917
-3270.53784 -611.656067 208.836456
-3268.76587 -607.448181 208.836456
-3275.20483 -604.743164 208.836456
-3277.35449 -609.863831 208.836456
-3279.2522 -609.073486 208.836456
-3280.9563 -613.125488 206.240555
-3284.74219 -614.583801 206.240555
-3288.4314 -611.889832 206.240555
-3289.87402 -613.871338 206.240555
-3294.96704 -610.164368 214.240555
-3298.60791 -615.162659 214.240555
-3294.48291 -618.168274 214.240555
-3292.60449 -624.758362 209.618973
-3295.48999 -631.693604 209.618973
-3286.51416 -635.433899 209.618973
-3284.42261 -639.675171 209.618973
-3280.4624 -637.715942 207.14917
-3280.69482 -632.851318 207.14917
-3277.29639 -629.823425 207.14917
-3272.59058 -630.012634 207.14917
-3269.67603 -634.632446 207.14917
-3265.6189 -633.908813 207.14917
-3266.41309 -629.433777 207.14917
-3262.4624 -621.463318 207.14917
-3268.47534 -618.47998 207.14917
-3270.53784 -611.656067 216.836456
-3268.76587 -607.448181 216.836456
-3275.20483 -604.743164 216.836456
-3277.35449 -609.863831 216.836456
-3279.2522 -609.073486 216.836456
-3280.9563 -613.125488 214.240555
-3284.74219 -614.583801 214.240555
-3288.4314 -611.889832 214.240555
-3289.87402 -613.871338 214.240555
3 49 25 26
3 1 0 24
3 28 29 30
3 5 4 3
3 30 31 32
3 7 6 5
3 35 36 37
3 12 11 10
3 38 39 40
3 15 14 13
3 41 42 43
3 18 17 16
3 44 45 46
3 21 20 19
3 47 48 49
3 24 23 22
3 49 26 27
3 2 1 24
3 27 28 30
3 5 3 2
3 30 32 33
3 8 7 5
3 35 37 38
3 13 12 10
3 38 40 41
3 16 15 13
3 41 43 44
3 19 18 16
3 47 49 27
3 2 24 22
3 27 30 33
3 8 5 2
3 34 35 38
3 13 10 9
3 38 41 44
3 19 16 13
3 47 27 33
3 8 2 22
3 34 38 44
3 19 13 9
3 46 47 33
3 8 22 21
3 33 34 44
3 19 9 8
3 44 46 33
3 8 21 19
3 0 1 26
3 0 26 25
3 1 2 27
3 1 27 26
3 2 3 28
3 2 28 27
3 3 4 29
3 3 29 28
3 4 5 30
3 4 30 29
3 5 6 31
3 5 31 30
3 6 7 32
3 6 32 31
3 7 8 33
3 7 33 32
3 8 9 34
3 8 34 33
3 9 10 35
3 9 35 34
3 10 11 36
3 10 36 35
3 11 12 37
3 11 37 36
3 12 13 38
3 12 38 37
3 13 14 39
3 13 39 38
3 14 15 40
3 14 40 39
3 15 16 41
3 15 41 40
3 16 17 42
3 16 42 41
3 17 18 43
3 17 43 42
3 18 19 44
3 18 44 43
3 19 20 45
3 19 45 44
3 20 21 46
3 20 46 45
3 21 22 47
3 21 47 46
3 22 23 48
3 22 48 47
3 23 24 49
3 23 49 48
3 24 0 25
3 24 25 49
