ply
format ascii 1.0
element vertex 16
property float x
property float y
property float z
element face 14
property list uchar int vertex_indices
end_header
-963.021729 295.176666 226.037003
-963.264038 293.191376 226.037003
-906.475037 288.274841 231.961288
-906.717407 286.289581 231.961288
-888.703186 286.095367 231.961288
-889.166931 284.149872 231.961288
-844.488892 273.505249 221.732697
-845.036743 271.581757 221.732697
-832.063477 269.956635 222.501617
-832.848816 268.117279 222.501617
-805.356384 256.800079 223.487213
-805.95282 254.891083 223.487213
-779.825989 253.540649 223.487213
-779.545471 251.56041 223.487213
-762.428528 262.916718 214.188385
-761.485107 261.153198 214.188385
3 0 1 2
3 1 3 2
3 2 3 4
3 3 5 4
3 4 5 6
3 5 7 6
3 6 7 8
3 7 9 8
3 8 9 10
3 9 11 10
3 10 11 12
3 11 13 12
3 12 13 14
3 13 15 14
