ply
format ascii 1.0
element vertex 16
property float x
property float y
property float z
element face 28
property list uchar int vertex_indices
end_header
-1507.3562 -335.561462 249.199844
-1495.81458 -329.194 245.201736
-1494.26526 -331.999237 245.201736
-1492.13513 -330.819275 245.201736
-1482.93665 -347.506042 252.619507
-1485.07642 -348.686035 252.619507
-1485.14429 -348.541321 252.619507
-1496.68591 -354.908813 252.619507
-1507.3562 -335.561462 257.199829
-1495.81458 -329.194 253.201736
-1494.26526 -331.999237 253.201736
-1492.13513 -330.819275 253.201736
-1482.93665 -347.506042 260.619507
-1485.07642 -348.686035 260.619507
-1485.14429 -348.541321 260.619507
-1496.68591 -354.908813 260.619507
3 9 8 15
3 7 0 1
3 14 13 12
3 4 5 6
3 12 11 10
3 2 3 4
3 10 9 15
3 7 1 2
3 14 12 10
3 2 4 6
3 10 15 14
3 6 7 2
3 0 1 9
3 0 9 8
3 1 2 10
3 1 10 9
3 2 3 11
3 2 11 10
3 3 4 12
3 3 12 11
3 4 5 13
3 4 13 12
3 5 6 14
3 5 14 13
3 6 7 15
3 6 15 14
3 7 0 8
3 7 8 15
