ply
format ascii 1.0
element vertex 14
property float x
property float y
property float z
element face 24
property list uchar int vertex_indices
end_header
-1523.42944 -192.092911 259.500458
-1524.99805 -192.438004 259.500458
-1526.27612 -186.627121 259.500458
-1524.71729 -186.282043 259.500458
-1515.97375 -184.356201 256.815948
-1511.55847 -204.271271 259.500458
-1520.31165 -206.208221 259.500458
-1523.42944 -192.092911 267.500458
-1524.99805 -192.438004 267.500458
-1526.27612 -186.627121 267.500458
-1524.71729 -186.282043 267.500458
-1515.97375 -184.356201 264.815948
-1511.55847 -204.271271 267.500458
-1520.31165 -206.208221 267.500458
3 7 13 12
3 5 6 0
3 12 11 10
3 3 4 5
3 10 9 8
3 1 2 3
3 7 12 10
3 3 5 0
3 10 8 7
3 0 1 3
3 0 1 8
3 0 8 7
3 1 2 9
3 1 9 8
3 2 3 10
3 2 10 9
3 3 4 11
3 3 11 10
3 4 5 12
3 4 12 11
3 5 6 13
3 5 13 12
3 6 0 7
3 6 7 13
