ply
format ascii 1.0
element vertex 18
property float x
property float y
property float z
element face 16
property list uchar int vertex_indices
end_header
965.444031 -992.032166 221.610718
964.50177 -993.796265 221.610718
985.138672 -1002.55188 225.746277
984.196167 -1004.31592 225.746277
996.427307 -1008.5946 230.691635
995.274475 -1010.22888 230.691635
1015.39331 -1023.90228 223.908585
1013.974 -1025.3114 223.908585
1013.81165 -1026.08423 223.908585
1012.43781 -1027.53772 223.908585
1030.90137 -1038.57153 230.079727
1029.72156 -1040.1864 230.079727
1045.40588 -1049.15784 230.079727
1044.2262 -1050.77295 230.079727
1050.2301 -1052.698 226.9655
1049.25891 -1054.44629 226.9655
1063.43042 -1059.16406 226.9655
1062.55042 -1060.96008 226.9655
3 0 1 2
3 1 3 2
3 2 3 4
3 3 5 4
3 4 5 6
3 5 7 6
3 6 7 8
3 7 9 8
3 8 9 10
3 9 11 10
3 10 11 12
3 11 13 12
3 12 13 14
3 13 15 14
3 14 15 16
3 15 17 16
