ply
format ascii 1.0
element vertex 8
property float x
property float y
property float z
element face 12
property list uchar int vertex_indices
end_header
-1117.39722 404.345795 246.542084
-1092.21265 403.83371 250.540695
-1092.39661 394.594208 260.200134
-1117.59082 395.117401 261.283447
-1117.39722 404.345795 249.742081
-1092.21265 403.83371 253.740692
-1092.39661 394.594208 263.400146
-1117.59082 395.117401 264.483459
3 5 4 7
3 3 0 1
3 7 6 5
3 1 2 3
3 0 1 5
3 0 5 4
3 1 2 6
3 1 6 5
3 2 3 7
3 2 7 6
3 3 0 4
3 3 4 7
