ply
format ascii 1.0
element vertex 8
property float x
property float y
property float z
element face 12
property list uchar int vertex_indices
end_header
193.091415 -149.335098 246.46814
221.645538 -147.587387 246.482773
223.204453 -173.046143 247.940933
194.650314 -174.793869 247.363617
193.091415 -149.335098 254.46814
221.645538 -147.587387 254.482773
223.204453 -173.046143 255.940933
194.650314 -174.793869 255.363617
3 5 4 7
3 3 0 1
3 7 6 5
3 1 2 3
3 0 1 5
3 0 5 4
3 1 2 6
3 1 6 5
3 2 3 7
3 2 7 6
3 3 0 4
3 3 4 7
