ply
format ascii 1.0
element vertex 8
property float x
property float y
property float z
element face 12
property list uchar int vertex_indices
end_header
-1051.42932 -620.995789 271.493744
-1030.01123 -648.525085 265.556213
-1040.95264 -657.041016 273.719086
-1062.38037 -629.511719 271.493744
-1051.42932 -620.995789 274.693756
-1030.01123 -648.525085 268.756226
-1040.95264 -657.041016 276.919098
-1062.38037 -629.511719 274.693756
3 5 4 7
3 3 0 1
3 7 6 5
3 1 2 3
3 0 1 5
3 0 5 4
3 1 2 6
3 1 6 5
3 2 3 7
3 2 7 6
3 3 0 4
3 3 4 7
