ply
format ascii 1.0
element vertex 8
property float x
property float y
property float z
element face 12
property list uchar int vertex_indices
end_header
291.525238 -1024.35083 286.624176
296.569885 -1035.59412 289.081299
265.01413 -1049.75391 289.068665
259.969482 -1038.49951 289.068665
291.525238 -1024.35083 289.824188
296.569885 -1035.59412 292.281311
265.01413 -1049.75391 292.268677
259.969482 -1038.49951 292.268677
3 5 4 7
3 3 0 1
3 7 6 5
3 1 2 3
3 0 1 5
3 0 5 4
3 1 2 6
3 1 6 5
3 2 3 7
3 2 7 6
3 3 0 4
3 3 4 7
