ply
format ascii 1.0
element vertex 30
property float x
property float y
property float z
element face 28
property list uchar int vertex_indices
end_header
-1647.78394 -864.470093 265.592407
-1650.39783 -857.97644 265.592407
-1717.16943 -892.374329 267.863831
-1719.00952 -885.620544 267.863831
-1767.9635 -897.106018 267.22464
-1767.92737 -890.10614 267.22464
-1792.74756 -891.855835 271.442657
-1790.08472 -885.38208 271.442657
-1819.07373 -876.10199 281.339386
-1814.2439 -871.035156 281.339386
-1859.2356 -828.731873 274.775299
-1853.59595 -824.585205 274.775299
-1880.87305 -791.888916 266.576202
-1874.27173 -789.560303 266.576202
-1920.39636 -653.408447 259.865417
-1913.81689 -655.797852 259.865417
-1810.55933 -599.121704 256.763123
-1807.75024 -605.533325 256.763123
-1772.41614 -587.463623 255.191559
-1770.9303 -594.304077 255.191559
-1728.95618 -581.326416 250.594269
-1727.40137 -588.151611 250.594269
-1677.09424 -565.758057 255.208771
-1675.078 -572.461426 255.208771
-1672.69958 -564.397461 255.208771
-1670.70007 -571.105835 255.208771
-1562.28101 -531.536682 259.952057
-1560.27686 -538.243652 259.952057
-1557.21851 -529.891541 260.750946
-1555.05627 -536.549194 260.750946
3 0 1 2
3 1 3 2
3 2 3 4
3 3 5 4
3 4 5 6
3 5 7 6
3 6 7 8
3 7 9 8
3 8 9 10
3 9 11 10
3 10 11 12
3 11 13 12
3 12 13 14
3 13 15 14
3 14 15 16
3 15 17 16
3 16 17 18
3 17 19 18
3 18 19 20
3 19 21 20
3 20 21 22
3 21 23 22
3 22 23 24
3 23 25 24
3 24 25 26
3 25 27 26
3 26 27 28
3 27 29 28
