ply
format ascii 1.0
element vertex 12
property float x
property float y
property float z
element face 10
property list uchar int vertex_indices
end_header
-1426.65564 2222.37524 308.529724
-1430.65564 2222.3894 308.529724
-1427.10107 2095.02222 306.210541
-1431.10107 2095.02124 306.210541
-1426.55884 1850.03882 306.069916
-1430.55884 1850.06519 306.069916
-1428.88062 1835.81567 306.069916
-1432.72986 1836.90369 306.069916
-1434.62183 1821.77222 305.8237
-1437.79443 1824.20825 305.8237
-1463.39075 1790.6521 304.393188
-1466.32739 1793.36792 304.393188
3 0 1 2
3 1 3 2
3 2 3 4
3 3 5 4
3 4 5 6
3 5 7 6
3 6 7 8
3 7 9 8
3 8 9 10
3 9 11 10
