ply
format ascii 1.0
element vertex 16
property float x
property float y
property float z
element face 28
property list uchar int vertex_indices
end_header
3205.11206 1038.55518 234.37439
3200.52246 1040.59229 235.280945
3205.7124 1052.28088 238.372574
3213.97168 1048.61853 234.37439
3209.50806 1038.57739 234.37439
3213.052 1037.00781 234.37439
3203.50488 1015.5343 229.007278
3196.30103 1018.7403 231.640991
3205.11206 1038.55518 242.37439
3200.52246 1040.59229 243.280945
3205.7124 1052.28088 246.372574
3213.97168 1048.61853 242.37439
3209.50806 1038.57739 242.37439
3213.052 1037.00781 242.37439
3203.50488 1015.5343 237.007278
3196.30103 1018.7403 239.640991
3 8 15 14
3 6 7 0
3 14 13 12
3 4 5 6
3 12 11 10
3 2 3 4
3 10 9 8
3 0 1 2
3 8 14 12
3 4 6 0
3 12 10 8
3 0 2 4
3 0 1 9
3 0 9 8
3 1 2 10
3 1 10 9
3 2 3 11
3 2 11 10
3 3 4 12
3 3 12 11
3 4 5 13
3 4 13 12
3 5 6 14
3 5 14 13
3 6 7 15
3 6 15 14
3 7 0 8
3 7 8 15
