ply
format ascii 1.0
element vertex 8
property float x
property float y
property float z
element face 12
property list uchar int vertex_indices
end_header
1972.5592 118.265823 256.499084
1987.81909 132.548111 252.910828
2011.73523 106.978027 256.837494
1996.4657 92.706871 256.424011
1972.5592 118.265823 264.499084
1987.81909 132.548111 260.910828
2011.73523 106.978027 264.837494
1996.4657 92.706871 264.424011
3 5 4 7
3 3 0 1
3 7 6 5
3 1 2 3
3 0 1 5
3 0 5 4
3 1 2 6
3 1 6 5
3 2 3 7
3 2 7 6
3 3 0 4
3 3 4 7
