ply
format ascii 1.0
element vertex 8
property float x
property float y
property float z
element face 12
property list uchar int vertex_indices
end_header
1729.68921 -799.863953 233.179947
1737.62903 -791.425903 233.179947
1759.48279 -811.997742 229.23468
1751.54297 -820.435791 229.23468
1729.68921 -799.863953 241.179947
1737.62903 -791.425903 241.179947
1759.48279 -811.997742 237.23468
1751.54297 -820.435791 237.23468
3 5 4 7
3 3 0 1
3 7 6 5
3 1 2 3
3 0 1 5
3 0 5 4
3 1 2 6
3 1 6 5
3 2 3 7
3 2 7 6
3 3 0 4
3 3 4 7
