ply
format ascii 1.0
element vertex 52
property float x
property float y
property float z
element face 50
property list uchar int vertex_indices
end_header
2718.83447 -2705.98755 0.0299999993
2722.83447 -2705.98755 0.0299999993
2718.8457 -2665.7666 0.0299999993
2722.823 -2666.19214 0.0299999993
2725.05835 -2649.15991 0.0299999993
2728.55884 -2651.09521 0.0299999993
2732.27246 -2642.04858 0.0299999993
2733.81592 -2645.73853 0.0299999993
2774.13403 -2628.18994 0.0299999993
2775.07031 -2632.07886 0.0299999993
2796.39038 -2626.59546 0.0299999993
2796.94751 -2630.5564 0.0299999993
2803.15991 -2624.26416 0.0299999993
2805.24414 -2627.67822 0.0299999993
2815.34082 -2614.87256 0.0299999993
2818.00562 -2617.85571 0.0299999993
2816.79248 -2612.54858 0.0299999993
2820.69824 -2613.41162 0.0299999993
2821.17725 -2586.75269 0.0299999993
2825.14404 -2587.26587 0.0299999993
2821.69873 -2575.04346 0.0299999993
2825.66821 -2574.55176 0.0299999993
2813.95117 -2528.79419 277.675385
2817.8269 -2527.80469 277.675385
2800.18506 -2490.83911 268.55127
2804.07471 -2489.90649 268.55127
2798.57178 -2464.34375 273.553314
2802.57007 -2464.46021 273.553314
2801.78198 -2436.25854 278.69519
2805.5957 -2437.4646 278.69519
2816.35938 -2407.85107 271.347473
2820.10498 -2409.25513 271.347473
2815.77979 -2399.98486 271.347473
2819.63867 -2398.9314 271.347473
2813.23364 -2395.93237 271.347473
2815.42627 -2392.58691 271.347473
2779.30273 -2376.63232 251.976471
2780.8042 -2372.92505 251.976471
2774.41333 -2379.29761 251.976471
2772.17651 -2375.98145 251.976471
2735.83105 -2407.01465 239.316483
2733.375 -2403.85742 239.316483
2725.88428 -2416.92188 243.683807
2722.54297 -2414.72266 243.683807
2703.78003 -2455.89331 236.727539
2700.30078 -2453.91968 236.727539
2651.83398 -2547.38159 0.0299999993
2648.04199 -2546.1084 0.0299999993
2620.2168 -2704.82471 0.0299999993
2616.2959 -2704.03345 0.0299999993
2618.12915 -2714.45947 0.0299999993
2614.21997 -2713.6123 0.0299999993
3 0 1 2
3 1 3 2
3 2 3 4
3 3 5 4
3 4 5 6
3 5 7 6
3 6 7 8
3 7 9 8
3 8 9 10
3 9 11 10
3 10 11 12
3 11 13 12
3 12 13 14
3 13 15 14
3 14 15 16
3 15 17 16
3 16 17 18
3 17 19 18
3 18 19 20
3 19 21 20
3 20 21 22
3 21 23 22
3 22 23 24
3 23 25 24
3 24 25 26
3 25 27 26
3 26 27 28
3 27 29 28
3 28 29 30
3 29 31 30
3 30 31 32
3 31 33 32
3 32 33 34
3 33 35 34
3 34 35 36
3 35 37 36
3 36 37 38
3 37 39 38
3 38 39 40
3 39 41 40
3 40 41 42
3 41 43 42
3 42 43 44
3 43 45 44
3 44 45 46
3 45 47 46
3 46 47 48
3 47 49 48
3 48 49 50
3 49 51 50
