ply
format ascii 1.0
element vertex 8
property float x
property float y
property float z
element face 12
property list uchar int vertex_indices
end_header
-377.729858 -330.796997 255.419022
-366.188141 -347.706421 260.26767
-374.757294 -353.561829 260.26767
-386.308685 -336.663544 255.419022
-377.729858 -330.796997 263.419006
-366.188141 -347.706421 268.26767
-374.757294 -353.561829 268.26767
-386.308685 -336.663544 263.419006
3 5 4 7
3 3 0 1
3 7 6 5
3 1 2 3
3 0 1 5
3 0 5 4
3 1 2 6
3 1 6 5
3 2 3 7
3 2 7 6
3 3 0 4
3 3 4 7
