ply
format ascii 1.0
element vertex 20
property float x
property float y
property float z
element face 36
property list uchar int vertex_indices
end_header
-1029.58521 -460.083466 252.201965
-1037.1571 -476.068939 256.626526
-1049.41528 -491.865173 254.272141
-1062.65149 -508.919312 255.492386
-1054.60522 -514.963989 255.492386
-1044.71924 -520.084656 254.10788
-1034.83325 -524.281433 254.10788
-1024.79236 -527.097778 251.356064
-1015.3324 -486.455048 254.396912
-1007.68311 -470.013153 254.396912
-1029.58521 -460.083466 260.201965
-1037.1571 -476.068939 264.626526
-1049.41528 -491.865173 262.272156
-1062.65149 -508.919312 263.492371
-1054.60522 -514.963989 263.492371
-1044.71924 -520.084656 262.10788
-1034.83325 -524.281433 262.10788
-1024.79236 -527.097778 259.356079
-1015.3324 -486.455048 262.396912
-1007.68311 -470.013153 262.396912
3 18 19 10
3 0 9 8
3 12 13 14
3 4 3 2
3 14 15 16
3 6 5 4
3 16 17 18
3 8 7 6
3 18 10 11
3 1 0 8
3 11 12 14
3 4 2 1
3 14 16 18
3 8 6 4
3 18 11 14
3 4 1 8
3 0 1 11
3 0 11 10
3 1 2 12
3 1 12 11
3 2 3 13
3 2 13 12
3 3 4 14
3 3 14 13
3 4 5 15
3 4 15 14
3 5 6 16
3 5 16 15
3 6 7 17
3 6 17 16
3 7 8 18
3 7 18 17
3 8 9 19
3 8 19 18
3 9 0 10
3 9 10 19
