ply
format ascii 1.0
element vertex 24
property float x
property float y
property float z
element face 44
property list uchar int vertex_indices
end_header
-2270.72681 -1338.27173 330.672119
-2231.94775 -1328.06384 339.863342
-2229.7981 -1327.97473 336.146301
-2227.73584 -1328.58704 336.146301
-2225.99292 -1329.85608 327.608124
-2224.77295 -1331.63708 327.608124
-2224.21118 -1333.71887 327.608124
-2224.36621 -1335.86731 327.608124
-2225.23755 -1337.83765 327.608124
-2226.70947 -1339.41833 327.608124
-2228.72339 -1340.35352 327.608124
-2267.49268 -1350.55029 330.672119
-2270.72681 -1338.27173 338.672119
-2231.94775 -1328.06384 347.863342
-2229.7981 -1327.97473 344.146301
-2227.73584 -1328.58704 344.146301
-2225.99292 -1329.85608 335.608124
-2224.77295 -1331.63708 335.608124
-2224.21118 -1333.71887 335.608124
-2224.36621 -1335.86731 335.608124
-2225.23755 -1337.83765 335.608124
-2226.70947 -1339.41833 335.608124
-2228.72339 -1340.35352 335.608124
-2267.49268 -1350.55029 338.672119
3 13 12 23
3 11 0 1
3 23 22 21
3 9 10 11
3 21 20 19
3 7 8 9
3 19 18 17
3 5 6 7
3 17 16 15
3 3 4 5
3 15 14 13
3 1 2 3
3 13 23 21
3 9 11 1
3 21 19 17
3 5 7 9
3 17 15 13
3 1 3 5
3 13 21 17
3 5 9 1
3 0 1 13
3 0 13 12
3 1 2 14
3 1 14 13
3 2 3 15
3 2 15 14
3 3 4 16
3 3 16 15
3 4 5 17
3 4 17 16
3 5 6 18
3 5 18 17
3 6 7 19
3 6 19 18
3 7 8 20
3 7 20 19
3 8 9 21
3 8 21 20
3 9 10 22
3 9 22 21
3 10 11 23
3 10 23 22
3 11 0 12
3 11 12 23
