ply
format ascii 1.0
element vertex 8
property float x
property float y
property float z
element face 12
property list uchar int vertex_indices
end_header
-2692.89014 -1595.03015 329.242859
-2663.54224 -1594.97449 335.103058
-2663.47437 -1623.92871 339.008789
-2692.82251 -1623.99548 332.607452
-2692.89014 -1595.03015 337.242859
-2663.54224 -1594.97449 343.103058
-2663.47437 -1623.92871 347.008789
-2692.82251 -1623.99548 340.607452
3 5 4 7
3 3 0 1
3 7 6 5
3 1 2 3
3 0 1 5
3 0 5 4
3 1 2 6
3 1 6 5
3 2 3 7
3 2 7 6
3 3 0 4
3 3 4 7
