ply
format ascii 1.0
element vertex 10
property float x
property float y
property float z
element face 8
property list uchar int vertex_indices
end_header
-2468.14941 700.685364 225.976425
-2467.65894 693.702576 225.976425
-2457.19482 701.451721 225.976425
-2456.4209 694.49469 225.976425
-2447.57739 702.939453 222.197037
-2445.80176 696.168396 222.197037
-2439.31006 706.137756 222.197037
-2436.52393 699.716064 222.197037
-2427.73096 711.592529 222.197037
-2424.74854 705.259644 222.197037
3 0 1 2
3 1 3 2
3 2 3 4
3 3 5 4
3 4 5 6
3 5 7 6
3 6 7 8
3 7 9 8
