ply
format ascii 1.0
element vertex 10
property float x
property float y
property float z
element face 16
property list uchar int vertex_indices
end_header
-822.531433 1075.16821 196.282211
-825.339417 1074.17737 196.282211
-826.917664 1078.64136 196.282211
-824.109741 1079.63208 196.282211
-823.674011 1078.37415 196.282211
-822.531433 1075.16821 204.282211
-825.339417 1074.17737 204.282211
-826.917664 1078.64136 204.282211
-824.109741 1079.63208 204.282211
-823.674011 1078.37415 204.282211
3 6 5 9
3 4 0 1
3 9 8 7
3 2 3 4
3 7 6 9
3 4 1 2
3 0 1 6
3 0 6 5
3 1 2 7
3 1 7 6
3 2 3 8
3 2 8 7
3 3 4 9
3 3 9 8
3 4 0 5
3 4 5 9
