ply
format ascii 1.0
element vertex 20
property float x
property float y
property float z
element face 18
property list uchar int vertex_indices
end_header
2289.17554 296.655823 243.018661
2296.02417 295.207642 243.018661
2292.59009 312.802704 227.960922
2299.44556 311.387939 227.960922
2304.15381 369.230133 222.065323
2310.96509 367.615845 222.065323
2308.74292 380.675598 217.749985
2315.10986 377.766357 217.749985
2313.57861 389.745911 220.005875
2319.00781 385.327179 220.005875
2321.87915 396.716827 220.005875
2325.65747 390.824036 220.005875
2331.77905 401.349182 220.005875
2333.20557 394.496094 220.005875
2344.52295 401.328033 217.312271
2342.90625 394.517273 217.312271
2408.82251 383.396454 203.721802
2406.88208 376.670776 203.721802
2416.61938 380.522034 203.721802
2414.19043 373.95694 203.721802
3 0 1 2
3 1 3 2
3 2 3 4
3 3 5 4
3 4 5 6
3 5 7 6
3 6 7 8
3 7 9 8
3 8 9 10
3 9 11 10
3 10 11 12
3 11 13 12
3 12 13 14
3 13 15 14
3 14 15 16
3 15 17 16
3 16 17 18
3 17 19 18
