ply
format ascii 1.0
element vertex 12
property float x
property float y
property float z
element face 10
property list uchar int vertex_indices
end_header
1654.61536 737.839294 168.029999
1656.19263 736.609619 168.029999
1672.58386 760.886719 168.029999
1674.20483 759.715271 168.029999
1691.35303 788.641052 175.888947
1692.71387 787.175415 175.888947
1707.57373 793.323242 173.710312
1708.36841 791.487854 173.710312
1721.42432 801.653381 173.72731
1722.81055 800.211853 173.72731
1721.24365 806.155457 180.936768
1723.24304 806.106995 180.936768
3 0 1 2
3 1 3 2
3 2 3 4
3 3 5 4
3 4 5 6
3 5 7 6
3 6 7 8
3 7 9 8
3 8 9 10
3 9 11 10
