ply
format ascii 1.0
element vertex 22
property float x
property float y
property float z
element face 20
property list uchar int vertex_indices
end_header
-2772.72119 -2111.34253 271.570282
-2771.52563 -2105.97412 271.570282
-2783.16797 -2109.01611 271.570282
-2781.97388 -2103.64722 271.570282
-2841.55493 -2096.03027 274.864288
-2840.05005 -2090.74023 274.864288
-2865.68262 -2085.42383 270.616791
-2862.70874 -2080.79712 270.616791
-2871.14429 -2075.91235 270.616791
-2865.67114 -2075.36963 270.616791
-2869.88477 -2053.27612 271.215942
-2864.3938 -2053.58936 271.215942
-2868.46313 -2028.33093 273.237213
-2862.96851 -2028.57434 273.237213
-2866.74341 -1984.505 275.515686
-2861.37695 -1983.30017 275.515686
-2884.67334 -1954.5166 276.968323
-2880.84131 -1950.57117 276.968323
-2924.34644 -1928.99048 273.052155
-2921.94092 -1924.04431 273.052155
-3012.84082 -1892.33362 271.52475
-3010.73584 -1887.25244 271.52475
3 0 1 2
3 1 3 2
3 2 3 4
3 3 5 4
3 4 5 6
3 5 7 6
3 6 7 8
3 7 9 8
3 8 9 10
3 9 11 10
3 10 11 12
3 11 13 12
3 12 13 14
3 13 15 14
3 14 15 16
3 15 17 16
3 16 17 18
3 17 19 18
3 18 19 20
3 19 21 20
