ply
format ascii 1.0
element vertex 12
property float x
property float y
property float z
element face 20
property list uchar int vertex_indices
end_header
1325.18689 1269.05334 235.388702
1357.75928 1269.82141 235.573044
1360.44141 1266.28149 239.098572
1344.8136 1237.56104 238.038895
1340.85339 1237.46082 238.038895
1323.12451 1264.95679 238.038895
1325.18689 1269.05334 243.388702
1357.75928 1269.82141 243.573044
1360.44141 1266.28149 247.098572
1344.8136 1237.56104 246.038895
1340.85339 1237.46082 246.038895
1323.12451 1264.95679 246.038895
3 7 6 11
3 5 0 1
3 11 10 9
3 3 4 5
3 9 8 7
3 1 2 3
3 7 11 9
3 3 5 1
3 0 1 7
3 0 7 6
3 1 2 8
3 1 8 7
3 2 3 9
3 2 9 8
3 3 4 10
3 3 10 9
3 4 5 11
3 4 11 10
3 5 0 6
3 5 6 11
