ply
format ascii 1.0
element vertex 16
property float x
property float y
property float z
element face 28
property list uchar int vertex_indices
end_header
-2943.08984 -1376.37646 345.75061
-2902.82959 -1376.66589 347.685059
-2902.88745 -1384.89233 347.685059
-2912.29907 -1384.82556 349.189667
-2912.33789 -1389.73474 349.189667
-2919.99683 -1389.67908 349.189667
-2919.97754 -1387.30798 349.189667
-2943.16748 -1387.14099 345.75061
-2943.08984 -1376.37646 353.75061
-2902.82959 -1376.66589 355.685059
-2902.88745 -1384.89233 355.685059
-2912.29907 -1384.82556 357.189667
-2912.33789 -1389.73474 357.189667
-2919.99683 -1389.67908 357.189667
-2919.97754 -1387.30798 357.189667
-2943.16748 -1387.14099 353.75061
3 9 8 15
3 7 0 1
3 14 13 12
3 4 5 6
3 11 10 9
3 1 2 3
3 9 15 14
3 6 7 1
3 14 12 11
3 3 4 6
3 11 9 14
3 6 1 3
3 0 1 9
3 0 9 8
3 1 2 10
3 1 10 9
3 2 3 11
3 2 11 10
3 3 4 12
3 3 12 11
3 4 5 13
3 4 13 12
3 5 6 14
3 5 14 13
3 6 7 15
3 6 15 14
3 7 0 8
3 7 8 15
