ply
format ascii 1.0
element vertex 8
property float x
property float y
property float z
element face 12
property list uchar int vertex_indices
end_header
-789.513611 -933.703369 278.739685
-783.704041 -920.478577 304.426331
-768.637817 -927.102112 306.120178
-774.457092 -940.326843 289.797272
-789.513611 -933.703369 281.939697
-783.704041 -920.478577 307.626343
-768.637817 -927.102112 309.32019
-774.457092 -940.326843 292.997284
3 5 4 7
3 3 0 1
3 7 6 5
3 1 2 3
3 0 1 5
3 0 5 4
3 1 2 6
3 1 6 5
3 2 3 7
3 2 7 6
3 3 0 4
3 3 4 7
