ply
format ascii 1.0
element vertex 8
property float x
property float y
property float z
element face 12
property list uchar int vertex_indices
end_header
-441.228699 -357.613861 242.701553
-449.19751 -336.307312 243.332443
-468.446625 -343.520813 236.87384
-460.477783 -364.816223 236.87384
-441.228699 -357.613861 250.701553
-449.19751 -336.307312 251.332443
-468.446625 -343.520813 244.87384
-460.477783 -364.816223 244.87384
3 6 7 4
3 0 3 2
3 4 5 6
3 2 1 0
3 0 1 5
3 0 5 4
3 1 2 6
3 1 6 5
3 2 3 7
3 2 7 6
3 3 0 4
3 3 4 7
