ply
format ascii 1.0
element vertex 8
property float x
property float y
property float z
element face 12
property list uchar int vertex_indices
end_header
-2269.72949 1169.78979 255.522034
-2264.48145 1175.38916 256.542908
-2245.78418 1157.85632 251.890228
-2251.03223 1152.25696 251.890228
-2269.72949 1169.78979 263.522034
-2264.48145 1175.38916 264.542908
-2245.78418 1157.85632 259.890228
-2251.03223 1152.25696 259.890228
3 5 4 7
3 3 0 1
3 7 6 5
3 1 2 3
3 0 1 5
3 0 5 4
3 1 2 6
3 1 6 5
3 2 3 7
3 2 7 6
3 3 0 4
3 3 4 7
