ply
format ascii 1.0
element vertex 10
property float x
property float y
property float z
element face 8
property list uchar int vertex_indices
end_header
-3280.43286 1537.65784 277.299011
-3282.35132 1545.42444 277.299011
-3291.50781 1534.92432 277.299011
-3293.17847 1542.74792 277.299011
-3300.96924 1533.31787 277.299011
-3301.43628 1541.3042 277.299011
-3426.52124 1526.98279 270.847931
-3426.95532 1534.97107 270.847931
-3436.46973 1525.9624 270.847931
-3437.28247 1533.92102 270.847931
3 0 1 2
3 1 3 2
3 2 3 4
3 3 5 4
3 4 5 6
3 5 7 6
3 6 7 8
3 7 9 8
