ply
format ascii 1.0
element vertex 8
property float x
property float y
property float z
element face 12
property list uchar int vertex_indices
end_header
-912.822144 -73.4374695 250.12001
-901.619324 -72.7027588 250.12001
-901.135193 -80.1611633 250.12001
-912.338013 -80.895874 250.12001
-912.822144 -73.4374695 258.119995
-901.619324 -72.7027588 258.119995
-901.135193 -80.1611633 258.119995
-912.338013 -80.895874 258.119995
3 5 4 7
3 3 0 1
3 7 6 5
3 1 2 3
3 0 1 5
3 0 5 4
3 1 2 6
3 1 6 5
3 2 3 7
3 2 7 6
3 3 0 4
3 3 4 7
