ply
format ascii 1.0
element vertex 8
property float x
property float y
property float z
element face 12
property list uchar int vertex_indices
end_header
2098.57886 -630.602661 237.25206
2112.03784 -627.341003 237.25206
2115.02002 -639.675171 237.25206
2101.56104 -642.936829 237.25206
2098.57886 -630.602661 245.25206
2112.03784 -627.341003 245.25206
2115.02002 -639.675171 245.25206
2101.56104 -642.936829 245.25206
3 5 4 7
3 3 0 1
3 7 6 5
3 1 2 3
3 0 1 5
3 0 5 4
3 1 2 6
3 1 6 5
3 2 3 7
3 2 7 6
3 3 0 4
3 3 4 7
