ply
format ascii 1.0
element vertex 8
property float x
property float y
property float z
element face 12
property list uchar int vertex_indices
end_header
-1452.03931 553.93689 207.742569
-1425.93481 562.764526 196.809006
-1414.6449 529.390991 208.807022
-1440.73962 520.552185 226.084366
-1452.03931 553.93689 210.942566
-1425.93481 562.764526 200.009003
-1414.6449 529.390991 212.007019
-1440.73962 520.552185 229.284363
3 5 4 7
3 3 0 1
3 7 6 5
3 1 2 3
3 0 1 5
3 0 5 4
3 1 2 6
3 1 6 5
3 2 3 7
3 2 7 6
3 3 0 4
3 3 4 7
