ply
format ascii 1.0
element vertex 14
property float x
property float y
property float z
element face 12
property list uchar int vertex_indices
end_header
966.440918 -2473.89868 230.866302
972.625977 -2478.97266 230.866302
972.188965 -2466.92749 228.0215
977.799988 -2472.62988 228.0215
980.386536 -2460.23608 228.0215
984.881592 -2466.85376 228.0215
990.432983 -2454.53418 228.0215
993.677612 -2461.84668 228.0215
1000.67627 -2451.22729 224.24823
1002.62531 -2458.98633 224.24823
1009.74518 -2449.69873 224.24823
1010.17181 -2457.6875 224.24823
1077.15515 -2447.06909 232.479187
1077.46692 -2455.06299 232.479187
3 0 1 2
3 1 3 2
3 2 3 4
3 3 5 4
3 4 5 6
3 5 7 6
3 6 7 8
3 7 9 8
3 8 9 10
3 9 11 10
3 10 11 12
3 11 13 12
