ply
format ascii 1.0
element vertex 72
property float x
property float y
property float z
element face 140
property list uchar int vertex_indices
end_header
1791.90027 -1085.74353 200.143509
1796.60608 -1081.42432 202.026367
1802.50281 -1087.85864 200.143509
1741.7345 -1143.56287 194.269302
1735.83777 -1137.12854 194.269302
1730.46387 -1131.27319 194.269302
1735.89587 -1126.29724 194.269302
1741.26965 -1132.15259 194.269302
1742.8092 -1130.75 194.269302
1737.48376 -1124.93909 194.269302
1742.5188 -1120.31934 194.269302
1747.84424 -1126.13025 194.269302
1750.60376 -1123.59216 197.212891
1744.97815 -1117.4585 194.269302
1757.65271 -1105.84778 206.710632
1763.27832 -1111.98157 206.710632
1766.30908 -1109.19849 206.710632
1759.28906 -1101.53979 206.710632
1764.72107 -1096.55261 206.710632
1771.74097 -1104.22253 206.710632
1773.08691 -1102.98694 206.710632
1764.63391 -1093.76965 206.710632
1771.08264 -1087.85864 206.710632
1779.53552 -1097.07581 200.143509
1781.75293 -1095.0387 200.143509
1774.05518 -1086.63403 206.710632
1781.03638 -1080.23315 202.026367
1778.50916 -1077.47253 202.026367
1771.85718 -1083.57275 206.710632
1767.68396 -1079.00867 205.285645
1774.32629 -1072.91956 205.285645
1777.49255 -1070.01404 202.026367
1778.31555 -1070.91577 202.026367
1786.2262 -1066.40735 202.026367
1796.66418 -1076.25916 202.026367
1789.35376 -1082.96057 200.143509
1791.90027 -1085.74353 208.143509
1796.60608 -1081.42432 210.026367
1802.50281 -1087.85864 208.143509
1741.7345 -1143.56287 202.269302
1735.83777 -1137.12854 202.269302
1730.46387 -1131.27319 202.269302
1735.89587 -1126.29724 202.269302
1741.26965 -1132.15259 202.269302
1742.8092 -1130.75 202.269302
1737.48376 -1124.93909 202.269302
1742.5188 -1120.31934 202.269302
1747.84424 -1126.13025 202.269302
1750.60376 -1123.59216 205.212891
1744.97815 -1117.4585 202.269302
1757.65271 -1105.84778 214.710632
1763.27832 -1111.98157 214.710632
1766.30908 -1109.19849 214.710632
1759.28906 -1101.53979 214.710632
1764.72107 -1096.55261 214.710632
1771.74097 -1104.22253 214.710632
1773.08691 -1102.98694 214.710632
1764.63391 -1093.76965 214.710632
1771.08264 -1087.85864 214.710632
1779.53552 -1097.07581 208.143509
1781.75293 -1095.0387 208.143509
1774.05518 -1086.63403 214.710632
1781.03638 -1080.23315 210.026367
1778.50916 -1077.47253 210.026367
1771.85718 -1083.57275 214.710632
1767.68396 -1079.00867 213.285645
1774.32629 -1072.91956 213.285645
1777.49255 -1070.01404 210.026367
1778.31555 -1070.91577 210.026367
1786.2262 -1066.40735 210.026367
1796.66418 -1076.25916 210.026367
1789.35376 -1082.96057 208.143509
3 71 70 69
3 33 34 35
3 68 67 66
3 30 31 32
3 66 65 64
3 28 29 30
3 62 61 60
3 24 25 26
3 59 58 57
3 21 22 23
3 55 54 53
3 17 18 19
3 51 50 49
3 13 14 15
3 47 46 45
3 9 10 11
3 43 42 41
3 5 6 7
3 40 39 38
3 2 3 4
3 38 37 36
3 0 1 2
3 71 69 68
3 32 33 35
3 68 66 64
3 28 30 32
3 59 57 56
3 20 21 23
3 55 53 52
3 16 17 19
3 51 49 48
3 12 13 15
3 47 45 44
3 8 9 11
3 43 41 40
3 4 5 7
3 36 71 68
3 32 35 0
3 68 64 63
3 27 28 32
3 59 56 55
3 19 20 23
3 55 52 51
3 15 16 19
3 51 48 47
3 11 12 15
3 44 43 40
3 4 7 8
3 36 68 63
3 27 32 0
3 51 47 44
3 8 11 15
3 44 40 38
3 2 4 8
3 36 63 62
3 26 27 0
3 55 51 44
3 8 15 19
3 44 38 36
3 0 2 8
3 36 62 60
3 24 26 0
3 59 55 44
3 8 19 23
3 36 60 59
3 23 24 0
3 59 44 36
3 0 8 23
3 0 1 37
3 0 37 36
3 1 2 38
3 1 38 37
3 2 3 39
3 2 39 38
3 3 4 40
3 3 40 39
3 4 5 41
3 4 41 40
3 5 6 42
3 5 42 41
3 6 7 43
3 6 43 42
3 7 8 44
3 7 44 43
3 8 9 45
3 8 45 44
3 9 10 46
3 9 46 45
3 10 11 47
3 10 47 46
3 11 12 48
3 11 48 47
3 12 13 49
3 12 49 48
3 13 14 50
3 13 50 49
3 14 15 51
3 14 51 50
3 15 16 52
3 15 52 51
3 16 17 53
3 16 53 52
3 17 18 54
3 17 54 53
3 18 19 55
3 18 55 54
3 19 20 56
3 19 56 55
3 20 21 57
3 20 57 56
3 21 22 58
3 21 58 57
3 22 23 59
3 22 59 58
3 23 24 60
3 23 60 59
3 24 25 61
3 24 61 60
3 25 26 62
3 25 62 61
3 26 27 63
3 26 63 62
3 27 28 64
3 27 64 63
3 28 29 65
3 28 65 64
3 29 30 66
3 29 66 65
3 30 31 67
3 30 67 66
3 31 32 68
3 31 68 67
3 32 33 69
3 32 69 68
3 33 34 70
3 33 70 69
3 34 35 71
3 34 71 70
3 35 0 36
3 35 36 71
