ply
format ascii 1.0
element vertex 8
property float x
property float y
property float z
element face 12
property list uchar int vertex_indices
end_header
-1552.14819 376.304413 247.001633
-1533.06372 379.677399 247.001633
-1531.04004 368.244873 249.478134
-1550.13416 364.871887 252.50618
-1552.14819 376.304413 250.20163
-1533.06372 379.677399 250.20163
-1531.04004 368.244873 252.678131
-1550.13416 364.871887 255.706177
3 5 4 7
3 3 0 1
3 7 6 5
3 1 2 3
3 0 1 5
3 0 5 4
3 1 2 6
3 1 6 5
3 2 3 7
3 2 7 6
3 3 0 4
3 3 4 7
