ply
format ascii 1.0
element vertex 45
property float x
property float y
property float z
element face 43
property list uchar int vertex_indices
end_header
-1278.28406 -530.548706 247.261658
-1268.82422 -550.497131 247.261658
-1253.15759 -572.004089 248.911652
-1202.16882 -612.36853 256.589264
-1149.84375 -577.959656 258.717712
-1116.32239 -587.098999 255.267395
-1066.95056 -625.203674 271.503754
-1049.86072 -618.724854 271.503754
-1026.82568 -648.280212 265.566223
-1028.95581 -658.10968 273.729095
-1005.45605 -698.140198 269.540405
-993.381836 -714.348328 268.96756
-1010.7525 -731.26886 268.034454
-1012.97949 -742.155884 264.694977
-1022.49756 -755.235962 258.486755
-1013.21185 -754.256348 264.694977
-1004.604 -751.72937 264.694977
-993.139771 -746.330383 272.587341
-945.133179 -716.519043 269.679321
-974.442566 -671.056152 258.134888
-926.581238 -641.233643 258.28064
-966.919128 -566.182068 258.887177
-945.675415 -553.736572 258.824768
-952.695312 -535.023743 258.824768
-972.641602 -537.194458 256.205841
-976.330688 -508.128937 250.759338
-942.499512 -503.141846 252.941986
-935.547363 -451.022034 243.464264
-944.774902 -437.485596 250.140625
-969.988525 -439.94577 249.864914
-1004.74927 -428.869476 249.397034
-1027.81335 -428.568909 249.363419
-1034.89136 -427.956665 249.363419
-1061.78979 -395.473633 245.542053
-1061.86719 -367.25412 239.380325
-1087.62305 -300.417908 239.0233
-1114.87 -307.89859 246.94635
-1129.12292 -263.882843 231.274307
-1169.04443 -271.697479 233.862473
-1174.6991 -310.759491 243.792938
-1166.0719 -318.184509 243.792938
-1192.77661 -388.371429 248.128403
-1219.78149 -426.977051 245.994736
-1223.17041 -454.250305 248.572662
-1208.88855 -494.881927 249.623703
3 44 0 1
3 1 2 3
3 5 6 7
3 8 9 10
3 11 12 13
3 13 14 15
3 15 16 17
3 17 18 19
3 19 20 21
3 21 22 23
3 25 26 27
3 27 28 29
3 29 30 31
3 33 34 35
3 36 37 38
3 38 39 40
3 41 42 43
3 44 1 3
3 8 10 11
3 11 13 15
3 17 19 21
3 21 23 24
3 25 27 29
3 29 31 32
3 33 35 36
3 36 38 40
3 41 43 44
3 44 3 4
3 11 15 17
3 17 21 24
3 25 29 32
3 33 36 40
3 40 41 44
3 44 4 5
3 11 17 24
3 24 25 32
3 32 33 40
3 40 44 5
3 8 11 24
3 24 32 40
3 40 5 7
3 7 8 24
3 24 40 7
