ply
format ascii 1.0
element vertex 14
property float x
property float y
property float z
element face 24
property list uchar int vertex_indices
end_header
-394.53894 -371.361816 252.493225
-402.372223 -376.170837 252.493225
-409.469604 -364.604736 249.030258
-401.636322 -359.795715 256.24234
-408.966095 -347.862274 249.030258
-399.990265 -342.34082 256.24234
-385.563141 -365.840363 256.24234
-394.53894 -371.361816 260.493225
-402.372223 -376.170837 260.493225
-409.469604 -364.604736 257.030273
-401.636322 -359.795715 264.24234
-408.966095 -347.862274 257.030273
-399.990265 -342.34082 264.24234
-385.563141 -365.840363 264.24234
3 8 7 13
3 6 0 1
3 13 12 11
3 4 5 6
3 10 9 8
3 1 2 3
3 13 11 10
3 3 4 6
3 10 8 13
3 6 1 3
3 0 1 8
3 0 8 7
3 1 2 9
3 1 9 8
3 2 3 10
3 2 10 9
3 3 4 11
3 3 11 10
3 4 5 12
3 4 12 11
3 5 6 13
3 5 13 12
3 6 0 7
3 6 7 13
