ply
format ascii 1.0
element vertex 16
property float x
property float y
property float z
element face 14
property list uchar int vertex_indices
end_header
1041.6886 -844.224731 249.250549
1034.55249 -848.644165 249.250549
1030.26306 -853.96521 249.250549
1027.79395 -860.199097 249.250549
1028.7041 -868.514648 246.886017
1033.89404 -874.481384 246.886017
1069.35193 -892.270264 251.690262
1072.98291 -891.758179 251.690262
1076.22656 -890.199707 251.690262
1078.04688 -888.774841 259.875061
1079.21851 -887.338806 259.875061
1083.37231 -870.07312 259.875061
1082.84949 -861.111938 259.629456
1077.92102 -850.202637 259.629456
1064.80103 -842.276672 252.957718
1050.51917 -840.718201 252.957718
3 14 15 0
3 0 1 2
3 2 3 4
3 4 5 6
3 6 7 8
3 8 9 10
3 10 11 12
3 12 13 14
3 14 0 2
3 2 4 6
3 6 8 10
3 10 12 14
3 14 2 6
3 6 10 14
