ply
format ascii 1.0
element vertex 8
property float x
property float y
property float z
element face 12
property list uchar int vertex_indices
end_header
-1267.9043 365.395111 254.455078
-1215.83105 409.934021 251.196671
-1197.25964 388.226715 259.975983
-1249.33301 343.687805 248.866333
-1267.9043 365.395111 257.65509
-1215.83105 409.934021 254.396667
-1197.25964 388.226715 263.175995
-1249.33301 343.687805 252.06633
3 5 4 7
3 3 0 1
3 7 6 5
3 1 2 3
3 0 1 5
3 0 5 4
3 1 2 6
3 1 6 5
3 2 3 7
3 2 7 6
3 3 0 4
3 3 4 7
