ply
format ascii 1.0
element vertex 14
property float x
property float y
property float z
element face 12
property list uchar int vertex_indices
end_header
-208.694412 2352.6228 278.498474
-206.516998 2349.26758 278.498474
-194.726318 2361.68433 278.498474
-192.386032 2358.44019 278.498474
-194.085114 2362.70801 278.498474
-190.296738 2361.42407 278.498474
-194.064972 2363.95605 278.498474
-190.142578 2364.74023 278.498474
-194.739883 2365.47241 278.498474
-191.462296 2367.76538 278.498474
-195.610275 2366.23364 278.498474
-193.690353 2369.74268 278.498474
-198.425537 2367.27466 278.498474
-197.013885 2371.01733 278.498474
3 0 1 2
3 1 3 2
3 2 3 4
3 3 5 4
3 4 5 6
3 5 7 6
3 6 7 8
3 7 9 8
3 8 9 10
3 9 11 10
3 10 11 12
3 11 13 12
