ply
format ascii 1.0
element vertex 46
property float x
property float y
property float z
element face 88
property list uchar int vertex_indices
end_header
687.381042 -493.679688 290.30899
689.917847 -491.074799 290.30899
690.576294 -490.406891 290.30899
692.483765 -492.26593 290.30899
694.817322 -489.872559 290.30899
691.225037 -486.365997 290.30899
696.163208 -481.312073 290.30899
705.749023 -490.662933 285.784851
705.448853 -490.974609 285.784851
701.808167 -494.703827 285.784851
700.8302 -495.716827 289.328918
698.487 -493.434784 290.30899
696.134155 -495.850403 287.741669
700.016907 -499.635284 289.328918
696.821594 -502.908051 287.741669
692.938843 -499.123199 287.741669
690.973267 -501.1492 287.741669
693.316467 -503.442383 287.741669
687.836121 -509.064026 287.741669
678.502014 -499.969238 287.741669
683.982422 -494.347595 290.30899
687.303528 -497.587006 287.741669
689.288513 -495.549835 287.741669
687.381042 -493.679688 298.30899
689.917847 -491.074799 298.30899
690.576294 -490.406891 298.30899
692.483765 -492.26593 298.30899
694.817322 -489.872559 298.30899
691.225037 -486.365997 298.30899
696.163208 -481.312073 298.30899
705.749023 -490.662933 293.784851
705.448853 -490.974609 293.784851
701.808167 -494.703827 293.784851
700.8302 -495.716827 297.328918
698.487 -493.434784 298.30899
696.134155 -495.850403 295.741669
700.016907 -499.635284 297.328918
696.821594 -502.908051 295.741669
692.938843 -499.123199 295.741669
690.973267 -501.1492 295.741669
693.316467 -503.442383 295.741669
687.836121 -509.064026 295.741669
678.502014 -499.969238 295.741669
683.982422 -494.347595 298.30899
687.303528 -497.587006 295.741669
689.288513 -495.549835 295.741669
3 24 23 45
3 22 0 1
3 44 43 42
3 19 20 21
3 42 41 40
3 17 18 19
3 38 37 36
3 13 14 15
3 34 33 32
3 9 10 11
3 32 31 30
3 7 8 9
3 30 29 28
3 5 6 7
3 26 25 24
3 1 2 3
3 44 42 40
3 17 19 21
3 38 36 35
3 12 13 15
3 34 32 30
3 7 9 11
3 30 28 27
3 4 5 7
3 26 24 45
3 22 1 3
3 44 40 39
3 16 17 21
3 38 35 34
3 11 12 15
3 34 30 27
3 4 7 11
3 27 26 45
3 22 3 4
3 45 44 39
3 16 21 22
3 38 34 27
3 4 11 15
3 27 45 39
3 16 22 4
3 39 38 27
3 4 15 16
3 0 1 24
3 0 24 23
3 1 2 25
3 1 25 24
3 2 3 26
3 2 26 25
3 3 4 27
3 3 27 26
3 4 5 28
3 4 28 27
3 5 6 29
3 5 29 28
3 6 7 30
3 6 30 29
3 7 8 31
3 7 31 30
3 8 9 32
3 8 32 31
3 9 10 33
3 9 33 32
3 10 11 34
3 10 34 33
3 11 12 35
3 11 35 34
3 12 13 36
3 12 36 35
3 13 14 37
3 13 37 36
3 14 15 38
3 14 38 37
3 15 16 39
3 15 39 38
3 16 17 40
3 16 40 39
3 17 18 41
3 17 41 40
3 18 19 42
3 18 42 41
3 19 20 43
3 19 43 42
3 20 21 44
3 20 44 43
3 21 22 45
3 21 45 44
3 22 0 23
3 22 23 45
