ply
format ascii 1.0
element vertex 8
property float x
property float y
property float z
element face 12
property list uchar int vertex_indices
end_header
-1036.23718 -654.491821 273.719086
-1025.46045 -668.262024 273.719086
-1052.98816 -689.813477 271.39325
-1063.77466 -676.054382 276.09549
-1036.23718 -654.491821 276.919098
-1025.46045 -668.262024 276.919098
-1052.98816 -689.813477 274.593262
-1063.77466 -676.054382 279.295502
3 5 4 7
3 3 0 1
3 7 6 5
3 1 2 3
3 0 1 5
3 0 5 4
3 1 2 6
3 1 6 5
3 2 3 7
3 2 7 6
3 3 0 4
3 3 4 7
