ply
format ascii 1.0
element vertex 12
property float x
property float y
property float z
element face 10
property list uchar int vertex_indices
end_header
37.2441063 -990.855774 246.620377
48.602272 -994.727722 246.620377
190.850616 -540.260315 297.332428
202.226257 -544.080627 297.332428
219.199539 -449.066223 283.946838
230.714478 -452.443542 283.946838
249.195023 -341.389801 257.012665
260.945099 -343.826202 257.012665
261.332886 -245.915848 242.300064
273.265594 -247.184967 242.300064
282.735748 -25.7576275 228.75798
294.679413 -26.9187565 228.75798
3 0 1 2
3 1 3 2
3 2 3 4
3 3 5 4
3 4 5 6
3 5 7 6
3 6 7 8
3 7 9 8
3 8 9 10
3 9 11 10
