ply
format ascii 1.0
element vertex 14
property float x
property float y
property float z
element face 12
property list uchar int vertex_indices
end_header
-1976.31995 -236.341736 223.165497
-1974.91785 -237.767975 223.165497
-1973.64746 -233.714493 223.165497
-1972.24548 -235.14093 223.165497
-1969.89893 -231.033112 223.165497
-1968.13171 -230.096756 223.165497
-1987.64294 -208.769363 230.891113
-1986.13611 -207.454224 230.891113
-2000.59204 -195.891571 225.185257
-1999.29138 -194.372299 225.185257
-2023.15637 -178.359222 203.813278
-2021.61572 -177.083923 203.813278
-2021.10193 -170.415283 203.813278
-2019.19678 -171.023865 203.813278
3 0 1 2
3 1 3 2
3 2 3 4
3 3 5 4
3 4 5 6
3 5 7 6
3 6 7 8
3 7 9 8
3 8 9 10
3 9 11 10
3 10 11 12
3 11 13 12
