ply
format ascii 1.0
element vertex 12
property float x
property float y
property float z
element face 10
property list uchar int vertex_indices
end_header
979.203064 -1018.51709 225.746277
977.950989 -1020.07672 225.746277
1020.75623 -1051.87573 216.964462
1019.51373 -1053.44299 216.964462
1026.8219 -1056.26904 223.426117
1025.64819 -1057.88843 223.426117
1049.73499 -1072.91052 223.426117
1048.95996 -1074.75415 223.426117
1052.87146 -1067.40759 226.9655
1053.35669 -1069.34778 226.9655
1059.4248 -1070.54114 226.9655
1058.5 -1072.31445 226.9655
3 0 1 2
3 1 3 2
3 2 3 4
3 3 5 4
3 4 5 6
3 5 7 6
3 6 7 8
3 7 9 8
3 8 9 10
3 9 11 10
