ply
format ascii 1.0
element vertex 8
property float x
property float y
property float z
element face 12
property list uchar int vertex_indices
end_header
-1208.0365 -182.586227 231.092072
-1187.12195 -183.877533 231.092072
-1189.72656 -225.956299 231.458664
-1210.63147 -224.664993 238.206146
-1208.0365 -182.586227 234.292068
-1187.12195 -183.877533 234.292068
-1189.72656 -225.956299 234.658661
-1210.63147 -224.664993 241.406143
3 5 4 7
3 3 0 1
3 7 6 5
3 1 2 3
3 0 1 5
3 0 5 4
3 1 2 6
3 1 6 5
3 2 3 7
3 2 7 6
3 3 0 4
3 3 4 7
