ply
format ascii 1.0
element vertex 22
property float x
property float y
property float z
element face 20
property list uchar int vertex_indices
end_header
-3277.80176 199.895828 213.805832
-3283.87866 203.370148 213.805832
-3292.80273 173.699814 212.167969
-3299.2229 176.489044 212.167969
-3300.13501 148.50882 210.130798
-3306.86011 150.450806 210.130798
-3327.54395 53.2916908 211.092804
-3334.33228 54.9999084 211.092804
-3338.73706 -4.87206793 214.241013
-3345.62231 -3.61047745 214.241013
-3341.0271 -20.3190975 214.241013
-3347.96045 -19.3551674 214.241013
-3343.7002 -40.5940399 212.91423
-3350.63232 -39.6227875 212.91423
-3348.99316 -77.0216675 209.254425
-3355.99023 -76.8218689 209.254425
-3348.41113 -206.312057 209.449921
-3355.4104 -206.215714 209.449921
-3351.26416 -241.73288 205.017975
-3358.25098 -241.304657 205.017975
-3353.05225 -282.093842 204.154404
-3360.04541 -281.783905 204.154404
3 0 1 2
3 1 3 2
3 2 3 4
3 3 5 4
3 4 5 6
3 5 7 6
3 6 7 8
3 7 9 8
3 8 9 10
3 9 11 10
3 10 11 12
3 11 13 12
3 12 13 14
3 13 15 14
3 14 15 16
3 15 17 16
3 16 17 18
3 17 19 18
3 18 19 20
3 19 21 20
