ply
format ascii 1.0
element vertex 12
property float x
property float y
property float z
element face 20
property list uchar int vertex_indices
end_header
-14.7854071 -1220.57373 227.915573
-1.36525369 -1218.84827 227.915573
-2.9338429 -1206.70325 227.915573
-11.3190184 -1207.78308 227.915573
-10.5928192 -1213.43811 227.915573
-15.6277971 -1214.09485 227.915573
-14.7854071 -1220.57373 235.915573
-1.36525369 -1218.84827 235.915573
-2.9338429 -1206.70325 235.915573
-11.3190184 -1207.78308 235.915573
-10.5928192 -1213.43811 235.915573
-15.6277971 -1214.09485 235.915573
3 10 11 6
3 0 5 4
3 6 7 8
3 2 1 0
3 8 9 10
3 4 3 2
3 10 6 8
3 2 0 4
3 0 1 7
3 0 7 6
3 1 2 8
3 1 8 7
3 2 3 9
3 2 9 8
3 3 4 10
3 3 10 9
3 4 5 11
3 4 11 10
3 5 0 6
3 5 6 11
