ply
format ascii 1.0
element vertex 24
property float x
property float y
property float z
element face 44
property list uchar int vertex_indices
end_header
-431.730011 -282.150391 240.773071
-422.492767 -297.056061 247.438522
-435.031799 -304.826172 240.773071
-444.269043 -289.93161 240.773071
-442.652039 -288.929749 240.773071
-446.951141 -282.005676 240.773071
-456.052826 -267.311493 239.725281
-450.36911 -263.782654 239.725281
-441.664398 -258.394806 239.725281
-432.55304 -273.07785 239.725281
-441.257721 -278.476837 240.773071
-436.968323 -285.400909 240.773071
-431.730011 -282.150391 248.773071
-422.492767 -297.056061 255.438522
-435.031799 -304.826172 248.773071
-444.269043 -289.93161 248.773071
-442.652039 -288.929749 248.773071
-446.951141 -282.005676 248.773071
-456.052826 -267.311493 247.725281
-450.36911 -263.782654 247.725281
-441.664398 -258.394806 247.725281
-432.55304 -273.07785 247.725281
-441.257721 -278.476837 248.773071
-436.968323 -285.400909 248.773071
3 13 12 23
3 11 0 1
3 22 21 20
3 8 9 10
3 20 19 18
3 6 7 8
3 18 17 16
3 4 5 6
3 16 15 14
3 2 3 4
3 14 13 23
3 11 1 2
3 22 20 18
3 6 8 10
3 16 14 23
3 11 2 4
3 23 22 18
3 6 10 11
3 18 16 23
3 11 4 6
3 0 1 13
3 0 13 12
3 1 2 14
3 1 14 13
3 2 3 15
3 2 15 14
3 3 4 16
3 3 16 15
3 4 5 17
3 4 17 16
3 5 6 18
3 5 18 17
3 6 7 19
3 6 19 18
3 7 8 20
3 7 20 19
3 8 9 21
3 8 21 20
3 9 10 22
3 9 22 21
3 10 11 23
3 10 23 22
3 11 0 12
3 11 12 23
