ply
format ascii 1.0
element vertex 10
property float x
property float y
property float z
element face 8
property list uchar int vertex_indices
end_header
865.849304 1086.70557 216.693604
866.202576 1084.73694 216.693604
907.370178 1094.14587 216.495728
907.429565 1092.14673 216.495728
910.192017 1087.96533 216.495728
910.978882 1086.12659 216.495728
921.498108 1100.15845 222.752045
923.007996 1098.8468 222.752045
962.623474 1148.47461 226.300354
964.146484 1147.17822 226.300354
3 0 1 2
3 1 3 2
3 2 3 4
3 3 5 4
3 4 5 6
3 5 7 6
3 6 7 8
3 7 9 8
