ply
format ascii 1.0
element vertex 82
property float x
property float y
property float z
element face 80
property list uchar int vertex_indices
end_header
3233.07495 -1836.48816 277.517242
3229.10645 -1836.98828 277.517242
3238.11572 -1876.5896 277.808258
3234.11621 -1876.63611 277.808258
3233.87305 -1910.599 280.650208
3230.01245 -1909.552 280.650208
3219.68677 -1944.60413 276.490204
3216.19653 -1942.65015 276.490204
3169.77441 -2025.21179 286.077148
3166.37744 -2023.09961 286.077148
3142.82788 -2068.20752 297.322754
3139.29492 -2066.33203 297.322754
3140.08521 -2080.39844 296.250793
3136.11182 -2080.85767 296.250793
3145.76025 -2092.24536 296.250793
3142.38501 -2094.39185 296.250793
3170.19287 -2127.37842 290.939301
3166.98535 -2129.76831 290.939301
3201.17847 -2166.65088 281.754272
3198.33667 -2169.46582 281.754272
3225.45654 -2183.14917 288.892792
3222.87866 -2186.20776 288.892792
3247.46777 -2205.68066 285.321167
3244.49731 -2208.35962 285.321167
3264.38599 -2226.28979 286.675903
3261.29419 -2228.82764 286.675903
3276.22461 -2240.72705 286.675903
3272.8877 -2242.93262 286.675903
3312.10474 -2298.46143 290.600311
3308.67847 -2300.52515 290.600311
3316.94629 -2308.4231 290.600311
3313.15161 -2309.68823 290.600311
3318.62695 -2318.22339 290.600311
3314.62744 -2318.16675 290.600311
3316.47998 -2328.56689 294.047546
3313.09497 -2326.43579 294.047546
3308.74927 -2333.97974 297.971405
3306.84399 -2330.46289 297.971405
3297.92554 -2338.90625 297.971405
3296.26904 -2335.26538 297.971405
3285.93188 -2344.3584 297.971405
3283.95923 -2340.87866 297.971405
3196.75342 -2396.26782 309.895935
3194.53149 -2392.94165 309.895935
3149.31079 -2435.57275 310.941589
3146.46436 -2432.76245 310.941589
3121.58643 -2472.39746 309.466339
3118.22314 -2470.23242 309.466339
3103.8457 -2506.12891 317.788483
3101.24194 -2503.09229 317.788483
3058.30933 -2526.65088 312.250946
3056.67163 -2523.00146 312.250946
3052.28223 -2529.24561 312.250946
3049.56885 -2526.30664 312.250946
3036.56641 -2546.85327 0.0299999993
3033.58374 -2544.18774 0.0299999993
3030.67676 -2553.17627 0.0299999993
3026.8667 -2551.95776 0.0299999993
3022.8728 -2590.07788 0.0299999993
3018.88794 -2589.72925 0.0299999993
3022.80225 -2643.4104 0.0299999993
3018.93921 -2642.37305 0.0299999993
2996.48926 -2688.23242 0.0299999993
2992.96582 -2686.33936 0.0299999993
2951.99512 -2775.30249 0.0299999993
2948.39893 -2773.55127 0.0299999993
2920.07983 -2845.13916 0.0299999993
2916.44727 -2843.46484 0.0299999993
2901.79468 -2883.86914 0.0299999993
2899.04224 -2880.96655 0.0299999993
2826.70801 -2933.8186 0.0299999993
2824.59009 -2930.42529 0.0299999993
2815.4353 -2937.75366 0.0299999993
2814.13477 -2933.97095 0.0299999993
2810.06274 -2939.42676 0.0299999993
2810.34766 -2935.43701 0.0299999993
2778.36816 -2935.26562 0.0299999993
2778.58228 -2931.27148 0.0299999993
2752.7688 -2936.26147 0.0299999993
2751.75977 -2932.39087 0.0299999993
2741.0564 -2944.94946 0.0299999993
2738.70386 -2941.71436 0.0299999993
3 0 1 2
3 1 3 2
3 2 3 4
3 3 5 4
3 4 5 6
3 5 7 6
3 6 7 8
3 7 9 8
3 8 9 10
3 9 11 10
3 10 11 12
3 11 13 12
3 12 13 14
3 13 15 14
3 14 15 16
3 15 17 16
3 16 17 18
3 17 19 18
3 18 19 20
3 19 21 20
3 20 21 22
3 21 23 22
3 22 23 24
3 23 25 24
3 24 25 26
3 25 27 26
3 26 27 28
3 27 29 28
3 28 29 30
3 29 31 30
3 30 31 32
3 31 33 32
3 32 33 34
3 33 35 34
3 34 35 36
3 35 37 36
3 36 37 38
3 37 39 38
3 38 39 40
3 39 41 40
3 40 41 42
3 41 43 42
3 42 43 44
3 43 45 44
3 44 45 46
3 45 47 46
3 46 47 48
3 47 49 48
3 48 49 50
3 49 51 50
3 50 51 52
3 51 53 52
3 52 53 54
3 53 55 54
3 54 55 56
3 55 57 56
3 56 57 58
3 57 59 58
3 58 59 60
3 59 61 60
3 60 61 62
3 61 63 62
3 62 63 64
3 63 65 64
3 64 65 66
3 65 67 66
3 66 67 68
3 67 69 68
3 68 69 70
3 69 71 70
3 70 71 72
3 71 73 72
3 72 73 74
3 73 75 74
3 74 75 76
3 75 77 76
3 76 77 78
3 77 79 78
3 78 79 80
3 79 81 80
