ply
format ascii 1.0
element vertex 20
property float x
property float y
property float z
element face 18
property list uchar int vertex_indices
end_header
-1555.63037 -364.625671 266.614685
-1558.01953 -362.067963 266.614685
-1559.78796 -368.498047 275.556122
-1561.91785 -365.720795 275.556122
-1563.82959 -370.886292 275.556122
-1565.4093 -367.763062 275.556122
-1567.05957 -372.175262 275.556122
-1568.02759 -368.811798 275.556122
-1571.99927 -373.256409 273.316376
-1572.55762 -369.801208 273.316376
-1595.53113 -376.781158 277.934265
-1595.77356 -373.289581 277.934265
-1601.28674 -374.941559 277.934265
-1599.37134 -372.012238 277.934265
-1604.14429 -370.855865 284.899261
-1600.67737 -370.376099 284.899261
-1605.05994 -351.85675 284.899261
-1601.56262 -351.994141 284.899261
-1603.06458 -343.582184 284.899261
-1599.66553 -344.416809 284.899261
3 0 1 2
3 1 3 2
3 2 3 4
3 3 5 4
3 4 5 6
3 5 7 6
3 6 7 8
3 7 9 8
3 8 9 10
3 9 11 10
3 10 11 12
3 11 13 12
3 12 13 14
3 13 15 14
3 14 15 16
3 15 17 16
3 16 17 18
3 17 19 18
