ply
format ascii 1.0
element vertex 22
property float x
property float y
property float z
element face 40
property list uchar int vertex_indices
end_header
1737.22241 -869.282776 225.850754
1759.81201 -860.098938 225.918579
1776.70825 -876.440613 224.382507
1778.90613 -885.44635 224.382507
1778.90613 -890.221985 224.382507
1775.93359 -893.472473 224.382507
1749.16101 -904.359558 223.498489
1745.52039 -895.409485 225.850754
1753.77002 -892.058716 224.616669
1747.72803 -877.197571 225.850754
1741.47302 -879.735657 225.850754
1737.22241 -869.282776 233.850754
1759.81201 -860.098938 233.918579
1776.70825 -876.440613 232.382507
1778.90613 -885.44635 232.382507
1778.90613 -890.221985 232.382507
1775.93359 -893.472473 232.382507
1749.16101 -904.359558 231.498489
1745.52039 -895.409485 233.850754
1753.77002 -892.058716 232.616669
1747.72803 -877.197571 233.850754
1741.47302 -879.735657 233.850754
3 12 11 21
3 10 0 1
3 19 18 17
3 6 7 8
3 17 16 15
3 4 5 6
3 15 14 13
3 2 3 4
3 12 21 20
3 9 10 1
3 19 17 15
3 4 6 8
3 15 13 12
3 1 2 4
3 12 20 19
3 8 9 1
3 19 15 12
3 1 4 8
3 0 1 12
3 0 12 11
3 1 2 13
3 1 13 12
3 2 3 14
3 2 14 13
3 3 4 15
3 3 15 14
3 4 5 16
3 4 16 15
3 5 6 17
3 5 17 16
3 6 7 18
3 6 18 17
3 7 8 19
3 7 19 18
3 8 9 20
3 8 20 19
3 9 10 21
3 9 21 20
3 10 0 11
3 10 11 21
