ply
format ascii 1.0
element vertex 14
property float x
property float y
property float z
element face 12
property list uchar int vertex_indices
end_header
-1244.83533 -1150.09094 200.519806
-1244.9613 -1154.08899 200.519806
-1232.875 -1150.46838 199.506897
-1232.8894 -1154.46838 199.506897
-1210.95923 -1150.21753 199.506897
-1210.67151 -1154.20715 199.506897
-1183.31604 -1146.89392 200.814377
-1182.73645 -1150.85168 200.814377
-1153.60388 -1141.81677 204.94397
-1152.78406 -1145.73193 204.94397
-1130.57593 -1135.85205 204.94397
-1129.47083 -1139.69641 204.94397
-1033.51941 -1107.29102 224.139313
-1032.39014 -1111.1283 224.139313
3 0 1 2
3 1 3 2
3 2 3 4
3 3 5 4
3 4 5 6
3 5 7 6
3 6 7 8
3 7 9 8
3 8 9 10
3 9 11 10
3 10 11 12
3 11 13 12
