ply
format ascii 1.0
element vertex 8
property float x
property float y
property float z
element face 12
property list uchar int vertex_indices
end_header
-2031.4491 -328.937958 230.222321
-2014.02991 -321.813507 235.507187
-2001.17139 -353.239014 232.392883
-2018.59045 -360.363464 228.879303
-2031.4491 -328.937958 233.422318
-2014.02991 -321.813507 238.707184
-2001.17139 -353.239014 235.59288
-2018.59045 -360.363464 232.0793
3 5 4 7
3 3 0 1
3 7 6 5
3 1 2 3
3 0 1 5
3 0 5 4
3 1 2 6
3 1 6 5
3 2 3 7
3 2 7 6
3 3 0 4
3 3 4 7
