ply
format ascii 1.0
element vertex 8
property float x
property float y
property float z
element face 12
property list uchar int vertex_indices
end_header
-1804.98157 88.1650391 258.033691
-1742.39294 84.2688522 254.544968
-1743.47729 66.7471695 254.544968
-1806.06604 70.6433487 258.033691
-1804.98157 88.1650391 261.233704
-1742.39294 84.2688522 257.744965
-1743.47729 66.7471695 257.744965
-1806.06604 70.6433487 261.233704
3 5 4 7
3 3 0 1
3 7 6 5
3 1 2 3
3 0 1 5
3 0 5 4
3 1 2 6
3 1 6 5
3 2 3 7
3 2 7 6
3 3 0 4
3 3 4 7
