ply
format ascii 1.0
element vertex 36
property float x
property float y
property float z
element face 68
property list uchar int vertex_indices
end_header
3369.59131 2494.99268 269.594696
3368.80713 2489.80518 269.594696
3362.31958 2491.09644 267.988617
3360.08301 2473.21851 270.617706
3365.95068 2472.30566 271.540955
3363.81079 2456.83228 271.540955
3354.85425 2458.19043 270.617706
3350.24536 2433.72241 267.852173
3365.4375 2431.25098 269.634247
3370.88867 2425.79639 269.634247
3379.45801 2425.28442 269.634247
3385.30615 2429.04688 269.634247
3388.81128 2437.99707 269.634247
3389.58594 2445.27734 277.769958
3376.60156 2447.22534 271.540955
3380.36816 2473.83081 269.594696
3405.94971 2470.71387 277.769958
3408.2832 2487.72339 271.746552
3369.59131 2494.99268 277.594696
3368.80713 2489.80518 277.594696
3362.31958 2491.09644 275.988617
3360.08301 2473.21851 278.617706
3365.95068 2472.30566 279.540955
3363.81079 2456.83228 279.540955
3354.85425 2458.19043 278.617706
3350.24536 2433.72241 275.852173
3365.4375 2431.25098 277.634247
3370.88867 2425.79639 277.634247
3379.45801 2425.28442 277.634247
3385.30615 2429.04688 277.634247
3388.81128 2437.99707 277.634247
3389.58594 2445.27734 285.769958
3376.60156 2447.22534 279.540955
3380.36816 2473.83081 277.594696
3405.94971 2470.71387 285.769958
3408.2832 2487.72339 279.746552
3 34 35 18
3 0 17 16
3 19 20 21
3 3 2 1
3 23 24 25
3 7 6 5
3 26 27 28
3 10 9 8
3 28 29 30
3 12 11 10
3 30 31 32
3 14 13 12
3 33 34 18
3 0 16 15
3 19 21 22
3 4 3 1
3 23 25 26
3 8 7 5
3 26 28 30
3 12 10 8
3 32 33 18
3 0 15 14
3 19 22 23
3 5 4 1
3 23 26 30
3 12 8 5
3 32 18 19
3 1 0 14
3 23 30 32
3 14 12 5
3 32 19 23
3 5 1 14
3 0 1 19
3 0 19 18
3 1 2 20
3 1 20 19
3 2 3 21
3 2 21 20
3 3 4 22
3 3 22 21
3 4 5 23
3 4 23 22
3 5 6 24
3 5 24 23
3 6 7 25
3 6 25 24
3 7 8 26
3 7 26 25
3 8 9 27
3 8 27 26
3 9 10 28
3 9 28 27
3 10 11 29
3 10 29 28
3 11 12 30
3 11 30 29
3 12 13 31
3 12 31 30
3 13 14 32
3 13 32 31
3 14 15 33
3 14 33 32
3 15 16 34
3 15 34 33
3 16 17 35
3 16 35 34
3 17 0 18
3 17 18 35
