ply
format ascii 1.0
element vertex 16
property float x
property float y
property float z
element face 14
property list uchar int vertex_indices
end_header
-3219.30005 526.831421 228.602692
-3215.32471 527.275085 228.602692
-3220.26172 535.514221 228.602692
-3216.33813 536.292114 228.602692
-3221.2959 537.659546 228.602692
-3217.97607 539.890869 228.602692
-3222.3042 538.758789 228.602692
-3220.55054 542.353821 228.602692
-3224.48901 539.146301 228.602692
-3224.50464 543.146301 228.602692
-3226.34546 538.720398 230.246063
-3228.03149 542.347717 230.246063
-3227.47095 537.763489 230.246063
-3230.52759 540.343567 230.246063
-3228.99438 535.322937 230.246063
-3232.37378 537.462952 230.246063
3 0 1 2
3 1 3 2
3 2 3 4
3 3 5 4
3 4 5 6
3 5 7 6
3 6 7 8
3 7 9 8
3 8 9 10
3 9 11 10
3 10 11 12
3 11 13 12
3 12 13 14
3 13 15 14
