ply
format ascii 1.0
element vertex 30
property float x
property float y
property float z
element face 28
property list uchar int vertex_indices
end_header
293.746765 127.508728 214.009811
293.835175 119.509216 214.009811
338.023956 127.998077 209.292786
338.173584 119.999481 209.292786
378.849701 129.100708 204.249359
378.91449 121.100975 204.249359
393.378326 128.433395 204.249359
392.794769 120.454712 204.249359
406.501648 127.084427 206.615555
405.446686 119.154289 206.615555
420.027405 124.888954 206.615555
418.528809 117.030563 206.615555
443.520813 120.022621 209.206497
441.512146 112.278893 209.206497
469.812897 111.95108 214.279007
466.847931 104.520805 214.279007
538.452942 82.1734772 220.56221
535.275513 74.8315353 220.56221
548.658325 77.8304825 216.527603
545.423035 70.5138702 216.527603
555.798157 74.5029678 216.527603
552.419861 67.2512741 216.527603
604.549194 51.7921791 207.737717
600.979492 44.6327629 207.737717
616.430969 44.2208138 207.737717
611.813232 37.6880684 207.737717
626.784363 36.1110458 202.506622
621.580383 30.034996 202.506622
633.27533 29.8060703 204.946991
627.696167 24.0725632 204.946991
3 0 1 2
3 1 3 2
3 2 3 4
3 3 5 4
3 4 5 6
3 5 7 6
3 6 7 8
3 7 9 8
3 8 9 10
3 9 11 10
3 10 11 12
3 11 13 12
3 12 13 14
3 13 15 14
3 14 15 16
3 15 17 16
3 16 17 18
3 17 19 18
3 18 19 20
3 19 21 20
3 20 21 22
3 21 23 22
3 22 23 24
3 23 25 24
3 24 25 26
3 25 27 26
3 26 27 28
3 27 29 28
