ply
format ascii 1.0
element vertex 22
property float x
property float y
property float z
element face 20
property list uchar int vertex_indices
end_header
1435.76599 8.31403351 272.969513
1429.79492 13.6381693 272.969513
1427.41821 -1.04708982 268.343201
1421.54675 4.3866744 268.343201
1423.20215 -5.23553944 266.840546
1417.8811 0.738231957 266.840546
1417.1521 -10.1885462 266.840546
1412.4668 -3.70412612 266.840546
1410.21155 -14.5940371 266.840546
1406.52954 -7.49174976 266.840546
1382.31628 -28.2909336 263.941376
1379.02063 -21.0013371 263.941376
1330.1875 -50.7797852 257.993988
1327.00281 -43.4410324 257.993988
1304.7572 -61.9494514 255.062683
1301.54114 -54.624321 255.062683
1192.31018 -111.309174 270.491028
1188.80835 -104.116302 270.491028
1104.06958 -159.650192 266.913269
1100.20508 -152.645508 266.913269
1081.87976 -172.239441 266.913269
1077.93213 -165.28125 266.913269
3 0 1 2
3 1 3 2
3 2 3 4
3 3 5 4
3 4 5 6
3 5 7 6
3 6 7 8
3 7 9 8
3 8 9 10
3 9 11 10
3 10 11 12
3 11 13 12
3 12 13 14
3 13 15 14
3 14 15 16
3 15 17 16
3 16 17 18
3 17 19 18
3 18 19 20
3 19 21 20
