ply
format ascii 1.0
element vertex 20
property float x
property float y
property float z
element face 36
property list uchar int vertex_indices
end_header
-2693.31641 -1376.81055 351.725128
-2661.66382 -1379.91638 350.363678
-2661.92505 -1388.23193 350.363678
-2640.62329 -1387.97595 350.363678
-2634.13599 -1425.11206 344.272003
-2679.32495 -1432.39246 342.842773
-2681.1355 -1425.37927 342.842773
-2683.99194 -1426.15857 342.842773
-2685.0376 -1416.54053 346.49588
-2695.427 -1416.54053 351.051544
-2693.31641 -1376.81055 359.725128
-2661.66382 -1379.91638 358.363678
-2661.92505 -1388.23193 358.363678
-2640.62329 -1387.97595 358.363678
-2634.13599 -1425.11206 352.272003
-2679.32495 -1432.39246 350.842773
-2681.1355 -1425.37927 350.842773
-2683.99194 -1426.15857 350.842773
-2685.0376 -1416.54053 354.49588
-2695.427 -1416.54053 359.051544
3 11 10 19
3 9 0 1
3 18 17 16
3 6 7 8
3 16 15 14
3 4 5 6
3 14 13 12
3 2 3 4
3 12 11 19
3 9 1 2
3 18 16 14
3 4 6 8
3 12 19 18
3 8 9 2
3 18 14 12
3 2 4 8
3 0 1 11
3 0 11 10
3 1 2 12
3 1 12 11
3 2 3 13
3 2 13 12
3 3 4 14
3 3 14 13
3 4 5 15
3 4 15 14
3 5 6 16
3 5 16 15
3 6 7 17
3 6 17 16
3 7 8 18
3 7 18 17
3 8 9 19
3 8 19 18
3 9 0 10
3 9 10 19
