ply
format ascii 1.0
element vertex 28
property float x
property float y
property float z
element face 52
property list uchar int vertex_indices
end_header
2016.37317 285.790527 231.02829
2035.08008 298.647919 237.743347
2040.53137 290.710846 237.743347
2036.57117 287.994659 237.743347
2042.73901 279.011169 237.743347
2046.37 281.515869 241.153091
2053.00269 271.864471 236.562256
2042.47754 264.628693 233.760391
2038.91443 269.816193 233.760391
2031.17798 264.495117 233.760391
2025.77502 272.354279 233.760391
2033.58887 277.730988 233.760391
2029.75464 283.308105 237.743347
2021.83423 277.864594 233.760391
2016.37317 285.790527 269.428284
2035.08008 298.647919 276.143341
2040.53137 290.710846 276.143341
2036.57117 287.994659 276.143341
2042.73901 279.011169 276.143341
2046.37 281.515869 279.553101
2053.00269 271.864471 274.96225
2042.47754 264.628693 272.1604
2038.91443 269.816193 272.1604
2031.17798 264.495117 272.1604
2025.77502 272.354279 272.1604
2033.58887 277.730988 272.1604
2029.75464 283.308105 276.143341
2021.83423 277.864594 272.1604
3 15 14 27
3 13 0 1
3 25 24 23
3 9 10 11
3 22 21 20
3 6 7 8
3 20 19 18
3 4 5 6
3 17 16 15
3 1 2 3
3 15 27 26
3 12 13 1
3 25 23 22
3 8 9 11
3 22 20 18
3 4 6 8
3 17 15 26
3 12 1 3
3 25 22 18
3 4 8 11
3 18 17 26
3 12 3 4
3 26 25 18
3 4 11 12
3 0 1 15
3 0 15 14
3 1 2 16
3 1 16 15
3 2 3 17
3 2 17 16
3 3 4 18
3 3 18 17
3 4 5 19
3 4 19 18
3 5 6 20
3 5 20 19
3 6 7 21
3 6 21 20
3 7 8 22
3 7 22 21
3 8 9 23
3 8 23 22
3 9 10 24
3 9 24 23
3 10 11 25
3 10 25 24
3 11 12 26
3 11 26 25
3 12 13 27
3 12 27 26
3 13 0 14
3 13 14 27
