ply
format ascii 1.0
element vertex 10
property float x
property float y
property float z
element face 8
property list uchar int vertex_indices
end_header
-1388.17676 -582.707886 263.237457
-1387.02576 -586.013184 263.237457
-1326.20105 -561.13562 257.711243
-1324.71497 -564.304443 257.711243
-1319.08972 -550.827637 259.161987
-1315.83057 -552.103577 259.161987
-1320.08972 -545.31427 259.161987
-1316.76709 -544.214111 259.161987
-1338.29028 -494.121185 257.990356
-1334.99255 -492.948761 257.990356
3 0 1 2
3 1 3 2
3 2 3 4
3 3 5 4
3 4 5 6
3 5 7 6
3 6 7 8
3 7 9 8
