ply
format ascii 1.0
element vertex 18
property float x
property float y
property float z
element face 16
property list uchar int vertex_indices
end_header
-3296.9563 37.3922157 209.379242
-3300.9563 37.3922157 209.379242
-3296.97778 34.3005638 209.379242
-3300.93481 33.7156448 209.379242
-3296.00708 30.3827038 210.111374
-3299.5625 28.5498352 210.111374
-3293.00171 26.6048908 210.111374
-3295.80957 23.7560463 210.111374
-3287.47607 22.0924263 210.111374
-3289.90942 18.9176731 210.111374
-3286.28394 21.4493999 210.111374
-3288.23535 17.9576988 210.111374
-3282.34961 19.235611 210.111374
-3283.88159 15.5405979 210.111374
-3277.52441 17.7909126 210.664673
-3278.30762 13.86835 210.664673
-3271.85742 17.1718616 210.664673
-3272.29712 13.1960964 210.664673
3 0 1 2
3 1 3 2
3 2 3 4
3 3 5 4
3 4 5 6
3 5 7 6
3 6 7 8
3 7 9 8
3 8 9 10
3 9 11 10
3 10 11 12
3 11 13 12
3 12 13 14
3 13 15 14
3 14 15 16
3 15 17 16
