ply
format ascii 1.0
element vertex 14
property float x
property float y
property float z
element face 12
property list uchar int vertex_indices
end_header
744.614868 -374.52356 263.769623
749.727905 -372.497009 263.769623
714.788208 -299.2659 277.018799
719.83197 -297.072601 277.018799
698.809448 -269.037933 272.940155
703.276978 -265.829956 272.940155
695.690979 -269.283417 271.391754
693.749939 -264.137329 271.391754
669.850708 -281.834961 274.1586
665.832153 -278.079803 274.1586
643.203613 -325.658386 277.733612
638.198303 -323.378754 277.733612
625.895691 -378.650696 268.148376
620.66803 -376.941498 268.148376
3 0 1 2
3 1 3 2
3 2 3 4
3 3 5 4
3 4 5 6
3 5 7 6
3 6 7 8
3 7 9 8
3 8 9 10
3 9 11 10
3 10 11 12
3 11 13 12
