ply
format ascii 1.0
element vertex 24
property float x
property float y
property float z
element face 44
property list uchar int vertex_indices
end_header
1328.06262 -1250.93054 212.529053
1333.2041 -1245.92114 212.529053
1331.6355 -1244.30701 212.529053
1326.9104 -1248.91565 212.529053
1317.41174 -1239.17517 220.207718
1339.26538 -1217.86865 217.11763
1348.76416 -1227.60913 216.385941
1344.57153 -1231.69446 217.11763
1346.14014 -1233.30859 216.385941
1349.6936 -1229.84656 216.385941
1360.56726 -1241.01196 212.604874
1338.94592 -1262.08472 212.529053
1328.06262 -1250.93054 220.529053
1333.2041 -1245.92114 220.529053
1331.6355 -1244.30701 220.529053
1326.9104 -1248.91565 220.529053
1317.41174 -1239.17517 228.207718
1339.26538 -1217.86865 225.11763
1348.76416 -1227.60913 224.385941
1344.57153 -1231.69446 225.11763
1346.14014 -1233.30859 224.385941
1349.6936 -1229.84656 224.385941
1360.56726 -1241.01196 220.604874
1338.94592 -1262.08472 220.529053
3 13 12 23
3 11 0 1
3 23 22 21
3 9 10 11
3 19 18 17
3 5 6 7
3 17 16 15
3 3 4 5
3 13 23 21
3 9 11 1
3 17 15 14
3 2 3 5
3 13 21 20
3 8 9 1
3 19 17 14
3 2 5 7
3 14 13 20
3 8 1 2
3 20 19 14
3 2 7 8
3 0 1 13
3 0 13 12
3 1 2 14
3 1 14 13
3 2 3 15
3 2 15 14
3 3 4 16
3 3 16 15
3 4 5 17
3 4 17 16
3 5 6 18
3 5 18 17
3 6 7 19
3 6 19 18
3 7 8 20
3 7 20 19
3 8 9 21
3 8 21 20
3 9 10 22
3 9 22 21
3 10 11 23
3 10 23 22
3 11 0 12
3 11 12 23
