ply
format ascii 1.0
element vertex 8
property float x
property float y
property float z
element face 12
property list uchar int vertex_indices
end_header
-1347.8927 -340.236877 249.175751
-1323.99585 -398.022827 246.343552
-1330.70593 -400.794708 246.343552
-1354.59302 -343.008759 249.175751
-1347.8927 -340.236877 252.375748
-1323.99585 -398.022827 249.543549
-1330.70593 -400.794708 249.543549
-1354.59302 -343.008759 252.375748
3 5 4 7
3 3 0 1
3 7 6 5
3 1 2 3
3 0 1 5
3 0 5 4
3 1 2 6
3 1 6 5
3 2 3 7
3 2 7 6
3 3 0 4
3 3 4 7
