ply
format ascii 1.0
element vertex 16
property float x
property float y
property float z
element face 14
property list uchar int vertex_indices
end_header
-1299.8739 -581.953308 251.556946
-1299.64648 -588.949646 251.556946
-1293.89832 -581.794189 251.556946
-1294.66138 -588.752502 251.556946
-1287.71716 -583.567688 248.091446
-1291.29553 -589.583923 248.091446
-1282.0415 -588.751404 250.427582
-1287.54028 -593.083069 250.427582
-1277.86963 -595.950195 250.427582
-1284.41138 -598.441101 250.427582
-1276.22961 -603.94696 250.427582
-1283.20471 -604.537415 250.427582
-1276.01123 -616.324951 250.427582
-1282.95825 -617.184082 250.427582
-1272.26001 -636.084839 256.27301
-1279.1377 -637.387878 256.27301
3 0 1 2
3 1 3 2
3 2 3 4
3 3 5 4
3 4 5 6
3 5 7 6
3 6 7 8
3 7 9 8
3 8 9 10
3 9 11 10
3 10 11 12
3 11 13 12
3 12 13 14
3 13 15 14
