ply
format ascii 1.0
element vertex 58
property float x
property float y
property float z
element face 112
property list uchar int vertex_indices
end_header
1141.93298 -227.436859 273.313385
1139.54138 -233.526031 273.313385
1138.82495 -241.774796 273.313385
1140.29663 -248.643219 277.128387
1143.5791 -254.865967 277.128387
1149.07886 -260.476471 277.128387
1156.9895 -264.4617 277.128387
1164.94873 -265.541504 277.833649
1174.18591 -263.571167 277.833649
1181.15747 -259.207428 277.833649
1187.53833 -250.658096 274.847809
1201.98486 -258.07196 274.847809
1196.18494 -266.031311 274.847809
1191.10156 -270.840332 274.847809
1182.04822 -276.350647 277.833649
1176.06433 -278.487976 277.914062
1170.19666 -279.634552 277.914062
1164.76477 -279.946259 277.914062
1158.52905 -279.411926 277.914062
1149.27246 -276.795929 277.128387
1143.15308 -273.645569 277.128387
1136.58826 -268.580536 277.128387
1130.52686 -261.422699 277.128387
1127.1283 -255.300125 274.064423
1124.59143 -247.863983 274.064423
1123.48755 -240.260864 271.809692
1123.66187 -233.514893 271.809692
1125.07556 -226.334793 271.809692
1127.45752 -220.045242 271.809692
1141.93298 -227.436859 281.313385
1139.54138 -233.526031 281.313385
1138.82495 -241.774796 281.313385
1140.29663 -248.643219 285.128387
1143.5791 -254.865967 285.128387
1149.07886 -260.476471 285.128387
1156.9895 -264.4617 285.128387
1164.94873 -265.541504 285.833649
1174.18591 -263.571167 285.833649
1181.15747 -259.207428 285.833649
1187.53833 -250.658096 282.847809
1201.98486 -258.07196 282.847809
1196.18494 -266.031311 282.847809
1191.10156 -270.840332 282.847809
1182.04822 -276.350647 285.833649
1176.06433 -278.487976 285.914062
1170.19666 -279.634552 285.914062
1164.76477 -279.946259 285.914062
1158.52905 -279.411926 285.914062
1149.27246 -276.795929 285.128387
1143.15308 -273.645569 285.128387
1136.58826 -268.580536 285.128387
1130.52686 -261.422699 285.128387
1127.1283 -255.300125 282.064423
1124.59143 -247.863983 282.064423
1123.48755 -240.260864 279.809692
1123.66187 -233.514893 279.809692
1125.07556 -226.334793 279.809692
1127.45752 -220.045242 279.809692
3 30 29 57
3 28 0 1
3 57 56 55
3 26 27 28
3 55 54 53
3 24 25 26
3 53 52 51
3 22 23 24
3 51 50 49
3 20 21 22
3 49 48 47
3 18 19 20
3 47 46 45
3 16 17 18
3 45 44 43
3 14 15 16
3 43 42 41
3 12 13 14
3 41 40 39
3 10 11 12
3 31 30 57
3 28 1 2
3 57 55 53
3 24 26 28
3 53 51 49
3 20 22 24
3 49 47 45
3 16 18 20
3 45 43 41
3 12 14 16
3 41 39 38
3 9 10 12
3 32 31 57
3 28 2 3
3 57 53 49
3 20 24 28
3 49 45 41
3 12 16 20
3 41 38 37
3 8 9 12
3 32 57 49
3 20 28 3
3 49 41 37
3 8 12 20
3 33 32 49
3 20 3 4
3 49 37 36
3 7 8 20
3 34 33 49
3 20 4 5
3 49 36 35
3 6 7 20
3 35 34 49
3 20 5 6
3 0 1 30
3 0 30 29
3 1 2 31
3 1 31 30
3 2 3 32
3 2 32 31
3 3 4 33
3 3 33 32
3 4 5 34
3 4 34 33
3 5 6 35
3 5 35 34
3 6 7 36
3 6 36 35
3 7 8 37
3 7 37 36
3 8 9 38
3 8 38 37
3 9 10 39
3 9 39 38
3 10 11 40
3 10 40 39
3 11 12 41
3 11 41 40
3 12 13 42
3 12 42 41
3 13 14 43
3 13 43 42
3 14 15 44
3 14 44 43
3 15 16 45
3 15 45 44
3 16 17 46
3 16 46 45
3 17 18 47
3 17 47 46
3 18 19 48
3 18 48 47
3 19 20 49
3 19 49 48
3 20 21 50
3 20 50 49
3 21 22 51
3 21 51 50
3 22 23 52
3 22 52 51
3 23 24 53
3 23 53 52
3 24 25 54
3 24 54 53
3 25 26 55
3 25 55 54
3 26 27 56
3 26 56 55
3 27 28 57
3 27 57 56
3 28 0 29
3 28 29 57
