ply
format ascii 1.0
element vertex 20
property float x
property float y
property float z
element face 36
property list uchar int vertex_indices
end_header
552.375854 -1102.51941 248.010132
552.36615 -1107.39514 248.010132
526.56189 -1107.32837 253.678619
526.571594 -1102.45264 253.678619
501.880798 -1102.39697 257.94104
501.890503 -1098.3894 257.94104
498.240143 -1098.3783 257.94104
498.249817 -1093.70288 257.94104
552.395203 -1093.82532 248.010132
552.385498 -1098.50073 248.010132
552.375854 -1102.51941 256.010132
552.36615 -1107.39514 256.010132
526.56189 -1107.32837 261.678619
526.571594 -1102.45264 261.678619
501.880798 -1102.39697 265.94104
501.890503 -1098.3894 265.94104
498.240143 -1098.3783 265.94104
498.249817 -1093.70288 265.94104
552.395203 -1093.82532 256.010132
552.385498 -1098.50073 256.010132
3 10 19 18
3 8 9 0
3 18 17 16
3 6 7 8
3 15 14 13
3 3 4 5
3 13 12 11
3 1 2 3
3 18 16 15
3 5 6 8
3 13 11 10
3 0 1 3
3 10 18 15
3 5 8 0
3 15 13 10
3 0 3 5
3 0 1 11
3 0 11 10
3 1 2 12
3 1 12 11
3 2 3 13
3 2 13 12
3 3 4 14
3 3 14 13
3 4 5 15
3 4 15 14
3 5 6 16
3 5 16 15
3 6 7 17
3 6 17 16
3 7 8 18
3 7 18 17
3 8 9 19
3 8 19 18
3 9 0 10
3 9 10 19
