ply
format ascii 1.0
element vertex 152
property float x
property float y
property float z
element face 300
property list uchar int vertex_indices
end_header
-2732.37598 1937.13721 281.812286
-2736.61719 1932.23914 281.812286
-2743.13354 1926.37268 290.207581
-2749.98877 1920.18335 290.207581
-2756.17603 1914.9624 294.011963
-2760.74634 1907.1366 294.011963
-2774.76685 1884.96179 297.172546
-2781.29297 1875.83362 297.172546
-2788.68066 1868.11914 297.172546
-2784.7688 1864.52356 297.172546
-2794.01587 1854.07068 285.914429
-2798.49902 1857.65515 290.992554
-2894.4541 1762.7998 290.926331
-2896.10962 1761.36377 292.465576
-2897.57178 1761.1189 292.465576
-2899.28564 1761.1189 292.465576
-2900.75732 1761.69775 292.465576
-2903.44922 1764.71448 290.926331
-2921.2168 1783.21582 290.326782
-2927.39429 1786.44409 290.326782
-2934.30786 1792.90063 282.339783
-2936.15723 1799.82471 274.195312
-2932.9231 1804.43323 274.195312
-2930.28955 1809.00854 284.830353
-2929.79565 1813.73962 284.830353
-2931.91626 1817.00122 274.195312
-2936.32178 1821.07556 274.195312
-2939.91406 1825.97363 273.944153
-2946.82739 1828.43372 273.944153
-2951.34912 1837.25024 273.944153
-2948.58008 1848.32654 273.944153
-2945.35571 1856.16345 276.802032
-2940.28198 1862.62 276.802032
-2930.59937 1866.30469 284.554626
-2899.59546 1899.88977 276.256805
-2880.22046 1917.64526 275.260315
-2875.68896 1911.07739 284.09433
-2867.32324 1912.16833 284.09433
-2865.13501 1903.4408 284.09433
-2861.50391 1897.98621 284.09433
-2854.9585 1893.26624 284.09433
-2848.40332 1890.34961 290.285187
-2841.13159 1888.16785 290.285187
-2832.07837 1890.56116 290.285187
-2825.39722 1896.21619 290.285187
-2822.30859 1903.93066 291.276733
-2819.21973 1913.19238 291.276733
-2820.75928 1920.90686 290.990692
-2823.84814 1928.62134 291.234039
-2829.51245 1934.27637 291.234039
-2838.25586 1937.35986 291.234039
-2843.5813 1938.02783 291.234039
-2846.49585 1936.75879 291.234039
-2855.05518 1956.19519 281.960663
-2782.17407 2019.39124 289.446838
-2766.52686 2004.00684 291.463837
-2764.34814 1996.00305 291.463837
-2764.34814 1989.82471 291.463837
-2760.70752 1981.82092 291.463837
-2750.16309 1981.82092 291.463837
-2749.06909 1991.28308 291.463837
-2747.2583 1998.55225 291.463837
-2741.42944 2001.82495 283.631256
-2735.61011 1998.91956 283.631256
-2732.56006 1995.20154 283.631256
-2729.59717 1988.95642 283.631256
-2727.08936 1981.8877 283.631256
-2725.86938 1976.48865 282.495361
-2725.03662 1970.32153 282.495361
-2723.94263 1962.86316 282.495361
-2723.73926 1956.00586 282.495361
-2723.73926 1950.45105 282.495361
-2725.43359 1943.82751 281.812286
-2727.29272 1940.71057 281.812286
-2729.28735 1938.80701 281.812286
-2731.50464 1938.29492 281.812286
-2732.37598 1937.13721 301.012299
-2736.61719 1932.23914 301.012299
-2743.13354 1926.37268 309.407593
-2749.98877 1920.18335 309.407593
-2756.17603 1914.9624 313.211975
-2760.74634 1907.1366 313.211975
-2774.76685 1884.96179 316.372559
-2781.29297 1875.83362 316.372559
-2788.68066 1868.11914 316.372559
-2784.7688 1864.52356 316.372559
-2794.01587 1854.07068 305.114441
-2798.49902 1857.65515 310.192566
-2894.4541 1762.7998 310.126343
-2896.10962 1761.36377 311.665588
-2897.57178 1761.1189 311.665588
-2899.28564 1761.1189 311.665588
-2900.75732 1761.69775 311.665588
-2903.44922 1764.71448 310.126343
-2921.2168 1783.21582 309.526794
-2927.39429 1786.44409 309.526794
-2934.30786 1792.90063 301.539795
-2936.15723 1799.82471 293.395325
-2932.9231 1804.43323 293.395325
-2930.28955 1809.00854 304.030365
-2929.79565 1813.73962 304.030365
-2931.91626 1817.00122 293.395325
-2936.32178 1821.07556 293.395325
-2939.91406 1825.97363 293.144165
-2946.82739 1828.43372 293.144165
-2951.34912 1837.25024 293.144165
-2948.58008 1848.32654 293.144165
-2945.35571 1856.16345 296.002045
-2940.28198 1862.62 296.002045
-2930.59937 1866.30469 303.754639
-2899.59546 1899.88977 295.456818
-2880.22046 1917.64526 294.460327
-2875.68896 1911.07739 303.294342
-2867.32324 1912.16833 303.294342
-2865.13501 1903.4408 303.294342
-2861.50391 1897.98621 303.294342
-2854.9585 1893.26624 303.294342
-2848.40332 1890.34961 309.485199
-2841.13159 1888.16785 309.485199
-2832.07837 1890.56116 309.485199
-2825.39722 1896.21619 309.485199
-2822.30859 1903.93066 310.476746
-2819.21973 1913.19238 310.476746
-2820.75928 1920.90686 310.190704
-2823.84814 1928.62134 310.434052
-2829.51245 1934.27637 310.434052
-2838.25586 1937.35986 310.434052
-2843.5813 1938.02783 310.434052
-2846.49585 1936.75879 310.434052
-2855.05518 1956.19519 301.160675
-2782.17407 2019.39124 308.646851
-2766.52686 2004.00684 310.663849
-2764.34814 1996.00305 310.663849
-2764.34814 1989.82471 310.663849
-2760.70752 1981.82092 310.663849
-2750.16309 1981.82092 310.663849
-2749.06909 1991.28308 310.663849
-2747.2583 1998.55225 310.663849
-2741.42944 2001.82495 302.831268
-2735.61011 1998.91956 302.831268
-2732.56006 1995.20154 302.831268
-2729.59717 1988.95642 302.831268
-2727.08936 1981.8877 302.831268
-2725.86938 1976.48865 301.695374
-2725.03662 1970.32153 301.695374
-2723.94263 1962.86316 301.695374
-2723.73926 1956.00586 301.695374
-2723.73926 1950.45105 301.695374
-2725.43359 1943.82751 301.012299
-2727.29272 1940.71057 301.012299
-2729.28735 1938.80701 301.012299
-2731.50464 1938.29492 301.012299
3 77 76 151
3 75 0 1
3 151 150 149
3 73 74 75
3 149 148 147
3 71 72 73
3 147 146 145
3 69 70 71
3 144 143 142
3 66 67 68
3 142 141 140
3 64 65 66
3 140 139 138
3 62 63 64
3 138 137 136
3 60 61 62
3 133 132 131
3 55 56 57
3 131 130 129
3 53 54 55
3 129 128 127
3 51 52 53
3 114 113 112
3 36 37 38
3 112 111 110
3 34 35 36
3 109 108 107
3 31 32 33
3 107 106 105
3 29 30 31
3 105 104 103
3 27 28 29
3 103 102 101
3 25 26 27
3 98 97 96
3 20 21 22
3 96 95 94
3 18 19 20
3 93 92 91
3 15 16 17
3 91 90 89
3 13 14 15
3 89 88 87
3 11 12 13
3 87 86 85
3 9 10 11
3 84 83 82
3 6 7 8
3 82 81 80
3 4 5 6
3 80 79 78
3 2 3 4
3 78 77 151
3 75 1 2
3 151 149 147
3 71 73 75
3 147 145 144
3 68 69 71
3 144 142 140
3 64 66 68
3 140 138 136
3 60 62 64
3 133 131 129
3 53 55 57
3 129 127 126
3 50 51 53
3 115 114 112
3 36 38 39
3 112 110 109
3 33 34 36
3 109 107 105
3 29 31 33
3 99 98 96
3 20 22 23
3 94 93 91
3 15 17 18
3 91 89 87
3 11 13 15
3 87 85 84
3 8 9 11
3 84 82 80
3 4 6 8
3 80 78 151
3 75 2 4
3 151 147 144
3 68 71 75
3 144 140 136
3 60 64 68
3 134 133 129
3 53 57 58
3 129 126 125
3 49 50 53
3 115 112 109
3 33 36 39
3 109 105 103
3 27 29 33
3 99 96 94
3 18 20 23
3 94 91 87
3 11 15 18
3 87 84 80
3 4 8 11
3 80 151 144
3 68 75 4
3 144 136 135
3 59 60 68
3 135 134 129
3 53 58 59
3 116 115 109
3 33 39 40
3 109 103 101
3 25 27 33
3 100 99 94
3 18 23 24
3 94 87 80
3 4 11 18
3 80 144 135
3 59 68 4
3 135 129 125
3 49 53 59
3 117 116 109
3 33 40 41
3 109 101 100
3 24 25 33
3 100 94 80
3 4 18 24
3 80 135 125
3 49 59 4
3 118 117 109
3 33 41 42
3 80 125 124
3 48 49 4
3 118 109 100
3 24 33 42
3 80 124 123
3 47 48 4
3 119 118 100
3 24 42 43
3 80 123 122
3 46 47 4
3 119 100 80
3 4 24 43
3 80 122 121
3 45 46 4
3 120 119 80
3 4 43 44
3 80 121 120
3 44 45 4
3 0 1 77
3 0 77 76
3 1 2 78
3 1 78 77
3 2 3 79
3 2 79 78
3 3 4 80
3 3 80 79
3 4 5 81
3 4 81 80
3 5 6 82
3 5 82 81
3 6 7 83
3 6 83 82
3 7 8 84
3 7 84 83
3 8 9 85
3 8 85 84
3 9 10 86
3 9 86 85
3 10 11 87
3 10 87 86
3 11 12 88
3 11 88 87
3 12 13 89
3 12 89 88
3 13 14 90
3 13 90 89
3 14 15 91
3 14 91 90
3 15 16 92
3 15 92 91
3 16 17 93
3 16 93 92
3 17 18 94
3 17 94 93
3 18 19 95
3 18 95 94
3 19 20 96
3 19 96 95
3 20 21 97
3 20 97 96
3 21 22 98
3 21 98 97
3 22 23 99
3 22 99 98
3 23 24 100
3 23 100 99
3 24 25 101
3 24 101 100
3 25 26 102
3 25 102 101
3 26 27 103
3 26 103 102
3 27 28 104
3 27 104 103
3 28 29 105
3 28 105 104
3 29 30 106
3 29 106 105
3 30 31 107
3 30 107 106
3 31 32 108
3 31 108 107
3 32 33 109
3 32 109 108
3 33 34 110
3 33 110 109
3 34 35 111
3 34 111 110
3 35 36 112
3 35 112 111
3 36 37 113
3 36 113 112
3 37 38 114
3 37 114 113
3 38 39 115
3 38 115 114
3 39 40 116
3 39 116 115
3 40 41 117
3 40 117 116
3 41 42 118
3 41 118 117
3 42 43 119
3 42 119 118
3 43 44 120
3 43 120 119
3 44 45 121
3 44 121 120
3 45 46 122
3 45 122 121
3 46 47 123
3 46 123 122
3 47 48 124
3 47 124 123
3 48 49 125
3 48 125 124
3 49 50 126
3 49 126 125
3 50 51 127
3 50 127 126
3 51 52 128
3 51 128 127
3 52 53 129
3 52 129 128
3 53 54 130
3 53 130 129
3 54 55 131
3 54 131 130
3 55 56 132
3 55 132 131
3 56 57 133
3 56 133 132
3 57 58 134
3 57 134 133
3 58 59 135
3 58 135 134
3 59 60 136
3 59 136 135
3 60 61 137
3 60 137 136
3 61 62 138
3 61 138 137
3 62 63 139
3 62 139 138
3 63 64 140
3 63 140 139
3 64 65 141
3 64 141 140
3 65 66 142
3 65 142 141
3 66 67 143
3 66 143 142
3 67 68 144
3 67 144 143
3 68 69 145
3 68 145 144
3 69 70 146
3 69 146 145
3 70 71 147
3 70 147 146
3 71 72 148
3 71 148 147
3 72 73 149
3 72 149 148
3 73 74 150
3 73 150 149
3 74 75 151
3 74 151 150
3 75 0 76
3 75 76 151
