ply
format ascii 1.0
element vertex 10
property float x
property float y
property float z
element face 8
property list uchar int vertex_indices
end_header
148.664062 -2255.33667 203.389404
148.632034 -2259.33667 203.389404
177.846817 -2255.57031 202.919815
177.855026 -2259.57031 202.919815
197.415619 -2255.23657 192.516937
197.442856 -2259.23633 192.516937
212.27858 -2255.33984 202.145233
212.053879 -2259.3335 202.145233
237.762131 -2257.50342 199.551605
237.423615 -2261.48901 199.551605
3 0 1 2
3 1 3 2
3 2 3 4
3 3 5 4
3 4 5 6
3 5 7 6
3 6 7 8
3 7 9 8
