ply
format ascii 1.0
element vertex 8
property float x
property float y
property float z
element face 12
property list uchar int vertex_indices
end_header
576.417847 -759.677612 263.762238
577.463562 -735.788452 263.071503
604.168335 -736.946167 267.139862
603.132263 -760.846436 266.138672
576.417847 -759.677612 271.762238
577.463562 -735.788452 271.071503
604.168335 -736.946167 275.139862
603.132263 -760.846436 274.138672
3 5 4 7
3 3 0 1
3 7 6 5
3 1 2 3
3 0 1 5
3 0 5 4
3 1 2 6
3 1 6 5
3 2 3 7
3 2 7 6
3 3 0 4
3 3 4 7
