ply
format ascii 1.0
element vertex 20
property float x
property float y
property float z
element face 36
property list uchar int vertex_indices
end_header
-1502.84412 -187.929565 259.569702
-1503.2605 -185.903549 259.569702
-1507.3175 -186.749573 259.500458
-1508.83765 -179.402496 256.815948
-1494.94312 -176.530441 255.634995
-1493.42297 -183.877533 255.634995
-1491.19592 -194.675522 259.569702
-1501.0238 -196.712677 259.569702
-1505.09045 -197.547562 259.569702
-1506.90112 -188.764465 259.500458
-1502.84412 -187.929565 267.569702
-1503.2605 -185.903549 267.569702
-1507.3175 -186.749573 267.500458
-1508.83765 -179.402496 264.815948
-1494.94312 -176.530441 263.63501
-1493.42297 -183.877533 263.63501
-1491.19592 -194.675522 267.569702
-1501.0238 -196.712677 267.569702
-1505.09045 -197.547562 267.569702
-1506.90112 -188.764465 267.500458
3 10 19 18
3 8 9 0
3 18 17 16
3 6 7 8
3 16 15 14
3 4 5 6
3 14 13 12
3 2 3 4
3 10 18 16
3 6 8 0
3 14 12 11
3 1 2 4
3 11 10 16
3 6 0 1
3 16 14 11
3 1 4 6
3 0 1 11
3 0 11 10
3 1 2 12
3 1 12 11
3 2 3 13
3 2 13 12
3 3 4 14
3 3 14 13
3 4 5 15
3 4 15 14
3 5 6 16
3 5 16 15
3 6 7 17
3 6 17 16
3 7 8 18
3 7 18 17
3 8 9 19
3 8 19 18
3 9 0 10
3 9 10 19
