ply
format ascii 1.0
element vertex 8
property float x
property float y
property float z
element face 12
property list uchar int vertex_indices
end_header
-1625.23279 1330.13428 298.046936
-1593.4834 1323.12122 291.086975
-1596.17517 1310.94287 291.086975
-1627.92456 1317.94482 292.666748
-1625.23279 1330.13428 306.046936
-1593.4834 1323.12122 299.086975
-1596.17517 1310.94287 299.086975
-1627.92456 1317.94482 300.666748
3 5 4 7
3 3 0 1
3 7 6 5
3 1 2 3
3 0 1 5
3 0 5 4
3 1 2 6
3 1 6 5
3 2 3 7
3 2 7 6
3 3 0 4
3 3 4 7
