ply
format ascii 1.0
element vertex 8
property float x
property float y
property float z
element face 12
property list uchar int vertex_indices
end_header
893.931335 -115.77227 263.780426
915.417114 -113.178528 266.309052
918.409058 -137.980515 267.354767
896.923279 -140.574249 263.379303
893.931335 -115.77227 266.980438
915.417114 -113.178528 269.509064
918.409058 -137.980515 270.554779
896.923279 -140.574249 266.579315
3 5 4 7
3 3 0 1
3 7 6 5
3 1 2 3
3 0 1 5
3 0 5 4
3 1 2 6
3 1 6 5
3 2 3 7
3 2 7 6
3 3 0 4
3 3 4 7
