ply
format ascii 1.0
element vertex 14
property float x
property float y
property float z
element face 12
property list uchar int vertex_indices
end_header
-2538.85229 492.665466 223.731415
-2539.73657 485.721527 223.731415
-2529.34131 491.437988 223.731415
-2530.88916 484.611298 223.731415
-2523.09668 489.03006 225.903595
-2526.0376 482.677765 225.903595
-2518.05103 486.245483 225.903595
-2521.98145 480.452972 225.903595
-2514.30713 483.007599 225.903595
-2519.47021 478.280731 225.903595
-2510.14111 477.583893 225.903595
-2516.31616 474.286804 225.903595
-2506.11011 467.851776 225.903595
-2512.58179 465.183655 225.903595
3 0 1 2
3 1 3 2
3 2 3 4
3 3 5 4
3 4 5 6
3 5 7 6
3 6 7 8
3 7 9 8
3 8 9 10
3 9 11 10
3 10 11 12
3 11 13 12
