ply
format ascii 1.0
element vertex 12
property float x
property float y
property float z
element face 10
property list uchar int vertex_indices
end_header
-1471.00793 -812.274841 257.067871
-1469.03198 -811.965576 257.067871
-1473.80957 -794.325012 261.472778
-1471.88501 -793.781067 261.472778
-1496.66943 -721.503052 259.605499
-1494.74658 -720.952637 259.605499
-1500.5376 -700.898071 258.247498
-1498.54712 -700.703369 258.247498
-1500.54065 -681.463318 258.247498
-1498.73779 -680.597473 258.247498
-1521.36621 -657.586182 253.661392
-1519.85742 -656.273254 253.661392
3 0 1 2
3 1 3 2
3 2 3 4
3 3 5 4
3 4 5 6
3 5 7 6
3 6 7 8
3 7 9 8
3 8 9 10
3 9 11 10
