ply
format ascii 1.0
element vertex 26
property float x
property float y
property float z
element face 48
property list uchar int vertex_indices
end_header
-3220.28491 -513.817383 209.22525
-3219.99438 -524.036499 209.22525
-3226.9563 -535.936584 210.034103
-3235.4187 -540.144409 211.986938
-3230.43237 -550.196594 211.986938
-3222.37622 -546.200195 210.034103
-3211.20239 -548.025879 210.034103
-3203.65015 -553.257874 210.034103
-3196.02979 -542.248352 208.730301
-3202.22681 -537.951416 210.034103
-3202.22681 -528.066284 210.034103
-3206.25464 -525.862122 210.034103
-3206.62256 -513.427734 209.22525
-3220.28491 -513.817383 217.22525
-3219.99438 -524.036499 217.22525
-3226.9563 -535.936584 218.034103
-3235.4187 -540.144409 219.986938
-3230.43237 -550.196594 219.986938
-3222.37622 -546.200195 218.034103
-3211.20239 -548.025879 218.034103
-3203.65015 -553.257874 218.034103
-3196.02979 -542.248352 216.730301
-3202.22681 -537.951416 218.034103
-3202.22681 -528.066284 218.034103
-3206.25464 -525.862122 218.034103
-3206.62256 -513.427734 217.22525
3 24 25 13
3 0 12 11
3 15 16 17
3 4 3 2
3 19 20 21
3 8 7 6
3 22 23 24
3 11 10 9
3 24 13 14
3 1 0 11
3 14 15 17
3 4 2 1
3 18 19 21
3 8 6 5
3 22 24 14
3 1 11 9
3 14 17 18
3 5 4 1
3 18 21 22
3 9 8 5
3 22 14 18
3 5 1 9
3 0 1 14
3 0 14 13
3 1 2 15
3 1 15 14
3 2 3 16
3 2 16 15
3 3 4 17
3 3 17 16
3 4 5 18
3 4 18 17
3 5 6 19
3 5 19 18
3 6 7 20
3 6 20 19
3 7 8 21
3 7 21 20
3 8 9 22
3 8 22 21
3 9 10 23
3 9 23 22
3 10 11 24
3 10 24 23
3 11 12 25
3 11 25 24
3 12 0 13
3 12 13 25
