ply
format ascii 1.0
element vertex 24
property float x
property float y
property float z
element face 44
property list uchar int vertex_indices
end_header
-528.808228 -128.551743 231.286026
-543.041748 -128.785522 224.689545
-543.20636 -118.96714 227.711014
-554.709351 -119.15638 227.711014
-554.999817 -101.579033 227.711014
-539.217102 -101.311867 227.711014
-539.004089 -114.124741 227.711014
-528.198242 -113.946632 232.573669
-528.023987 -124.455193 231.286026
-515.833496 -124.254814 231.286026
-515.572083 -140.117844 231.286026
-528.614624 -140.329346 231.286026
-528.808228 -128.551743 239.286026
-543.041748 -128.785522 232.689545
-543.20636 -118.96714 235.711014
-554.709351 -119.15638 235.711014
-554.999817 -101.579033 235.711014
-539.217102 -101.311867 235.711014
-539.004089 -114.124741 235.711014
-528.198242 -113.946632 240.573669
-528.023987 -124.455193 239.286026
-515.833496 -124.254814 239.286026
-515.572083 -140.117844 239.286026
-528.614624 -140.329346 239.286026
3 12 23 22
3 10 11 0
3 22 21 20
3 8 9 10
3 20 19 18
3 6 7 8
3 18 17 16
3 4 5 6
3 16 15 14
3 2 3 4
3 14 13 12
3 0 1 2
3 12 22 20
3 8 10 0
3 20 18 16
3 4 6 8
3 16 14 12
3 0 2 4
3 12 20 16
3 4 8 0
3 0 1 13
3 0 13 12
3 1 2 14
3 1 14 13
3 2 3 15
3 2 15 14
3 3 4 16
3 3 16 15
3 4 5 17
3 4 17 16
3 5 6 18
3 5 18 17
3 6 7 19
3 6 19 18
3 7 8 20
3 7 20 19
3 8 9 21
3 8 21 20
3 9 10 22
3 9 22 21
3 10 11 23
3 10 23 22
3 11 0 12
3 11 12 23
