ply
format ascii 1.0
element vertex 12
property float x
property float y
property float z
element face 20
property list uchar int vertex_indices
end_header
-442.932831 -516.06604 287.494354
-473.32666 -497.620392 280.936188
-467.739777 -488.792755 278.175415
-451.49231 -485.23053 285.695465
-406.041931 -480.944733 281.717865
-403.069366 -512.425903 288.373352
-442.932831 -516.06604 290.694366
-473.32666 -497.620392 284.1362
-467.739777 -488.792755 281.375427
-451.49231 -485.23053 288.895477
-406.041931 -480.944733 284.917877
-403.069366 -512.425903 291.573364
3 7 6 11
3 5 0 1
3 11 10 9
3 3 4 5
3 9 8 7
3 1 2 3
3 7 11 9
3 3 5 1
3 0 1 7
3 0 7 6
3 1 2 8
3 1 8 7
3 2 3 9
3 2 9 8
3 3 4 10
3 3 10 9
3 4 5 11
3 4 11 10
3 5 0 6
3 5 6 11
