ply
format ascii 1.0
element vertex 12
property float x
property float y
property float z
element face 20
property list uchar int vertex_indices
end_header
-1225.62012 306.473694 252.8013
-1182.30969 260.387421 253.035904
-1216.73145 228.02684 267.405518
-1232.55298 244.858353 267.405518
-1212.66479 263.53775 257.206787
-1240.16357 292.80365 257.811676
-1225.62012 306.473694 256.001312
-1182.30969 260.387421 256.235901
-1216.73145 228.02684 270.60553
-1232.55298 244.858353 270.60553
-1212.66479 263.53775 260.406799
-1240.16357 292.80365 261.011688
3 7 6 11
3 5 0 1
3 10 9 8
3 2 3 4
3 7 11 10
3 4 5 1
3 10 8 7
3 1 2 4
3 0 1 7
3 0 7 6
3 1 2 8
3 1 8 7
3 2 3 9
3 2 9 8
3 3 4 10
3 3 10 9
3 4 5 11
3 4 11 10
3 5 0 6
3 5 6 11
