ply
format ascii 1.0
element vertex 10
property float x
property float y
property float z
element face 16
property list uchar int vertex_indices
end_header
2867.17798 -1518.2865 263.891541
2862.24951 -1512.39771 269.762604
2859.80957 -1509.4812 269.762604
2863.93433 -1506.03027 269.762604
2871.30273 -1514.83557 269.762604
2867.17798 -1518.2865 271.891541
2862.24951 -1512.39771 277.762604
2859.80957 -1509.4812 277.762604
2863.93433 -1506.03027 277.762604
2871.30273 -1514.83557 277.762604
3 6 5 9
3 4 0 1
3 9 8 7
3 2 3 4
3 7 6 9
3 4 1 2
3 0 1 6
3 0 6 5
3 1 2 7
3 1 7 6
3 2 3 8
3 2 8 7
3 3 4 9
3 3 9 8
3 4 0 5
3 4 5 9
