ply
format ascii 1.0
element vertex 8
property float x
property float y
property float z
element face 12
property list uchar int vertex_indices
end_header
-305.032532 439.411438 203.920105
-276.981903 437.196167 198.151047
-278.230957 421.355408 203.174149
-306.281586 423.55954 205.540588
-305.032532 439.411438 207.120102
-276.981903 437.196167 201.351044
-278.230957 421.355408 206.374146
-306.281586 423.55954 208.740585
3 5 4 7
3 3 0 1
3 7 6 5
3 1 2 3
3 0 1 5
3 0 5 4
3 1 2 6
3 1 6 5
3 2 3 7
3 2 7 6
3 3 0 4
3 3 4 7
