ply
format ascii 1.0
element vertex 32
property float x
property float y
property float z
element face 60
property list uchar int vertex_indices
end_header
-2480.23022 1145.72241 273.310699
-2480.23022 1138.854 265.765625
-2498.21094 1138.854 265.765625
-2498.21094 1145.31055 273.310699
-2500.96069 1147.50354 274.556213
-2511.39868 1155.86365 274.556213
-2507.23511 1161.05115 274.556213
-2503.42017 1157.98987 274.556213
-2502.11304 1159.62622 274.556213
-2495.48999 1154.32751 273.310699
-2492.38184 1151.83386 273.310699
-2488.1604 1151.83386 273.310699
-2480.61743 1161.25159 273.310699
-2478.66162 1159.68188 273.310699
-2475.94067 1163.06604 273.310699
-2470.09253 1158.37952 274.618317
-2480.23022 1145.72241 281.310699
-2480.23022 1138.854 273.765625
-2498.21094 1138.854 273.765625
-2498.21094 1145.31055 281.310699
-2500.96069 1147.50354 282.556213
-2511.39868 1155.86365 282.556213
-2507.23511 1161.05115 282.556213
-2503.42017 1157.98987 282.556213
-2502.11304 1159.62622 282.556213
-2495.48999 1154.32751 281.310699
-2492.38184 1151.83386 281.310699
-2488.1604 1151.83386 281.310699
-2480.61743 1161.25159 281.310699
-2478.66162 1159.68188 281.310699
-2475.94067 1163.06604 281.310699
-2470.09253 1158.37952 282.618317
3 16 31 30
3 14 15 0
3 29 28 27
3 11 12 13
3 26 25 24
3 8 9 10
3 23 22 21
3 5 6 7
3 21 20 19
3 3 4 5
3 19 18 17
3 1 2 3
3 16 30 29
3 13 14 0
3 26 24 23
3 7 8 10
3 23 21 19
3 3 5 7
3 19 17 16
3 0 1 3
3 16 29 27
3 11 13 0
3 26 23 19
3 3 7 10
3 19 16 27
3 11 0 3
3 27 26 19
3 3 10 11
3 0 1 17
3 0 17 16
3 1 2 18
3 1 18 17
3 2 3 19
3 2 19 18
3 3 4 20
3 3 20 19
3 4 5 21
3 4 21 20
3 5 6 22
3 5 22 21
3 6 7 23
3 6 23 22
3 7 8 24
3 7 24 23
3 8 9 25
3 8 25 24
3 9 10 26
3 9 26 25
3 10 11 27
3 10 27 26
3 11 12 28
3 11 28 27
3 12 13 29
3 12 29 28
3 13 14 30
3 13 30 29
3 14 15 31
3 14 31 30
3 15 0 16
3 15 16 31
