ply
format ascii 1.0
element vertex 16
property float x
property float y
property float z
element face 28
property list uchar int vertex_indices
end_header
-3012.41772 -465.304352 206.84024
-3008.90283 -471.33786 199.723145
-3013.60864 -474.076324 206.84024
-3006.10474 -486.944855 199.723145
-2974.45215 -468.499207 196.192383
-2981.94629 -455.641815 193.407043
-2986.15845 -458.090851 197.865372
-2989.68286 -452.046173 197.865372
-3012.41772 -465.304352 214.84024
-3008.90283 -471.33786 207.723145
-3013.60864 -474.076324 214.84024
-3006.10474 -486.944855 207.723145
-2974.45215 -468.499207 204.192383
-2981.94629 -455.641815 201.407043
-2986.15845 -458.090851 205.865372
-2989.68286 -452.046173 205.865372
3 14 15 8
3 0 7 6
3 9 10 11
3 3 2 1
3 11 12 13
3 5 4 3
3 14 8 9
3 1 0 6
3 9 11 13
3 5 3 1
3 13 14 9
3 1 6 5
3 0 1 9
3 0 9 8
3 1 2 10
3 1 10 9
3 2 3 11
3 2 11 10
3 3 4 12
3 3 12 11
3 4 5 13
3 4 13 12
3 5 6 14
3 5 14 13
3 6 7 15
3 6 15 14
3 7 0 8
3 7 8 15
