ply
format ascii 1.0
element vertex 8
property float x
property float y
property float z
element face 12
property list uchar int vertex_indices
end_header
3068.07349 -1137.71863 239.144867
3072.4502 -1143.74097 239.144867
3064.30713 -1149.67432 241.913605
3059.9209 -1143.65198 235.99556
3068.07349 -1137.71863 247.144867
3072.4502 -1143.74097 247.144867
3064.30713 -1149.67432 249.913605
3059.9209 -1143.65198 243.99556
3 5 4 7
3 3 0 1
3 7 6 5
3 1 2 3
3 0 1 5
3 0 5 4
3 1 2 6
3 1 6 5
3 2 3 7
3 2 7 6
3 3 0 4
3 3 4 7
