ply
format ascii 1.0
element vertex 120
property float x
property float y
property float z
element face 236
property list uchar int vertex_indices
end_header
-571.353821 2124.76636 313.680481
-574.365112 2126.46948 313.680481
-577.008484 2121.80518 313.680481
-575.343079 2120.87012 313.680481
-578.305969 2115.62695 313.680481
-581.985352 2117.7085 313.680481
-582.818054 2116.23926 313.680481
-589.770203 2120.15771 313.680481
-588.9375 2121.63818 313.680481
-592.432922 2123.60864 316.109802
-589.470032 2128.85156 313.680481
-587.543213 2127.76074 313.680481
-584.899841 2132.42505 313.680481
-587.155884 2133.70532 318.213776
-585.480835 2136.66626 318.213776
-588.395264 2138.31372 318.213776
-591.038635 2133.64966 318.213776
-589.37323 2132.70337 313.680481
-592.336121 2127.47144 316.109802
-596.015503 2129.55298 316.109802
-596.848267 2128.07251 316.109802
-603.800354 2132.00195 316.109802
-602.967651 2133.48267 316.109802
-606.463135 2135.45288 319.056976
-603.500244 2140.69604 319.056976
-601.573364 2139.60522 319.056976
-598.929993 2144.26953 319.056976
-601.186096 2145.54956 319.056976
-597.787476 2151.56079 319.056976
-595.918701 2150.50342 319.056976
-595.134399 2151.88379 319.056976
-582.663147 2144.83716 318.213776
-583.447449 2143.44556 318.213776
-581.801392 2142.52173 318.213776
-583.476501 2139.56055 318.213776
-581.88855 2138.65894 318.213776
-581.104248 2140.05054 318.213776
-568.632996 2132.99268 313.680481
-569.417297 2131.6123 313.680481
-567.77124 2130.67725 313.680481
-568.516785 2129.36377 313.680481
-566.822327 2128.40649 313.680481
-566.047729 2129.78687 313.680481
-553.566772 2122.74023 310.618622
-554.351074 2121.34863 310.618622
-552.714722 2120.4248 310.618622
-556.113342 2114.41357 310.618622
-559.308594 2116.2168 310.618622
-561.942261 2111.55273 310.618622
-560.28656 2110.60645 310.618622
-563.249451 2105.37451 310.618622
-566.919189 2107.44482 313.680481
-567.751892 2105.97559 313.680481
-574.704041 2109.90503 313.680481
-573.871338 2111.37451 313.680481
-577.36676 2113.35596 313.680481
-574.40387 2118.59912 313.680481
-572.47699 2117.5083 313.680481
-569.843323 2122.17261 313.680481
-572.099365 2123.45264 313.680481
-571.353821 2124.76636 321.680481
-574.365112 2126.46948 321.680481
-577.008484 2121.80518 321.680481
-575.343079 2120.87012 321.680481
-578.305969 2115.62695 321.680481
-581.985352 2117.7085 321.680481
-582.818054 2116.23926 321.680481
-589.770203 2120.15771 321.680481
-588.9375 2121.63818 321.680481
-592.432922 2123.60864 324.109802
-589.470032 2128.85156 321.680481
-587.543213 2127.76074 321.680481
-584.899841 2132.42505 321.680481
-587.155884 2133.70532 326.213776
-585.480835 2136.66626 326.213776
-588.395264 2138.31372 326.213776
-591.038635 2133.64966 326.213776
-589.37323 2132.70337 321.680481
-592.336121 2127.47144 324.109802
-596.015503 2129.55298 324.109802
-596.848267 2128.07251 324.109802
-603.800354 2132.00195 324.109802
-602.967651 2133.48267 324.109802
-606.463135 2135.45288 327.056976
-603.500244 2140.69604 327.056976
-601.573364 2139.60522 327.056976
-598.929993 2144.26953 327.056976
-601.186096 2145.54956 327.056976
-597.787476 2151.56079 327.056976
-595.918701 2150.50342 327.056976
-595.134399 2151.88379 327.056976
-582.663147 2144.83716 326.213776
-583.447449 2143.44556 326.213776
-581.801392 2142.52173 326.213776
-583.476501 2139.56055 326.213776
-581.88855 2138.65894 326.213776
-581.104248 2140.05054 326.213776
-568.632996 2132.99268 321.680481
-569.417297 2131.6123 321.680481
-567.77124 2130.67725 321.680481
-568.516785 2129.36377 321.680481
-566.822327 2128.40649 321.680481
-566.047729 2129.78687 321.680481
-553.566772 2122.74023 318.618622
-554.351074 2121.34863 318.618622
-552.714722 2120.4248 318.618622
-556.113342 2114.41357 318.618622
-559.308594 2116.2168 318.618622
-561.942261 2111.55273 318.618622
-560.28656 2110.60645 318.618622
-563.249451 2105.37451 318.618622
-566.919189 2107.44482 321.680481
-567.751892 2105.97559 321.680481
-574.704041 2109.90503 321.680481
-573.871338 2111.37451 321.680481
-577.36676 2113.35596 321.680481
-574.40387 2118.59912 321.680481
-572.47699 2117.5083 321.680481
-569.843323 2122.17261 321.680481
-572.099365 2123.45264 321.680481
3 60 119 118
3 58 59 0
3 117 116 115
3 55 56 57
3 114 113 112
3 52 53 54
3 111 110 109
3 49 50 51
3 107 106 105
3 45 46 47
3 104 103 102
3 42 43 44
3 100 99 98
3 38 39 40
3 98 97 96
3 36 37 38
3 94 93 92
3 32 33 34
3 92 91 90
3 30 31 32
3 89 88 87
3 27 28 29
3 85 84 83
3 23 24 25
3 82 81 80
3 20 21 22
3 79 78 77
3 17 18 19
3 74 73 72
3 12 13 14
3 71 70 69
3 9 10 11
3 68 67 66
3 6 7 8
3 65 64 63
3 3 4 5
3 117 115 114
3 54 55 57
3 114 112 111
3 51 52 54
3 111 109 108
3 48 49 51
3 107 105 104
3 44 45 47
3 104 102 101
3 41 42 44
3 100 98 96
3 36 38 40
3 94 92 90
3 30 32 34
3 89 87 86
3 26 27 29
3 85 83 82
3 22 23 25
3 82 80 79
3 19 20 22
3 79 77 76
3 16 17 19
3 71 69 68
3 8 9 11
3 68 66 65
3 5 6 8
3 65 63 62
3 2 3 5
3 118 117 114
3 54 57 58
3 114 111 108
3 48 51 54
3 107 104 101
3 41 44 47
3 100 96 95
3 35 36 40
3 94 90 89
3 29 30 34
3 86 85 82
3 22 25 26
3 82 79 76
3 16 19 22
3 72 71 68
3 8 11 12
3 68 65 62
3 2 5 8
3 118 114 108
3 48 54 58
3 108 107 101
3 41 47 48
3 100 95 94
3 34 35 40
3 94 89 86
3 26 29 34
3 86 82 76
3 16 22 26
3 72 68 62
3 2 8 12
3 60 118 108
3 48 58 0
3 108 101 100
3 40 41 48
3 100 94 86
3 26 34 40
3 86 76 75
3 15 16 26
3 74 72 62
3 2 12 14
3 60 108 100
3 40 48 0
3 100 86 75
3 15 26 40
3 74 62 61
3 1 2 14
3 61 60 100
3 40 0 1
3 100 75 74
3 14 15 40
3 74 61 100
3 40 1 14
3 0 1 61
3 0 61 60
3 1 2 62
3 1 62 61
3 2 3 63
3 2 63 62
3 3 4 64
3 3 64 63
3 4 5 65
3 4 65 64
3 5 6 66
3 5 66 65
3 6 7 67
3 6 67 66
3 7 8 68
3 7 68 67
3 8 9 69
3 8 69 68
3 9 10 70
3 9 70 69
3 10 11 71
3 10 71 70
3 11 12 72
3 11 72 71
3 12 13 73
3 12 73 72
3 13 14 74
3 13 74 73
3 14 15 75
3 14 75 74
3 15 16 76
3 15 76 75
3 16 17 77
3 16 77 76
3 17 18 78
3 17 78 77
3 18 19 79
3 18 79 78
3 19 20 80
3 19 80 79
3 20 21 81
3 20 81 80
3 21 22 82
3 21 82 81
3 22 23 83
3 22 83 82
3 23 24 84
3 23 84 83
3 24 25 85
3 24 85 84
3 25 26 86
3 25 86 85
3 26 27 87
3 26 87 86
3 27 28 88
3 27 88 87
3 28 29 89
3 28 89 88
3 29 30 90
3 29 90 89
3 30 31 91
3 30 91 90
3 31 32 92
3 31 92 91
3 32 33 93
3 32 93 92
3 33 34 94
3 33 94 93
3 34 35 95
3 34 95 94
3 35 36 96
3 35 96 95
3 36 37 97
3 36 97 96
3 37 38 98
3 37 98 97
3 38 39 99
3 38 99 98
3 39 40 100
3 39 100 99
3 40 41 101
3 40 101 100
3 41 42 102
3 41 102 101
3 42 43 103
3 42 103 102
3 43 44 104
3 43 104 103
3 44 45 105
3 44 105 104
3 45 46 106
3 45 106 105
3 46 47 107
3 46 107 106
3 47 48 108
3 47 108 107
3 48 49 109
3 48 109 108
3 49 50 110
3 49 110 109
3 50 51 111
3 50 111 110
3 51 52 112
3 51 112 111
3 52 53 113
3 52 113 112
3 53 54 114
3 53 114 113
3 54 55 115
3 54 115 114
3 55 56 116
3 55 116 115
3 56 57 117
3 56 117 116
3 57 58 118
3 57 118 117
3 58 59 119
3 58 119 118
3 59 0 60
3 59 60 119
