ply
format ascii 1.0
element vertex 28
property float x
property float y
property float z
element face 26
property list uchar int vertex_indices
end_header
298.620056 -1216.37573 218.381668
296.456238 -1219.73999 218.381668
317.590881 -1228.58057 218.381668
315.596344 -1232.04773 218.381668
338.377686 -1239.25281 208.535614
336.696686 -1242.88245 208.535614
356.754761 -1246.72241 209.986359
355.46225 -1250.50781 209.986359
383.330017 -1254.59521 211.244751
382.315857 -1258.46448 211.244751
410.077209 -1260.70166 212.790833
409.423584 -1264.64783 212.790833
444.644714 -1264.74707 215.056244
444.261292 -1268.72864 215.056244
479.187439 -1267.35547 194.533798
479.026978 -1271.35229 194.533798
518.426697 -1267.71106 196.453079
518.546448 -1271.70923 196.453079
535.037537 -1265.74414 213.282501
536.173401 -1269.57947 213.282501
562.140686 -1254.75464 212.202225
564.145203 -1258.21606 212.202225
594.807312 -1231.08777 214.914673
597.243164 -1234.2605 214.914673
680.704956 -1163.70764 218.536301
683.173767 -1166.85486 218.536301
686.959595 -1158.79883 218.536301
689.429138 -1161.94543 218.536301
3 0 1 2
3 1 3 2
3 2 3 4
3 3 5 4
3 4 5 6
3 5 7 6
3 6 7 8
3 7 9 8
3 8 9 10
3 9 11 10
3 10 11 12
3 11 13 12
3 12 13 14
3 13 15 14
3 14 15 16
3 15 17 16
3 16 17 18
3 17 19 18
3 18 19 20
3 19 21 20
3 20 21 22
3 21 23 22
3 22 23 24
3 23 25 24
3 24 25 26
3 25 27 26
