ply
format ascii 1.0
element vertex 22
property float x
property float y
property float z
element face 20
property list uchar int vertex_indices
end_header
-608.996765 2332.60889 335.45459
-605.498047 2332.7019 335.45459
-610.66687 2396.18286 336.059113
-607.19751 2395.72046 336.059113
-598.171997 2412.82422 336.059113
-595.195251 2410.98315 336.059113
-580.020813 2446.02563 329.287018
-576.997742 2444.26196 329.287018
-561.688782 2475.31738 331.351196
-558.961792 2473.12329 331.351196
-540.89679 2494.46411 331.351196
-539.241577 2491.38013 331.351196
-511.364868 2502.41113 332.950592
-510.600128 2498.99561 332.950592
-475.223114 2509.20825 320.412445
-475.051544 2505.7124 320.412445
-442.717926 2505.50879 320.757599
-444.522675 2502.51001 320.757599
-421.16803 2476.72974 315.694397
-424.262878 2475.09521 315.694397
-420.926727 2464.36328 316.894257
-424.426727 2464.35156 316.894257
3 0 1 2
3 1 3 2
3 2 3 4
3 3 5 4
3 4 5 6
3 5 7 6
3 6 7 8
3 7 9 8
3 8 9 10
3 9 11 10
3 10 11 12
3 11 13 12
3 12 13 14
3 13 15 14
3 14 15 16
3 15 17 16
3 16 17 18
3 17 19 18
3 18 19 20
3 19 21 20
