ply
format ascii 1.0
element vertex 14
property float x
property float y
property float z
element face 12
property list uchar int vertex_indices
end_header
2986.49707 918.777527 185.163055
2984.52222 918.461609 185.163055
3001.52417 824.834656 186.624496
2999.53052 824.675293 186.624496
2995.91626 800.987549 183.233582
2993.92603 800.788574 183.233582
3027.77832 562.24939 185.479126
3025.79541 561.988403 185.479126
3042.47095 447.19278 186.708603
3040.53784 446.68045 186.708603
3058.53223 446.211029 186.708603
3056.66187 445.502625 186.708603
3069.72949 375.179657 195.51001
3067.75391 374.868805 195.51001
3 0 1 2
3 1 3 2
3 2 3 4
3 3 5 4
3 4 5 6
3 5 7 6
3 6 7 8
3 7 9 8
3 8 9 10
3 9 11 10
3 10 11 12
3 11 13 12
