ply
format ascii 1.0
element vertex 20
property float x
property float y
property float z
element face 36
property list uchar int vertex_indices
end_header
1578.91101 6.08917618 271.334473
1587.60608 -16.3750973 273.267303
1574.52478 -21.440134 282.866211
1566.96265 -21.5625858 282.866211
1560.07825 -18.8352585 283.406128
1555.01428 -13.4807901 283.406128
1554.07507 -8.97235107 283.406128
1554.17188 -5.75521755 283.406128
1556.44727 -2.62714005 283.406128
1555.66296 2.71619558 272.550049
1578.91101 6.08917618 279.334473
1587.60608 -16.3750973 281.267303
1574.52478 -21.440134 290.866211
1566.96265 -21.5625858 290.866211
1560.07825 -18.8352585 291.406128
1555.01428 -13.4807901 291.406128
1554.07507 -8.97235107 291.406128
1554.17188 -5.75521755 291.406128
1556.44727 -2.62714005 291.406128
1555.66296 2.71619558 280.550049
3 11 10 19
3 9 0 1
3 18 17 16
3 6 7 8
3 16 15 14
3 4 5 6
3 14 13 12
3 2 3 4
3 12 11 19
3 9 1 2
3 18 16 14
3 4 6 8
3 14 12 19
3 9 2 4
3 19 18 14
3 4 8 9
3 0 1 11
3 0 11 10
3 1 2 12
3 1 12 11
3 2 3 13
3 2 13 12
3 3 4 14
3 3 14 13
3 4 5 15
3 4 15 14
3 5 6 16
3 5 16 15
3 6 7 17
3 6 17 16
3 7 8 18
3 7 18 17
3 8 9 19
3 8 19 18
3 9 0 10
3 9 10 19
