ply
format ascii 1.0
element vertex 12
property float x
property float y
property float z
element face 10
property list uchar int vertex_indices
end_header
-3406.5144 2343.77759 283.636383
-3397.69678 2348.49463 283.636383
-3478.25562 2477.88477 0.0299999993
-3469.41382 2482.5564 0.0299999993
-3506.02539 2532.11914 0.0299999993
-3497.0481 2536.52441 0.0299999993
-3526.36523 2575.94995 0.0299999993
-3517.10449 2579.72339 0.0299999993
-3544.21069 2625.8689 0.0299999993
-3534.61987 2628.70068 0.0299999993
-3577.28931 2748.33228 0.0299999993
-3567.63525 2750.9397 0.0299999993
3 0 1 2
3 1 3 2
3 2 3 4
3 3 5 4
3 4 5 6
3 5 7 6
3 6 7 8
3 7 9 8
3 8 9 10
3 9 11 10
