ply
format ascii 1.0
element vertex 12
property float x
property float y
property float z
element face 10
property list uchar int vertex_indices
end_header
1599.15161 115.89328 245.738556
1597.86584 119.68103 245.738556
1535.12415 94.1606674 240.459351
1533.79187 97.932251 240.459351
1511.5094 84.9376068 248.956924
1509.92285 88.6094742 248.956924
1499.86194 78.9483261 260.174652
1497.69287 82.3090897 260.174652
1490.80444 71.6981201 260.174652
1487.57886 74.0636215 260.174652
1484.19751 57.4308815 281.058716
1480.5719 59.1206245 281.058716
3 0 1 2
3 1 3 2
3 2 3 4
3 3 5 4
3 4 5 6
3 5 7 6
3 6 7 8
3 7 9 8
3 8 9 10
3 9 11 10
