ply
format ascii 1.0
element vertex 14
property float x
property float y
property float z
element face 12
property list uchar int vertex_indices
end_header
1458.82532 133.00145 210.165512
1455.18762 131.337814 210.165512
1469.95959 108.549767 244.547592
1466.74951 106.163269 244.547592
1471.59326 109.671272 244.547592
1475.573 110.073402 244.547592
1464.52502 125.507248 210.165512
1468.42712 126.386497 210.165512
1470.79578 129.282059 210.165512
1468.33398 126.129379 210.165512
1476.98242 120.074242 244.547592
1473.47595 118.149467 244.547592
1481.1803 110.687645 244.547592
1477.52771 109.05703 244.547592
3 0 1 2
3 1 3 2
3 2 3 4
3 3 5 4
3 4 5 6
3 5 7 6
3 6 7 8
3 7 9 8
3 8 9 10
3 9 11 10
3 10 11 12
3 11 13 12
