ply
format ascii 1.0
element vertex 10
property float x
property float y
property float z
element face 16
property list uchar int vertex_indices
end_header
-1990.03638 1292.56396 285.539551
-2001.82983 1270.1665 285.539551
-1968.80225 1255.71729 284.909973
-1962.61511 1251.58728 286.966125
-1936.9657 1286.37463 294.539276
-1990.03638 1292.56396 293.539551
-2001.82983 1270.1665 293.539551
-1968.80225 1255.71729 292.909973
-1962.61511 1251.58728 294.966125
-1936.9657 1286.37463 302.539276
3 8 9 5
3 0 4 3
3 5 6 7
3 2 1 0
3 7 8 5
3 0 3 2
3 0 1 6
3 0 6 5
3 1 2 7
3 1 7 6
3 2 3 8
3 2 8 7
3 3 4 9
3 3 9 8
3 4 0 5
3 4 5 9
