ply
format ascii 1.0
element vertex 14
property float x
property float y
property float z
element face 24
property list uchar int vertex_indices
end_header
1132.37622 -870.729919 262.987244
1135.2229 -866.588867 262.987244
1138.56348 -868.870911 262.987244
1135.7168 -873.023132 262.987244
1165.9751 -893.817566 264.493652
1161.4436 -900.418823 256.01178
1127.84473 -877.331177 264.613312
1132.37622 -870.729919 270.987244
1135.2229 -866.588867 270.987244
1138.56348 -868.870911 270.987244
1135.7168 -873.023132 270.987244
1165.9751 -893.817566 272.493652
1161.4436 -900.418823 264.01178
1127.84473 -877.331177 272.613312
3 8 7 13
3 6 0 1
3 13 12 11
3 4 5 6
3 10 9 8
3 1 2 3
3 13 11 10
3 3 4 6
3 10 8 13
3 6 1 3
3 0 1 8
3 0 8 7
3 1 2 9
3 1 9 8
3 2 3 10
3 2 10 9
3 3 4 11
3 3 11 10
3 4 5 12
3 4 12 11
3 5 6 13
3 5 13 12
3 6 0 7
3 6 7 13
