ply
format ascii 1.0
element vertex 78
property float x
property float y
property float z
element face 76
property list uchar int vertex_indices
end_header
1451.10022 -1115.62366 211.037399
1448.5437 -1112.54724 211.037399
1439.76721 -1125.00806 211.037399
1436.75452 -1122.37671 211.037399
1440.09717 -1127.07898 211.037399
1436.17285 -1127.85315 211.037399
1441.71411 -1131.76599 211.037399
1438.44824 -1134.07544 211.037399
1448.70422 -1138.9751 211.037399
1445.74976 -1141.67175 211.037399
1467.36414 -1159.85144 210.662125
1464.23254 -1162.33997 210.662125
1475.92004 -1173.21558 210.662125
1472.81482 -1175.73706 210.662125
1477.13354 -1173 210.662125
1477.04297 -1176.99902 210.662125
1481.31226 -1172.87732 211.785599
1483.14734 -1176.43152 211.785599
1487.92847 -1167.19177 211.785599
1490.39673 -1170.33948 211.785599
1538.15784 -1128.25659 208.663589
1540.6925 -1131.35095 208.663589
1549.50684 -1116.75647 208.663589
1552.19458 -1119.71887 208.663589
1554.83875 -1113.38269 208.663589
1558.53992 -1114.89954 208.663589
1555.04578 -1112.08203 213.798981
1553.14307 -1108.5636 213.798981
1540.047 -1125.41333 208.663589
1538.0094 -1121.97131 208.663589
1522.07275 -1131.60107 212.067688
1519.88672 -1128.25134 212.067688
1485.69568 -1160.8811 211.785599
1483.29529 -1157.68127 211.785599
1482.15527 -1161.14343 211.785599
1481.89758 -1157.15173 211.785599
1477.27271 -1161.5072 210.662125
1478.95654 -1157.87891 210.662125
1474.00061 -1157.60779 210.662125
1475.17969 -1153.78552 210.662125
1470.94629 -1159.44604 210.662125
1473.37341 -1156.2666 210.662125
1460.09143 -1147.14307 210.662125
1462.40344 -1143.87891 210.662125
1456.67358 -1149.28882 210.662125
1458.28821 -1145.62927 210.662125
1450.53247 -1142.28491 211.037399
1454.30127 -1140.9447 211.037399
1451.27686 -1135.43738 211.300339
1455.26111 -1135.79187 211.300339
1452.15186 -1122.5238 211.300339
1455.974 -1123.70312 211.300339
1455.88171 -1121.70117 211.300339
1458.24744 -1124.92651 211.300339
1472.40576 -1107.18054 213.984177
1474.87671 -1110.32605 213.984177
1482.64404 -1100.67651 215.058075
1485.04944 -1103.87244 215.058075
1499.67358 -1086.66846 215.058075
1501.77368 -1090.07288 215.058075
1504.42859 -1087.54041 215.058075
1504.55176 -1091.53857 215.058075
1508.09106 -1086.34949 214.455002
1509.97168 -1089.87976 214.455002
1510.64307 -1084.245 214.455002
1513.92639 -1086.52966 214.455002
1510.33362 -1083.87891 214.455002
1514.23584 -1082.99951 214.455002
1509.47839 -1079.03638 212.402115
1512.7478 -1081.34094 212.402115
1525.06848 -1061.854 212.402115
1528.0647 -1064.50403 212.402115
1529.62854 -1056.6532 212.402115
1533.5553 -1057.41528 212.402115
1529.80249 -1054.04358 212.402115
1527.51367 -1050.76306 212.402115
1451.05432 -1115.66064 211.037399
1448.58948 -1112.51025 211.037399
3 0 1 2
3 1 3 2
3 2 3 4
3 3 5 4
3 4 5 6
3 5 7 6
3 6 7 8
3 7 9 8
3 8 9 10
3 9 11 10
3 10 11 12
3 11 13 12
3 12 13 14
3 13 15 14
3 14 15 16
3 15 17 16
3 16 17 18
3 17 19 18
3 18 19 20
3 19 21 20
3 20 21 22
3 21 23 22
3 22 23 24
3 23 25 24
3 24 25 26
3 25 27 26
3 26 27 28
3 27 29 28
3 28 29 30
3 29 31 30
3 30 31 32
3 31 33 32
3 32 33 34
3 33 35 34
3 34 35 36
3 35 37 36
3 36 37 38
3 37 39 38
3 38 39 40
3 39 41 40
3 40 41 42
3 41 43 42
3 42 43 44
3 43 45 44
3 44 45 46
3 45 47 46
3 46 47 48
3 47 49 48
3 48 49 50
3 49 51 50
3 50 51 52
3 51 53 52
3 52 53 54
3 53 55 54
3 54 55 56
3 55 57 56
3 56 57 58
3 57 59 58
3 58 59 60
3 59 61 60
3 60 61 62
3 61 63 62
3 62 63 64
3 63 65 64
3 64 65 66
3 65 67 66
3 66 67 68
3 67 69 68
3 68 69 70
3 69 71 70
3 70 71 72
3 71 73 72
3 72 73 74
3 73 75 74
3 74 75 76
3 75 77 76
