ply
format ascii 1.0
element vertex 8
property float x
property float y
property float z
element face 12
property list uchar int vertex_indices
end_header
891.317017 -634.109192 271.35675
911.834534 -610.476074 276.001892
921.778625 -619.103333 269.467834
901.261047 -642.73645 271.35675
891.317017 -634.109192 279.35675
911.834534 -610.476074 284.001892
921.778625 -619.103333 277.467834
901.261047 -642.73645 279.35675
3 5 4 7
3 3 0 1
3 7 6 5
3 1 2 3
3 0 1 5
3 0 5 4
3 1 2 6
3 1 6 5
3 2 3 7
3 2 7 6
3 3 0 4
3 3 4 7
