ply
format ascii 1.0
element vertex 50
property float x
property float y
property float z
element face 48
property list uchar int vertex_indices
end_header
-3213.25098 -1479.29749 366.077301
-3214.90576 -1480.42065 366.077301
-3209.53662 -1485.01367 376.420258
-3211.53223 -1485.14624 376.420258
-3211.63232 -1501.8479 376.420258
-3213.61938 -1501.61877 376.420258
-3214.23804 -1525.71887 377.553345
-3216.12598 -1525.05859 377.553345
-3225.50513 -1541.47656 377.553345
-3227.14844 -1540.33679 377.553345
-3233.625 -1553.73523 380.980804
-3235.29541 -1552.63513 380.980804
-3240.0791 -1563.53149 380.980804
-3241.99048 -1562.94324 380.980804
-3240.90991 -1577.5155 374.558899
-3242.88306 -1577.18982 374.558899
-3244.03076 -1587.50952 374.558899
-3245.97852 -1587.05518 374.558899
-3245.23462 -1596.04993 374.558899
-3247.21484 -1595.76929 374.558899
-3245.47046 -1597.68799 374.558899
-3247.46289 -1597.51538 374.558899
-3246.56787 -1611.44556 365.628113
-3248.55396 -1611.20923 365.628113
-3247.78223 -1616.99915 365.628113
-3249.77954 -1617.09924 365.628113
-3245.85815 -1625.53308 365.628113
-3247.84985 -1625.35229 365.628113
-3249.59448 -1636.28357 365.628113
-3251.37573 -1635.37402 365.628113
-3255.32227 -1644.02075 369.824188
-3256.55054 -1642.44238 369.824188
-3265.18457 -1648.52124 369.824188
-3266.16968 -1646.78064 369.824188
-3275.94678 -1655.68628 369.824188
-3277.23193 -1654.15381 369.824188
-3283.34863 -1663.76465 379.09082
-3284.43164 -1662.08325 379.09082
-3294.21704 -1667.44373 379.09082
-3294.9812 -1665.59546 379.09082
-3296.97534 -1669.39124 379.09082
-3298.11011 -1667.74438 379.09082
-3303.89722 -1673.58923 373.475189
-3303.13672 -1671.7395 373.475189
-3307.84814 -1665.16077 379.09082
-3306.07959 -1664.22705 379.09082
-3318.84424 -1645.74353 380.227112
-3317.25708 -1644.52661 380.227112
-3329.58496 -1636.79639 380.93335
-3328.30225 -1635.26196 380.93335
3 0 1 2
3 1 3 2
3 2 3 4
3 3 5 4
3 4 5 6
3 5 7 6
3 6 7 8
3 7 9 8
3 8 9 10
3 9 11 10
3 10 11 12
3 11 13 12
3 12 13 14
3 13 15 14
3 14 15 16
3 15 17 16
3 16 17 18
3 17 19 18
3 18 19 20
3 19 21 20
3 20 21 22
3 21 23 22
3 22 23 24
3 23 25 24
3 24 25 26
3 25 27 26
3 26 27 28
3 27 29 28
3 28 29 30
3 29 31 30
3 30 31 32
3 31 33 32
3 32 33 34
3 33 35 34
3 34 35 36
3 35 37 36
3 36 37 38
3 37 39 38
3 38 39 40
3 39 41 40
3 40 41 42
3 41 43 42
3 42 43 44
3 43 45 44
3 44 45 46
3 45 47 46
3 46 47 48
3 47 49 48
