ply
format ascii 1.0
element vertex 22
property float x
property float y
property float z
element face 20
property list uchar int vertex_indices
end_header
1086.9989 -826.272095 260.638458
1079.30042 -828.447571 260.638458
1088.83459 -832.864197 260.638458
1081.43457 -835.903992 260.638458
1092.44678 -839.520142 259.649445
1085.39429 -843.296631 259.649445
1097.93079 -849.82666 259.649445
1090.63867 -853.116638 259.649445
1100.85327 -858.278625 259.649445
1093.09973 -860.24939 259.649445
1102.31714 -867.151611 259.89505
1094.32764 -867.562256 259.89505
1101.68164 -874.589478 259.89505
1093.78186 -873.326904 259.89505
1099.75684 -883.72644 259.89505
1091.85291 -882.490845 259.89505
1098.48804 -894.709595 259.89505
1090.48804 -894.706726 259.89505
1099.71033 -909.384033 258.132507
1091.88013 -911.023621 258.132507
1103.75781 -919.716309 258.132507
1096.29529 -922.598999 258.132507
3 0 1 2
3 1 3 2
3 2 3 4
3 3 5 4
3 4 5 6
3 5 7 6
3 6 7 8
3 7 9 8
3 8 9 10
3 9 11 10
3 10 11 12
3 11 13 12
3 12 13 14
3 13 15 14
3 14 15 16
3 15 17 16
3 16 17 18
3 17 19 18
3 18 19 20
3 19 21 20
