ply
format ascii 1.0
element vertex 12
property float x
property float y
property float z
element face 10
property list uchar int vertex_indices
end_header
1130.91968 769.914185 180.652985
1131.52832 768.009094 180.652985
1152.00415 776.650757 193.050537
1152.60205 774.742188 193.050537
1166.92786 781.193481 191.081879
1167.44287 779.260925 191.081879
1181.22876 784.437195 191.081879
1181.60901 782.473694 191.081879
1194.92004 786.611511 189.209747
1195.08728 784.61853 189.209747
1209.65845 786.826416 189.209747
1209.68726 784.82666 189.209747
3 0 1 2
3 1 3 2
3 2 3 4
3 3 5 4
3 4 5 6
3 5 7 6
3 6 7 8
3 7 9 8
3 8 9 10
3 9 11 10
