ply
format ascii 1.0
element vertex 18
property float x
property float y
property float z
element face 16
property list uchar int vertex_indices
end_header
-3244.58594 -2698.75 0.0299999993
-3241.41479 -2694.25635 0.0299999993
-3286.42749 -2669.20654 0.0299999993
-3282.80518 -2665.06763 0.0299999993
-3309.93408 -2641.49561 0.0299999993
-3305.52344 -2638.20972 0.0299999993
-3316.0332 -2629.37793 0.0299999993
-3310.86938 -2627.48462 0.0299999993
-3320.03491 -2614.19165 0.0299999993
-3314.65259 -2613.06006 0.0299999993
-3327.80127 -2573.5249 0.0299999993
-3322.47534 -2572.15161 0.0299999993
-3334.88916 -2556.43335 0.0299999993
-3329.40771 -2555.98096 0.0299999993
-3332.29565 -2519.11719 299.592529
-3326.81152 -2519.53687 299.592529
-3330.73364 -2501.67139 297.281281
-3325.25562 -2502.16187 297.281281
3 0 1 2
3 1 3 2
3 2 3 4
3 3 5 4
3 4 5 6
3 5 7 6
3 6 7 8
3 7 9 8
3 8 9 10
3 9 11 10
3 10 11 12
3 11 13 12
3 12 13 14
3 13 15 14
3 14 15 16
3 15 17 16
