ply
format ascii 1.0
element vertex 26
property float x
property float y
property float z
element face 24
property list uchar int vertex_indices
end_header
-3674.0647 1431.28748 0.0299999993
-3679.11426 1426.4397 0.0299999993
-3670.33643 1427.3717 0.0299999993
-3674.80591 1421.98425 0.0299999993
-3666.09473 1424.60498 0.0299999993
-3669.3457 1418.40576 0.0299999993
-3661.69702 1422.83972 0.0299999993
-3663.57617 1416.09668 0.0299999993
-3656.00732 1421.80164 0.0299999993
-3656.50439 1414.81934 0.0299999993
-3529.19824 1413.47717 0.0299999993
-3529.62793 1406.49036 0.0299999993
-3500.48096 1412.23572 0.0299999993
-3500.67554 1405.2384 0.0299999993
-3489.62598 1412.36157 0.0299999993
-3489.12476 1405.37964 0.0299999993
-3480.22656 1413.68945 0.0299999993
-3479.04248 1406.79028 0.0299999993
-3470.62964 1415.62964 0.0299999993
-3468.94507 1408.83533 0.0299999993
-3421.25903 1428.31799 272.35788
-3419.64966 1421.50549 272.35788
-3412.35156 1429.33264 274.228973
-3412.05786 1422.33875 274.228973
-3403.15063 1429.1344 274.228973
-3403.30688 1422.13623 274.228973
3 0 1 2
3 1 3 2
3 2 3 4
3 3 5 4
3 4 5 6
3 5 7 6
3 6 7 8
3 7 9 8
3 8 9 10
3 9 11 10
3 10 11 12
3 11 13 12
3 12 13 14
3 13 15 14
3 14 15 16
3 15 17 16
3 16 17 18
3 17 19 18
3 18 19 20
3 19 21 20
3 20 21 22
3 21 23 22
3 22 23 24
3 23 25 24
