ply
format ascii 1.0
element vertex 64
property float x
property float y
property float z
element face 62
property list uchar int vertex_indices
end_header
933.337158 -2190.58813 191.536591
925.518677 -2192.28271 191.536591
935.59729 -2201.01587 192.42984
927.77063 -2202.67188 192.42984
985.920349 -2439.08691 221.768509
978.069641 -2440.62524 221.768509
988.554688 -2471.48193 228.0215
980.567139 -2471.92725 228.0215
988.593628 -2487.09766 230.866302
980.625 -2486.38989 230.866302
985.656677 -2503.76294 230.866302
977.965393 -2501.56201 230.866302
963.019226 -2576.72778 0.0299999993
955.384888 -2574.33691 0.0299999993
960.37915 -2584.47827 0.0299999993
952.680176 -2582.30444 0.0299999993
909.590759 -2765.94922 0.0299999993
901.878174 -2763.82422 0.0299999993
901.031799 -2799.84741 0.0299999993
893.240723 -2798.03125 0.0299999993
896.748169 -2820.95386 0.0299999993
888.809998 -2819.96094 0.0299999993
884.377075 -2933.16772 0.0299999993
876.412842 -2932.41211 0.0299999993
882.516052 -2970.94556 0.0299999993
874.536377 -2970.37598 0.0299999993
879.917786 -2995.51025 0.0299999993
872.002808 -2994.34668 0.0299999993
871.447632 -3046.0061 0.0299999993
863.799438 -3043.65967 0.0299999993
850.10675 -3091.72705 0.0299999993
844.008484 -3086.54907 0.0299999993
751.038208 -3188.30273 0.0299999993
745.337952 -3182.6897 0.0299999993
736.205078 -3207.21021 0.0299999993
729.225281 -3203.30078 0.0299999993
728.584961 -3227.96753 0.0299999993
720.617249 -3227.24951 0.0299999993
732.040527 -3254.19824 0.0299999993
724.365601 -3256.45557 0.0299999993
741.638611 -3271.82666 0.0299999993
734.79126 -3275.96338 0.0299999993
753.801758 -3290.11963 0.0299999993
747.919189 -3295.5415 0.0299999993
801.565186 -3336.72803 0.0299999993
795.684753 -3342.1521 0.0299999993
820.912109 -3362.89404 0.0299999993
814.623108 -3367.83862 0.0299999993
834.305298 -3378.37549 0.0299999993
827.605408 -3382.74731 0.0299999993
842.181458 -3395.81201 0.0299999993
834.466248 -3397.92749 0.0299999993
846.488098 -3422.18018 0.0299999993
838.583496 -3423.41211 0.0299999993
858.932312 -3503.13403 0.0299999993
851.004333 -3504.20508 0.0299999993
858.121582 -3511.16089 0.0299999993
850.49823 -3508.73535 0.0299999993
854.392029 -3517.52881 0.0299999993
848.418213 -3512.20776 0.0299999993
849.473633 -3520.94409 0.0299999993
845.958374 -3513.75757 0.0299999993
835.605896 -3527.0459 0.0299999993
832.385498 -3519.72266 0.0299999993
3 0 1 2
3 1 3 2
3 2 3 4
3 3 5 4
3 4 5 6
3 5 7 6
3 6 7 8
3 7 9 8
3 8 9 10
3 9 11 10
3 10 11 12
3 11 13 12
3 12 13 14
3 13 15 14
3 14 15 16
3 15 17 16
3 16 17 18
3 17 19 18
3 18 19 20
3 19 21 20
3 20 21 22
3 21 23 22
3 22 23 24
3 23 25 24
3 24 25 26
3 25 27 26
3 26 27 28
3 27 29 28
3 28 29 30
3 29 31 30
3 30 31 32
3 31 33 32
3 32 33 34
3 33 35 34
3 34 35 36
3 35 37 36
3 36 37 38
3 37 39 38
3 38 39 40
3 39 41 40
3 40 41 42
3 41 43 42
3 42 43 44
3 43 45 44
3 44 45 46
3 45 47 46
3 46 47 48
3 47 49 48
3 48 49 50
3 49 51 50
3 50 51 52
3 51 53 52
3 52 53 54
3 53 55 54
3 54 55 56
3 55 57 56
3 56 57 58
3 57 59 58
3 58 59 60
3 59 61 60
3 60 61 62
3 61 63 62
