ply
format ascii 1.0
element vertex 18
property float x
property float y
property float z
element face 16
property list uchar int vertex_indices
end_header
3425.34131 -1612.62744 264.969513
3422.92603 -1615.81592 264.969513
3451.70703 -1632.66211 0.0299999993
3450.04736 -1636.30151 0.0299999993
3504.76099 -1648.79272 0.0299999993
3502.96021 -1652.3645 0.0299999993
3512.85938 -1663.93909 0.0299999993
3513.56885 -1667.87561 0.0299999993
3534.58618 -1643.11133 0.0299999993
3536.49829 -1646.62451 0.0299999993
3547.49316 -1647.41772 0.0299999993
3543.84766 -1649.06409 0.0299999993
3551.94458 -1676.33472 0.0299999993
3548.22681 -1677.81055 0.0299999993
3566.95508 -1697.09888 0.0299999993
3564.39404 -1700.17151 0.0299999993
3599.38477 -1715.60059 0.0299999993
3597.3999 -1719.07324 0.0299999993
3 0 1 2
3 1 3 2
3 2 3 4
3 3 5 4
3 4 5 6
3 5 7 6
3 6 7 8
3 7 9 8
3 8 9 10
3 9 11 10
3 10 11 12
3 11 13 12
3 12 13 14
3 13 15 14
3 14 15 16
3 15 17 16
