ply
format ascii 1.0
element vertex 12
property float x
property float y
property float z
element face 10
property list uchar int vertex_indices
end_header
-3333.92822 189.299835 214.750015
-3335.86841 182.574051 214.750015
-3319.87085 185.193344 212.622452
-3322.91138 178.888184 212.622452
-3309.78052 177.469238 212.622452
-3314.81763 172.608307 212.622452
-3304.26587 169.13681 212.167969
-3310.45581 165.868073 212.167969
-3301.60522 162.002151 212.167969
-3308.44971 160.534943 212.167969
-3300.02661 149.930237 210.130798
-3306.96851 149.029388 210.130798
3 0 1 2
3 1 3 2
3 2 3 4
3 3 5 4
3 4 5 6
3 5 7 6
3 6 7 8
3 7 9 8
3 8 9 10
3 9 11 10
