ply
format ascii 1.0
element vertex 12
property float x
property float y
property float z
element face 20
property list uchar int vertex_indices
end_header
-926.503723 -39.0063515 242.82254
-905.182556 -32.6277428 250.412338
-890.697327 -25.0468845 247.93103
-884.994202 -39.6853981 255.987289
-898.520874 -46.8989029 250.412338
-920.800659 -53.6448631 242.82254
-926.503723 -39.0063515 250.82254
-905.182556 -32.6277428 258.412354
-890.697327 -25.0468845 255.93103
-884.994202 -39.6853981 263.987305
-898.520874 -46.8989029 258.412354
-920.800659 -53.6448631 250.82254
3 7 6 11
3 5 0 1
3 11 10 9
3 3 4 5
3 9 8 7
3 1 2 3
3 7 11 9
3 3 5 1
3 0 1 7
3 0 7 6
3 1 2 8
3 1 8 7
3 2 3 9
3 2 9 8
3 3 4 10
3 3 10 9
3 4 5 11
3 4 11 10
3 5 0 6
3 5 6 11
