ply
format ascii 1.0
element vertex 14
property float x
property float y
property float z
element face 24
property list uchar int vertex_indices
end_header
-626.728882 352.726929 228.092636
-643.131287 343.877045 228.092636
-651.468079 359.328186 233.918839
-635.075317 368.17807 228.092636
-622.61377 365.506409 228.092636
-618.198486 357.335571 228.092636
-625.169983 353.572968 228.092636
-626.728882 352.726929 236.092636
-643.131287 343.877045 236.092636
-651.468079 359.328186 241.918839
-635.075317 368.17807 236.092636
-622.61377 365.506409 236.092636
-618.198486 357.335571 236.092636
-625.169983 353.572968 236.092636
3 8 7 13
3 6 0 1
3 13 12 11
3 4 5 6
3 11 10 9
3 2 3 4
3 9 8 13
3 6 1 2
3 13 11 9
3 2 4 6
3 0 1 8
3 0 8 7
3 1 2 9
3 1 9 8
3 2 3 10
3 2 10 9
3 3 4 11
3 3 11 10
3 4 5 12
3 4 12 11
3 5 6 13
3 5 13 12
3 6 0 7
3 6 7 13
