ply
format ascii 1.0
element vertex 10
property float x
property float y
property float z
element face 8
property list uchar int vertex_indices
end_header
-935.275085 -1160.90552 192.937057
-936.574829 -1157.12256 192.937057
-960.276672 -1169.49353 196.504471
-961.72937 -1165.76672 196.504471
-990.914368 -1182.56702 194.140396
-992.944458 -1179.12048 194.140396
-1061.92908 -1229.39343 193.1875
-1064.18726 -1226.0918 193.1875
-1111.77563 -1265.23364 191.100418
-1114.11072 -1261.98596 191.100418
3 0 1 2
3 1 3 2
3 2 3 4
3 3 5 4
3 4 5 6
3 5 7 6
3 6 7 8
3 7 9 8
