ply
format ascii 1.0
element vertex 8
property float x
property float y
property float z
element face 12
property list uchar int vertex_indices
end_header
-165.699188 -433.734131 280.432831
-142.063843 -433.344513 287.340942
-141.666855 -457.601044 287.340942
-165.292526 -457.990662 280.432831
-165.699188 -433.734131 283.632843
-142.063843 -433.344513 290.540955
-141.666855 -457.601044 290.540955
-165.292526 -457.990662 283.632843
3 5 4 7
3 3 0 1
3 7 6 5
3 1 2 3
3 0 1 5
3 0 5 4
3 1 2 6
3 1 6 5
3 2 3 7
3 2 7 6
3 3 0 4
3 3 4 7
