ply
format ascii 1.0
element vertex 10
property float x
property float y
property float z
element face 8
property list uchar int vertex_indices
end_header
733.614502 -689.863953 264.064301
728.117065 -689.696228 264.064301
732.588135 -723.515808 262.503143
727.090698 -723.348145 262.503143
730.622864 -787.972229 255.09288
725.124878 -787.82196 255.09288
730.203491 -810.732483 257.099457
724.711548 -810.435547 257.099457
728.994568 -817.738281 263.245972
723.577271 -816.788025 263.245972
3 0 1 2
3 1 3 2
3 2 3 4
3 3 5 4
3 4 5 6
3 5 7 6
3 6 7 8
3 7 9 8
