ply
format ascii 1.0
element vertex 14
property float x
property float y
property float z
element face 12
property list uchar int vertex_indices
end_header
1827.88831 -741.015442 224.769348
1830.70105 -738.932678 224.769348
1819.36462 -729.387939 224.769348
1821.48621 -726.604248 224.769348
1813.15625 -729.20282 224.769348
1812.6283 -725.74292 224.769348
1806.0238 -731.824707 224.769348
1804.19104 -728.842896 224.769348
1792.77625 -741.717957 232.438477
1789.90125 -739.721863 232.438477
1793.79468 -748.517639 223.323669
1790.45129 -749.553284 223.323669
1795.95508 -750.391479 223.323669
1793.48083 -752.866943 223.323669
3 0 1 2
3 1 3 2
3 2 3 4
3 3 5 4
3 4 5 6
3 5 7 6
3 6 7 8
3 7 9 8
3 8 9 10
3 9 11 10
3 10 11 12
3 11 13 12
