ply
format ascii 1.0
element vertex 12
property float x
property float y
property float z
element face 20
property list uchar int vertex_indices
end_header
2165.99927 353.650879 227.703445
2181.25903 382.883392 218.131882
2198.5813 373.833099 218.131882
2178.61572 336.78598 239.469772
2167.86792 344.277802 227.703445
2171.15039 351.101685 227.703445
2165.99927 353.650879 235.703445
2181.25903 382.883392 226.131882
2198.5813 373.833099 226.131882
2178.61572 336.78598 247.469772
2167.86792 344.277802 235.703445
2171.15039 351.101685 235.703445
3 7 6 11
3 5 0 1
3 11 10 9
3 3 4 5
3 9 8 7
3 1 2 3
3 7 11 9
3 3 5 1
3 0 1 7
3 0 7 6
3 1 2 8
3 1 8 7
3 2 3 9
3 2 9 8
3 3 4 10
3 3 10 9
3 4 5 11
3 4 11 10
3 5 0 6
3 5 6 11
