ply
format ascii 1.0
element vertex 8
property float x
property float y
property float z
element face 12
property list uchar int vertex_indices
end_header
2375.52197 -194.430618 208.370392
2374.96045 -203.069016 208.370392
2386.33765 -206.798218 208.370392
2388.9519 -198.838867 208.370392
2375.52197 -194.430618 216.370392
2374.96045 -203.069016 216.370392
2386.33765 -206.798218 216.370392
2388.9519 -198.838867 216.370392
3 6 7 4
3 0 3 2
3 4 5 6
3 2 1 0
3 0 1 5
3 0 5 4
3 1 2 6
3 1 6 5
3 2 3 7
3 2 7 6
3 3 0 4
3 3 4 7
