ply
format ascii 1.0
element vertex 24
property float x
property float y
property float z
element face 22
property list uchar int vertex_indices
end_header
-3382.59546 2282.56592 287.75528
-3385.96436 2288.70215 287.75528
-3420.46729 2261.77734 276.906189
-3423.55908 2268.05762 276.906189
-3431.18188 2258.87769 276.906189
-3431.93872 2265.83667 276.906189
-3467.49951 2256.46436 0.0299999993
-3467.62134 2263.46313 0.0299999993
-3475.17822 2258.40283 0.0299999993
-3472.43311 2264.84204 0.0299999993
-3482.36548 2262.66797 0.0299999993
-3477.71729 2267.90186 0.0299999993
-3486.87622 2268.91382 0.0299999993
-3480.56519 2271.94165 0.0299999993
-3502.64062 2304.30078 0.0299999993
-3496.3855 2307.44312 0.0299999993
-3506.34717 2308.11597 0.0299999993
-3501.49023 2313.15698 0.0299999993
-3511.46069 2312.70068 0.0299999993
-3508.13135 2318.85815 0.0299999993
-3519.98999 2315.77612 0.0299999993
-3519.80005 2322.77344 0.0299999993
-3603.62012 2314.82886 0.0299999993
-3603.69922 2321.82837 0.0299999993
3 0 1 2
3 1 3 2
3 2 3 4
3 3 5 4
3 4 5 6
3 5 7 6
3 6 7 8
3 7 9 8
3 8 9 10
3 9 11 10
3 10 11 12
3 11 13 12
3 12 13 14
3 13 15 14
3 14 15 16
3 15 17 16
3 16 17 18
3 17 19 18
3 18 19 20
3 19 21 20
3 20 21 22
3 21 23 22
