ply
format ascii 1.0
element vertex 8
property float x
property float y
property float z
element face 12
property list uchar int vertex_indices
end_header
606.027405 -771.622192 266.138672
609.687439 -746.463989 266.138672
638.260925 -750.616211 263.47406
634.600891 -775.785522 265.242035
606.027405 -771.622192 274.138672
609.687439 -746.463989 274.138672
638.260925 -750.616211 271.47406
634.600891 -775.785522 273.242035
3 5 4 7
3 3 0 1
3 7 6 5
3 1 2 3
3 0 1 5
3 0 5 4
3 1 2 6
3 1 6 5
3 2 3 7
3 2 7 6
3 3 0 4
3 3 4 7
