ply
format ascii 1.0
element vertex 12
property float x
property float y
property float z
element face 20
property list uchar int vertex_indices
end_header
-1089.09485 1315.72961 280.573547
-1075.86829 1313.34741 280.573547
-1065.32385 1311.44385 273.178772
-1066.94092 1302.48254 273.178772
-1076.36218 1304.18579 280.573547
-1090.71179 1306.76831 280.573547
-1089.09485 1315.72961 288.573547
-1075.86829 1313.34741 288.573547
-1065.32385 1311.44385 281.178772
-1066.94092 1302.48254 281.178772
-1076.36218 1304.18579 288.573547
-1090.71179 1306.76831 288.573547
3 7 6 11
3 5 0 1
3 10 9 8
3 2 3 4
3 8 7 11
3 5 1 2
3 11 10 8
3 2 4 5
3 0 1 7
3 0 7 6
3 1 2 8
3 1 8 7
3 2 3 9
3 2 9 8
3 3 4 10
3 3 10 9
3 4 5 11
3 4 11 10
3 5 0 6
3 5 6 11
