ply
format ascii 1.0
element vertex 16
property float x
property float y
property float z
element face 28
property list uchar int vertex_indices
end_header
-1501.5564 1163.58923 274.162476
-1483.82739 1163.58923 274.162476
-1483.82739 1154.52783 274.162476
-1473.10876 1154.52783 281.065521
-1473.10876 1136.38281 270.194
-1489.59827 1136.38281 269.566864
-1489.59827 1145.45532 274.162476
-1501.5564 1145.45532 274.162476
-1501.5564 1163.58923 282.162476
-1483.82739 1163.58923 282.162476
-1483.82739 1154.52783 282.162476
-1473.10876 1154.52783 289.065521
-1473.10876 1136.38281 278.194
-1489.59827 1136.38281 277.566864
-1489.59827 1145.45532 282.162476
-1501.5564 1145.45532 282.162476
3 9 8 15
3 7 0 1
3 14 13 12
3 4 5 6
3 12 11 10
3 2 3 4
3 10 9 15
3 7 1 2
3 14 12 10
3 2 4 6
3 10 15 14
3 6 7 2
3 0 1 9
3 0 9 8
3 1 2 10
3 1 10 9
3 2 3 11
3 2 11 10
3 3 4 12
3 3 12 11
3 4 5 13
3 4 13 12
3 5 6 14
3 5 14 13
3 6 7 15
3 6 15 14
3 7 0 8
3 7 8 15
