ply
format ascii 1.0
element vertex 50
property float x
property float y
property float z
element face 96
property list uchar int vertex_indices
end_header
-2210.30688 1236.7373 255.287766
-2214.44141 1238.06201 262.346802
-2212.71802 1243.40527 262.346802
-2208.59302 1242.08057 262.346802
-2208.05103 1243.75037 262.346802
-2211.61401 1244.89697 262.346802
-2210.25854 1249.11597 262.346802
-2206.69531 1247.98059 262.346802
-2206.61792 1248.21436 262.346802
-2205.47534 1251.76538 262.346802
-2209.6001 1253.09009 262.346802
-2206.61792 1262.36304 262.346802
-2170.64673 1250.80811 272.468933
-2173.62915 1241.53516 272.468933
-2175.73022 1242.21423 272.468933
-2177.94751 1235.32349 268.646027
-2192.98462 1240.16589 268.073486
-2191.91968 1243.48328 268.073486
-2196.09277 1244.8302 268.073486
-2198.05835 1238.69653 268.073486
-2195.81201 1237.9729 268.073486
-2197.52588 1232.62964 262.956329
-2199.78198 1233.35315 262.956329
-2200.38232 1231.46069 262.956329
-2210.91699 1234.84485 255.287766
-2210.30688 1236.7373 263.287781
-2214.44141 1238.06201 270.346802
-2212.71802 1243.40527 270.346802
-2208.59302 1242.08057 270.346802
-2208.05103 1243.75037 270.346802
-2211.61401 1244.89697 270.346802
-2210.25854 1249.11597 270.346802
-2206.69531 1247.98059 270.346802
-2206.61792 1248.21436 270.346802
-2205.47534 1251.76538 270.346802
-2209.6001 1253.09009 270.346802
-2206.61792 1262.36304 270.346802
-2170.64673 1250.80811 280.468933
-2173.62915 1241.53516 280.468933
-2175.73022 1242.21423 280.468933
-2177.94751 1235.32349 276.646027
-2192.98462 1240.16589 276.073486
-2191.91968 1243.48328 276.073486
-2196.09277 1244.8302 276.073486
-2198.05835 1238.69653 276.073486
-2195.81201 1237.9729 276.073486
-2197.52588 1232.62964 270.956329
-2199.78198 1233.35315 270.956329
-2200.38232 1231.46069 270.956329
-2210.91699 1234.84485 263.287781
3 25 49 48
3 23 24 0
3 47 46 45
3 20 21 22
3 42 41 40
3 15 16 17
3 39 38 37
3 12 13 14
3 37 36 35
3 10 11 12
3 32 31 30
3 5 6 7
3 28 27 26
3 1 2 3
3 25 48 47
3 22 23 0
3 47 45 44
3 19 20 22
3 42 40 39
3 14 15 17
3 39 37 35
3 10 12 14
3 32 30 29
3 4 5 7
3 28 26 25
3 0 1 3
3 25 47 44
3 19 22 0
3 43 42 39
3 14 17 18
3 39 35 34
3 9 10 14
3 33 32 29
3 4 7 8
3 29 28 25
3 0 3 4
3 25 44 43
3 18 19 0
3 43 39 34
3 9 14 18
3 34 33 29
3 4 8 9
3 29 25 43
3 18 0 4
3 43 34 29
3 4 9 18
3 0 1 26
3 0 26 25
3 1 2 27
3 1 27 26
3 2 3 28
3 2 28 27
3 3 4 29
3 3 29 28
3 4 5 30
3 4 30 29
3 5 6 31
3 5 31 30
3 6 7 32
3 6 32 31
3 7 8 33
3 7 33 32
3 8 9 34
3 8 34 33
3 9 10 35
3 9 35 34
3 10 11 36
3 10 36 35
3 11 12 37
3 11 37 36
3 12 13 38
3 12 38 37
3 13 14 39
3 13 39 38
3 14 15 40
3 14 40 39
3 15 16 41
3 15 41 40
3 16 17 42
3 16 42 41
3 17 18 43
3 17 43 42
3 18 19 44
3 18 44 43
3 19 20 45
3 19 45 44
3 20 21 46
3 20 46 45
3 21 22 47
3 21 47 46
3 22 23 48
3 22 48 47
3 23 24 49
3 23 49 48
3 24 0 25
3 24 25 49
