ply
format ascii 1.0
element vertex 20
property float x
property float y
property float z
element face 18
property list uchar int vertex_indices
end_header
-1354.50256 -1446.91418 193.949158
-1357.70447 -1448.32764 193.949158
-1322.91174 -1518.64331 189.731934
-1326.37744 -1519.13208 189.731934
-1344.18738 -1528.95154 190.891739
-1345.53674 -1525.72205 190.891739
-1359.35034 -1535.28564 190.891739
-1360.69971 -1532.05615 190.891739
-1372.29553 -1540.69556 192.357498
-1373.646 -1537.46655 192.357498
-1386.92615 -1546.81812 192.357498
-1388.27637 -1543.58899 192.357498
-1400.56934 -1552.51782 193.545059
-1401.91882 -1549.28845 193.545059
-1481.77942 -1586.07312 195.946655
-1480.91785 -1582.68079 195.946655
-1509.7124 -1524.47021 195.523895
-1506.51062 -1523.05664 195.523895
-1514.76685 -1513.01514 194.883759
-1511.56482 -1511.60217 194.883759
3 0 1 2
3 1 3 2
3 2 3 4
3 3 5 4
3 4 5 6
3 5 7 6
3 6 7 8
3 7 9 8
3 8 9 10
3 9 11 10
3 10 11 12
3 11 13 12
3 12 13 14
3 13 15 14
3 14 15 16
3 15 17 16
3 16 17 18
3 17 19 18
