ply
format ascii 1.0
element vertex 8
property float x
property float y
property float z
element face 12
property list uchar int vertex_indices
end_header
-642.782715 -1081.88074 224.921463
-622.526611 -1090.06274 215.013062
-630.359863 -1109.4657 215.013062
-650.615967 -1101.28369 206.407593
-642.782715 -1081.88074 228.12146
-622.526611 -1090.06274 218.213058
-630.359863 -1109.4657 218.213058
-650.615967 -1101.28369 209.60759
3 5 4 7
3 3 0 1
3 7 6 5
3 1 2 3
3 0 1 5
3 0 5 4
3 1 2 6
3 1 6 5
3 2 3 7
3 2 7 6
3 3 0 4
3 3 4 7
