ply
format ascii 1.0
element vertex 10
property float x
property float y
property float z
element face 8
property list uchar int vertex_indices
end_header
514.486816 -1234.38721 229.662155
514.740173 -1236.37109 229.662155
550.37085 -1229.81165 224.340515
550.856323 -1231.75183 224.340515
558.716919 -1223.58386 224.340515
560.38446 -1224.68799 224.340515
560.714233 -1213.77002 224.340515
562.066528 -1215.24353 224.340515
572.808838 -1210.78394 214.536499
573.268311 -1212.73047 214.536499
3 0 1 2
3 1 3 2
3 2 3 4
3 3 5 4
3 4 5 6
3 5 7 6
3 6 7 8
3 7 9 8
