ply
format ascii 1.0
element vertex 12
property float x
property float y
property float z
element face 10
property list uchar int vertex_indices
end_header
-2674.82935 62.3083458 213.191315
-2681.74829 63.3713608 213.191315
-2676.69849 50.2521095 207.901459
-2683.48096 51.9837112 207.901459
-2680.93555 38.4723816 207.901459
-2687.39673 41.1655846 207.901459
-2686.12427 27.6343403 209.617493
-2692.14258 31.2091427 209.617493
-2690.1377 23.1398048 209.617493
-2695.04248 28.1339531 209.617493
-2694.51318 19.2380619 209.617493
-2699.16821 24.4659691 209.617493
3 0 1 2
3 1 3 2
3 2 3 4
3 3 5 4
3 4 5 6
3 5 7 6
3 6 7 8
3 7 9 8
3 8 9 10
3 9 11 10
