ply
format ascii 1.0
element vertex 18
property float x
property float y
property float z
element face 16
property list uchar int vertex_indices
end_header
-2163.1665 1130.17358 259.873901
-2159.9624 1134.6438 259.873901
-2179.87988 1142.16846 256.759338
-2176.26685 1146.31531 256.759338
-2208.16162 1169.3894 254.948456
-2204.04785 1173.03992 254.948456
-2239.54761 1209.41321 255.683655
-2234.97925 1212.47583 255.683655
-2240.89722 1218.73413 255.683655
-2235.43066 1219.34082 255.683655
-2241.31055 1222.57996 255.683655
-2235.81152 1222.68628 255.683655
-2241.06494 1227.20142 255.683655
-2235.573 1226.90356 255.683655
-2240.3562 1237.89404 263.307251
-2235.21631 1235.93677 263.307251
-2205.26147 1321.59094 269.568146
-2200.18945 1319.46399 269.568146
3 0 1 2
3 1 3 2
3 2 3 4
3 3 5 4
3 4 5 6
3 5 7 6
3 6 7 8
3 7 9 8
3 8 9 10
3 9 11 10
3 10 11 12
3 11 13 12
3 12 13 14
3 13 15 14
3 14 15 16
3 15 17 16
