ply
format ascii 1.0
element vertex 14
property float x
property float y
property float z
element face 24
property list uchar int vertex_indices
end_header
2253.58838 -338.255402 227.299042
2258.29419 -330.630005 227.299042
2278.29858 -342.964233 220.469284
2273.58301 -350.5896 220.469284
2261.11182 -342.89743 220.469284
2255.69922 -351.658264 223.819717
2248.18555 -347.027374 223.819717
2253.58838 -338.255402 235.299042
2258.29419 -330.630005 235.299042
2278.29858 -342.964233 228.469284
2273.58301 -350.5896 228.469284
2261.11182 -342.89743 228.469284
2255.69922 -351.658264 231.819717
2248.18555 -347.027374 231.819717
3 8 7 13
3 6 0 1
3 13 12 11
3 4 5 6
3 11 10 9
3 2 3 4
3 8 13 11
3 4 6 1
3 11 9 8
3 1 2 4
3 0 1 8
3 0 8 7
3 1 2 9
3 1 9 8
3 2 3 10
3 2 10 9
3 3 4 11
3 3 11 10
3 4 5 12
3 4 12 11
3 5 6 13
3 5 13 12
3 6 0 7
3 6 7 13
