ply
format ascii 1.0
element vertex 8
property float x
property float y
property float z
element face 12
property list uchar int vertex_indices
end_header
-548.531799 48.8469925 216.237793
-537.348328 58.3759422 212.642029
-506.38324 21.9855995 219.310684
-517.557007 12.467783 212.187622
-548.531799 48.8469925 224.237793
-537.348328 58.3759422 220.642029
-506.38324 21.9855995 227.310684
-517.557007 12.467783 220.187622
3 5 4 7
3 3 0 1
3 7 6 5
3 1 2 3
3 0 1 5
3 0 5 4
3 1 2 6
3 1 6 5
3 2 3 7
3 2 7 6
3 3 0 4
3 3 4 7
