ply
format ascii 1.0
element vertex 36
property float x
property float y
property float z
element face 34
property list uchar int vertex_indices
end_header
1128.13794 114.383133 190.920349
1126.13794 114.400681 190.920349
1127.63342 99.7164917 190.920349
1126.37134 98.1650391 190.920349
1146.45776 99.5395355 192.016876
1146.76172 97.5627594 192.016876
1276.24219 122.89225 223.256729
1276.6853 120.941963 223.256729
1402.67346 157.757736 184.049149
1403.20361 155.829269 184.049149
1410.45178 159.78717 184.049149
1410.9563 157.851868 184.049149
1415.64294 160.967377 184.049149
1417.13257 159.632751 184.049149
1414.38184 163.71666 184.049149
1416.30225 164.275101 184.049149
1412.11707 174.494553 184.049149
1411.82788 176.473541 184.049149
1309.83228 147.577484 187.648743
1309.32458 149.511978 187.648743
1302.91052 145.827606 187.648743
1302.41956 147.766418 187.648743
1270.32056 137.572357 186.308044
1269.88403 139.524124 186.308044
1224.73621 128.342178 178.949661
1224.31592 130.297531 178.949661
1188.09058 119.898972 203.633667
1187.72192 121.8647 203.633667
1176.14087 119.237305 196.169968
1176.04602 121.235054 196.169968
1138.84265 117.555954 192.016876
1138.53601 119.532303 192.016876
1138.76624 113.450859 192.016876
1138.0896 115.332962 192.016876
1127.13794 113.391907 190.920349
1127.13794 115.391907 190.920349
3 0 1 2
3 1 3 2
3 2 3 4
3 3 5 4
3 4 5 6
3 5 7 6
3 6 7 8
3 7 9 8
3 8 9 10
3 9 11 10
3 10 11 12
3 11 13 12
3 12 13 14
3 13 15 14
3 14 15 16
3 15 17 16
3 16 17 18
3 17 19 18
3 18 19 20
3 19 21 20
3 20 21 22
3 21 23 22
3 22 23 24
3 23 25 24
3 24 25 26
3 25 27 26
3 26 27 28
3 27 29 28
3 28 29 30
3 29 31 30
3 30 31 32
3 31 33 32
3 32 33 34
3 33 35 34
