ply
format ascii 1.0
element vertex 8
property float x
property float y
property float z
element face 12
property list uchar int vertex_indices
end_header
-1184.15906 1401.40112 286.721588
-1131.44678 1451.7063 288.784088
-1125.60803 1445.59485 283.934479
-1178.31079 1395.27844 283.63739
-1184.15906 1401.40112 294.721588
-1131.44678 1451.7063 296.784088
-1125.60803 1445.59485 291.934479
-1178.31079 1395.27844 291.63739
3 5 4 7
3 3 0 1
3 7 6 5
3 1 2 3
3 0 1 5
3 0 5 4
3 1 2 6
3 1 6 5
3 2 3 7
3 2 7 6
3 3 0 4
3 3 4 7
