ply
format ascii 1.0
element vertex 12
property float x
property float y
property float z
element face 10
property list uchar int vertex_indices
end_header
72.7804794 147.319565 217.621017
69.8836899 139.862457 217.621017
91.8085938 139.925903 214.628433
89.14077 132.383835 214.628433
112.281723 133.339264 208.399078
110.128754 125.634407 208.399078
130.639725 129.074646 208.399078
129.029587 121.238358 208.399078
155.562912 124.380699 213.412384
155.482529 116.381096 213.412384
293.7005 127.50795 214.009811
293.881439 119.509995 214.009811
3 0 1 2
3 1 3 2
3 2 3 4
3 3 5 4
3 4 5 6
3 5 7 6
3 6 7 8
3 7 9 8
3 8 9 10
3 9 11 10
