ply
format ascii 1.0
element vertex 16
property float x
property float y
property float z
element face 14
property list uchar int vertex_indices
end_header
-2075.8855 1053.4259 253.170212
-2075.78296 1056.92444 253.170212
-2109.69727 1054.41663 258.019684
-2109.59497 1057.91516 258.019684
-2160.27002 1055.97791 262.579102
-2161.25171 1059.3374 262.579102
-2160.67896 1041.02576 260.615875
-2164.13477 1040.4707 260.615875
-2156.77222 1036.29736 260.615875
-2157.33276 1032.84253 260.615875
-2114.26636 1034.67017 259.716827
-2114.08887 1031.17468 259.716827
-2110.12451 1037.3761 259.716827
-2106.68921 1036.70642 259.716827
-2111.39258 1056.05273 258.019684
-2107.8999 1056.27905 258.019684
3 0 1 2
3 1 3 2
3 2 3 4
3 3 5 4
3 4 5 6
3 5 7 6
3 6 7 8
3 7 9 8
3 8 9 10
3 9 11 10
3 10 11 12
3 11 13 12
3 12 13 14
3 13 15 14
