ply
format ascii 1.0
element vertex 8
property float x
property float y
property float z
element face 12
property list uchar int vertex_indices
end_header
-217.636932 1660.83118 228.198334
-209.077469 1653.94043 225.446945
-220.367432 1639.91418 228.198334
-228.936584 1646.81604 228.198334
-217.636932 1660.83118 236.198334
-209.077469 1653.94043 233.446945
-220.367432 1639.91418 236.198334
-228.936584 1646.81604 236.198334
3 5 4 7
3 3 0 1
3 7 6 5
3 1 2 3
3 0 1 5
3 0 5 4
3 1 2 6
3 1 6 5
3 2 3 7
3 2 7 6
3 3 0 4
3 3 4 7
