ply
format ascii 1.0
element vertex 16
property float x
property float y
property float z
element face 28
property list uchar int vertex_indices
end_header
2322.13184 2270.00488 207.59494
2342.16528 2263.97119 213.679016
2339.62842 2255.54443 211.808212
2348.50732 2252.8728 212.812317
2341.25513 2228.77197 212.812317
2318.99463 2235.4624 211.808212
2322.86768 2248.34204 211.808212
2316.21582 2250.3457 211.808212
2322.13184 2270.00488 215.59494
2342.16528 2263.97119 221.679016
2339.62842 2255.54443 219.808212
2348.50732 2252.8728 220.812317
2341.25513 2228.77197 220.812317
2318.99463 2235.4624 219.808212
2322.86768 2248.34204 219.808212
2316.21582 2250.3457 219.808212
3 9 8 15
3 7 0 1
3 14 13 12
3 4 5 6
3 12 11 10
3 2 3 4
3 10 9 15
3 7 1 2
3 14 12 10
3 2 4 6
3 10 15 14
3 6 7 2
3 0 1 9
3 0 9 8
3 1 2 10
3 1 10 9
3 2 3 11
3 2 11 10
3 3 4 12
3 3 12 11
3 4 5 13
3 4 13 12
3 5 6 14
3 5 14 13
3 6 7 15
3 6 15 14
3 7 0 8
3 7 8 15
