ply
format ascii 1.0
element vertex 10
property float x
property float y
property float z
element face 8
property list uchar int vertex_indices
end_header
-1128.49548 -1110.8252 214.299469
-1129.28552 -1106.90393 214.299469
-1208.39392 -1126.92139 203.848816
-1209.18945 -1123.00134 203.848816
-1226.8125 -1130.77185 200.400513
-1227.89429 -1126.9209 200.400513
-1235.24463 -1134.43311 200.400513
-1237.02637 -1130.85181 200.400513
-1246.91199 -1140.80957 199.271439
-1248.82983 -1137.29932 199.271439
3 0 1 2
3 1 3 2
3 2 3 4
3 3 5 4
3 4 5 6
3 5 7 6
3 6 7 8
3 7 9 8
