ply
format ascii 1.0
element vertex 8
property float x
property float y
property float z
element face 12
property list uchar int vertex_indices
end_header
-492.672607 -509.442505 269.132385
-504.223999 -528.789856 269.896393
-512.163757 -524.047607 265.132965
-500.602692 -504.700317 269.132385
-492.672607 -509.442505 272.332397
-504.223999 -528.789856 273.096405
-512.163757 -524.047607 268.332977
-500.602692 -504.700317 272.332397
3 5 4 7
3 3 0 1
3 7 6 5
3 1 2 3
3 0 1 5
3 0 5 4
3 1 2 6
3 1 6 5
3 2 3 7
3 2 7 6
3 3 0 4
3 3 4 7
