ply
format ascii 1.0
element vertex 24
property float x
property float y
property float z
element face 22
property list uchar int vertex_indices
end_header
1049.32263 -187.572083 266.788818
1048.927 -179.581863 266.788818
994.69342 -190.27713 278.448151
994.297241 -182.286942 278.448151
961.596985 -191.921417 275.227142
961.086853 -183.937698 275.227142
951.429443 -193.021164 275.227142
950.107483 -185.131149 275.227142
940.387146 -195.461533 272.250275
938.046997 -187.811462 272.250275
930.731689 -199.328644 272.250275
927.136475 -192.182007 272.250275
923.291199 -204.061722 272.250275
918.542542 -197.62352 272.250275
916.914001 -209.552887 270.056549
911.40271 -203.75412 270.056549
909.917542 -216.776306 270.056549
903.759033 -211.670151 270.056549
878.97113 -255.335327 273.724274
872.387878 -250.789871 273.724274
859.495605 -289.779694 273.90625
852.41626 -286.053741 273.90625
841.753418 -326.107178 273.226532
834.565063 -322.596039 273.226532
3 0 1 2
3 1 3 2
3 2 3 4
3 3 5 4
3 4 5 6
3 5 7 6
3 6 7 8
3 7 9 8
3 8 9 10
3 9 11 10
3 10 11 12
3 11 13 12
3 12 13 14
3 13 15 14
3 14 15 16
3 15 17 16
3 16 17 18
3 17 19 18
3 18 19 20
3 19 21 20
3 20 21 22
3 21 23 22
