ply
format ascii 1.0
element vertex 10
property float x
property float y
property float z
element face 16
property list uchar int vertex_indices
end_header
1508.06311 -526.329712 287.204254
1500.98511 -522.555969 288.303741
1468.19958 -505.067657 291.520966
1474.10608 -493.991364 289.462463
1513.96948 -515.253418 292.48053
1508.06311 -526.329712 295.204254
1500.98511 -522.555969 296.303741
1468.19958 -505.067657 299.520966
1474.10608 -493.991364 297.462463
1513.96948 -515.253418 300.48053
3 6 5 9
3 4 0 1
3 9 8 7
3 2 3 4
3 7 6 9
3 4 1 2
3 0 1 6
3 0 6 5
3 1 2 7
3 1 7 6
3 2 3 8
3 2 8 7
3 3 4 9
3 3 9 8
3 4 0 5
3 4 5 9
