ply
format ascii 1.0
element vertex 8
property float x
property float y
property float z
element face 12
property list uchar int vertex_indices
end_header
961.57428 -1341.35535 201.128754
990.012268 -1340.9657 205.434479
990.418945 -1371.05542 196.158386
961.980957 -1371.44495 191.585007
961.57428 -1341.35535 204.328751
990.012268 -1340.9657 208.634476
990.418945 -1371.05542 199.358383
961.980957 -1371.44495 194.785004
3 5 4 7
3 3 0 1
3 7 6 5
3 1 2 3
3 0 1 5
3 0 5 4
3 1 2 6
3 1 6 5
3 2 3 7
3 2 7 6
3 3 0 4
3 3 4 7
