ply
format ascii 1.0
element vertex 12
property float x
property float y
property float z
element face 20
property list uchar int vertex_indices
end_header
320.999207 -741.599304 302.575897
334.535553 -740.820068 297.331787
333.906189 -729.955322 297.331787
345.399506 -729.476624 297.331787
346.02887 -751.996582 299.327789
321.473663 -752.942749 306.513245
320.999207 -741.599304 310.575897
334.535553 -740.820068 305.331787
333.906189 -729.955322 305.331787
345.399506 -729.476624 305.331787
346.02887 -751.996582 307.327789
321.473663 -752.942749 314.513245
3 7 6 11
3 5 0 1
3 10 9 8
3 2 3 4
3 7 11 10
3 4 5 1
3 10 8 7
3 1 2 4
3 0 1 7
3 0 7 6
3 1 2 8
3 1 8 7
3 2 3 9
3 2 9 8
3 3 4 10
3 3 10 9
3 4 5 11
3 4 11 10
3 5 0 6
3 5 6 11
