ply
format ascii 1.0
element vertex 52
property float x
property float y
property float z
element face 50
property list uchar int vertex_indices
end_header
2193.28589 2625.70483 0.0299999993
2191.28906 2625.5918 0.0299999993
2196.46191 2569.67798 0.0299999993
2194.46509 2569.56445 0.0299999993
2200.48022 2498.979 208.662476
2198.4834 2498.86548 208.662476
2201.93262 2473.50903 210.076614
2199.93579 2473.39551 210.076614
2205.21436 2415.75708 208.229355
2203.21899 2415.62012 208.229355
2206.86499 2401.5376 202.267761
2204.87964 2401.29736 202.267761
2208.51562 2388.47168 210.152252
2206.54028 2388.15845 210.152252
2211.31055 2373.4895 207.694763
2209.36157 2373.04004 207.694763
2214.73169 2361.50317 207.694763
2212.83447 2360.87012 207.694763
2220.72412 2345.29199 204.038437
2218.84839 2344.59814 204.038437
2239.51538 2294.47803 203.339676
2237.62598 2293.82202 203.339676
2241.82446 2284.47363 198.72731
2239.84814 2284.16724 198.72731
2242.2915 2276.60425 198.72731
2240.2915 2276.60791 198.72731
2241.7998 2267.70068 198.72731
2239.8147 2267.94507 198.72731
2240.26758 2260.16919 198.72731
2238.32593 2260.64893 198.72731
2238.2793 2253.43384 199.57814
2236.3833 2254.07056 199.57814
2234.77832 2243.82715 199.57814
2232.95142 2244.64136 199.57814
2230.56543 2236.14038 195.896774
2228.87598 2237.21094 195.896774
2225.62036 2229.36987 195.896774
2224.08032 2230.64551 195.896774
2219.98022 2223.3562 198.619522
2218.56592 2224.77026 198.619522
2215.0083 2218.7627 198.619522
2213.81665 2220.36914 198.619522
2208.58569 2214.9021 198.619522
2207.63232 2216.66016 198.619522
2201.7981 2211.59155 195.500488
2200.99976 2213.42505 195.500488
2191.90137 2207.63477 195.500488
2191.24048 2209.52246 195.500488
2180.49512 2204.13208 195.500488
2179.95093 2206.05664 195.500488
2165.21899 2200.08691 193.177505
2164.70703 2202.02026 193.177505
3 0 1 2
3 1 3 2
3 2 3 4
3 3 5 4
3 4 5 6
3 5 7 6
3 6 7 8
3 7 9 8
3 8 9 10
3 9 11 10
3 10 11 12
3 11 13 12
3 12 13 14
3 13 15 14
3 14 15 16
3 15 17 16
3 16 17 18
3 17 19 18
3 18 19 20
3 19 21 20
3 20 21 22
3 21 23 22
3 22 23 24
3 23 25 24
3 24 25 26
3 25 27 26
3 26 27 28
3 27 29 28
3 28 29 30
3 29 31 30
3 30 31 32
3 31 33 32
3 32 33 34
3 33 35 34
3 34 35 36
3 35 37 36
3 36 37 38
3 37 39 38
3 38 39 40
3 39 41 40
3 40 41 42
3 41 43 42
3 42 43 44
3 43 45 44
3 44 45 46
3 45 47 46
3 46 47 48
3 47 49 48
3 48 49 50
3 49 51 50
