ply
format ascii 1.0
element vertex 20
property float x
property float y
property float z
element face 36
property list uchar int vertex_indices
end_header
871.409485 -570.735046 276.421082
866.171143 -562.619812 276.421082
860.361572 -553.591858 277.191315
875.476196 -543.851379 278.247375
875.534302 -543.94043 278.247375
879.784973 -550.541687 278.247375
881.285767 -552.879395 278.247375
881.188965 -552.946167 278.247375
886.417603 -561.06134 276.421082
874.943665 -568.464111 276.421082
871.409485 -570.735046 284.421082
866.171143 -562.619812 284.421082
860.361572 -553.591858 285.191315
875.476196 -543.851379 286.247375
875.534302 -543.94043 286.247375
879.784973 -550.541687 286.247375
881.285767 -552.879395 286.247375
881.188965 -552.946167 286.247375
886.417603 -561.06134 284.421082
874.943665 -568.464111 284.421082
3 11 10 19
3 9 0 1
3 19 18 17
3 7 8 9
3 17 16 15
3 5 6 7
3 15 14 13
3 3 4 5
3 13 12 11
3 1 2 3
3 11 19 17
3 7 9 1
3 17 15 13
3 3 5 7
3 13 11 17
3 7 1 3
3 0 1 11
3 0 11 10
3 1 2 12
3 1 12 11
3 2 3 13
3 2 13 12
3 3 4 14
3 3 14 13
3 4 5 15
3 4 15 14
3 5 6 16
3 5 16 15
3 6 7 17
3 6 17 16
3 7 8 18
3 7 18 17
3 8 9 19
3 8 19 18
3 9 0 10
3 9 10 19
