ply
format ascii 1.0
element vertex 10
property float x
property float y
property float z
element face 8
property list uchar int vertex_indices
end_header
-518.961365 -1587.89978 168.029999
-519.309204 -1589.35889 168.029999
-482.141327 -1596.6825 168.029999
-482.637939 -1598.0979 168.029999
-446.652191 -1613.27417 168.029999
-446.940216 -1614.74622 168.029999
-400.704529 -1612.6814 172.144424
-400.341125 -1614.13672 172.144424
-354.664886 -1590.24817 176.386673
-354.00827 -1591.5968 176.386673
3 0 1 2
3 1 3 2
3 2 3 4
3 3 5 4
3 4 5 6
3 5 7 6
3 6 7 8
3 7 9 8
