ply
format ascii 1.0
element vertex 14
property float x
property float y
property float z
element face 24
property list uchar int vertex_indices
end_header
2900.63159 -1691.70007 242.294266
2904.05908 -1686.94666 242.294266
2910.09155 -1691.31042 242.050293
2906.66382 -1696.05261 242.050293
2897.1748 -1709.17725 236.989288
2888.354 -1702.78748 236.989288
2897.83325 -1689.67407 242.294266
2900.63159 -1691.70007 250.294266
2904.05908 -1686.94666 250.294266
2910.09155 -1691.31042 250.050293
2906.66382 -1696.05261 250.050293
2897.1748 -1709.17725 244.989288
2888.354 -1702.78748 244.989288
2897.83325 -1689.67407 250.294266
3 7 13 12
3 5 6 0
3 12 11 10
3 3 4 5
3 10 9 8
3 1 2 3
3 7 12 10
3 3 5 0
3 10 8 7
3 0 1 3
3 0 1 8
3 0 8 7
3 1 2 9
3 1 9 8
3 2 3 10
3 2 10 9
3 3 4 11
3 3 11 10
3 4 5 12
3 4 12 11
3 5 6 13
3 5 13 12
3 6 0 7
3 6 7 13
