ply
format ascii 1.0
element vertex 16
property float x
property float y
property float z
element face 28
property list uchar int vertex_indices
end_header
1146.55164 -846.762817 267.227814
1151.81897 -850.369568 267.227814
1150.26013 -852.640503 267.227814
1165.10364 -862.837402 271.013062
1159.85559 -870.485046 264.493652
1145.01208 -860.277039 267.227814
1143.24988 -862.837402 267.227814
1137.99219 -859.219482 267.227814
1146.55164 -846.762817 275.227814
1151.81897 -850.369568 275.227814
1150.26013 -852.640503 275.227814
1165.10364 -862.837402 279.013062
1159.85559 -870.485046 272.493652
1145.01208 -860.277039 275.227814
1143.24988 -862.837402 275.227814
1137.99219 -859.219482 275.227814
3 9 8 15
3 7 0 1
3 15 14 13
3 5 6 7
3 13 12 11
3 3 4 5
3 10 9 15
3 7 1 2
3 15 13 11
3 3 5 7
3 11 10 15
3 7 2 3
3 0 1 9
3 0 9 8
3 1 2 10
3 1 10 9
3 2 3 11
3 2 11 10
3 3 4 12
3 3 12 11
3 4 5 13
3 4 13 12
3 5 6 14
3 5 14 13
3 6 7 15
3 6 15 14
3 7 0 8
3 7 8 15
