ply
format ascii 1.0
element vertex 12
property float x
property float y
property float z
element face 10
property list uchar int vertex_indices
end_header
2661.16016 2318.15039 254.47937
2657.19043 2318.64038 254.47937
2659.60596 2305.62866 254.47937
2655.60742 2305.73682 254.47937
2660.56567 2298.8396 254.47937
2656.70044 2297.80933 254.47937
2662.94897 2293.15381 254.47937
2659.46826 2291.18311 254.47937
2666.81763 2287.84326 255.696793
2663.8103 2285.20581 255.696793
2676.81909 2277.39917 255.696793
2673.92969 2274.63306 255.696793
3 0 1 2
3 1 3 2
3 2 3 4
3 3 5 4
3 4 5 6
3 5 7 6
3 6 7 8
3 7 9 8
3 8 9 10
3 9 11 10
