ply
format ascii 1.0
element vertex 42
property float x
property float y
property float z
element face 40
property list uchar int vertex_indices
end_header
3414.3894 -1200.64575 287.765472
3406.30176 -1206.52686 287.765472
3437.67993 -1232.67676 282.32428
3429.70093 -1238.70496 282.32428
3443.58813 -1239.39014 281.069763
3436.63208 -1246.57446 281.069763
3450.69067 -1245.3075 0.0299999993
3445.15723 -1253.63696 0.0299999993
3458.19849 -1249.12427 0.0299999993
3454.49707 -1258.41406 0.0299999993
3467.11621 -1251.79602 0.0299999993
3464.82861 -1261.53088 0.0299999993
3475.49463 -1253.23535 0.0299999993
3475.1958 -1263.23083 0.0299999993
3535.80933 -1253.74805 0.0299999993
3535.46875 -1263.74219 0.0299999993
3567.07935 -1256.37878 0.0299999993
3565.81909 -1266.29907 0.0299999993
3579.38428 -1259.29187 0.0299999993
3577.0625 -1269.01868 0.0299999993
3590.80151 -1262.02417 0.0299999993
3587.79932 -1271.56287 0.0299999993
3617.95874 -1271.42236 0.0299999993
3614.6709 -1280.86646 0.0299999993
3643.68774 -1280.44031 0.0299999993
3640.87988 -1290.03809 0.0299999993
3661.52051 -1284.19995 0.0299999993
3659.91846 -1294.0708 0.0299999993
3672.89673 -1285.1759 0.0299999993
3672.43921 -1295.16541 0.0299999993
3682.7666 -1285.20117 0.0299999993
3683.87109 -1295.14001 0.0299999993
3691.87427 -1283.1814 0.0299999993
3695.54224 -1292.4845 0.0299999993
3696.96069 -1279.83936 0.0299999993
3703.95361 -1286.98779 0.0299999993
3700.90845 -1274.19385 0.0299999993
3709.88208 -1278.60693 0.0299999993
3703.05322 -1267.30554 0.0299999993
3712.92749 -1268.88647 0.0299999993
3702.99023 -1260.19226 0.0299999993
3712.99023 -1260.19226 0.0299999993
3 0 1 2
3 1 3 2
3 2 3 4
3 3 5 4
3 4 5 6
3 5 7 6
3 6 7 8
3 7 9 8
3 8 9 10
3 9 11 10
3 10 11 12
3 11 13 12
3 12 13 14
3 13 15 14
3 14 15 16
3 15 17 16
3 16 17 18
3 17 19 18
3 18 19 20
3 19 21 20
3 20 21 22
3 21 23 22
3 22 23 24
3 23 25 24
3 24 25 26
3 25 27 26
3 26 27 28
3 27 29 28
3 28 29 30
3 29 31 30
3 30 31 32
3 31 33 32
3 32 33 34
3 33 35 34
3 34 35 36
3 35 37 36
3 36 37 38
3 37 39 38
3 38 39 40
3 39 41 40
