ply
format ascii 1.0
element vertex 16
property float x
property float y
property float z
element face 14
property list uchar int vertex_indices
end_header
415.607788 -339.694 291.32608
412.045776 -335.503265 291.32608
399.509552 -353.282288 298.231018
395.087433 -350.011993 298.231018
399.753632 -360.496307 298.231018
394.26239 -360.186066 298.231018
398.996857 -368.196289 298.231018
393.837891 -366.289703 298.231018
393.587585 -376.305389 297.250702
390.24231 -371.939697 297.250702
378.455566 -384.422516 293.60611
374.428589 -380.676361 293.60611
376.041718 -393.089813 293.60611
370.839172 -394.874084 293.60611
408.126099 -466.485168 267.299927
403.086334 -468.687592 267.299927
3 0 1 2
3 1 3 2
3 2 3 4
3 3 5 4
3 4 5 6
3 5 7 6
3 6 7 8
3 7 9 8
3 8 9 10
3 9 11 10
3 10 11 12
3 11 13 12
3 12 13 14
3 13 15 14
