ply
format ascii 1.0
element vertex 8
property float x
property float y
property float z
element face 12
property list uchar int vertex_indices
end_header
-1889.64661 -607.871216 262.546967
-1859.12695 -607.09198 265.544281
-1858.85583 -617.812012 265.544281
-1889.37549 -618.591309 257.605499
-1889.64661 -607.871216 265.746979
-1859.12695 -607.09198 268.744293
-1858.85583 -617.812012 268.744293
-1889.37549 -618.591309 260.805511
3 5 4 7
3 3 0 1
3 7 6 5
3 1 2 3
3 0 1 5
3 0 5 4
3 1 2 6
3 1 6 5
3 2 3 7
3 2 7 6
3 3 0 4
3 3 4 7
