ply
format ascii 1.0
element vertex 14
property float x
property float y
property float z
element face 12
property list uchar int vertex_indices
end_header
176.443893 -2382.62524 232.570648
177.418243 -2388.03833 232.570648
192.281982 -2379.82104 233.2836
192.254791 -2385.32104 233.2836
215.989197 -2382.88184 233.2836
214.443329 -2388.16016 233.2836
234.317993 -2392.23755 229.369217
230.875259 -2396.52661 229.369217
245.78772 -2406.76685 222.926437
241.03656 -2409.5376 222.926437
253.603928 -2425.12476 234.311356
248.305939 -2426.60156 234.311356
255.650955 -2441.93335 234.311356
250.190048 -2442.58789 234.311356
3 0 1 2
3 1 3 2
3 2 3 4
3 3 5 4
3 4 5 6
3 5 7 6
3 6 7 8
3 7 9 8
3 8 9 10
3 9 11 10
3 10 11 12
3 11 13 12
