ply
format ascii 1.0
element vertex 24
property float x
property float y
property float z
element face 44
property list uchar int vertex_indices
end_header
-2219.82495 -1080.46692 335.068787
-2145.42358 -1106.25964 329.875397
-2106.33472 -1114.74231 321.324829
-2101.73535 -1104.69006 330.657928
-2095.95483 -1090.04041 324.19397
-2120.67456 -1085.22034 330.657928
-2124.76074 -1098.57861 329.875397
-2141.68604 -1094.83838 329.875397
-2138.35522 -1084.76392 329.875397
-2179.59351 -1071.28308 336.57193
-2183.19556 -1081.55786 336.57193
-2215.49683 -1070.43713 335.068787
-2219.82495 -1080.46692 343.068787
-2145.42358 -1106.25964 337.875397
-2106.33472 -1114.74231 329.324829
-2101.73535 -1104.69006 338.657928
-2095.95483 -1090.04041 332.19397
-2120.67456 -1085.22034 338.657928
-2124.76074 -1098.57861 337.875397
-2141.68604 -1094.83838 337.875397
-2138.35522 -1084.76392 337.875397
-2179.59351 -1071.28308 344.57193
-2183.19556 -1081.55786 344.57193
-2215.49683 -1070.43713 343.068787
3 22 23 12
3 0 11 10
3 12 13 14
3 2 1 0
3 14 15 16
3 4 3 2
3 16 17 18
3 6 5 4
3 19 20 21
3 9 8 7
3 22 12 14
3 2 0 10
3 14 16 18
3 6 4 2
3 19 21 22
3 10 9 7
3 14 18 19
3 7 6 2
3 19 22 14
3 2 10 7
3 0 1 13
3 0 13 12
3 1 2 14
3 1 14 13
3 2 3 15
3 2 15 14
3 3 4 16
3 3 16 15
3 4 5 17
3 4 17 16
3 5 6 18
3 5 18 17
3 6 7 19
3 6 19 18
3 7 8 20
3 7 20 19
3 8 9 21
3 8 21 20
3 9 10 22
3 9 22 21
3 10 11 23
3 10 23 22
3 11 0 12
3 11 12 23
