ply
format ascii 1.0
element vertex 10
property float x
property float y
property float z
element face 8
property list uchar int vertex_indices
end_header
1996.37854 -632.125732 243.340897
1999.61243 -627.676941 243.340897
1992.05701 -628.984253 243.340897
1995.29712 -624.539978 243.340897
1948.36365 -596.667725 246.195358
1948.96106 -591.200256 246.195358
1924.1145 -621.880249 241.395447
1925.70728 -616.615906 241.395447
1862.89417 -570.623352 252.03363
1866.43665 -566.416199 252.03363
3 0 1 2
3 1 3 2
3 2 3 4
3 3 5 4
3 4 5 6
3 5 7 6
3 6 7 8
3 7 9 8
