ply
format ascii 1.0
element vertex 30
property float x
property float y
property float z
element face 56
property list uchar int vertex_indices
end_header
668.257812 -475.478943 291.828064
666.156677 -477.649658 291.828064
669.845764 -481.234161 291.828064
663.687561 -487.557098 291.828064
659.998474 -483.972626 291.828064
653.210938 -477.360229 291.828064
671.501465 -458.569519 283.898468
678.289001 -465.181885 290.30899
681.435852 -468.243164 290.30899
676.187866 -473.642181 290.30899
673.031311 -470.569763 290.30899
670.997986 -472.662567 291.828064
675.103394 -476.658936 290.30899
672.566589 -479.263794 291.828064
672.36322 -479.475311 291.828064
668.257812 -475.478943 299.828064
666.156677 -477.649658 299.828064
669.845764 -481.234161 299.828064
663.687561 -487.557098 299.828064
659.998474 -483.972626 299.828064
653.210938 -477.360229 299.828064
671.501465 -458.569519 291.898468
678.289001 -465.181885 298.30899
681.435852 -468.243164 298.30899
676.187866 -473.642181 298.30899
673.031311 -470.569763 298.30899
670.997986 -472.662567 299.828064
675.103394 -476.658936 298.30899
672.566589 -479.263794 299.828064
672.36322 -479.475311 299.828064
3 15 29 28
3 13 14 0
3 28 27 26
3 11 12 13
3 25 24 23
3 8 9 10
3 22 21 20
3 5 6 7
3 20 19 18
3 3 4 5
3 18 17 16
3 1 2 3
3 15 28 26
3 11 13 0
3 25 23 22
3 7 8 10
3 20 18 16
3 1 3 5
3 15 26 25
3 10 11 0
3 25 22 20
3 5 7 10
3 20 16 15
3 0 1 5
3 15 25 20
3 5 10 0
3 0 1 16
3 0 16 15
3 1 2 17
3 1 17 16
3 2 3 18
3 2 18 17
3 3 4 19
3 3 19 18
3 4 5 20
3 4 20 19
3 5 6 21
3 5 21 20
3 6 7 22
3 6 22 21
3 7 8 23
3 7 23 22
3 8 9 24
3 8 24 23
3 9 10 25
3 9 25 24
3 10 11 26
3 10 26 25
3 11 12 27
3 11 27 26
3 12 13 28
3 12 28 27
3 13 14 29
3 13 29 28
3 14 0 15
3 14 15 29
