ply
format ascii 1.0
element vertex 32
property float x
property float y
property float z
element face 60
property list uchar int vertex_indices
end_header
-2213.27954 764.353027 204.056168
-2210.66528 760.445679 204.056168
-2193.05249 772.20105 204.094849
-2195.59912 776.019287 202.252304
-2189.55713 780.049072 202.252304
-2187.0105 776.241943 202.252304
-2179.08032 781.529602 202.252304
-2172.70923 771.978394 200.148956
-2239.62598 727.317017 203.253357
-2245.99731 736.868225 203.253357
-2238.57056 741.82196 203.253357
-2241.18506 745.740417 200.921829
-2235.36572 749.625427 200.921829
-2232.75146 745.707031 200.921829
-2215.16772 757.440063 204.056168
-2217.77222 761.347412 204.056168
-2213.27954 764.353027 212.056168
-2210.66528 760.445679 212.056168
-2193.05249 772.20105 212.094849
-2195.59912 776.019287 210.252304
-2189.55713 780.049072 210.252304
-2187.0105 776.241943 210.252304
-2179.08032 781.529602 210.252304
-2172.70923 771.978394 208.148956
-2239.62598 727.317017 211.253357
-2245.99731 736.868225 211.253357
-2238.57056 741.82196 211.253357
-2241.18506 745.740417 208.921829
-2235.36572 749.625427 208.921829
-2232.75146 745.707031 208.921829
-2215.16772 757.440063 212.056168
-2217.77222 761.347412 212.056168
3 17 16 31
3 15 0 1
3 29 28 27
3 11 12 13
3 26 25 24
3 8 9 10
3 24 23 22
3 6 7 8
3 21 20 19
3 3 4 5
3 17 31 30
3 14 15 1
3 29 27 26
3 10 11 13
3 24 22 21
3 5 6 8
3 21 19 18
3 2 3 5
3 18 17 30
3 14 1 2
3 30 29 26
3 10 13 14
3 24 21 18
3 2 5 8
3 30 26 24
3 8 10 14
3 24 18 30
3 14 2 8
3 0 1 17
3 0 17 16
3 1 2 18
3 1 18 17
3 2 3 19
3 2 19 18
3 3 4 20
3 3 20 19
3 4 5 21
3 4 21 20
3 5 6 22
3 5 22 21
3 6 7 23
3 6 23 22
3 7 8 24
3 7 24 23
3 8 9 25
3 8 25 24
3 9 10 26
3 9 26 25
3 10 11 27
3 10 27 26
3 11 12 28
3 11 28 27
3 12 13 29
3 12 29 28
3 13 14 30
3 13 30 29
3 14 15 31
3 14 31 30
3 15 0 16
3 15 16 31
