ply
format ascii 1.0
element vertex 8
property float x
property float y
property float z
element face 12
property list uchar int vertex_indices
end_header
885.671997 -1242.72632 213.561935
910.217529 -1242.33667 212.543411
910.750061 -1275.81042 211.671387
886.204529 -1276.20007 208.449829
885.671997 -1242.72632 216.761932
910.217529 -1242.33667 215.743408
910.750061 -1275.81042 214.871384
886.204529 -1276.20007 211.649826
3 5 4 7
3 3 0 1
3 7 6 5
3 1 2 3
3 0 1 5
3 0 5 4
3 1 2 6
3 1 6 5
3 2 3 7
3 2 7 6
3 3 0 4
3 3 4 7
