ply
format ascii 1.0
element vertex 14
property float x
property float y
property float z
element face 12
property list uchar int vertex_indices
end_header
1086.271 1451.67737 246.56723
1079.27307 1451.84656 246.56723
1085.80627 1432.45325 246.56723
1078.80823 1432.62109 246.56723
1083.49841 1336.11597 246.245056
1076.5072 1336.46472 246.245056
1079.98645 1316.99829 248.124084
1073.18323 1318.64648 248.124084
1074.27063 1298.15051 248.370697
1068.01575 1301.29321 248.370697
1053.54932 1264.21045 244.170303
1047.6051 1267.90723 244.170303
1041.39087 1245.25586 243.433121
1035.4989 1249.0354 243.433121
3 0 1 2
3 1 3 2
3 2 3 4
3 3 5 4
3 4 5 6
3 5 7 6
3 6 7 8
3 7 9 8
3 8 9 10
3 9 11 10
3 10 11 12
3 11 13 12
