ply
format ascii 1.0
element vertex 12
property float x
property float y
property float z
element face 10
property list uchar int vertex_indices
end_header
906.615967 1045.84827 225.059097
912.444153 1041.97107 225.059097
910.237122 1051.2915 225.059097
916.065613 1047.41492 225.059097
936.033203 1090.07751 222.752045
941.858704 1086.19629 222.752045
971.713562 1143.56274 236.698883
977.558838 1139.71143 236.698883
979.718628 1156.37573 236.777512
985.704407 1152.7467 236.777512
1029.49329 1238.86829 243.433121
1035.48682 1235.25195 243.433121
3 0 1 2
3 1 3 2
3 2 3 4
3 3 5 4
3 4 5 6
3 5 7 6
3 6 7 8
3 7 9 8
3 8 9 10
3 9 11 10
