ply
format ascii 1.0
element vertex 10
property float x
property float y
property float z
element face 8
property list uchar int vertex_indices
end_header
29.1905956 329.082733 190.686005
25.6906662 329.104889 190.686005
28.7434959 304.031891 189.894089
25.8085556 302.125 189.894089
53.7038879 291.331879 189.113922
52.3404961 288.108337 189.113922
55.4146118 291.818756 188.902161
57.9885864 289.447113 188.902161
66.6604843 307.089203 188.902161
69.4775772 305.012177 188.902161
3 0 1 2
3 1 3 2
3 2 3 4
3 3 5 4
3 4 5 6
3 5 7 6
3 6 7 8
3 7 9 8
