ply
format ascii 1.0
element vertex 8
property float x
property float y
property float z
element face 12
property list uchar int vertex_indices
end_header
-155.571136 -565.024353 290.58844
-137.125687 -562.419434 290.58844
-133.746445 -586.308655 297.989105
-152.191895 -588.913513 299.490753
-155.571136 -565.024353 293.788452
-137.125687 -562.419434 293.788452
-133.746445 -586.308655 301.189117
-152.191895 -588.913513 302.690765
3 5 4 7
3 3 0 1
3 7 6 5
3 1 2 3
3 0 1 5
3 0 5 4
3 1 2 6
3 1 6 5
3 2 3 7
3 2 7 6
3 3 0 4
3 3 4 7
