ply
format ascii 1.0
element vertex 24
property float x
property float y
property float z
element face 44
property list uchar int vertex_indices
end_header
-731.572632 -622.832581 269.691101
-737.614624 -622.877075 269.691101
-742.833557 -625.938354 269.691101
-745.815796 -631.192627 269.691101
-745.767395 -637.237305 269.691101
-742.707703 -642.458191 269.691101
-737.450012 -645.441528 269.691101
-731.398315 -645.397034 269.691101
-726.189087 -642.335754 269.691101
-723.206848 -637.081421 260.371552
-723.245544 -631.025696 260.371552
-726.305298 -625.815918 269.691101
-731.572632 -622.832581 279.291107
-737.614624 -622.877075 279.291107
-742.833557 -625.938354 279.291107
-745.815796 -631.192627 279.291107
-745.767395 -637.237305 279.291107
-742.707703 -642.458191 279.291107
-737.450012 -645.441528 279.291107
-731.398315 -645.397034 279.291107
-726.189087 -642.335754 279.291107
-723.206848 -637.081421 269.971558
-723.245544 -631.025696 269.971558
-726.305298 -625.815918 279.291107
3 22 23 12
3 0 11 10
3 12 13 14
3 2 1 0
3 14 15 16
3 4 3 2
3 16 17 18
3 6 5 4
3 18 19 20
3 8 7 6
3 20 21 22
3 10 9 8
3 22 12 14
3 2 0 10
3 14 16 18
3 6 4 2
3 18 20 22
3 10 8 6
3 22 14 18
3 6 2 10
3 0 1 13
3 0 13 12
3 1 2 14
3 1 14 13
3 2 3 15
3 2 15 14
3 3 4 16
3 3 16 15
3 4 5 17
3 4 17 16
3 5 6 18
3 5 18 17
3 6 7 19
3 6 19 18
3 7 8 20
3 7 20 19
3 8 9 21
3 8 21 20
3 9 10 22
3 9 22 21
3 10 11 23
3 10 23 22
3 11 0 12
3 11 12 23
