ply
format ascii 1.0
element vertex 18
property float x
property float y
property float z
element face 16
property list uchar int vertex_indices
end_header
-1368.92053 -599.505554 255.824524
-1372.70251 -600.807983 255.824524
-1366.28687 -607.153076 255.824524
-1370.06885 -608.45575 255.824524
-1366.06311 -613.18335 255.824524
-1365.23816 -617.097412 255.824524
-1307.18848 -592.92218 251.597931
-1305.8877 -596.704712 251.597931
-1200.33984 -556.178894 251.580856
-1198.78845 -559.865784 251.580856
-1203.93384 -551.493774 247.530106
-1200.15198 -550.190674 247.530106
-1204.55798 -544.951172 247.530106
-1204.95007 -540.970459 247.530106
-1237.21741 -556.262024 246.097137
-1238.52002 -552.480103 246.097137
-1370.16028 -602.047791 255.824524
-1371.46277 -598.265747 255.824524
3 0 1 2
3 1 3 2
3 2 3 4
3 3 5 4
3 4 5 6
3 5 7 6
3 6 7 8
3 7 9 8
3 8 9 10
3 9 11 10
3 10 11 12
3 11 13 12
3 12 13 14
3 13 15 14
3 14 15 16
3 15 17 16
