ply
format ascii 1.0
element vertex 30
property float x
property float y
property float z
element face 28
property list uchar int vertex_indices
end_header
-2878.62207 533.38269 226.323074
-2873.53052 524.775879 226.323074
-2721.0625 626.58728 233.421661
-2716.11353 617.897827 233.421661
-2655.69263 660.34729 237.006088
-2651.23242 651.397034 237.006088
-2630.77222 671.578064 230.204926
-2626.88745 662.363403 230.204926
-2611.06348 679.166809 230.204926
-2607.61401 669.780518 230.204926
-2589.49487 686.745178 230.62738
-2586.55933 677.18573 230.62738
-2573.55029 690.67041 230.521194
-2571.53882 680.874756 230.521194
-2560.2915 692.753052 230.521194
-2558.94507 682.844116 230.521194
-2547.32886 694.220215 229.970535
-2546.96509 684.226807 229.970535
-2535.98511 693.586304 229.970535
-2537.35571 683.680664 229.970535
-2523.5105 690.859375 227.81134
-2527.17285 681.554077 227.81134
-2513.95728 684.885681 227.81134
-2519.89746 676.841125 227.81134
-2508.42358 679.694885 232.249695
-2516.32959 673.571655 232.249695
-2504.23413 672.384705 232.249695
-2513.41211 668.414062 232.249695
-2496.65796 652.884155 232.249695
-2505.97998 649.264404 232.249695
3 0 1 2
3 1 3 2
3 2 3 4
3 3 5 4
3 4 5 6
3 5 7 6
3 6 7 8
3 7 9 8
3 8 9 10
3 9 11 10
3 10 11 12
3 11 13 12
3 12 13 14
3 13 15 14
3 14 15 16
3 15 17 16
3 16 17 18
3 17 19 18
3 18 19 20
3 19 21 20
3 20 21 22
3 21 23 22
3 22 23 24
3 23 25 24
3 24 25 26
3 25 27 26
3 26 27 28
3 27 29 28
