ply
format ascii 1.0
element vertex 8
property float x
property float y
property float z
element face 12
property list uchar int vertex_indices
end_header
-1382.56628 304.625793 259.138519
-1366.20251 287.226562 258.30426
-1377.18274 276.896088 253.112701
-1393.54639 294.295349 259.138519
-1382.56628 304.625793 262.338531
-1366.20251 287.226562 261.504272
-1377.18274 276.896088 256.312714
-1393.54639 294.295349 262.338531
3 5 4 7
3 3 0 1
3 7 6 5
3 1 2 3
3 0 1 5
3 0 5 4
3 1 2 6
3 1 6 5
3 2 3 7
3 2 7 6
3 3 0 4
3 3 4 7
