ply
format ascii 1.0
element vertex 8
property float x
property float y
property float z
element face 12
property list uchar int vertex_indices
end_header
-421.514801 526.797241 196.515533
-417.157623 503.075043 202.679123
-437.67514 499.312439 201.506516
-442.022675 523.034607 201.506516
-421.514801 526.797241 199.71553
-417.157623 503.075043 205.87912
-437.67514 499.312439 204.706512
-442.022675 523.034607 204.706512
3 5 4 7
3 3 0 1
3 7 6 5
3 1 2 3
3 0 1 5
3 0 5 4
3 1 2 6
3 1 6 5
3 2 3 7
3 2 7 6
3 3 0 4
3 3 4 7
