ply
format ascii 1.0
element vertex 12
property float x
property float y
property float z
element face 10
property list uchar int vertex_indices
end_header
-106.031464 2377.4585 276.907745
-104.856651 2373.63501 276.907745
-81.8644333 2384.88062 277.150604
-80.474884 2381.12988 277.150604
-52.2121735 2397.39453 278.616302
-50.5594749 2393.75195 278.616302
-41.6735535 2403.1123 278.616302
-39.6994362 2399.63354 278.616302
-33.6960068 2407.90112 278.616302
-31.4101353 2404.61865 278.616302
-25.6710854 2414.26196 278.618378
-23.1875687 2411.12622 278.618378
3 0 1 2
3 1 3 2
3 2 3 4
3 3 5 4
3 4 5 6
3 5 7 6
3 6 7 8
3 7 9 8
3 8 9 10
3 9 11 10
