ply
format ascii 1.0
element vertex 26
property float x
property float y
property float z
element face 24
property list uchar int vertex_indices
end_header
-1819.48462 -2.43447137 249.945847
-1817.60925 1.09863758 249.945847
-1879.0509 29.184063 236.784866
-1877.12024 32.6873093 236.784866
-1882.7738 32.6855965 236.784866
-1879.47803 34.9521294 236.784866
-1884.5968 37.0993996 228.957718
-1880.71472 38.0635185 228.957718
-1885.20752 42.2302094 228.957718
-1881.20789 42.1722298 228.957718
-1884.47742 47.9623032 228.957718
-1880.54358 47.2381248 228.957718
-1883.16064 53.376667 236.784866
-1879.38171 52.065155 236.784866
-1855.43994 131.698898 240.885025
-1851.65955 130.391724 240.885025
-1854.51965 136.136948 240.885025
-1850.58521 135.415817 240.885025
-1853.86353 140.395447 240.885025
-1849.88574 139.973831 240.885025
-1853.61121 144.548294 240.885025
-1849.61523 144.726532 240.885025
-1854.2749 149.747574 240.885025
-1850.36511 150.592407 240.885025
-1864.27246 193.753769 192.683044
-1860.37195 194.639923 192.683044
3 0 1 2
3 1 3 2
3 2 3 4
3 3 5 4
3 4 5 6
3 5 7 6
3 6 7 8
3 7 9 8
3 8 9 10
3 9 11 10
3 10 11 12
3 11 13 12
3 12 13 14
3 13 15 14
3 14 15 16
3 15 17 16
3 16 17 18
3 17 19 18
3 18 19 20
3 19 21 20
3 20 21 22
3 21 23 22
3 22 23 24
3 23 25 24
