ply
format ascii 1.0
element vertex 8
property float x
property float y
property float z
element face 12
property list uchar int vertex_indices
end_header
-178.945053 1670.57166 233.516571
-148.977249 1652.91638 222.966232
-153.876678 1644.60071 222.966232
-183.844482 1662.26721 222.938568
-178.945053 1670.57166 241.516571
-148.977249 1652.91638 230.966232
-153.876678 1644.60071 230.966232
-183.844482 1662.26721 230.938568
3 5 4 7
3 3 0 1
3 7 6 5
3 1 2 3
3 0 1 5
3 0 5 4
3 1 2 6
3 1 6 5
3 2 3 7
3 2 7 6
3 3 0 4
3 3 4 7
