ply
format ascii 1.0
element vertex 14
property float x
property float y
property float z
element face 12
property list uchar int vertex_indices
end_header
1078.16479 -2447.42896 232.479187
1078.04517 -2439.42993 232.479187
1010.48938 -2448.43994 224.24823
1010.20227 -2440.44507 224.24823
1000.07385 -2450.13647 224.24823
998.037842 -2442.39966 224.24823
990.149475 -2453.82227 228.0215
986.718445 -2446.59521 228.0215
979.650269 -2459.84912 228.0215
975.08313 -2453.28101 228.0215
971.95166 -2466.46582 228.0215
966.30188 -2460.802 228.0215
966.465698 -2473.06519 234.456161
960.323608 -2467.93945 234.456161
3 0 1 2
3 1 3 2
3 2 3 4
3 3 5 4
3 4 5 6
3 5 7 6
3 6 7 8
3 7 9 8
3 8 9 10
3 9 11 10
3 10 11 12
3 11 13 12
