ply
format ascii 1.0
element vertex 14
property float x
property float y
property float z
element face 24
property list uchar int vertex_indices
end_header
2329.87793 387.736908 219.975876
2394.68408 368.389587 203.986145
2383.9751 328.27005 219.583954
2381.94165 326.900818 219.583954
2374.35034 306.451416 232.571335
2358.13208 307.386505 239.04985
2309.60254 322.448029 227.930923
2329.87793 387.736908 239.175873
2394.68408 368.389587 223.186142
2383.9751 328.27005 238.783951
2381.94165 326.900818 238.783951
2374.35034 306.451416 251.771332
2358.13208 307.386505 258.249847
2309.60254 322.448029 247.13092
3 8 7 13
3 6 0 1
3 13 12 11
3 4 5 6
3 10 9 8
3 1 2 3
3 8 13 11
3 4 6 1
3 11 10 8
3 1 3 4
3 0 1 8
3 0 8 7
3 1 2 9
3 1 9 8
3 2 3 10
3 2 10 9
3 3 4 11
3 3 11 10
3 4 5 12
3 4 12 11
3 5 6 13
3 5 13 12
3 6 0 7
3 6 7 13
