ply
format ascii 1.0
element vertex 30
property float x
property float y
property float z
element face 56
property list uchar int vertex_indices
end_header
-3107.01709 -460.172516 210.524445
-3106.96875 -475.055939 211.430573
-3117.22266 -475.100464 211.430573
-3117.20337 -480.132111 211.430573
-3133.19897 -480.187744 214.703674
-3138.11792 -486.477295 214.703674
-3152.33203 -477.415894 216.299515
-3149.18506 -471.271057 216.299515
-3153.67798 -467.608643 216.299515
-3144.55688 -453.493347 210.532684
-3136.84937 -457.16687 210.532684
-3138.94092 -460.896088 210.532684
-3131.58203 -464.85907 214.703674
-3118.59766 -464.814545 211.430573
-3118.61694 -460.217041 210.524445
-3107.01709 -460.172516 218.524445
-3106.96875 -475.055939 219.430573
-3117.22266 -475.100464 219.430573
-3117.20337 -480.132111 219.430573
-3133.19897 -480.187744 222.703674
-3138.11792 -486.477295 222.703674
-3152.33203 -477.415894 224.299515
-3149.18506 -471.271057 224.299515
-3153.67798 -467.608643 224.299515
-3144.55688 -453.493347 218.532684
-3136.84937 -457.16687 218.532684
-3138.94092 -460.896088 218.532684
-3131.58203 -464.85907 222.703674
-3118.59766 -464.814545 219.430573
-3118.61694 -460.217041 218.524445
3 16 15 29
3 14 0 1
3 26 25 24
3 9 10 11
3 24 23 22
3 7 8 9
3 22 21 20
3 5 6 7
3 19 18 17
3 2 3 4
3 17 16 29
3 14 1 2
3 26 24 22
3 7 9 11
3 22 20 19
3 4 5 7
3 17 29 28
3 13 14 2
3 27 26 22
3 7 11 12
3 22 19 17
3 2 4 7
3 17 28 27
3 12 13 2
3 27 22 17
3 2 7 12
3 0 1 16
3 0 16 15
3 1 2 17
3 1 17 16
3 2 3 18
3 2 18 17
3 3 4 19
3 3 19 18
3 4 5 20
3 4 20 19
3 5 6 21
3 5 21 20
3 6 7 22
3 6 22 21
3 7 8 23
3 7 23 22
3 8 9 24
3 8 24 23
3 9 10 25
3 9 25 24
3 10 11 26
3 10 26 25
3 11 12 27
3 11 27 26
3 12 13 28
3 12 28 27
3 13 14 29
3 13 29 28
3 14 0 15
3 14 15 29
