ply
format ascii 1.0
element vertex 64
property float x
property float y
property float z
element face 62
property list uchar int vertex_indices
end_header
2135.50146 2691.84375 0.0299999993
2133.50146 2691.8562 0.0299999993
2135.32715 2664.24731 0.0299999993
2133.32715 2664.2605 0.0299999993
2135.0271 2618.60645 0.0299999993
2133.0271 2618.61938 0.0299999993
2134.87207 2595.14038 0.0299999993
2132.87207 2595.15308 0.0299999993
2134.78491 2580.91382 0.0299999993
2132.78491 2580.92651 0.0299999993
2134.45581 2529.3728 205.388779
2132.45581 2529.38574 205.388779
2134.19434 2489.62524 204.472519
2132.19434 2489.65112 204.472519
2133.87744 2485.21191 204.472519
2131.8916 2485.44824 204.472519
2131.45557 2466.55518 205.568237
2129.47217 2466.81299 205.568237
2127.35986 2435.06372 202.446884
2125.37622 2435.31982 202.446884
2127.05713 2432.52686 202.446884
2125.05933 2432.62476 202.446884
2126.12793 2409.89209 189.532349
2124.12964 2409.97485 189.532349
2122.82617 2330.29858 189.638031
2120.82788 2330.38135 189.638031
2121.99365 2310.14893 183.073151
2119.99463 2310.21118 183.073151
2122.09277 2307.15576 183.073151
2120.10864 2306.90332 183.073151
2122.58325 2305.42163 183.073151
2120.70264 2304.74146 183.073151
2123.66577 2302.85498 183.073151
2121.88599 2301.94263 183.073151
2125.10254 2300.49634 183.073151
2123.48926 2299.31421 183.073151
2127.03101 2298.25415 184.912979
2125.6665 2296.79175 184.912979
2129.66699 2296.22339 184.912979
2128.68506 2294.4812 184.912979
2132.573 2295.12671 184.912979
2132.05347 2293.19556 184.912979
2135.78613 2294.59058 184.912979
2135.63745 2292.59619 184.912979
2158.98242 2293.177 188.149063
2158.84058 2291.18213 188.149063
2161.97925 2292.71362 188.149063
2161.479 2290.77734 188.149063
2165.65796 2291.44604 188.149063
2164.75244 2289.66284 188.149063
2168.79419 2289.24194 188.149063
2167.46436 2287.74805 188.149063
2176.24023 2282.06812 190.210251
2174.85229 2280.62842 190.210251
2187.83081 2270.89136 190.663681
2186.44214 2269.45215 190.663681
2202.92871 2256.31982 192.278488
2201.49585 2254.9248 192.278488
2203.31738 2254.52295 192.278488
2201.32007 2254.62891 192.278488
2202.85352 2252.77637 192.278488
2201.33862 2254.08228 192.278488
2196.53516 2246.33887 192.278488
2195.10815 2247.74023 192.278488
3 0 1 2
3 1 3 2
3 2 3 4
3 3 5 4
3 4 5 6
3 5 7 6
3 6 7 8
3 7 9 8
3 8 9 10
3 9 11 10
3 10 11 12
3 11 13 12
3 12 13 14
3 13 15 14
3 14 15 16
3 15 17 16
3 16 17 18
3 17 19 18
3 18 19 20
3 19 21 20
3 20 21 22
3 21 23 22
3 22 23 24
3 23 25 24
3 24 25 26
3 25 27 26
3 26 27 28
3 27 29 28
3 28 29 30
3 29 31 30
3 30 31 32
3 31 33 32
3 32 33 34
3 33 35 34
3 34 35 36
3 35 37 36
3 36 37 38
3 37 39 38
3 38 39 40
3 39 41 40
3 40 41 42
3 41 43 42
3 42 43 44
3 43 45 44
3 44 45 46
3 45 47 46
3 46 47 48
3 47 49 48
3 48 49 50
3 49 51 50
3 50 51 52
3 51 53 52
3 52 53 54
3 53 55 54
3 54 55 56
3 55 57 56
3 56 57 58
3 57 59 58
3 58 59 60
3 59 61 60
3 60 61 62
3 61 63 62
