ply
format ascii 1.0
element vertex 8
property float x
property float y
property float z
element face 12
property list uchar int vertex_indices
end_header
925.312805 -167.892059 269.715515
934.16272 -177.131577 269.715515
906.770508 -203.358444 270.02655
897.910889 -194.118927 270.02655
925.312805 -167.892059 272.915527
934.16272 -177.131577 272.915527
906.770508 -203.358444 273.226562
897.910889 -194.118927 273.226562
3 5 4 7
3 3 0 1
3 7 6 5
3 1 2 3
3 0 1 5
3 0 5 4
3 1 2 6
3 1 6 5
3 2 3 7
3 2 7 6
3 3 0 4
3 3 4 7
