ply
format ascii 1.0
element vertex 8
property float x
property float y
property float z
element face 12
property list uchar int vertex_indices
end_header
543.380615 1545.42627 248.464478
543.177307 1585.10046 251.359085
593.798218 1585.35657 253.62767
594.001526 1545.68225 250.399445
543.380615 1545.42627 389.464478
543.177307 1585.10046 392.35907
593.798218 1585.35657 394.627686
594.001526 1545.68225 391.399445
3 5 4 7
3 3 0 1
3 7 6 5
3 1 2 3
3 0 1 5
3 0 5 4
3 1 2 6
3 1 6 5
3 2 3 7
3 2 7 6
3 3 0 4
3 3 4 7
