ply
format ascii 1.0
element vertex 8
property float x
property float y
property float z
element face 12
property list uchar int vertex_indices
end_header
-1105.19702 -1385.12622 197.435379
-1094.54614 -1412.65552 198.004486
-1107.34656 -1417.60913 198.465973
-1117.99756 -1390.07983 197.435379
-1105.19702 -1385.12622 200.635376
-1094.54614 -1412.65552 201.204483
-1107.34656 -1417.60913 201.66597
-1117.99756 -1390.07983 200.635376
3 5 4 7
3 3 0 1
3 7 6 5
3 1 2 3
3 0 1 5
3 0 5 4
3 1 2 6
3 1 6 5
3 2 3 7
3 2 7 6
3 3 0 4
3 3 4 7
