ply
format ascii 1.0
element vertex 14
property float x
property float y
property float z
element face 24
property list uchar int vertex_indices
end_header
-1190.995 440.290863 246.532166
-1181.38977 430.249817 257.482971
-1177.10046 434.357513 247.681702
-1165.94604 422.702362 257.482971
-1170.22571 418.605804 257.482971
-1180.12146 409.121399 257.482971
-1200.90039 430.806427 260.615997
-1190.995 440.290863 249.732162
-1181.38977 430.249817 260.682983
-1177.10046 434.357513 250.881699
-1165.94604 422.702362 260.682983
-1170.22571 418.605804 260.682983
-1180.12146 409.121399 260.682983
-1200.90039 430.806427 263.81601
3 8 7 13
3 6 0 1
3 13 12 11
3 4 5 6
3 11 10 9
3 2 3 4
3 8 13 11
3 4 6 1
3 11 9 8
3 1 2 4
3 0 1 8
3 0 8 7
3 1 2 9
3 1 9 8
3 2 3 10
3 2 10 9
3 3 4 11
3 3 11 10
3 4 5 12
3 4 12 11
3 5 6 13
3 5 13 12
3 6 0 7
3 6 7 13
