ply
format ascii 1.0
element vertex 8
property float x
property float y
property float z
element face 12
property list uchar int vertex_indices
end_header
568.507141 -489.315948 267.20752
591.503418 -468.577118 267.20752
608.12854 -487.022766 272.987183
585.122559 -507.750458 268.044067
568.507141 -489.315948 270.407532
591.503418 -468.577118 270.407532
608.12854 -487.022766 276.187195
585.122559 -507.750458 271.24408
3 5 4 7
3 3 0 1
3 7 6 5
3 1 2 3
3 0 1 5
3 0 5 4
3 1 2 6
3 1 6 5
3 2 3 7
3 2 7 6
3 3 0 4
3 3 4 7
