ply
format ascii 1.0
element vertex 8
property float x
property float y
property float z
element face 12
property list uchar int vertex_indices
end_header
312.294525 -333.479797 262.762085
308.779724 -307.598022 266.557678
329.820099 -304.737091 266.293304
333.3349 -330.630005 263.588287
312.294525 -333.479797 265.962097
308.779724 -307.598022 269.75769
329.820099 -304.737091 269.493317
333.3349 -330.630005 266.7883
3 5 4 7
3 3 0 1
3 7 6 5
3 1 2 3
3 0 1 5
3 0 5 4
3 1 2 6
3 1 6 5
3 2 3 7
3 2 7 6
3 3 0 4
3 3 4 7
