ply
format ascii 1.0
element vertex 8
property float x
property float y
property float z
element face 12
property list uchar int vertex_indices
end_header
2114.28418 -700.210754 219.180161
2120.53906 -706.322144 219.180161
2103.00391 -724.244629 207.818726
2096.75854 -718.133179 209.993256
2114.28418 -700.210754 227.180161
2120.53906 -706.322144 227.180161
2103.00391 -724.244629 215.818726
2096.75854 -718.133179 217.993256
3 5 4 7
3 3 0 1
3 7 6 5
3 1 2 3
3 0 1 5
3 0 5 4
3 1 2 6
3 1 6 5
3 2 3 7
3 2 7 6
3 3 0 4
3 3 4 7
