ply
format ascii 1.0
element vertex 16
property float x
property float y
property float z
element face 28
property list uchar int vertex_indices
end_header
-1349.57751 -277.508362 256.526123
-1370.35645 -285.30072 254.535782
-1360.48987 -304.525604 254.535782
-1348.41553 -301.275055 254.535782
-1342.56726 -309.457062 243.636887
-1325.29333 -302.054321 256.383575
-1333.21375 -282.183777 256.383575
-1345.29773 -286.603149 254.535782
-1349.57751 -277.508362 326.926117
-1370.35645 -285.30072 324.935791
-1360.48987 -304.525604 324.935791
-1348.41553 -301.275055 324.935791
-1342.56726 -309.457062 314.036896
-1325.29333 -302.054321 326.783569
-1333.21375 -282.183777 326.783569
-1345.29773 -286.603149 324.935791
3 15 8 9
3 1 0 7
3 9 10 11
3 3 2 1
3 11 12 13
3 5 4 3
3 13 14 15
3 7 6 5
3 15 9 11
3 3 1 7
3 11 13 15
3 7 5 3
3 0 1 9
3 0 9 8
3 1 2 10
3 1 10 9
3 2 3 11
3 2 11 10
3 3 4 12
3 3 12 11
3 4 5 13
3 4 13 12
3 5 6 14
3 5 14 13
3 6 7 15
3 6 15 14
3 7 0 8
3 7 8 15
