ply
format ascii 1.0
element vertex 14
property float x
property float y
property float z
element face 24
property list uchar int vertex_indices
end_header
1909.20557 -228.438721 296.496033
1916.18677 -234.160553 297.926819
1913.65967 -237.232971 297.926819
1905.07104 -253.596939 302.056854
1897.67358 -262.602692 302.056854
1894.78809 -260.242706 302.056854
1887.80688 -254.50975 302.056854
1909.20557 -228.438721 304.496033
1916.18677 -234.160553 305.926819
1913.65967 -237.232971 305.926819
1905.07104 -253.596939 310.056854
1897.67358 -262.602692 310.056854
1894.78809 -260.242706 310.056854
1887.80688 -254.50975 310.056854
3 8 7 13
3 6 0 1
3 13 12 11
3 4 5 6
3 11 10 9
3 2 3 4
3 9 8 13
3 6 1 2
3 13 11 9
3 2 4 6
3 0 1 8
3 0 8 7
3 1 2 9
3 1 9 8
3 2 3 10
3 2 10 9
3 3 4 11
3 3 11 10
3 4 5 12
3 4 12 11
3 5 6 13
3 5 13 12
3 6 0 7
3 6 7 13
