ply
format ascii 1.0
element vertex 8
property float x
property float y
property float z
element face 12
property list uchar int vertex_indices
end_header
-890.416504 -4.43051577 247.93103
-878.681152 -6.15596771 252.067032
-881.014648 -21.9967308 252.067032
-892.75 -20.2712784 247.93103
-890.416504 -4.43051577 255.93103
-878.681152 -6.15596771 260.067017
-881.014648 -21.9967308 260.067017
-892.75 -20.2712784 255.93103
3 5 4 7
3 3 0 1
3 7 6 5
3 1 2 3
3 0 1 5
3 0 5 4
3 1 2 6
3 1 6 5
3 2 3 7
3 2 7 6
3 3 0 4
3 3 4 7
