ply
format ascii 1.0
element vertex 8
property float x
property float y
property float z
element face 12
property list uchar int vertex_indices
end_header
879.242737 -468.799774 279.342072
902.974915 -469.679199 279.609039
901.929199 -497.475677 280.685699
878.206665 -496.585114 278.769196
879.242737 -468.799774 282.542084
902.974915 -469.679199 282.809052
901.929199 -497.475677 283.885712
878.206665 -496.585114 281.969208
3 5 4 7
3 3 0 1
3 7 6 5
3 1 2 3
3 0 1 5
3 0 5 4
3 1 2 6
3 1 6 5
3 2 3 7
3 2 7 6
3 3 0 4
3 3 4 7
