ply
format ascii 1.0
element vertex 10
property float x
property float y
property float z
element face 8
property list uchar int vertex_indices
end_header
268.902466 -939.734314 295.02829
265.424896 -939.338684 295.02829
267.815521 -949.273254 295.02829
264.323578 -949.035706 295.02829
267.689667 -957.588257 295.02829
264.197662 -957.351929 295.02829
266.372589 -970.547852 294.222137
262.900452 -970.107056 294.222137
265.064453 -978.278564 294.222137
261.613617 -977.69397 294.222137
3 0 1 2
3 1 3 2
3 2 3 4
3 3 5 4
3 4 5 6
3 5 7 6
3 6 7 8
3 7 9 8
