ply
format ascii 1.0
element vertex 20
property float x
property float y
property float z
element face 18
property list uchar int vertex_indices
end_header
-196.024414 2364.44214 278.498474
-199.415024 2373.84985 278.498474
-233.428223 2350.96143 280.409576
-236.819366 2360.3689 280.409576
-251.035965 2344.61328 280.254578
-254.650131 2353.9375 280.254578
-269.357605 2337.04346 280.644379
-273.548584 2346.12305 280.644379
-286.637787 2328.18433 280.644379
-291.493896 2336.92603 280.644379
-300.662445 2319.65405 284.690094
-306.16861 2328.00146 284.690094
-313.572845 2310.41846 286.727692
-319.711182 2318.31274 286.727692
-326.112213 2299.86426 291.14859
-332.830872 2307.271 291.14859
-335.948761 2290.11597 291.14859
-343.134216 2297.0708 291.14859
-340.839081 2284.6394 291.121918
-348.294495 2291.30396 291.121918
3 0 1 2
3 1 3 2
3 2 3 4
3 3 5 4
3 4 5 6
3 5 7 6
3 6 7 8
3 7 9 8
3 8 9 10
3 9 11 10
3 10 11 12
3 11 13 12
3 12 13 14
3 13 15 14
3 14 15 16
3 15 17 16
3 16 17 18
3 17 19 18
