ply
format ascii 1.0
element vertex 8
property float x
property float y
property float z
element face 12
property list uchar int vertex_indices
end_header
795.613708 -694.232849 274.975037
816.741211 -677.980225 281.095764
834.925232 -701.613342 271.148651
813.797668 -717.866028 268.484863
795.613708 -694.232849 477.975037
816.741211 -677.980225 484.095764
834.925232 -701.613342 474.148651
813.797668 -717.866028 471.484863
3 5 4 7
3 3 0 1
3 7 6 5
3 1 2 3
3 0 1 5
3 0 5 4
3 1 2 6
3 1 6 5
3 2 3 7
3 2 7 6
3 3 0 4
3 3 4 7
