ply
format ascii 1.0
element vertex 36
property float x
property float y
property float z
element face 68
property list uchar int vertex_indices
end_header
1027.92957 -2523.88013 226.311203
1017.87891 -2523.88013 227.255417
1011.45929 -2521.36426 227.255417
1002.81268 -2553.20166 0
1004.48779 -2564.92358 0
1008.10913 -2569.67676 0
1010.90741 -2574.14087 0
1059.47559 -2573.58423 0
1059.47559 -2569.67676 0
1068.17065 -2569.72144 0
1068.69348 -2549.01587 0
1066.13721 -2549.33887 0
1065.61438 -2545.9436 0
1051.1001 -2545.66528 0
1047.52722 -2535.83569 0
1041.81445 -2534.5332 226.311203
1037.66052 -2530.63721 226.311203
1035.06567 -2524.92651 226.311203
1027.92957 -2523.88013 234.311203
1017.87891 -2523.88013 235.255417
1011.45929 -2521.36426 235.255417
1002.81268 -2553.20166 8
1004.48779 -2564.92358 8
1008.10913 -2569.67676 8
1010.90741 -2574.14087 8
1059.47559 -2573.58423 8
1059.47559 -2569.67676 8
1068.17065 -2569.72144 8
1068.69348 -2549.01587 8
1066.13721 -2549.33887 8
1065.61438 -2545.9436 8
1051.1001 -2545.66528 8
1047.52722 -2535.83569 8
1041.81445 -2534.5332 234.311203
1037.66052 -2530.63721 234.311203
1035.06567 -2524.92651 234.311203
3 34 35 18
3 0 17 16
3 19 20 21
3 3 2 1
3 21 22 23
3 5 4 3
3 23 24 25
3 7 6 5
3 26 27 28
3 10 9 8
3 29 30 31
3 13 12 11
3 31 32 33
3 15 14 13
3 33 34 18
3 0 16 15
3 18 19 21
3 3 1 0
3 21 23 25
3 7 5 3
3 26 28 29
3 11 10 8
3 31 33 18
3 0 15 13
3 18 21 25
3 7 3 0
3 26 29 31
3 13 11 8
3 31 18 25
3 7 0 13
3 25 26 31
3 13 8 7
3 0 1 19
3 0 19 18
3 1 2 20
3 1 20 19
3 2 3 21
3 2 21 20
3 3 4 22
3 3 22 21
3 4 5 23
3 4 23 22
3 5 6 24
3 5 24 23
3 6 7 25
3 6 25 24
3 7 8 26
3 7 26 25
3 8 9 27
3 8 27 26
3 9 10 28
3 9 28 27
3 10 11 29
3 10 29 28
3 11 12 30
3 11 30 29
3 12 13 31
3 12 31 30
3 13 14 32
3 13 32 31
3 14 15 33
3 14 33 32
3 15 16 34
3 15 34 33
3 16 17 35
3 16 35 34
3 17 0 18
3 17 18 35
