ply
format ascii 1.0
element vertex 12
property float x
property float y
property float z
element face 10
property list uchar int vertex_indices
end_header
634.112976 29.8061562 202.506622
639.00061 36.1395111 202.506622
619.436707 41.135128 202.506622
624.106079 47.631031 202.506622
603.936218 51.5450897 207.737717
607.63446 58.6389427 207.737717
547.014526 78.8479691 216.527603
550.475159 86.0607224 216.527603
543.624451 80.4827881 216.527603
546.835632 87.8100204 216.527603
524.506287 88.7098083 220.56221
527.668579 96.0582809 220.56221
3 0 1 2
3 1 3 2
3 2 3 4
3 3 5 4
3 4 5 6
3 5 7 6
3 6 7 8
3 7 9 8
3 8 9 10
3 9 11 10
