ply
format ascii 1.0
element vertex 14
property float x
property float y
property float z
element face 12
property list uchar int vertex_indices
end_header
352.428864 1303.87646 218.47879
355.79892 1306.03125 218.47879
350.099152 1307.69836 218.47879
352.648224 1310.78101 218.47879
346.893646 1308.70764 211.361969
347.468567 1312.66602 211.361969
345.254181 1308.66931 211.361969
342.930481 1311.92517 211.361969
342.073273 1304.86682 211.361969
338.500854 1306.66614 211.361969
341.693237 1301.68237 211.361969
337.699585 1301.45703 211.361969
342.832123 1295.84668 209.104996
338.9039 1295.09229 209.104996
3 0 1 2
3 1 3 2
3 2 3 4
3 3 5 4
3 4 5 6
3 5 7 6
3 6 7 8
3 7 9 8
3 8 9 10
3 9 11 10
3 10 11 12
3 11 13 12
