ply
format ascii 1.0
element vertex 8
property float x
property float y
property float z
element face 12
property list uchar int vertex_indices
end_header
493.311646 -920.200317 278.839325
503.081451 -915.313354 278.839325
518.796387 -946.738892 271.604431
509.026611 -951.625793 278.327057
493.311646 -920.200317 286.839325
503.081451 -915.313354 286.839325
518.796387 -946.738892 279.604431
509.026611 -951.625793 286.327057
3 5 4 7
3 3 0 1
3 7 6 5
3 1 2 3
3 0 1 5
3 0 5 4
3 1 2 6
3 1 6 5
3 2 3 7
3 2 7 6
3 3 0 4
3 3 4 7
