ply
format ascii 1.0
element vertex 22
property float x
property float y
property float z
element face 20
property list uchar int vertex_indices
end_header
2401.23047 386.661377 203.721802
2403.28125 393.354279 203.721802
2342.00024 404.813965 212.03125
2343.70532 411.60318 212.03125
2335.13818 403.631744 214.137344
2333.64209 410.469971 214.137344
2327.15796 401.284454 214.137344
2324.15479 407.607483 214.137344
2320.45093 396.691467 220.005875
2315.89233 402.003601 220.005875
2313.44653 389.431427 217.749985
2308.00488 393.834778 217.749985
2310.58936 384.476501 217.749985
2304.54907 388.013977 217.749985
2308.10791 380.34964 217.749985
2301.53076 382.745453 217.749985
2305.06519 369.224243 222.065323
2298.24097 370.783203 222.065323
2293.802 317.605377 227.960922
2286.96289 319.097565 227.960922
2289.22217 296.610657 243.387299
2282.38306 298.10257 243.387299
3 0 1 2
3 1 3 2
3 2 3 4
3 3 5 4
3 4 5 6
3 5 7 6
3 6 7 8
3 7 9 8
3 8 9 10
3 9 11 10
3 10 11 12
3 11 13 12
3 12 13 14
3 13 15 14
3 14 15 16
3 15 17 16
3 16 17 18
3 17 19 18
3 18 19 20
3 19 21 20
