ply
format ascii 1.0
element vertex 16
property float x
property float y
property float z
element face 14
property list uchar int vertex_indices
end_header
64.3255234 2632.23804 0.0299999993
62.091156 2639.91968 0.0299999993
41.2531204 2625.54102 0.0299999993
38.3963585 2633.01367 0.0299999993
21.0929222 2615.74927 0.0299999993
17.0954494 2622.67896 0.0299999993
3.94172812 2604.04248 0.0299999993
-1.28868186 2610.0957 0.0299999993
-13.4958925 2585.83789 0.0299999993
-19.6381359 2590.96362 0.0299999993
-22.102478 2572.91602 0.0299999993
-29.2542973 2576.50098 0.0299999993
-26.4836521 2559.88794 0.0299999993
-34.2265625 2561.89966 0.0299999993
-33.2490501 2529.67383 269.635803
-41.0556068 2531.42236 269.635803
3 0 1 2
3 1 3 2
3 2 3 4
3 3 5 4
3 4 5 6
3 5 7 6
3 6 7 8
3 7 9 8
3 8 9 10
3 9 11 10
3 10 11 12
3 11 13 12
3 12 13 14
3 13 15 14
