ply
format ascii 1.0
element vertex 10
property float x
property float y
property float z
element face 8
property list uchar int vertex_indices
end_header
3143.2439 -1510.96472 246.466171
3146.896 -1509.33337 246.466171
3135.65161 -1493.94617 246.466171
3139.44141 -1492.66675 246.466171
3133.61646 -1482.41589 241.759171
3137.54565 -1481.66589 241.759171
3129.5481 -1462.06946 241.759171
3133.48047 -1461.33618 241.759171
3128.47095 -1454.81616 241.759171
3132.42749 -1454.22925 241.759171
3 0 1 2
3 1 3 2
3 2 3 4
3 3 5 4
3 4 5 6
3 5 7 6
3 6 7 8
3 7 9 8
