ply
format ascii 1.0
element vertex 28
property float x
property float y
property float z
element face 26
property list uchar int vertex_indices
end_header
146.894775 -2224.75317 177.86351
147.244766 -2220.76855 177.86351
129.935272 -2223.25781 177.808441
129.985794 -2219.25806 177.808441
54.5932045 -2223.59155 187.807007
54.5108948 -2219.59229 187.807007
34.4488792 -2225.21606 186.803284
34.0074577 -2221.24048 186.803284
13.5642862 -2228.15283 182.411346
12.9274445 -2224.20386 182.411346
-6.08700323 -2231.75562 194.050858
-6.7715559 -2227.81445 194.050858
-25.9389286 -2235.00928 191.450363
-26.9089756 -2231.12866 191.450363
-39.0372429 -2239.96216 191.450363
-40.7090645 -2236.32812 191.450363
-48.1475639 -2245.24536 191.450363
-50.2862587 -2241.86523 191.450363
-54.5666962 -2249.76562 192.469498
-57.3066444 -2246.85156 192.469498
-61.1413689 -2257.43164 192.469498
-64.5007019 -2255.26025 192.469498
-66.3732834 -2268.06738 205.158447
-70.0939865 -2266.59888 205.158447
-68.8873749 -2277.0791 205.158447
-72.8085251 -2276.28882 205.158447
-69.6822968 -2284.59985 205.158447
-73.6596603 -2284.1748 205.158447
3 0 1 2
3 1 3 2
3 2 3 4
3 3 5 4
3 4 5 6
3 5 7 6
3 6 7 8
3 7 9 8
3 8 9 10
3 9 11 10
3 10 11 12
3 11 13 12
3 12 13 14
3 13 15 14
3 14 15 16
3 15 17 16
3 16 17 18
3 17 19 18
3 18 19 20
3 19 21 20
3 20 21 22
3 21 23 22
3 22 23 24
3 23 25 24
3 24 25 26
3 25 27 26
