ply
format ascii 1.0
element vertex 26
property float x
property float y
property float z
element face 24
property list uchar int vertex_indices
end_header
-543.901672 595.877502 186.660034
-546.829468 589.519226 186.660034
-521.005371 585.290649 193.572845
-524.856384 579.44519 193.572845
-509.274689 572.311096 193.572845
-515.827454 569.849182 193.572845
-483.542603 487.459351 206.648132
-490.241516 485.428467 206.648132
-480.372559 476.032501 206.648132
-487.330841 476.795532 206.648132
-488.729309 437.7565 206.498627
-495.57016 439.240692 206.498627
-494.318665 411.668121 208.212769
-501.193329 412.986664 208.212769
-494.878815 405.889954 208.212769
-501.872559 406.18573 208.212769
-494.787262 400.548889 207.096634
-501.751099 399.838257 207.096634
-493.805725 395.095917 207.096634
-500.505646 393.068329 207.096634
-492.397278 392.277893 207.096634
-498.137817 388.272125 207.096634
-489.936523 389.717316 207.096634
-494.711548 384.598816 207.096634
-486.781677 387.13559 207.096634
-491.224091 381.725891 207.096634
3 0 1 2
3 1 3 2
3 2 3 4
3 3 5 4
3 4 5 6
3 5 7 6
3 6 7 8
3 7 9 8
3 8 9 10
3 9 11 10
3 10 11 12
3 11 13 12
3 12 13 14
3 13 15 14
3 14 15 16
3 15 17 16
3 16 17 18
3 17 19 18
3 18 19 20
3 19 21 20
3 20 21 22
3 21 23 22
3 22 23 24
3 23 25 24
