ply
format ascii 1.0
element vertex 58
property float x
property float y
property float z
element face 112
property list uchar int vertex_indices
end_header
-1493.26794 -161.747223 255.634995
-1491.93176 -161.057037 255.634995
-1492.74512 -159.509705 255.634995
-1494.30408 -160.322327 255.634995
-1497.47998 -154.210892 247.359222
-1495.92102 -153.398254 247.359222
-1496.92798 -151.472427 247.359222
-1486.78064 -146.184753 247.359222
-1466.06946 -185.959213 255.729767
-1471.5304 -188.80899 255.729767
-1476.2168 -191.246887 255.729767
-1477.46594 -188.842377 255.729767
-1480.19641 -190.267273 259.569702
-1482.45251 -185.925812 259.569702
-1479.72192 -184.512054 255.634995
-1479.90588 -184.155838 255.634995
-1482.66553 -185.591858 259.569702
-1484.92151 -181.26152 255.634995
-1482.16199 -179.8255 255.634995
-1483.26587 -177.69931 255.634995
-1485.19263 -178.712311 255.634995
-1487.44873 -174.37085 255.634995
-1485.52185 -173.368973 255.634995
-1486.66443 -171.17598 255.634995
-1488.04907 -171.888428 255.634995
-1490.30505 -167.55809 255.634995
-1488.92053 -166.834518 255.634995
-1489.67578 -165.387375 255.634995
-1491.0022 -166.077545 255.634995
-1493.26794 -161.747223 263.63501
-1491.93176 -161.057037 263.63501
-1492.74512 -159.509705 263.63501
-1494.30408 -160.322327 263.63501
-1497.47998 -154.210892 255.359222
-1495.92102 -153.398254 255.359222
-1496.92798 -151.472427 255.359222
-1486.78064 -146.184753 255.359222
-1466.06946 -185.959213 263.729767
-1471.5304 -188.80899 263.729767
-1476.2168 -191.246887 263.729767
-1477.46594 -188.842377 263.729767
-1480.19641 -190.267273 267.569702
-1482.45251 -185.925812 267.569702
-1479.72192 -184.512054 263.63501
-1479.90588 -184.155838 263.63501
-1482.66553 -185.591858 267.569702
-1484.92151 -181.26152 263.63501
-1482.16199 -179.8255 263.63501
-1483.26587 -177.69931 263.63501
-1485.19263 -178.712311 263.63501
-1487.44873 -174.37085 263.63501
-1485.52185 -173.368973 263.63501
-1486.66443 -171.17598 263.63501
-1488.04907 -171.888428 263.63501
-1490.30505 -167.55809 263.63501
-1488.92053 -166.834518 263.63501
-1489.67578 -165.387375 263.63501
-1491.0022 -166.077545 263.63501
3 30 29 57
3 28 0 1
3 55 54 53
3 24 25 26
3 51 50 49
3 20 21 22
3 47 46 45
3 16 17 18
3 43 42 41
3 12 13 14
3 40 39 38
3 9 10 11
3 38 37 36
3 7 8 9
3 36 35 34
3 5 6 7
3 34 33 32
3 3 4 5
3 30 57 56
3 27 28 1
3 55 53 52
3 23 24 26
3 51 49 48
3 19 20 22
3 47 45 44
3 15 16 18
3 43 41 40
3 11 12 14
3 40 38 36
3 7 9 11
3 36 34 32
3 3 5 7
3 30 56 55
3 26 27 1
3 55 52 51
3 22 23 26
3 48 47 44
3 15 18 19
3 44 43 40
3 11 14 15
3 36 32 31
3 2 3 7
3 55 51 48
3 19 22 26
3 48 44 40
3 11 15 19
3 36 31 30
3 1 2 7
3 55 48 40
3 11 19 26
3 36 30 55
3 26 1 7
3 55 40 36
3 7 11 26
3 0 1 30
3 0 30 29
3 1 2 31
3 1 31 30
3 2 3 32
3 2 32 31
3 3 4 33
3 3 33 32
3 4 5 34
3 4 34 33
3 5 6 35
3 5 35 34
3 6 7 36
3 6 36 35
3 7 8 37
3 7 37 36
3 8 9 38
3 8 38 37
3 9 10 39
3 9 39 38
3 10 11 40
3 10 40 39
3 11 12 41
3 11 41 40
3 12 13 42
3 12 42 41
3 13 14 43
3 13 43 42
3 14 15 44
3 14 44 43
3 15 16 45
3 15 45 44
3 16 17 46
3 16 46 45
3 17 18 47
3 17 47 46
3 18 19 48
3 18 48 47
3 19 20 49
3 19 49 48
3 20 21 50
3 20 50 49
3 21 22 51
3 21 51 50
3 22 23 52
3 22 52 51
3 23 24 53
3 23 53 52
3 24 25 54
3 24 54 53
3 25 26 55
3 25 55 54
3 26 27 56
3 26 56 55
3 27 28 57
3 27 57 56
3 28 0 29
3 28 29 57
