ply
format ascii 1.0
element vertex 8
property float x
property float y
property float z
element face 12
property list uchar int vertex_indices
end_header
2245.04834 -284.399048 234.144028
2261.20874 -291.612549 227.953476
2253.02686 -309.924591 227.299042
2236.86646 -302.699951 234.144028
2245.04834 -284.399048 242.144028
2261.20874 -291.612549 235.953476
2253.02686 -309.924591 235.299042
2236.86646 -302.699951 242.144028
3 5 4 7
3 3 0 1
3 7 6 5
3 1 2 3
3 0 1 5
3 0 5 4
3 1 2 6
3 1 6 5
3 2 3 7
3 2 7 6
3 3 0 4
3 3 4 7
