ply
format ascii 1.0
element vertex 16
property float x
property float y
property float z
element face 14
property list uchar int vertex_indices
end_header
-1947.578 -595.032104 258.163696
-1942.07812 -594.995544 258.163696
-1947.91003 -544.224426 257.822205
-1942.42383 -543.834534 257.822205
-1952.39722 -526.440369 268.844788
-1947.11584 -524.905457 268.844788
-1961.45618 -497.751709 268.844788
-1956.41516 -495.552094 268.844788
-1962.68286 -498.094177 267.7005
-1963.2832 -492.627045 267.7005
-2010.22388 -505.043701 258.798248
-2011.23242 -499.636963 258.798248
-2018.5553 -508.294922 253.387497
-2021.62732 -503.732819 253.387497
-2027.93481 -517.197693 253.387497
-2031.70984 -513.197754 253.387497
3 0 1 2
3 1 3 2
3 2 3 4
3 3 5 4
3 4 5 6
3 5 7 6
3 6 7 8
3 7 9 8
3 8 9 10
3 9 11 10
3 10 11 12
3 11 13 12
3 12 13 14
3 13 15 14
