ply
format ascii 1.0
element vertex 16
property float x
property float y
property float z
element face 14
property list uchar int vertex_indices
end_header
2014.53857 370.905518 188.507843
2012.30139 378.586334 188.507843
1996.86755 365.778046 211.014526
1993.8949 373.205261 211.014526
1887.91443 320.20575 184.364777
1884.9884 327.651428 184.364777
1847.79553 307.209442 168.029999
1845.47717 314.86615 168.029999
1787.83398 289.889099 184.425766
1785.50928 297.543854 184.425766
1739.2749 274.25708 180.83432
1736.56409 281.783783 180.83432
1692.72632 255.657364 168.029999
1689.17163 262.82431 168.029999
1644.46912 227.218628 168.029999
1640.40869 234.111603 168.029999
3 0 1 2
3 1 3 2
3 2 3 4
3 3 5 4
3 4 5 6
3 5 7 6
3 6 7 8
3 7 9 8
3 8 9 10
3 9 11 10
3 10 11 12
3 11 13 12
3 12 13 14
3 13 15 14
