ply
format ascii 1.0
element vertex 18
property float x
property float y
property float z
element face 16
property list uchar int vertex_indices
end_header
1853.16418 -343.964722 277.99234
1854.94226 -344.88028 277.99234
1874.28467 -302.947632 293.96109
1876.0188 -303.94397 293.96109
1878.06042 -301.009766 293.96109
1878.88538 -302.831696 293.96109
1916.58569 -283.633545 296.993927
1917.89868 -285.142242 296.993927
1935.3208 -251.668762 302.322235
1937.31323 -251.495331 302.322235
1912.97107 -239.842056 297.956818
1913.5929 -237.941193 297.956818
1911.0033 -244.34964 297.956818
1911.47461 -242.40596 297.956818
1894.88342 -235.433624 296.526031
1895.77722 -233.644455 296.526031
1885.28015 -231.524429 296.526031
1886.03467 -229.672226 296.526031
3 0 1 2
3 1 3 2
3 2 3 4
3 3 5 4
3 4 5 6
3 5 7 6
3 6 7 8
3 7 9 8
3 8 9 10
3 9 11 10
3 10 11 12
3 11 13 12
3 12 13 14
3 13 15 14
3 14 15 16
3 15 17 16
