ply
format ascii 1.0
element vertex 20
property float x
property float y
property float z
element face 36
property list uchar int vertex_indices
end_header
-1543.78235 -187.595612 253.150208
-1546.01904 -177.476669 256.568237
-1546.96802 -173.213135 256.568237
-1535.09705 -170.585983 256.568237
-1534.14819 -174.849518 256.568237
-1518.51062 -171.387482 256.815948
-1516.27393 -181.506424 256.815948
-1534.70972 -185.591858 253.150208
-1534.44824 -186.749573 253.150208
-1543.521 -188.753326 253.150208
-1543.78235 -187.595612 261.150208
-1546.01904 -177.476669 264.568237
-1546.96802 -173.213135 264.568237
-1535.09705 -170.585983 264.568237
-1534.14819 -174.849518 264.568237
-1518.51062 -171.387482 264.815948
-1516.27393 -181.506424 264.815948
-1534.70972 -185.591858 261.150208
-1534.44824 -186.749573 261.150208
-1543.521 -188.753326 261.150208
3 11 10 19
3 9 0 1
3 19 18 17
3 7 8 9
3 17 16 15
3 5 6 7
3 14 13 12
3 2 3 4
3 11 19 17
3 7 9 1
3 17 15 14
3 4 5 7
3 14 12 11
3 1 2 4
3 11 17 14
3 4 7 1
3 0 1 11
3 0 11 10
3 1 2 12
3 1 12 11
3 2 3 13
3 2 13 12
3 3 4 14
3 3 14 13
3 4 5 15
3 4 15 14
3 5 6 16
3 5 16 15
3 6 7 17
3 6 17 16
3 7 8 18
3 7 18 17
3 8 9 19
3 8 19 18
3 9 0 10
3 9 10 19
