ply
format ascii 1.0
element vertex 16
property float x
property float y
property float z
element face 14
property list uchar int vertex_indices
end_header
-93.0848694 2033.85962 278.039246
-98.4379501 2032.59692 278.039246
-89.3593063 2018.05981 278.039246
-94.669136 2016.6261 278.039246
-87.8543015 2014.24341 278.039246
-92.7271271 2011.69275 278.039246
-85.2498627 2010.26379 274.215454
-89.6187973 2006.92273 274.215454
-82.5695648 2007.33411 274.215454
-86.3152161 2003.30676 274.215454
-79.7775497 2005.04871 274.215454
-82.1163635 2000.0708 274.215454
-75.8128738 2004.16162 273.587158
-76.5339432 1998.70911 273.587158
-70.3848801 2003.92651 273.587158
-70.6332321 1998.43213 273.587158
3 0 1 2
3 1 3 2
3 2 3 4
3 3 5 4
3 4 5 6
3 5 7 6
3 6 7 8
3 7 9 8
3 8 9 10
3 9 11 10
3 10 11 12
3 11 13 12
3 12 13 14
3 13 15 14
