ply
format ascii 1.0
element vertex 8
property float x
property float y
property float z
element face 12
property list uchar int vertex_indices
end_header
1626.81116 -1180.57654 207.263535
1640.70569 -1209.27478 203.634644
1610.14722 -1224.0802 205.137115
1596.25269 -1195.37097 208.181
1626.81116 -1180.57654 284.063538
1640.70569 -1209.27478 280.434631
1610.14722 -1224.0802 281.937103
1596.25269 -1195.37097 284.980988
3 5 4 7
3 3 0 1
3 7 6 5
3 1 2 3
3 0 1 5
3 0 5 4
3 1 2 6
3 1 6 5
3 2 3 7
3 2 7 6
3 3 0 4
3 3 4 7
