ply
format ascii 1.0
element vertex 14
property float x
property float y
property float z
element face 24
property list uchar int vertex_indices
end_header
1558.5968 -226.535156 302.005798
1536.82056 -209.592331 294.080322
1532.85071 -206.508789 290.759949
1558.66455 -173.313309 285.597504
1562.63452 -176.396866 283.862915
1580.58618 -190.367462 294.261444
1584.41077 -193.339691 294.261444
1558.5968 -226.535156 310.005798
1536.82056 -209.592331 302.080322
1532.85071 -206.508789 298.759949
1558.66455 -173.313309 293.597504
1562.63452 -176.396866 291.862915
1580.58618 -190.367462 302.261444
1584.41077 -193.339691 302.261444
3 8 7 13
3 6 0 1
3 12 11 10
3 3 4 5
3 10 9 8
3 1 2 3
3 8 13 12
3 5 6 1
3 12 10 8
3 1 3 5
3 0 1 8
3 0 8 7
3 1 2 9
3 1 9 8
3 2 3 10
3 2 10 9
3 3 4 11
3 3 11 10
3 4 5 12
3 4 12 11
3 5 6 13
3 5 13 12
3 6 0 7
3 6 7 13
