ply
format ascii 1.0
element vertex 24
property float x
property float y
property float z
element face 22
property list uchar int vertex_indices
end_header
-1805.34131 -437.170135 222.524521
-1801.48462 -436.109009 222.524521
-1812.50977 -411.108765 222.403076
-1808.60779 -410.228729 222.403076
-1813.58301 -400.314392 222.352859
-1809.58716 -400.495758 222.352859
-1811.56494 -390.409546 222.352859
-1807.771 -391.676666 222.352859
-1804.29688 -372.268738 222.352859
-1800.51501 -373.571869 222.352859
-1802.87146 -365.391998 228.589355
-1798.88074 -365.665375 228.589355
-1803.23999 -356.333679 228.589355
-1799.26746 -355.86615 228.589355
-1806.50415 -334.817352 222.598404
-1802.52942 -334.368622 222.598404
-1806.5481 -326.506348 222.598404
-1802.58228 -327.028107 222.598404
-1804.08105 -316.565094 222.598404
-1800.42102 -318.178619 222.598404
-1798.81372 -309.062714 226.981567
-1795.92822 -311.832855 226.981567
-1787.39148 -299.015747 224.317566
-1784.7511 -302.020447 224.317566
3 0 1 2
3 1 3 2
3 2 3 4
3 3 5 4
3 4 5 6
3 5 7 6
3 6 7 8
3 7 9 8
3 8 9 10
3 9 11 10
3 10 11 12
3 11 13 12
3 12 13 14
3 13 15 14
3 14 15 16
3 15 17 16
3 16 17 18
3 17 19 18
3 18 19 20
3 19 21 20
3 20 21 22
3 21 23 22
