ply
format ascii 1.0
element vertex 8
property float x
property float y
property float z
element face 12
property list uchar int vertex_indices
end_header
-1376.31128 1216.87793 283.196198
-1375.73035 1204.49915 284.433319
-1343.88403 1207.73853 280.579834
-1345.94641 1220.70728 286.560059
-1376.31128 1216.87793 291.196198
-1375.73035 1204.49915 292.433319
-1343.88403 1207.73853 288.579834
-1345.94641 1220.70728 294.560059
3 6 7 4
3 0 3 2
3 4 5 6
3 2 1 0
3 0 1 5
3 0 5 4
3 1 2 6
3 1 6 5
3 2 3 7
3 2 7 6
3 3 0 4
3 3 4 7
