ply
format ascii 1.0
element vertex 34
property float x
property float y
property float z
element face 32
property list uchar int vertex_indices
end_header
-1704.6333 1113.42419 266.276031
-1698.45032 1116.70593 266.276031
-1707.21948 1118.29907 266.276031
-1700.95715 1121.42676 266.276031
-1731.54749 1167.30957 274.010406
-1725.25549 1170.37744 274.010406
-1734.85291 1175.06616 281.937195
-1728.16626 1177.13696 281.937195
-1736.81323 1184.28711 281.937195
-1729.90479 1185.41541 281.937195
-1737.73193 1192.58203 281.937195
-1730.74829 1193.0614 281.937195
-1738.04028 1202.05774 281.937195
-1731.04028 1202.06482 281.937195
-1737.77881 1231.2074 283.797241
-1730.77881 1231.20203 283.797241
-1737.99207 1252.0752 289.275085
-1731.01111 1252.59119 289.275085
-1739.65552 1259.14844 289.275085
-1733.23999 1261.94861 289.275085
-1743.78894 1265.32666 289.275085
-1738.61487 1270.0415 289.275085
-1754.23157 1274.91907 287.721497
-1749.76465 1280.30859 287.721497
-1762.36011 1280.7356 287.721497
-1758.8324 1286.78162 287.721497
-1771.89856 1285.23645 287.721497
-1769.49207 1291.80981 287.721497
-1782.39648 1288.04089 289.761383
-1780.81885 1294.86072 289.761383
-1793.68591 1290.26013 289.761383
-1792.65149 1297.18335 289.761383
-1842.88477 1297.0675 292.488098
-1841.92529 1304.00146 292.488098
3 0 1 2
3 1 3 2
3 2 3 4
3 3 5 4
3 4 5 6
3 5 7 6
3 6 7 8
3 7 9 8
3 8 9 10
3 9 11 10
3 10 11 12
3 11 13 12
3 12 13 14
3 13 15 14
3 14 15 16
3 15 17 16
3 16 17 18
3 17 19 18
3 18 19 20
3 19 21 20
3 20 21 22
3 21 23 22
3 22 23 24
3 23 25 24
3 24 25 26
3 25 27 26
3 26 27 28
3 27 29 28
3 28 29 30
3 29 31 30
3 30 31 32
3 31 33 32
