ply
format ascii 1.0
element vertex 10
property float x
property float y
property float z
element face 8
property list uchar int vertex_indices
end_header
75.3461227 -2319.53149 227.281464
63.425621 -2320.9104 227.281464
78.4346848 -2346.2356 227.281464
66.495224 -2347.43945 227.281464
88.7313309 -2452.28979 230.949768
76.7645264 -2453.18164 230.949768
91.8165817 -2525.90039 233.686188
79.8180771 -2526.08984 233.686188
90.3574905 -2555.43726 0.0299999993
78.3723679 -2554.83984 0.0299999993
3 0 1 2
3 1 3 2
3 2 3 4
3 3 5 4
3 4 5 6
3 5 7 6
3 6 7 8
3 7 9 8
