ply
format ascii 1.0
element vertex 10
property float x
property float y
property float z
element face 8
property list uchar int vertex_indices
end_header
-2721.19482 2071.92529 284.348328
-2717.70459 2073.87964 284.348328
-2765.5188 2151.09741 285.43277
-2761.88013 2152.75903 285.43277
-2767.74829 2177.2063 284.384369
-2765.05347 2174.25024 284.384369
-2676.63477 2233.96533 283.880432
-2674.52075 2230.56958 283.880432
-2668.6665 2238.92993 283.880432
-2666.55127 2235.53491 283.880432
3 0 1 2
3 1 3 2
3 2 3 4
3 3 5 4
3 4 5 6
3 5 7 6
3 6 7 8
3 7 9 8
