ply
format ascii 1.0
element vertex 104
property float x
property float y
property float z
element face 204
property list uchar int vertex_indices
end_header
1199.93213 1068.94543 236.476074
1190.19141 1054.64087 236.476074
1189.14563 1054.80786 236.476074
1188.26453 1054.77441 236.476074
1187.31555 1054.65198 236.476074
1186.56042 1054.44043 236.476074
1185.68896 1053.9729 236.476074
1184.97241 1053.14917 236.476074
1184.5658 1052.42554 236.476074
1184.39148 1051.65747 236.476074
1184.50769 1050.8783 233.690643
1184.93372 1050.13245 233.690643
1185.56311 1049.54248 233.690643
1206.4292 1036.67395 233.690643
1213.59436 1032.77771 229.546021
1214.40771 1032.49939 229.546021
1215.26941 1032.48828 229.546021
1216.01501 1032.75549 229.546021
1216.59595 1033.27869 229.546021
1217.04138 1033.99109 229.546021
1217.42871 1035.00415 229.546021
1217.41895 1035.98376 229.546021
1217.24463 1036.76294 229.546021
1216.90576 1037.65344 229.546021
1216.51843 1038.43274 229.546021
1215.86975 1039.27881 229.546021
1213.08118 1042.67395 229.546021
1219.98486 1053.54993 233.682236
1224.78748 1052.29199 233.682236
1225.82349 1052.05823 233.682236
1226.70459 1052.04712 233.682236
1227.65356 1052.11389 233.682236
1228.41846 1052.29199 233.682236
1229.31897 1052.70386 233.682236
1230.07422 1053.48315 233.682236
1230.51965 1054.18445 233.682236
1230.74231 1054.94141 233.682236
1230.67456 1055.7207 233.682236
1230.29688 1056.49988 233.682236
1229.69653 1057.11218 233.682236
1209.28552 1071.07166 236.476074
1202.57544 1075.31287 236.476074
1201.77185 1075.63574 236.476074
1200.91968 1075.69141 236.476074
1200.15479 1075.46875 236.476074
1199.5448 1074.97888 236.476074
1199.06067 1074.29993 236.476074
1198.61523 1073.30908 236.476074
1198.56689 1072.31836 236.476074
1198.70239 1071.55029 236.476074
1198.99292 1070.63745 236.476074
1199.33179 1069.82483 236.476074
1199.93213 1068.94543 244.476074
1190.19141 1054.64087 244.476074
1189.14563 1054.80786 244.476074
1188.26453 1054.77441 244.476074
1187.31555 1054.65198 244.476074
1186.56042 1054.44043 244.476074
1185.68896 1053.9729 244.476074
1184.97241 1053.14917 244.476074
1184.5658 1052.42554 244.476074
1184.39148 1051.65747 244.476074
1184.50769 1050.8783 241.690643
1184.93372 1050.13245 241.690643
1185.56311 1049.54248 241.690643
1206.4292 1036.67395 241.690643
1213.59436 1032.77771 237.546021
1214.40771 1032.49939 237.546021
1215.26941 1032.48828 237.546021
1216.01501 1032.75549 237.546021
1216.59595 1033.27869 237.546021
1217.04138 1033.99109 237.546021
1217.42871 1035.00415 237.546021
1217.41895 1035.98376 237.546021
1217.24463 1036.76294 237.546021
1216.90576 1037.65344 237.546021
1216.51843 1038.43274 237.546021
1215.86975 1039.27881 237.546021
1213.08118 1042.67395 237.546021
1219.98486 1053.54993 241.682236
1224.78748 1052.29199 241.682236
1225.82349 1052.05823 241.682236
1226.70459 1052.04712 241.682236
1227.65356 1052.11389 241.682236
1228.41846 1052.29199 241.682236
1229.31897 1052.70386 241.682236
1230.07422 1053.48315 241.682236
1230.51965 1054.18445 241.682236
1230.74231 1054.94141 241.682236
1230.67456 1055.7207 241.682236
1230.29688 1056.49988 241.682236
1229.69653 1057.11218 241.682236
1209.28552 1071.07166 244.476074
1202.57544 1075.31287 244.476074
1201.77185 1075.63574 244.476074
1200.91968 1075.69141 244.476074
1200.15479 1075.46875 244.476074
1199.5448 1074.97888 244.476074
1199.06067 1074.29993 244.476074
1198.61523 1073.30908 244.476074
1198.56689 1072.31836 244.476074
1198.70239 1071.55029 244.476074
1198.99292 1070.63745 244.476074
1199.33179 1069.82483 244.476074
3 102 103 52
3 0 51 50
3 53 54 55
3 3 2 1
3 55 56 57
3 5 4 3
3 57 58 59
3 7 6 5
3 59 60 61
3 9 8 7
3 61 62 63
3 11 10 9
3 63 64 65
3 13 12 11
3 65 66 67
3 15 14 13
3 67 68 69
3 17 16 15
3 69 70 71
3 19 18 17
3 71 72 73
3 21 20 19
3 73 74 75
3 23 22 21
3 75 76 77
3 25 24 23
3 79 80 81
3 29 28 27
3 81 82 83
3 31 30 29
3 83 84 85
3 33 32 31
3 85 86 87
3 35 34 33
3 87 88 89
3 37 36 35
3 89 90 91
3 39 38 37
3 91 92 93
3 41 40 39
3 93 94 95
3 43 42 41
3 95 96 97
3 45 44 43
3 97 98 99
3 47 46 45
3 99 100 101
3 49 48 47
3 101 102 52
3 0 50 49
3 53 55 57
3 5 3 1
3 57 59 61
3 9 7 5
3 61 63 65
3 13 11 9
3 65 67 69
3 17 15 13
3 69 71 73
3 21 19 17
3 73 75 77
3 25 23 21
3 79 81 83
3 31 29 27
3 83 85 87
3 35 33 31
3 87 89 91
3 39 37 35
3 91 93 95
3 43 41 39
3 95 97 99
3 47 45 43
3 99 101 52
3 0 49 47
3 53 57 61
3 9 5 1
3 61 65 69
3 17 13 9
3 69 73 77
3 25 21 17
3 79 83 87
3 35 31 27
3 87 91 95
3 43 39 35
3 95 99 52
3 0 47 43
3 53 61 69
3 17 9 1
3 69 77 78
3 26 25 17
3 79 87 95
3 43 35 27
3 52 53 69
3 17 1 0
3 78 79 95
3 43 27 26
3 95 52 69
3 17 0 43
3 69 78 95
3 43 26 17
3 0 1 53
3 0 53 52
3 1 2 54
3 1 54 53
3 2 3 55
3 2 55 54
3 3 4 56
3 3 56 55
3 4 5 57
3 4 57 56
3 5 6 58
3 5 58 57
3 6 7 59
3 6 59 58
3 7 8 60
3 7 60 59
3 8 9 61
3 8 61 60
3 9 10 62
3 9 62 61
3 10 11 63
3 10 63 62
3 11 12 64
3 11 64 63
3 12 13 65
3 12 65 64
3 13 14 66
3 13 66 65
3 14 15 67
3 14 67 66
3 15 16 68
3 15 68 67
3 16 17 69
3 16 69 68
3 17 18 70
3 17 70 69
3 18 19 71
3 18 71 70
3 19 20 72
3 19 72 71
3 20 21 73
3 20 73 72
3 21 22 74
3 21 74 73
3 22 23 75
3 22 75 74
3 23 24 76
3 23 76 75
3 24 25 77
3 24 77 76
3 25 26 78
3 25 78 77
3 26 27 79
3 26 79 78
3 27 28 80
3 27 80 79
3 28 29 81
3 28 81 80
3 29 30 82
3 29 82 81
3 30 31 83
3 30 83 82
3 31 32 84
3 31 84 83
3 32 33 85
3 32 85 84
3 33 34 86
3 33 86 85
3 34 35 87
3 34 87 86
3 35 36 88
3 35 88 87
3 36 37 89
3 36 89 88
3 37 38 90
3 37 90 89
3 38 39 91
3 38 91 90
3 39 40 92
3 39 92 91
3 40 41 93
3 40 93 92
3 41 42 94
3 41 94 93
3 42 43 95
3 42 95 94
3 43 44 96
3 43 96 95
3 44 45 97
3 44 97 96
3 45 46 98
3 45 98 97
3 46 47 99
3 46 99 98
3 47 48 100
3 47 100 99
3 48 49 101
3 48 101 100
3 49 50 102
3 49 102 101
3 50 51 103
3 50 103 102
3 51 0 52
3 51 52 103
