ply
format ascii 1.0
element vertex 10
property float x
property float y
property float z
element face 8
property list uchar int vertex_indices
end_header
458.214935 -252.824631 272.780334
462.740662 -255.949966 272.780334
476.461029 -226.40274 263.628632
480.97876 -229.539627 263.628632
500.509613 -191.912308 248.128021
505.052979 -195.011978 248.128021
535.598633 -139.721237 236.168915
540.105042 -142.87442 236.168915
575.47998 -84.7686691 212.301392
579.931274 -87.9991837 212.301392
3 0 1 2
3 1 3 2
3 2 3 4
3 3 5 4
3 4 5 6
3 5 7 6
3 6 7 8
3 7 9 8
