ply
format ascii 1.0
element vertex 20
property float x
property float y
property float z
element face 36
property list uchar int vertex_indices
end_header
-2765.53906 -1570.88501 323.190338
-2731.28198 -1571.12988 321.055023
-2731.53369 -1605.93945 328.362091
-2699.02905 -1606.17322 329.242859
-2699.31958 -1646.22607 328.987823
-2736.19116 -1645.95886 329.798309
-2736.30737 -1662.22266 329.798309
-2773.76953 -1661.94434 318.420013
-2773.48853 -1622.16992 318.397522
-2765.90723 -1622.22559 328.457886
-2765.53906 -1570.88501 331.190338
-2731.28198 -1571.12988 329.055023
-2731.53369 -1605.93945 336.362091
-2699.02905 -1606.17322 337.242859
-2699.31958 -1646.22607 336.987823
-2736.19116 -1645.95886 337.798309
-2736.30737 -1662.22266 337.798309
-2773.76953 -1661.94434 326.420013
-2773.48853 -1622.16992 326.397522
-2765.90723 -1622.22559 336.457886
3 11 10 19
3 9 0 1
3 19 18 17
3 7 8 9
3 17 16 15
3 5 6 7
3 15 14 13
3 3 4 5
3 12 11 19
3 9 1 2
3 19 17 15
3 5 7 9
3 15 13 12
3 2 3 5
3 12 19 15
3 5 9 2
3 0 1 11
3 0 11 10
3 1 2 12
3 1 12 11
3 2 3 13
3 2 13 12
3 3 4 14
3 3 14 13
3 4 5 15
3 4 15 14
3 5 6 16
3 5 16 15
3 6 7 17
3 6 17 16
3 7 8 18
3 7 18 17
3 8 9 19
3 8 19 18
3 9 0 10
3 9 10 19
