ply
format ascii 1.0
element vertex 30
property float x
property float y
property float z
element face 56
property list uchar int vertex_indices
end_header
-643.228149 522.990112 215.758316
-643.228149 535.769592 205.165298
-631.270081 535.769592 205.165298
-622.197388 525.0495 215.758316
-622.197388 511.858154 215.758316
-631.270081 511.858154 215.758316
-631.270081 504.845032 215.758316
-643.228149 504.845032 215.758316
-643.228149 510.622498 215.758316
-659.717712 510.622498 216.423752
-659.717712 516.388855 216.423752
-673.321838 516.388855 214.438522
-673.321838 528.344543 211.140656
-654.769836 528.344543 208.263657
-654.769836 522.990112 216.423752
-643.228149 522.990112 223.758316
-643.228149 535.769592 213.165298
-631.270081 535.769592 213.165298
-622.197388 525.0495 223.758316
-622.197388 511.858154 223.758316
-631.270081 511.858154 223.758316
-631.270081 504.845032 223.758316
-643.228149 504.845032 223.758316
-643.228149 510.622498 223.758316
-659.717712 510.622498 224.423752
-659.717712 516.388855 224.423752
-673.321838 516.388855 222.438522
-673.321838 528.344543 219.140656
-654.769836 528.344543 216.263657
-654.769836 522.990112 224.423752
3 29 28 27
3 12 13 14
3 27 26 25
3 10 11 12
3 25 24 23
3 8 9 10
3 23 22 21
3 6 7 8
3 20 19 18
3 3 4 5
3 18 17 16
3 1 2 3
3 29 27 25
3 10 12 14
3 23 21 20
3 5 6 8
3 20 18 16
3 1 3 5
3 15 29 25
3 10 14 0
3 25 23 20
3 5 8 10
3 20 16 15
3 0 1 5
3 15 25 20
3 5 10 0
3 0 1 16
3 0 16 15
3 1 2 17
3 1 17 16
3 2 3 18
3 2 18 17
3 3 4 19
3 3 19 18
3 4 5 20
3 4 20 19
3 5 6 21
3 5 21 20
3 6 7 22
3 6 22 21
3 7 8 23
3 7 23 22
3 8 9 24
3 8 24 23
3 9 10 25
3 9 25 24
3 10 11 26
3 10 26 25
3 11 12 27
3 11 27 26
3 12 13 28
3 12 28 27
3 13 14 29
3 13 29 28
3 14 0 15
3 14 15 29
