ply
format ascii 1.0
element vertex 24
property float x
property float y
property float z
element face 22
property list uchar int vertex_indices
end_header
-1510.61584 -692.389587 256.790802
-1517.28442 -694.5177 256.790802
-1496.92444 -735.292419 259.605499
-1503.59326 -737.419922 259.605499
-1479.43225 -790.136902 252.674622
-1486.09229 -792.291931 252.674622
-1476.03162 -799.867493 252.674622
-1482.75391 -801.819641 252.674622
-1473.23474 -811.570312 257.067871
-1480.14783 -812.670105 257.067871
-1471.75293 -826.718872 257.067871
-1478.74426 -827.065735 257.067871
-1471.82788 -839.750183 256.521027
-1478.82422 -839.526611 256.521027
-1472.55823 -851.859131 256.521027
-1479.50745 -851.017395 256.521027
-1474.71423 -863.488037 256.521027
-1481.51514 -861.830444 256.521027
-1477.89551 -873.75769 261.333771
-1484.45325 -871.308899 261.333771
-1482.12585 -883.331421 261.333771
-1488.33691 -880.102905 261.333771
-1489.28918 -895.725586 261.333771
-1495.349 -892.221313 261.333771
3 0 1 2
3 1 3 2
3 2 3 4
3 3 5 4
3 4 5 6
3 5 7 6
3 6 7 8
3 7 9 8
3 8 9 10
3 9 11 10
3 10 11 12
3 11 13 12
3 12 13 14
3 13 15 14
3 14 15 16
3 15 17 16
3 16 17 18
3 17 19 18
3 18 19 20
3 19 21 20
3 20 21 22
3 21 23 22
