ply
format ascii 1.0
element vertex 10
property float x
property float y
property float z
element face 16
property list uchar int vertex_indices
end_header
1150.84106 7.88142014 254.278442
1154.90784 -5.51031494 265.145996
1143.09497 -9.09480286 265.145996
1139.0282 4.29693222 254.278442
1148.03308 7.03539181 254.278442
1150.84106 7.88142014 262.278442
1154.90784 -5.51031494 273.145996
1143.09497 -9.09480286 273.145996
1139.0282 4.29693222 262.278442
1148.03308 7.03539181 262.278442
3 6 5 9
3 4 0 1
3 9 8 7
3 2 3 4
3 7 6 9
3 4 1 2
3 0 1 6
3 0 6 5
3 1 2 7
3 1 7 6
3 2 3 8
3 2 8 7
3 3 4 9
3 3 9 8
3 4 0 5
3 4 5 9
