ply
format ascii 1.0
element vertex 46
property float x
property float y
property float z
element face 88
property list uchar int vertex_indices
end_header
-3293.89233 -546.389465 211.542404
-3293.37915 -551.276367 211.542404
-3294.99609 -555.250488 211.542404
-3293.33081 -556.742188 208.520554
-3291.31665 -557.209717 208.520554
-3289.69971 -559.391602 208.520554
-3285.62329 -558.066895 208.520554
-3281.48877 -559.324768 208.520554
-3276.73462 -556.497253 213.526428
-3274.24634 -551.276367 213.526428
-3267.91382 -549.161316 213.526428
-3264.94116 -535.51355 213.526428
-3269.66626 -534.48938 213.526428
-3268.82397 -530.648865 213.526428
-3273.45239 -529.635864 213.526428
-3274.97241 -532.040344 213.526428
-3280.71436 -531.628479 213.526428
-3281.7793 -534.756592 211.542404
-3284.18066 -535.468994 211.542404
-3284.1709 -540.311401 211.542404
-3286.18506 -543.517395 211.542404
-3290.28076 -542.882874 211.542404
-3291.60718 -546.144531 211.542404
-3293.89233 -546.389465 219.542404
-3293.37915 -551.276367 219.542404
-3294.99609 -555.250488 219.542404
-3293.33081 -556.742188 216.520554
-3291.31665 -557.209717 216.520554
-3289.69971 -559.391602 216.520554
-3285.62329 -558.066895 216.520554
-3281.48877 -559.324768 216.520554
-3276.73462 -556.497253 221.526428
-3274.24634 -551.276367 221.526428
-3267.91382 -549.161316 221.526428
-3264.94116 -535.51355 221.526428
-3269.66626 -534.48938 221.526428
-3268.82397 -530.648865 221.526428
-3273.45239 -529.635864 221.526428
-3274.97241 -532.040344 221.526428
-3280.71436 -531.628479 221.526428
-3281.7793 -534.756592 219.542404
-3284.18066 -535.468994 219.542404
-3284.1709 -540.311401 219.542404
-3286.18506 -543.517395 219.542404
-3290.28076 -542.882874 219.542404
-3291.60718 -546.144531 219.542404
3 45 23 24
3 1 0 22
3 24 25 26
3 3 2 1
3 27 28 29
3 6 5 4
3 29 30 31
3 8 7 6
3 32 33 34
3 11 10 9
3 35 36 37
3 14 13 12
3 38 39 40
3 17 16 15
3 40 41 42
3 19 18 17
3 43 44 45
3 22 21 20
3 45 24 26
3 3 1 22
3 26 27 29
3 6 4 3
3 29 31 32
3 9 8 6
3 32 34 35
3 12 11 9
3 35 37 38
3 15 14 12
3 38 40 42
3 19 17 15
3 43 45 26
3 3 22 20
3 26 29 32
3 9 6 3
3 32 35 38
3 15 12 9
3 38 42 43
3 20 19 15
3 43 26 32
3 9 3 20
3 32 38 43
3 20 15 9
3 0 1 24
3 0 24 23
3 1 2 25
3 1 25 24
3 2 3 26
3 2 26 25
3 3 4 27
3 3 27 26
3 4 5 28
3 4 28 27
3 5 6 29
3 5 29 28
3 6 7 30
3 6 30 29
3 7 8 31
3 7 31 30
3 8 9 32
3 8 32 31
3 9 10 33
3 9 33 32
3 10 11 34
3 10 34 33
3 11 12 35
3 11 35 34
3 12 13 36
3 12 36 35
3 13 14 37
3 13 37 36
3 14 15 38
3 14 38 37
3 15 16 39
3 15 39 38
3 16 17 40
3 16 40 39
3 17 18 41
3 17 41 40
3 18 19 42
3 18 42 41
3 19 20 43
3 19 43 42
3 20 21 44
3 20 44 43
3 21 22 45
3 21 45 44
3 22 0 23
3 22 23 45
