ply
format ascii 1.0
element vertex 14
property float x
property float y
property float z
element face 12
property list uchar int vertex_indices
end_header
-1333.94531 -942.695374 252.005951
-1334.84485 -944.481689 252.005951
-1328.86572 -945.410522 252.005951
-1330.55164 -946.486511 252.005951
-1319.94604 -964.378845 250.447754
-1321.73267 -965.27771 250.447754
-1299.52734 -1003.73492 248.291901
-1301.17444 -1004.86945 248.291901
-1281.55518 -1020.19849 244.072906
-1282.72034 -1021.82404 244.072906
-1259.72314 -1032.19727 247.031067
-1260.74817 -1033.91467 247.031067
-1242.10388 -1043.74109 247.031067
-1243.20007 -1045.41406 247.031067
3 0 1 2
3 1 3 2
3 2 3 4
3 3 5 4
3 4 5 6
3 5 7 6
3 6 7 8
3 7 9 8
3 8 9 10
3 9 11 10
3 10 11 12
3 11 13 12
