ply
format ascii 1.0
element vertex 16
property float x
property float y
property float z
element face 28
property list uchar int vertex_indices
end_header
-3084.46631 -444.097961 205.029984
-3077.44629 -456.198395 205.029984
-3073.90259 -454.150116 205.029984
-3063.50342 -472.08371 205.169632
-3046.06494 -461.975891 196.198181
-3060.03687 -437.9086 196.198181
-3063.66797 -440.012543 196.198181
-3067.12476 -434.045837 205.029984
-3084.46631 -444.097961 213.029984
-3077.44629 -456.198395 213.029984
-3073.90259 -454.150116 213.029984
-3063.50342 -472.08371 213.169632
-3046.06494 -461.975891 204.198181
-3060.03687 -437.9086 204.198181
-3063.66797 -440.012543 204.198181
-3067.12476 -434.045837 213.029984
3 14 15 8
3 0 7 6
3 8 9 10
3 2 1 0
3 10 11 12
3 4 3 2
3 12 13 14
3 6 5 4
3 14 8 10
3 2 0 6
3 10 12 14
3 6 4 2
3 0 1 9
3 0 9 8
3 1 2 10
3 1 10 9
3 2 3 11
3 2 11 10
3 3 4 12
3 3 12 11
3 4 5 13
3 4 13 12
3 5 6 14
3 5 14 13
3 6 7 15
3 6 15 14
3 7 0 8
3 7 8 15
