ply
format ascii 1.0
element vertex 72
property float x
property float y
property float z
element face 140
property list uchar int vertex_indices
end_header
-413.633118 1794.35889 268.717926
-413.468536 1795.67249 268.717926
-410.07959 1795.24939 268.717926
-409.82785 1797.35339 268.717926
-402.478729 1796.45166 270.624298
-402.740143 1794.34778 270.624298
-399.283447 1793.92468 270.624298
-399.477112 1792.34399 262.88974
-397.259766 1792.07678 262.88974
-400.145203 1768.59949 262.88974
-402.372223 1768.8667 262.88974
-402.633636 1766.75159 262.88974
-406.080658 1767.17468 264.940796
-406.313049 1765.28223 264.940796
-413.66217 1766.19507 264.940796
-413.42981 1768.07629 264.940796
-416.818726 1768.49939 264.940796
-416.673492 1769.63477 264.940796
-422.473389 1770.34729 264.940796
-422.579895 1769.44556 264.940796
-425.416931 1769.80176 264.940796
-425.668671 1767.82031 264.940796
-433.008118 1768.72205 271.198059
-432.766052 1770.70349 271.198059
-436.764984 1771.19324 271.198059
-436.581024 1772.7406 271.198059
-438.227051 1772.94104 271.198059
-435.341644 1796.41833 276.5065
-433.685913 1796.20679 276.5065
-433.453522 1798.0658 276.5065
-429.45459 1797.57605 268.717926
-429.173798 1799.89148 268.717926
-421.824646 1798.97864 268.717926
-422.115143 1796.67432 268.717926
-419.268433 1796.31812 268.717926
-419.42337 1795.07129 268.717926
-413.633118 1794.35889 276.717926
-413.468536 1795.67249 276.717926
-410.07959 1795.24939 276.717926
-409.82785 1797.35339 276.717926
-402.478729 1796.45166 278.624298
-402.740143 1794.34778 278.624298
-399.283447 1793.92468 278.624298
-399.477112 1792.34399 270.88974
-397.259766 1792.07678 270.88974
-400.145203 1768.59949 270.88974
-402.372223 1768.8667 270.88974
-402.633636 1766.75159 270.88974
-406.080658 1767.17468 272.940796
-406.313049 1765.28223 272.940796
-413.66217 1766.19507 272.940796
-413.42981 1768.07629 272.940796
-416.818726 1768.49939 272.940796
-416.673492 1769.63477 272.940796
-422.473389 1770.34729 272.940796
-422.579895 1769.44556 272.940796
-425.416931 1769.80176 272.940796
-425.668671 1767.82031 272.940796
-433.008118 1768.72205 279.198059
-432.766052 1770.70349 279.198059
-436.764984 1771.19324 279.198059
-436.581024 1772.7406 279.198059
-438.227051 1772.94104 279.198059
-435.341644 1796.41833 284.5065
-433.685913 1796.20679 284.5065
-433.453522 1798.0658 284.5065
-429.45459 1797.57605 276.717926
-429.173798 1799.89148 276.717926
-421.824646 1798.97864 276.717926
-422.115143 1796.67432 276.717926
-419.268433 1796.31812 276.717926
-419.42337 1795.07129 276.717926
3 71 70 69
3 33 34 35
3 69 68 67
3 31 32 33
3 66 65 64
3 28 29 30
3 64 63 62
3 26 27 28
3 61 60 59
3 23 24 25
3 59 58 57
3 21 22 23
3 56 55 54
3 18 19 20
3 53 52 51
3 15 16 17
3 51 50 49
3 13 14 15
3 48 47 46
3 10 11 12
3 46 45 44
3 8 9 10
3 43 42 41
3 5 6 7
3 41 40 39
3 3 4 5
3 38 37 36
3 0 1 2
3 71 69 67
3 31 33 35
3 66 64 62
3 26 28 30
3 61 59 57
3 21 23 25
3 53 51 49
3 13 15 17
3 48 46 44
3 8 10 12
3 43 41 39
3 3 5 7
3 71 67 66
3 30 31 35
3 66 62 61
3 25 26 30
3 61 57 56
3 20 21 25
3 53 49 48
3 12 13 17
3 48 44 43
3 7 8 12
3 43 39 38
3 2 3 7
3 71 66 61
3 25 30 35
3 61 56 54
3 18 20 25
3 53 48 43
3 7 12 17
3 43 38 36
3 0 2 7
3 36 71 61
3 25 35 0
3 61 54 53
3 17 18 25
3 53 43 36
3 0 7 17
3 36 61 53
3 17 25 0
3 0 1 37
3 0 37 36
3 1 2 38
3 1 38 37
3 2 3 39
3 2 39 38
3 3 4 40
3 3 40 39
3 4 5 41
3 4 41 40
3 5 6 42
3 5 42 41
3 6 7 43
3 6 43 42
3 7 8 44
3 7 44 43
3 8 9 45
3 8 45 44
3 9 10 46
3 9 46 45
3 10 11 47
3 10 47 46
3 11 12 48
3 11 48 47
3 12 13 49
3 12 49 48
3 13 14 50
3 13 50 49
3 14 15 51
3 14 51 50
3 15 16 52
3 15 52 51
3 16 17 53
3 16 53 52
3 17 18 54
3 17 54 53
3 18 19 55
3 18 55 54
3 19 20 56
3 19 56 55
3 20 21 57
3 20 57 56
3 21 22 58
3 21 58 57
3 22 23 59
3 22 59 58
3 23 24 60
3 23 60 59
3 24 25 61
3 24 61 60
3 25 26 62
3 25 62 61
3 26 27 63
3 26 63 62
3 27 28 64
3 27 64 63
3 28 29 65
3 28 65 64
3 29 30 66
3 29 66 65
3 30 31 67
3 30 67 66
3 31 32 68
3 31 68 67
3 32 33 69
3 32 69 68
3 33 34 70
3 33 70 69
3 34 35 71
3 34 71 70
3 35 0 36
3 35 36 71
