ply
format ascii 1.0
element vertex 42
property float x
property float y
property float z
element face 80
property list uchar int vertex_indices
end_header
-2131.03516 -596.193787 244.599823
-2122.77588 -598.832092 248.49263
-2125.71924 -608.01593 244.599823
-2122.64014 -608.995544 248.49263
-2119.83228 -600.23468 248.49263
-2111.12769 -603.0177 248.49263
-2114.22607 -612.713623 248.49263
-2117.33423 -611.722839 248.49263
-2118.94141 -616.743347 248.49263
-2115.4751 -617.856567 248.49263
-2118.17651 -626.305725 245.658997
-2126.72632 -623.567261 244.214844
-2124.0249 -615.118103 248.49263
-2127.61719 -613.960388 244.599823
-2129.92163 -621.162781 244.214844
-2135.07275 -619.515259 244.214844
-2138.41333 -618.446533 244.214844
-2135.25684 -608.583679 244.599823
-2131.91626 -609.652344 244.599823
-2130.87061 -606.368408 244.599823
-2133.96899 -605.377625 244.599823
-2131.03516 -596.193787 252.599823
-2122.77588 -598.832092 256.492615
-2125.71924 -608.01593 252.599823
-2122.64014 -608.995544 256.492615
-2119.83228 -600.23468 256.492615
-2111.12769 -603.0177 256.492615
-2114.22607 -612.713623 256.492615
-2117.33423 -611.722839 256.492615
-2118.94141 -616.743347 256.492615
-2115.4751 -617.856567 256.492615
-2118.17651 -626.305725 253.658997
-2126.72632 -623.567261 252.214844
-2124.0249 -615.118103 256.492615
-2127.61719 -613.960388 252.599823
-2129.92163 -621.162781 252.214844
-2135.07275 -619.515259 252.214844
-2138.41333 -618.446533 252.214844
-2135.25684 -608.583679 252.599823
-2131.91626 -609.652344 252.599823
-2130.87061 -606.368408 252.599823
-2133.96899 -605.377625 252.599823
3 22 21 41
3 20 0 1
3 39 38 37
3 16 17 18
3 37 36 35
3 14 15 16
3 33 32 31
3 10 11 12
3 31 30 29
3 8 9 10
3 28 27 26
3 5 6 7
3 26 25 24
3 3 4 5
3 22 41 40
3 19 20 1
3 39 37 35
3 14 16 18
3 33 31 29
3 8 10 12
3 28 26 24
3 3 5 7
3 23 22 40
3 19 1 2
3 40 39 35
3 14 18 19
3 34 33 29
3 8 12 13
3 29 28 24
3 3 7 8
3 23 40 35
3 14 19 2
3 34 29 24
3 3 8 13
3 23 35 34
3 13 14 2
3 34 24 23
3 2 3 13
3 0 1 22
3 0 22 21
3 1 2 23
3 1 23 22
3 2 3 24
3 2 24 23
3 3 4 25
3 3 25 24
3 4 5 26
3 4 26 25
3 5 6 27
3 5 27 26
3 6 7 28
3 6 28 27
3 7 8 29
3 7 29 28
3 8 9 30
3 8 30 29
3 9 10 31
3 9 31 30
3 10 11 32
3 10 32 31
3 11 12 33
3 11 33 32
3 12 13 34
3 12 34 33
3 13 14 35
3 13 35 34
3 14 15 36
3 14 36 35
3 15 16 37
3 15 37 36
3 16 17 38
3 16 38 37
3 17 18 39
3 17 39 38
3 18 19 40
3 18 40 39
3 19 20 41
3 19 41 40
3 20 0 21
3 20 21 41
