ply
format ascii 1.0
element vertex 36
property float x
property float y
property float z
element face 34
property list uchar int vertex_indices
end_header
1051.36462 1591.79736 242.94487
1056.49023 1589.80273 242.94487
1054.13428 1598.91382 242.94487
1059.23975 1596.86841 242.94487
1055.93164 1603.17615 242.94487
1060.87 1600.75464 242.94487
1068.05823 1627.24866 235.433853
1073.31787 1625.6405 235.433853
1074.35706 1663.48035 225.67363
1079.78088 1662.56799 225.67363
1074.62878 1666.22327 225.67363
1080.12878 1666.21472 225.67363
1074.36792 1694.10278 217.535065
1079.86682 1694.21765 217.535065
1073.83533 1705.19055 217.528152
1079.27625 1705.99487 217.528152
1071.07666 1716.49109 220.55928
1076.30273 1718.20496 220.55928
1067.18579 1725.53125 220.55928
1071.94409 1728.28955 220.55928
1061.62854 1732.77966 219.326996
1065.74658 1736.42554 219.326996
1056.29578 1737.82361 219.326996
1059.65381 1742.17944 219.326996
1049.32727 1742.30334 219.326996
1051.53662 1747.34009 219.326996
1039.47424 1745.1792 223.460876
1040.59143 1750.56458 223.460876
1030.28223 1746.22729 223.460876
1030.55371 1751.72058 223.460876
1008.24384 1746.69165 229.684006
1008.30365 1752.19128 229.684006
951.57251 1747.08105 227.521103
951.591125 1752.58105 227.521103
922.930786 1746.98096 227.34288
922.91156 1752.48083 227.34288
3 0 1 2
3 1 3 2
3 2 3 4
3 3 5 4
3 4 5 6
3 5 7 6
3 6 7 8
3 7 9 8
3 8 9 10
3 9 11 10
3 10 11 12
3 11 13 12
3 12 13 14
3 13 15 14
3 14 15 16
3 15 17 16
3 16 17 18
3 17 19 18
3 18 19 20
3 19 21 20
3 20 21 22
3 21 23 22
3 22 23 24
3 23 25 24
3 24 25 26
3 25 27 26
3 26 27 28
3 27 29 28
3 28 29 30
3 29 31 30
3 30 31 32
3 31 33 32
3 32 33 34
3 33 35 34
