ply
format ascii 1.0
element vertex 20
property float x
property float y
property float z
element face 36
property list uchar int vertex_indices
end_header
-3203.17554 413.529633 225.204086
-3205.23804 379.065125 223.827042
-3192.13745 378.27475 221.337143
-3191.93408 381.636597 221.337143
-3182.5708 381.068878 221.337143
-3182.22241 386.935425 221.337143
-3175.70581 386.545807 221.337143
-3174.67944 403.477509 224.182098
-3180.72144 403.844849 224.182098
-3180.21802 412.1604 224.182098
-3203.17554 413.529633 233.204086
-3205.23804 379.065125 231.827042
-3192.13745 378.27475 229.337143
-3191.93408 381.636597 229.337143
-3182.5708 381.068878 229.337143
-3182.22241 386.935425 229.337143
-3175.70581 386.545807 229.337143
-3174.67944 403.477509 232.182098
-3180.72144 403.844849 232.182098
-3180.21802 412.1604 232.182098
3 18 19 10
3 0 9 8
3 10 11 12
3 2 1 0
3 13 14 15
3 5 4 3
3 15 16 17
3 7 6 5
3 10 12 13
3 3 2 0
3 13 15 17
3 7 5 3
3 18 10 13
3 3 0 8
3 13 17 18
3 8 7 3
3 0 1 11
3 0 11 10
3 1 2 12
3 1 12 11
3 2 3 13
3 2 13 12
3 3 4 14
3 3 14 13
3 4 5 15
3 4 15 14
3 5 6 16
3 5 16 15
3 6 7 17
3 6 17 16
3 7 8 18
3 7 18 17
3 8 9 19
3 8 19 18
3 9 0 10
3 9 10 19
