ply
format ascii 1.0
element vertex 148
property float x
property float y
property float z
element face 292
property list uchar int vertex_indices
end_header
2407.09717 395.206451 203.691803
2406.2063 389.128418 203.691803
2414.92065 384.174683 203.691803
2427.10156 375.770081 196.310211
2420.38184 287.649567 218.916412
2425.90088 280.825684 203.191467
2462.53027 266.610168 197.756989
2484.61646 257.481995 195.882782
2495.7998 265.730743 195.882782
2502.0647 265.964539 195.043686
2499.05322 293.772125 193.505814
2496.87476 317.015656 194.304443
2507.75806 332.15509 192.194046
2503.54614 372.931427 188.252151
2489.89355 382.671875 191.986176
2484.78101 434.691467 193.8862
2494.77344 447.437561 193.8862
2491.46216 477.794373 194.631653
2479.90088 486.032043 194.631653
2476.74438 523.368591 193.600525
2474.20752 524.559692 197.657074
2478.30347 532.964355 193.716919
2437.68457 560.905518 197.835526
2400.69702 578.327026 199.704712
2384.13965 584.238098 200.356247
2368.25024 589.625977 198.864517
2347.35522 594.479492 197.926208
2323.07104 598.208679 196.332108
2314.77319 599.043579 196.332108
2311.93604 589.659363 194.500656
2309.09912 590.561035 194.500656
2281 566.694153 195.821167
2267.27002 568.708984 195.821167
2253.58838 557.621582 188.009598
2242.89868 548.983215 199.839813
2240.37158 532.563599 199.839813
2220.69653 516.433411 198.087509
2205.85303 503.809753 188.742661
2200.79858 499.468292 188.742661
2185.05469 501.928467 188.742661
2153.79907 475.122711 192.585175
2151.28149 456.298584 188.805557
2144.59082 451.300354 188.805557
2121.48804 431.162659 191.086929
2134.44336 415.989807 195.856384
2138.91675 411.670624 195.856384
2151.49463 405.548035 195.856384
2163.88843 403.065613 199.336197
2172.60278 404.345795 199.336197
2186.70068 407.562927 203.650253
2196.78027 407.373688 203.650253
2205.15576 403.633331 203.650253
2209.69702 399.870758 221.668167
2214.59644 395.150787 221.668167
2217.92725 387.002197 221.668167
2219.1084 375.669891 221.668167
2217.45288 365.717926 232.448608
2212.16602 354.162964 232.448608
2205.94019 342.218384 234.004288
2203.47095 337.554077 242.291107
2201.83472 333.156982 242.291107
2202.47363 328.715332 242.291107
2205.82397 324.362732 242.291107
2209.25146 321.123322 239.434204
2238.17358 315.746613 234.412048
2273.41846 308.766876 243.3573
2278.95703 313.074921 231.57666
2280.58374 317.895081 231.57666
2296.72461 377.206085 217.719986
2302.56323 393.36969 217.719986
2308.10181 402.041473 214.025497
2312.66235 407.128784 214.025497
2330.04272 415.388672 214.107346
2344.36328 414.642853 212.001251
2407.09717 395.206451 211.691803
2406.2063 389.128418 211.691803
2414.92065 384.174683 211.691803
2427.10156 375.770081 204.310211
2420.38184 287.649567 226.916412
2425.90088 280.825684 211.191467
2462.53027 266.610168 205.756989
2484.61646 257.481995 203.882782
2495.7998 265.730743 203.882782
2502.0647 265.964539 203.043686
2499.05322 293.772125 201.505814
2496.87476 317.015656 202.304443
2507.75806 332.15509 200.194046
2503.54614 372.931427 196.252151
2489.89355 382.671875 199.986176
2484.78101 434.691467 201.8862
2494.77344 447.437561 201.8862
2491.46216 477.794373 202.631653
2479.90088 486.032043 202.631653
2476.74438 523.368591 201.600525
2474.20752 524.559692 205.657074
2478.30347 532.964355 201.716919
2437.68457 560.905518 205.835526
2400.69702 578.327026 207.704712
2384.13965 584.238098 208.356247
2368.25024 589.625977 206.864517
2347.35522 594.479492 205.926208
2323.07104 598.208679 204.332108
2314.77319 599.043579 204.332108
2311.93604 589.659363 202.500656
2309.09912 590.561035 202.500656
2281 566.694153 203.821167
2267.27002 568.708984 203.821167
2253.58838 557.621582 196.009598
2242.89868 548.983215 207.839813
2240.37158 532.563599 207.839813
2220.69653 516.433411 206.087509
2205.85303 503.809753 196.742661
2200.79858 499.468292 196.742661
2185.05469 501.928467 196.742661
2153.79907 475.122711 200.585175
2151.28149 456.298584 196.805557
2144.59082 451.300354 196.805557
2121.48804 431.162659 199.086929
2134.44336 415.989807 203.856384
2138.91675 411.670624 203.856384
2151.49463 405.548035 203.856384
2163.88843 403.065613 207.336197
2172.60278 404.345795 207.336197
2186.70068 407.562927 211.650253
2196.78027 407.373688 211.650253
2205.15576 403.633331 211.650253
2209.69702 399.870758 229.668167
2214.59644 395.150787 229.668167
2217.92725 387.002197 229.668167
2219.1084 375.669891 229.668167
2217.45288 365.717926 240.448608
2212.16602 354.162964 240.448608
2205.94019 342.218384 242.004288
2203.47095 337.554077 250.291107
2201.83472 333.156982 250.291107
2202.47363 328.715332 250.291107
2205.82397 324.362732 250.291107
2209.25146 321.123322 247.434204
2238.17358 315.746613 242.412048
2273.41846 308.766876 251.3573
2278.95703 313.074921 239.57666
2280.58374 317.895081 239.57666
2296.72461 377.206085 225.719986
2302.56323 393.36969 225.719986
2308.10181 402.041473 222.025497
2312.66235 407.128784 222.025497
2330.04272 415.388672 222.107346
2344.36328 414.642853 220.001251
3 74 75 76
3 2 1 0
3 77 78 79
3 5 4 3
3 80 81 82
3 8 7 6
3 82 83 84
3 10 9 8
3 85 86 87
3 13 12 11
3 89 90 91
3 17 16 15
3 92 93 94
3 20 19 18
3 94 95 96
3 22 21 20
3 96 97 98
3 24 23 22
3 98 99 100
3 26 25 24
3 100 101 102
3 28 27 26
3 103 104 105
3 31 30 29
3 105 106 107
3 33 32 31
3 107 108 109
3 35 34 33
3 109 110 111
3 37 36 35
3 112 113 114
3 40 39 38
3 115 116 117
3 43 42 41
3 117 118 119
3 45 44 43
3 119 120 121
3 47 46 45
3 121 122 123
3 49 48 47
3 132 133 134
3 60 59 58
3 134 135 136
3 62 61 60
3 136 137 138
3 64 63 62
3 138 139 140
3 66 65 64
3 140 141 142
3 68 67 66
3 74 76 77
3 3 2 0
3 77 79 80
3 6 5 3
3 80 82 84
3 10 8 6
3 85 87 88
3 14 13 11
3 89 91 92
3 18 17 15
3 92 94 96
3 22 20 18
3 96 98 100
3 26 24 22
3 100 102 103
3 29 28 26
3 105 107 109
3 35 33 31
3 109 111 112
3 38 37 35
3 112 114 115
3 41 40 38
3 115 117 119
3 45 43 41
3 119 121 123
3 49 47 45
3 131 132 134
3 60 58 57
3 134 136 138
3 64 62 60
3 138 140 142
3 68 66 64
3 77 80 84
3 10 6 3
3 84 85 88
3 14 11 10
3 89 92 96
3 22 18 15
3 96 100 103
3 29 26 22
3 103 105 109
3 35 31 29
3 109 112 115
3 41 38 35
3 115 119 123
3 49 45 41
3 131 134 138
3 64 60 57
3 138 142 143
3 69 68 64
3 77 84 88
3 14 10 3
3 88 89 96
3 22 15 14
3 96 103 109
3 35 29 22
3 109 115 123
3 49 41 35
3 130 131 138
3 64 57 56
3 138 143 144
3 70 69 64
3 74 77 88
3 14 3 0
3 88 96 109
3 35 22 14
3 109 123 124
3 50 49 35
3 129 130 138
3 64 56 55
3 147 74 88
3 14 0 73
3 109 124 125
3 51 50 35
3 128 129 138
3 64 55 54
3 147 88 109
3 35 14 73
3 109 125 126
3 52 51 35
3 128 138 144
3 70 64 54
3 146 147 109
3 35 73 72
3 109 126 127
3 53 52 35
3 127 128 144
3 70 54 53
3 145 146 109
3 35 72 71
3 109 127 144
3 70 53 35
3 144 145 109
3 35 71 70
3 0 1 75
3 0 75 74
3 1 2 76
3 1 76 75
3 2 3 77
3 2 77 76
3 3 4 78
3 3 78 77
3 4 5 79
3 4 79 78
3 5 6 80
3 5 80 79
3 6 7 81
3 6 81 80
3 7 8 82
3 7 82 81
3 8 9 83
3 8 83 82
3 9 10 84
3 9 84 83
3 10 11 85
3 10 85 84
3 11 12 86
3 11 86 85
3 12 13 87
3 12 87 86
3 13 14 88
3 13 88 87
3 14 15 89
3 14 89 88
3 15 16 90
3 15 90 89
3 16 17 91
3 16 91 90
3 17 18 92
3 17 92 91
3 18 19 93
3 18 93 92
3 19 20 94
3 19 94 93
3 20 21 95
3 20 95 94
3 21 22 96
3 21 96 95
3 22 23 97
3 22 97 96
3 23 24 98
3 23 98 97
3 24 25 99
3 24 99 98
3 25 26 100
3 25 100 99
3 26 27 101
3 26 101 100
3 27 28 102
3 27 102 101
3 28 29 103
3 28 103 102
3 29 30 104
3 29 104 103
3 30 31 105
3 30 105 104
3 31 32 106
3 31 106 105
3 32 33 107
3 32 107 106
3 33 34 108
3 33 108 107
3 34 35 109
3 34 109 108
3 35 36 110
3 35 110 109
3 36 37 111
3 36 111 110
3 37 38 112
3 37 112 111
3 38 39 113
3 38 113 112
3 39 40 114
3 39 114 113
3 40 41 115
3 40 115 114
3 41 42 116
3 41 116 115
3 42 43 117
3 42 117 116
3 43 44 118
3 43 118 117
3 44 45 119
3 44 119 118
3 45 46 120
3 45 120 119
3 46 47 121
3 46 121 120
3 47 48 122
3 47 122 121
3 48 49 123
3 48 123 122
3 49 50 124
3 49 124 123
3 50 51 125
3 50 125 124
3 51 52 126
3 51 126 125
3 52 53 127
3 52 127 126
3 53 54 128
3 53 128 127
3 54 55 129
3 54 129 128
3 55 56 130
3 55 130 129
3 56 57 131
3 56 131 130
3 57 58 132
3 57 132 131
3 58 59 133
3 58 133 132
3 59 60 134
3 59 134 133
3 60 61 135
3 60 135 134
3 61 62 136
3 61 136 135
3 62 63 137
3 62 137 136
3 63 64 138
3 63 138 137
3 64 65 139
3 64 139 138
3 65 66 140
3 65 140 139
3 66 67 141
3 66 141 140
3 67 68 142
3 67 142 141
3 68 69 143
3 68 143 142
3 69 70 144
3 69 144 143
3 70 71 145
3 70 145 144
3 71 72 146
3 71 146 145
3 72 73 147
3 72 147 146
3 73 0 74
3 73 74 147
