ply
format ascii 1.0
element vertex 84
property float x
property float y
property float z
element face 82
property list uchar int vertex_indices
end_header
1162.33655 1642.01392 236.50206
1162.42908 1638.01489 236.50206
1163.7804 1642.04724 236.50206
1163.87061 1638.04834 236.50206
1166.66284 1642.0177 236.50206
1167.95972 1638.23376 236.50206
1170.37537 1644.40601 236.50206
1171.56726 1640.58765 236.50206
1177.6311 1645.23145 236.50206
1177.03442 1641.27612 236.50206
1178.17957 1643.36633 236.50206
1176.60229 1639.69043 236.50206
1179.51672 1643.3844 236.50206
1181.94604 1640.20654 236.50206
1179.43066 1645.49255 236.50206
1182.69055 1643.17468 236.50206
1184.43774 1645.63525 236.50206
1181.0144 1643.56628 236.50206
1184.00989 1642.96313 236.50206
1181.77136 1639.64819 236.50206
1185.47241 1643.47375 235.148132
1187.95825 1640.33997 235.148132
1185.37402 1645.70056 235.148132
1188.71497 1643.50098 235.148132
1186.92847 1645.86475 235.148132
1190.18152 1643.53711 235.148132
1187.03516 1648.02466 235.148132
1190.28784 1645.69641 235.148132
1192.13098 1647.61877 235.148132
1188.30981 1646.43628 235.148132
1192.70007 1640.56616 235.148132
1188.8252 1639.57397 235.148132
1190.08801 1640.65039 235.148132
1193.91602 1639.48975 235.148132
1190.25696 1645.29529 235.148132
1194.07629 1644.10669 235.148132
1195.17676 1646.03284 235.148132
1191.84827 1643.81433 235.148132
1195.85559 1642.75928 235.148132
1192.35071 1640.83167 235.148132
1193.47717 1642.52014 235.148132
1197.11108 1640.84827 235.148132
1193.58154 1645.43762 235.148132
1197.10352 1643.54126 235.148132
1198.54895 1645.4679 235.148132
1195.0603 1643.51099 235.148132
1198.4989 1642.81238 235.148132
1195.63318 1640.02173 235.148132
1199.77454 1643.41687 235.148132
1199.8186 1639.41711 235.148132
1204.0282 1642.073 235.148132
1200.21265 1640.87231 235.148132
1203.67944 1635.27185 235.975143
1199.68994 1635.56201 235.975143
1203.04639 1627.72974 235.975143
1199.29663 1629.12231 235.975143
1199.08252 1626.48193 235.975143
1199.13574 1630.48157 235.975143
1198.12769 1626.83777 235.975143
1195.84949 1630.12561 235.975143
1196.922 1624.62769 235.975143
1195.64148 1628.41724 235.975143
1191.00195 1624.85706 235.975143
1192.49866 1628.56641 235.975143
1190.42261 1626.83301 235.975143
1192.98108 1629.90784 235.975143
1189.52698 1627.66309 235.975143
1187.5249 1631.12598 235.975143
1189.67761 1624.94238 235.975143
1186.98694 1627.9021 235.975143
1183.9303 1625.15479 235.975143
1186.82788 1627.91235 235.975143
1182.94153 1629.5011 238.34819
1184.27271 1633.27307 238.34819
1175.91394 1627.82397 238.34819
1176.23413 1631.81116 238.34819
1166.92981 1630.74292 238.34819
1167.84753 1634.63623 238.34819
1163.72693 1630.72314 238.34819
1163.76917 1634.7229 238.34819
1160.16516 1632.3772 238.34819
1164.09692 1633.11328 238.34819
1160.38403 1640.08362 236.50206
1164.38159 1639.94519 236.50206
3 0 1 2
3 1 3 2
3 2 3 4
3 3 5 4
3 4 5 6
3 5 7 6
3 6 7 8
3 7 9 8
3 8 9 10
3 9 11 10
3 10 11 12
3 11 13 12
3 12 13 14
3 13 15 14
3 14 15 16
3 15 17 16
3 16 17 18
3 17 19 18
3 18 19 20
3 19 21 20
3 20 21 22
3 21 23 22
3 22 23 24
3 23 25 24
3 24 25 26
3 25 27 26
3 26 27 28
3 27 29 28
3 28 29 30
3 29 31 30
3 30 31 32
3 31 33 32
3 32 33 34
3 33 35 34
3 34 35 36
3 35 37 36
3 36 37 38
3 37 39 38
3 38 39 40
3 39 41 40
3 40 41 42
3 41 43 42
3 42 43 44
3 43 45 44
3 44 45 46
3 45 47 46
3 46 47 48
3 47 49 48
3 48 49 50
3 49 51 50
3 50 51 52
3 51 53 52
3 52 53 54
3 53 55 54
3 54 55 56
3 55 57 56
3 56 57 58
3 57 59 58
3 58 59 60
3 59 61 60
3 60 61 62
3 61 63 62
3 62 63 64
3 63 65 64
3 64 65 66
3 65 67 66
3 66 67 68
3 67 69 68
3 68 69 70
3 69 71 70
3 70 71 72
3 71 73 72
3 72 73 74
3 73 75 74
3 74 75 76
3 75 77 76
3 76 77 78
3 77 79 78
3 78 79 80
3 79 81 80
3 80 81 82
3 81 83 82
