ply
format ascii 1.0
element vertex 12
property float x
property float y
property float z
element face 20
property list uchar int vertex_indices
end_header
1286.7467 31.5256805 267.346802
1299.31482 34.3309326 262.388489
1301.474 24.5793438 254.885803
1301.89038 22.7314396 254.885803
1303.46863 15.7851038 254.885803
1290.88123 12.9464569 257.518921
1286.7467 31.5256805 275.346802
1299.31482 34.3309326 270.388489
1301.474 24.5793438 262.885803
1301.89038 22.7314396 262.885803
1303.46863 15.7851038 262.885803
1290.88123 12.9464569 265.518921
3 7 6 11
3 5 0 1
3 11 10 9
3 3 4 5
3 8 7 11
3 5 1 2
3 11 9 8
3 2 3 5
3 0 1 7
3 0 7 6
3 1 2 8
3 1 8 7
3 2 3 9
3 2 9 8
3 3 4 10
3 3 10 9
3 4 5 11
3 4 11 10
3 5 0 6
3 5 6 11
