ply
format ascii 1.0
element vertex 22
property float x
property float y
property float z
element face 40
property list uchar int vertex_indices
end_header
-1629.07678 -203.53656 239.355331
-1599.07031 -218.230728 243.376831
-1595.24561 -223.919159 243.376831
-1595.85571 -227.370056 243.376831
-1611.29944 -262.068359 248.35701
-1630.43237 -253.185043 244.414795
-1626.40442 -243.823074 235.444778
-1632.03003 -228.917404 235.444778
-1642.49695 -223.529541 232.451965
-1641.91602 -221.325409 232.451965
-1632.77563 -201.944687 239.355331
-1629.07678 -203.53656 309.755341
-1599.07031 -218.230728 313.776825
-1595.24561 -223.919159 313.776825
-1595.85571 -227.370056 313.776825
-1611.29944 -262.068359 318.757019
-1630.43237 -253.185043 314.814789
-1626.40442 -243.823074 305.844788
-1632.03003 -228.917404 305.844788
-1642.49695 -223.529541 302.851959
-1641.91602 -221.325409 302.851959
-1632.77563 -201.944687 309.755341
3 12 11 21
3 10 0 1
3 21 20 19
3 8 9 10
3 17 16 15
3 4 5 6
3 15 14 13
3 2 3 4
3 13 12 21
3 10 1 2
3 21 19 18
3 7 8 10
3 18 17 15
3 4 6 7
3 15 13 21
3 10 2 4
3 21 18 15
3 4 7 10
3 0 1 12
3 0 12 11
3 1 2 13
3 1 13 12
3 2 3 14
3 2 14 13
3 3 4 15
3 3 15 14
3 4 5 16
3 4 16 15
3 5 6 17
3 5 17 16
3 6 7 18
3 6 18 17
3 7 8 19
3 7 19 18
3 8 9 20
3 8 20 19
3 9 10 21
3 9 21 20
3 10 0 11
3 10 11 21
