ply
format ascii 1.0
element vertex 110
property float x
property float y
property float z
element face 216
property list uchar int vertex_indices
end_header
-628.297485 2116.97388 317.525574
-633.080688 2119.66772 317.525574
-635.869324 2114.71411 317.525574
-633.100098 2113.15552 317.525574
-636.372803 2107.33374 317.525574
-639.374451 2109.01465 317.525574
-639.955383 2107.97925 317.525574
-648.243774 2112.63232 315.027466
-647.653076 2113.67871 315.027466
-649.84137 2114.90332 315.027466
-646.568665 2120.73657 315.027466
-644.380371 2119.50073 317.525574
-641.591736 2124.45459 317.525574
-644.835449 2126.26904 317.525574
-644.167358 2127.46021 317.525574
-650.09314 2130.78857 315.027466
-652.755859 2126.0686 315.027466
-650.306152 2124.68823 315.027466
-653.820923 2118.44336 315.027466
-656.270691 2119.82373 315.027466
-656.938782 2118.62134 315.027466
-664.859192 2123.07422 315.027466
-664.191101 2124.27637 315.027466
-666.079163 2125.33398 315.027466
-666.030762 2125.4231 315.027466
-668.315857 2126.70312 315.027466
-668.858093 2125.72363 315.027466
-674.018982 2128.62915 310.871826
-673.476746 2129.60864 310.871826
-675.510071 2130.74414 310.871826
-676.381531 2129.19678 310.871826
-681.736023 2132.21362 310.871826
-680.864624 2133.76099 313.355316
-683.662903 2135.33057 313.355316
-680.196472 2141.49756 313.355316
-675.742493 2139.00391 313.355316
-674.299744 2141.57544 313.355316
-664.646179 2136.1543 312.681091
-666.098572 2133.57153 315.027466
-662.564392 2131.59009 315.027466
-660.656921 2130.51025 315.027466
-658.003845 2135.24146 312.681091
-662.022156 2137.50122 312.681091
-659.059265 2142.7666 312.681091
-655.544495 2140.79614 312.681091
-654.866699 2141.99854 312.681091
-643.354004 2135.51978 321.037537
-644.031799 2134.31738 321.037537
-641.204468 2132.72559 317.525574
-641.698303 2131.84619 317.525574
-639.664917 2130.69946 317.525574
-638.764404 2132.30249 317.525574
-625.963989 2125.1001 317.525574
-626.864441 2123.49731 317.525574
-625.160278 2122.53979 317.525574
-628.297485 2116.97388 325.525574
-633.080688 2119.66772 325.525574
-635.869324 2114.71411 325.525574
-633.100098 2113.15552 325.525574
-636.372803 2107.33374 325.525574
-639.374451 2109.01465 325.525574
-639.955383 2107.97925 325.525574
-648.243774 2112.63232 323.027466
-647.653076 2113.67871 323.027466
-649.84137 2114.90332 323.027466
-646.568665 2120.73657 323.027466
-644.380371 2119.50073 325.525574
-641.591736 2124.45459 325.525574
-644.835449 2126.26904 325.525574
-644.167358 2127.46021 325.525574
-650.09314 2130.78857 323.027466
-652.755859 2126.0686 323.027466
-650.306152 2124.68823 323.027466
-653.820923 2118.44336 323.027466
-656.270691 2119.82373 323.027466
-656.938782 2118.62134 323.027466
-664.859192 2123.07422 323.027466
-664.191101 2124.27637 323.027466
-666.079163 2125.33398 323.027466
-666.030762 2125.4231 323.027466
-668.315857 2126.70312 323.027466
-668.858093 2125.72363 323.027466
-674.018982 2128.62915 318.871826
-673.476746 2129.60864 318.871826
-675.510071 2130.74414 318.871826
-676.381531 2129.19678 318.871826
-681.736023 2132.21362 318.871826
-680.864624 2133.76099 321.355316
-683.662903 2135.33057 321.355316
-680.196472 2141.49756 321.355316
-675.742493 2139.00391 321.355316
-674.299744 2141.57544 321.355316
-664.646179 2136.1543 320.681091
-666.098572 2133.57153 323.027466
-662.564392 2131.59009 323.027466
-660.656921 2130.51025 323.027466
-658.003845 2135.24146 320.681091
-662.022156 2137.50122 320.681091
-659.059265 2142.7666 320.681091
-655.544495 2140.79614 320.681091
-654.866699 2141.99854 320.681091
-643.354004 2135.51978 329.037537
-644.031799 2134.31738 329.037537
-641.204468 2132.72559 325.525574
-641.698303 2131.84619 325.525574
-639.664917 2130.69946 325.525574
-638.764404 2132.30249 325.525574
-625.963989 2125.1001 325.525574
-626.864441 2123.49731 325.525574
-625.160278 2122.53979 325.525574
3 56 55 109
3 54 0 1
3 108 107 106
3 51 52 53
3 104 103 102
3 47 48 49
3 102 101 100
3 45 46 47
3 99 98 97
3 42 43 44
3 95 94 93
3 38 39 40
3 93 92 91
3 36 37 38
3 90 89 88
3 33 34 35
3 87 86 85
3 30 31 32
3 83 82 81
3 26 27 28
3 79 78 77
3 22 23 24
3 77 76 75
3 20 21 22
3 74 73 72
3 17 18 19
3 69 68 67
3 12 13 14
3 66 65 64
3 9 10 11
3 63 62 61
3 6 7 8
3 60 59 58
3 3 4 5
3 56 109 108
3 53 54 1
3 108 106 105
3 50 51 53
3 104 102 100
3 45 47 49
3 99 97 96
3 41 42 44
3 93 91 90
3 35 36 38
3 90 88 87
3 32 33 35
3 87 85 84
3 29 30 32
3 83 81 80
3 25 26 28
3 77 75 74
3 19 20 22
3 74 72 71
3 16 17 19
3 66 64 63
3 8 9 11
3 63 61 60
3 5 6 8
3 60 58 57
3 2 3 5
3 56 108 105
3 50 53 1
3 104 100 99
3 44 45 49
3 93 90 87
3 32 35 38
3 87 84 83
3 28 29 32
3 83 80 79
3 24 25 28
3 79 77 74
3 19 22 24
3 67 66 63
3 8 11 12
3 63 60 57
3 2 5 8
3 57 56 105
3 50 1 2
3 104 99 96
3 41 44 49
3 95 93 87
3 32 38 40
3 79 74 71
3 16 19 24
3 67 63 57
3 2 8 12
3 57 105 104
3 49 50 2
3 104 96 95
3 40 41 49
3 95 87 83
3 28 32 40
3 83 79 71
3 16 24 28
3 67 57 104
3 49 2 12
3 95 83 71
3 16 28 40
3 69 67 104
3 49 12 14
3 95 71 70
3 15 16 40
3 70 69 104
3 49 14 15
3 104 95 70
3 15 40 49
3 0 1 56
3 0 56 55
3 1 2 57
3 1 57 56
3 2 3 58
3 2 58 57
3 3 4 59
3 3 59 58
3 4 5 60
3 4 60 59
3 5 6 61
3 5 61 60
3 6 7 62
3 6 62 61
3 7 8 63
3 7 63 62
3 8 9 64
3 8 64 63
3 9 10 65
3 9 65 64
3 10 11 66
3 10 66 65
3 11 12 67
3 11 67 66
3 12 13 68
3 12 68 67
3 13 14 69
3 13 69 68
3 14 15 70
3 14 70 69
3 15 16 71
3 15 71 70
3 16 17 72
3 16 72 71
3 17 18 73
3 17 73 72
3 18 19 74
3 18 74 73
3 19 20 75
3 19 75 74
3 20 21 76
3 20 76 75
3 21 22 77
3 21 77 76
3 22 23 78
3 22 78 77
3 23 24 79
3 23 79 78
3 24 25 80
3 24 80 79
3 25 26 81
3 25 81 80
3 26 27 82
3 26 82 81
3 27 28 83
3 27 83 82
3 28 29 84
3 28 84 83
3 29 30 85
3 29 85 84
3 30 31 86
3 30 86 85
3 31 32 87
3 31 87 86
3 32 33 88
3 32 88 87
3 33 34 89
3 33 89 88
3 34 35 90
3 34 90 89
3 35 36 91
3 35 91 90
3 36 37 92
3 36 92 91
3 37 38 93
3 37 93 92
3 38 39 94
3 38 94 93
3 39 40 95
3 39 95 94
3 40 41 96
3 40 96 95
3 41 42 97
3 41 97 96
3 42 43 98
3 42 98 97
3 43 44 99
3 43 99 98
3 44 45 100
3 44 100 99
3 45 46 101
3 45 101 100
3 46 47 102
3 46 102 101
3 47 48 103
3 47 103 102
3 48 49 104
3 48 104 103
3 49 50 105
3 49 105 104
3 50 51 106
3 50 106 105
3 51 52 107
3 51 107 106
3 52 53 108
3 52 108 107
3 53 54 109
3 53 109 108
3 54 0 55
3 54 55 109
