ply
format ascii 1.0
element vertex 44
property float x
property float y
property float z
element face 42
property list uchar int vertex_indices
end_header
-1610.71631 -24.0943546 232.828171
-1612.50232 -23.1941643 232.828171
-1615.64966 -33.8688087 231.699509
-1617.52283 -33.1677895 231.699509
-1618.32654 -44.3779526 231.699509
-1620.30688 -44.0987816 231.699509
-1618.65649 -55.2493782 231.699509
-1620.65466 -55.3354034 231.699509
-1617.61755 -60.6949806 231.699509
-1619.58289 -61.0662804 231.699509
-1616.65808 -65.8297348 233.123138
-1618.54773 -66.4846115 233.123138
-1612.37439 -75.8409653 233.123138
-1614.11694 -76.8225784 233.123138
-1606.09119 -84.6031799 230.96788
-1607.58032 -85.9382782 230.96788
-1598.06067 -91.8057556 230.96788
-1599.22778 -93.4298782 230.96788
-1588.67285 -97.1205063 237.977661
-1589.46338 -98.9576416 237.977661
-1578.35486 -100.285225 242.0504
-1578.73132 -102.249458 242.0504
-1567.60925 -101.158264 242.0504
-1567.5553 -103.157532 242.0504
-1556.92126 -99.7069778 237.198364
-1556.43799 -101.647713 237.198364
-1546.79333 -95.9747314 237.198364
-1545.9032 -97.7657089 237.198364
-1537.70801 -90.1570892 233.728745
-1536.45593 -91.7166901 233.728745
-1530.18164 -82.6387253 233.081696
-1528.62561 -83.8952332 233.081696
-1524.41992 -73.7011261 233.081696
-1522.63269 -74.5986938 233.081696
-1520.69312 -63.7518311 233.081696
-1518.7489 -64.2210541 233.081696
-1519.12329 -51.7552528 232.238739
-1517.12341 -51.7718735 232.238739
-1520.49036 -39.7506981 232.238739
-1518.54504 -39.2861404 232.238739
-1524.69531 -28.4227619 234.744827
-1522.91882 -27.5041504 234.744827
-1531.58521 -18.341465 234.744827
-1529.93323 -17.2139797 234.744827
3 0 1 2
3 1 3 2
3 2 3 4
3 3 5 4
3 4 5 6
3 5 7 6
3 6 7 8
3 7 9 8
3 8 9 10
3 9 11 10
3 10 11 12
3 11 13 12
3 12 13 14
3 13 15 14
3 14 15 16
3 15 17 16
3 16 17 18
3 17 19 18
3 18 19 20
3 19 21 20
3 20 21 22
3 21 23 22
3 22 23 24
3 23 25 24
3 24 25 26
3 25 27 26
3 26 27 28
3 27 29 28
3 28 29 30
3 29 31 30
3 30 31 32
3 31 33 32
3 32 33 34
3 33 35 34
3 34 35 36
3 35 37 36
3 36 37 38
3 37 39 38
3 38 39 40
3 39 41 40
3 40 41 42
3 41 43 42
