ply
format ascii 1.0
element vertex 18
property float x
property float y
property float z
element face 32
property list uchar int vertex_indices
end_header
-1705.09534 905.572937 205.092789
-1733.63013 906.341003 208.023987
-1733.31055 918.241089 208.023987
-1706.07324 917.506348 205.092789
-1668.55298 924.029724 202.69838
-1668.51428 923.807068 202.69838
-1639.69873 936.920471 208.822723
-1635.01233 926.612305 195.565887
-1666.51001 912.285461 199.122101
-1705.09534 905.572937 213.092789
-1733.63013 906.341003 216.023987
-1733.31055 918.241089 216.023987
-1706.07324 917.506348 213.092789
-1668.55298 924.029724 210.69838
-1668.51428 923.807068 210.69838
-1639.69873 936.920471 216.822723
-1635.01233 926.612305 203.565887
-1666.51001 912.285461 207.122101
3 10 9 17
3 8 0 1
3 17 16 15
3 6 7 8
3 14 13 12
3 3 4 5
3 12 11 10
3 1 2 3
3 17 15 14
3 5 6 8
3 14 12 10
3 1 3 5
3 10 17 14
3 5 8 1
3 0 1 10
3 0 10 9
3 1 2 11
3 1 11 10
3 2 3 12
3 2 12 11
3 3 4 13
3 3 13 12
3 4 5 14
3 4 14 13
3 5 6 15
3 5 15 14
3 6 7 16
3 6 16 15
3 7 8 17
3 7 17 16
3 8 0 9
3 8 9 17
