ply
format ascii 1.0
element vertex 16
property float x
property float y
property float z
element face 14
property list uchar int vertex_indices
end_header
1342.17981 1359.3728 231.364899
1336.75781 1360.29602 231.364899
1341.37012 1354.6189 231.364899
1335.96008 1355.60986 231.364899
1338.49316 1339.25562 231.364899
1333.12427 1340.44946 231.364899
1334.92688 1325.70996 234.32933
1329.71912 1327.47876 234.32933
1328.96179 1311.22375 234.32933
1324.04565 1313.68982 234.32933
1320.63196 1297.18738 237.687225
1315.99243 1300.14124 237.687225
1262.62756 1207.00745 241.107544
1257.95996 1209.91675 241.107544
1217.95752 1132.46448 245.169601
1213.23975 1135.29163 245.169601
3 0 1 2
3 1 3 2
3 2 3 4
3 3 5 4
3 4 5 6
3 5 7 6
3 6 7 8
3 7 9 8
3 8 9 10
3 9 11 10
3 10 11 12
3 11 13 12
3 12 13 14
3 13 15 14
