ply
format ascii 1.0
element vertex 22
property float x
property float y
property float z
element face 20
property list uchar int vertex_indices
end_header
-315.706116 274.486633 196.406326
-313.51123 267.839661 196.406326
-300.969299 279.352661 196.406326
-298.851532 272.680695 196.406326
-289.27478 282.87616 194.926819
-287.055939 276.237122 194.926819
-280.566925 286.148529 194.926819
-277.6185 279.799774 194.926819
-269.971771 291.824493 195.444931
-266.137207 285.968201 195.444931
-225.714081 322.104828 195.417221
-221.624359 316.423798 195.417221
-211.416031 333.94162 191.129059
-206.583969 328.876892 191.129059
-173.742523 371.733246 191.278198
-168.771545 366.80481 191.278198
-162.429581 383.34729 189.893524
-157.233429 378.65686 189.893524
-126.313301 424.280243 188.596603
-121.000954 419.721863 188.596603
-115.847404 437.630615 190.761169
-110.339302 433.310822 190.761169
3 0 1 2
3 1 3 2
3 2 3 4
3 3 5 4
3 4 5 6
3 5 7 6
3 6 7 8
3 7 9 8
3 8 9 10
3 9 11 10
3 10 11 12
3 11 13 12
3 12 13 14
3 13 15 14
3 14 15 16
3 15 17 16
3 16 17 18
3 17 19 18
3 18 19 20
3 19 21 20
