ply
format ascii 1.0
element vertex 28
property float x
property float y
property float z
element face 52
property list uchar int vertex_indices
end_header
-599.220459 1933.51941 292.89505
-608.49646 1918.73608 292.89505
-617.152771 1916.37622 288.706482
-635.133423 1927.93115 292.661804
-633.080688 1931.11487 292.661804
-634.73645 1932.17236 292.661804
-628.800964 1941.38965 292.661804
-626.796692 1940.86646 292.661804
-624.986023 1943.68286 292.661804
-619.650879 1940.24304 292.661804
-610.926819 1942.21338 292.89505
-609.396973 1935.43408 292.89505
-608.767578 1935.03333 292.89505
-606.753601 1938.23926 292.89505
-599.220459 1933.51941 300.89505
-608.49646 1918.73608 300.89505
-617.152771 1916.37622 296.706482
-635.133423 1927.93115 300.661804
-633.080688 1931.11487 300.661804
-634.73645 1932.17236 300.661804
-628.800964 1941.38965 300.661804
-626.796692 1940.86646 300.661804
-624.986023 1943.68286 300.661804
-619.650879 1940.24304 300.661804
-610.926819 1942.21338 300.89505
-609.396973 1935.43408 300.89505
-608.767578 1935.03333 300.89505
-606.753601 1938.23926 300.89505
3 15 14 27
3 13 0 1
3 25 24 23
3 9 10 11
3 23 22 21
3 7 8 9
3 21 20 19
3 5 6 7
3 18 17 16
3 2 3 4
3 16 15 27
3 13 1 2
3 26 25 23
3 9 11 12
3 23 21 19
3 5 7 9
3 16 27 26
3 12 13 2
3 26 23 19
3 5 9 12
3 18 16 26
3 12 2 4
3 26 19 18
3 4 5 12
3 0 1 15
3 0 15 14
3 1 2 16
3 1 16 15
3 2 3 17
3 2 17 16
3 3 4 18
3 3 18 17
3 4 5 19
3 4 19 18
3 5 6 20
3 5 20 19
3 6 7 21
3 6 21 20
3 7 8 22
3 7 22 21
3 8 9 23
3 8 23 22
3 9 10 24
3 9 24 23
3 10 11 25
3 10 25 24
3 11 12 26
3 11 26 25
3 12 13 27
3 12 27 26
3 13 0 14
3 13 14 27
