ply
format ascii 1.0
element vertex 12
property float x
property float y
property float z
element face 10
property list uchar int vertex_indices
end_header
317.426331 -571.581055 270.570282
316.50647 -573.562561 270.570282
316.700134 -576.790833 270.570282
318.869049 -581.922668 270.570282
321.192871 -583.258484 270.570282
325.501648 -581.109985 267.987732
328.096588 -577.92627 267.987732
330.439789 -574.263855 267.987732
331.950287 -570.033691 267.987732
332.676483 -566.081848 267.987732
331.872833 -564.857361 267.987732
330.623779 -564.734924 267.987732
3 10 11 0
3 0 1 2
3 2 3 4
3 4 5 6
3 6 7 8
3 8 9 10
3 10 0 2
3 2 4 6
3 6 8 10
3 10 2 6
