ply
format ascii 1.0
element vertex 26
property float x
property float y
property float z
element face 48
property list uchar int vertex_indices
end_header
1644.21082 1264.31116 212.596878
1629.2124 1269.198 217.57312
1631.99133 1277.71399 217.57312
1645.25659 1273.39478 212.992874
1647.73535 1281.03125 212.992874
1645.97302 1281.599 212.992874
1649.73962 1293.15405 212.992874
1654.99731 1291.45081 212.992874
1653.04138 1285.46179 212.992874
1655.38464 1284.69373 212.992874
1654.34851 1281.51001 212.992874
1657.33081 1280.5415 212.992874
1651.29858 1262.00684 212.596878
1644.21082 1264.31116 220.596878
1629.2124 1269.198 225.57312
1631.99133 1277.71399 225.57312
1645.25659 1273.39478 220.992874
1647.73535 1281.03125 220.992874
1645.97302 1281.599 220.992874
1649.73962 1293.15405 220.992874
1654.99731 1291.45081 220.992874
1653.04138 1285.46179 220.992874
1655.38464 1284.69373 220.992874
1654.34851 1281.51001 220.992874
1657.33081 1280.5415 220.992874
1651.29858 1262.00684 220.596878
3 14 13 25
3 12 0 1
3 25 24 23
3 10 11 12
3 23 22 21
3 8 9 10
3 21 20 19
3 6 7 8
3 19 18 17
3 4 5 6
3 16 15 14
3 1 2 3
3 25 23 21
3 8 10 12
3 21 19 17
3 4 6 8
3 16 14 25
3 12 1 3
3 25 21 17
3 4 8 12
3 17 16 25
3 12 3 4
3 0 1 14
3 0 14 13
3 1 2 15
3 1 15 14
3 2 3 16
3 2 16 15
3 3 4 17
3 3 17 16
3 4 5 18
3 4 18 17
3 5 6 19
3 5 19 18
3 6 7 20
3 6 20 19
3 7 8 21
3 7 21 20
3 8 9 22
3 8 22 21
3 9 10 23
3 9 23 22
3 10 11 24
3 10 24 23
3 11 12 25
3 11 25 24
3 12 0 13
3 12 13 25
