ply
format ascii 1.0
element vertex 18
property float x
property float y
property float z
element face 16
property list uchar int vertex_indices
end_header
953.835083 -2481.53687 237.937164
959.12738 -2480.03979 237.937164
942.343445 -2440.90625 226.858704
947.574341 -2439.20679 226.858704
926.015564 -2395.81592 230.649002
930.942444 -2393.37134 230.649002
906.025269 -2367.49951 240.205551
910.013916 -2363.7124 240.205551
877.24353 -2344.54443 237.626404
880.409241 -2340.04688 237.626404
841.696899 -2322.16479 238.711655
843.549011 -2316.98608 238.711655
787.311218 -2312.37817 213.697144
787.687988 -2306.89087 213.697144
732.9646 -2314.69189 217.864304
731.787964 -2309.31934 217.864304
676.108765 -2336.81079 214.411835
674.117432 -2331.68384 214.411835
3 0 1 2
3 1 3 2
3 2 3 4
3 3 5 4
3 4 5 6
3 5 7 6
3 6 7 8
3 7 9 8
3 8 9 10
3 9 11 10
3 10 11 12
3 11 13 12
3 12 13 14
3 13 15 14
3 14 15 16
3 15 17 16
