ply
format ascii 1.0
element vertex 16
property float x
property float y
property float z
element face 28
property list uchar int vertex_indices
end_header
-1862.20605 985.110718 245.746872
-1862.87415 980.290588 245.746872
-1877.70789 982.349976 245.746872
-1876.30396 992.524597 252.774536
-1867.30872 991.277832 252.774536
-1866.77625 995.162842 252.774536
-1850.7417 992.936462 250.225464
-1852.0199 983.69696 243.848053
-1862.20605 985.110718 253.746872
-1862.87415 980.290588 253.746872
-1877.70789 982.349976 253.746872
-1876.30396 992.524597 260.774536
-1867.30872 991.277832 260.774536
-1866.77625 995.162842 260.774536
-1850.7417 992.936462 258.225464
-1852.0199 983.69696 251.848053
3 8 15 14
3 6 7 0
3 14 13 12
3 4 5 6
3 12 11 10
3 2 3 4
3 10 9 8
3 0 1 2
3 8 14 12
3 4 6 0
3 12 10 8
3 0 2 4
3 0 1 9
3 0 9 8
3 1 2 10
3 1 10 9
3 2 3 11
3 2 11 10
3 3 4 12
3 3 12 11
3 4 5 13
3 4 13 12
3 5 6 14
3 5 14 13
3 6 7 15
3 6 15 14
3 7 0 8
3 7 8 15
