ply
format ascii 1.0
element vertex 16
property float x
property float y
property float z
element face 14
property list uchar int vertex_indices
end_header
3180.48999 -267.126251 224.830475
3178.60986 -267.808441 224.830475
3185.29199 -280.41452 214.100937
3183.31616 -280.724762 214.100937
3184.73413 -298.649017 214.100937
3183.87402 -296.843445 214.100937
3148.68018 -298.510712 209.012802
3148.79932 -296.514252 209.012802
3139.77197 -295.913788 206.117401
3141.01465 -294.34668 206.117401
3120.48779 -276.382446 212.723251
3121.62622 -274.738068 212.723251
3109.80591 -274.540863 199.93248
3108.91504 -272.750275 199.93248
3051.58472 -311.238159 192.311707
3050.51831 -309.546112 192.311707
3 0 1 2
3 1 3 2
3 2 3 4
3 3 5 4
3 4 5 6
3 5 7 6
3 6 7 8
3 7 9 8
3 8 9 10
3 9 11 10
3 10 11 12
3 11 13 12
3 12 13 14
3 13 15 14
