ply
format ascii 1.0
element vertex 8
property float x
property float y
property float z
element face 12
property list uchar int vertex_indices
end_header
-2707.3562 -1004.06842 206.862564
-2715.17969 -1015.74585 206.862564
-2727.54443 -1007.47479 202.496414
-2719.72095 -995.797363 202.496414
-2707.3562 -1004.06842 214.862564
-2715.17969 -1015.74585 214.862564
-2727.54443 -1007.47479 210.496414
-2719.72095 -995.797363 210.496414
3 5 4 7
3 3 0 1
3 7 6 5
3 1 2 3
3 0 1 5
3 0 5 4
3 1 2 6
3 1 6 5
3 2 3 7
3 2 7 6
3 3 0 4
3 3 4 7
