ply
format ascii 1.0
element vertex 8
property float x
property float y
property float z
element face 12
property list uchar int vertex_indices
end_header
-892.895264 -62.4168396 250.12001
-881.140503 -62.2387276 245.609283
-880.9953 -71.7899399 245.609283
-892.75 -71.9680481 250.12001
-892.895264 -62.4168396 258.119995
-881.140503 -62.2387276 253.609283
-880.9953 -71.7899399 253.609283
-892.75 -71.9680481 258.119995
3 5 4 7
3 3 0 1
3 7 6 5
3 1 2 3
3 0 1 5
3 0 5 4
3 1 2 6
3 1 6 5
3 2 3 7
3 2 7 6
3 3 0 4
3 3 4 7
