ply
format ascii 1.0
element vertex 14
property float x
property float y
property float z
element face 12
property list uchar int vertex_indices
end_header
136.626663 2299.177 265.136688
140.180939 2301.01196 265.136688
59.0993271 2449.34766 261.917145
62.6309509 2451.22583 261.917145
45.8961143 2469.81689 265.253998
49.148777 2472.14502 265.253998
34.1227837 2484.21973 275.022675
37.2189827 2486.7522 275.022675
2.20225835 2523.23218 275.165771
5.19528627 2525.88599 275.165771
-14.1297407 2538.68408 0.0299999993
-11.6261091 2541.80371 0.0299999993
-39.5000992 2556.66846 0.0299999993
-37.1864891 2559.9314 0.0299999993
3 0 1 2
3 1 3 2
3 2 3 4
3 3 5 4
3 4 5 6
3 5 7 6
3 6 7 8
3 7 9 8
3 8 9 10
3 9 11 10
3 10 11 12
3 11 13 12
