ply
format ascii 1.0
element vertex 30
property float x
property float y
property float z
element face 56
property list uchar int vertex_indices
end_header
704.587097 -990.454041 254.962936
705.874878 -992.468933 254.962936
697.441284 -997.856812 252.581543
696.153503 -995.841919 252.581543
674.067383 -1009.95721 252.581543
667.580017 -999.804871 252.790833
676.807556 -993.904968 252.581543
675.355164 -991.634033 252.581543
666.137268 -997.522827 252.790833
658.875305 -986.168213 254.794128
690.169617 -966.164124 258.522125
697.43158 -977.518738 258.522125
688.320251 -983.340698 258.522125
689.772644 -985.622742 258.522125
698.099731 -980.301697 258.522125
704.587097 -990.454041 262.962952
705.874878 -992.468933 262.962952
697.441284 -997.856812 260.581543
696.153503 -995.841919 260.581543
674.067383 -1009.95721 260.581543
667.580017 -999.804871 260.790833
676.807556 -993.904968 260.581543
675.355164 -991.634033 260.581543
666.137268 -997.522827 260.790833
658.875305 -986.168213 262.794128
690.169617 -966.164124 266.522125
697.43158 -977.518738 266.522125
688.320251 -983.340698 266.522125
689.772644 -985.622742 266.522125
698.099731 -980.301697 266.522125
3 15 29 28
3 13 14 0
3 27 26 25
3 10 11 12
3 25 24 23
3 8 9 10
3 21 20 19
3 4 5 6
3 18 17 16
3 1 2 3
3 16 15 28
3 13 0 1
3 27 25 23
3 8 10 12
3 21 19 18
3 3 4 6
3 18 16 28
3 13 1 3
3 27 23 22
3 7 8 12
3 22 21 18
3 3 6 7
3 18 28 27
3 12 13 3
3 27 22 18
3 3 7 12
3 0 1 16
3 0 16 15
3 1 2 17
3 1 17 16
3 2 3 18
3 2 18 17
3 3 4 19
3 3 19 18
3 4 5 20
3 4 20 19
3 5 6 21
3 5 21 20
3 6 7 22
3 6 22 21
3 7 8 23
3 7 23 22
3 8 9 24
3 8 24 23
3 9 10 25
3 9 25 24
3 10 11 26
3 10 26 25
3 11 12 27
3 11 27 26
3 12 13 28
3 12 28 27
3 13 14 29
3 13 29 28
3 14 0 15
3 14 15 29
