ply
format ascii 1.0
element vertex 12
property float x
property float y
property float z
element face 10
property list uchar int vertex_indices
end_header
-3366.82275 1340.81506 274.57782
-3371.85645 1343.03113 274.57782
-3373.27856 1326.15784 268.1633
-3378.20093 1328.61157 268.1633
-3377.09155 1320.34216 268.1633
-3381.39819 1323.76294 268.1633
-3381.46509 1315.82812 268.1633
-3385.08081 1319.97253 268.1633
-3387.21704 1311.52625 278.780548
-3389.90234 1316.32617 278.780548
-3394.17578 1308.67371 278.780548
-3396.24756 1313.76855 278.780548
3 0 1 2
3 1 3 2
3 2 3 4
3 3 5 4
3 4 5 6
3 5 7 6
3 6 7 8
3 7 9 8
3 8 9 10
3 9 11 10
