ply
format ascii 1.0
element vertex 8
property float x
property float y
property float z
element face 12
property list uchar int vertex_indices
end_header
366.314026 -909.291016 290.035828
377.739563 -920.712402 284.370087
359.042358 -939.414062 285.120422
347.616821 -927.992676 284.164215
366.314026 -909.291016 293.23584
377.739563 -920.712402 287.570099
359.042358 -939.414062 288.320435
347.616821 -927.992676 287.364227
3 5 4 7
3 3 0 1
3 7 6 5
3 1 2 3
3 0 1 5
3 0 5 4
3 1 2 6
3 1 6 5
3 2 3 7
3 2 7 6
3 3 0 4
3 3 4 7
