ply
format ascii 1.0
element vertex 16
property float x
property float y
property float z
element face 14
property list uchar int vertex_indices
end_header
-2822.15405 866.180176 255.182312
-2817.35059 871.272156 255.182312
-2886.53076 926.910278 265.336487
-2881.57886 931.858032 265.336487
-2980.07007 1024.22119 263.522491
-2975.12769 1029.1781 263.522491
-2995.27905 1035.46704 263.948883
-2991.56152 1041.39844 263.948883
-3013.13232 1044.90015 263.948883
-3010.48315 1051.37952 263.948883
-3033.75732 1051.18958 268.038879
-3032.15186 1058.00305 268.038879
-3056.60547 1055.18213 268.77063
-3056.49707 1062.18127 268.77063
-3107.5144 1052.25977 262.221405
-3107.91431 1059.24829 262.221405
3 0 1 2
3 1 3 2
3 2 3 4
3 3 5 4
3 4 5 6
3 5 7 6
3 6 7 8
3 7 9 8
3 8 9 10
3 9 11 10
3 10 11 12
3 11 13 12
3 12 13 14
3 13 15 14
