ply
format ascii 1.0
element vertex 16
property float x
property float y
property float z
element face 28
property list uchar int vertex_indices
end_header
-383.239288 76.8883743 219.975067
-378.824005 79.0034409 219.975067
-377.197327 75.6082001 219.975067
-373.614746 77.3225174 227.900467
-358.58728 45.8858948 230.151062
-362.082703 44.2161026 230.151062
-360.426971 40.7540665 230.151062
-364.939087 38.5944672 230.151062
-383.239288 76.8883743 232.77507
-378.824005 79.0034409 232.77507
-377.197327 75.6082001 232.77507
-373.614746 77.3225174 240.70047
-358.58728 45.8858948 242.951065
-362.082703 44.2161026 242.951065
-360.426971 40.7540665 242.951065
-364.939087 38.5944672 242.951065
3 9 8 15
3 7 0 1
3 15 14 13
3 5 6 7
3 13 12 11
3 3 4 5
3 10 9 15
3 7 1 2
3 15 13 11
3 3 5 7
3 11 10 15
3 7 2 3
3 0 1 9
3 0 9 8
3 1 2 10
3 1 10 9
3 2 3 11
3 2 11 10
3 3 4 12
3 3 12 11
3 4 5 13
3 4 13 12
3 5 6 14
3 5 14 13
3 6 7 15
3 6 15 14
3 7 0 8
3 7 8 15
