ply
format ascii 1.0
element vertex 8
property float x
property float y
property float z
element face 12
property list uchar int vertex_indices
end_header
-800.425964 -745.918518 314.295258
-780.944458 -759.555176 314.295258
-789.097229 -771.199158 314.295258
-808.578735 -757.562561 314.24588
-800.425964 -745.918518 317.49527
-780.944458 -759.555176 317.49527
-789.097229 -771.199158 317.49527
-808.578735 -757.562561 317.445892
3 5 4 7
3 3 0 1
3 7 6 5
3 1 2 3
3 0 1 5
3 0 5 4
3 1 2 6
3 1 6 5
3 2 3 7
3 2 7 6
3 3 0 4
3 3 4 7
