ply
format ascii 1.0
element vertex 80
property float x
property float y
property float z
element face 156
property list uchar int vertex_indices
end_header
712.294495 -1220.3844 216.563828
705.758667 -1221.47534 216.563828
704.374084 -1223.35669 216.563828
706.436462 -1235.52393 216.563828
708.460144 -1235.17883 216.563828
708.866821 -1237.54993 217.818741
706.920593 -1237.87268 217.818741
708.353638 -1246.33301 217.818741
710.629089 -1245.95459 217.818741
711.084167 -1248.67078 217.818741
708.944275 -1249.03809 217.818741
710.357971 -1257.4093 217.818741
712.730225 -1259.22388 217.818741
720.234253 -1257.9325 217.818741
720.02124 -1256.67456 217.818741
722.761414 -1256.19592 217.818741
722.974426 -1257.44275 217.818741
730.672119 -1256.11804 213.977158
730.507568 -1255.14954 213.977158
733.286438 -1254.6709 213.977158
733.915833 -1258.2998 213.977158
740.906738 -1257.09766 213.977158
742.572144 -1254.45935 213.977158
740.461304 -1242.30322 213.977158
737.556519 -1242.8042 213.977158
737.140137 -1240.45532 213.977158
740.190186 -1239.93213 213.977158
739.047668 -1233.35315 220.439514
736.055725 -1233.87634 220.439514
735.232666 -1229.07849 220.439514
738.08905 -1228.57751 220.439514
736.656006 -1220.30652 220.439514
735.048706 -1219.17102 220.439514
726.092224 -1220.67383 216.563828
726.314941 -1221.9541 216.563828
723.720032 -1222.39929 216.563828
723.410156 -1220.5625 216.563828
715.38324 -1221.92065 216.563828
715.702759 -1223.81311 216.563828
712.943237 -1224.28064 216.563828
712.294495 -1220.3844 350.963837
705.758667 -1221.47534 350.963837
704.374084 -1223.35669 350.963837
706.436462 -1235.52393 350.963837
708.460144 -1235.17883 350.963837
708.866821 -1237.54993 352.21875
706.920593 -1237.87268 352.21875
708.353638 -1246.33301 352.21875
710.629089 -1245.95459 352.21875
711.084167 -1248.67078 352.21875
708.944275 -1249.03809 352.21875
710.357971 -1257.4093 352.21875
712.730225 -1259.22388 352.21875
720.234253 -1257.9325 352.21875
720.02124 -1256.67456 352.21875
722.761414 -1256.19592 352.21875
722.974426 -1257.44275 352.21875
730.672119 -1256.11804 348.377167
730.507568 -1255.14954 348.377167
733.286438 -1254.6709 348.377167
733.915833 -1258.2998 348.377167
740.906738 -1257.09766 348.377167
742.572144 -1254.45935 348.377167
740.461304 -1242.30322 348.377167
737.556519 -1242.8042 348.377167
737.140137 -1240.45532 348.377167
740.190186 -1239.93213 348.377167
739.047668 -1233.35315 354.839508
736.055725 -1233.87634 354.839508
735.232666 -1229.07849 354.839508
738.08905 -1228.57751 354.839508
736.656006 -1220.30652 354.839508
735.048706 -1219.17102 354.839508
726.092224 -1220.67383 350.963837
726.314941 -1221.9541 350.963837
723.720032 -1222.39929 350.963837
723.410156 -1220.5625 350.963837
715.38324 -1221.92065 350.963837
715.702759 -1223.81311 350.963837
712.943237 -1224.28064 350.963837
3 79 40 41
3 1 0 39
3 41 42 43
3 3 2 1
3 45 46 47
3 7 6 5
3 49 50 51
3 11 10 9
3 51 52 53
3 13 12 11
3 55 56 57
3 17 16 15
3 59 60 61
3 21 20 19
3 61 62 63
3 23 22 21
3 65 66 67
3 27 26 25
3 69 70 71
3 31 30 29
3 71 72 73
3 33 32 31
3 75 76 77
3 37 36 35
3 79 41 43
3 3 1 39
3 45 47 48
3 8 7 5
3 49 51 53
3 13 11 9
3 55 57 58
3 18 17 15
3 59 61 63
3 23 21 19
3 65 67 68
3 28 27 25
3 69 71 73
3 33 31 29
3 75 77 78
3 38 37 35
3 78 79 43
3 3 39 38
3 44 45 48
3 8 5 4
3 48 49 53
3 13 9 8
3 55 58 59
3 19 18 15
3 59 63 64
3 24 23 19
3 65 68 69
3 29 28 25
3 69 73 74
3 34 33 29
3 74 75 78
3 38 35 34
3 78 43 44
3 4 3 38
3 44 48 53
3 13 8 4
3 55 59 64
3 24 19 15
3 65 69 74
3 34 29 25
3 74 78 44
3 4 38 34
3 44 53 54
3 14 13 4
3 54 55 64
3 24 15 14
3 64 65 74
3 34 25 24
3 74 44 54
3 14 4 34
3 54 64 74
3 34 24 14
3 0 1 41
3 0 41 40
3 1 2 42
3 1 42 41
3 2 3 43
3 2 43 42
3 3 4 44
3 3 44 43
3 4 5 45
3 4 45 44
3 5 6 46
3 5 46 45
3 6 7 47
3 6 47 46
3 7 8 48
3 7 48 47
3 8 9 49
3 8 49 48
3 9 10 50
3 9 50 49
3 10 11 51
3 10 51 50
3 11 12 52
3 11 52 51
3 12 13 53
3 12 53 52
3 13 14 54
3 13 54 53
3 14 15 55
3 14 55 54
3 15 16 56
3 15 56 55
3 16 17 57
3 16 57 56
3 17 18 58
3 17 58 57
3 18 19 59
3 18 59 58
3 19 20 60
3 19 60 59
3 20 21 61
3 20 61 60
3 21 22 62
3 21 62 61
3 22 23 63
3 22 63 62
3 23 24 64
3 23 64 63
3 24 25 65
3 24 65 64
3 25 26 66
3 25 66 65
3 26 27 67
3 26 67 66
3 27 28 68
3 27 68 67
3 28 29 69
3 28 69 68
3 29 30 70
3 29 70 69
3 30 31 71
3 30 71 70
3 31 32 72
3 31 72 71
3 32 33 73
3 32 73 72
3 33 34 74
3 33 74 73
3 34 35 75
3 34 75 74
3 35 36 76
3 35 76 75
3 36 37 77
3 36 77 76
3 37 38 78
3 37 78 77
3 38 39 79
3 38 79 78
3 39 0 40
3 39 40 79
