ply
format ascii 1.0
element vertex 28
property float x
property float y
property float z
element face 26
property list uchar int vertex_indices
end_header
163.988876 174.002151 204.450333
161.541824 177.166306 204.450333
156.012558 167.83606 208.405685
153.425568 170.886887 208.405685
151.675415 163.608109 208.405685
148.54483 166.097961 208.405685
148.441437 158.324158 208.405685
144.865402 160.116379 208.405685
145.863464 152.023697 206.733704
141.982361 152.991714 206.733704
145.21582 145.470947 206.733704
141.216339 145.406891 206.733704
146.091385 139.066467 206.733704
142.199844 138.141327 206.733704
148.318207 132.441544 206.733704
144.698166 130.73999 206.733704
151.485672 127.513084 206.733704
148.46347 124.892731 206.733704
156.746643 122.751816 213.412384
154.415009 119.501663 213.412384
162.739105 119.434235 211.834274
161.261734 115.717056 211.834274
168.998627 117.905548 211.834274
168.267441 113.972946 211.834274
175.671738 117.026047 211.834274
175.750366 113.026817 211.834274
242.721802 119.396286 211.083893
242.863098 115.398781 211.083893
3 0 1 2
3 1 3 2
3 2 3 4
3 3 5 4
3 4 5 6
3 5 7 6
3 6 7 8
3 7 9 8
3 8 9 10
3 9 11 10
3 10 11 12
3 11 13 12
3 12 13 14
3 13 15 14
3 14 15 16
3 15 17 16
3 16 17 18
3 17 19 18
3 18 19 20
3 19 21 20
3 20 21 22
3 21 23 22
3 22 23 24
3 23 25 24
3 24 25 26
3 25 27 26
