ply
format ascii 1.0
element vertex 32
property float x
property float y
property float z
element face 60
property list uchar int vertex_indices
end_header
1084.89258 -106.989166 265.300934
1102.55371 -139.839539 265.85141
1096.62793 -143.023285 265.85141
1092.44495 -144.659683 265.85141
1087.98132 -145.249664 265.85141
1083.51758 -144.748734 265.85141
1079.29602 -143.201385 265.85141
1075.56812 -140.685577 260.576508
1072.55688 -137.345993 260.576508
1070.42664 -133.383011 260.576508
1069.30347 -129.030426 260.576508
1069.26477 -124.533112 260.576508
1070.29114 -120.158257 258.711029
1072.34387 -116.161888 258.711029
1075.297 -112.766647 258.711029
1078.9668 -110.172897 265.300934
1084.89258 -106.989166 273.300934
1102.55371 -139.839539 273.85141
1096.62793 -143.023285 273.85141
1092.44495 -144.659683 273.85141
1087.98132 -145.249664 273.85141
1083.51758 -144.748734 273.85141
1079.29602 -143.201385 273.85141
1075.56812 -140.685577 268.576508
1072.55688 -137.345993 268.576508
1070.42664 -133.383011 268.576508
1069.30347 -129.030426 268.576508
1069.26477 -124.533112 268.576508
1070.29114 -120.158257 266.711029
1072.34387 -116.161888 266.711029
1075.297 -112.766647 266.711029
1078.9668 -110.172897 273.300934
3 17 16 31
3 15 0 1
3 31 30 29
3 13 14 15
3 29 28 27
3 11 12 13
3 27 26 25
3 9 10 11
3 25 24 23
3 7 8 9
3 23 22 21
3 5 6 7
3 21 20 19
3 3 4 5
3 19 18 17
3 1 2 3
3 17 31 29
3 13 15 1
3 29 27 25
3 9 11 13
3 25 23 21
3 5 7 9
3 21 19 17
3 1 3 5
3 17 29 25
3 9 13 1
3 25 21 17
3 1 5 9
3 0 1 17
3 0 17 16
3 1 2 18
3 1 18 17
3 2 3 19
3 2 19 18
3 3 4 20
3 3 20 19
3 4 5 21
3 4 21 20
3 5 6 22
3 5 22 21
3 6 7 23
3 6 23 22
3 7 8 24
3 7 24 23
3 8 9 25
3 8 25 24
3 9 10 26
3 9 26 25
3 10 11 27
3 10 27 26
3 11 12 28
3 11 28 27
3 12 13 29
3 12 29 28
3 13 14 30
3 13 30 29
3 14 15 31
3 14 31 30
3 15 0 16
3 15 16 31
