ply
format ascii 1.0
element vertex 18
property float x
property float y
property float z
element face 16
property list uchar int vertex_indices
end_header
-1668.07605 1520.35962 305.812592
-1667.51953 1525.83142 305.812592
-1676.75647 1521.24268 305.812592
-1676.13232 1526.70715 305.812592
-1795.78845 1534.94763 318.073517
-1795.13855 1540.40918 318.073517
-1890.48853 1546.67908 319.669281
-1889.69556 1552.12158 319.669281
-1905.58777 1550.98999 319.669281
-1903.83789 1556.20422 319.669281
-1917.14355 1555.599 314.511017
-1914.78467 1560.5675 314.511017
-1928.26147 1561.823 314.511017
-1924.77478 1566.07654 314.511017
-2036.15784 1653.05334 307.032379
-2032.5304 1657.1875 307.032379
-2103.18091 1715.29968 319.660706
-2099.43799 1719.32971 319.660706
3 0 1 2
3 1 3 2
3 2 3 4
3 3 5 4
3 4 5 6
3 5 7 6
3 6 7 8
3 7 9 8
3 8 9 10
3 9 11 10
3 10 11 12
3 11 13 12
3 12 13 14
3 13 15 14
3 14 15 16
3 15 17 16
