ply
format ascii 1.0
element vertex 12
property float x
property float y
property float z
element face 10
property list uchar int vertex_indices
end_header
491.103882 1397.80249 245.62059
489.109528 1397.65259 245.62059
491.640411 1390.57043 245.600601
489.676819 1390.19043 245.600601
494.106415 1382.0531 245.600601
492.362 1381.07483 245.600601
502.509521 1371.28723 245.600601
500.845398 1370.17786 245.600601
506.831696 1362.6626 245.600601
506.070343 1360.81323 245.600601
527.194885 1361.25488 242.978806
527.052063 1359.25989 242.978806
3 0 1 2
3 1 3 2
3 2 3 4
3 3 5 4
3 4 5 6
3 5 7 6
3 6 7 8
3 7 9 8
3 8 9 10
3 9 11 10
