ply
format ascii 1.0
element vertex 8
property float x
property float y
property float z
element face 12
property list uchar int vertex_indices
end_header
-550.468323 -69.830719 231.57019
-542.664124 -76.1536636 231.57019
-554.583496 -90.8589706 231.57019
-562.387695 -84.5360184 231.57019
-550.468323 -69.830719 239.57019
-542.664124 -76.1536636 239.57019
-554.583496 -90.8589706 239.57019
-562.387695 -84.5360184 239.57019
3 5 4 7
3 3 0 1
3 7 6 5
3 1 2 3
3 0 1 5
3 0 5 4
3 1 2 6
3 1 6 5
3 2 3 7
3 2 7 6
3 3 0 4
3 3 4 7
