ply
format ascii 1.0
element vertex 8
property float x
property float y
property float z
element face 12
property list uchar int vertex_indices
end_header
-797.182251 -776.954407 322.203125
-784.836914 -787.006531 322.203125
-800.813293 -806.621033 323.476166
-813.148987 -796.568909 323.185486
-797.182251 -776.954407 325.403137
-784.836914 -787.006531 325.403137
-800.813293 -806.621033 326.676178
-813.148987 -796.568909 326.385498
3 5 4 7
3 3 0 1
3 7 6 5
3 1 2 3
3 0 1 5
3 0 5 4
3 1 2 6
3 1 6 5
3 2 3 7
3 2 7 6
3 3 0 4
3 3 4 7
