ply
format ascii 1.0
element vertex 30
property float x
property float y
property float z
element face 28
property list uchar int vertex_indices
end_header
177.83316 2245.57886 266.490356
183.329681 2245.3833 266.490356
178.431961 2262.31177 266.730164
183.931534 2262.38037 266.730164
177.536316 2270.68555 266.730164
182.987488 2271.41675 266.730164
176.305542 2278.10815 266.730164
181.662033 2279.35645 266.730164
173.52594 2287.9458 267.099976
178.670776 2289.89014 267.099976
163.220978 2312.6626 267.099976
168.3517 2314.6438 267.099976
160.235611 2322.41577 266.538971
165.566193 2323.77026 266.538971
158.911926 2329.63232 264.401398
164.372391 2330.29053 264.401398
158.535034 2336.58618 264.401398
164.032761 2336.42798 264.401398
159.356659 2344.94531 266.538971
164.760376 2343.92065 266.538971
161.582108 2352.52515 266.353455
166.659729 2350.41162 266.353455
165.39328 2359.46851 266.353455
169.974991 2356.42578 266.353455
170.144043 2365.39624 266.353455
173.977341 2361.45215 266.353455
177.864105 2371.48975 266.353455
180.297134 2366.55713 266.353455
352.069794 2455.28076 254.48584
354.453796 2450.32422 254.48584
3 0 1 2
3 1 3 2
3 2 3 4
3 3 5 4
3 4 5 6
3 5 7 6
3 6 7 8
3 7 9 8
3 8 9 10
3 9 11 10
3 10 11 12
3 11 13 12
3 12 13 14
3 13 15 14
3 14 15 16
3 15 17 16
3 16 17 18
3 17 19 18
3 18 19 20
3 19 21 20
3 20 21 22
3 21 23 22
3 22 23 24
3 23 25 24
3 24 25 26
3 25 27 26
3 26 27 28
3 27 29 28
