ply
format ascii 1.0
element vertex 54
property float x
property float y
property float z
element face 52
property list uchar int vertex_indices
end_header
-3395.10181 -554.328857 195.624268
-3394.39185 -561.292786 195.624268
-3374.23633 -552.208862 198.913559
-3373.09912 -559.115906 198.913559
-3355.1582 -547.764221 204.806519
-3353.33032 -554.521362 204.806519
-3338.20068 -542.46344 204.806519
-3335.64355 -548.979675 204.806519
-3324.56592 -535.784241 207.568771
-3321.00488 -541.810669 207.568771
-3311.47046 -526.668945 207.568771
-3306.98877 -532.046204 207.568771
-3278.25708 -497.131378 213.217911
-3273.60498 -502.361786 213.217911
-3231.95581 -455.94397 209.415894
-3227.4563 -461.306366 209.415894
-3222.63062 -450.692474 212.158249
-3220.06934 -457.207031 212.158249
-3207.46094 -446.148224 212.158249
-3205.74561 -452.934784 212.158249
-3178.79614 -439.585602 211.461075
-3177.32129 -446.428497 211.461075
-3141.72778 -431.981201 210.562683
-3140.4917 -438.871185 210.562683
-3131.33228 -431.136444 210.562683
-3131.46387 -438.135193 210.562683
-3120.15039 -432.409088 210.562683
-3121.84741 -439.200256 210.562683
-3110.76855 -436.292175 210.554443
-3114.07153 -442.463867 210.554443
-3103.67676 -441.417664 210.554443
-3109.11841 -445.820923 210.554443
-3069.43481 -486.938934 207.736923
-3075.02002 -491.15863 207.736923
-3055.3645 -505.386505 206.844223
-3060.52661 -510.11441 206.844223
-3051.64893 -507.2724 206.844223
-3053.16504 -514.106201 206.844223
-3045.92944 -507.412506 206.844223
-3043.46973 -513.966125 206.844223
-2993.63037 -484.891907 199.753143
-2991.00269 -491.380035 199.753143
-2984.37354 -482.570526 196.222382
-2983.19873 -489.471252 196.222382
-2976.646 -481.975708 196.222382
-2976.73145 -488.975159 196.222382
-2968.56787 -482.760925 196.222382
-2969.87891 -489.637085 196.222382
-2959.92749 -485.212341 196.222382
-2962.85303 -491.571686 196.222382
-2952.77612 -490.546265 194.992035
-2958.71436 -494.252747 194.992035
-2925.73364 -538.915344 191.152039
-2931.84375 -542.330872 191.152039
3 0 1 2
3 1 3 2
3 2 3 4
3 3 5 4
3 4 5 6
3 5 7 6
3 6 7 8
3 7 9 8
3 8 9 10
3 9 11 10
3 10 11 12
3 11 13 12
3 12 13 14
3 13 15 14
3 14 15 16
3 15 17 16
3 16 17 18
3 17 19 18
3 18 19 20
3 19 21 20
3 20 21 22
3 21 23 22
3 22 23 24
3 23 25 24
3 24 25 26
3 25 27 26
3 26 27 28
3 27 29 28
3 28 29 30
3 29 31 30
3 30 31 32
3 31 33 32
3 32 33 34
3 33 35 34
3 34 35 36
3 35 37 36
3 36 37 38
3 37 39 38
3 38 39 40
3 39 41 40
3 40 41 42
3 41 43 42
3 42 43 44
3 43 45 44
3 44 45 46
3 45 47 46
3 46 47 48
3 47 49 48
3 48 49 50
3 49 51 50
3 50 51 52
3 51 53 52
