ply
format ascii 1.0
element vertex 72
property float x
property float y
property float z
element face 140
property list uchar int vertex_indices
end_header
-3011.94336 -524.259155 206.372223
-3010.79102 -537.18335 200.50827
-3001.54419 -536.370728 200.50827
-3001.71826 -534.389221 200.50827
-2993.29443 -532.263 200.50827
-2992.71362 -533.487549 200.50827
-2998.96851 -537.550659 200.50827
-2998.33911 -538.708435 200.50827
-3001.45703 -540.545166 200.50827
-3001.96045 -543.406067 200.50827
-2998.94922 -548.215088 200.50827
-2993.35254 -544.719666 200.50827
-2994.29175 -543.216858 200.50827
-2974.90723 -531.149841 196.964645
-2973.95825 -532.652649 196.964645
-2968.37134 -529.134949 196.964645
-2971.4021 -524.325928 198.719864
-2974.19067 -523.535583 198.719864
-2977.2019 -525.539307 198.719864
-2977.97656 -524.470642 198.719864
-2984.34766 -528.333435 196.964645
-2985.19971 -527.287048 200.50827
-2979.62256 -520.619019 198.719864
-2977.91846 -521.632019 198.719864
-2973.15454 -513.661499 198.719864
-2984.29932 -507.004608 198.719864
-2986.26489 -510.310822 207.609039
-2987.38794 -509.642883 207.609039
-2990.9707 -515.643005 207.609039
-2989.74097 -516.377747 207.609039
-2990.90283 -518.303528 207.609039
-2998.89111 -523.223877 207.609039
-3001.13745 -523.424255 207.609039
-3001.26318 -521.999329 207.609039
-3008.2251 -522.622742 207.609039
-3008.10889 -523.914062 207.609039
-3011.94336 -524.259155 214.372223
-3010.79102 -537.18335 208.50827
-3001.54419 -536.370728 208.50827
-3001.71826 -534.389221 208.50827
-2993.29443 -532.263 208.50827
-2992.71362 -533.487549 208.50827
-2998.96851 -537.550659 208.50827
-2998.33911 -538.708435 208.50827
-3001.45703 -540.545166 208.50827
-3001.96045 -543.406067 208.50827
-2998.94922 -548.215088 208.50827
-2993.35254 -544.719666 208.50827
-2994.29175 -543.216858 208.50827
-2974.90723 -531.149841 204.964645
-2973.95825 -532.652649 204.964645
-2968.37134 -529.134949 204.964645
-2971.4021 -524.325928 206.719864
-2974.19067 -523.535583 206.719864
-2977.2019 -525.539307 206.719864
-2977.97656 -524.470642 206.719864
-2984.34766 -528.333435 204.964645
-2985.19971 -527.287048 208.50827
-2979.62256 -520.619019 206.719864
-2977.91846 -521.632019 206.719864
-2973.15454 -513.661499 206.719864
-2984.29932 -507.004608 206.719864
-2986.26489 -510.310822 215.609039
-2987.38794 -509.642883 215.609039
-2990.9707 -515.643005 215.609039
-2989.74097 -516.377747 215.609039
-2990.90283 -518.303528 215.609039
-2998.89111 -523.223877 215.609039
-3001.13745 -523.424255 215.609039
-3001.26318 -521.999329 215.609039
-3008.2251 -522.622742 215.609039
-3008.10889 -523.914062 215.609039
3 71 36 37
3 1 0 35
3 37 38 39
3 3 2 1
3 41 42 43
3 7 6 5
3 43 44 45
3 9 8 7
3 45 46 47
3 11 10 9
3 49 50 51
3 15 14 13
3 51 52 53
3 17 16 15
3 54 55 56
3 20 19 18
3 58 59 60
3 24 23 22
3 60 61 62
3 26 25 24
3 62 63 64
3 28 27 26
3 68 69 70
3 34 33 32
3 71 37 39
3 3 1 35
3 41 43 45
3 9 7 5
3 45 47 48
3 12 11 9
3 49 51 53
3 17 15 13
3 58 60 62
3 26 24 22
3 62 64 65
3 29 28 26
3 68 70 71
3 35 34 32
3 71 39 40
3 4 3 35
3 41 45 48
3 12 9 5
3 48 49 53
3 17 13 12
3 57 58 62
3 26 22 21
3 68 71 40
3 4 35 32
3 48 53 54
3 18 17 12
3 57 62 65
3 29 26 21
3 67 68 40
3 4 32 31
3 41 48 54
3 18 12 5
3 57 65 66
3 30 29 21
3 66 67 40
3 4 31 30
3 40 41 54
3 18 5 4
3 57 66 40
3 4 30 21
3 40 54 56
3 20 18 4
3 56 57 40
3 4 21 20
3 0 1 37
3 0 37 36
3 1 2 38
3 1 38 37
3 2 3 39
3 2 39 38
3 3 4 40
3 3 40 39
3 4 5 41
3 4 41 40
3 5 6 42
3 5 42 41
3 6 7 43
3 6 43 42
3 7 8 44
3 7 44 43
3 8 9 45
3 8 45 44
3 9 10 46
3 9 46 45
3 10 11 47
3 10 47 46
3 11 12 48
3 11 48 47
3 12 13 49
3 12 49 48
3 13 14 50
3 13 50 49
3 14 15 51
3 14 51 50
3 15 16 52
3 15 52 51
3 16 17 53
3 16 53 52
3 17 18 54
3 17 54 53
3 18 19 55
3 18 55 54
3 19 20 56
3 19 56 55
3 20 21 57
3 20 57 56
3 21 22 58
3 21 58 57
3 22 23 59
3 22 59 58
3 23 24 60
3 23 60 59
3 24 25 61
3 24 61 60
3 25 26 62
3 25 62 61
3 26 27 63
3 26 63 62
3 27 28 64
3 27 64 63
3 28 29 65
3 28 65 64
3 29 30 66
3 29 66 65
3 30 31 67
3 30 67 66
3 31 32 68
3 31 68 67
3 32 33 69
3 32 69 68
3 33 34 70
3 33 70 69
3 34 35 71
3 34 71 70
3 35 0 36
3 35 36 71
