ply
format ascii 1.0
element vertex 12
property float x
property float y
property float z
element face 10
property list uchar int vertex_indices
end_header
55.8684731 -1146.29272 223.738281
58.6579132 -1149.15967 223.738281
69.6933746 -1132.88245 226.464035
72.9320602 -1135.22998 226.464035
75.8301392 -1119.00989 226.464035
79.7506866 -1119.80322 226.464035
75.2544403 -1105.59656 228.462173
79.106369 -1104.51831 228.462173
66.0092392 -1084.55676 228.462173
69.5285034 -1082.65552 228.462173
50.0093155 -1058.9624 229.426453
53.4013863 -1056.84253 229.426453
3 0 1 2
3 1 3 2
3 2 3 4
3 3 5 4
3 4 5 6
3 5 7 6
3 6 7 8
3 7 9 8
3 8 9 10
3 9 11 10
