ply
format ascii 1.0
element vertex 8
property float x
property float y
property float z
element face 12
property list uchar int vertex_indices
end_header
-2762.54712 -1400.08752 346.098755
-2749.01099 -1400.43262 346.098755
-2749.52417 -1420.64819 346.098755
-2763.0603 -1420.3031 346.098755
-2762.54712 -1400.08752 354.098755
-2749.01099 -1400.43262 354.098755
-2749.52417 -1420.64819 354.098755
-2763.0603 -1420.3031 354.098755
3 5 4 7
3 3 0 1
3 7 6 5
3 1 2 3
3 0 1 5
3 0 5 4
3 1 2 6
3 1 6 5
3 2 3 7
3 2 7 6
3 3 0 4
3 3 4 7
