ply
format ascii 1.0
element vertex 14
property float x
property float y
property float z
element face 24
property list uchar int vertex_indices
end_header
1302.45203 -1028.39172 222.18927
1328.85657 -1019.26355 232.027206
1331.50964 -1026.94458 220.506195
1335.17932 -1037.54224 220.506195
1329.44727 -1039.52368 220.506195
1325.78723 -1028.92603 220.506195
1305.1051 -1036.07275 222.18927
1302.45203 -1028.39172 230.18927
1328.85657 -1019.26355 240.027206
1331.50964 -1026.94458 228.506195
1335.17932 -1037.54224 228.506195
1329.44727 -1039.52368 228.506195
1325.78723 -1028.92603 228.506195
1305.1051 -1036.07275 230.18927
3 8 7 13
3 6 0 1
3 12 11 10
3 3 4 5
3 9 8 13
3 6 1 2
3 12 10 9
3 2 3 5
3 9 13 12
3 5 6 2
3 0 1 8
3 0 8 7
3 1 2 9
3 1 9 8
3 2 3 10
3 2 10 9
3 3 4 11
3 3 11 10
3 4 5 12
3 4 12 11
3 5 6 13
3 5 13 12
3 6 0 7
3 6 7 13
