ply
format ascii 1.0
element vertex 8
property float x
property float y
property float z
element face 12
property list uchar int vertex_indices
end_header
-1000.92462 -919.543518 262.700134
-993.401184 -935.662598 259.831146
-1012.88269 -944.746277 260.055115
-1020.39642 -928.638306 260.055115
-1000.92462 -919.543518 265.900146
-993.401184 -935.662598 263.031158
-1012.88269 -944.746277 263.255127
-1020.39642 -928.638306 263.255127
3 5 4 7
3 3 0 1
3 7 6 5
3 1 2 3
3 0 1 5
3 0 5 4
3 1 2 6
3 1 6 5
3 2 3 7
3 2 7 6
3 3 0 4
3 3 4 7
