ply
format ascii 1.0
element vertex 80
property float x
property float y
property float z
element face 156
property list uchar int vertex_indices
end_header
412.800415 -835.26355 296.310852
412.9263 -841.976074 296.310852
402.769196 -842.154236 293.395599
402.836975 -846.050415 293.395599
436.300201 -845.471558 285.19458
436.43576 -853.575562 285.19458
433.085571 -853.631226 285.19458
433.22113 -861.690796 285.19458
437.084503 -861.623962 285.19458
437.220062 -869.071289 280.494904
433.347015 -869.138062 280.494904
433.424469 -873.557434 280.494904
417.612701 -873.835754 289.990326
417.535248 -869.405212 289.990326
409.430847 -869.549927 289.990326
409.295319 -862.11377 296.310852
413.458832 -862.035889 296.310852
413.313599 -853.976318 296.310852
407.261963 -854.087646 296.310852
407.349091 -859.119324 296.310852
407.397491 -861.390198 296.310852
400.987579 -861.501526 293.395599
400.948853 -859.230652 293.395599
392.980042 -859.375366 293.395599
393.018768 -861.813232 293.395599
388.91333 -861.891174 293.395599
388.864899 -859.442139 293.395599
382.813263 -859.553467 293.395599
382.716431 -854.510681 293.395599
381.128479 -854.532959 293.395599
380.99292 -846.428894 293.395599
392.612091 -846.228516 293.395599
392.544312 -842.332336 293.395599
381.883728 -842.510437 293.395599
381.641663 -828.250427 290.729218
396.572296 -827.994385 290.729218
396.707855 -835.541809 293.395599
399.825684 -835.486145 293.395599
399.690125 -827.860779 290.729218
412.674561 -827.638123 286.877991
412.800415 -835.26355 304.310852
412.9263 -841.976074 304.310852
402.769196 -842.154236 301.395599
402.836975 -846.050415 301.395599
436.300201 -845.471558 293.19458
436.43576 -853.575562 293.19458
433.085571 -853.631226 293.19458
433.22113 -861.690796 293.19458
437.084503 -861.623962 293.19458
437.220062 -869.071289 288.494904
433.347015 -869.138062 288.494904
433.424469 -873.557434 288.494904
417.612701 -873.835754 297.990326
417.535248 -869.405212 297.990326
409.430847 -869.549927 297.990326
409.295319 -862.11377 304.310852
413.458832 -862.035889 304.310852
413.313599 -853.976318 304.310852
407.261963 -854.087646 304.310852
407.349091 -859.119324 304.310852
407.397491 -861.390198 304.310852
400.987579 -861.501526 301.395599
400.948853 -859.230652 301.395599
392.980042 -859.375366 301.395599
393.018768 -861.813232 301.395599
388.91333 -861.891174 301.395599
388.864899 -859.442139 301.395599
382.813263 -859.553467 301.395599
382.716431 -854.510681 301.395599
381.128479 -854.532959 301.395599
380.99292 -846.428894 301.395599
392.612091 -846.228516 301.395599
392.544312 -842.332336 301.395599
381.883728 -842.510437 301.395599
381.641663 -828.250427 298.729218
396.572296 -827.994385 298.729218
396.707855 -835.541809 301.395599
399.825684 -835.486145 301.395599
399.690125 -827.860779 298.729218
412.674561 -827.638123 294.877991
3 40 79 78
3 38 39 0
3 76 75 74
3 34 35 36
3 74 73 72
3 32 33 34
3 71 70 69
3 29 30 31
3 68 67 66
3 26 27 28
3 66 65 64
3 24 25 26
3 62 61 60
3 20 21 22
3 56 55 54
3 14 15 16
3 53 52 51
3 11 12 13
3 50 49 48
3 8 9 10
3 46 45 44
3 4 5 6
3 42 41 40
3 0 1 2
3 40 78 77
3 37 38 0
3 76 74 72
3 32 34 36
3 71 69 68
3 28 29 31
3 68 66 64
3 24 26 28
3 62 60 59
3 19 20 22
3 56 54 53
3 13 14 16
3 53 51 50
3 10 11 13
3 50 48 47
3 7 8 10
3 46 44 43
3 3 4 6
3 42 40 77
3 37 0 2
3 77 76 72
3 32 36 37
3 71 68 64
3 24 28 31
3 62 59 58
3 18 19 22
3 57 56 53
3 13 16 17
3 53 50 47
3 7 10 13
3 47 46 43
3 3 6 7
3 43 42 77
3 37 2 3
3 77 72 71
3 31 32 37
3 71 64 63
3 23 24 31
3 63 62 58
3 18 22 23
3 57 53 47
3 7 13 17
3 43 77 71
3 31 37 3
3 71 63 58
3 18 23 31
3 57 47 43
3 3 7 17
3 43 71 58
3 18 31 3
3 58 57 43
3 3 17 18
3 0 1 41
3 0 41 40
3 1 2 42
3 1 42 41
3 2 3 43
3 2 43 42
3 3 4 44
3 3 44 43
3 4 5 45
3 4 45 44
3 5 6 46
3 5 46 45
3 6 7 47
3 6 47 46
3 7 8 48
3 7 48 47
3 8 9 49
3 8 49 48
3 9 10 50
3 9 50 49
3 10 11 51
3 10 51 50
3 11 12 52
3 11 52 51
3 12 13 53
3 12 53 52
3 13 14 54
3 13 54 53
3 14 15 55
3 14 55 54
3 15 16 56
3 15 56 55
3 16 17 57
3 16 57 56
3 17 18 58
3 17 58 57
3 18 19 59
3 18 59 58
3 19 20 60
3 19 60 59
3 20 21 61
3 20 61 60
3 21 22 62
3 21 62 61
3 22 23 63
3 22 63 62
3 23 24 64
3 23 64 63
3 24 25 65
3 24 65 64
3 25 26 66
3 25 66 65
3 26 27 67
3 26 67 66
3 27 28 68
3 27 68 67
3 28 29 69
3 28 69 68
3 29 30 70
3 29 70 69
3 30 31 71
3 30 71 70
3 31 32 72
3 31 72 71
3 32 33 73
3 32 73 72
3 33 34 74
3 33 74 73
3 34 35 75
3 34 75 74
3 35 36 76
3 35 76 75
3 36 37 77
3 36 77 76
3 37 38 78
3 37 78 77
3 38 39 79
3 38 79 78
3 39 0 40
3 39 40 79
