ply
format ascii 1.0
element vertex 8
property float x
property float y
property float z
element face 12
property list uchar int vertex_indices
end_header
-2035.99023 -654.102173 251.643082
-2023.52869 -652.93335 251.643082
-2022.02783 -668.918823 251.643082
-2034.48938 -670.087646 251.643082
-2035.99023 -654.102173 254.843079
-2023.52869 -652.93335 254.843079
-2022.02783 -668.918823 254.843079
-2034.48938 -670.087646 254.843079
3 5 4 7
3 3 0 1
3 7 6 5
3 1 2 3
3 0 1 5
3 0 5 4
3 1 2 6
3 1 6 5
3 2 3 7
3 2 7 6
3 3 0 4
3 3 4 7
