ply
format ascii 1.0
element vertex 18
property float x
property float y
property float z
element face 16
property list uchar int vertex_indices
end_header
2376.12671 -2293.70312 222.758179
2368.72046 -2290.67847 222.758179
2373.17529 -2300.89624 222.758179
2365.55249 -2298.46875 222.758179
2342.9668 -2397.86621 216.161682
2335.26367 -2395.70679 216.161682
2335.49561 -2435.1333 214.697144
2327.55249 -2434.18164 214.697144
2318.75317 -2600.33154 0.0299999993
2310.79297 -2599.5354 0.0299999993
2292.65991 -2863.50952 0.0299999993
2284.69678 -2862.74268 0.0299999993
2291.06787 -2887.78833 0.0299999993
2283.07422 -2887.4668 0.0299999993
2290.54785 -2916.0415 0.0299999993
2282.54834 -2916.12012 0.0299999993
2292.1062 -2992.92163 0.0299999993
2284.10791 -2993.08374 0.0299999993
3 0 1 2
3 1 3 2
3 2 3 4
3 3 5 4
3 4 5 6
3 5 7 6
3 6 7 8
3 7 9 8
3 8 9 10
3 9 11 10
3 10 11 12
3 11 13 12
3 12 13 14
3 13 15 14
3 14 15 16
3 15 17 16
