ply
format ascii 1.0
element vertex 42
property float x
property float y
property float z
element face 40
property list uchar int vertex_indices
end_header
2768.3064 2229.77661 265.19693
2761.86182 2232.50977 265.19693
2751.62695 2190.45898 267.992218
2745.05859 2192.87964 267.992218
2750.65186 2182.47778 267.992218
2743.65186 2182.49316 267.992218
2751.62866 2175.00757 267.992218
2744.97925 2172.82007 267.992218
2772.90381 2115.39697 265.799957
2766.36597 2112.89575 265.799957
2777.41675 2107.3877 268.608154
2771.55518 2103.56128 268.608154
2790.44678 2088.66528 268.755402
2784.47461 2085.01416 268.755402
2794.82739 2078.7666 268.755402
2788.22754 2076.43359 268.755402
2797.05933 2070.00244 272.038116
2790.13965 2068.94531 272.038116
2797.4917 2061.25171 272.038116
2790.50146 2061.62158 272.038116
2795.01001 2030.05469 273.345947
2788.06421 2030.92493 273.345947
2792.50024 2022.76453 273.345947
2786.17798 2025.76953 273.345947
2788.64795 2016.41748 273.345947
2783.03955 2020.60608 273.345947
2778.4812 2003.88037 269.740814
2772.79517 2007.96277 269.740814
2776.70044 2000.02673 269.740814
2770.08325 2002.30981 269.740814
2775.65137 1995.44434 269.740814
2768.71167 1996.36133 269.740814
2772.77759 1969.80127 263.698273
2765.83374 1970.68604 263.698273
2771.46533 1962.97595 263.698273
2764.76416 1964.99915 263.698273
2768.94385 1957.21667 263.698273
2762.83154 1960.6283 263.698273
2764.19971 1950.07104 263.698273
2759.26807 1955.03894 263.698273
2741.98584 1930.27161 264.501404
2737.3291 1935.49805 264.501404
3 0 1 2
3 1 3 2
3 2 3 4
3 3 5 4
3 4 5 6
3 5 7 6
3 6 7 8
3 7 9 8
3 8 9 10
3 9 11 10
3 10 11 12
3 11 13 12
3 12 13 14
3 13 15 14
3 14 15 16
3 15 17 16
3 16 17 18
3 17 19 18
3 18 19 20
3 19 21 20
3 20 21 22
3 21 23 22
3 22 23 24
3 23 25 24
3 24 25 26
3 25 27 26
3 26 27 28
3 27 29 28
3 28 29 30
3 29 31 30
3 30 31 32
3 31 33 32
3 32 33 34
3 33 35 34
3 34 35 36
3 35 37 36
3 36 37 38
3 37 39 38
3 38 39 40
3 39 41 40
