ply
format ascii 1.0
element vertex 14
property float x
property float y
property float z
element face 12
property list uchar int vertex_indices
end_header
-826.081665 -2493.09863 194.221466
-830.01947 -2483.90674 194.221466
-887.841431 -2519.5498 194.114471
-891.326172 -2510.17651 194.114471
-918.423035 -2527.37378 184.331528
-920.447754 -2517.58105 184.331528
-958.61792 -2534.2312 179.887283
-959.999207 -2524.3269 179.887283
-996.776855 -2538.29834 188.820297
-997.423035 -2528.31934 188.820297
-1043.83813 -2539.74341 187.139969
-1043.60559 -2529.74609 187.139969
-1150.93933 -2534.72998 194.713989
-1150.47168 -2524.74097 194.713989
3 0 1 2
3 1 3 2
3 2 3 4
3 3 5 4
3 4 5 6
3 5 7 6
3 6 7 8
3 7 9 8
3 8 9 10
3 9 11 10
3 10 11 12
3 11 13 12
