ply
format ascii 1.0
element vertex 36
property float x
property float y
property float z
element face 68
property list uchar int vertex_indices
end_header
-895.344971 -255.177673 266.387573
-895.238464 -264.906982 266.387573
-911.418152 -265.096222 266.387573
-911.205139 -284.399048 256.126923
-900.602661 -284.28772 256.126923
-900.680115 -276.807037 266.387573
-882.883423 -276.606659 257.078644
-882.738159 -289.263702 253.336426
-898.666138 -289.441803 256.126923
-898.578979 -297.501343 256.126923
-911.059937 -297.646057 256.126923
-915.097595 -297.690582 257.073273
-915.465515 -265.140778 258.616455
-918.612366 -265.174164 258.616455
-918.718872 -255.433701 258.616455
-902.684448 -255.2556 266.387573
-902.752197 -249.333389 266.387573
-895.412781 -249.255478 266.387573
-895.344971 -255.177673 274.387573
-895.238464 -264.906982 274.387573
-911.418152 -265.096222 274.387573
-911.205139 -284.399048 264.126923
-900.602661 -284.28772 264.126923
-900.680115 -276.807037 274.387573
-882.883423 -276.606659 265.078644
-882.738159 -289.263702 261.336426
-898.666138 -289.441803 264.126923
-898.578979 -297.501343 264.126923
-911.059937 -297.646057 264.126923
-915.097595 -297.690582 265.073273
-915.465515 -265.140778 266.616455
-918.612366 -265.174164 266.616455
-918.718872 -255.433701 266.616455
-902.684448 -255.2556 274.387573
-902.752197 -249.333389 274.387573
-895.412781 -249.255478 274.387573
3 19 18 35
3 17 0 1
3 35 34 33
3 15 16 17
3 33 32 31
3 13 14 15
3 30 29 28
3 10 11 12
3 28 27 26
3 8 9 10
3 26 25 24
3 6 7 8
3 24 23 22
3 4 5 6
3 20 19 35
3 17 1 2
3 33 31 30
3 12 13 15
3 28 26 24
3 6 8 10
3 20 35 33
3 15 17 2
3 28 24 22
3 4 6 10
3 20 33 30
3 12 15 2
3 28 22 21
3 3 4 10
3 21 20 30
3 12 2 3
3 30 28 21
3 3 10 12
3 0 1 19
3 0 19 18
3 1 2 20
3 1 20 19
3 2 3 21
3 2 21 20
3 3 4 22
3 3 22 21
3 4 5 23
3 4 23 22
3 5 6 24
3 5 24 23
3 6 7 25
3 6 25 24
3 7 8 26
3 7 26 25
3 8 9 27
3 8 27 26
3 9 10 28
3 9 28 27
3 10 11 29
3 10 29 28
3 11 12 30
3 11 30 29
3 12 13 31
3 12 31 30
3 13 14 32
3 13 32 31
3 14 15 33
3 14 33 32
3 15 16 34
3 15 34 33
3 16 17 35
3 16 35 34
3 17 0 18
3 17 18 35
