ply
format ascii 1.0
element vertex 22
property float x
property float y
property float z
element face 40
property list uchar int vertex_indices
end_header
2293.80054 2411.24707 210.837326
2282.59766 2395.94043 218.788788
2308.34375 2377.08301 210.689606
2326.94409 2372.00684 207.355392
2357.43481 2375.05688 210.785934
2355.52734 2394.09253 212.695236
2330.02319 2391.54346 212.239029
2327.64136 2394.53784 212.239029
2323.71973 2396.6084 212.239029
2319.3335 2396.99805 212.239029
2315.25732 2395.53979 212.239029
2293.80054 2411.24707 218.837326
2282.59766 2395.94043 226.788788
2308.34375 2377.08301 218.689606
2326.94409 2372.00684 215.355392
2357.43481 2375.05688 218.785934
2355.52734 2394.09253 220.695236
2330.02319 2391.54346 220.239029
2327.64136 2394.53784 220.239029
2323.71973 2396.6084 220.239029
2319.3335 2396.99805 220.239029
2315.25732 2395.53979 220.239029
3 21 11 12
3 1 0 10
3 12 13 14
3 3 2 1
3 14 15 16
3 5 4 3
3 17 18 19
3 8 7 6
3 19 20 21
3 10 9 8
3 21 12 14
3 3 1 10
3 14 16 17
3 6 5 3
3 17 19 21
3 10 8 6
3 21 14 17
3 6 3 10
3 0 1 12
3 0 12 11
3 1 2 13
3 1 13 12
3 2 3 14
3 2 14 13
3 3 4 15
3 3 15 14
3 4 5 16
3 4 16 15
3 5 6 17
3 5 17 16
3 6 7 18
3 6 18 17
3 7 8 19
3 7 19 18
3 8 9 20
3 8 20 19
3 9 10 21
3 9 21 20
3 10 0 11
3 10 11 21
