ply
format ascii 1.0
element vertex 36
property float x
property float y
property float z
element face 68
property list uchar int vertex_indices
end_header
939.197693 -461.419281 291.331482
943.167603 -467.052063 297.962585
939.594666 -469.389771 289.555969
943.099792 -474.388 297.962585
944.571594 -473.375 297.962585
950.43927 -481.968872 297.962585
949.093384 -482.937347 297.962585
952.036865 -487.111816 297.962585
953.983093 -485.753723 297.962585
966.522156 -503.6539 293.68515
975.526978 -497.753967 289.224457
945.578552 -456.810669 297.990448
945.152527 -457.111237 297.990448
944.213318 -455.78653 297.990448
941.937866 -455.508209 297.990448
939.100891 -457.54538 291.331482
938.723267 -459.827423 291.331482
939.60437 -461.074188 291.331482
939.197693 -461.419281 299.331482
943.167603 -467.052063 305.962585
939.594666 -469.389771 297.555969
943.099792 -474.388 305.962585
944.571594 -473.375 305.962585
950.43927 -481.968872 305.962585
949.093384 -482.937347 305.962585
952.036865 -487.111816 305.962585
953.983093 -485.753723 305.962585
966.522156 -503.6539 301.68515
975.526978 -497.753967 297.224457
945.578552 -456.810669 305.990448
945.152527 -457.111237 305.990448
944.213318 -455.78653 305.990448
941.937866 -455.508209 305.990448
939.100891 -457.54538 299.331482
938.723267 -459.827423 299.331482
939.60437 -461.074188 299.331482
3 35 18 19
3 1 0 17
3 19 20 21
3 3 2 1
3 23 24 25
3 7 6 5
3 26 27 28
3 10 9 8
3 28 29 30
3 12 11 10
3 30 31 32
3 14 13 12
3 32 33 34
3 16 15 14
3 19 21 22
3 4 3 1
3 23 25 26
3 8 7 5
3 26 28 30
3 12 10 8
3 30 32 34
3 16 14 12
3 19 22 23
3 5 4 1
3 23 26 30
3 12 8 5
3 30 34 35
3 17 16 12
3 19 23 30
3 12 5 1
3 30 35 19
3 1 17 12
3 0 1 19
3 0 19 18
3 1 2 20
3 1 20 19
3 2 3 21
3 2 21 20
3 3 4 22
3 3 22 21
3 4 5 23
3 4 23 22
3 5 6 24
3 5 24 23
3 6 7 25
3 6 25 24
3 7 8 26
3 7 26 25
3 8 9 27
3 8 27 26
3 9 10 28
3 9 28 27
3 10 11 29
3 10 29 28
3 11 12 30
3 11 30 29
3 12 13 31
3 12 31 30
3 13 14 32
3 13 32 31
3 14 15 33
3 14 33 32
3 15 16 34
3 15 34 33
3 16 17 35
3 16 35 34
3 17 0 18
3 17 18 35
