ply
format ascii 1.0
element vertex 8
property float x
property float y
property float z
element face 12
property list uchar int vertex_indices
end_header
1102.20508 -1045.73535 236.621582
1111.25842 -1044.18799 237.923569
1114.1438 -1061.0863 227.648834
1105.09058 -1062.63354 227.648834
1102.20508 -1045.73535 244.621582
1111.25842 -1044.18799 245.923569
1114.1438 -1061.0863 235.648834
1105.09058 -1062.63354 235.648834
3 5 4 7
3 3 0 1
3 7 6 5
3 1 2 3
3 0 1 5
3 0 5 4
3 1 2 6
3 1 6 5
3 2 3 7
3 2 7 6
3 3 0 4
3 3 4 7
