ply
format ascii 1.0
element vertex 16
property float x
property float y
property float z
element face 28
property list uchar int vertex_indices
end_header
944.19397 -493.234406 297.962585
949.780823 -501.293945 293.68515
946.527466 -503.542572 293.68515
950.226257 -508.885925 293.68515
953.247253 -506.781982 293.68515
955.14502 -509.520447 293.68515
962.271484 -504.57785 293.68515
951.088013 -488.458801 297.962585
944.19397 -493.234406 305.962585
949.780823 -501.293945 301.68515
946.527466 -503.542572 301.68515
950.226257 -508.885925 301.68515
953.247253 -506.781982 301.68515
955.14502 -509.520447 301.68515
962.271484 -504.57785 301.68515
951.088013 -488.458801 305.962585
3 14 15 8
3 0 7 6
3 9 10 11
3 3 2 1
3 12 13 14
3 6 5 4
3 14 8 9
3 1 0 6
3 9 11 12
3 4 3 1
3 12 14 9
3 1 6 4
3 0 1 9
3 0 9 8
3 1 2 10
3 1 10 9
3 2 3 11
3 2 11 10
3 3 4 12
3 3 12 11
3 4 5 13
3 4 13 12
3 5 6 14
3 5 14 13
3 6 7 15
3 6 15 14
3 7 0 8
3 7 8 15
