ply
format ascii 1.0
element vertex 8
property float x
property float y
property float z
element face 12
property list uchar int vertex_indices
end_header
2245.6582 7.92594767 253.972885
2261.50879 2.63827205 240.269073
2248.65015 -35.9339333 250.43074
2232.7998 -30.6462555 269.450287
2245.6582 7.92594767 261.9729
2261.50879 2.63827205 248.269073
2248.65015 -35.9339333 258.430725
2232.7998 -30.6462555 277.450287
3 5 4 7
3 3 0 1
3 7 6 5
3 1 2 3
3 0 1 5
3 0 5 4
3 1 2 6
3 1 6 5
3 2 3 7
3 2 7 6
3 3 0 4
3 3 4 7
