ply
format ascii 1.0
element vertex 18
property float x
property float y
property float z
element face 16
property list uchar int vertex_indices
end_header
813.397949 1008.67505 210.533325
812.590149 1010.50464 210.533325
777.586548 992.863098 207.322037
776.749878 994.679626 207.322037
772.655518 989.929077 207.322037
771.494812 991.557861 207.322037
766.866089 985.20459 200.594925
765.820007 986.909241 200.594925
746.041077 973.595581 197.46814
745.106445 975.36377 197.46814
742.695068 972.481445 197.46814
742.352356 974.451904 197.46814
739.384827 972.42804 197.46814
739.601257 974.41626 197.46814
736.36145 973.158386 197.46814
737.028076 975.044006 197.46814
697.14978 987.331726 195.700348
697.829651 989.212646 195.700348
3 0 1 2
3 1 3 2
3 2 3 4
3 3 5 4
3 4 5 6
3 5 7 6
3 6 7 8
3 7 9 8
3 8 9 10
3 9 11 10
3 10 11 12
3 11 13 12
3 12 13 14
3 13 15 14
3 14 15 16
3 15 17 16
