ply
format ascii 1.0
element vertex 10
property float x
property float y
property float z
element face 8
property list uchar int vertex_indices
end_header
1369.69946 -235.903748 278.493347
1376.04846 -238.851624 278.493347
1406.38928 -156.882996 283.894958
1412.75305 -159.798691 283.894958
1442.81189 -76.3563156 284.39328
1449.39575 -78.7340012 284.39328
1449.3667 -38.1799202 276.188782
1456.3385 -38.8086395 276.188782
1449.04297 -6.1783576 272.088135
1456.0426 -6.1113143 272.088135
3 0 1 2
3 1 3 2
3 2 3 4
3 3 5 4
3 4 5 6
3 5 7 6
3 6 7 8
3 7 9 8
