ply
format ascii 1.0
element vertex 46
property float x
property float y
property float z
element face 88
property list uchar int vertex_indices
end_header
-158.814835 -870.974854 291.651703
-169.853043 -877.20874 287.98764
-168.681442 -886.169922 287.98764
-174.268341 -886.047485 287.98764
-180.503967 -890.322144 287.98764
-180.242538 -897.468872 285.74057
-175.439941 -901.498657 285.74057
-169.978928 -902.010681 285.74057
-171.024643 -906.686096 285.74057
-174.52977 -909.936646 285.74057
-164.914902 -921.491638 285.74057
-160.373734 -925.911011 289.114502
-153.750809 -919.543518 289.114502
-152.191895 -906.819702 289.114502
-157.643234 -901.498657 289.114502
-159.724991 -895.9104 291.651703
-155.435577 -895.654358 291.651703
-152.714752 -890.589294 291.651703
-148.551224 -890.322144 291.651703
-149.209641 -885.390686 291.651703
-151.804596 -882.273743 291.651703
-150.758865 -878.900757 291.651703
-151.417282 -875.783813 291.651703
-158.814835 -870.974854 320.451691
-169.853043 -877.20874 316.787628
-168.681442 -886.169922 316.787628
-174.268341 -886.047485 316.787628
-180.503967 -890.322144 316.787628
-180.242538 -897.468872 314.540558
-175.439941 -901.498657 314.540558
-169.978928 -902.010681 314.540558
-171.024643 -906.686096 314.540558
-174.52977 -909.936646 314.540558
-164.914902 -921.491638 314.540558
-160.373734 -925.911011 317.91449
-153.750809 -919.543518 317.91449
-152.191895 -906.819702 317.91449
-157.643234 -901.498657 317.91449
-159.724991 -895.9104 320.451691
-155.435577 -895.654358 320.451691
-152.714752 -890.589294 320.451691
-148.551224 -890.322144 320.451691
-149.209641 -885.390686 320.451691
-151.804596 -882.273743 320.451691
-150.758865 -878.900757 320.451691
-151.417282 -875.783813 320.451691
3 44 45 23
3 0 22 21
3 23 24 25
3 2 1 0
3 25 26 27
3 4 3 2
3 27 28 29
3 6 5 4
3 31 32 33
3 10 9 8
3 33 34 35
3 12 11 10
3 35 36 37
3 14 13 12
3 38 39 40
3 17 16 15
3 40 41 42
3 19 18 17
3 43 44 23
3 0 21 20
3 25 27 29
3 6 4 2
3 30 31 33
3 10 8 7
3 33 35 37
3 14 12 10
3 38 40 42
3 19 17 15
3 43 23 25
3 2 0 20
3 25 29 30
3 7 6 2
3 30 33 37
3 14 10 7
3 38 42 43
3 20 19 15
3 43 25 30
3 7 2 20
3 30 37 38
3 15 14 7
3 38 43 30
3 7 20 15
3 0 1 24
3 0 24 23
3 1 2 25
3 1 25 24
3 2 3 26
3 2 26 25
3 3 4 27
3 3 27 26
3 4 5 28
3 4 28 27
3 5 6 29
3 5 29 28
3 6 7 30
3 6 30 29
3 7 8 31
3 7 31 30
3 8 9 32
3 8 32 31
3 9 10 33
3 9 33 32
3 10 11 34
3 10 34 33
3 11 12 35
3 11 35 34
3 12 13 36
3 12 36 35
3 13 14 37
3 13 37 36
3 14 15 38
3 14 38 37
3 15 16 39
3 15 39 38
3 16 17 40
3 16 40 39
3 17 18 41
3 17 41 40
3 18 19 42
3 18 42 41
3 19 20 43
3 19 43 42
3 20 21 44
3 20 44 43
3 21 22 45
3 21 45 44
3 22 0 23
3 22 23 45
