ply
format ascii 1.0
element vertex 17
property float x
property float y
property float z
element face 15
property list uchar int vertex_indices
end_header
-2700.16187 -1492.08191 333.328979
-2677.9209 -1487.55127 329.414062
-2674.37695 -1487.55127 329.414062
-2671.6272 -1488.93164 329.414062
-2671.23022 -1490.50122 329.414062
-2670.4458 -1493.06152 329.414062
-2669.85522 -1496.41223 329.414062
-2671.8208 -1498.77222 329.414062
-2674.96777 -1499.95227 329.414062
-2680.47705 -1501.1322 329.414062
-2698.19629 -1503.89294 333.328979
-2701.74023 -1504.28259 333.328979
-2704.48999 -1502.90222 333.328979
-2705.87476 -1500.94299 333.328979
-2705.47778 -1499.16187 333.328979
-2705.28394 -1495.62183 333.328979
-2703.70581 -1493.26196 333.328979
3 1 0 16
3 16 15 14
3 14 13 12
3 12 11 10
3 10 9 8
3 8 7 6
3 6 5 4
3 4 3 2
3 2 1 16
3 16 14 12
3 12 10 8
3 8 6 4
3 4 2 16
3 16 12 8
3 8 4 16
