ply
format ascii 1.0
element vertex 12
property float x
property float y
property float z
element face 10
property list uchar int vertex_indices
end_header
-1463.42969 1790.61108 304.393188
-1466.28845 1793.40894 304.393188
-1480.64404 1773.02197 317.993195
-1483.54431 1775.77661 317.993195
-1496.73157 1755.5625 302.529327
-1499.87439 1758.03687 302.529327
-1510.59155 1735.00488 312.801666
-1514.0553 1737.00549 312.801666
-1519.8125 1715.66174 302.343201
-1523.63806 1716.8302 302.343201
-1522.98132 1694.34277 309.414581
-1526.93726 1694.93494 309.414581
3 0 1 2
3 1 3 2
3 2 3 4
3 3 5 4
3 4 5 6
3 5 7 6
3 6 7 8
3 7 9 8
3 8 9 10
3 9 11 10
