ply
format ascii 1.0
element vertex 8
property float x
property float y
property float z
element face 12
property list uchar int vertex_indices
end_header
-678.589172 178.40062 220.224121
-661.392761 160.80101 221.486359
-686.683838 138.537109 223.513397
-703.686584 157.160858 220.462418
-678.589172 178.40062 228.224121
-661.392761 160.80101 229.486359
-686.683838 138.537109 231.513397
-703.686584 157.160858 228.462418
3 5 4 7
3 3 0 1
3 7 6 5
3 1 2 3
3 0 1 5
3 0 5 4
3 1 2 6
3 1 6 5
3 2 3 7
3 2 7 6
3 3 0 4
3 3 4 7
