ply
format ascii 1.0
element vertex 20
property float x
property float y
property float z
element face 18
property list uchar int vertex_indices
end_header
-1264.7865 -1200.51099 197.431458
-1268.56262 -1201.83044 197.431458
-1258.01208 -1219.90332 197.0681
-1261.83948 -1221.06592 197.0681
-1253.27783 -1238.44751 198.150497
-1257.22034 -1239.12354 198.150497
-1251.01453 -1260.71179 198.150497
-1255.01025 -1260.89722 198.150497
-1249.98645 -1309.14868 195.617874
-1253.9856 -1309.06348 195.617874
-1252.58325 -1332.60779 197.488831
-1256.48193 -1331.71289 197.488831
-1259.57214 -1350.86169 197.488831
-1263.16492 -1349.10352 197.488831
-1270.94336 -1370.16406 199.06189
-1274.14124 -1367.76111 199.06189
-1287.64221 -1388.23425 199.06189
-1290.42151 -1385.35767 199.06189
-1313.12769 -1410.95361 195.725296
-1315.78931 -1407.96765 195.725296
3 0 1 2
3 1 3 2
3 2 3 4
3 3 5 4
3 4 5 6
3 5 7 6
3 6 7 8
3 7 9 8
3 8 9 10
3 9 11 10
3 10 11 12
3 11 13 12
3 12 13 14
3 13 15 14
3 14 15 16
3 15 17 16
3 16 17 18
3 17 19 18
