ply
format ascii 1.0
element vertex 8
property float x
property float y
property float z
element face 12
property list uchar int vertex_indices
end_header
-1837.44751 -889.420471 290.147644
-1808.22522 -920.066711 294.052246
-1821.61633 -932.835083 296.049866
-1850.82886 -902.177673 298.6315
-1837.44751 -889.420471 293.347656
-1808.22522 -920.066711 297.252258
-1821.61633 -932.835083 299.249878
-1850.82886 -902.177673 301.831512
3 5 4 7
3 3 0 1
3 7 6 5
3 1 2 3
3 0 1 5
3 0 5 4
3 1 2 6
3 1 6 5
3 2 3 7
3 2 7 6
3 3 0 4
3 3 4 7
