ply
format ascii 1.0
element vertex 8
property float x
property float y
property float z
element face 12
property list uchar int vertex_indices
end_header
-404.928436 -249.121887 253.830688
-398.80899 -264.784546 254.399704
-416.896179 -271.842194 253.830688
-423.005951 -256.179535 253.830688
-404.928436 -249.121887 261.830688
-398.80899 -264.784546 262.399719
-416.896179 -271.842194 261.830688
-423.005951 -256.179535 261.830688
3 5 4 7
3 3 0 1
3 7 6 5
3 1 2 3
3 0 1 5
3 0 5 4
3 1 2 6
3 1 6 5
3 2 3 7
3 2 7 6
3 3 0 4
3 3 4 7
