ply
format ascii 1.0
element vertex 8
property float x
property float y
property float z
element face 12
property list uchar int vertex_indices
end_header
-548.764221 -474.632904 259.309967
-533.310669 -484.763 260.153809
-541.143982 -496.707581 263.433716
-556.597473 -486.577484 259.309967
-548.764221 -474.632904 262.509979
-533.310669 -484.763 263.353821
-541.143982 -496.707581 266.633728
-556.597473 -486.577484 262.509979
3 5 4 7
3 3 0 1
3 7 6 5
3 1 2 3
3 0 1 5
3 0 5 4
3 1 2 6
3 1 6 5
3 2 3 7
3 2 7 6
3 3 0 4
3 3 4 7
