ply
format ascii 1.0
element vertex 18
property float x
property float y
property float z
element face 16
property list uchar int vertex_indices
end_header
-1853.01624 -688.668213 251.849854
-1856.4845 -688.198059 251.849854
-1855.3125 -705.595703 258.675903
-1858.79712 -705.267517 258.675903
-1855.90515 -719.287109 262.814606
-1859.40515 -719.2724 262.814606
-1855.44055 -735.29126 262.814606
-1858.9209 -735.662231 262.814606
-1852.35913 -752.690735 257.596344
-1855.72791 -753.640076 257.596344
-1841.03735 -786.345032 261.334137
-1844.29553 -787.623535 261.334137
-1831.70288 -805.363586 267.177704
-1834.72937 -807.121521 267.177704
-1821.7373 -819.561279 258.516693
-1824.51636 -821.688782 258.516693
-1812.26404 -830.736938 258.516693
-1814.9342 -832.999695 258.516693
3 0 1 2
3 1 3 2
3 2 3 4
3 3 5 4
3 4 5 6
3 5 7 6
3 6 7 8
3 7 9 8
3 8 9 10
3 9 11 10
3 10 11 12
3 11 13 12
3 12 13 14
3 13 15 14
3 14 15 16
3 15 17 16
