ply
format ascii 1.0
element vertex 18
property float x
property float y
property float z
element face 16
property list uchar int vertex_indices
end_header
-410.744568 -396.175415 243.507187
-414.953125 -392.634491 243.507187
-451.170593 -444.222534 265.078156
-455.299744 -440.589325 265.078156
-456.338501 -447.715454 258.897705
-458.884949 -442.840454 258.897705
-461.304291 -449.62558 258.897705
-462.556091 -444.269928 258.897705
-483.606445 -454.167206 249.458542
-484.387451 -448.722931 249.458542
-522.511536 -458.413391 253.073761
-523.021057 -452.937042 253.073761
-541.586853 -459.558929 252.108109
-542.463318 -454.129211 252.108109
-551.54718 -463.024231 252.108109
-553.707947 -457.966431 252.108109
-557.716309 -466.52005 259.339966
-560.416748 -461.728638 259.339966
3 0 1 2
3 1 3 2
3 2 3 4
3 3 5 4
3 4 5 6
3 5 7 6
3 6 7 8
3 7 9 8
3 8 9 10
3 9 11 10
3 10 11 12
3 11 13 12
3 12 13 14
3 13 15 14
3 14 15 16
3 15 17 16
