ply
format ascii 1.0
element vertex 32
property float x
property float y
property float z
element face 30
property list uchar int vertex_indices
end_header
-3380.2876 -144.599686 210.302963
-3376.78857 -144.519287 210.302963
-3381.78784 -79.2982407 206.1539
-3378.29004 -79.1761856 206.1539
-3382.60962 -75.5140915 206.1539
-3379.32715 -74.2996826 206.1539
-3384.5105 -71.9606934 206.1539
-3381.74487 -69.8158112 206.1539
-3403.58447 -48.5868263 208.245209
-3401.03345 -46.1905899 208.245209
-3406.93994 -47.2796593 208.245209
-3406.9541 -43.779686 208.245209
-3554.41992 -49.7501907 0.0299999993
-3554.52393 -46.2517357 0.0299999993
-3562.46851 -51.7926331 0.0299999993
-3563.7876 -48.5507545 0.0299999993
-3590.13599 -64.3917847 0.0299999993
-3591.79541 -61.3101845 0.0299999993
-3593.76147 -68.3380737 0.0299999993
-3596.82642 -66.6479416 0.0299999993
-3594.18262 -71.5663681 0.0299999993
-3597.64453 -72.0802994 0.0299999993
-3592.59229 -74.8803711 0.0299999993
-3595.5166 -76.8035736 0.0299999993
-3581.83618 -90.0461121 0.0299999993
-3584.83545 -91.8499374 0.0299999993
-3579.02905 -97.5471725 0.0299999993
-3582.39453 -98.5087128 0.0299999993
-3577.43286 -105.431488 0.0299999993
-3580.93115 -105.541214 0.0299999993
-3577.23828 -152.968109 0.0299999993
-3580.73828 -152.982376 0.0299999993
3 0 1 2
3 1 3 2
3 2 3 4
3 3 5 4
3 4 5 6
3 5 7 6
3 6 7 8
3 7 9 8
3 8 9 10
3 9 11 10
3 10 11 12
3 11 13 12
3 12 13 14
3 13 15 14
3 14 15 16
3 15 17 16
3 16 17 18
3 17 19 18
3 18 19 20
3 19 21 20
3 20 21 22
3 21 23 22
3 22 23 24
3 23 25 24
3 24 25 26
3 25 27 26
3 26 27 28
3 27 29 28
3 28 29 30
3 29 31 30
