ply
format ascii 1.0
element vertex 8
property float x
property float y
property float z
element face 12
property list uchar int vertex_indices
end_header
-1403.59692 313.197388 254.258316
-1393.41077 302.844666 259.138519
-1409.51306 287.003906 257.185608
-1419.69922 297.356628 257.185608
-1403.59692 313.197388 257.458313
-1393.41077 302.844666 262.338531
-1409.51306 287.003906 260.38562
-1419.69922 297.356628 260.38562
3 5 4 7
3 3 0 1
3 7 6 5
3 1 2 3
3 0 1 5
3 0 5 4
3 1 2 6
3 1 6 5
3 2 3 7
3 2 7 6
3 3 0 4
3 3 4 7
