ply
format ascii 1.0
element vertex 14
property float x
property float y
property float z
element face 24
property list uchar int vertex_indices
end_header
-679.91571 533.710144 211.140656
-686.102905 527.520813 211.140656
-691.660767 533.086792 211.140656
-685.483215 539.265015 211.140656
-698.467651 552.255981 211.140656
-690.634399 560.092896 196.30957
-672.082458 541.53595 211.140656
-679.91571 533.710144 219.140656
-686.102905 527.520813 219.140656
-691.660767 533.086792 219.140656
-685.483215 539.265015 219.140656
-698.467651 552.255981 219.140656
-690.634399 560.092896 204.30957
-672.082458 541.53595 219.140656
3 7 13 12
3 5 6 0
3 12 11 10
3 3 4 5
3 10 9 8
3 1 2 3
3 7 12 10
3 3 5 0
3 10 8 7
3 0 1 3
3 0 1 8
3 0 8 7
3 1 2 9
3 1 9 8
3 2 3 10
3 2 10 9
3 3 4 11
3 3 11 10
3 4 5 12
3 4 12 11
3 5 6 13
3 5 13 12
3 6 0 7
3 6 7 13
