ply
format ascii 1.0
element vertex 44
property float x
property float y
property float z
element face 84
property list uchar int vertex_indices
end_header
2985.48047 -1473.69189 242.304092
2988.5791 -1476.31909 244.652313
2997.83569 -1465.38757 244.652313
2995.79248 -1463.66211 244.652313
3003.14185 -1454.99023 244.652313
3005.18481 -1456.72681 244.652313
3011.71094 -1449.02356 245.118912
3017.90771 -1454.27783 247.496658
3013.04712 -1460.01074 247.496658
3019.55371 -1465.53223 247.496658
3017.88843 -1467.49146 247.496658
3010.53931 -1476.16321 244.652313
3004.03247 -1470.64185 244.652313
2997.3418 -1478.54553 244.652313
3003.19019 -1483.49915 244.652313
3000.6145 -1486.5271 239.091995
2993.66235 -1494.73132 239.091995
2987.81421 -1489.77759 239.091995
2983.2439 -1495.18774 240.133636
2977.03735 -1489.93347 240.133636
2981.61719 -1484.52332 240.133636
2978.52832 -1481.90735 242.304092
2985.48047 -1473.69189 250.304092
2988.5791 -1476.31909 252.652313
2997.83569 -1465.38757 252.652313
2995.79248 -1463.66211 252.652313
3003.14185 -1454.99023 252.652313
3005.18481 -1456.72681 252.652313
3011.71094 -1449.02356 253.118912
3017.90771 -1454.27783 255.496658
3013.04712 -1460.01074 255.496658
3019.55371 -1465.53223 255.496658
3017.88843 -1467.49146 255.496658
3010.53931 -1476.16321 252.652313
3004.03247 -1470.64185 252.652313
2997.3418 -1478.54553 252.652313
3003.19019 -1483.49915 252.652313
3000.6145 -1486.5271 247.091995
2993.66235 -1494.73132 247.091995
2987.81421 -1489.77759 247.091995
2983.2439 -1495.18774 248.133636
2977.03735 -1489.93347 248.133636
2981.61719 -1484.52332 248.133636
2978.52832 -1481.90735 250.304092
3 23 22 43
3 21 0 1
3 42 41 40
3 18 19 20
3 39 38 37
3 15 16 17
3 37 36 35
3 13 14 15
3 34 33 32
3 10 11 12
3 32 31 30
3 8 9 10
3 30 29 28
3 6 7 8
3 27 26 25
3 3 4 5
3 23 43 42
3 20 21 1
3 42 40 39
3 17 18 20
3 39 37 35
3 13 15 17
3 34 32 30
3 8 10 12
3 30 28 27
3 5 6 8
3 27 25 24
3 2 3 5
3 23 42 39
3 17 20 1
3 39 35 34
3 12 13 17
3 34 30 27
3 5 8 12
3 27 24 23
3 1 2 5
3 23 39 34
3 12 17 1
3 34 27 23
3 1 5 12
3 0 1 23
3 0 23 22
3 1 2 24
3 1 24 23
3 2 3 25
3 2 25 24
3 3 4 26
3 3 26 25
3 4 5 27
3 4 27 26
3 5 6 28
3 5 28 27
3 6 7 29
3 6 29 28
3 7 8 30
3 7 30 29
3 8 9 31
3 8 31 30
3 9 10 32
3 9 32 31
3 10 11 33
3 10 33 32
3 11 12 34
3 11 34 33
3 12 13 35
3 12 35 34
3 13 14 36
3 13 36 35
3 14 15 37
3 14 37 36
3 15 16 38
3 15 38 37
3 16 17 39
3 16 39 38
3 17 18 40
3 17 40 39
3 18 19 41
3 18 41 40
3 19 20 42
3 19 42 41
3 20 21 43
3 20 43 42
3 21 0 22
3 21 22 43
