ply
format ascii 1.0
element vertex 36
property float x
property float y
property float z
element face 34
property list uchar int vertex_indices
end_header
-2338.54028 -727.819031 213.753906
-2344.64771 -722.651672 213.753906
-2362.78076 -756.467102 226.606766
-2368.76245 -751.155029 226.606766
-2461.14917 -865.884583 212.696152
-2467.06812 -860.502625 212.696152
-2477.33105 -882.442749 213.079025
-2483.05176 -876.850464 213.079025
-2534.73877 -941.165527 218.583267
-2540.34497 -935.458435 218.583267
-2557.16357 -960.854919 210.895111
-2562.44067 -954.842224 210.895111
-2571.25439 -973.209473 222.936859
-2576.10059 -966.84436 222.936859
-2687.2688 -1059.91711 212.32341
-2691.77246 -1053.3053 212.32341
-2741.81152 -1089.32898 213.099442
-2745.17212 -1082.06909 213.099442
-2777.39014 -1101.62939 211.118057
-2779.46338 -1093.90271 211.118057
-2832.02808 -1113.59399 203.159134
-2833.75537 -1105.78271 203.159134
-2847.17798 -1117.06238 203.159134
-2848.62183 -1109.19385 203.159134
-2861.0896 -1118.88477 217.545212
-2861.35669 -1110.88916 217.545212
-2914.38818 -1119.35242 214.352768
-2914.64478 -1111.35657 214.352768
-2929.44482 -1121.01611 214.352768
-2931.09546 -1113.18823 214.352768
-2942.98535 -1125.37805 211.72084
-2946.02197 -1117.97681 211.72084
-2999.37476 -1149.77502 209.098465
-3002.08667 -1142.24878 209.098465
-3110.93628 -1185.89612 210.888885
-3113.40039 -1178.28503 210.888885
3 0 1 2
3 1 3 2
3 2 3 4
3 3 5 4
3 4 5 6
3 5 7 6
3 6 7 8
3 7 9 8
3 8 9 10
3 9 11 10
3 10 11 12
3 11 13 12
3 12 13 14
3 13 15 14
3 14 15 16
3 15 17 16
3 16 17 18
3 17 19 18
3 18 19 20
3 19 21 20
3 20 21 22
3 21 23 22
3 22 23 24
3 23 25 24
3 24 25 26
3 25 27 26
3 26 27 28
3 27 29 28
3 28 29 30
3 29 31 30
3 30 31 32
3 31 33 32
3 32 33 34
3 33 35 34
