ply
format ascii 1.0
element vertex 8
property float x
property float y
property float z
element face 12
property list uchar int vertex_indices
end_header
-774.737915 390.653503 235.795929
-751.141296 391.265747 238.492584
-750.821716 379.10965 238.492584
-774.418335 378.497406 235.795929
-774.737915 390.653503 243.795929
-751.141296 391.265747 246.492584
-750.821716 379.10965 246.492584
-774.418335 378.497406 243.795929
3 5 4 7
3 3 0 1
3 7 6 5
3 1 2 3
3 0 1 5
3 0 5 4
3 1 2 6
3 1 6 5
3 2 3 7
3 2 7 6
3 3 0 4
3 3 4 7
