ply
format ascii 1.0
element vertex 10
property float x
property float y
property float z
element face 16
property list uchar int vertex_indices
end_header
3048.20483 -1110.57886 234.286133
3052.87183 -1117.00208 235.99556
3044.56421 -1123.04663 235.99556
3042.46289 -1120.15234 235.99556
3039.89697 -1116.62354 235.99556
3048.20483 -1110.57886 242.286133
3052.87183 -1117.00208 243.99556
3044.56421 -1123.04663 243.99556
3042.46289 -1120.15234 243.99556
3039.89697 -1116.62354 243.99556
3 6 5 9
3 4 0 1
3 8 7 6
3 1 2 3
3 6 9 8
3 3 4 1
3 0 1 6
3 0 6 5
3 1 2 7
3 1 7 6
3 2 3 8
3 2 8 7
3 3 4 9
3 3 9 8
3 4 0 5
3 4 5 9
