ply
format ascii 1.0
element vertex 8
property float x
property float y
property float z
element face 12
property list uchar int vertex_indices
end_header
-1583.18103 1318.17859 292.927948
-1550.20203 1307.87048 292.272491
-1552.96155 1299.02051 292.272491
-1585.95032 1309.32874 292.927948
-1583.18103 1318.17859 300.927948
-1550.20203 1307.87048 300.272491
-1552.96155 1299.02051 300.272491
-1585.95032 1309.32874 300.927948
3 5 4 7
3 3 0 1
3 7 6 5
3 1 2 3
3 0 1 5
3 0 5 4
3 1 2 6
3 1 6 5
3 2 3 7
3 2 7 6
3 3 0 4
3 3 4 7
