ply
format ascii 1.0
element vertex 12
property float x
property float y
property float z
element face 10
property list uchar int vertex_indices
end_header
1651.49915 162.907532 226.92688
1653.42163 163.458954 226.92688
1644.38074 187.739105 201.477097
1646.24854 188.453995 201.477097
1462.02014 657.968384 168.029999
1463.88306 658.696289 168.029999
1449.42139 686.680969 168.029999
1451.22949 687.535889 168.029999
1402.12659 784.630127 186.043106
1403.94421 785.464478 186.043106
1384.3894 828.35321 195.825195
1386.2428 829.10498 195.825195
3 0 1 2
3 1 3 2
3 2 3 4
3 3 5 4
3 4 5 6
3 5 7 6
3 6 7 8
3 7 9 8
3 8 9 10
3 9 11 10
