ply
format ascii 1.0
element vertex 18
property float x
property float y
property float z
element face 16
property list uchar int vertex_indices
end_header
-886.143616 1981.50134 302.856049
-881.211121 1979.06812 302.856049
-814.990784 2125.73633 320.438568
-810.067749 2123.28418 320.438568
-808.992249 2136.32544 323.458252
-804.466492 2133.2002 323.458252
-800.960754 2145.98218 317.283875
-797.238098 2141.93335 317.283875
-790.405029 2153.40161 317.283875
-787.750793 2148.58447 317.283875
-779.566101 2157.78491 314.832184
-778.023743 2152.50562 314.832184
-766.511658 2160.41309 314.832184
-765.845215 2154.95361 314.832184
-754.131592 2160.86963 314.832184
-754.580261 2155.38794 314.832184
-722.039917 2156.82739 311.429169
-722.727661 2151.37061 311.429169
3 0 1 2
3 1 3 2
3 2 3 4
3 3 5 4
3 4 5 6
3 5 7 6
3 6 7 8
3 7 9 8
3 8 9 10
3 9 11 10
3 10 11 12
3 11 13 12
3 12 13 14
3 13 15 14
3 14 15 16
3 15 17 16
