ply
format ascii 1.0
element vertex 8
property float x
property float y
property float z
element face 12
property list uchar int vertex_indices
end_header
-742.785156 191.235748 218.503754
-703.134705 193.773834 222.383896
-702.25354 180.114929 220.462418
-741.903992 177.56572 213.086594
-742.785156 191.235748 226.503754
-703.134705 193.773834 230.383896
-702.25354 180.114929 228.462418
-741.903992 177.56572 221.086594
3 5 4 7
3 3 0 1
3 7 6 5
3 1 2 3
3 0 1 5
3 0 5 4
3 1 2 6
3 1 6 5
3 2 3 7
3 2 7 6
3 3 0 4
3 3 4 7
