ply
format ascii 1.0
element vertex 18
property float x
property float y
property float z
element face 16
property list uchar int vertex_indices
end_header
-3413.03662 658.118408 222.79451
-3414.4519 654.917297 222.79451
-3365.94922 637.298157 224.844559
-3367.52075 634.170837 224.844559
-3359.78491 631.261475 226.892899
-3362.25928 628.786072 226.892899
-3354.29517 625.672729 226.892899
-3357.36938 623.999817 226.892899
-3348.1897 610.035889 234.753143
-3351.52637 608.97937 234.753143
-3345.78223 598.762512 234.753143
-3349.26685 598.434082 234.753143
-3345.52295 581.794067 243.30397
-3349.00342 582.162537 243.30397
-3352.28467 537.036377 235.186081
-3355.73926 537.597412 235.186081
-3364.62207 464.166168 238.801682
-3368.073 464.750458 238.801682
3 0 1 2
3 1 3 2
3 2 3 4
3 3 5 4
3 4 5 6
3 5 7 6
3 6 7 8
3 7 9 8
3 8 9 10
3 9 11 10
3 10 11 12
3 11 13 12
3 12 13 14
3 13 15 14
3 14 15 16
3 15 17 16
