ply
format ascii 1.0
element vertex 10
property float x
property float y
property float z
element face 16
property list uchar int vertex_indices
end_header
2288.09741 -322.06955 216.475845
2299.87158 -327.724579 216.475845
2293.35498 -341.272156 215.358047
2281.58105 -335.617126 221.049255
2281.60034 -335.58374 221.049255
2288.09741 -322.06955 224.475845
2299.87158 -327.724579 224.475845
2293.35498 -341.272156 223.358047
2281.58105 -335.617126 229.049255
2281.60034 -335.58374 229.049255
3 6 5 9
3 4 0 1
3 9 8 7
3 2 3 4
3 7 6 9
3 4 1 2
3 0 1 6
3 0 6 5
3 1 2 7
3 1 7 6
3 2 3 8
3 2 8 7
3 3 4 9
3 3 9 8
3 4 0 5
3 4 5 9
