ply
format ascii 1.0
element vertex 10
property float x
property float y
property float z
element face 8
property list uchar int vertex_indices
end_header
-3268.35327 -1211.41492 208.539169
-3266.71924 -1219.24622 208.539169
-3249.17212 -1207.42029 213.111221
-3248.02173 -1215.33716 213.111221
-3141.79639 -1193.01477 210.555817
-3140.65576 -1200.93311 210.555817
-3126.40967 -1189.76025 210.555817
-3124.4187 -1197.50854 210.555817
-3110.88843 -1185.05298 210.888885
-3108.56836 -1192.70911 210.888885
3 0 1 2
3 1 3 2
3 2 3 4
3 3 5 4
3 4 5 6
3 5 7 6
3 6 7 8
3 7 9 8
