ply
format ascii 1.0
element vertex 14
property float x
property float y
property float z
element face 24
property list uchar int vertex_indices
end_header
-553.954102 -54.07901 227.859543
-544.145569 -62.038353 231.57019
-550.468323 -69.830719 231.57019
-560.276855 -61.8825035 231.57019
-566.318848 -69.3409119 229.925201
-572.312378 -64.4762497 229.925201
-559.947632 -49.2254791 227.859543
-553.954102 -54.07901 235.859543
-544.145569 -62.038353 239.57019
-550.468323 -69.830719 239.57019
-560.276855 -61.8825035 239.57019
-566.318848 -69.3409119 237.925201
-572.312378 -64.4762497 237.925201
-559.947632 -49.2254791 235.859543
3 8 7 13
3 6 0 1
3 13 12 11
3 4 5 6
3 10 9 8
3 1 2 3
3 13 11 10
3 3 4 6
3 10 8 13
3 6 1 3
3 0 1 8
3 0 8 7
3 1 2 9
3 1 9 8
3 2 3 10
3 2 10 9
3 3 4 11
3 3 11 10
3 4 5 12
3 4 12 11
3 5 6 13
3 5 13 12
3 6 0 7
3 6 7 13
