ply
format ascii 1.0
element vertex 34
property float x
property float y
property float z
element face 32
property list uchar int vertex_indices
end_header
-3341.78418 -3173.57397 0.0299999993
-3334.92603 -3177.69287 0.0299999993
-3319.42676 -3136.34839 0.0299999993
-3312.56909 -3140.46802 0.0299999993
-3178.14917 -2901.18164 0.0299999993
-3171.36499 -2905.42114 0.0299999993
-3061.42505 -2723.51978 0.0299999993
-3054.9502 -2728.21851 0.0299999993
-2964.03613 -2606.13306 0.0299999993
-2957.87256 -2611.2334 0.0299999993
-2892.82397 -2519.76929 183.736267
-2887.04053 -2525.29663 183.736267
-2762.14233 -2394.88452 168.029999
-2756.73584 -2400.78125 168.029999
-2461.47607 -2124.2688 193.054901
-2456.09009 -2130.18408 193.054901
-2443.37329 -2104.70117 168.029999
-2437.1084 -2109.67651 168.029999
-2406.24487 -2054.65308 182.425964
-2399.68042 -2059.22559 182.425964
-2376.03247 -2008.01416 168.029999
-2369.29883 -2012.33386 168.029999
-2346.8252 -1962.04895 190.956207
-2340.46826 -1966.90576 190.956207
-2301.43188 -1910.39136 193.769409
-2295.67749 -1915.94897 193.769409
-2288.01758 -1901.24744 193.769409
-2283.54883 -1907.88293 193.769409
-2262.67163 -1884.20129 190.921356
-2258.83545 -1891.22156 190.921356
-2212.60913 -1860.02039 192.968689
-2208.74072 -1867.02295 192.968689
-2174.34888 -1835.42151 201.581497
-2170.02368 -1842.15149 201.581497
3 0 1 2
3 1 3 2
3 2 3 4
3 3 5 4
3 4 5 6
3 5 7 6
3 6 7 8
3 7 9 8
3 8 9 10
3 9 11 10
3 10 11 12
3 11 13 12
3 12 13 14
3 13 15 14
3 14 15 16
3 15 17 16
3 16 17 18
3 17 19 18
3 18 19 20
3 19 21 20
3 20 21 22
3 21 23 22
3 22 23 24
3 23 25 24
3 24 25 26
3 25 27 26
3 26 27 28
3 27 29 28
3 28 29 30
3 29 31 30
3 30 31 32
3 31 33 32
