ply
format ascii 1.0
element vertex 15
property float x
property float y
property float z
element face 13
property list uchar int vertex_indices
end_header
1208.71423 1678.68677 233.485992
1208.33667 1678.51978 233.485992
1200.52271 1673.55493 233.485992
1199.98047 1672.74231 233.485992
1199.87402 1671.88513 233.485992
1201.43286 1664.22644 235.128128
1201.64587 1663.79224 235.128128
1202.19788 1663.61414 235.128128
1202.69165 1663.88135 235.128128
1210.25378 1675.93726 233.485992
1210.47656 1676.41589 233.485992
1210.50562 1676.90564 233.485992
1210.41846 1677.36206 233.485992
1209.48889 1678.56433 233.485992
1209.06287 1678.72021 233.485992
3 13 14 0
3 0 1 2
3 2 3 4
3 4 5 6
3 6 7 8
3 8 9 10
3 10 11 12
3 12 13 0
3 0 2 4
3 4 6 8
3 8 10 12
3 12 0 4
3 4 8 12
