ply
format ascii 1.0
element vertex 8
property float x
property float y
property float z
element face 12
property list uchar int vertex_indices
end_header
-1000.52759 1399.73132 270.524139
-983.127869 1399.73132 269.675049
-983.127869 1382.72168 256.711548
-1000.52759 1382.72168 267.217743
-1000.52759 1399.73132 278.524139
-983.127869 1399.73132 277.675049
-983.127869 1382.72168 264.711548
-1000.52759 1382.72168 275.217743
3 5 4 7
3 3 0 1
3 7 6 5
3 1 2 3
3 0 1 5
3 0 5 4
3 1 2 6
3 1 6 5
3 2 3 7
3 2 7 6
3 3 0 4
3 3 4 7
