ply
format ascii 1.0
element vertex 24
property float x
property float y
property float z
element face 44
property list uchar int vertex_indices
end_header
-944.697449 -171.198242 232.1203
-944.891113 -161.468918 232.1203
-919.638733 -160.979111 241.487808
-919.261108 -180.626999 241.487808
-941.298828 -181.050018 232.1203
-941.076111 -192.883286 236.795593
-957.681885 -193.206116 236.795593
-957.943298 -179.625137 232.1203
-975.265564 -179.959091 233.258804
-975.759399 -154.444656 230.851761
-958.437134 -154.110703 226.842209
-958.10791 -171.454285 232.1203
-944.697449 -171.198242 240.1203
-944.891113 -161.468918 240.1203
-919.638733 -160.979111 249.487808
-919.261108 -180.626999 249.487808
-941.298828 -181.050018 240.1203
-941.076111 -192.883286 244.795593
-957.681885 -193.206116 244.795593
-957.943298 -179.625137 240.1203
-975.265564 -179.959091 241.258804
-975.759399 -154.444656 238.851761
-958.437134 -154.110703 234.842209
-958.10791 -171.454285 240.1203
3 23 22 21
3 9 10 11
3 21 20 19
3 7 8 9
3 19 18 17
3 5 6 7
3 16 15 14
3 2 3 4
3 14 13 12
3 0 1 2
3 23 21 19
3 7 9 11
3 19 17 16
3 4 5 7
3 16 14 12
3 0 2 4
3 12 23 19
3 7 11 0
3 19 16 12
3 0 4 7
3 0 1 13
3 0 13 12
3 1 2 14
3 1 14 13
3 2 3 15
3 2 15 14
3 3 4 16
3 3 16 15
3 4 5 17
3 4 17 16
3 5 6 18
3 5 18 17
3 6 7 19
3 6 19 18
3 7 8 20
3 7 20 19
3 8 9 21
3 8 21 20
3 9 10 22
3 9 22 21
3 10 11 23
3 10 23 22
3 11 0 12
3 11 12 23
