ply
format ascii 1.0
element vertex 26
property float x
property float y
property float z
element face 24
property list uchar int vertex_indices
end_header
2133.45801 2530.37915 205.388779
2133.45337 2528.37915 205.388779
2138.29321 2530.36597 205.388779
2138.16553 2528.37012 205.388779
2141.03418 2529.87231 205.388779
2140.47876 2527.95093 205.388779
2144.16846 2528.59229 205.388779
2142.84424 2527.09351 205.388779
2161.64917 2511.78467 206.504974
2160.2793 2510.32739 206.504974
2162.46924 2511.24634 206.504974
2161.89917 2509.32935 206.504974
2164.8125 2510.9541 206.504974
2164.30054 2509.02075 206.504974
2166.31567 2510.104 206.504974
2164.94678 2508.64624 206.504974
2174.35132 2502.16064 207.759613
2172.94556 2500.73779 207.759613
2188.99316 2487.70093 208.662476
2187.54541 2486.32104 208.662476
2189.50171 2485.8645 208.662476
2187.50171 2485.8645 208.662476
2189.04419 2483.55151 208.662476
2187.49414 2484.81543 208.662476
2182.81812 2477.32031 208.662476
2181.40405 2478.73486 208.662476
3 0 1 2
3 1 3 2
3 2 3 4
3 3 5 4
3 4 5 6
3 5 7 6
3 6 7 8
3 7 9 8
3 8 9 10
3 9 11 10
3 10 11 12
3 11 13 12
3 12 13 14
3 13 15 14
3 14 15 16
3 15 17 16
3 16 17 18
3 17 19 18
3 18 19 20
3 19 21 20
3 20 21 22
3 21 23 22
3 22 23 24
3 23 25 24
