ply
format ascii 1.0
element vertex 42
property float x
property float y
property float z
element face 40
property list uchar int vertex_indices
end_header
1180.83142 1586.54114 239.61145
1177.35864 1586.97717 239.61145
1179.74072 1577.87866 239.61145
1176.2998 1578.51868 239.61145
1178.47766 1574.12781 239.501358
1175.27783 1575.5459 239.501358
1173.65198 1564.02295 239.501358
1170.45947 1565.4574 239.501358
1173.18823 1562.58521 239.501358
1169.70325 1562.90991 239.501358
1173.30811 1561.32507 239.501358
1170.0481 1560.05127 239.501358
1173.84888 1560.57312 239.501358
1171.86987 1557.68628 239.501358
1183.44373 1554.73535 239.501358
1181.73718 1551.67957 239.501358
1184.67932 1554.40393 238.667816
1184.16162 1550.94238 238.667816
1185.87866 1554.39978 238.667816
1186.44812 1550.94641 238.667816
1193.68616 1555.97144 238.667816
1194.46204 1552.55847 238.667816
1194.62146 1556.30298 238.667816
1196.41211 1553.29565 238.667816
1195.03857 1556.66809 238.667816
1197.97034 1554.75623 238.667816
1200.82092 1566.12524 238.667816
1203.90393 1564.46826 238.667816
1200.85815 1566.82874 238.667816
1204.33142 1567.26025 238.667816
1200.4845 1567.43481 238.667816
1203.48511 1569.23669 238.667816
1200.04883 1568.23425 238.667816
1201.94556 1571.17578 238.667816
1184.99817 1577.20691 237.626633
1186.82507 1580.19226 237.626633
1182.80579 1578.80603 239.61145
1185.0282 1581.50977 239.61145
1180.42212 1581.01807 239.61145
1183.24841 1583.08264 239.61145
1177.58252 1585.87891 239.61145
1180.60754 1587.63928 239.61145
3 0 1 2
3 1 3 2
3 2 3 4
3 3 5 4
3 4 5 6
3 5 7 6
3 6 7 8
3 7 9 8
3 8 9 10
3 9 11 10
3 10 11 12
3 11 13 12
3 12 13 14
3 13 15 14
3 14 15 16
3 15 17 16
3 16 17 18
3 17 19 18
3 18 19 20
3 19 21 20
3 20 21 22
3 21 23 22
3 22 23 24
3 23 25 24
3 24 25 26
3 25 27 26
3 26 27 28
3 27 29 28
3 28 29 30
3 29 31 30
3 30 31 32
3 31 33 32
3 32 33 34
3 33 35 34
3 34 35 36
3 35 37 36
3 36 37 38
3 37 39 38
3 38 39 40
3 39 41 40
