ply
format ascii 1.0
element vertex 14
property float x
property float y
property float z
element face 12
property list uchar int vertex_indices
end_header
3004.4873 -623.921814 212.888199
3006.32764 -624.704346 212.888199
3024.58887 -576.647888 202.012939
3026.37036 -577.557068 202.012939
3031.59131 -570.867859 202.012939
3033.11719 -572.160645 202.012939
3034.71851 -564.689392 202.012939
3036.49683 -565.604187 202.012939
3038.86499 -556.849182 202.012939
3040.13525 -558.394043 202.012939
3050.74219 -551.540222 211.989014
3052.56152 -552.370667 211.989014
3064.42578 -500.633331 210.774597
3066.35718 -501.153015 210.774597
3 0 1 2
3 1 3 2
3 2 3 4
3 3 5 4
3 4 5 6
3 5 7 6
3 6 7 8
3 7 9 8
3 8 9 10
3 9 11 10
3 10 11 12
3 11 13 12
