ply
format ascii 1.0
element vertex 8
property float x
property float y
property float z
element face 12
property list uchar int vertex_indices
end_header
-2514.24536 1219.64978 280.4375
-2476.06665 1235.10083 283.650146
-2472.99731 1227.4978 286.499756
-2511.16626 1212.05774 280.4375
-2514.24536 1219.64978 288.4375
-2476.06665 1235.10083 291.650146
-2472.99731 1227.4978 294.499756
-2511.16626 1212.05774 288.4375
3 5 4 7
3 3 0 1
3 7 6 5
3 1 2 3
3 0 1 5
3 0 5 4
3 1 2 6
3 1 6 5
3 2 3 7
3 2 7 6
3 3 0 4
3 3 4 7
