ply
format ascii 1.0
element vertex 8
property float x
property float y
property float z
element face 12
property list uchar int vertex_indices
end_header
-2083.26099 -912.018311 304.29715
-2070.40234 -911.361511 309.258392
-2069.65674 -926.122498 309.258392
-2082.51538 -926.768127 304.29715
-2083.26099 -912.018311 307.497162
-2070.40234 -911.361511 312.458405
-2069.65674 -926.122498 312.458405
-2082.51538 -926.768127 307.497162
3 5 4 7
3 3 0 1
3 7 6 5
3 1 2 3
3 0 1 5
3 0 5 4
3 1 2 6
3 1 6 5
3 2 3 7
3 2 7 6
3 3 0 4
3 3 4 7
