ply
format ascii 1.0
element vertex 8
property float x
property float y
property float z
element face 12
property list uchar int vertex_indices
end_header
-1814.58679 -98.8294449 251.721176
-1799.2688 -97.5270081 253.775192
-1798.12622 -111.03006 253.775192
-1813.44421 -112.332497 251.721176
-1814.58679 -98.8294449 254.921173
-1799.2688 -97.5270081 256.975189
-1798.12622 -111.03006 256.975189
-1813.44421 -112.332497 254.921173
3 5 4 7
3 3 0 1
3 7 6 5
3 1 2 3
3 0 1 5
3 0 5 4
3 1 2 6
3 1 6 5
3 2 3 7
3 2 7 6
3 3 0 4
3 3 4 7
