ply
format ascii 1.0
element vertex 16
property float x
property float y
property float z
element face 28
property list uchar int vertex_indices
end_header
-471.816162 -961.388489 320.418213
-467.691376 -971.507446 320.418213
-436.958649 -958.995178 313.968842
-441.073761 -948.887329 323.85498
-445.014587 -950.490356 323.85498
-447.415894 -944.579285 323.85498
-463.673065 -951.19165 326.627502
-461.271759 -957.102722 326.627502
-471.816162 -961.388489 328.418213
-467.691376 -971.507446 328.418213
-436.958649 -958.995178 321.968842
-441.073761 -948.887329 331.85498
-445.014587 -950.490356 331.85498
-447.415894 -944.579285 331.85498
-463.673065 -951.19165 334.627502
-461.271759 -957.102722 334.627502
3 15 8 9
3 1 0 7
3 9 10 11
3 3 2 1
3 12 13 14
3 6 5 4
3 9 11 12
3 4 3 1
3 12 14 15
3 7 6 4
3 15 9 12
3 4 1 7
3 0 1 9
3 0 9 8
3 1 2 10
3 1 10 9
3 2 3 11
3 2 11 10
3 3 4 12
3 3 12 11
3 4 5 13
3 4 13 12
3 5 6 14
3 5 14 13
3 6 7 15
3 6 15 14
3 7 0 8
3 7 8 15
