ply
format ascii 1.0
element vertex 36
property float x
property float y
property float z
element face 68
property list uchar int vertex_indices
end_header
1170.14832 -796.73584 272.737183
1172.4043 -794.832275 272.737183
1173.88574 -792.283081 272.737183
1174.39893 -789.366516 272.737183
1173.8761 -786.46106 272.737183
1172.4043 -783.900696 272.737183
1170.13855 -782.008301 272.737183
1167.36938 -780.9953 272.737183
1164.41614 -780.9953 272.737183
1161.63721 -782.008301 272.737183
1159.37146 -783.911865 272.737183
1157.89978 -786.46106 272.737183
1157.3866 -789.377625 272.737183
1157.89978 -792.283081 272.737183
1159.38123 -794.843445 272.737183
1161.64685 -796.73584 272.737183
1164.41614 -797.74884 272.737183
1167.36938 -797.74884 272.737183
1170.14832 -796.73584 280.737183
1172.4043 -794.832275 280.737183
1173.88574 -792.283081 280.737183
1174.39893 -789.366516 280.737183
1173.8761 -786.46106 280.737183
1172.4043 -783.900696 280.737183
1170.13855 -782.008301 280.737183
1167.36938 -780.9953 280.737183
1164.41614 -780.9953 280.737183
1161.63721 -782.008301 280.737183
1159.37146 -783.911865 280.737183
1157.89978 -786.46106 280.737183
1157.3866 -789.377625 280.737183
1157.89978 -792.283081 280.737183
1159.38123 -794.843445 280.737183
1161.64685 -796.73584 280.737183
1164.41614 -797.74884 280.737183
1167.36938 -797.74884 280.737183
3 34 35 18
3 0 17 16
3 18 19 20
3 2 1 0
3 20 21 22
3 4 3 2
3 22 23 24
3 6 5 4
3 24 25 26
3 8 7 6
3 26 27 28
3 10 9 8
3 28 29 30
3 12 11 10
3 30 31 32
3 14 13 12
3 32 33 34
3 16 15 14
3 34 18 20
3 2 0 16
3 20 22 24
3 6 4 2
3 24 26 28
3 10 8 6
3 28 30 32
3 14 12 10
3 32 34 20
3 2 16 14
3 20 24 28
3 10 6 2
3 28 32 20
3 2 14 10
3 0 1 19
3 0 19 18
3 1 2 20
3 1 20 19
3 2 3 21
3 2 21 20
3 3 4 22
3 3 22 21
3 4 5 23
3 4 23 22
3 5 6 24
3 5 24 23
3 6 7 25
3 6 25 24
3 7 8 26
3 7 26 25
3 8 9 27
3 8 27 26
3 9 10 28
3 9 28 27
3 10 11 29
3 10 29 28
3 11 12 30
3 11 30 29
3 12 13 31
3 12 31 30
3 13 14 32
3 13 32 31
3 14 15 33
3 14 33 32
3 15 16 34
3 15 34 33
3 16 17 35
3 16 35 34
3 17 0 18
3 17 18 35
