ply
format ascii 1.0
element vertex 10
property float x
property float y
property float z
element face 8
property list uchar int vertex_indices
end_header
1080.54016 1337.13367 246.245056
1079.46545 1335.44702 246.245056
1131.12891 1304.89758 248.567184
1130.06042 1303.20679 248.567184
1196.82837 1263.52954 245.293564
1195.13477 1262.46558 245.293564
1176.96777 1231.04883 243.393356
1175.27722 1232.11755 243.393356
1149.34314 1187.34485 244.49118
1147.65259 1188.41345 244.49118
3 0 1 2
3 1 3 2
3 2 3 4
3 3 5 4
3 4 5 6
3 5 7 6
3 6 7 8
3 7 9 8
