ply
format ascii 1.0
element vertex 16
property float x
property float y
property float z
element face 14
property list uchar int vertex_indices
end_header
-2184.21655 -468.251251 203.842484
-2191.31494 -464.561554 203.842484
-2207.34302 -512.738403 204.35524
-2214.54907 -509.263611 204.35524
-2227.96948 -558.982422 215.832642
-2235.30615 -555.793213 215.832642
-2244.78027 -598.870605 209.882614
-2252.05542 -595.54303 209.882614
-2257.62964 -623.782532 218.303482
-2264.53613 -619.745239 218.303482
-2272.50293 -646.28949 218.303482
-2278.94312 -641.543457 218.303482
-2305.50659 -688.780151 226.632401
-2311.72314 -683.744629 226.632401
-2338.54053 -727.819214 213.753906
-2344.64746 -722.651489 213.753906
3 0 1 2
3 1 3 2
3 2 3 4
3 3 5 4
3 4 5 6
3 5 7 6
3 6 7 8
3 7 9 8
3 8 9 10
3 9 11 10
3 10 11 12
3 11 13 12
3 12 13 14
3 13 15 14
