ply
format ascii 1.0
element vertex 26
property float x
property float y
property float z
element face 24
property list uchar int vertex_indices
end_header
1035.10327 1241.32288 243.433121
1029.87683 1232.79736 243.433121
1111.32251 1194.59778 245.93988
1106.08191 1186.08093 245.93988
1127.23193 1184.63416 245.93988
1121.98962 1176.11829 245.93988
1213.90088 1131.4519 245.169601
1208.67883 1122.92371 245.169601
1247.75281 1110.83472 241.568604
1242.52795 1102.30811 241.568604
1257.47717 1104.73608 241.568604
1251.68481 1096.58459 241.568604
1266.53577 1097.45117 241.568604
1259.74512 1090.11047 241.568604
1288.21533 1076.35107 237.019012
1281.11462 1069.30981 237.019012
1299.78174 1063.90198 238.007187
1292.07007 1057.53577 238.007187
1311.29077 1048.4126 234.347672
1303.1604 1042.59045 234.347672
1322.51245 1032.15869 234.347672
1313.99573 1026.91797 234.347672
1332.40833 1014.08368 233.624313
1323.4845 1009.57104 233.624313
1345.00684 987.71106 228.609711
1335.9834 983.40094 228.609711
3 0 1 2
3 1 3 2
3 2 3 4
3 3 5 4
3 4 5 6
3 5 7 6
3 6 7 8
3 7 9 8
3 8 9 10
3 9 11 10
3 10 11 12
3 11 13 12
3 12 13 14
3 13 15 14
3 14 15 16
3 15 17 16
3 16 17 18
3 17 19 18
3 18 19 20
3 19 21 20
3 20 21 22
3 21 23 22
3 22 23 24
3 23 25 24
