ply
format ascii 1.0
element vertex 68
property float x
property float y
property float z
element face 132
property list uchar int vertex_indices
end_header
-2328.41602 802.045776 214.6241
-2339.01855 796.669067 214.6241
-2353.76514 802.93634 214.292435
-2357.2605 795.511353 214.292435
-2351.89624 792.739502 214.292435
-2353.26172 790.112366 214.292435
-2356.07935 791.570618 214.292435
-2359.66187 784.657715 214.292435
-2350.01782 779.659424 214.292435
-2348.53638 782.509216 214.292435
-2345.18628 781.407166 214.292435
-2344.97314 775.117615 214.292435
-2349.8147 775.6297 214.292435
-2350.10498 772.868958 204.711243
-2352.16748 773.080444 214.292435
-2352.79688 767.080322 204.711243
-2349.60156 767.180542 204.711243
-2349.29175 765.944885 204.711243
-2342.68823 765.844727 204.711243
-2342.17505 762.549622 204.711243
-2332.69556 762.672119 204.391159
-2332.73438 765.967163 204.391159
-2324.76562 766.067322 204.391159
-2324.85278 773.414429 214.6241
-2327.35083 773.381042 214.6241
-2327.37988 775.907959 214.6241
-2329.51001 775.874573 214.6241
-2329.54883 778.434937 214.6241
-2318.34595 785.091858 214.6241
-2322.8291 792.639282 214.6241
-2325.2207 791.214417 214.6241
-2326.12109 792.728333 214.6241
-2321.00879 795.767395 214.6241
-2325.63696 803.671082 214.6241
-2328.41602 802.045776 387.424103
-2339.01855 796.669067 387.424103
-2353.76514 802.93634 387.092438
-2357.2605 795.511353 387.092438
-2351.89624 792.739502 387.092438
-2353.26172 790.112366 387.092438
-2356.07935 791.570618 387.092438
-2359.66187 784.657715 387.092438
-2350.01782 779.659424 387.092438
-2348.53638 782.509216 387.092438
-2345.18628 781.407166 387.092438
-2344.97314 775.117615 387.092438
-2349.8147 775.6297 387.092438
-2350.10498 772.868958 377.51123
-2352.16748 773.080444 387.092438
-2352.79688 767.080322 377.51123
-2349.60156 767.180542 377.51123
-2349.29175 765.944885 377.51123
-2342.68823 765.844727 377.51123
-2342.17505 762.549622 377.51123
-2332.69556 762.672119 377.191162
-2332.73438 765.967163 377.191162
-2324.76562 766.067322 377.191162
-2324.85278 773.414429 387.424103
-2327.35083 773.381042 387.424103
-2327.37988 775.907959 387.424103
-2329.51001 775.874573 387.424103
-2329.54883 778.434937 387.424103
-2318.34595 785.091858 387.424103
-2322.8291 792.639282 387.424103
-2325.2207 791.214417 387.424103
-2326.12109 792.728333 387.424103
-2321.00879 795.767395 387.424103
-2325.63696 803.671082 387.424103
3 66 67 34
3 0 33 32
3 35 36 37
3 3 2 1
3 39 40 41
3 7 6 5
3 41 42 43
3 9 8 7
3 45 46 47
3 13 12 11
3 47 48 49
3 15 14 13
3 50 51 52
3 18 17 16
3 52 53 54
3 20 19 18
3 55 56 57
3 23 22 21
3 58 59 60
3 26 25 24
3 61 62 63
3 29 28 27
3 65 66 34
3 0 32 31
3 35 37 38
3 4 3 1
3 39 41 43
3 9 7 5
3 45 47 49
3 15 13 11
3 52 54 55
3 21 20 18
3 55 57 58
3 24 23 21
3 61 63 64
3 30 29 27
3 65 34 35
3 1 0 31
3 35 38 39
3 5 4 1
3 39 43 44
3 10 9 5
3 45 49 50
3 16 15 11
3 50 52 55
3 21 18 16
3 55 58 60
3 26 24 21
3 61 64 65
3 31 30 27
3 65 35 39
3 5 1 31
3 45 50 55
3 21 16 11
3 55 60 61
3 27 26 21
3 61 65 39
3 5 31 27
3 44 45 55
3 21 11 10
3 61 39 44
3 10 5 27
3 44 55 61
3 27 21 10
3 0 1 35
3 0 35 34
3 1 2 36
3 1 36 35
3 2 3 37
3 2 37 36
3 3 4 38
3 3 38 37
3 4 5 39
3 4 39 38
3 5 6 40
3 5 40 39
3 6 7 41
3 6 41 40
3 7 8 42
3 7 42 41
3 8 9 43
3 8 43 42
3 9 10 44
3 9 44 43
3 10 11 45
3 10 45 44
3 11 12 46
3 11 46 45
3 12 13 47
3 12 47 46
3 13 14 48
3 13 48 47
3 14 15 49
3 14 49 48
3 15 16 50
3 15 50 49
3 16 17 51
3 16 51 50
3 17 18 52
3 17 52 51
3 18 19 53
3 18 53 52
3 19 20 54
3 19 54 53
3 20 21 55
3 20 55 54
3 21 22 56
3 21 56 55
3 22 23 57
3 22 57 56
3 23 24 58
3 23 58 57
3 24 25 59
3 24 59 58
3 25 26 60
3 25 60 59
3 26 27 61
3 26 61 60
3 27 28 62
3 27 62 61
3 28 29 63
3 28 63 62
3 29 30 64
3 29 64 63
3 30 31 65
3 30 65 64
3 31 32 66
3 31 66 65
3 32 33 67
3 32 67 66
3 33 0 34
3 33 34 67
