ply
format ascii 1.0
element vertex 34
property float x
property float y
property float z
element face 64
property list uchar int vertex_indices
end_header
1609.27588 -1022.94818 212.718674
1607.85242 -1023.96118 212.718674
1602.90466 -1016.97034 215.975418
1580.78943 -1032.61072 213.555664
1584.90454 -1038.43274 213.555664
1552.1676 -1061.59827 211.722198
1541.54565 -1069.11243 211.722198
1535.13574 -1060.06213 211.722198
1541.2843 -1055.70947 211.722198
1538.90234 -1052.34766 211.722198
1601.52966 -1008.03137 215.975418
1604.1731 -1006.16119 215.975418
1609.41138 -1005.90521 215.975418
1617.39954 -1017.2041 215.519806
1624.11938 -1026.69971 211.462234
1624.03223 -1026.76648 211.462234
1613.34253 -1028.70337 212.718674
1609.27588 -1022.94818 222.31868
1607.85242 -1023.96118 222.31868
1602.90466 -1016.97034 225.575424
1580.78943 -1032.61072 223.15567
1584.90454 -1038.43274 223.15567
1552.1676 -1061.59827 221.322205
1541.54565 -1069.11243 221.322205
1535.13574 -1060.06213 221.322205
1541.2843 -1055.70947 221.322205
1538.90234 -1052.34766 221.322205
1601.52966 -1008.03137 225.575424
1604.1731 -1006.16119 225.575424
1609.41138 -1005.90521 225.575424
1617.39954 -1017.2041 225.119812
1624.11938 -1026.69971 221.062241
1624.03223 -1026.76648 221.062241
1613.34253 -1028.70337 222.31868
3 17 33 32
3 15 16 0
3 32 31 30
3 13 14 15
3 30 29 28
3 11 12 13
3 28 27 26
3 9 10 11
3 25 24 23
3 6 7 8
3 23 22 21
3 4 5 6
3 19 18 17
3 0 1 2
3 17 32 30
3 13 15 0
3 28 26 25
3 8 9 11
3 25 23 21
3 4 6 8
3 19 17 30
3 13 0 2
3 25 21 20
3 3 4 8
3 19 30 28
3 11 13 2
3 28 25 20
3 3 8 11
3 20 19 28
3 11 2 3
3 0 1 18
3 0 18 17
3 1 2 19
3 1 19 18
3 2 3 20
3 2 20 19
3 3 4 21
3 3 21 20
3 4 5 22
3 4 22 21
3 5 6 23
3 5 23 22
3 6 7 24
3 6 24 23
3 7 8 25
3 7 25 24
3 8 9 26
3 8 26 25
3 9 10 27
3 9 27 26
3 10 11 28
3 10 28 27
3 11 12 29
3 11 29 28
3 12 13 30
3 12 30 29
3 13 14 31
3 13 31 30
3 14 15 32
3 14 32 31
3 15 16 33
3 15 33 32
3 16 0 17
3 16 17 33
