ply
format ascii 1.0
element vertex 16
property float x
property float y
property float z
element face 28
property list uchar int vertex_indices
end_header
-309.699554 -273.07785 231.674988
-289.133606 -275.938751 238.756439
-289.937286 -281.771881 246.875092
-274.832336 -283.864716 246.875092
-276.313782 -294.517975 246.875092
-297.576874 -291.568024 235.973831
-296.899109 -286.658813 235.973831
-311.306885 -284.65506 235.973831
-309.699554 -273.07785 239.674988
-289.133606 -275.938751 246.756439
-289.937286 -281.771881 254.875092
-274.832336 -283.864716 254.875092
-276.313782 -294.517975 254.875092
-297.576874 -291.568024 243.973831
-296.899109 -286.658813 243.973831
-311.306885 -284.65506 243.973831
3 9 8 15
3 7 0 1
3 14 13 12
3 4 5 6
3 12 11 10
3 2 3 4
3 10 9 15
3 7 1 2
3 14 12 10
3 2 4 6
3 10 15 14
3 6 7 2
3 0 1 9
3 0 9 8
3 1 2 10
3 1 10 9
3 2 3 11
3 2 11 10
3 3 4 12
3 3 12 11
3 4 5 13
3 4 13 12
3 5 6 14
3 5 14 13
3 6 7 15
3 6 15 14
3 7 0 8
3 7 8 15
