ply
format ascii 1.0
element vertex 8
property float x
property float y
property float z
element face 12
property list uchar int vertex_indices
end_header
-1166.61414 1367.40405 282.146179
-1117.53271 1358.71008 289.472321
-1119.27563 1348.84717 289.472321
-1168.3667 1357.54114 286.829163
-1166.61414 1367.40405 290.146179
-1117.53271 1358.71008 297.472321
-1119.27563 1348.84717 297.472321
-1168.3667 1357.54114 294.829163
3 5 4 7
3 3 0 1
3 7 6 5
3 1 2 3
3 0 1 5
3 0 5 4
3 1 2 6
3 1 6 5
3 2 3 7
3 2 7 6
3 3 0 4
3 3 4 7
