ply
format ascii 1.0
element vertex 10
property float x
property float y
property float z
element face 8
property list uchar int vertex_indices
end_header
-3322.03906 -61.3608894 211.827103
-3318.28369 -62.7380791 211.827103
-3314.96997 -42.1434059 216.18486
-3311.44849 -44.0401421 216.18486
-3304.78687 -29.4542236 211.83548
-3301.93726 -32.2613029 211.83548
-3294.67114 -21.4670982 211.83548
-3292.35815 -24.7304897 211.83548
-3284.6084 -15.1175556 211.83548
-3282.47485 -18.5009308 211.83548
3 0 1 2
3 1 3 2
3 2 3 4
3 3 5 4
3 4 5 6
3 5 7 6
3 6 7 8
3 7 9 8
