ply
format ascii 1.0
element vertex 14
property float x
property float y
property float z
element face 12
property list uchar int vertex_indices
end_header
597.848816 1080.40381 209.05336
595.886353 1080.01807 209.05336
598.873169 1075.17041 209.05336
596.953491 1074.60925 209.05336
599.544922 1074.14197 209.05336
598.160156 1072.69897 209.05336
600.626831 1073.53552 209.05336
600.002441 1071.6355 209.05336
631.278442 1063.81628 211.645737
630.583923 1061.94067 211.645737
634.454773 1061.00818 211.645737
633.875549 1059.09387 211.645737
668.033386 1052.69495 212.682159
667.552673 1050.75354 212.682159
3 0 1 2
3 1 3 2
3 2 3 4
3 3 5 4
3 4 5 6
3 5 7 6
3 6 7 8
3 7 9 8
3 8 9 10
3 9 11 10
3 10 11 12
3 11 13 12
