ply
format ascii 1.0
element vertex 16
property float x
property float y
property float z
element face 28
property list uchar int vertex_indices
end_header
2280.38989 -395.974548 218.164368
2285.38623 -398.123016 218.164368
2283.10107 -403.444092 210.063492
2278.10498 -401.306763 218.164368
2273.78638 -411.370056 210.063492
2264.09399 -407.217834 210.063492
2271.61743 -389.673889 218.164368
2281.30981 -393.837219 218.164368
2280.38989 -395.974548 226.164368
2285.38623 -398.123016 226.164368
2283.10107 -403.444092 218.063492
2278.10498 -401.306763 226.164368
2273.78638 -411.370056 218.063492
2264.09399 -407.217834 218.063492
2271.61743 -389.673889 226.164368
2281.30981 -393.837219 226.164368
3 8 15 14
3 6 7 0
3 14 13 12
3 4 5 6
3 11 10 9
3 1 2 3
3 8 14 12
3 4 6 0
3 11 9 8
3 0 1 3
3 8 12 11
3 3 4 0
3 0 1 9
3 0 9 8
3 1 2 10
3 1 10 9
3 2 3 11
3 2 11 10
3 3 4 12
3 3 12 11
3 4 5 13
3 4 13 12
3 5 6 14
3 5 14 13
3 6 7 15
3 6 15 14
3 7 0 8
3 7 8 15
