ply
format ascii 1.0
element vertex 22
property float x
property float y
property float z
element face 20
property list uchar int vertex_indices
end_header
-2704.86646 1059.6178 256.39209
-2698.20728 1061.77551 256.39209
-2717.25513 1098.03394 260.864197
-2711.09033 1101.34985 260.864197
-2775.5625 1190.95044 266.052307
-2769.63306 1194.67078 266.052307
-2788.52124 1211.60352 274.711456
-2782.54639 1215.25049 274.711456
-2813.54468 1253.19287 278.759003
-2807.33081 1256.41589 278.759003
-2814.74902 1262.89331 278.759003
-2807.75293 1263.12402 278.759003
-2814.41821 1270.08118 280.844543
-2807.44458 1269.47266 280.844543
-2813.51611 1277.0332 280.844543
-2806.66187 1275.61182 280.844543
-2811.40601 1284.59119 280.844543
-2804.78296 1282.32495 280.844543
-2808.49854 1291.69666 280.844543
-2802.20972 1288.62231 280.844543
-2802.66455 1302.52881 279.004852
-2796.5022 1299.20813 279.004852
3 0 1 2
3 1 3 2
3 2 3 4
3 3 5 4
3 4 5 6
3 5 7 6
3 6 7 8
3 7 9 8
3 8 9 10
3 9 11 10
3 10 11 12
3 11 13 12
3 12 13 14
3 13 15 14
3 14 15 16
3 15 17 16
3 16 17 18
3 17 19 18
3 18 19 20
3 19 21 20
