ply
format ascii 1.0
element vertex 8
property float x
property float y
property float z
element face 12
property list uchar int vertex_indices
end_header
-130.502762 1466.2113 222.015335
-114.778137 1463.67322 222.015335
-121.004082 1424.98962 224.410202
-136.738388 1427.5166 224.602219
-130.502762 1466.2113 230.015335
-114.778137 1463.67322 230.015335
-121.004082 1424.98962 232.410202
-136.738388 1427.5166 232.602219
3 5 4 7
3 3 0 1
3 7 6 5
3 1 2 3
3 0 1 5
3 0 5 4
3 1 2 6
3 1 6 5
3 2 3 7
3 2 7 6
3 3 0 4
3 3 4 7
