ply
format ascii 1.0
element vertex 8
property float x
property float y
property float z
element face 12
property list uchar int vertex_indices
end_header
3147.01611 974.635559 216.933029
3156.87305 970.717102 222.837219
3144.94409 940.749878 209.539673
3135.08716 944.668335 209.539673
3147.01611 974.635559 224.933029
3156.87305 970.717102 230.837219
3144.94409 940.749878 217.539673
3135.08716 944.668335 217.539673
3 5 4 7
3 3 0 1
3 7 6 5
3 1 2 3
3 0 1 5
3 0 5 4
3 1 2 6
3 1 6 5
3 2 3 7
3 2 7 6
3 3 0 4
3 3 4 7
