ply
format ascii 1.0
element vertex 14
property float x
property float y
property float z
element face 24
property list uchar int vertex_indices
end_header
-252.387955 -254.643341 247.55867
-249.928574 -237.210709 237.411896
-214.887054 -242.164413 242.927841
-217.346451 -259.585907 252.178436
-237.418579 -256.758392 252.178436
-238.386841 -263.604553 252.178436
-253.356232 -261.489471 247.55867
-252.387955 -254.643341 255.55867
-249.928574 -237.210709 245.411896
-214.887054 -242.164413 250.927841
-217.346451 -259.585907 260.178436
-237.418579 -256.758392 260.178436
-238.386841 -263.604553 260.178436
-253.356232 -261.489471 255.55867
3 7 13 12
3 5 6 0
3 11 10 9
3 2 3 4
3 9 8 7
3 0 1 2
3 7 12 11
3 4 5 0
3 11 9 7
3 0 2 4
3 0 1 8
3 0 8 7
3 1 2 9
3 1 9 8
3 2 3 10
3 2 10 9
3 3 4 11
3 3 11 10
3 4 5 12
3 4 12 11
3 5 6 13
3 5 13 12
3 6 0 7
3 6 7 13
