ply
format ascii 1.0
element vertex 14
property float x
property float y
property float z
element face 12
property list uchar int vertex_indices
end_header
306.430664 278.789612 168.029999
302.530579 279.678009 168.029999
291.913971 215.064835 207.781281
288.038025 216.053284 207.781281
288.040619 207.248077 207.781281
284.804321 209.598892 207.781281
281.409576 200.488464 207.781281
278.925385 203.62355 207.781281
272.161804 194.621033 207.781281
270.337738 198.180923 207.781281
262.360352 190.774399 202.78096
261.606567 194.702728 202.78096
163.106079 173.613464 204.450333
162.424622 177.554993 204.450333
3 0 1 2
3 1 3 2
3 2 3 4
3 3 5 4
3 4 5 6
3 5 7 6
3 6 7 8
3 7 9 8
3 8 9 10
3 9 11 10
3 10 11 12
3 11 13 12
