ply
format ascii 1.0
element vertex 80
property float x
property float y
property float z
element face 156
property list uchar int vertex_indices
end_header
2305.18726 -2164.24023 203.596985
2300.31689 -2167.32373 202.354553
2296.17261 -2171.15308 202.354553
2291.15698 -2177.6875 202.354553
2287.18726 -2184.84546 202.354553
2284.58252 -2191.80273 204.6129
2282.83008 -2199.38379 203.56694
2282.24902 -2206.98682 203.56694
2282.93652 -2215.01294 203.56694
2284.51489 -2223.03906 203.56694
2287.36157 -2229.46216 201.190353
2290.3728 -2234.1377 201.190353
2293.99414 -2237.8335 201.190353
2297.73169 -2241.13965 201.190353
2302.4375 -2243.80029 201.190353
2307.3562 -2245.82617 201.190353
2312.48804 -2246.89478 201.190353
2318.13306 -2247.62964 206.351273
2323.44873 -2247.27344 206.351273
2328.74512 -2246.26025 206.351273
2333.34448 -2244.31226 206.351273
2337.95337 -2241.96338 206.351273
2342.29126 -2238.49023 212.061905
2347.03564 -2233.30273 212.061905
2351.09277 -2226.20068 210.678757
2354.29761 -2218.80884 210.678757
2356.17603 -2211.41724 210.678757
2356.92163 -2203.66943 210.678757
2356.66016 -2196.25562 210.678757
2355.18848 -2188.19604 204.580826
2352.49658 -2180.40381 204.580826
2349.79517 -2175.46118 204.580826
2346.15454 -2170.98608 204.580826
2342.29126 -2167.50171 204.580826
2337.62402 -2164.40723 200.863831
2332.68604 -2162.05835 200.863831
2326.64404 -2160.26611 200.863831
2320.79565 -2160.0769 200.863831
2315.37329 -2160.72241 200.863831
2309.96069 -2162.16968 203.596985
2305.18726 -2164.24023 211.596985
2300.31689 -2167.32373 210.354553
2296.17261 -2171.15308 210.354553
2291.15698 -2177.6875 210.354553
2287.18726 -2184.84546 210.354553
2284.58252 -2191.80273 212.6129
2282.83008 -2199.38379 211.56694
2282.24902 -2206.98682 211.56694
2282.93652 -2215.01294 211.56694
2284.51489 -2223.03906 211.56694
2287.36157 -2229.46216 209.190353
2290.3728 -2234.1377 209.190353
2293.99414 -2237.8335 209.190353
2297.73169 -2241.13965 209.190353
2302.4375 -2243.80029 209.190353
2307.3562 -2245.82617 209.190353
2312.48804 -2246.89478 209.190353
2318.13306 -2247.62964 214.351273
2323.44873 -2247.27344 214.351273
2328.74512 -2246.26025 214.351273
2333.34448 -2244.31226 214.351273
2337.95337 -2241.96338 214.351273
2342.29126 -2238.49023 220.061905
2347.03564 -2233.30273 220.061905
2351.09277 -2226.20068 218.678757
2354.29761 -2218.80884 218.678757
2356.17603 -2211.41724 218.678757
2356.92163 -2203.66943 218.678757
2356.66016 -2196.25562 218.678757
2355.18848 -2188.19604 212.580826
2352.49658 -2180.40381 212.580826
2349.79517 -2175.46118 212.580826
2346.15454 -2170.98608 212.580826
2342.29126 -2167.50171 212.580826
2337.62402 -2164.40723 208.863831
2332.68604 -2162.05835 208.863831
2326.64404 -2160.26611 208.863831
2320.79565 -2160.0769 208.863831
2315.37329 -2160.72241 208.863831
2309.96069 -2162.16968 211.596985
3 78 79 40
3 0 39 38
3 40 41 42
3 2 1 0
3 42 43 44
3 4 3 2
3 44 45 46
3 6 5 4
3 46 47 48
3 8 7 6
3 48 49 50
3 10 9 8
3 50 51 52
3 12 11 10
3 52 53 54
3 14 13 12
3 54 55 56
3 16 15 14
3 56 57 58
3 18 17 16
3 58 59 60
3 20 19 18
3 60 61 62
3 22 21 20
3 62 63 64
3 24 23 22
3 64 65 66
3 26 25 24
3 66 67 68
3 28 27 26
3 68 69 70
3 30 29 28
3 70 71 72
3 32 31 30
3 72 73 74
3 34 33 32
3 74 75 76
3 36 35 34
3 76 77 78
3 38 37 36
3 78 40 42
3 2 0 38
3 42 44 46
3 6 4 2
3 46 48 50
3 10 8 6
3 50 52 54
3 14 12 10
3 54 56 58
3 18 16 14
3 58 60 62
3 22 20 18
3 62 64 66
3 26 24 22
3 66 68 70
3 30 28 26
3 70 72 74
3 34 32 30
3 74 76 78
3 38 36 34
3 78 42 46
3 6 2 38
3 46 50 54
3 14 10 6
3 54 58 62
3 22 18 14
3 62 66 70
3 30 26 22
3 70 74 78
3 38 34 30
3 78 46 54
3 14 6 38
3 54 62 70
3 30 22 14
3 70 78 54
3 14 38 30
3 0 1 41
3 0 41 40
3 1 2 42
3 1 42 41
3 2 3 43
3 2 43 42
3 3 4 44
3 3 44 43
3 4 5 45
3 4 45 44
3 5 6 46
3 5 46 45
3 6 7 47
3 6 47 46
3 7 8 48
3 7 48 47
3 8 9 49
3 8 49 48
3 9 10 50
3 9 50 49
3 10 11 51
3 10 51 50
3 11 12 52
3 11 52 51
3 12 13 53
3 12 53 52
3 13 14 54
3 13 54 53
3 14 15 55
3 14 55 54
3 15 16 56
3 15 56 55
3 16 17 57
3 16 57 56
3 17 18 58
3 17 58 57
3 18 19 59
3 18 59 58
3 19 20 60
3 19 60 59
3 20 21 61
3 20 61 60
3 21 22 62
3 21 62 61
3 22 23 63
3 22 63 62
3 23 24 64
3 23 64 63
3 24 25 65
3 24 65 64
3 25 26 66
3 25 66 65
3 26 27 67
3 26 67 66
3 27 28 68
3 27 68 67
3 28 29 69
3 28 69 68
3 29 30 70
3 29 70 69
3 30 31 71
3 30 71 70
3 31 32 72
3 31 72 71
3 32 33 73
3 32 73 72
3 33 34 74
3 33 74 73
3 34 35 75
3 34 75 74
3 35 36 76
3 35 76 75
3 36 37 77
3 36 77 76
3 37 38 78
3 37 78 77
3 38 39 79
3 38 79 78
3 39 0 40
3 39 40 79
