ply
format ascii 1.0
element vertex 62
property float x
property float y
property float z
element face 120
property list uchar int vertex_indices
end_header
1054.76978 -569.888977 277.845276
1054.04358 -568.56427 277.845276
1053.41418 -566.90564 277.845276
1053.16248 -565.469604 277.845276
1053.23022 -563.933411 277.845276
1053.67566 -562.519653 277.845276
1054.22754 -561.228333 277.845276
1055.01184 -559.870239 277.845276
1056.28027 -558.512146 277.845276
1084.79565 -537.584106 275.603271
1087.79736 -536.582214 275.603271
1104.20947 -538.218628 272.671631
1106.62036 -540.155579 272.671631
1122.47095 -564.434326 278.271973
1123.02283 -565.592041 278.271973
1123.4585 -566.972412 278.271973
1124.54297 -573.85199 278.271973
1124.25256 -572.950317 278.271973
1123.74902 -572.382568 278.271973
1122.99377 -572.126526 278.271973
1122.11267 -572.18219 278.271973
1090.66345 -578.404968 280.10611
1089.85974 -578.716614 280.10611
1089.2981 -579.262085 280.10611
1089.01733 -580.041321 280.10611
1089.07544 -581.009827 280.10611
1095.29175 -612.468689 282.034271
1095.48535 -613.080994 282.034271
1095.84363 -613.604187 282.034271
1096.3374 -614.016052 282.034271
1081.12598 -605.444458 282.034271
1054.76978 -569.888977 285.845276
1054.04358 -568.56427 285.845276
1053.41418 -566.90564 285.845276
1053.16248 -565.469604 285.845276
1053.23022 -563.933411 285.845276
1053.67566 -562.519653 285.845276
1054.22754 -561.228333 285.845276
1055.01184 -559.870239 285.845276
1056.28027 -558.512146 285.845276
1084.79565 -537.584106 283.603271
1087.79736 -536.582214 283.603271
1104.20947 -538.218628 280.671631
1106.62036 -540.155579 280.671631
1122.47095 -564.434326 286.271973
1123.02283 -565.592041 286.271973
1123.4585 -566.972412 286.271973
1124.54297 -573.85199 286.271973
1124.25256 -572.950317 286.271973
1123.74902 -572.382568 286.271973
1122.99377 -572.126526 286.271973
1122.11267 -572.18219 286.271973
1090.66345 -578.404968 288.10611
1089.85974 -578.716614 288.10611
1089.2981 -579.262085 288.10611
1089.01733 -580.041321 288.10611
1089.07544 -581.009827 288.10611
1095.29175 -612.468689 290.034271
1095.48535 -613.080994 290.034271
1095.84363 -613.604187 290.034271
1096.3374 -614.016052 290.034271
1081.12598 -605.444458 290.034271
3 32 31 61
3 30 0 1
3 61 60 59
3 28 29 30
3 48 47 46
3 15 16 17
3 46 45 44
3 13 14 15
3 44 43 42
3 11 12 13
3 42 41 40
3 9 10 11
3 40 39 38
3 7 8 9
3 38 37 36
3 5 6 7
3 36 35 34
3 3 4 5
3 34 33 32
3 1 2 3
3 32 61 59
3 28 30 1
3 49 48 46
3 15 17 18
3 46 44 42
3 11 13 15
3 42 40 38
3 7 9 11
3 38 36 34
3 3 5 7
3 34 32 59
3 28 1 3
3 50 49 46
3 15 18 19
3 46 42 38
3 7 11 15
3 38 34 59
3 28 3 7
3 51 50 46
3 15 19 20
3 38 59 58
3 27 28 7
3 52 51 46
3 15 20 21
3 38 58 57
3 26 27 7
3 52 46 38
3 7 15 21
3 38 57 56
3 25 26 7
3 53 52 38
3 7 21 22
3 38 56 55
3 24 25 7
3 54 53 38
3 7 22 23
3 38 55 54
3 23 24 7
3 0 1 32
3 0 32 31
3 1 2 33
3 1 33 32
3 2 3 34
3 2 34 33
3 3 4 35
3 3 35 34
3 4 5 36
3 4 36 35
3 5 6 37
3 5 37 36
3 6 7 38
3 6 38 37
3 7 8 39
3 7 39 38
3 8 9 40
3 8 40 39
3 9 10 41
3 9 41 40
3 10 11 42
3 10 42 41
3 11 12 43
3 11 43 42
3 12 13 44
3 12 44 43
3 13 14 45
3 13 45 44
3 14 15 46
3 14 46 45
3 15 16 47
3 15 47 46
3 16 17 48
3 16 48 47
3 17 18 49
3 17 49 48
3 18 19 50
3 18 50 49
3 19 20 51
3 19 51 50
3 20 21 52
3 20 52 51
3 21 22 53
3 21 53 52
3 22 23 54
3 22 54 53
3 23 24 55
3 23 55 54
3 24 25 56
3 24 56 55
3 25 26 57
3 25 57 56
3 26 27 58
3 26 58 57
3 27 28 59
3 27 59 58
3 28 29 60
3 28 60 59
3 29 30 61
3 29 61 60
3 30 0 31
3 30 31 61
