ply
format ascii 1.0
element vertex 8
property float x
property float y
property float z
element face 12
property list uchar int vertex_indices
end_header
-1349.17078 1305.22107 292.791107
-1343.27405 1294.31177 293.852356
-1292.67249 1304.50854 292.202484
-1300.22498 1321.72974 292.202484
-1349.17078 1305.22107 300.791107
-1343.27405 1294.31177 301.852356
-1292.67249 1304.50854 300.202484
-1300.22498 1321.72974 300.202484
3 6 7 4
3 0 3 2
3 4 5 6
3 2 1 0
3 0 1 5
3 0 5 4
3 1 2 6
3 1 6 5
3 2 3 7
3 2 7 6
3 3 0 4
3 3 4 7
