ply
format ascii 1.0
element vertex 8
property float x
property float y
property float z
element face 12
property list uchar int vertex_indices
end_header
918.80603 -1070.52612 215.176132
924.906128 -1073.2312 215.176132
919.290161 -1085.89941 211.364151
913.190125 -1083.19434 213.134964
918.80603 -1070.52612 223.176132
924.906128 -1073.2312 223.176132
919.290161 -1085.89941 219.364151
913.190125 -1083.19434 221.134964
3 5 4 7
3 3 0 1
3 7 6 5
3 1 2 3
3 0 1 5
3 0 5 4
3 1 2 6
3 1 6 5
3 2 3 7
3 2 7 6
3 3 0 4
3 3 4 7
