ply
format ascii 1.0
element vertex 26
property float x
property float y
property float z
element face 24
property list uchar int vertex_indices
end_header
624.07666 2199.78711 246.326828
621.867371 2194.75024 246.326828
640.354858 2192.64233 247.000198
637.871155 2187.73511 247.000198
655.845825 2183.63013 251.055084
652.299561 2179.42603 251.055084
661.74585 2174.25977 251.055084
656.624451 2172.25439 251.055084
663.90918 2163.51025 249.709045
658.411621 2163.34473 249.709045
662.729126 2146.89648 249.709045
657.229126 2146.89648 249.709045
663.823242 2136.95239 249.709045
658.497559 2135.57886 249.709045
668.480591 2124.13501 247.01091
664.065125 2120.85571 247.01091
682.327942 2112.302 250.107422
678.568542 2108.28735 250.107422
693.292786 2100.89331 251.425461
688.847412 2097.65479 251.425461
703.12323 2083.63062 254.345184
697.917542 2081.85571 254.345184
705.624268 2064.84985 249.391495
700.141602 2064.41309 249.391495
707.604126 2028.44604 240.958633
702.112244 2028.14746 240.958633
3 0 1 2
3 1 3 2
3 2 3 4
3 3 5 4
3 4 5 6
3 5 7 6
3 6 7 8
3 7 9 8
3 8 9 10
3 9 11 10
3 10 11 12
3 11 13 12
3 12 13 14
3 13 15 14
3 14 15 16
3 15 17 16
3 16 17 18
3 17 19 18
3 18 19 20
3 19 21 20
3 20 21 22
3 21 23 22
3 22 23 24
3 23 25 24
