ply
format ascii 1.0
element vertex 12
property float x
property float y
property float z
element face 20
property list uchar int vertex_indices
end_header
-3014.35425 -43.5259209 227.06163
-3070.00049 -43.5927124 227.901321
-3069.99072 -58.4872589 227.901321
-3065.81763 -58.4872589 227.901321
-3065.80786 -63.8194656 229.606705
-3014.3252 -63.7638054 223.398254
-3014.35425 -43.5259209 235.06163
-3070.00049 -43.5927124 235.901321
-3069.99072 -58.4872589 235.901321
-3065.81763 -58.4872589 235.901321
-3065.80786 -63.8194656 237.606705
-3014.3252 -63.7638054 231.398254
3 10 11 6
3 0 5 4
3 6 7 8
3 2 1 0
3 9 10 6
3 0 4 3
3 6 8 9
3 3 2 0
3 0 1 7
3 0 7 6
3 1 2 8
3 1 8 7
3 2 3 9
3 2 9 8
3 3 4 10
3 3 10 9
3 4 5 11
3 4 11 10
3 5 0 6
3 5 6 11
