ply
format ascii 1.0
element vertex 8
property float x
property float y
property float z
element face 12
property list uchar int vertex_indices
end_header
-1541.12927 1094.74927 260.987579
-1519.28528 1095.16113 260.806091
-1519.08191 1084.46338 260.806091
-1540.92603 1084.05151 260.987579
-1541.12927 1094.74927 268.987579
-1519.28528 1095.16113 268.806091
-1519.08191 1084.46338 268.806091
-1540.92603 1084.05151 268.987579
3 5 4 7
3 3 0 1
3 7 6 5
3 1 2 3
3 0 1 5
3 0 5 4
3 1 2 6
3 1 6 5
3 2 3 7
3 2 7 6
3 3 0 4
3 3 4 7
