ply
format ascii 1.0
element vertex 48
property float x
property float y
property float z
element face 92
property list uchar int vertex_indices
end_header
1406.86975 -1009.16687 216.694473
1403.10315 -997.233398 216.694473
1408.81592 -995.429993 216.694473
1407.90576 -992.535706 216.694473
1414.79016 -990.353821 216.694473
1421.92627 -1012.95172 216.694473
1415.04187 -1015.12244 216.694473
1414.52869 -1013.5083 216.694473
1412.14673 -1014.26526 216.694473
1415.81653 -1020.05389 216.694473
1422.18762 -1015.81262 216.694473
1427.33887 -1023.53821 211.683868
1403.19031 -1039.64612 213.263519
1398.03918 -1031.90942 215.10083
1405.66907 -1026.82214 213.263519
1402.12524 -1021.22272 213.263519
1400.7019 -1022.62537 213.263519
1401.81531 -1023.74969 213.263519
1397.25488 -1028.26929 215.10083
1380.88147 -1011.79401 221.000259
1385.44202 -1007.26331 221.000259
1386.6427 -1008.47668 221.000259
1391.28064 -1003.85693 221.000259
1400.53723 -1013.18549 216.694473
1406.86975 -1009.16687 376.694458
1403.10315 -997.233398 376.694458
1408.81592 -995.429993 376.694458
1407.90576 -992.535706 376.694458
1414.79016 -990.353821 376.694458
1421.92627 -1012.95172 376.694458
1415.04187 -1015.12244 376.694458
1414.52869 -1013.5083 376.694458
1412.14673 -1014.26526 376.694458
1415.81653 -1020.05389 376.694458
1422.18762 -1015.81262 376.694458
1427.33887 -1023.53821 371.683868
1403.19031 -1039.64612 373.263519
1398.03918 -1031.90942 375.10083
1405.66907 -1026.82214 373.263519
1402.12524 -1021.22272 373.263519
1400.7019 -1022.62537 373.263519
1401.81531 -1023.74969 373.263519
1397.25488 -1028.26929 375.10083
1380.88147 -1011.79401 381.000244
1385.44202 -1007.26331 381.000244
1386.6427 -1008.47668 381.000244
1391.28064 -1003.85693 381.000244
1400.53723 -1013.18549 376.694458
3 47 46 45
3 21 22 23
3 45 44 43
3 19 20 21
3 43 42 41
3 17 18 19
3 38 37 36
3 12 13 14
3 36 35 34
3 10 11 12
3 31 30 29
3 5 6 7
3 29 28 27
3 3 4 5
3 26 25 24
3 0 1 2
3 47 45 43
3 19 21 23
3 43 41 40
3 16 17 19
3 38 36 34
3 10 12 14
3 31 29 27
3 3 5 7
3 47 43 40
3 16 19 23
3 38 34 33
3 9 10 14
3 31 27 26
3 2 3 7
3 24 47 40
3 16 23 0
3 39 38 33
3 9 14 15
3 32 31 26
3 2 7 8
3 24 40 39
3 15 16 0
3 39 33 32
3 8 9 15
3 32 26 24
3 0 2 8
3 24 39 32
3 8 15 0
3 0 1 25
3 0 25 24
3 1 2 26
3 1 26 25
3 2 3 27
3 2 27 26
3 3 4 28
3 3 28 27
3 4 5 29
3 4 29 28
3 5 6 30
3 5 30 29
3 6 7 31
3 6 31 30
3 7 8 32
3 7 32 31
3 8 9 33
3 8 33 32
3 9 10 34
3 9 34 33
3 10 11 35
3 10 35 34
3 11 12 36
3 11 36 35
3 12 13 37
3 12 37 36
3 13 14 38
3 13 38 37
3 14 15 39
3 14 39 38
3 15 16 40
3 15 40 39
3 16 17 41
3 16 41 40
3 17 18 42
3 17 42 41
3 18 19 43
3 18 43 42
3 19 20 44
3 19 44 43
3 20 21 45
3 20 45 44
3 21 22 46
3 21 46 45
3 22 23 47
3 22 47 46
3 23 0 24
3 23 24 47
