ply
format ascii 1.0
element vertex 46
property float x
property float y
property float z
element face 88
property list uchar int vertex_indices
end_header
2818.43555 2119.53418 269.462952
2821.5437 2110.6731 269.462952
2808.05566 2105.95337 269.462952
2805.88672 2112.14258 269.462952
2804.03735 2111.48584 269.462952
2806.04175 2105.76392 269.462952
2792.4375 2100.99951 268.725403
2789.51343 2109.34839 268.578156
2793.89966 2110.88477 268.578156
2792.50537 2114.85889 268.578156
2784.37183 2112.00903 268.578156
2783.84912 2113.50073 268.578156
2781.63184 2112.72144 268.578156
2778.86255 2120.63623 268.578156
2786.59888 2123.35254 268.578156
2785.65015 2126.05762 268.578156
2808.01685 2133.8833 262.472748
2808.96582 2131.17822 269.462952
2815.03687 2133.30444 269.462952
2817.80615 2125.38965 269.462952
2818.3291 2123.89795 269.462952
2812.90674 2122.00562 269.462952
2814.28174 2118.08716 269.462952
2818.43555 2119.53418 277.462952
2821.5437 2110.6731 277.462952
2808.05566 2105.95337 277.462952
2805.88672 2112.14258 277.462952
2804.03735 2111.48584 277.462952
2806.04175 2105.76392 277.462952
2792.4375 2100.99951 276.725403
2789.51343 2109.34839 276.578156
2793.89966 2110.88477 276.578156
2792.50537 2114.85889 276.578156
2784.37183 2112.00903 276.578156
2783.84912 2113.50073 276.578156
2781.63184 2112.72144 276.578156
2778.86255 2120.63623 276.578156
2786.59888 2123.35254 276.578156
2785.65015 2126.05762 276.578156
2808.01685 2133.8833 270.472748
2808.96582 2131.17822 277.462952
2815.03687 2133.30444 277.462952
2817.80615 2125.38965 277.462952
2818.3291 2123.89795 277.462952
2812.90674 2122.00562 277.462952
2814.28174 2118.08716 277.462952
3 24 23 45
3 22 0 1
3 44 43 42
3 19 20 21
3 42 41 40
3 17 18 19
3 40 39 38
3 15 16 17
3 37 36 35
3 12 13 14
3 34 33 32
3 9 10 11
3 31 30 29
3 6 7 8
3 29 28 27
3 4 5 6
3 26 25 24
3 1 2 3
3 44 42 40
3 17 19 21
3 40 38 37
3 14 15 17
3 37 35 34
3 11 12 14
3 31 29 27
3 4 6 8
3 26 24 45
3 22 1 3
3 45 44 40
3 17 21 22
3 40 37 34
3 11 14 17
3 32 31 27
3 4 8 9
3 27 26 45
3 22 3 4
3 40 34 32
3 9 11 17
3 32 27 45
3 22 4 9
3 45 40 32
3 9 17 22
3 0 1 24
3 0 24 23
3 1 2 25
3 1 25 24
3 2 3 26
3 2 26 25
3 3 4 27
3 3 27 26
3 4 5 28
3 4 28 27
3 5 6 29
3 5 29 28
3 6 7 30
3 6 30 29
3 7 8 31
3 7 31 30
3 8 9 32
3 8 32 31
3 9 10 33
3 9 33 32
3 10 11 34
3 10 34 33
3 11 12 35
3 11 35 34
3 12 13 36
3 12 36 35
3 13 14 37
3 13 37 36
3 14 15 38
3 14 38 37
3 15 16 39
3 15 39 38
3 16 17 40
3 16 40 39
3 17 18 41
3 17 41 40
3 18 19 42
3 18 42 41
3 19 20 43
3 19 43 42
3 20 21 44
3 20 44 43
3 21 22 45
3 21 45 44
3 22 0 23
3 22 23 45
