ply
format ascii 1.0
element vertex 8
property float x
property float y
property float z
element face 12
property list uchar int vertex_indices
end_header
2138.30688 -722.2854 202.673172
2144.91992 -727.651001 202.673172
2129.87329 -746.174561 192.010086
2123.26953 -740.820068 207.818726
2138.30688 -722.2854 210.673172
2144.91992 -727.651001 210.673172
2129.87329 -746.174561 200.010086
2123.26953 -740.820068 215.818726
3 5 4 7
3 3 0 1
3 7 6 5
3 1 2 3
3 0 1 5
3 0 5 4
3 1 2 6
3 1 6 5
3 2 3 7
3 2 7 6
3 3 0 4
3 3 4 7
