ply
format ascii 1.0
element vertex 14
property float x
property float y
property float z
element face 12
property list uchar int vertex_indices
end_header
221.709885 -1135.59668 241.522614
223.324081 -1131.93689 241.522614
203.533813 -1127.57922 228.801819
205.054657 -1123.87964 228.801819
167.415054 -1113.27148 235.318924
168.65036 -1109.46704 235.318924
115.834206 -1099.10669 229.835953
116.878609 -1095.24536 229.835953
101.664803 -1095.46619 227.897736
103.278168 -1091.80603 227.897736
73.5601425 -1080.45496 230.026947
75.8625183 -1077.18396 230.026947
50.3599205 -1059.38232 229.426453
53.0507812 -1056.42273 229.426453
3 0 1 2
3 1 3 2
3 2 3 4
3 3 5 4
3 4 5 6
3 5 7 6
3 6 7 8
3 7 9 8
3 8 9 10
3 9 11 10
3 10 11 12
3 11 13 12
