ply
format ascii 1.0
element vertex 8
property float x
property float y
property float z
element face 12
property list uchar int vertex_indices
end_header
-1025.7218 -1158.50195 207.364441
-1019.98975 -1165.20337 199.676819
-1052.19421 -1192.73267 208.717377
-1057.92639 -1186.03125 208.717377
-1025.7218 -1158.50195 239.364441
-1019.98975 -1165.20337 231.676819
-1052.19421 -1192.73267 240.717377
-1057.92639 -1186.03125 240.717377
3 5 4 7
3 3 0 1
3 7 6 5
3 1 2 3
3 0 1 5
3 0 5 4
3 1 2 6
3 1 6 5
3 2 3 7
3 2 7 6
3 3 0 4
3 3 4 7
