ply
format ascii 1.0
element vertex 8
property float x
property float y
property float z
element face 12
property list uchar int vertex_indices
end_header
1201.39417 -328.192108 270.878357
1261.95911 -361.398712 264.322937
1226.79175 -396.88739 265.885376
1184.13965 -355.532196 270.551575
1201.39417 -328.192108 278.878357
1261.95911 -361.398712 272.322937
1226.79175 -396.88739 273.885376
1184.13965 -355.532196 278.551575
3 5 4 7
3 3 0 1
3 7 6 5
3 1 2 3
3 0 1 5
3 0 5 4
3 1 2 6
3 1 6 5
3 2 3 7
3 2 7 6
3 3 0 4
3 3 4 7
