ply
format ascii 1.0
element vertex 18
property float x
property float y
property float z
element face 16
property list uchar int vertex_indices
end_header
-25.8420067 2414.10986 278.618378
-23.0166454 2411.27832 278.618378
-10.6246853 2429.26831 278.618378
-7.44314003 2426.84399 278.618378
-0.801449478 2446.90186 274.615662
2.87353659 2445.32251 274.615662
4.39503527 2464.24341 274.615662
8.32796669 2463.51416 274.615662
5.84302473 2482.79663 278.309631
9.8428688 2482.83203 278.309631
4.11151648 2496.32886 278.309631
8.03052616 2497.12964 278.309631
0.326352239 2509.69214 275.165771
4.10830164 2510.99487 275.165771
-4.89350748 2522.47778 271.50296
-1.32275403 2524.28052 271.50296
-14.6085148 2539.24146 0.0299999993
-11.1473351 2541.24658 0.0299999993
3 0 1 2
3 1 3 2
3 2 3 4
3 3 5 4
3 4 5 6
3 5 7 6
3 6 7 8
3 7 9 8
3 8 9 10
3 9 11 10
3 10 11 12
3 11 13 12
3 12 13 14
3 13 15 14
3 14 15 16
3 15 17 16
