ply
format ascii 1.0
element vertex 16
property float x
property float y
property float z
element face 14
property list uchar int vertex_indices
end_header
-1409.14246 989.461304 193.522339
-1412.59485 988.886414 193.522339
-1407.82288 981.303223 193.522339
-1411.31946 981.459778 193.522339
-1410.79016 975.852966 193.522339
-1411.9928 979.139893 193.522339
-1438.44324 969.002563 192.574646
-1438.87244 972.476135 192.574646
-1453.1261 970.580505 194.539886
-1453.79919 974.015137 194.539886
-1504.47351 956.059082 192.93367
-1505.30078 959.4599 192.93367
-1512.24304 956.927063 191.980759
-1510.00256 959.616089 191.980759
-1517.32678 966.006348 196.667587
-1514.25293 967.679993 196.667587
3 0 1 2
3 1 3 2
3 2 3 4
3 3 5 4
3 4 5 6
3 5 7 6
3 6 7 8
3 7 9 8
3 8 9 10
3 9 11 10
3 10 11 12
3 11 13 12
3 12 13 14
3 13 15 14
