ply
format ascii 1.0
element vertex 56
property float x
property float y
property float z
element face 108
property list uchar int vertex_indices
end_header
-949.257996 -65.6451035 237.886124
-955.299927 -56.9065247 237.918243
-947.941162 -51.8192215 237.918243
-945.723816 -55.0363579 237.918243
-943.709839 -53.6448631 237.918243
-946.837341 -49.1141586 237.918243
-937.425781 -42.6019707 242.82254
-926.571533 -58.2980156 242.82254
-935.992737 -64.8102112 245.460129
-939.885193 -59.1663094 242.82254
-941.89917 -60.5578041 237.918243
-940.059448 -63.2294693 245.460129
-943.75824 -65.7898178 237.886124
-939.120239 -72.502388 245.460129
-932.48761 -67.9271545 245.460129
-927.11377 -75.6972504 245.460129
-937.290222 -82.7326431 245.460129
-941.618347 -76.4653549 237.886124
-949.364502 -81.8198242 237.886124
-951.833557 -78.2464676 237.886124
-956.471558 -81.4524689 237.886124
-951.765808 -88.2540894 237.886124
-958.97937 -93.2412033 227.934311
-975.178406 -69.8084564 233.424454
-969.262329 -65.7341614 233.424454
-967.9552 -64.8213425 233.424454
-960.596375 -59.7451706 237.918243
-954.167053 -69.0403519 237.886124
-949.257996 -65.6451035 245.886124
-955.299927 -56.9065247 245.918243
-947.941162 -51.8192215 245.918243
-945.723816 -55.0363579 245.918243
-943.709839 -53.6448631 245.918243
-946.837341 -49.1141586 245.918243
-937.425781 -42.6019707 250.82254
-926.571533 -58.2980156 250.82254
-935.992737 -64.8102112 253.460129
-939.885193 -59.1663094 250.82254
-941.89917 -60.5578041 245.918243
-940.059448 -63.2294693 253.460129
-943.75824 -65.7898178 245.886124
-939.120239 -72.502388 253.460129
-932.48761 -67.9271545 253.460129
-927.11377 -75.6972504 253.460129
-937.290222 -82.7326431 253.460129
-941.618347 -76.4653549 245.886124
-949.364502 -81.8198242 245.886124
-951.833557 -78.2464676 245.886124
-956.471558 -81.4524689 245.886124
-951.765808 -88.2540894 245.886124
-958.97937 -93.2412033 235.934311
-975.178406 -69.8084564 241.424454
-969.262329 -65.7341614 241.424454
-967.9552 -64.8213425 241.424454
-960.596375 -59.7451706 245.918243
-954.167053 -69.0403519 245.886124
3 55 54 53
3 25 26 27
3 52 51 50
3 22 23 24
3 50 49 48
3 20 21 22
3 47 46 45
3 17 18 19
3 45 44 43
3 15 16 17
3 43 42 41
3 13 14 15
3 40 39 38
3 10 11 12
3 37 36 35
3 7 8 9
3 35 34 33
3 5 6 7
3 31 30 29
3 1 2 3
3 55 53 52
3 24 25 27
3 52 50 48
3 20 22 24
3 45 43 41
3 13 15 17
3 37 35 33
3 5 7 9
3 31 29 28
3 0 1 3
3 55 52 48
3 20 24 27
3 47 45 41
3 13 17 19
3 37 33 32
3 4 5 9
3 32 31 28
3 0 3 4
3 28 55 48
3 20 27 0
3 47 41 40
3 12 13 19
3 38 37 32
3 4 9 10
3 32 28 48
3 20 0 4
3 48 47 40
3 12 19 20
3 40 38 32
3 4 10 12
3 32 48 40
3 12 20 4
3 0 1 29
3 0 29 28
3 1 2 30
3 1 30 29
3 2 3 31
3 2 31 30
3 3 4 32
3 3 32 31
3 4 5 33
3 4 33 32
3 5 6 34
3 5 34 33
3 6 7 35
3 6 35 34
3 7 8 36
3 7 36 35
3 8 9 37
3 8 37 36
3 9 10 38
3 9 38 37
3 10 11 39
3 10 39 38
3 11 12 40
3 11 40 39
3 12 13 41
3 12 41 40
3 13 14 42
3 13 42 41
3 14 15 43
3 14 43 42
3 15 16 44
3 15 44 43
3 16 17 45
3 16 45 44
3 17 18 46
3 17 46 45
3 18 19 47
3 18 47 46
3 19 20 48
3 19 48 47
3 20 21 49
3 20 49 48
3 21 22 50
3 21 50 49
3 22 23 51
3 22 51 50
3 23 24 52
3 23 52 51
3 24 25 53
3 24 53 52
3 25 26 54
3 25 54 53
3 26 27 55
3 26 55 54
3 27 0 28
3 27 28 55
