ply
format ascii 1.0
element vertex 18
property float x
property float y
property float z
element face 32
property list uchar int vertex_indices
end_header
-1544.87646 196.067017 244.393234
-1559.03259 199.82962 244.393234
-1567.34998 193.985352 245.149155
-1577.34241 157.505951 241.180374
-1557.60925 151.394501 239.86113
-1554.61731 160.489304 244.213135
-1564.61938 163.862289 241.180374
-1557.60925 188.541824 244.393234
-1548.12988 185.424881 244.213135
-1544.87646 196.067017 257.193237
-1559.03259 199.82962 257.193237
-1567.34998 193.985352 257.949158
-1577.34241 157.505951 253.980377
-1557.60925 151.394501 252.661133
-1554.61731 160.489304 257.013123
-1564.61938 163.862289 253.980377
-1557.60925 188.541824 257.193237
-1548.12988 185.424881 257.013123
3 16 17 9
3 0 8 7
3 9 10 11
3 2 1 0
3 12 13 14
3 5 4 3
3 16 9 11
3 2 0 7
3 12 14 15
3 6 5 3
3 15 16 11
3 2 7 6
3 11 12 15
3 6 3 2
3 0 1 10
3 0 10 9
3 1 2 11
3 1 11 10
3 2 3 12
3 2 12 11
3 3 4 13
3 3 13 12
3 4 5 14
3 4 14 13
3 5 6 15
3 5 15 14
3 6 7 16
3 6 16 15
3 7 8 17
3 7 17 16
3 8 0 9
3 8 9 17
