ply
format ascii 1.0
element vertex 8
property float x
property float y
property float z
element face 12
property list uchar int vertex_indices
end_header
1699.76013 -1102.16309 202.119263
1718.30249 -1099.40247 202.119263
1719.82263 -1109.6438 202.119263
1701.2804 -1112.39343 202.119263
1699.76013 -1102.16309 210.119263
1718.30249 -1099.40247 210.119263
1719.82263 -1109.6438 210.119263
1701.2804 -1112.39343 210.119263
3 5 4 7
3 3 0 1
3 7 6 5
3 1 2 3
3 0 1 5
3 0 5 4
3 1 2 6
3 1 6 5
3 2 3 7
3 2 7 6
3 3 0 4
3 3 4 7
