ply
format ascii 1.0
element vertex 18
property float x
property float y
property float z
element face 32
property list uchar int vertex_indices
end_header
1706.79944 -590.004456 265.358063
1705.58911 -589.447815 265.358063
1709.16199 -581.711121 266.7034
1714.04211 -583.959778 266.7034
1719.38696 -572.371399 266.7034
1730.93835 -577.703613 274.69754
1725.87427 -588.668579 266.771545
1738.37463 -594.434937 266.771545
1734.51123 -602.795044 266.771545
1706.79944 -590.004456 273.358063
1705.58911 -589.447815 273.358063
1709.16199 -581.711121 274.7034
1714.04211 -583.959778 274.7034
1719.38696 -572.371399 274.7034
1730.93835 -577.703613 282.69754
1725.87427 -588.668579 274.771545
1738.37463 -594.434937 274.771545
1734.51123 -602.795044 274.771545
3 9 17 16
3 7 8 0
3 15 14 13
3 4 5 6
3 12 11 10
3 1 2 3
3 10 9 16
3 7 0 1
3 15 13 12
3 3 4 6
3 12 10 16
3 7 1 3
3 16 15 12
3 3 6 7
3 0 1 10
3 0 10 9
3 1 2 11
3 1 11 10
3 2 3 12
3 2 12 11
3 3 4 13
3 3 13 12
3 4 5 14
3 4 14 13
3 5 6 15
3 5 15 14
3 6 7 16
3 6 16 15
3 7 8 17
3 7 17 16
3 8 0 9
3 8 9 17
