ply
format ascii 1.0
element vertex 32
property float x
property float y
property float z
element face 30
property list uchar int vertex_indices
end_header
854.847839 -1142.3064 219.860275
853.791382 -1145.64307 219.860275
943.839417 -1170.48303 210.146942
942.84436 -1173.83862 210.146942
965.621521 -1175.17834 210.772781
965.176392 -1178.65002 210.772781
993.983398 -1176.901 209.57428
993.922791 -1180.40051 209.57428
1115.04041 -1177.75806 214.167068
1115.08704 -1181.25781 214.167068
1126.01843 -1175.3396 214.167068
1127.67651 -1178.422 214.167068
1134.06201 -1167.5697 214.637283
1137.04236 -1169.40491 214.637283
1137.06982 -1157.57129 214.637283
1140.56067 -1157.3175 214.637283
1126.84778 -1072.86914 227.678833
1130.33289 -1072.54688 227.678833
1128.30151 -1061.30908 227.678833
1131.64844 -1062.33276 227.678833
1134.01428 -1049.479 236.816345
1136.68335 -1051.74316 236.816345
1145.34351 -1041.29346 236.816345
1146.6947 -1044.52209 236.816345
1208.93921 -1017.92224 238.409637
1210.4646 -1021.07233 238.409637
1219.51636 -1005.8028 233.17688
1222.68042 -1007.29883 233.17688
1222.98926 -987.667542 245.548721
1226.48889 -987.719055 245.548721
1220.42517 -933.608032 255.493866
1223.92114 -933.442444 255.493866
3 0 1 2
3 1 3 2
3 2 3 4
3 3 5 4
3 4 5 6
3 5 7 6
3 6 7 8
3 7 9 8
3 8 9 10
3 9 11 10
3 10 11 12
3 11 13 12
3 12 13 14
3 13 15 14
3 14 15 16
3 15 17 16
3 16 17 18
3 17 19 18
3 18 19 20
3 19 21 20
3 20 21 22
3 21 23 22
3 22 23 24
3 23 25 24
3 24 25 26
3 25 27 26
3 26 27 28
3 27 29 28
3 28 29 30
3 29 31 30
