ply
format ascii 1.0
element vertex 26
property float x
property float y
property float z
element face 48
property list uchar int vertex_indices
end_header
2027.02405 -368.545441 256.342133
2030.96497 -356.188965 256.342133
1979.92761 -339.925201 271.483948
1983.05518 -330.11795 271.483948
1988.71948 -331.921326 271.483948
2043.52332 -349.38736 256.342133
2040.39587 -359.194611 256.342133
2037.88806 -367.076019 256.342133
2039.75671 -367.677155 256.342133
2038.32373 -372.174438 257.331116
2037.89771 -373.499146 257.331116
2031.31348 -371.395203 257.331116
2031.72986 -370.081635 256.342133
2027.02405 -368.545441 264.342133
2030.96497 -356.188965 264.342133
1979.92761 -339.925201 279.483948
1983.05518 -330.11795 279.483948
1988.71948 -331.921326 279.483948
2043.52332 -349.38736 264.342133
2040.39587 -359.194611 264.342133
2037.88806 -367.076019 264.342133
2039.75671 -367.677155 264.342133
2038.32373 -372.174438 265.331116
2037.89771 -373.499146 265.331116
2031.31348 -371.395203 265.331116
2031.72986 -370.081635 264.342133
3 14 13 25
3 12 0 1
3 25 24 23
3 10 11 12
3 23 22 21
3 8 9 10
3 19 18 17
3 4 5 6
3 17 16 15
3 2 3 4
3 14 25 23
3 10 12 1
3 23 21 20
3 7 8 10
3 17 15 14
3 1 2 4
3 14 23 20
3 7 10 1
3 19 17 14
3 1 4 6
3 14 20 19
3 6 7 1
3 0 1 14
3 0 14 13
3 1 2 15
3 1 15 14
3 2 3 16
3 2 16 15
3 3 4 17
3 3 17 16
3 4 5 18
3 4 18 17
3 5 6 19
3 5 19 18
3 6 7 20
3 6 20 19
3 7 8 21
3 7 21 20
3 8 9 22
3 8 22 21
3 9 10 23
3 9 23 22
3 10 11 24
3 10 24 23
3 11 12 25
3 11 25 24
3 12 0 13
3 12 13 25
