ply
format ascii 1.0
element vertex 50
property float x
property float y
property float z
element face 96
property list uchar int vertex_indices
end_header
755.130493 -1104.67896 221.924759
750.870178 -1114.77563 222.925751
752.680786 -1115.5437 222.925751
748.536621 -1125.37329 222.925751
749.843811 -1125.9187 222.925751
748.565674 -1128.94666 222.925751
747.103577 -1128.33435 222.925751
741.613525 -1141.35876 222.925751
750.560303 -1145.13245 217.651962
753.426392 -1138.34204 222.925751
766.953064 -1144.0415 219.409653
779.06604 -1143.80774 219.409653
778.959534 -1138.37537 219.409653
784.188171 -1126.49756 218.408218
786.589478 -1127.55518 218.408218
789.010132 -1122.06702 218.408218
788.245178 -1119.47327 218.408218
778.155884 -1115.22095 219.409653
777.6427 -1116.44543 219.409653
774.631409 -1115.17639 219.409653
775.183289 -1113.85168 219.409653
767.86322 -1110.75696 221.924759
766.865906 -1113.12817 221.924759
763.970764 -1111.91467 221.924759
765.219849 -1108.9425 221.924759
755.130493 -1104.67896 410.724762
750.870178 -1114.77563 411.725739
752.680786 -1115.5437 411.725739
748.536621 -1125.37329 411.725739
749.843811 -1125.9187 411.725739
748.565674 -1128.94666 411.725739
747.103577 -1128.33435 411.725739
741.613525 -1141.35876 411.725739
750.560303 -1145.13245 406.451965
753.426392 -1138.34204 411.725739
766.953064 -1144.0415 408.209656
779.06604 -1143.80774 408.209656
778.959534 -1138.37537 408.209656
784.188171 -1126.49756 407.208221
786.589478 -1127.55518 407.208221
789.010132 -1122.06702 407.208221
788.245178 -1119.47327 407.208221
778.155884 -1115.22095 408.209656
777.6427 -1116.44543 408.209656
774.631409 -1115.17639 408.209656
775.183289 -1113.85168 408.209656
767.86322 -1110.75696 410.724762
766.865906 -1113.12817 410.724762
763.970764 -1111.91467 410.724762
765.219849 -1108.9425 410.724762
3 48 49 25
3 0 24 23
3 25 26 27
3 2 1 0
3 27 28 29
3 4 3 2
3 30 31 32
3 7 6 5
3 32 33 34
3 9 8 7
3 34 35 36
3 11 10 9
3 38 39 40
3 15 14 13
3 40 41 42
3 17 16 15
3 44 45 46
3 21 20 19
3 48 25 27
3 2 0 23
3 30 32 34
3 9 7 5
3 34 36 37
3 12 11 9
3 38 40 42
3 17 15 13
3 44 46 47
3 22 21 19
3 47 48 27
3 2 23 22
3 29 30 34
3 9 5 4
3 34 37 38
3 13 12 9
3 38 42 43
3 18 17 13
3 43 44 47
3 22 19 18
3 47 27 29
3 4 2 22
3 29 34 38
3 13 9 4
3 38 43 47
3 22 18 13
3 47 29 38
3 13 4 22
3 0 1 26
3 0 26 25
3 1 2 27
3 1 27 26
3 2 3 28
3 2 28 27
3 3 4 29
3 3 29 28
3 4 5 30
3 4 30 29
3 5 6 31
3 5 31 30
3 6 7 32
3 6 32 31
3 7 8 33
3 7 33 32
3 8 9 34
3 8 34 33
3 9 10 35
3 9 35 34
3 10 11 36
3 10 36 35
3 11 12 37
3 11 37 36
3 12 13 38
3 12 38 37
3 13 14 39
3 13 39 38
3 14 15 40
3 14 40 39
3 15 16 41
3 15 41 40
3 16 17 42
3 16 42 41
3 17 18 43
3 17 43 42
3 18 19 44
3 18 44 43
3 19 20 45
3 19 45 44
3 20 21 46
3 20 46 45
3 21 22 47
3 21 47 46
3 22 23 48
3 22 48 47
3 23 24 49
3 23 49 48
3 24 0 25
3 24 25 49
