ply
format ascii 1.0
element vertex 34
property float x
property float y
property float z
element face 32
property list uchar int vertex_indices
end_header
3079.89429 -443.095978 230.787399
3081.85376 -443.496979 230.787399
3081.09155 -440.767578 230.787399
3082.05078 -439.012604 230.787399
3063.21436 -434.504578 220.895767
3065.08984 -433.809723 220.895767
3072.28418 -416.971558 218.940918
3074.146 -417.701965 218.940918
3083.90869 -381.074432 210.407837
3085.68237 -381.998413 210.407837
3097.9248 -367.996674 211.2789
3099.04883 -369.650818 211.2789
3118.02393 -357.747375 211.2789
3119.24902 -359.328247 211.2789
3134.06421 -340.051819 217.804962
3134.73535 -341.935883 217.804962
3165.604 -340.830292 221.828979
3165.49365 -342.82724 221.828979
3181.48804 -342.600922 220.379364
3181.62036 -344.596558 220.379364
3183.62012 -339.901215 220.379364
3185.08496 -341.262726 220.379364
3199.35278 -322.984222 210.025085
3200.93701 -324.205048 210.025085
3211.96143 -303.300262 220.801575
3213.9292 -303.658142 220.801575
3209.104 -270.985962 232.975266
3210.57056 -269.626007 232.975266
3179.45679 -268.462982 224.830475
3179.64307 -266.47168 224.830475
3177.02661 -268.132263 224.830475
3176.30225 -266.268097 224.830475
3151.76904 -279.335297 209.012802
3150.95825 -277.50705 209.012802
3 0 1 2
3 1 3 2
3 2 3 4
3 3 5 4
3 4 5 6
3 5 7 6
3 6 7 8
3 7 9 8
3 8 9 10
3 9 11 10
3 10 11 12
3 11 13 12
3 12 13 14
3 13 15 14
3 14 15 16
3 15 17 16
3 16 17 18
3 17 19 18
3 18 19 20
3 19 21 20
3 20 21 22
3 21 23 22
3 22 23 24
3 23 25 24
3 24 25 26
3 25 27 26
3 26 27 28
3 27 29 28
3 28 29 30
3 29 31 30
3 30 31 32
3 31 33 32
