ply
format ascii 1.0
element vertex 44
property float x
property float y
property float z
element face 42
property list uchar int vertex_indices
end_header
-1497.84973 -799.286865 252.674622
-1496.08374 -798.348145 252.674622
-1499.3407 -796.482056 252.674622
-1497.57507 -795.542542 252.674622
-1501.76025 -791.891174 252.674622
-1500.22925 -790.604431 252.674622
-1507.85718 -786.312256 250.38501
-1506.77783 -784.628418 250.38501
-1515.44531 -783.104675 250.38501
-1514.99182 -781.156799 250.38501
-1523.70728 -782.639099 250.38501
-1523.82947 -780.642822 250.38501
-1527.85474 -783.880981 250.38501
-1528.41565 -781.961243 250.38501
-1531.51465 -784.920532 250.38501
-1532.48254 -783.170349 250.38501
-1537.88245 -789.412415 252.013367
-1539.28308 -787.984802 252.013367
-1542.46655 -795.644836 252.013367
-1544.24609 -794.732178 252.013367
-1544.85645 -803.010559 252.013367
-1546.83313 -802.706299 252.013367
-1544.79114 -810.75061 257.959229
-1546.76294 -811.085327 257.959229
-1542.29895 -818.074097 257.959229
-1544.06506 -819.012573 257.959229
-1537.62195 -824.242432 257.959229
-1539.00146 -825.690552 257.959229
-1531.23376 -828.614746 252.258163
-1532.08569 -830.424194 252.258163
-1523.79468 -830.75293 252.258163
-1524.03247 -832.73877 252.258163
-1516.05835 -830.432251 252.258163
-1515.65686 -832.391541 252.258163
-1508.83276 -827.689758 252.258163
-1507.81628 -829.41217 252.258163
-1502.49133 -822.424988 251.499802
-1500.96985 -823.723145 251.499802
-1498.2981 -815.348206 251.499802
-1496.42944 -816.061157 251.499802
-1496.70776 -807.265442 251.499802
-1494.70825 -807.312439 251.499802
-1497.95593 -798.964478 252.674622
-1495.97766 -798.670532 252.674622
3 0 1 2
3 1 3 2
3 2 3 4
3 3 5 4
3 4 5 6
3 5 7 6
3 6 7 8
3 7 9 8
3 8 9 10
3 9 11 10
3 10 11 12
3 11 13 12
3 12 13 14
3 13 15 14
3 14 15 16
3 15 17 16
3 16 17 18
3 17 19 18
3 18 19 20
3 19 21 20
3 20 21 22
3 21 23 22
3 22 23 24
3 23 25 24
3 24 25 26
3 25 27 26
3 26 27 28
3 27 29 28
3 28 29 30
3 29 31 30
3 30 31 32
3 31 33 32
3 32 33 34
3 33 35 34
3 34 35 36
3 35 37 36
3 36 37 38
3 37 39 38
3 38 39 40
3 39 41 40
3 40 41 42
3 41 43 42
