ply
format ascii 1.0
element vertex 8
property float x
property float y
property float z
element face 12
property list uchar int vertex_indices
end_header
-627.668091 -552.63446 248.991318
-621.200134 -564.879639 253.703094
-628.355591 -568.898254 253.703094
-635.017273 -555.773682 248.991318
-627.668091 -552.63446 256.991333
-621.200134 -564.879639 261.703094
-628.355591 -568.898254 261.703094
-635.017273 -555.773682 256.991333
3 5 4 7
3 3 0 1
3 7 6 5
3 1 2 3
3 0 1 5
3 0 5 4
3 1 2 6
3 1 6 5
3 2 3 7
3 2 7 6
3 3 0 4
3 3 4 7
