ply
format ascii 1.0
element vertex 8
property float x
property float y
property float z
element face 12
property list uchar int vertex_indices
end_header
-1626.68518 384.998474 238.670944
-1603.05957 393.436462 242.668747
-1599.47693 383.417725 242.668747
-1623.1123 374.979706 238.670944
-1626.68518 384.998474 241.870941
-1603.05957 393.436462 245.868744
-1599.47693 383.417725 245.868744
-1623.1123 374.979706 241.870941
3 5 4 7
3 3 0 1
3 7 6 5
3 1 2 3
3 0 1 5
3 0 5 4
3 1 2 6
3 1 6 5
3 2 3 7
3 2 7 6
3 3 0 4
3 3 4 7
