ply
format ascii 1.0
element vertex 8
property float x
property float y
property float z
element face 12
property list uchar int vertex_indices
end_header
-2125.71924 -916.426575 299.082306
-2115.63965 -902.990295 297.640778
-2106.80908 -909.613831 297.640778
-2116.88867 -923.05011 297.640778
-2125.71924 -916.426575 302.282318
-2115.63965 -902.990295 300.84079
-2106.80908 -909.613831 300.84079
-2116.88867 -923.05011 300.84079
3 5 4 7
3 3 0 1
3 7 6 5
3 1 2 3
3 0 1 5
3 0 5 4
3 1 2 6
3 1 6 5
3 2 3 7
3 2 7 6
3 3 0 4
3 3 4 7
