ply
format ascii 1.0
element vertex 20
property float x
property float y
property float z
element face 18
property list uchar int vertex_indices
end_header
1365.23315 -1055.25 213.069656
1368.97302 -1053.8313 213.069656
1355.47583 -1029.52112 219.722046
1359.2876 -1028.30872 219.722046
1348.87939 -1003.84448 228.052246
1352.71558 -1002.71161 228.052246
1342.25916 -984.450806 246.767776
1345.58643 -982.230652 246.767776
1326.62744 -970.432861 246.767776
1328.97498 -967.194214 246.767776
1300.26257 -954.16272 253.928909
1302.62744 -950.936768 253.928909
1291.1499 -944.220459 253.928909
1294.60181 -942.199646 253.928909
1288.20288 -933.586853 255.722214
1292.16541 -933.040649 255.722214
1288.29797 -923.747253 259.704285
1292.20569 -924.601624 259.704285
1291.95862 -916.096863 256.544617
1295.5553 -917.847229 256.544617
3 0 1 2
3 1 3 2
3 2 3 4
3 3 5 4
3 4 5 6
3 5 7 6
3 6 7 8
3 7 9 8
3 8 9 10
3 9 11 10
3 10 11 12
3 11 13 12
3 12 13 14
3 13 15 14
3 14 15 16
3 15 17 16
3 16 17 18
3 17 19 18
