ply
format ascii 1.0
element vertex 8
property float x
property float y
property float z
element face 12
property list uchar int vertex_indices
end_header
2952.75317 -1041.75 240.59169
2956.77148 -1035.68311 240.59169
2976.63062 -1048.79663 236.051132
2972.62207 -1054.86353 243.79274
2952.75317 -1041.75 248.59169
2956.77148 -1035.68311 248.59169
2976.63062 -1048.79663 244.051132
2972.62207 -1054.86353 251.79274
3 5 4 7
3 3 0 1
3 7 6 5
3 1 2 3
3 0 1 5
3 0 5 4
3 1 2 6
3 1 6 5
3 2 3 7
3 2 7 6
3 3 0 4
3 3 4 7
