ply
format ascii 1.0
element vertex 8
property float x
property float y
property float z
element face 12
property list uchar int vertex_indices
end_header
-357.754547 -515.542847 297.063538
-327.883575 -535.546936 303.327118
-338.40863 -551.265259 303.327118
-368.279602 -531.272278 296.968323
-357.754547 -515.542847 300.26355
-327.883575 -535.546936 306.52713
-338.40863 -551.265259 306.52713
-368.279602 -531.272278 300.168335
3 5 4 7
3 3 0 1
3 7 6 5
3 1 2 3
3 0 1 5
3 0 5 4
3 1 2 6
3 1 6 5
3 2 3 7
3 2 7 6
3 3 0 4
3 3 4 7
