ply
format ascii 1.0
element vertex 18
property float x
property float y
property float z
element face 16
property list uchar int vertex_indices
end_header
-796.470764 -1122.78967 191.386459
-799.907776 -1120.74341 191.386459
-801.70813 -1131.55066 191.386459
-804.837158 -1129.05884 191.386459
-811.845581 -1142.04773 191.572723
-814.355469 -1138.93323 191.572723
-827.372559 -1152.10303 191.645035
-828.515564 -1148.26978 191.645035
-889.903687 -1165.47656 191.129837
-890.851868 -1161.59058 191.129837
-931.947021 -1177.60938 195.529999
-933.338013 -1173.85901 195.529999
-967.885437 -1194.37549 194.140396
-969.961426 -1190.9563 194.140396
-983.73291 -1209.02588 198.658142
-986.57019 -1206.2063 198.658142
-1018.63141 -1245.52222 196.277618
-1021.5224 -1242.75781 196.277618
3 0 1 2
3 1 3 2
3 2 3 4
3 3 5 4
3 4 5 6
3 5 7 6
3 6 7 8
3 7 9 8
3 8 9 10
3 9 11 10
3 10 11 12
3 11 13 12
3 12 13 14
3 13 15 14
3 14 15 16
3 15 17 16
