ply
format ascii 1.0
element vertex 14
property float x
property float y
property float z
element face 12
property list uchar int vertex_indices
end_header
1806.42871 1120.74011 200.219284
1807.03943 1117.29382 200.219284
1837.27234 1126.20459 196.643478
1838.00989 1122.78308 196.643478
1846.83899 1129.37805 196.643478
1848.52515 1126.31104 196.643478
1850.1416 1133.12195 196.643478
1853.08484 1131.22778 196.643478
1851.24951 1136.02673 196.643478
1854.74609 1136.18213 196.643478
1849.68372 1139.46399 196.643478
1852.82617 1141.00488 196.643478
1847.31409 1143.7262 195.639679
1850.3739 1145.42554 195.639679
3 0 1 2
3 1 3 2
3 2 3 4
3 3 5 4
3 4 5 6
3 5 7 6
3 6 7 8
3 7 9 8
3 8 9 10
3 9 11 10
3 10 11 12
3 11 13 12
