ply
format ascii 1.0
element vertex 12
property float x
property float y
property float z
element face 20
property list uchar int vertex_indices
end_header
1632.61096 -380.779449 290.487549
1597.56946 -448.194519 301.265686
1595.36182 -452.313354 301.265686
1677.77087 -488.247284 283.990753
1712.05713 -439.122009 296.913147
1676.4541 -419.0177 289.705292
1632.61096 -380.779449 535.487549
1597.56946 -448.194519 546.265686
1595.36182 -452.313354 546.265686
1677.77087 -488.247284 528.990723
1712.05713 -439.122009 541.913147
1676.4541 -419.0177 534.705322
3 11 6 7
3 1 0 5
3 7 8 9
3 3 2 1
3 9 10 11
3 5 4 3
3 11 7 9
3 3 1 5
3 0 1 7
3 0 7 6
3 1 2 8
3 1 8 7
3 2 3 9
3 2 9 8
3 3 4 10
3 3 10 9
3 4 5 11
3 4 11 10
3 5 0 6
3 5 6 11
