ply
format ascii 1.0
element vertex 32
property float x
property float y
property float z
element face 30
property list uchar int vertex_indices
end_header
-1692.34399 -2953.69458 0.0299999993
-1685.39038 -2954.49829 0.0299999993
-1687.03174 -2907.73999 0.0299999993
-1680.07104 -2908.48071 0.0299999993
-1686.55676 -2899.59131 0.0299999993
-1679.55847 -2899.44165 0.0299999993
-1687.38074 -2890.64429 0.0299999993
-1680.4967 -2889.37524 0.0299999993
-1689.91016 -2881.52515 0.0299999993
-1683.21533 -2879.4812 0.0299999993
-1692.82861 -2872.84058 0.0299999993
-1686.31946 -2870.26538 0.0299999993
-1696.38989 -2865.08911 0.0299999993
-1690.29126 -2861.65308 0.0299999993
-1726.9342 -2812.3623 0.0299999993
-1720.63147 -2809.31665 0.0299999993
-1742.92981 -2768.57007 0.0299999993
-1736.08521 -2767.10327 0.0299999993
-1749.229 -2708.68359 0.0299999993
-1742.2572 -2708.05615 0.0299999993
-1752.13806 -2666.41577 0.0299999993
-1745.23523 -2665.25366 0.0299999993
-1762.9447 -2627.16602 0.0299999993
-1756.19507 -2625.31055 0.0299999993
-1767.1759 -2611.78198 0.0299999993
-1760.42651 -2609.92578 0.0299999993
-1790.76111 -2526.02783 198.012207
-1784.01526 -2524.15894 198.012207
-1795.66101 -2508.9729 198.012207
-1788.93347 -2507.03882 198.012207
-1797.9458 -2501.03711 196.219147
-1791.21899 -2499.10034 196.219147
3 0 1 2
3 1 3 2
3 2 3 4
3 3 5 4
3 4 5 6
3 5 7 6
3 6 7 8
3 7 9 8
3 8 9 10
3 9 11 10
3 10 11 12
3 11 13 12
3 12 13 14
3 13 15 14
3 14 15 16
3 15 17 16
3 16 17 18
3 17 19 18
3 18 19 20
3 19 21 20
3 20 21 22
3 21 23 22
3 22 23 24
3 23 25 24
3 24 25 26
3 25 27 26
3 26 27 28
3 27 29 28
3 28 29 30
3 29 31 30
