ply
format ascii 1.0
element vertex 36
property float x
property float y
property float z
element face 68
property list uchar int vertex_indices
end_header
-676.362183 -1236.80408 197.438187
-667.686523 -1261.83984 191.208984
-627.900513 -1247.9137 191.704681
-626.670776 -1251.47595 191.704681
-613.812256 -1246.97864 192.401688
-618.111328 -1234.55542 196.204865
-606.937561 -1230.64807 195.219666
-604.497559 -1237.69458 192.401688
-592.423279 -1233.46448 195.219666
-594.611572 -1227.16382 195.219666
-603.141968 -1230.14722 195.219666
-606.550232 -1220.31763 195.219666
-612.46637 -1222.38818 195.219666
-617.230225 -1208.61792 195.219666
-652.959167 -1221.11914 196.356598
-652.155518 -1223.44568 196.356598
-666.611755 -1228.51074 196.356598
-665.101257 -1232.8634 196.356598
-676.362183 -1236.80408 205.438187
-667.686523 -1261.83984 199.208984
-627.900513 -1247.9137 199.704681
-626.670776 -1251.47595 199.704681
-613.812256 -1246.97864 200.401688
-618.111328 -1234.55542 204.204865
-606.937561 -1230.64807 203.219666
-604.497559 -1237.69458 200.401688
-592.423279 -1233.46448 203.219666
-594.611572 -1227.16382 203.219666
-603.141968 -1230.14722 203.219666
-606.550232 -1220.31763 203.219666
-612.46637 -1222.38818 203.219666
-617.230225 -1208.61792 203.219666
-652.959167 -1221.11914 204.356598
-652.155518 -1223.44568 204.356598
-666.611755 -1228.51074 204.356598
-665.101257 -1232.8634 204.356598
3 35 18 19
3 1 0 17
3 20 21 22
3 4 3 2
3 24 25 26
3 8 7 6
3 26 27 28
3 10 9 8
3 28 29 30
3 12 11 10
3 30 31 32
3 14 13 12
3 33 34 35
3 17 16 15
3 35 19 20
3 2 1 17
3 20 22 23
3 5 4 2
3 24 26 28
3 10 8 6
3 28 30 32
3 14 12 10
3 33 35 20
3 2 17 15
3 24 28 32
3 14 10 6
3 32 33 20
3 2 15 14
3 23 24 32
3 14 6 5
3 32 20 23
3 5 2 14
3 0 1 19
3 0 19 18
3 1 2 20
3 1 20 19
3 2 3 21
3 2 21 20
3 3 4 22
3 3 22 21
3 4 5 23
3 4 23 22
3 5 6 24
3 5 24 23
3 6 7 25
3 6 25 24
3 7 8 26
3 7 26 25
3 8 9 27
3 8 27 26
3 9 10 28
3 9 28 27
3 10 11 29
3 10 29 28
3 11 12 30
3 11 30 29
3 12 13 31
3 12 31 30
3 13 14 32
3 13 32 31
3 14 15 33
3 14 33 32
3 15 16 34
3 15 34 33
3 16 17 35
3 16 35 34
3 17 0 18
3 17 18 35
