ply
format ascii 1.0
element vertex 24
property float x
property float y
property float z
element face 22
property list uchar int vertex_indices
end_header
-563.439331 354.674561 212.771255
-568.307556 352.115173 212.771255
-559.200134 346.611023 206.618362
-564.084106 344.081909 206.618362
-532.581726 295.040192 201.999512
-537.738403 293.127472 201.999512
-531.258179 271.052338 205.747787
-536.738159 270.583771 205.747787
-530.314148 267.726379 205.747787
-535.300232 265.404938 205.747787
-528.201355 264.603119 205.747787
-532.300598 260.936188 205.747787
-525.094421 261.880524 205.747787
-527.913147 257.157745 205.747787
-496.432861 245.787857 214.061783
-499.311523 241.101334 214.061783
-489.40744 239.881485 214.061783
-493.246002 235.942535 214.061783
-483.267181 233.036682 214.061783
-487.437866 229.451263 214.061783
-448.782928 192.597733 209.169922
-453.427032 189.651138 209.169922
-438.239136 161.979706 211.385269
-443.443634 160.201157 211.385269
3 0 1 2
3 1 3 2
3 2 3 4
3 3 5 4
3 4 5 6
3 5 7 6
3 6 7 8
3 7 9 8
3 8 9 10
3 9 11 10
3 10 11 12
3 11 13 12
3 12 13 14
3 13 15 14
3 14 15 16
3 15 17 16
3 16 17 18
3 17 19 18
3 18 19 20
3 19 21 20
3 20 21 22
3 21 23 22
