ply
format ascii 1.0
element vertex 8
property float x
property float y
property float z
element face 12
property list uchar int vertex_indices
end_header
31.1587677 -500.737335 293.447479
52.092659 -492.54422 290.969269
64.2153397 -523.524414 289.031555
43.2814445 -531.706421 292.401093
31.1587677 -500.737335 296.647491
52.092659 -492.54422 294.169281
64.2153397 -523.524414 292.231567
43.2814445 -531.706421 295.601105
3 5 4 7
3 3 0 1
3 7 6 5
3 1 2 3
3 0 1 5
3 0 5 4
3 1 2 6
3 1 6 5
3 2 3 7
3 2 7 6
3 3 0 4
3 3 4 7
