ply
format ascii 1.0
element vertex 8
property float x
property float y
property float z
element face 12
property list uchar int vertex_indices
end_header
1705.98608 1328.18628 201.565033
1725.15784 1332.32727 199.203339
1727.1814 1322.97644 198.993393
1708.01953 1318.82422 201.565033
1705.98608 1328.18628 209.565033
1725.15784 1332.32727 207.203339
1727.1814 1322.97644 206.993393
1708.01953 1318.82422 209.565033
3 5 4 7
3 3 0 1
3 7 6 5
3 1 2 3
3 0 1 5
3 0 5 4
3 1 2 6
3 1 6 5
3 2 3 7
3 2 7 6
3 3 0 4
3 3 4 7
