ply
format ascii 1.0
element vertex 8
property float x
property float y
property float z
element face 12
property list uchar int vertex_indices
end_header
-237.505722 -406.204834 275.335297
-220.106003 -417.893372 275.335297
-229.595001 -432.019806 275.335297
-246.99472 -420.331268 269.968842
-237.505722 -406.204834 278.535309
-220.106003 -417.893372 278.535309
-229.595001 -432.019806 278.535309
-246.99472 -420.331268 273.168854
3 5 4 7
3 3 0 1
3 7 6 5
3 1 2 3
3 0 1 5
3 0 5 4
3 1 2 6
3 1 6 5
3 2 3 7
3 2 7 6
3 3 0 4
3 3 4 7
