ply
format ascii 1.0
element vertex 8
property float x
property float y
property float z
element face 12
property list uchar int vertex_indices
end_header
-1428.40393 453.437683 248.329117
-1408.39954 453.304108 248.336502
-1408.5061 437.185028 248.336502
-1428.51038 437.307495 248.329117
-1428.40393 453.437683 251.529114
-1408.39954 453.304108 251.536499
-1408.5061 437.185028 251.536499
-1428.51038 437.307495 251.529114
3 5 4 7
3 3 0 1
3 7 6 5
3 1 2 3
3 0 1 5
3 0 5 4
3 1 2 6
3 1 6 5
3 2 3 7
3 2 7 6
3 3 0 4
3 3 4 7
