ply
format ascii 1.0
element vertex 24
property float x
property float y
property float z
element face 22
property list uchar int vertex_indices
end_header
1285.0896 1201.49292 242.227615
1283.31079 1202.40698 242.227615
1278.72144 1189.12695 242.227615
1276.82043 1189.74829 242.227615
1278.47168 1181.2312 242.227615
1276.50867 1181.61401 242.227615
1275.28235 1171.45032 244.103455
1273.32678 1171.86951 244.103455
1272.29321 1152.51904 244.103455
1270.29321 1152.50684 244.103455
1275.41333 1141.81702 242.976501
1273.56372 1141.05627 242.976501
1280.38318 1132.98767 242.976501
1278.72192 1131.87415 242.976501
1286.97473 1124.19409 242.976501
1286.40247 1122.27771 242.976501
1310.50635 1124.22253 241.260895
1310.18042 1122.24927 241.260895
1329.25964 1117.14429 240.162766
1328.22119 1115.43494 240.162766
1345.97388 1102.72742 239.605148
1344.56348 1101.30933 239.605148
1369.72681 1076.93652 232.440079
1368.25562 1075.58167 232.440079
3 0 1 2
3 1 3 2
3 2 3 4
3 3 5 4
3 4 5 6
3 5 7 6
3 6 7 8
3 7 9 8
3 8 9 10
3 9 11 10
3 10 11 12
3 11 13 12
3 12 13 14
3 13 15 14
3 14 15 16
3 15 17 16
3 16 17 18
3 17 19 18
3 18 19 20
3 19 21 20
3 20 21 22
3 21 23 22
