ply
format ascii 1.0
element vertex 12
property float x
property float y
property float z
element face 10
property list uchar int vertex_indices
end_header
1913.12561 -1080.36792 178.208435
1910.08813 -1082.97058 178.208435
1917.13342 -1087.23657 173.87326
1913.76831 -1085.07422 173.87326
1901.80042 -1100.59924 180.987152
1898.73669 -1098.02759 180.987152
1904.08337 -1102.76599 180.987152
1900.63647 -1100.73645 180.987152
1896.71167 -1109.25342 180.987152
1893.60059 -1106.73914 180.987152
1897.78418 -1107.98145 180.987152
1894.75488 -1110.59363 180.987152
3 0 1 2
3 1 3 2
3 2 3 4
3 3 5 4
3 4 5 6
3 5 7 6
3 6 7 8
3 7 9 8
3 8 9 10
3 9 11 10
