ply
format ascii 1.0
element vertex 16
property float x
property float y
property float z
element face 28
property list uchar int vertex_indices
end_header
2097.98828 56.2608719 252.441315
2094.34766 57.5521774 252.441315
2103.88501 84.4580994 267.49408
2112.57031 81.3856812 267.49408
2106.4314 64.0421066 267.49408
2115.87207 61.8825035 267.49408
2112.01831 44.9953384 265.04184
2096.24536 48.5909576 252.441315
2097.98828 56.2608719 260.441315
2094.34766 57.5521774 260.441315
2103.88501 84.4580994 275.49408
2112.57031 81.3856812 275.49408
2106.4314 64.0421066 275.49408
2115.87207 61.8825035 275.49408
2112.01831 44.9953384 273.04184
2096.24536 48.5909576 260.441315
3 8 15 14
3 6 7 0
3 14 13 12
3 4 5 6
3 12 11 10
3 2 3 4
3 10 9 8
3 0 1 2
3 8 14 12
3 4 6 0
3 12 10 8
3 0 2 4
3 0 1 9
3 0 9 8
3 1 2 10
3 1 10 9
3 2 3 11
3 2 11 10
3 3 4 12
3 3 12 11
3 4 5 13
3 4 13 12
3 5 6 14
3 5 14 13
3 6 7 15
3 6 15 14
3 7 0 8
3 7 8 15
