ply
format ascii 1.0
element vertex 16
property float x
property float y
property float z
element face 28
property list uchar int vertex_indices
end_header
-496.458527 9.31744099 219.310684
-483.60965 20.2490158 219.310684
-454.000092 -14.5939856 229.174896
-458.899536 -18.7573338 219.246979
-435.825775 -45.9192886 230.220474
-446.989868 -55.4037094 230.220474
-470.063629 -28.2528858 219.246979
-466.848969 -25.5144272 219.246979
-496.458527 9.31744099 227.310684
-483.60965 20.2490158 227.310684
-454.000092 -14.5939856 237.174896
-458.899536 -18.7573338 227.246979
-435.825775 -45.9192886 238.220474
-446.989868 -55.4037094 238.220474
-470.063629 -28.2528858 227.246979
-466.848969 -25.5144272 227.246979
3 9 8 15
3 7 0 1
3 15 14 13
3 5 6 7
3 13 12 11
3 3 4 5
3 11 10 9
3 1 2 3
3 9 15 13
3 5 7 1
3 13 11 9
3 1 3 5
3 0 1 9
3 0 9 8
3 1 2 10
3 1 10 9
3 2 3 11
3 2 11 10
3 3 4 12
3 3 12 11
3 4 5 13
3 4 13 12
3 5 6 14
3 5 14 13
3 6 7 15
3 6 15 14
3 7 0 8
3 7 8 15
