ply
format ascii 1.0
element vertex 10
property float x
property float y
property float z
element face 16
property list uchar int vertex_indices
end_header
-1197.57922 1189.1593 272.189209
-1179.06604 1192.39868 264.672821
-1177.59424 1184.51733 264.672821
-1196.03003 1181.25562 272.189209
-1196.85303 1185.43018 272.189209
-1197.57922 1189.1593 280.189209
-1179.06604 1192.39868 272.672821
-1177.59424 1184.51733 272.672821
-1196.03003 1181.25562 280.189209
-1196.85303 1185.43018 280.189209
3 6 5 9
3 4 0 1
3 9 8 7
3 2 3 4
3 7 6 9
3 4 1 2
3 0 1 6
3 0 6 5
3 1 2 7
3 1 7 6
3 2 3 8
3 2 8 7
3 3 4 9
3 3 9 8
3 4 0 5
3 4 5 9
