ply
format ascii 1.0
element vertex 8
property float x
property float y
property float z
element face 12
property list uchar int vertex_indices
end_header
-2473.59766 1273.01636 287.748688
-2447.36719 1279.50623 287.748688
-2445.94385 1273.75098 283.673523
-2472.17432 1267.26111 292.082458
-2473.59766 1273.01636 295.748688
-2447.36719 1279.50623 295.748688
-2445.94385 1273.75098 291.673523
-2472.17432 1267.26111 300.082458
3 5 4 7
3 3 0 1
3 7 6 5
3 1 2 3
3 0 1 5
3 0 5 4
3 1 2 6
3 1 6 5
3 2 3 7
3 2 7 6
3 3 0 4
3 3 4 7
