ply
format ascii 1.0
element vertex 18
property float x
property float y
property float z
element face 16
property list uchar int vertex_indices
end_header
-3038.854 -69.9908829 227.184372
-3042.354 -70.004509 227.184372
-3038.49561 -162.00769 225.770264
-3041.99561 -162.021088 225.770264
-3038.40845 -186.364471 226.295151
-3041.90845 -186.377701 226.295151
-3038.26758 -223.59671 224.41983
-3041.75903 -223.351044 224.41983
-3042.67798 -227.322388 224.41983
-3043.1582 -223.855499 224.41983
-3087.77734 -231.857758 224.462631
-3088.18481 -228.381546 224.462631
-3087.87915 -231.971344 224.462631
-3090.83276 -230.093597 224.462631
-3088.3855 -233.760117 224.462631
-3091.83716 -233.180618 224.462631
-3088.51855 -236.544479 224.462631
-3092.01392 -236.362976 224.462631
3 0 1 2
3 1 3 2
3 2 3 4
3 3 5 4
3 4 5 6
3 5 7 6
3 6 7 8
3 7 9 8
3 8 9 10
3 9 11 10
3 10 11 12
3 11 13 12
3 12 13 14
3 13 15 14
3 14 15 16
3 15 17 16
