ply
format ascii 1.0
element vertex 28
property float x
property float y
property float z
element face 26
property list uchar int vertex_indices
end_header
-2301.14966 -1877.34326 198.324478
-2306.72681 -1871.60767 198.324478
-2319.68481 -1895.33215 197.396591
-2325.85718 -1890.24292 197.396591
-2333.14478 -1916.12695 197.396591
-2339.9541 -1911.92773 197.396591
-2347.85474 -1941.05383 193.786728
-2355.00854 -1937.47302 193.786728
-2370.62158 -1991.03125 183.346848
-2377.65308 -1987.2157 183.346848
-2407.84937 -2051.58325 182.425964
-2414.4978 -2047.13367 182.425964
-2445.34619 -2102.70117 199.119064
-2451.67358 -2097.80615 199.119064
-2464.39917 -2124.59717 193.054901
-2469.78247 -2118.6792 193.054901
-2766.17773 -2394.62646 168.029999
-2771.58179 -2388.72754 168.029999
-2891.60522 -2515.96143 183.736267
-2897.38013 -2510.42529 183.736267
-2966.52881 -2603.60864 0.0299999993
-2972.65405 -2598.4624 0.0299999993
-3064.59326 -2721.85645 0.0299999993
-3071.1084 -2717.21387 0.0299999993
-3178.62549 -2901.25122 0.0299999993
-3185.43188 -2897.04712 0.0299999993
-3343.48364 -3173.38672 0.0299999993
-3350.32617 -3169.2417 0.0299999993
3 0 1 2
3 1 3 2
3 2 3 4
3 3 5 4
3 4 5 6
3 5 7 6
3 6 7 8
3 7 9 8
3 8 9 10
3 9 11 10
3 10 11 12
3 11 13 12
3 12 13 14
3 13 15 14
3 14 15 16
3 15 17 16
3 16 17 18
3 17 19 18
3 18 19 20
3 19 21 20
3 20 21 22
3 21 23 22
3 22 23 24
3 23 25 24
3 24 25 26
3 25 27 26
