ply
format ascii 1.0
element vertex 10
property float x
property float y
property float z
element face 8
property list uchar int vertex_indices
end_header
-484.153656 477.36734 206.648132
-483.549774 475.460693 206.648132
-475.89502 479.983154 205.313873
-475.289825 478.076904 205.313873
-469.083557 482.144318 205.313873
-468.255096 480.323975 205.313873
-446.615662 492.928589 203.083679
-444.69165 492.382477 203.083679
-453.729004 537.193665 201.213928
-451.753693 537.506958 201.213928
3 0 1 2
3 1 3 2
3 2 3 4
3 3 5 4
3 4 5 6
3 5 7 6
3 6 7 8
3 7 9 8
