ply
format ascii 1.0
element vertex 8
property float x
property float y
property float z
element face 12
property list uchar int vertex_indices
end_header
-1173.01428 -407.329163 256.573669
-1157.35754 -413.117767 256.573669
-1168.01807 -441.98291 255.703903
-1183.68457 -436.194305 251.136475
-1173.01428 -407.329163 264.573669
-1157.35754 -413.117767 264.573669
-1168.01807 -441.98291 263.703918
-1183.68457 -436.194305 259.136475
3 5 4 7
3 3 0 1
3 7 6 5
3 1 2 3
3 0 1 5
3 0 5 4
3 1 2 6
3 1 6 5
3 2 3 7
3 2 7 6
3 3 0 4
3 3 4 7
