ply
format ascii 1.0
element vertex 20
property float x
property float y
property float z
element face 18
property list uchar int vertex_indices
end_header
2199.36621 -101.78653 255.185486
2198.90015 -103.731514 255.185486
2203.08423 -102.677063 255.185486
2202.61841 -104.622093 255.185486
2210.8584 -104.572372 251.554367
2209.91064 -106.333534 251.554367
2213.70703 -109.107491 251.554367
2211.729 -108.811546 251.554367
2205.70728 -143.457123 250.851776
2203.7522 -143.034714 250.851776
2205.34082 -147.664551 250.851776
2203.34399 -147.777374 250.851776
2206.29053 -153.456421 250.851776
2204.35034 -153.941223 250.851776
2208.09204 -158.703629 240.632675
2206.30566 -159.603317 240.632675
2210.4187 -161.977219 240.632675
2209.43994 -163.721359 240.632675
2215.93457 -162.968811 240.632675
2215.5625 -164.933884 240.632675
3 0 1 2
3 1 3 2
3 2 3 4
3 3 5 4
3 4 5 6
3 5 7 6
3 6 7 8
3 7 9 8
3 8 9 10
3 9 11 10
3 10 11 12
3 11 13 12
3 12 13 14
3 13 15 14
3 14 15 16
3 15 17 16
3 16 17 18
3 17 19 18
