ply
format ascii 1.0
element vertex 20
property float x
property float y
property float z
element face 36
property list uchar int vertex_indices
end_header
1203.17578 2.60487604 262.242126
1204.57983 -0.879423976 262.873566
1207.84277 -9.00574684 262.873566
1187.73193 -17.0764103 262.873566
1172.00732 -28.6870327 263.919281
1164.55176 -18.5903549 263.919281
1168.5022 -15.6737843 263.919281
1165.83948 -12.0670328 263.919281
1178.77551 -2.5158205 263.919281
1201.55884 6.62350988 262.242126
1203.17578 2.60487604 270.242126
1204.57983 -0.879423976 270.873566
1207.84277 -9.00574684 270.873566
1187.73193 -17.0764103 270.873566
1172.00732 -28.6870327 271.919281
1164.55176 -18.5903549 271.919281
1168.5022 -15.6737843 271.919281
1165.83948 -12.0670328 271.919281
1178.77551 -2.5158205 271.919281
1201.55884 6.62350988 270.242126
3 10 19 18
3 8 9 0
3 18 17 16
3 6 7 8
3 16 15 14
3 4 5 6
3 13 12 11
3 1 2 3
3 11 10 18
3 8 0 1
3 18 16 14
3 4 6 8
3 14 13 11
3 1 3 4
3 11 18 14
3 4 8 1
3 0 1 11
3 0 11 10
3 1 2 12
3 1 12 11
3 2 3 13
3 2 13 12
3 3 4 14
3 3 14 13
3 4 5 15
3 4 15 14
3 5 6 16
3 5 16 15
3 6 7 17
3 6 17 16
3 7 8 18
3 7 18 17
3 8 9 19
3 8 19 18
3 9 0 10
3 9 10 19
