ply
format ascii 1.0
element vertex 8
property float x
property float y
property float z
element face 12
property list uchar int vertex_indices
end_header
1525.53064 -1067.20886 212.372116
1534.16748 -1076.10327 211.722198
1524.74634 -1085.25366 214.425003
1516.10938 -1076.34814 212.372116
1525.53064 -1067.20886 220.372116
1534.16748 -1076.10327 219.722198
1524.74634 -1085.25366 222.425003
1516.10938 -1076.34814 220.372116
3 5 4 7
3 3 0 1
3 7 6 5
3 1 2 3
3 0 1 5
3 0 5 4
3 1 2 6
3 1 6 5
3 2 3 7
3 2 7 6
3 3 0 4
3 3 4 7
