ply
format ascii 1.0
element vertex 14
property float x
property float y
property float z
element face 12
property list uchar int vertex_indices
end_header
-1147.44678 -2535.13623 0.0299999993
-1147.82544 -2545.12915 0.0299999993
-1042.94861 -2539.09644 0.0299999993
-1043.12024 -2549.09497 0.0299999993
-995.528076 -2537.75684 0.0299999993
-994.953674 -2547.74048 0.0299999993
-958.786011 -2534.25635 0.0299999993
-957.410461 -2544.16113 0.0299999993
-917.41626 -2526.9126 184.331528
-915.160828 -2536.65479 184.331528
-880.602478 -2516.17847 199.33519
-877.108337 -2525.5481 199.33519
-854.751953 -2503.52441 202.231247
-850.362732 -2512.50952 202.231247
3 0 1 2
3 1 3 2
3 2 3 4
3 3 5 4
3 4 5 6
3 5 7 6
3 6 7 8
3 7 9 8
3 8 9 10
3 9 11 10
3 10 11 12
3 11 13 12
