ply
format ascii 1.0
element vertex 36
property float x
property float y
property float z
element face 34
property list uchar int vertex_indices
end_header
56.6771507 -219.236725 260.774689
61.3349915 -216.31192 260.774689
28.0922661 -173.706253 257.090881
32.9084282 -171.050201 257.090881
26.095211 -163.140305 257.090881
31.5940189 -163.025803 257.090881
27.3846035 -148.825592 257.96106
32.6671944 -150.356674 257.96106
35.6241341 -129.992859 257.96106
41.1011848 -130.494751 257.96106
32.0514374 -126.538811 257.96106
32.7254944 -121.080269 257.96106
22.8918648 -130.536911 255.849564
20.1184673 -125.787354 255.849564
0.501490951 -145.559647 255.203522
-3.09644127 -141.399734 255.203522
-48.3212433 -192.187988 266.951324
-51.7392654 -187.879028 266.951324
-62.354641 -193.245193 261.403992
-59.6661148 -188.447083 261.403992
-99.1393967 -165.558441 247.744781
-95.2882156 -161.631805 247.744781
-106.341484 -148.124023 244.924164
-101.099609 -149.789185 244.924164
-61.4644203 -44.9357872 237.743622
-59.1620331 -49.9306831 237.743622
191.75473 -9.84165192 218.151459
192.627121 -15.2720251 218.151459
212.667389 -0.894903362 218.151459
214.957184 -5.89558554 218.151459
226.840378 6.31309032 224.267487
229.696579 1.61285758 224.267487
247.254181 20.1223869 221.416275
249.543228 15.1213627 221.416275
269.924713 26.0067577 223.796402
271.296722 20.6806355 223.796402
3 0 1 2
3 1 3 2
3 2 3 4
3 3 5 4
3 4 5 6
3 5 7 6
3 6 7 8
3 7 9 8
3 8 9 10
3 9 11 10
3 10 11 12
3 11 13 12
3 12 13 14
3 13 15 14
3 14 15 16
3 15 17 16
3 16 17 18
3 17 19 18
3 18 19 20
3 19 21 20
3 20 21 22
3 21 23 22
3 22 23 24
3 23 25 24
3 24 25 26
3 25 27 26
3 26 27 28
3 27 29 28
3 28 29 30
3 29 31 30
3 30 31 32
3 31 33 32
3 32 33 34
3 33 35 34
