ply
format ascii 1.0
element vertex 8
property float x
property float y
property float z
element face 12
property list uchar int vertex_indices
end_header
2696.56006 1871.55896 274.148254
2707.4917 1867.77405 274.148254
2701.87573 1851.56592 270.723175
2690.94409 1855.33972 274.148254
2696.56006 1871.55896 282.148254
2707.4917 1867.77405 282.148254
2701.87573 1851.56592 278.723175
2690.94409 1855.33972 282.148254
3 5 4 7
3 3 0 1
3 7 6 5
3 1 2 3
3 0 1 5
3 0 5 4
3 1 2 6
3 1 6 5
3 2 3 7
3 2 7 6
3 3 0 4
3 3 4 7
