ply
format ascii 1.0
element vertex 26
property float x
property float y
property float z
element face 48
property list uchar int vertex_indices
end_header
2322.39331 -381.135681 209.662598
2318.20068 -390.119141 209.662598
2317.61011 -389.840851 209.662598
2314.64722 -396.174927 209.662598
2303.69604 -391.05423 213.330505
2305.2356 -387.770325 213.330505
2306.65894 -384.720154 213.330505
2308.80859 -385.722046 213.330505
2313.00122 -376.749695 213.330505
2310.85156 -375.736664 213.330505
2313.31104 -370.482391 215.358047
2321.06689 -374.11142 209.662598
2324.85278 -375.881378 209.662598
2322.39331 -381.135681 217.662598
2318.20068 -390.119141 217.662598
2317.61011 -389.840851 217.662598
2314.64722 -396.174927 217.662598
2303.69604 -391.05423 221.330505
2305.2356 -387.770325 221.330505
2306.65894 -384.720154 221.330505
2308.80859 -385.722046 221.330505
2313.00122 -376.749695 221.330505
2310.85156 -375.736664 221.330505
2313.31104 -370.482391 223.358047
2321.06689 -374.11142 217.662598
2324.85278 -375.881378 217.662598
3 13 25 24
3 11 12 0
3 24 23 22
3 9 10 11
3 20 19 18
3 5 6 7
3 18 17 16
3 3 4 5
3 15 14 13
3 0 1 2
3 13 24 22
3 9 11 0
3 20 18 16
3 3 5 7
3 13 22 21
3 8 9 0
3 21 20 16
3 3 7 8
3 15 13 21
3 8 0 2
3 21 16 15
3 2 3 8
3 0 1 14
3 0 14 13
3 1 2 15
3 1 15 14
3 2 3 16
3 2 16 15
3 3 4 17
3 3 17 16
3 4 5 18
3 4 18 17
3 5 6 19
3 5 19 18
3 6 7 20
3 6 20 19
3 7 8 21
3 7 21 20
3 8 9 22
3 8 22 21
3 9 10 23
3 9 23 22
3 10 11 24
3 10 24 23
3 11 12 25
3 11 25 24
3 12 0 13
3 12 13 25
