ply
format ascii 1.0
element vertex 10
property float x
property float y
property float z
element face 8
property list uchar int vertex_indices
end_header
-1476.69128 -809.370239 257.067871
-1476.69128 -814.870239 257.067871
-1470.02063 -809.370239 257.067871
-1470.01929 -814.870239 257.067871
-1429.34619 -809.363831 265.596649
-1429.66931 -814.854309 265.596649
-1413.83948 -812.929932 267.71759
-1416.45728 -817.767029 267.71759
-1400.56055 -824.733398 267.71759
-1404.23206 -828.828613 267.71759
3 0 1 2
3 1 3 2
3 2 3 4
3 3 5 4
3 4 5 6
3 5 7 6
3 6 7 8
3 7 9 8
