ply
format ascii 1.0
element vertex 16
property float x
property float y
property float z
element face 28
property list uchar int vertex_indices
end_header
-3484.63086 -1239.6427 0
-3432.83838 -1234.13245 195.226166
-3427.88086 -1240.19934 209.465302
-3427.32886 -1247.54639 209.465302
-3430.46606 -1256.49646 209.465302
-3480.95142 -1261.87317 0
-3482.47168 -1247.61316 0
-3483.76904 -1247.74683 0
-3484.63086 -1239.6427 8
-3432.83838 -1234.13245 203.226166
-3427.88086 -1240.19934 217.465302
-3427.32886 -1247.54639 217.465302
-3430.46606 -1256.49646 217.465302
-3480.95142 -1261.87317 8
-3482.47168 -1247.61316 8
-3483.76904 -1247.74683 8
3 9 8 15
3 7 0 1
3 14 13 12
3 4 5 6
3 12 11 10
3 2 3 4
3 10 9 15
3 7 1 2
3 14 12 10
3 2 4 6
3 10 15 14
3 6 7 2
3 0 1 9
3 0 9 8
3 1 2 10
3 1 10 9
3 2 3 11
3 2 11 10
3 3 4 12
3 3 12 11
3 4 5 13
3 4 13 12
3 5 6 14
3 5 14 13
3 6 7 15
3 6 15 14
3 7 0 8
3 7 8 15
