ply
format ascii 1.0
element vertex 28
property float x
property float y
property float z
element face 52
property list uchar int vertex_indices
end_header
851.40509 -674.584961 275.37973
843.145813 -672.514465 275.37973
845.217896 -664.2323 275.37973
840.938171 -657.219116 275.37973
851.192078 -651.642029 275.37973
857.16626 -653.2005 275.37973
857.815002 -650.985229 275.37973
868.727356 -653.846191 270.025604
878.942566 -663.508667 270.025604
876.773682 -672.158203 270.025604
874.691895 -680.440369 266.726471
866.461609 -678.369873 270.025604
865.077026 -683.85791 266.726471
850.020508 -680.084167 275.37973
851.40509 -674.584961 283.37973
843.145813 -672.514465 283.37973
845.217896 -664.2323 283.37973
840.938171 -657.219116 283.37973
851.192078 -651.642029 283.37973
857.16626 -653.2005 283.37973
857.815002 -650.985229 283.37973
868.727356 -653.846191 278.025604
878.942566 -663.508667 278.025604
876.773682 -672.158203 278.025604
874.691895 -680.440369 274.726471
866.461609 -678.369873 278.025604
865.077026 -683.85791 274.726471
850.020508 -680.084167 283.37973
3 14 27 26
3 12 13 0
3 25 24 23
3 9 10 11
3 23 22 21
3 7 8 9
3 21 20 19
3 5 6 7
3 19 18 17
3 3 4 5
3 16 15 14
3 0 1 2
3 14 26 25
3 11 12 0
3 25 23 21
3 7 9 11
3 21 19 17
3 3 5 7
3 16 14 25
3 11 0 2
3 25 21 17
3 3 7 11
3 17 16 25
3 11 2 3
3 0 1 15
3 0 15 14
3 1 2 16
3 1 16 15
3 2 3 17
3 2 17 16
3 3 4 18
3 3 18 17
3 4 5 19
3 4 19 18
3 5 6 20
3 5 20 19
3 6 7 21
3 6 21 20
3 7 8 22
3 7 22 21
3 8 9 23
3 8 23 22
3 9 10 24
3 9 24 23
3 10 11 25
3 10 25 24
3 11 12 26
3 11 26 25
3 12 13 27
3 12 27 26
3 13 0 14
3 13 14 27
