ply
format ascii 1.0
element vertex 8
property float x
property float y
property float z
element face 12
property list uchar int vertex_indices
end_header
1881.32922 979.834167 220.987
1889.04626 975.503845 205.801407
1867.23132 938.634827 203.4711
1859.51428 940.872314 203.4711
1881.32922 979.834167 228.987
1889.04626 975.503845 213.801407
1867.23132 938.634827 211.4711
1859.51428 940.872314 211.4711
3 5 4 7
3 3 0 1
3 7 6 5
3 1 2 3
3 0 1 5
3 0 5 4
3 1 2 6
3 1 6 5
3 2 3 7
3 2 7 6
3 3 0 4
3 3 4 7
