ply
format ascii 1.0
element vertex 16
property float x
property float y
property float z
element face 14
property list uchar int vertex_indices
end_header
-2479.33203 -1490.4552 315.224548
-2476.90674 -1487.27441 315.224548
-2493.23633 -1479.67249 327.418945
-2489.80396 -1477.61877 327.418945
-2490.85352 -1470.17883 327.418945
-2490.09546 -1466.25122 327.418945
-2510.13501 -1477.08655 326.843994
-2509.58325 -1473.12488 326.843994
-2515.65161 -1464.87622 326.843994
-2511.65771 -1465.09729 326.843994
-2510.02466 -1443.16296 335.213501
-2506.22729 -1444.42004 335.213501
-2507.85498 -1441.29736 335.213501
-2503.86548 -1441.58801 335.213501
-2507.20142 -1403.60376 349.099152
-2503.20215 -1403.67346 349.099152
3 0 1 2
3 1 3 2
3 2 3 4
3 3 5 4
3 4 5 6
3 5 7 6
3 6 7 8
3 7 9 8
3 8 9 10
3 9 11 10
3 10 11 12
3 11 13 12
3 12 13 14
3 13 15 14
