ply
format ascii 1.0
element vertex 10
property float x
property float y
property float z
element face 8
property list uchar int vertex_indices
end_header
1946.23706 931.895935 176.747025
1944.46484 930.968994 176.747025
1953.16833 918.619812 175.854919
1951.55396 917.439331 175.854919
1963.98999 907.616089 175.854919
1962.57629 906.201416 175.854919
1972.06152 899.753967 168.029999
1970.55872 898.434265 168.029999
2004.78076 861.168701 168.029999
2003.25537 859.875183 168.029999
3 0 1 2
3 1 3 2
3 2 3 4
3 3 5 4
3 4 5 6
3 5 7 6
3 6 7 8
3 7 9 8
