ply
format ascii 1.0
element vertex 8
property float x
property float y
property float z
element face 12
property list uchar int vertex_indices
end_header
-811.464172 -696.570557 295.749481
-764.842224 -726.960815 303.740051
-773.246765 -739.851624 303.740051
-819.859009 -709.461365 295.749481
-811.464172 -696.570557 298.949493
-764.842224 -726.960815 306.940063
-773.246765 -739.851624 306.940063
-819.859009 -709.461365 298.949493
3 5 4 7
3 3 0 1
3 7 6 5
3 1 2 3
3 0 1 5
3 0 5 4
3 1 2 6
3 1 6 5
3 2 3 7
3 2 7 6
3 3 0 4
3 3 4 7
