ply
format ascii 1.0
element vertex 28
property float x
property float y
property float z
element face 26
property list uchar int vertex_indices
end_header
-1102.07727 1523.63989 290.954193
-1104.13391 1527.07068 290.954193
-1124.74951 1510.05066 288.278351
-1126.66028 1513.56482 288.278351
-1143.73816 1501.01135 288.961761
-1145.10474 1504.77075 288.961761
-1165.42188 1495.25989 292.150208
-1166.27649 1499.1676 292.150208
-1188.02734 1491.31836 294.46994
-1188.46301 1495.29456 294.46994
-1208.02454 1490.59412 294.46994
-1207.99023 1494.59387 294.46994
-1468.48572 1493.71094 309.016693
-1468.45581 1497.71094 309.016693
-1496.28394 1492.7616 309.948792
-1496.6427 1496.74548 309.948792
-1524.21667 1488.70959 310.413879
-1525.21777 1492.58228 310.413879
-1555.61926 1477.41516 309.294556
-1557.12036 1481.12292 309.294556
-1582.20947 1465.21899 308.607483
-1583.97839 1468.80664 308.607483
-1607.12231 1452.02356 308.843994
-1609.16357 1455.4635 308.843994
-1636.8717 1432.78113 302.169525
-1639.13684 1436.078 302.169525
-1725.91772 1370.39697 298.085846
-1728.21277 1373.67297 298.085846
3 0 1 2
3 1 3 2
3 2 3 4
3 3 5 4
3 4 5 6
3 5 7 6
3 6 7 8
3 7 9 8
3 8 9 10
3 9 11 10
3 10 11 12
3 11 13 12
3 12 13 14
3 13 15 14
3 14 15 16
3 15 17 16
3 16 17 18
3 17 19 18
3 18 19 20
3 19 21 20
3 20 21 22
3 21 23 22
3 22 23 24
3 23 25 24
3 24 25 26
3 25 27 26
