ply
format ascii 1.0
element vertex 14
property float x
property float y
property float z
element face 12
property list uchar int vertex_indices
end_header
-2842.69312 -1428.04382 332.628357
-2841.11938 -1421.22302 332.628357
-2897.40991 -1415.42017 338.007324
-2895.83594 -1408.59949 338.007324
-2937.50171 -1406.16589 334.17334
-2935.9939 -1399.3302 334.17334
-2945.41919 -1404.80518 334.17334
-2944.71118 -1397.84106 334.17334
-2953.9375 -1404.4873 334.17334
-2954.16406 -1397.49097 334.17334
-2964.30981 -1405.39966 331.413513
-2965.69385 -1398.53784 331.413513
-2995.34009 -1412.88538 333.126923
-2996.98096 -1406.08044 333.126923
3 0 1 2
3 1 3 2
3 2 3 4
3 3 5 4
3 4 5 6
3 5 7 6
3 6 7 8
3 7 9 8
3 8 9 10
3 9 11 10
3 10 11 12
3 11 13 12
