ply
format ascii 1.0
element vertex 34
property float x
property float y
property float z
element face 64
property list uchar int vertex_indices
end_header
1878.77307 -571.714661 252.003632
1902.6698 -541.190857 249.650696
1911.58752 -548.181702 248.184647
1902.11792 -560.270996 249.705017
1905.85535 -563.198669 249.705017
1910.97754 -556.641968 250.800491
1925.41431 -538.207458 248.184647
1936.69458 -547.035095 248.184647
1955.02393 -561.384216 249.163147
1944.09216 -575.343628 249.163147
1925.76294 -560.994568 250.800491
1922.25781 -565.480774 250.800491
1930.40088 -571.859375 250.800491
1919.9436 -585.217712 250.800491
1902.27283 -571.380676 249.705017
1893.18079 -582.991333 249.705017
1887.70044 -578.694397 249.705017
1878.77307 -571.714661 260.003632
1902.6698 -541.190857 257.650696
1911.58752 -548.181702 256.184631
1902.11792 -560.270996 257.705017
1905.85535 -563.198669 257.705017
1910.97754 -556.641968 258.800476
1925.41431 -538.207458 256.184631
1936.69458 -547.035095 256.184631
1955.02393 -561.384216 257.163147
1944.09216 -575.343628 257.163147
1925.76294 -560.994568 258.800476
1922.25781 -565.480774 258.800476
1930.40088 -571.859375 258.800476
1919.9436 -585.217712 258.800476
1902.27283 -571.380676 257.705017
1893.18079 -582.991333 257.705017
1887.70044 -578.694397 257.705017
3 18 17 33
3 16 0 1
3 33 32 31
3 14 15 16
3 31 30 29
3 12 13 14
3 27 26 25
3 8 9 10
3 25 24 23
3 6 7 8
3 23 22 21
3 4 5 6
3 20 19 18
3 1 2 3
3 31 29 28
3 11 12 14
3 27 25 23
3 6 8 10
3 20 18 33
3 16 1 3
3 31 28 27
3 10 11 14
3 27 23 21
3 4 6 10
3 21 20 33
3 16 3 4
3 31 27 21
3 4 10 14
3 21 33 31
3 14 16 4
3 0 1 18
3 0 18 17
3 1 2 19
3 1 19 18
3 2 3 20
3 2 20 19
3 3 4 21
3 3 21 20
3 4 5 22
3 4 22 21
3 5 6 23
3 5 23 22
3 6 7 24
3 6 24 23
3 7 8 25
3 7 25 24
3 8 9 26
3 8 26 25
3 9 10 27
3 9 27 26
3 10 11 28
3 10 28 27
3 11 12 29
3 11 29 28
3 12 13 30
3 12 30 29
3 13 14 31
3 13 31 30
3 14 15 32
3 14 32 31
3 15 16 33
3 15 33 32
3 16 0 17
3 16 17 33
