ply
format ascii 1.0
element vertex 8
property float x
property float y
property float z
element face 12
property list uchar int vertex_indices
end_header
-857.950562 -707.479919 294.032959
-832.494873 -695.145691 295.749481
-827.295288 -705.876892 295.749481
-852.750977 -718.211121 299.863892
-857.950562 -707.479919 297.232971
-832.494873 -695.145691 298.949493
-827.295288 -705.876892 298.949493
-852.750977 -718.211121 303.063904
3 5 4 7
3 3 0 1
3 7 6 5
3 1 2 3
3 0 1 5
3 0 5 4
3 1 2 6
3 1 6 5
3 2 3 7
3 2 7 6
3 3 0 4
3 3 4 7
