ply
format ascii 1.0
element vertex 16
property float x
property float y
property float z
element face 28
property list uchar int vertex_indices
end_header
2142.1604 -16.8649025 269.115051
2186.88452 -36.2344933 269.130249
2190.5835 -44.2272339 269.130249
2193.12036 -51.1847 269.130249
2185.71313 -70.5542908 259.467926
2121.48804 -39.8746414 265.327942
2132.79736 -18.6794109 269.115051
2139.95288 -21.9299393 269.115051
2142.1604 -16.8649025 277.115051
2186.88452 -36.2344933 277.130249
2190.5835 -44.2272339 277.130249
2193.12036 -51.1847 277.130249
2185.71313 -70.5542908 267.467926
2121.48804 -39.8746414 273.327942
2132.79736 -18.6794109 277.115051
2139.95288 -21.9299393 277.115051
3 9 8 15
3 7 0 1
3 15 14 13
3 5 6 7
3 13 12 11
3 3 4 5
3 11 10 9
3 1 2 3
3 9 15 13
3 5 7 1
3 13 11 9
3 1 3 5
3 0 1 9
3 0 9 8
3 1 2 10
3 1 10 9
3 2 3 11
3 2 11 10
3 3 4 12
3 3 12 11
3 4 5 13
3 4 13 12
3 5 6 14
3 5 14 13
3 6 7 15
3 6 15 14
3 7 0 8
3 7 8 15
