ply
format ascii 1.0
element vertex 8
property float x
property float y
property float z
element face 12
property list uchar int vertex_indices
end_header
560.83844 95.8238144 205.923508
565.340881 109.772148 205.923508
613.647644 94.1874237 204.713821
609.145203 80.23909 207.586349
560.83844 95.8238144 213.923508
565.340881 109.772148 213.923508
613.647644 94.1874237 212.713821
609.145203 80.23909 215.586349
3 5 4 7
3 3 0 1
3 7 6 5
3 1 2 3
3 0 1 5
3 0 5 4
3 1 2 6
3 1 6 5
3 2 3 7
3 2 7 6
3 3 0 4
3 3 4 7
