ply
format ascii 1.0
element vertex 8
property float x
property float y
property float z
element face 12
property list uchar int vertex_indices
end_header
2185.98413 -271.953522 236.185135
2192.40381 -273.723511 236.185135
2190.38013 -281.070587 234.447617
2183.97021 -279.300598 234.447617
2185.98413 -271.953522 244.185135
2192.40381 -273.723511 244.185135
2190.38013 -281.070587 242.447617
2183.97021 -279.300598 242.447617
3 5 4 7
3 3 0 1
3 7 6 5
3 1 2 3
3 0 1 5
3 0 5 4
3 1 2 6
3 1 6 5
3 2 3 7
3 2 7 6
3 3 0 4
3 3 4 7
