ply
format ascii 1.0
element vertex 32
property float x
property float y
property float z
element face 30
property list uchar int vertex_indices
end_header
68.2581635 -496.055237 289.061554
68.3640289 -500.053833 289.061554
152.594559 -493.829895 283.995361
153.047974 -497.804108 283.995361
214.439224 -479.434631 280.068237
215.877121 -483.167267 280.068237
261.571838 -451.801758 288.895508
263.51828 -455.296234 288.895508
281.926666 -441.850067 294.461365
283.28833 -445.611176 294.461365
295.453064 -439.699982 294.461365
295.130493 -443.686951 294.461365
309.671417 -444.070251 294.439423
307.829895 -447.621124 294.439423
320.966736 -453.096283 294.439423
317.526581 -455.137177 294.439423
330.263947 -478.192627 286.575592
326.742615 -480.090057 286.575592
347.476257 -502.298401 274.38266
344.077972 -504.408295 274.38266
354.842987 -517.779419 270.271698
351.332031 -519.695984 270.271698
369.219025 -542.135559 264.747314
365.868408 -544.320374 264.747314
376.820587 -551.478882 264.747314
373.604156 -553.856873 264.747314
384.432983 -562.789368 271.962341
381.813232 -565.812134 271.962341
402.035004 -573.321716 271.962341
400.075745 -576.809021 271.962341
409.636627 -576.908386 276.039642
407.927612 -580.524902 276.039642
3 0 1 2
3 1 3 2
3 2 3 4
3 3 5 4
3 4 5 6
3 5 7 6
3 6 7 8
3 7 9 8
3 8 9 10
3 9 11 10
3 10 11 12
3 11 13 12
3 12 13 14
3 13 15 14
3 14 15 16
3 15 17 16
3 16 17 18
3 17 19 18
3 18 19 20
3 19 21 20
3 20 21 22
3 21 23 22
3 22 23 24
3 23 25 24
3 24 25 26
3 25 27 26
3 26 27 28
3 27 29 28
3 28 29 30
3 29 31 30
