ply
format ascii 1.0
element vertex 10
property float x
property float y
property float z
element face 16
property list uchar int vertex_indices
end_header
-3278.09985 -322.781982 205.622223
-3283.64819 -331.609619 203.305847
-3250.39795 -352.548828 219.510864
-3242.97119 -352.548828 219.510864
-3239.52417 -347.071899 219.510864
-3278.09985 -322.781982 213.622223
-3283.64819 -331.609619 211.305847
-3250.39795 -352.548828 227.510864
-3242.97119 -352.548828 227.510864
-3239.52417 -347.071899 227.510864
3 8 9 5
3 0 4 3
3 5 6 7
3 2 1 0
3 7 8 5
3 0 3 2
3 0 1 6
3 0 6 5
3 1 2 7
3 1 7 6
3 2 3 8
3 2 8 7
3 3 4 9
3 3 9 8
3 4 0 5
3 4 5 9
