ply
format ascii 1.0
element vertex 14
property float x
property float y
property float z
element face 12
property list uchar int vertex_indices
end_header
873.401855 1988.07397 235.48288
876.833984 1990.1283 235.48288
864.42041 2003.10181 235.48288
867.612061 2005.51294 235.48288
854.296936 2013.41638 235.702393
856.917786 2016.43823 235.702393
850.079529 2015.72375 235.702393
851.200867 2019.56335 235.702393
839.151489 2017.68872 235.702393
839.510193 2021.67261 235.702393
825.526855 2017.90332 233.265594
825.558655 2021.9032 233.265594
753.85907 2018.35974 236.995026
753.884521 2022.35962 236.995026
3 0 1 2
3 1 3 2
3 2 3 4
3 3 5 4
3 4 5 6
3 5 7 6
3 6 7 8
3 7 9 8
3 8 9 10
3 9 11 10
3 10 11 12
3 11 13 12
