ply
format ascii 1.0
element vertex 34
property float x
property float y
property float z
element face 32
property list uchar int vertex_indices
end_header
-1354.14709 -414.151917 247.557236
-1355.96863 -414.977905 247.557236
-1292.76233 -549.519958 253.178635
-1294.5968 -550.316589 253.178635
-1291.79736 -558.168274 251.556946
-1293.76074 -557.787354 251.556946
-1295.91528 -564.639038 251.556946
-1296.80798 -562.849304 251.556946
-1336.62061 -580.960999 257.711243
-1337.45618 -579.143921 257.711243
-1342.52258 -585.954102 257.711243
-1344.08362 -584.703918 257.711243
-1343.71521 -589.370911 255.824524
-1345.66028 -589.836487 255.824524
-1336.44226 -609.824463 254.705551
-1338.21558 -610.749207 254.705551
-1332.22363 -611.926086 254.705551
-1332.88708 -613.812805 254.705551
-1328.8811 -612.381714 254.705551
-1328.36731 -614.314575 254.705551
-1310.83838 -606.066101 251.597931
-1310.13879 -607.939758 251.597931
-1303.57385 -602.935303 251.597931
-1303.11182 -604.881165 251.597931
-1293.90308 -602.166199 251.597931
-1294.4436 -604.091797 251.597931
-1286.88 -607.744019 250.427582
-1288.55005 -608.844421 250.427582
-1284.13123 -616.80011 250.427582
-1286.1283 -616.909302 250.427582
-1285.19519 -636.409912 256.27301
-1287.17517 -636.127747 256.27301
-1296.52759 -703.927368 267.034943
-1298.5 -703.596313 267.034943
3 0 1 2
3 1 3 2
3 2 3 4
3 3 5 4
3 4 5 6
3 5 7 6
3 6 7 8
3 7 9 8
3 8 9 10
3 9 11 10
3 10 11 12
3 11 13 12
3 12 13 14
3 13 15 14
3 14 15 16
3 15 17 16
3 16 17 18
3 17 19 18
3 18 19 20
3 19 21 20
3 20 21 22
3 21 23 22
3 22 23 24
3 23 25 24
3 24 25 26
3 25 27 26
3 26 27 28
3 27 29 28
3 28 29 30
3 29 31 30
3 30 31 32
3 31 33 32
