ply
format ascii 1.0
element vertex 16
property float x
property float y
property float z
element face 14
property list uchar int vertex_indices
end_header
810.861084 -651.924988 281.125763
808.000549 -653.941711 281.125763
834.433167 -685.370605 274.275116
831.408691 -687.131958 274.275116
846.835266 -713.741638 266.642456
844.181458 -716.023621 266.642456
865.064819 -721.553345 263.514801
864.450134 -724.998901 263.514801
883.535828 -720.20166 263.514801
884.980835 -723.389465 263.514801
895.081238 -707.898621 257.756073
897.990662 -709.844116 257.756073
904.930603 -687.746155 257.756073
908.010071 -689.409485 257.756073
913.730774 -673.359863 256.408234
916.716187 -675.186707 256.408234
3 0 1 2
3 1 3 2
3 2 3 4
3 3 5 4
3 4 5 6
3 5 7 6
3 6 7 8
3 7 9 8
3 8 9 10
3 9 11 10
3 10 11 12
3 11 13 12
3 12 13 14
3 13 15 14
