ply
format ascii 1.0
element vertex 8
property float x
property float y
property float z
element face 12
property list uchar int vertex_indices
end_header
-2358.88721 -1295.52515 365.918945
-2335.54248 -1285.40613 361.222412
-2326.18896 -1306.99097 351.169342
-2349.52417 -1317.10999 356.156982
-2358.88721 -1295.52515 373.918945
-2335.54248 -1285.40613 369.222412
-2326.18896 -1306.99097 359.169342
-2349.52417 -1317.10999 364.156982
3 5 4 7
3 3 0 1
3 7 6 5
3 1 2 3
3 0 1 5
3 0 5 4
3 1 2 6
3 1 6 5
3 2 3 7
3 2 7 6
3 3 0 4
3 3 4 7
