ply
format ascii 1.0
element vertex 26
property float x
property float y
property float z
element face 24
property list uchar int vertex_indices
end_header
3109.68677 -1233.99036 253.985855
3119.00708 -1237.61401 253.985855
3121.68408 -1203.13159 248.181564
3131.00366 -1206.7572 248.181564
3123.99487 -1197.31604 248.181564
3133.68896 -1199.77112 248.181564
3125.64355 -1187.59778 248.181564
3135.60327 -1188.49451 248.181564
3125.47339 -1181.37927 248.181564
3135.40576 -1180.21912 248.181564
3123.96021 -1173.70447 244.282166
3133.64624 -1171.21838 244.282166
3121.75195 -1166.94409 244.282166
3131.10986 -1163.41809 244.282166
3108.54688 -1132.87292 242.250015
3118.03613 -1129.71802 242.250015
3105.5769 -1118.10242 242.250015
3115.44824 -1116.50281 242.250015
3103.53394 -1102.14795 242.950455
3113.52124 -1101.64404 242.950455
3103.99634 -1086.30908 242.950455
3113.94995 -1087.27075 242.950455
3106.53052 -1071.12817 242.646164
3116.23755 -1073.53076 242.646164
3117.729 -1030.6106 248.859299
3127.36743 -1033.27502 248.859299
3 0 1 2
3 1 3 2
3 2 3 4
3 3 5 4
3 4 5 6
3 5 7 6
3 6 7 8
3 7 9 8
3 8 9 10
3 9 11 10
3 10 11 12
3 11 13 12
3 12 13 14
3 13 15 14
3 14 15 16
3 15 17 16
3 16 17 18
3 17 19 18
3 18 19 20
3 19 21 20
3 20 21 22
3 21 23 22
3 22 23 24
3 23 25 24
