ply
format ascii 1.0
element vertex 16
property float x
property float y
property float z
element face 14
property list uchar int vertex_indices
end_header
-3453.05518 2496.56885 0.0299999993
-3447.0144 2491.32373 0.0299999993
-3441.74365 2509.57202 284.911621
-3436.19141 2503.8125 284.911621
-3430.7334 2517.95923 284.911621
-3426.65503 2511.0769 284.911621
-3418.07349 2523.64697 284.911621
-3415.302 2516.14258 284.911621
-3384.34106 2535.16113 289.905914
-3381.77881 2527.58252 289.905914
-3357.75366 2544.04272 0.0299999993
-3355.24707 2536.44531 0.0299999993
-3246.93579 2580.49121 0.0299999993
-3244.31274 2572.93335 0.0299999993
-3196.89307 2599.86768 0.0299999993
-3194.00464 2592.40723 0.0299999993
3 0 1 2
3 1 3 2
3 2 3 4
3 3 5 4
3 4 5 6
3 5 7 6
3 6 7 8
3 7 9 8
3 8 9 10
3 9 11 10
3 10 11 12
3 11 13 12
3 12 13 14
3 13 15 14
