ply
format ascii 1.0
element vertex 8
property float x
property float y
property float z
element face 12
property list uchar int vertex_indices
end_header
-1000.78906 -887.338806 265.100433
-979.622742 -893.0495 275.547699
-981.685181 -900.697144 267.359039
-1002.85144 -894.98645 265.100433
-1000.78906 -887.338806 268.300446
-979.622742 -893.0495 278.747711
-981.685181 -900.697144 270.559052
-1002.85144 -894.98645 268.300446
3 5 4 7
3 3 0 1
3 7 6 5
3 1 2 3
3 0 1 5
3 0 5 4
3 1 2 6
3 1 6 5
3 2 3 7
3 2 7 6
3 3 0 4
3 3 4 7
