ply
format ascii 1.0
element vertex 26
property float x
property float y
property float z
element face 48
property list uchar int vertex_indices
end_header
-452.751038 -392.712891 237.417892
-439.369629 -384.619965 237.417892
-434.383057 -392.857605 237.417892
-441.94519 -397.510773 237.417892
-438.023743 -404.011841 241.190536
-465.987213 -420.854462 235.935547
-467.623596 -418.127136 235.935547
-473.791443 -421.845215 235.935547
-477.616089 -415.488861 235.935547
-469.482666 -410.624207 235.935547
-467.662323 -409.533264 235.935547
-472.15506 -402.108276 235.935547
-453.787079 -390.998566 237.417892
-452.751038 -392.712891 245.417892
-439.369629 -384.619965 245.417892
-434.383057 -392.857605 245.417892
-441.94519 -397.510773 245.417892
-438.023743 -404.011841 249.190536
-465.987213 -420.854462 243.935547
-467.623596 -418.127136 243.935547
-473.791443 -421.845215 243.935547
-477.616089 -415.488861 243.935547
-469.482666 -410.624207 243.935547
-467.662323 -409.533264 243.935547
-472.15506 -402.108276 243.935547
-453.787079 -390.998566 245.417892
3 13 25 24
3 11 12 0
3 22 21 20
3 7 8 9
3 19 18 17
3 4 5 6
3 16 15 14
3 1 2 3
3 13 24 23
3 10 11 0
3 23 22 20
3 7 9 10
3 19 17 16
3 3 4 6
3 16 14 13
3 0 1 3
3 13 23 20
3 7 10 0
3 20 19 16
3 3 6 7
3 16 13 20
3 7 0 3
3 0 1 14
3 0 14 13
3 1 2 15
3 1 15 14
3 2 3 16
3 2 16 15
3 3 4 17
3 3 17 16
3 4 5 18
3 4 18 17
3 5 6 19
3 5 19 18
3 6 7 20
3 6 20 19
3 7 8 21
3 7 21 20
3 8 9 22
3 8 22 21
3 9 10 23
3 9 23 22
3 10 11 24
3 10 24 23
3 11 12 25
3 11 25 24
3 12 0 13
3 12 13 25
