ply
format ascii 1.0
element vertex 13
property float x
property float y
property float z
element face 11
property list uchar int vertex_indices
end_header
543.913208 -212.174942 260.11145
590.564209 -190.690292 254.821976
599.191467 -184.634506 223.133392
625.818726 -161.123825 218.481857
631.512146 -153.598633 219.30864
636.837585 -143.869308 219.30864
641.427185 -133.761505 219.30864
640.691284 -123.108223 218.889694
639.045227 -124.577644 219.30864
610.210266 -123.29747 220.057098
606.676147 -121.004288 220.057098
601.215088 -128.44043 220.444702
549.606567 -207.043121 260.11145
3 12 0 1
3 1 2 3
3 3 4 5
3 5 6 7
3 9 10 11
3 11 12 1
3 1 3 5
3 5 7 8
3 8 9 11
3 11 1 5
3 5 8 11
