ply
format ascii 1.0
element vertex 22
property float x
property float y
property float z
element face 40
property list uchar int vertex_indices
end_header
1679.12646 83.2558441 282.092407
1673.44275 81.0183258 282.092407
1669.37598 91.3265076 282.092407
1663.63428 89.0555954 268.240143
1660.03223 98.1949234 269.169281
1674.18835 103.772026 291.73114
1677.79028 94.6438293 291.73114
1675.05969 93.5640335 291.73114
1675.53418 92.3617783 282.092407
1681.07263 94.5547791 291.73114
1684.66492 85.437706 282.092407
1679.12646 83.2558441 290.092407
1673.44275 81.0183258 290.092407
1669.37598 91.3265076 290.092407
1663.63428 89.0555954 276.240143
1660.03223 98.1949234 277.169281
1674.18835 103.772026 299.73114
1677.79028 94.6438293 299.73114
1675.05969 93.5640335 299.73114
1675.53418 92.3617783 290.092407
1681.07263 94.5547791 299.73114
1684.66492 85.437706 290.092407
3 12 11 21
3 10 0 1
3 21 20 19
3 8 9 10
3 18 17 16
3 5 6 7
3 16 15 14
3 3 4 5
3 13 12 21
3 10 1 2
3 16 14 13
3 2 3 5
3 13 21 19
3 8 10 2
3 18 16 13
3 2 5 7
3 13 19 18
3 7 8 2
3 0 1 12
3 0 12 11
3 1 2 13
3 1 13 12
3 2 3 14
3 2 14 13
3 3 4 15
3 3 15 14
3 4 5 16
3 4 16 15
3 5 6 17
3 5 17 16
3 6 7 18
3 6 18 17
3 7 8 19
3 7 19 18
3 8 9 20
3 8 20 19
3 9 10 21
3 9 21 20
3 10 0 11
3 10 11 21
