ply
format ascii 1.0
element vertex 14
property float x
property float y
property float z
element face 24
property list uchar int vertex_indices
end_header
-1036.90527 -404.089752 249.353424
-1024.03711 -392.568176 243.693863
-1015.17743 -402.453369 249.387039
-1028.04565 -413.974915 249.353424
-1032.99353 -418.405426 249.353424
-1055.1958 -393.603455 245.532059
-1050.24805 -389.172943 245.532059
-1036.90527 -404.089752 257.353424
-1024.03711 -392.568176 251.693863
-1015.17743 -402.453369 257.387024
-1028.04565 -413.974915 257.353424
-1032.99353 -418.405426 257.353424
-1055.1958 -393.603455 253.532059
-1050.24805 -389.172943 253.532059
3 7 13 12
3 5 6 0
3 12 11 10
3 3 4 5
3 10 9 8
3 1 2 3
3 7 12 10
3 3 5 0
3 10 8 7
3 0 1 3
3 0 1 8
3 0 8 7
3 1 2 9
3 1 9 8
3 2 3 10
3 2 10 9
3 3 4 11
3 3 11 10
3 4 5 12
3 4 12 11
3 5 6 13
3 5 13 12
3 6 0 7
3 6 7 13
