ply
format ascii 1.0
element vertex 12
property float x
property float y
property float z
element face 10
property list uchar int vertex_indices
end_header
176.220642 1002.01929 194.33667
176.924973 1003.89117 194.33667
124.665337 1021.43256 191.850998
125.050209 1023.3952 191.850998
51.5801353 1026.45117 195.626205
51.7918358 1028.43994 195.626205
20.0165195 1032.56958 193.963379
20.1277485 1034.56653 193.963379
-116.163727 1035.79675 194.212524
-116.219879 1037.7959 194.212524
-124.757881 1028.7002 194.212524
-126.003387 1030.26501 194.212524
3 0 1 2
3 1 3 2
3 2 3 4
3 3 5 4
3 4 5 6
3 5 7 6
3 6 7 8
3 7 9 8
3 8 9 10
3 9 11 10
