ply
format ascii 1.0
element vertex 32
property float x
property float y
property float z
element face 60
property list uchar int vertex_indices
end_header
-372.646484 1462.57117 236.278534
-344.857269 1462.6936 230.745972
-344.808868 1452.44104 226.109421
-350.879883 1452.41882 232.715317
-350.85083 1445.9845 232.715317
-345.806183 1446.00684 226.109421
-345.786804 1443.15698 226.109421
-343.356445 1443.16809 226.109421
-343.327423 1437.14575 226.109421
-374.224731 1437.0011 232.715317
-374.253784 1443.02344 232.715317
-371.271545 1443.03455 232.715317
-371.290894 1445.89551 232.715317
-364.435577 1445.92883 232.715317
-364.46463 1452.35205 232.715317
-372.598053 1452.3075 232.715317
-372.646484 1462.57117 244.278534
-344.857269 1462.6936 238.745972
-344.808868 1452.44104 234.109421
-350.879883 1452.41882 240.715317
-350.85083 1445.9845 240.715317
-345.806183 1446.00684 234.109421
-345.786804 1443.15698 234.109421
-343.356445 1443.16809 234.109421
-343.327423 1437.14575 234.109421
-374.224731 1437.0011 240.715317
-374.253784 1443.02344 240.715317
-371.271545 1443.03455 240.715317
-371.290894 1445.89551 240.715317
-364.435577 1445.92883 240.715317
-364.46463 1452.35205 240.715317
-372.598053 1452.3075 240.715317
3 17 16 31
3 15 0 1
3 29 28 27
3 11 12 13
3 27 26 25
3 9 10 11
3 25 24 23
3 7 8 9
3 22 21 20
3 4 5 6
3 19 18 17
3 1 2 3
3 17 31 30
3 14 15 1
3 29 27 25
3 9 11 13
3 25 23 22
3 6 7 9
3 19 17 30
3 14 1 3
3 29 25 22
3 6 9 13
3 20 19 30
3 14 3 4
3 30 29 22
3 6 13 14
3 22 20 30
3 14 4 6
3 0 1 17
3 0 17 16
3 1 2 18
3 1 18 17
3 2 3 19
3 2 19 18
3 3 4 20
3 3 20 19
3 4 5 21
3 4 21 20
3 5 6 22
3 5 22 21
3 6 7 23
3 6 23 22
3 7 8 24
3 7 24 23
3 8 9 25
3 8 25 24
3 9 10 26
3 9 26 25
3 10 11 27
3 10 27 26
3 11 12 28
3 11 28 27
3 12 13 29
3 12 29 28
3 13 14 30
3 13 30 29
3 14 15 31
3 14 31 30
3 15 0 16
3 15 16 31
