ply
format ascii 1.0
element vertex 62
property float x
property float y
property float z
element face 60
property list uchar int vertex_indices
end_header
2138.91675 411.670624 195.866379
2151.49463 405.548035 195.866379
2163.88843 403.065613 199.346191
2172.60278 404.345795 199.346191
2186.70068 407.562927 203.660248
2196.78027 407.373688 203.660248
2205.15576 403.633331 203.660248
2209.69702 399.870758 221.678162
2214.59644 395.150787 221.678162
2217.92725 387.002197 221.678162
2219.1084 375.669891 221.678162
2217.45288 365.717926 232.458603
2212.16602 354.162964 232.458603
2226.7771 358.259521 232.458603
2246.66528 353.094299 227.111542
2256.18335 336.474304 234.422043
2263.04834 327.635529 231.586655
2292.1543 405.993317 214.035492
2302.51489 419.340515 214.035492
2312.66235 407.128784 214.035492
2330.04272 415.388672 214.11734
2344.36328 414.642853 212.011246
2407.09717 395.206451 203.701797
2406.2063 389.128418 203.701797
2414.92065 384.174683 203.701797
2427.10156 375.770081 196.320206
2420.38184 287.649567 218.926407
2425.90088 280.825684 203.201462
2462.53027 266.610168 197.766983
2499.05322 293.772125 193.515808
2496.87476 317.015656 194.314438
2507.75806 332.15509 192.204041
2503.54614 372.931427 188.262146
2489.89355 382.671875 191.99617
2484.78101 434.691467 193.896194
2494.77344 447.437561 193.896194
2491.46216 477.794373 194.641647
2479.90088 486.032043 194.641647
2476.74438 523.368591 193.610519
2474.20752 524.559692 197.667068
2478.30347 532.964355 193.726913
2437.68457 560.905518 197.84552
2400.69702 578.327026 199.714706
2384.13965 584.238098 200.366241
2368.25024 589.625977 198.874512
2347.35522 594.479492 197.936203
2323.07104 598.208679 196.342102
2314.77319 599.043579 196.342102
2311.93604 589.659363 194.510651
2309.09912 590.561035 194.510651
2281 566.694153 195.831161
2267.27002 568.708984 195.831161
2253.58838 557.621582 188.019592
2242.89868 548.983215 199.849808
2240.37158 532.563599 199.849808
2220.69653 516.433411 198.097504
2205.85303 503.809753 188.752655
2200.79858 499.468292 188.752655
2185.05469 501.928467 188.752655
2153.79907 475.122711 192.595169
2151.28149 456.298584 188.815552
2144.59082 451.300354 188.815552
3 60 61 0
3 0 1 2
3 2 3 4
3 11 12 13
3 14 15 16
3 18 19 20
3 22 23 24
3 25 26 27
3 27 28 29
3 30 31 32
3 34 35 36
3 37 38 39
3 39 40 41
3 41 42 43
3 43 44 45
3 45 46 47
3 48 49 50
3 50 51 52
3 52 53 54
3 54 55 56
3 57 58 59
3 60 0 2
3 10 11 13
3 14 16 17
3 18 20 21
3 22 24 25
3 25 27 29
3 30 32 33
3 34 36 37
3 37 39 41
3 41 43 45
3 45 47 48
3 50 52 54
3 54 56 57
3 57 59 60
3 60 2 4
3 9 10 13
3 13 14 17
3 25 29 30
3 34 37 41
3 41 45 48
3 48 50 54
3 54 57 60
3 60 4 5
3 9 13 17
3 22 25 30
3 33 34 41
3 41 48 54
3 54 60 5
3 8 9 17
3 22 30 33
3 33 41 54
3 54 5 6
3 7 8 17
3 21 22 33
3 54 6 7
3 7 17 18
3 21 33 54
3 54 7 18
3 18 21 54
