ply
format ascii 1.0
element vertex 28
property float x
property float y
property float z
element face 26
property list uchar int vertex_indices
end_header
2673.01685 -2427.31909 225.477509
2672.63892 -2429.2832 225.477509
2686.93237 -2430.01733 225.477509
2686.95776 -2432.01733 225.477509
2693.17212 -2427.28027 233.733994
2694.48682 -2428.7876 233.733994
2699.42261 -2418.82227 233.733994
2700.95923 -2420.10254 233.733994
2706.7019 -2411.02075 233.98111
2708.22339 -2412.31909 233.98111
2712.9126 -2403.0769 233.98111
2714.7356 -2403.89917 233.98111
2713.10645 -2396.7832 233.98111
2715.0647 -2397.19067 233.98111
2715.74854 -2389.77173 233.98111
2717.36084 -2390.95508 233.98111
2721.31958 -2385.76904 239.316483
2721.91772 -2387.67749 239.316483
2737.78491 -2382.65991 239.316483
2738.4314 -2384.55273 239.316483
2746.76758 -2377.17578 244.245132
2748.15576 -2378.61548 244.245132
2748.14697 -2372.99683 244.245132
2750.146 -2372.9314 244.245132
2745.98926 -2362.23486 244.245132
2747.88843 -2361.60767 244.245132
2739.56982 -2347.13965 232.290405
2741.4104 -2346.35718 232.290405
3 0 1 2
3 1 3 2
3 2 3 4
3 3 5 4
3 4 5 6
3 5 7 6
3 6 7 8
3 7 9 8
3 8 9 10
3 9 11 10
3 10 11 12
3 11 13 12
3 12 13 14
3 13 15 14
3 14 15 16
3 15 17 16
3 16 17 18
3 17 19 18
3 18 19 20
3 19 21 20
3 20 21 22
3 21 23 22
3 22 23 24
3 23 25 24
3 24 25 26
3 25 27 26
