ply
format ascii 1.0
element vertex 8
property float x
property float y
property float z
element face 12
property list uchar int vertex_indices
end_header
-1296.60364 -427.110626 248.6996
-1278.03235 -419.451843 248.750763
-1268.95972 -441.4263 253.551514
-1287.53101 -449.096222 253.551514
-1296.60364 -427.110626 251.899597
-1278.03235 -419.451843 251.95076
-1268.95972 -441.4263 256.751526
-1287.53101 -449.096222 256.751526
3 5 4 7
3 3 0 1
3 7 6 5
3 1 2 3
3 0 1 5
3 0 5 4
3 1 2 6
3 1 6 5
3 2 3 7
3 2 7 6
3 3 0 4
3 3 4 7
