ply
format ascii 1.0
element vertex 76
property float x
property float y
property float z
element face 74
property list uchar int vertex_indices
end_header
522.61792 -508.669495 277.722168
519.138367 -501.46582 277.722168
516.66803 -511.520721 277.722168
513.933899 -504.002441 277.722168
508.266754 -513.872803 275.852264
506.552429 -506.058624 275.852264
482.953278 -518.952698 271.269409
481.380585 -511.108826 271.269409
482.205048 -519.097412 271.269409
480.424652 -511.298065 271.269409
472.712219 -521.271606 271.269409
470.164886 -513.687988 271.269409
464.075684 -525.112061 271.269409
459.978333 -518.240967 271.269409
456.740173 -530.717834 276.201935
450.89209 -525.25885 276.201935
411.773285 -581.372375 276.039642
405.790955 -576.060913 276.039642
385.378357 -611.094727 273.802643
379.396088 -605.783203 273.802643
367.680237 -630.992981 277.060028
362.352844 -625.024841 277.060028
354.404816 -638.380188 277.060028
351.731476 -630.840088 277.060028
337.460114 -641.86322 278.519684
336.936462 -633.880371 278.519684
314.986633 -641.06073 278.587524
315.799316 -633.102112 278.587524
217.572495 -629.676758 287.25473
218.514694 -621.732422 287.25473
191.888565 -626.435425 292.332367
193.732666 -618.650818 292.332367
68.8053284 -594.460632 284.029633
70.8572159 -586.72821 284.029633
11.7062826 -578.623047 293.258911
13.8171825 -570.906555 293.258911
8.80651188 -578.038574 293.258911
10.4038658 -570.199707 293.258911
-5.10336781 -575.154602 292.024414
-4.77293539 -567.161438 292.024414
-19.3723164 -576.777954 292.024414
-21.1979885 -568.989075 292.024414
-67.9756165 -590.041992 296.229584
-69.7504044 -582.241333 296.229584
-136.517319 -603.426208 299.520752
-137.927719 -595.551514 299.520752
-170.117462 -608.334412 297.763306
-171.099136 -600.394897 297.763306
-205.329086 -611.939392 302.135773
-206.144821 -603.98114 302.135773
-240.584732 -615.556458 307.672546
-241.165848 -607.577576 307.672546
-255.346619 -615.525452 309.668915
-254.561111 -607.564087 309.668915
-270.815826 -612.575012 310.923462
-268.701447 -604.859497 310.923462
-282.209625 -608.168823 310.923462
-278.880585 -600.894409 310.923462
-293.769287 -602.099121 310.923462
-289.629761 -595.253357 310.923462
-346.997375 -569.02301 302.257507
-342.775269 -562.227905 302.257507
-358.166809 -562.08606 303.380035
-354.011475 -555.249878 303.380035
-379.130768 -549.490784 292.49527
-375.070221 -542.5979 292.49527
-382.231506 -547.866394 292.49527
-379.153992 -540.481995 292.49527
-385.661804 -546.732178 292.49527
-384.031433 -538.900024 292.49527
-388.92627 -546.470703 292.49527
-388.822937 -538.471375 292.49527
-393.156708 -546.692932 292.49527
-393.771637 -538.716614 292.49527
-396.667175 -547.081543 292.49527
-397.542511 -539.129517 292.49527
3 0 1 2
3 1 3 2
3 2 3 4
3 3 5 4
3 4 5 6
3 5 7 6
3 6 7 8
3 7 9 8
3 8 9 10
3 9 11 10
3 10 11 12
3 11 13 12
3 12 13 14
3 13 15 14
3 14 15 16
3 15 17 16
3 16 17 18
3 17 19 18
3 18 19 20
3 19 21 20
3 20 21 22
3 21 23 22
3 22 23 24
3 23 25 24
3 24 25 26
3 25 27 26
3 26 27 28
3 27 29 28
3 28 29 30
3 29 31 30
3 30 31 32
3 31 33 32
3 32 33 34
3 33 35 34
3 34 35 36
3 35 37 36
3 36 37 38
3 37 39 38
3 38 39 40
3 39 41 40
3 40 41 42
3 41 43 42
3 42 43 44
3 43 45 44
3 44 45 46
3 45 47 46
3 46 47 48
3 47 49 48
3 48 49 50
3 49 51 50
3 50 51 52
3 51 53 52
3 52 53 54
3 53 55 54
3 54 55 56
3 55 57 56
3 56 57 58
3 57 59 58
3 58 59 60
3 59 61 60
3 60 61 62
3 61 63 62
3 62 63 64
3 63 65 64
3 64 65 66
3 65 67 66
3 66 67 68
3 67 69 68
3 68 69 70
3 69 71 70
3 70 71 72
3 71 73 72
3 72 73 74
3 73 75 74
