ply
format ascii 1.0
element vertex 8
property float x
property float y
property float z
element face 12
property list uchar int vertex_indices
end_header
-888.470276 19.2026119 239.034714
-867.091003 16.0522709 241.65892
-869.114685 2.32657743 241.65892
-890.493958 5.47691917 239.034714
-888.470276 19.2026119 247.034714
-867.091003 16.0522709 249.65892
-869.114685 2.32657743 249.65892
-890.493958 5.47691917 247.034714
3 5 4 7
3 3 0 1
3 7 6 5
3 1 2 3
3 0 1 5
3 0 5 4
3 1 2 6
3 1 6 5
3 2 3 7
3 2 7 6
3 3 0 4
3 3 4 7
