ply
format ascii 1.0
element vertex 8
property float x
property float y
property float z
element face 12
property list uchar int vertex_indices
end_header
-1510.86133 336.05127 251.254974
-1498.12866 332.411133 251.458893
-1501.42078 320.922974 251.458893
-1514.1438 324.56311 251.254974
-1510.86133 336.05127 254.454971
-1498.12866 332.411133 254.65889
-1501.42078 320.922974 254.65889
-1514.1438 324.56311 254.454971
3 5 4 7
3 3 0 1
3 7 6 5
3 1 2 3
3 0 1 5
3 0 5 4
3 1 2 6
3 1 6 5
3 2 3 7
3 2 7 6
3 3 0 4
3 3 4 7
