ply
format ascii 1.0
element vertex 10
property float x
property float y
property float z
element face 8
property list uchar int vertex_indices
end_header
3059.21338 -58.5120621 190.300262
3057.08423 -61.2899704 190.300262
3072.41724 -69.4274292 191.079224
3068.91992 -69.5660858 191.079224
3065.95801 -212.875702 195.252258
3062.4624 -212.698715 195.252258
3062.5271 -263.758636 190.340164
3059.19312 -262.693512 190.340164
3048.24463 -264.148529 190.340164
3048.47485 -260.656097 190.340164
3 0 1 2
3 1 3 2
3 2 3 4
3 3 5 4
3 4 5 6
3 5 7 6
3 6 7 8
3 7 9 8
