ply
format ascii 1.0
element vertex 80
property float x
property float y
property float z
element face 156
property list uchar int vertex_indices
end_header
-2209.88086 467.530731 194.63974
-2216.15527 473.219147 194.63974
-2213.9187 475.69046 194.63974
-2212.30151 474.232178 194.63974
-2210.72339 475.979889 194.63974
-2213.77344 478.740601 194.63974
-2217.5979 474.532715 194.63974
-2221.88745 478.417786 194.63974
-2215.60327 485.341858 194.63974
-2213.34741 483.28244 194.63974
-2207.09229 490.173126 194.63974
-2209.35815 492.232513 194.63974
-2198.31006 504.39975 193.948578
-2196.04443 502.340332 193.948578
-2189.7605 509.264404 193.948578
-2192.02612 511.323822 193.948578
-2187.47534 516.344299 193.948578
-2183.18579 512.44812 193.948578
-2186.76855 508.507446 193.948578
-2183.71851 505.735565 193.948578
-2182.16919 507.438782 193.948578
-2183.77661 508.897064 193.948578
-2181.74316 511.145691 193.948578
-2175.46875 505.446136 194.586426
-2177.86035 502.807861 194.586426
-2176.23364 501.33847 194.586426
-2179.78735 497.420013 193.948578
-2184.50269 501.694672 193.948578
-2190.19604 495.427399 193.948578
-2185.48071 491.15274 194.645996
-2188.04663 488.314087 194.645996
-2189.67334 489.794617 194.645996
-2195.28906 483.594147 194.645996
-2193.67212 482.124725 194.645996
-2196.41235 479.096832 194.645996
-2201.12793 483.37149 194.645996
-2207.03418 476.870422 194.63974
-2202.31885 472.595764 194.645996
-2205.05908 469.567871 194.63974
-2206.68555 471.048431 194.63974
-2209.88086 467.530731 210.63974
-2216.15527 473.219147 210.63974
-2213.9187 475.69046 210.63974
-2212.30151 474.232178 210.63974
-2210.72339 475.979889 210.63974
-2213.77344 478.740601 210.63974
-2217.5979 474.532715 210.63974
-2221.88745 478.417786 210.63974
-2215.60327 485.341858 210.63974
-2213.34741 483.28244 210.63974
-2207.09229 490.173126 210.63974
-2209.35815 492.232513 210.63974
-2198.31006 504.39975 209.948578
-2196.04443 502.340332 209.948578
-2189.7605 509.264404 209.948578
-2192.02612 511.323822 209.948578
-2187.47534 516.344299 209.948578
-2183.18579 512.44812 209.948578
-2186.76855 508.507446 209.948578
-2183.71851 505.735565 209.948578
-2182.16919 507.438782 209.948578
-2183.77661 508.897064 209.948578
-2181.74316 511.145691 209.948578
-2175.46875 505.446136 210.586426
-2177.86035 502.807861 210.586426
-2176.23364 501.33847 210.586426
-2179.78735 497.420013 209.948578
-2184.50269 501.694672 209.948578
-2190.19604 495.427399 209.948578
-2185.48071 491.15274 210.645996
-2188.04663 488.314087 210.645996
-2189.67334 489.794617 210.645996
-2195.28906 483.594147 210.645996
-2193.67212 482.124725 210.645996
-2196.41235 479.096832 210.645996
-2201.12793 483.37149 210.645996
-2207.03418 476.870422 210.63974
-2202.31885 472.595764 210.645996
-2205.05908 469.567871 210.63974
-2206.68555 471.048431 210.63974
3 41 40 79
3 39 0 1
3 79 78 77
3 37 38 39
3 75 74 73
3 33 34 35
3 71 70 69
3 29 30 31
3 67 66 65
3 25 26 27
3 64 63 62
3 22 23 24
3 62 61 60
3 20 21 22
3 58 57 56
3 16 17 18
3 56 55 54
3 14 15 16
3 53 52 51
3 11 12 13
3 49 48 47
3 7 8 9
3 47 46 45
3 5 6 7
3 43 42 41
3 1 2 3
3 41 79 77
3 37 39 1
3 75 73 72
3 32 33 35
3 71 69 68
3 28 29 31
3 67 65 64
3 24 25 27
3 64 62 60
3 20 22 24
3 58 56 54
3 14 16 18
3 53 51 50
3 10 11 13
3 49 47 45
3 5 7 9
3 43 41 77
3 37 1 3
3 75 72 71
3 31 32 35
3 67 64 60
3 20 24 27
3 59 58 54
3 14 18 19
3 53 50 49
3 9 10 13
3 49 45 44
3 4 5 9
3 44 43 77
3 37 3 4
3 75 71 68
3 28 31 35
3 68 67 60
3 20 27 28
3 59 54 53
3 13 14 19
3 53 49 44
3 4 9 13
3 44 77 76
3 36 37 4
3 76 75 68
3 28 35 36
3 68 60 59
3 19 20 28
3 59 53 44
3 4 13 19
3 44 76 68
3 28 36 4
3 68 59 44
3 4 19 28
3 0 1 41
3 0 41 40
3 1 2 42
3 1 42 41
3 2 3 43
3 2 43 42
3 3 4 44
3 3 44 43
3 4 5 45
3 4 45 44
3 5 6 46
3 5 46 45
3 6 7 47
3 6 47 46
3 7 8 48
3 7 48 47
3 8 9 49
3 8 49 48
3 9 10 50
3 9 50 49
3 10 11 51
3 10 51 50
3 11 12 52
3 11 52 51
3 12 13 53
3 12 53 52
3 13 14 54
3 13 54 53
3 14 15 55
3 14 55 54
3 15 16 56
3 15 56 55
3 16 17 57
3 16 57 56
3 17 18 58
3 17 58 57
3 18 19 59
3 18 59 58
3 19 20 60
3 19 60 59
3 20 21 61
3 20 61 60
3 21 22 62
3 21 62 61
3 22 23 63
3 22 63 62
3 23 24 64
3 23 64 63
3 24 25 65
3 24 65 64
3 25 26 66
3 25 66 65
3 26 27 67
3 26 67 66
3 27 28 68
3 27 68 67
3 28 29 69
3 28 69 68
3 29 30 70
3 29 70 69
3 30 31 71
3 30 71 70
3 31 32 72
3 31 72 71
3 32 33 73
3 32 73 72
3 33 34 74
3 33 74 73
3 34 35 75
3 34 75 74
3 35 36 76
3 35 76 75
3 36 37 77
3 36 77 76
3 37 38 78
3 37 78 77
3 38 39 79
3 38 79 78
3 39 0 40
3 39 40 79
