ply
format ascii 1.0
element vertex 12
property float x
property float y
property float z
element face 10
property list uchar int vertex_indices
end_header
-272.486542 1011.59509 192.744476
-268.986603 1011.61438 192.744476
-272.554352 1023.89655 190.985748
-269.054382 1023.91455 190.985748
-272.203033 1040.96069 190.985748
-269.560638 1038.66553 190.985748
-255.667206 1040.96204 192.664322
-258.30722 1038.66418 192.664322
-255.159775 1023.76917 192.664322
-258.659729 1023.7525 192.664322
-255.101685 1011.31232 192.428192
-258.601654 1011.29602 192.428192
3 0 1 2
3 1 3 2
3 2 3 4
3 3 5 4
3 4 5 6
3 5 7 6
3 6 7 8
3 7 9 8
3 8 9 10
3 9 11 10
