ply
format ascii 1.0
element vertex 20
property float x
property float y
property float z
element face 18
property list uchar int vertex_indices
end_header
3300.1897 298.467865 232.048386
3305.10132 300.943085 232.048386
3297.97339 303.90033 232.048386
3300.67529 308.690826 232.048386
3291.29224 304.131805 232.048386
3289.25 309.238586 232.048386
3288.18921 300.026611 232.048386
3282.90259 301.543915 232.048386
3279.97437 260.877045 226.499207
3274.57935 261.946075 226.499207
3263.02124 172.976379 241.591187
3257.68188 174.295914 241.591187
3254.7417 158.763763 230.096603
3249.42358 160.166565 230.096603
3246.12695 108.952484 230.844864
3240.72583 109.990692 230.844864
3242.88135 97.1706085 230.844864
3237.67773 98.9520645 230.844864
3240.70752 93.1734695 230.844864
3235.90112 95.847023 230.844864
3 0 1 2
3 1 3 2
3 2 3 4
3 3 5 4
3 4 5 6
3 5 7 6
3 6 7 8
3 7 9 8
3 8 9 10
3 9 11 10
3 10 11 12
3 11 13 12
3 12 13 14
3 13 15 14
3 14 15 16
3 15 17 16
3 16 17 18
3 17 19 18
