ply
format ascii 1.0
element vertex 160
property float x
property float y
property float z
element face 316
property list uchar int vertex_indices
end_header
-580.823425 2184.70068 316.06012
-583.176331 2185.146 316.06012
-584.154297 2179.88062 316.06012
-582.285522 2179.52441 316.06012
-583.389343 2173.61328 316.06012
-587.543213 2174.39258 316.06012
-587.853027 2172.72266 316.06012
-595.695984 2174.19214 322.892548
-595.386169 2175.85083 322.892548
-599.33667 2176.59668 322.892548
-598.223206 2182.50757 322.892548
-596.05426 2182.10693 322.892548
-595.06665 2187.37231 322.892548
-597.622864 2187.85107 322.892548
-597.564758 2188.12939 322.892548
-600.053223 2188.59692 322.892548
-601.040833 2183.33154 322.892548
-599.162415 2182.9751 322.892548
-600.266235 2177.06421 322.892548
-604.420044 2177.84351 322.892548
-604.729919 2176.17358 322.892548
-612.58252 2177.64307 322.892548
-612.272705 2179.31274 322.892548
-616.213562 2180.04761 322.892548
-615.109741 2185.9585 322.892548
-612.931091 2185.55786 322.892548
-611.953186 2190.82324 322.892548
-614.499695 2191.302 322.892548
-613.231262 2198.09229 328.898743
-611.120483 2197.70288 328.898743
-610.829956 2199.26123 328.898743
-596.74176 2196.62305 328.898743
-597.032227 2195.06445 322.892548
-595.1828 2194.71948 322.892548
-595.231262 2194.42993 322.892548
-594.233948 2194.24072 322.892548
-593.94342 2195.8103 328.898743
-579.855164 2193.17212 316.06012
-580.145691 2191.61353 316.06012
-578.296265 2191.26855 316.06012
-578.344666 2191.02368 316.06012
-577.48291 2190.86768 316.06012
-577.192444 2192.43726 316.06012
-563.104187 2189.79907 313.014618
-563.394653 2188.22949 313.014618
-561.545288 2187.88452 313.014618
-561.632446 2187.40576 313.014618
-560.025146 2187.10522 313.014618
-559.724976 2188.66357 313.014618
-545.636719 2186.03662 313.014618
-545.93689 2184.4668 313.014618
-544.07782 2184.12183 313.014618
-545.355896 2177.3313 313.014618
-548.957825 2177.99927 313.014618
-549.935791 2172.73389 313.014618
-548.067078 2172.38867 313.014618
-549.170898 2166.46655 313.014618
-553.324707 2167.24585 313.014618
-553.634583 2165.58716 313.014618
-561.477539 2167.04541 313.014618
-561.167664 2168.71509 313.014618
-565.118164 2169.44995 316.06012
-564.014343 2175.37207 313.014618
-561.835754 2174.96021 313.014618
-560.848145 2180.22559 313.014618
-563.404358 2180.70435 313.014618
-563.307556 2181.18286 313.014618
-566.415649 2181.77295 316.06012
-567.40332 2176.50757 316.06012
-565.534546 2176.15137 316.06012
-566.638367 2170.24023 316.06012
-570.792236 2171.0083 316.06012
-571.102051 2169.34961 316.06012
-578.945007 2170.81909 316.06012
-578.635193 2172.47778 316.06012
-582.585693 2173.2124 316.06012
-581.472168 2179.13477 316.06012
-579.303284 2178.7229 316.06012
-578.315674 2183.99927 316.06012
-580.862183 2184.4668 316.06012
-580.823425 2184.70068 324.06012
-583.176331 2185.146 324.06012
-584.154297 2179.88062 324.06012
-582.285522 2179.52441 324.06012
-583.389343 2173.61328 324.06012
-587.543213 2174.39258 324.06012
-587.853027 2172.72266 324.06012
-595.695984 2174.19214 330.892548
-595.386169 2175.85083 330.892548
-599.33667 2176.59668 330.892548
-598.223206 2182.50757 330.892548
-596.05426 2182.10693 330.892548
-595.06665 2187.37231 330.892548
-597.622864 2187.85107 330.892548
-597.564758 2188.12939 330.892548
-600.053223 2188.59692 330.892548
-601.040833 2183.33154 330.892548
-599.162415 2182.9751 330.892548
-600.266235 2177.06421 330.892548
-604.420044 2177.84351 330.892548
-604.729919 2176.17358 330.892548
-612.58252 2177.64307 330.892548
-612.272705 2179.31274 330.892548
-616.213562 2180.04761 330.892548
-615.109741 2185.9585 330.892548
-612.931091 2185.55786 330.892548
-611.953186 2190.82324 330.892548
-614.499695 2191.302 330.892548
-613.231262 2198.09229 336.898743
-611.120483 2197.70288 336.898743
-610.829956 2199.26123 336.898743
-596.74176 2196.62305 336.898743
-597.032227 2195.06445 330.892548
-595.1828 2194.71948 330.892548
-595.231262 2194.42993 330.892548
-594.233948 2194.24072 330.892548
-593.94342 2195.8103 336.898743
-579.855164 2193.17212 324.06012
-580.145691 2191.61353 324.06012
-578.296265 2191.26855 324.06012
-578.344666 2191.02368 324.06012
-577.48291 2190.86768 324.06012
-577.192444 2192.43726 324.06012
-563.104187 2189.79907 321.014618
-563.394653 2188.22949 321.014618
-561.545288 2187.88452 321.014618
-561.632446 2187.40576 321.014618
-560.025146 2187.10522 321.014618
-559.724976 2188.66357 321.014618
-545.636719 2186.03662 321.014618
-545.93689 2184.4668 321.014618
-544.07782 2184.12183 321.014618
-545.355896 2177.3313 321.014618
-548.957825 2177.99927 321.014618
-549.935791 2172.73389 321.014618
-548.067078 2172.38867 321.014618
-549.170898 2166.46655 321.014618
-553.324707 2167.24585 321.014618
-553.634583 2165.58716 321.014618
-561.477539 2167.04541 321.014618
-561.167664 2168.71509 321.014618
-565.118164 2169.44995 324.06012
-564.014343 2175.37207 321.014618
-561.835754 2174.96021 321.014618
-560.848145 2180.22559 321.014618
-563.404358 2180.70435 321.014618
-563.307556 2181.18286 321.014618
-566.415649 2181.77295 324.06012
-567.40332 2176.50757 324.06012
-565.534546 2176.15137 324.06012
-566.638367 2170.24023 324.06012
-570.792236 2171.0083 324.06012
-571.102051 2169.34961 324.06012
-578.945007 2170.81909 324.06012
-578.635193 2172.47778 324.06012
-582.585693 2173.2124 324.06012
-581.472168 2179.13477 324.06012
-579.303284 2178.7229 324.06012
-578.315674 2183.99927 324.06012
-580.862183 2184.4668 324.06012
3 80 159 158
3 78 79 0
3 157 156 155
3 75 76 77
3 154 153 152
3 72 73 74
3 151 150 149
3 69 70 71
3 146 145 144
3 64 65 66
3 143 142 141
3 61 62 63
3 140 139 138
3 58 59 60
3 137 136 135
3 55 56 57
3 133 132 131
3 51 52 53
3 130 129 128
3 48 49 50
3 126 125 124
3 44 45 46
3 124 123 122
3 42 43 44
3 120 119 118
3 38 39 40
3 118 117 116
3 36 37 38
3 114 113 112
3 32 33 34
3 112 111 110
3 30 31 32
3 109 108 107
3 27 28 29
3 105 104 103
3 23 24 25
3 102 101 100
3 20 21 22
3 99 98 97
3 17 18 19
3 94 93 92
3 12 13 14
3 91 90 89
3 9 10 11
3 88 87 86
3 6 7 8
3 85 84 83
3 3 4 5
3 157 155 154
3 74 75 77
3 154 152 151
3 71 72 74
3 151 149 148
3 68 69 71
3 143 141 140
3 60 61 63
3 140 138 137
3 57 58 60
3 137 135 134
3 54 55 57
3 133 131 130
3 50 51 53
3 130 128 127
3 47 48 50
3 126 124 122
3 42 44 46
3 120 118 116
3 36 38 40
3 114 112 110
3 30 32 34
3 109 107 106
3 26 27 29
3 105 103 102
3 22 23 25
3 102 100 99
3 19 20 22
3 99 97 96
3 16 17 19
3 91 89 88
3 8 9 11
3 88 86 85
3 5 6 8
3 85 83 82
3 2 3 5
3 158 157 154
3 74 77 78
3 154 151 148
3 68 71 74
3 144 143 140
3 60 63 64
3 140 137 134
3 54 57 60
3 133 130 127
3 47 50 53
3 126 122 121
3 41 42 46
3 120 116 115
3 35 36 40
3 114 110 109
3 29 30 34
3 106 105 102
3 22 25 26
3 102 99 96
3 16 19 22
3 92 91 88
3 8 11 12
3 88 85 82
3 2 5 8
3 158 154 148
3 68 74 78
3 144 140 134
3 54 60 64
3 134 133 127
3 47 53 54
3 126 121 120
3 40 41 46
3 120 115 114
3 34 35 40
3 114 109 106
3 26 29 34
3 106 102 96
3 16 22 26
3 92 88 82
3 2 8 12
3 158 148 147
3 67 68 78
3 144 134 127
3 47 54 64
3 126 120 114
3 34 40 46
3 106 96 95
3 15 16 26
3 92 82 81
3 1 2 12
3 80 158 147
3 67 78 0
3 146 144 127
3 47 64 66
3 126 114 106
3 26 34 46
3 94 92 81
3 1 12 14
3 80 147 146
3 66 67 0
3 146 127 126
3 46 47 66
3 126 106 95
3 15 26 46
3 94 81 80
3 0 1 14
3 80 146 126
3 46 66 0
3 126 95 94
3 14 15 46
3 94 80 126
3 46 0 14
3 0 1 81
3 0 81 80
3 1 2 82
3 1 82 81
3 2 3 83
3 2 83 82
3 3 4 84
3 3 84 83
3 4 5 85
3 4 85 84
3 5 6 86
3 5 86 85
3 6 7 87
3 6 87 86
3 7 8 88
3 7 88 87
3 8 9 89
3 8 89 88
3 9 10 90
3 9 90 89
3 10 11 91
3 10 91 90
3 11 12 92
3 11 92 91
3 12 13 93
3 12 93 92
3 13 14 94
3 13 94 93
3 14 15 95
3 14 95 94
3 15 16 96
3 15 96 95
3 16 17 97
3 16 97 96
3 17 18 98
3 17 98 97
3 18 19 99
3 18 99 98
3 19 20 100
3 19 100 99
3 20 21 101
3 20 101 100
3 21 22 102
3 21 102 101
3 22 23 103
3 22 103 102
3 23 24 104
3 23 104 103
3 24 25 105
3 24 105 104
3 25 26 106
3 25 106 105
3 26 27 107
3 26 107 106
3 27 28 108
3 27 108 107
3 28 29 109
3 28 109 108
3 29 30 110
3 29 110 109
3 30 31 111
3 30 111 110
3 31 32 112
3 31 112 111
3 32 33 113
3 32 113 112
3 33 34 114
3 33 114 113
3 34 35 115
3 34 115 114
3 35 36 116
3 35 116 115
3 36 37 117
3 36 117 116
3 37 38 118
3 37 118 117
3 38 39 119
3 38 119 118
3 39 40 120
3 39 120 119
3 40 41 121
3 40 121 120
3 41 42 122
3 41 122 121
3 42 43 123
3 42 123 122
3 43 44 124
3 43 124 123
3 44 45 125
3 44 125 124
3 45 46 126
3 45 126 125
3 46 47 127
3 46 127 126
3 47 48 128
3 47 128 127
3 48 49 129
3 48 129 128
3 49 50 130
3 49 130 129
3 50 51 131
3 50 131 130
3 51 52 132
3 51 132 131
3 52 53 133
3 52 133 132
3 53 54 134
3 53 134 133
3 54 55 135
3 54 135 134
3 55 56 136
3 55 136 135
3 56 57 137
3 56 137 136
3 57 58 138
3 57 138 137
3 58 59 139
3 58 139 138
3 59 60 140
3 59 140 139
3 60 61 141
3 60 141 140
3 61 62 142
3 61 142 141
3 62 63 143
3 62 143 142
3 63 64 144
3 63 144 143
3 64 65 145
3 64 145 144
3 65 66 146
3 65 146 145
3 66 67 147
3 66 147 146
3 67 68 148
3 67 148 147
3 68 69 149
3 68 149 148
3 69 70 150
3 69 150 149
3 70 71 151
3 70 151 150
3 71 72 152
3 71 152 151
3 72 73 153
3 72 153 152
3 73 74 154
3 73 154 153
3 74 75 155
3 74 155 154
3 75 76 156
3 75 156 155
3 76 77 157
3 76 157 156
3 77 78 158
3 77 158 157
3 78 79 159
3 78 159 158
3 79 0 80
3 79 80 159
