ply
format ascii 1.0
element vertex 8
property float x
property float y
property float z
element face 12
property list uchar int vertex_indices
end_header
2153.56665 -90.4470825 264.85083
2172.39941 -100.020561 260.631683
2164.69189 -115.182274 260.631683
2145.85913 -105.608803 263.996338
2153.56665 -90.4470825 272.85083
2172.39941 -100.020561 268.631683
2164.69189 -115.182274 268.631683
2145.85913 -105.608803 271.996338
3 5 4 7
3 3 0 1
3 7 6 5
3 1 2 3
3 0 1 5
3 0 5 4
3 1 2 6
3 1 6 5
3 2 3 7
3 2 7 6
3 3 0 4
3 3 4 7
