ply
format ascii 1.0
element vertex 10
property float x
property float y
property float z
element face 16
property list uchar int vertex_indices
end_header
-1672.65845 -1187.58972 230.24176
-1670.87683 -1196.25037 230.24176
-1667.58472 -1212.33606 225.332764
-1684.34546 -1215.77588 225.332764
-1689.41907 -1191.02954 230.24176
-1672.65845 -1187.58972 238.24176
-1670.87683 -1196.25037 238.24176
-1667.58472 -1212.33606 233.332764
-1684.34546 -1215.77588 233.332764
-1689.41907 -1191.02954 238.24176
3 6 5 9
3 4 0 1
3 9 8 7
3 2 3 4
3 7 6 9
3 4 1 2
3 0 1 6
3 0 6 5
3 1 2 7
3 1 7 6
3 2 3 8
3 2 8 7
3 3 4 9
3 3 9 8
3 4 0 5
3 4 5 9
