ply
format ascii 1.0
element vertex 20
property float x
property float y
property float z
element face 18
property list uchar int vertex_indices
end_header
-604.838684 1883.76733 285.496796
-607.758301 1881.83704 285.496796
-602.291199 1879.91418 285.496796
-605.212769 1877.98694 285.496796
-593.074341 1865.93201 285.496796
-595.93573 1863.9165 285.496796
-591.137878 1863.97205 285.496796
-593.360107 1861.26794 285.496796
-588.534912 1862.23462 283.177612
-590.153503 1859.13135 283.177612
-585.730469 1861.14771 283.177612
-586.644836 1857.76929 283.177612
-575.512024 1858.75049 283.177612
-576.277954 1855.33533 283.177612
-567.790161 1857.12512 283.177612
-568.449463 1853.68787 283.177612
-565.517822 1856.81946 276.643433
-565.725525 1853.32556 276.643433
-559.265747 1856.63245 281.813812
-559.370789 1853.13403 281.813812
3 0 1 2
3 1 3 2
3 2 3 4
3 3 5 4
3 4 5 6
3 5 7 6
3 6 7 8
3 7 9 8
3 8 9 10
3 9 11 10
3 10 11 12
3 11 13 12
3 12 13 14
3 13 15 14
3 14 15 16
3 15 17 16
3 16 17 18
3 17 19 18
