ply
format ascii 1.0
element vertex 24
property float x
property float y
property float z
element face 44
property list uchar int vertex_indices
end_header
1646.50562 118.722237 269.169281
1665.93872 127.071198 256.226807
1668.79504 120.425423 291.73114
1663.276 118.054321 269.169281
1664.922 114.22493 269.169281
1670.09253 116.440186 291.73114
1672.24207 111.430809 291.73114
1656.34314 104.606926 269.169281
1654.1936 109.616302 269.169281
1655.53955 110.195168 269.169281
1653.9032 114.024551 269.169281
1649.36194 112.076462 269.169281
1646.50562 118.722237 277.169281
1665.93872 127.071198 264.226807
1668.79504 120.425423 299.73114
1663.276 118.054321 277.169281
1664.922 114.22493 277.169281
1670.09253 116.440186 299.73114
1672.24207 111.430809 299.73114
1656.34314 104.606926 277.169281
1654.1936 109.616302 277.169281
1655.53955 110.195168 277.169281
1653.9032 114.024551 277.169281
1649.36194 112.076462 277.169281
3 13 12 23
3 11 0 1
3 21 20 19
3 7 8 9
3 19 18 17
3 5 6 7
3 15 14 13
3 1 2 3
3 13 23 22
3 10 11 1
3 21 19 17
3 5 7 9
3 15 13 22
3 10 1 3
3 21 17 16
3 4 5 9
3 16 15 22
3 10 3 4
3 22 21 16
3 4 9 10
3 0 1 13
3 0 13 12
3 1 2 14
3 1 14 13
3 2 3 15
3 2 15 14
3 3 4 16
3 3 16 15
3 4 5 17
3 4 17 16
3 5 6 18
3 5 18 17
3 6 7 19
3 6 19 18
3 7 8 20
3 7 20 19
3 8 9 21
3 8 21 20
3 9 10 22
3 9 22 21
3 10 11 23
3 10 23 22
3 11 0 12
3 11 12 23
