ply
format ascii 1.0
element vertex 12
property float x
property float y
property float z
element face 10
property list uchar int vertex_indices
end_header
1748.60596 -11.683423 262.585785
1753.37622 -18.1056728 262.585785
1765.52234 0.875442803 262.585785
1770.60083 -5.30595875 262.585785
1769.64307 5.44197321 260.901978
1776.10461 0.725126624 260.901978
1773.59827 12.034791 256.211456
1780.8252 8.60384274 256.211456
1775.83752 18.4268417 256.211456
1783.64026 16.6610622 256.211456
1777.52588 29.7800941 256.211456
1785.43774 28.5958462 256.211456
3 0 1 2
3 1 3 2
3 2 3 4
3 3 5 4
3 4 5 6
3 5 7 6
3 6 7 8
3 7 9 8
3 8 9 10
3 9 11 10
