ply
format ascii 1.0
element vertex 8
property float x
property float y
property float z
element face 12
property list uchar int vertex_indices
end_header
727.438171 -65.8454819 231.312073
758.674377 -87.808815 237.854874
737.769531 -117.542252 236.197037
706.533325 -95.5789185 233.95282
727.438171 -65.8454819 239.312073
758.674377 -87.808815 245.854874
737.769531 -117.542252 244.197037
706.533325 -95.5789185 241.95282
3 5 4 7
3 3 0 1
3 7 6 5
3 1 2 3
3 0 1 5
3 0 5 4
3 1 2 6
3 1 6 5
3 2 3 7
3 2 7 6
3 3 0 4
3 3 4 7
