ply
format ascii 1.0
element vertex 16
property float x
property float y
property float z
element face 14
property list uchar int vertex_indices
end_header
-2404.52856 832.790161 221.320068
-2408.52319 832.99469 221.320068
-2406.44434 795.43573 215.474319
-2410.42236 795.854126 215.474319
-2410.41406 777.474609 215.474319
-2414.14062 778.927734 215.474319
-2431.65161 730.61438 224.237869
-2435.2356 732.390869 224.237869
-2437.5293 723.011536 224.237869
-2440.3186 725.878418 224.237869
-2444.1748 718.419861 224.237869
-2445.89282 722.032104 224.237869
-2452.91699 715.667297 230.771133
-2453.53369 719.619446 230.771133
-2462.41431 715.51001 230.771133
-2462.47217 719.509583 230.771133
3 0 1 2
3 1 3 2
3 2 3 4
3 3 5 4
3 4 5 6
3 5 7 6
3 6 7 8
3 7 9 8
3 8 9 10
3 9 11 10
3 10 11 12
3 11 13 12
3 12 13 14
3 13 15 14
