ply
format ascii 1.0
element vertex 12
property float x
property float y
property float z
element face 10
property list uchar int vertex_indices
end_header
3376.2771 -422.067474 225.99765
3377.40991 -423.715729 225.99765
3381.75464 -418.328674 225.99765
3382.52539 -420.174255 225.99765
3389.83521 -416.430786 230.048126
3390.03394 -418.420868 230.048126
3396.56152 -416.816833 230.048126
3396.45654 -418.814056 230.048126
3403.29932 -417.141724 230.048126
3402.84863 -419.090302 230.048126
3411.83057 -420.341522 230.048126
3411.12646 -422.21344 230.048126
3 0 1 2
3 1 3 2
3 2 3 4
3 3 5 4
3 4 5 6
3 5 7 6
3 6 7 8
3 7 9 8
3 8 9 10
3 9 11 10
