ply
format ascii 1.0
element vertex 8
property float x
property float y
property float z
element face 12
property list uchar int vertex_indices
end_header
-616.010193 -115.182274 221.962448
-606.676147 -116.351135 221.962448
-607.770264 -125.078583 221.143448
-617.10437 -123.909729 221.143448
-616.010193 -115.182274 229.962448
-606.676147 -116.351135 229.962448
-607.770264 -125.078583 229.143448
-617.10437 -123.909729 229.143448
3 5 4 7
3 3 0 1
3 7 6 5
3 1 2 3
3 0 1 5
3 0 5 4
3 1 2 6
3 1 6 5
3 2 3 7
3 2 7 6
3 3 0 4
3 3 4 7
