ply
format ascii 1.0
element vertex 8
property float x
property float y
property float z
element face 12
property list uchar int vertex_indices
end_header
-1131.8147 -980.067932 254.603867
-1093.11316 -964.216003 246.330826
-1084.96997 -984.131104 246.330826
-1123.66187 -999.971863 246.72049
-1131.8147 -980.067932 257.803864
-1093.11316 -964.216003 249.530823
-1084.96997 -984.131104 249.530823
-1123.66187 -999.971863 249.920486
3 5 4 7
3 3 0 1
3 7 6 5
3 1 2 3
3 0 1 5
3 0 5 4
3 1 2 6
3 1 6 5
3 2 3 7
3 2 7 6
3 3 0 4
3 3 4 7
