ply
format ascii 1.0
element vertex 8
property float x
property float y
property float z
element face 12
property list uchar int vertex_indices
end_header
-330.478546 412.138153 205.483643
-312.362305 399.904144 209.446747
-331.843781 371.072388 209.147354
-349.960022 383.317535 208.118271
-330.478546 412.138153 208.68364
-312.362305 399.904144 212.646744
-331.843781 371.072388 212.347351
-349.960022 383.317535 211.318268
3 5 4 7
3 3 0 1
3 7 6 5
3 1 2 3
3 0 1 5
3 0 5 4
3 1 2 6
3 1 6 5
3 2 3 7
3 2 7 6
3 3 0 4
3 3 4 7
