ply
format ascii 1.0
element vertex 8
property float x
property float y
property float z
element face 12
property list uchar int vertex_indices
end_header
25.7945805 311.438538 189.107758
18.7068806 297.957764 189.86409
48.2970581 282.406403 189.083923
55.384758 295.887207 188.872162
25.7945805 311.438538 197.107758
18.7068806 297.957764 197.86409
48.2970581 282.406403 197.083923
55.384758 295.887207 196.872162
3 6 7 4
3 0 3 2
3 4 5 6
3 2 1 0
3 0 1 5
3 0 5 4
3 1 2 6
3 1 6 5
3 2 3 7
3 2 7 6
3 3 0 4
3 3 4 7
