ply
format ascii 1.0
element vertex 12
property float x
property float y
property float z
element face 10
property list uchar int vertex_indices
end_header
-1714.86426 -263.493958 231.217361
-1711.49646 -270.750549 231.217361
-1707.21436 -259.953705 231.217361
-1703.36365 -266.965973 231.217361
-1696.31274 -253.309631 231.217361
-1691.93701 -260.006805 231.217361
-1684.75684 -245.300308 237.193146
-1679.61548 -251.42952 237.193146
-1675.56445 -236.050858 229.295166
-1668.99719 -240.619202 229.295166
-1656.88477 -205.002472 237.662491
-1650.03076 -209.128311 237.662491
3 0 1 2
3 1 3 2
3 2 3 4
3 3 5 4
3 4 5 6
3 5 7 6
3 6 7 8
3 7 9 8
3 8 9 10
3 9 11 10
