ply
format ascii 1.0
element vertex 32
property float x
property float y
property float z
element face 60
property list uchar int vertex_indices
end_header
147.098816 1400.55505 228.673065
147.253738 1410.64062 228.673065
150.44902 1410.59607 228.673065
150.487747 1413.02283 228.673065
138.645874 1413.20093 228.673065
138.771744 1421.51648 228.673065
144.213394 1421.4386 228.673065
144.348953 1430.26624 234.017624
164.663147 1429.95447 234.828674
164.527588 1421.13806 229.816071
169.969238 1421.04895 229.816071
169.843369 1412.7334 229.816071
158.00148 1412.90039 228.673065
157.962753 1410.46252 228.673065
161.158035 1410.41797 228.673065
161.012787 1400.34351 228.673065
147.098816 1400.55505 236.673065
147.253738 1410.64062 236.673065
150.44902 1410.59607 236.673065
150.487747 1413.02283 236.673065
138.645874 1413.20093 236.673065
138.771744 1421.51648 236.673065
144.213394 1421.4386 236.673065
144.348953 1430.26624 242.017624
164.663147 1429.95447 242.828674
164.527588 1421.13806 237.816071
169.969238 1421.04895 237.816071
169.843369 1412.7334 237.816071
158.00148 1412.90039 236.673065
157.962753 1410.46252 236.673065
161.158035 1410.41797 236.673065
161.012787 1400.34351 236.673065
3 17 16 31
3 15 0 1
3 31 30 29
3 13 14 15
3 28 27 26
3 10 11 12
3 25 24 23
3 7 8 9
3 22 21 20
3 4 5 6
3 18 17 31
3 15 1 2
3 28 26 25
3 9 10 12
3 25 23 22
3 6 7 9
3 22 20 19
3 3 4 6
3 19 18 31
3 15 2 3
3 28 25 22
3 6 9 12
3 22 19 31
3 15 3 6
3 29 28 22
3 6 12 13
3 22 31 29
3 13 15 6
3 0 1 17
3 0 17 16
3 1 2 18
3 1 18 17
3 2 3 19
3 2 19 18
3 3 4 20
3 3 20 19
3 4 5 21
3 4 21 20
3 5 6 22
3 5 22 21
3 6 7 23
3 6 23 22
3 7 8 24
3 7 24 23
3 8 9 25
3 8 25 24
3 9 10 26
3 9 26 25
3 10 11 27
3 10 27 26
3 11 12 28
3 11 28 27
3 12 13 29
3 12 29 28
3 13 14 30
3 13 30 29
3 14 15 31
3 14 31 30
3 15 0 16
3 15 16 31
