ply
format ascii 1.0
element vertex 8
property float x
property float y
property float z
element face 12
property list uchar int vertex_indices
end_header
-2293.10327 1447.38721 286.527039
-2263.53247 1434.66333 284.83844
-2276.39111 1404.79626 279.926208
-2305.96191 1417.52014 282.608002
-2293.10327 1447.38721 294.527039
-2263.53247 1434.66333 292.83844
-2276.39111 1404.79626 287.926208
-2305.96191 1417.52014 290.608002
3 5 4 7
3 3 0 1
3 7 6 5
3 1 2 3
3 0 1 5
3 0 5 4
3 1 2 6
3 1 6 5
3 2 3 7
3 2 7 6
3 3 0 4
3 3 4 7
