ply
format ascii 1.0
element vertex 12
property float x
property float y
property float z
element face 20
property list uchar int vertex_indices
end_header
1712.13464 1299.82202 201.565033
1735.24707 1304.82031 198.993393
1735.57629 1304.89819 198.993393
1737.45471 1296.24866 199.721436
1732.4585 1295.16882 199.721436
1714.00342 1291.17249 204.021027
1712.13464 1299.82202 209.565033
1735.24707 1304.82031 206.993393
1735.57629 1304.89819 206.993393
1737.45471 1296.24866 207.721436
1732.4585 1295.16882 207.721436
1714.00342 1291.17249 212.021027
3 7 6 11
3 5 0 1
3 10 9 8
3 2 3 4
3 8 7 11
3 5 1 2
3 11 10 8
3 2 4 5
3 0 1 7
3 0 7 6
3 1 2 8
3 1 8 7
3 2 3 9
3 2 9 8
3 3 4 10
3 3 10 9
3 4 5 11
3 4 11 10
3 5 0 6
3 5 6 11
