ply
format ascii 1.0
element vertex 16
property float x
property float y
property float z
element face 14
property list uchar int vertex_indices
end_header
-1535.2373 -1390.29919 195.543274
-1532.24573 -1394.91443 195.543274
-1486.42566 -1358.66003 196.202072
-1483.47546 -1363.30188 196.202072
-1404.27014 -1307.05847 197.991943
-1401.33582 -1311.71033 197.991943
-1387.15344 -1296.04053 197.731094
-1384.1759 -1300.66479 197.731094
-1318.18457 -1251.62756 195.580536
-1315.1283 -1256.2002 195.580536
-1309.96704 -1244.72681 195.580536
-1305.33618 -1247.69434 195.580536
-1297.3905 -1218.76123 197.038513
-1292.95081 -1222.00769 197.038513
-1273.96289 -1195.54187 197.431458
-1270.09534 -1199.45239 197.431458
3 0 1 2
3 1 3 2
3 2 3 4
3 3 5 4
3 4 5 6
3 5 7 6
3 6 7 8
3 7 9 8
3 8 9 10
3 9 11 10
3 10 11 12
3 11 13 12
3 12 13 14
3 13 15 14
