ply
format ascii 1.0
element vertex 8
property float x
property float y
property float z
element face 12
property list uchar int vertex_indices
end_header
-900.021729 417.592804 251.850327
-883.270691 415.121521 249.321808
-884.442322 407.173309 249.321808
-901.193298 409.644592 251.850327
-900.021729 417.592804 255.050323
-883.270691 415.121521 252.521805
-884.442322 407.173309 252.521805
-901.193298 409.644592 255.050323
3 5 4 7
3 3 0 1
3 7 6 5
3 1 2 3
3 0 1 5
3 0 5 4
3 1 2 6
3 1 6 5
3 2 3 7
3 2 7 6
3 3 0 4
3 3 4 7
