ply
format ascii 1.0
element vertex 14
property float x
property float y
property float z
element face 12
property list uchar int vertex_indices
end_header
433.675446 1954.70325 254.803543
431.856628 1958.26587 254.803543
365.152527 1919.72021 255.968613
363.273254 1923.25122 255.968613
352.551483 1911.5686 253.220734
350.040985 1914.68262 253.220734
342.05835 1901.17468 252.448608
338.72879 1903.39148 252.448608
337.173859 1888.57373 252.448608
333.252838 1889.36487 252.448608
336.956757 1875.76538 252.344315
333.005188 1875.1449 252.344315
341.423584 1862.14905 252.344315
337.620667 1860.90906 252.344315
3 0 1 2
3 1 3 2
3 2 3 4
3 3 5 4
3 4 5 6
3 5 7 6
3 6 7 8
3 7 9 8
3 8 9 10
3 9 11 10
3 10 11 12
3 11 13 12
