ply
format ascii 1.0
element vertex 14
property float x
property float y
property float z
element face 12
property list uchar int vertex_indices
end_header
443.521667 926.679138 193.247818
446.623749 931.220886 193.247818
438.181854 930.329163 193.247818
441.46756 934.739868 193.247818
435.182434 933.09613 193.247818
439.780548 936.113953 193.247818
433.509308 937.575684 193.247818
438.936218 938.469421 193.247818
433.830383 941.381836 193.247818
439.13797 939.939819 193.247818
435.418365 944.917786 193.247818
439.912567 941.747253 193.247818
438.583557 948.364563 193.247818
442.615082 944.623352 193.247818
3 0 1 2
3 1 3 2
3 2 3 4
3 3 5 4
3 4 5 6
3 5 7 6
3 6 7 8
3 7 9 8
3 8 9 10
3 9 11 10
3 10 11 12
3 11 13 12
