ply
format ascii 1.0
element vertex 14
property float x
property float y
property float z
element face 24
property list uchar int vertex_indices
end_header
-1624.05151 980.190369 221.801239
-1605.44153 969.025024 213.552673
-1621.15649 942.831543 208.822723
-1639.76648 954.008057 208.822723
-1648.31628 959.128723 226.828537
-1631.00366 987.982727 221.801239
-1622.45386 982.862061 221.801239
-1624.05151 980.190369 229.801239
-1605.44153 969.025024 221.552673
-1621.15649 942.831543 216.822723
-1639.76648 954.008057 216.822723
-1648.31628 959.128723 234.828537
-1631.00366 987.982727 229.801239
-1622.45386 982.862061 229.801239
3 7 13 12
3 5 6 0
3 12 11 10
3 3 4 5
3 10 9 8
3 1 2 3
3 7 12 10
3 3 5 0
3 10 8 7
3 0 1 3
3 0 1 8
3 0 8 7
3 1 2 9
3 1 9 8
3 2 3 10
3 2 10 9
3 3 4 11
3 3 11 10
3 4 5 12
3 4 12 11
3 5 6 13
3 5 13 12
3 6 0 7
3 6 7 13
