ply
format ascii 1.0
element vertex 8
property float x
property float y
property float z
element face 12
property list uchar int vertex_indices
end_header
-2020.41089 -639.953491 252.619858
-1995.21655 -637.09259 256.616699
-1992.17627 -663.887207 251.00058
-2017.37048 -666.748108 251.643082
-2020.41089 -639.953491 255.819855
-1995.21655 -637.09259 259.816711
-1992.17627 -663.887207 254.200577
-2017.37048 -666.748108 254.843079
3 5 4 7
3 3 0 1
3 7 6 5
3 1 2 3
3 0 1 5
3 0 5 4
3 1 2 6
3 1 6 5
3 2 3 7
3 2 7 6
3 3 0 4
3 3 4 7
