ply
format ascii 1.0
element vertex 30
property float x
property float y
property float z
element face 28
property list uchar int vertex_indices
end_header
-2524.45264 764.276245 236.482742
-2534.42212 763.49469 236.482742
-2523.62451 753.569702 236.482742
-2533.62378 753.451294 236.482742
-2524.25977 743.522339 236.482742
-2534.15039 744.997375 236.482742
-2526.63721 733.39978 233.191956
-2536.14941 736.485046 233.191956
-2530.07642 725.766235 233.191956
-2538.6748 730.871582 233.191956
-2534.89526 719.4599 233.191956
-2542.2605 726.22406 233.191956
-2541.26733 713.619263 233.191956
-2546.88794 721.890076 233.191956
-2549.98608 709.243469 233.191956
-2553.31274 718.67395 233.191956
-2560.07837 706.852966 234.229904
-2562.15991 716.633911 234.229904
-2594.14404 699.805664 230.62738
-2596.51172 709.521362 230.62738
-2618.23804 692.699463 234.628326
-2621.4895 702.156067 234.628326
-2638.03369 684.724243 240.094406
-2642.30273 693.767273 240.094406
-2668.36572 669.017334 241.878754
-2673.28125 677.72583 241.878754
-2689.03149 655.98468 244.27063
-2695.16089 663.885986 244.27063
-2723.10132 626.498596 233.421661
-2729.64429 634.061035 233.421661
3 0 1 2
3 1 3 2
3 2 3 4
3 3 5 4
3 4 5 6
3 5 7 6
3 6 7 8
3 7 9 8
3 8 9 10
3 9 11 10
3 10 11 12
3 11 13 12
3 12 13 14
3 13 15 14
3 14 15 16
3 15 17 16
3 16 17 18
3 17 19 18
3 18 19 20
3 19 21 20
3 20 21 22
3 21 23 22
3 22 23 24
3 23 25 24
3 24 25 26
3 25 27 26
3 26 27 28
3 27 29 28
