ply
format ascii 1.0
element vertex 16
property float x
property float y
property float z
element face 14
property list uchar int vertex_indices
end_header
2083.0874 2266.36353 188.587311
2082.8728 2262.87012 188.587311
2120.98096 2264.0354 183.333664
2120.71704 2260.54541 183.333664
2124.97412 2263.12158 183.333664
2123.71484 2259.85596 183.333664
2128.15308 2261.28247 187.959991
2126.07422 2258.4668 187.959991
2131.4585 2258.36914 190.032959
2128.8689 2256.01465 190.032959
2134.01025 2254.82617 190.032959
2130.96484 2253.10107 190.032959
2135.31226 2251.18677 190.032959
2131.81226 2251.19678 190.032959
2134.14893 2222.85596 191.779175
2130.65186 2222.99976 191.779175
3 0 1 2
3 1 3 2
3 2 3 4
3 3 5 4
3 4 5 6
3 5 7 6
3 6 7 8
3 7 9 8
3 8 9 10
3 9 11 10
3 10 11 12
3 11 13 12
3 12 13 14
3 13 15 14
