ply
format ascii 1.0
element vertex 12
property float x
property float y
property float z
element face 20
property list uchar int vertex_indices
end_header
-2926.40674 181.651138 225.925049
-2926.45508 151.238663 220.25441
-2895.91602 151.182999 221.615433
-2895.88696 170.307693 232.621445
-2907.77734 170.329956 225.925049
-2907.75806 181.617752 225.925049
-2926.40674 181.651138 233.925049
-2926.45508 151.238663 228.25441
-2895.91602 151.182999 229.615433
-2895.88696 170.307693 240.621445
-2907.77734 170.329956 233.925049
-2907.75806 181.617752 233.925049
3 10 11 6
3 0 5 4
3 6 7 8
3 2 1 0
3 8 9 10
3 4 3 2
3 10 6 8
3 2 0 4
3 0 1 7
3 0 7 6
3 1 2 8
3 1 8 7
3 2 3 9
3 2 9 8
3 3 4 10
3 3 10 9
3 4 5 11
3 4 11 10
3 5 0 6
3 5 6 11
