ply
format ascii 1.0
element vertex 8
property float x
property float y
property float z
element face 12
property list uchar int vertex_indices
end_header
-41.131897 328.581726 190.748245
-16.1797085 320.366364 190.928528
-25.4847355 292.113464 191.661316
-50.436924 300.328857 193.251099
-41.131897 328.581726 198.748245
-16.1797085 320.366364 198.928528
-25.4847355 292.113464 199.661316
-50.436924 300.328857 201.251099
3 5 4 7
3 3 0 1
3 7 6 5
3 1 2 3
3 0 1 5
3 0 5 4
3 1 2 6
3 1 6 5
3 2 3 7
3 2 7 6
3 3 0 4
3 3 4 7
