ply
format ascii 1.0
element vertex 40
property float x
property float y
property float z
element face 76
property list uchar int vertex_indices
end_header
-2504.99854 -938.345398 225.835403
-2499.44067 -941.818542 234.657394
-2501.64819 -945.002319 225.835403
-2498.72412 -946.627563 234.657394
-2494.75415 -950.579407 234.657394
-2489.42871 -954.709351 234.657394
-2451.32739 -907.409668 232.024979
-2448.24829 -910.44873 232.024979
-2431.59424 -889.487244 231.255478
-2427.69214 -892.337036 231.255478
-2420.94336 -885.780334 231.255478
-2411.58984 -875.783813 242.369934
-2417.89331 -869.805969 242.369934
-2415.49194 -866.755798 242.369934
-2417.43823 -864.551697 232.968735
-2412.93579 -859.442139 232.968735
-2417.33179 -855.401245 232.968735
-2421.13696 -851.894653 224.132523
-2428.44751 -847.619995 224.132523
-2467.43945 -893.416809 222.374146
-2504.99854 -938.345398 233.835403
-2499.44067 -941.818542 242.657394
-2501.64819 -945.002319 233.835403
-2498.72412 -946.627563 242.657394
-2494.75415 -950.579407 242.657394
-2489.42871 -954.709351 242.657394
-2451.32739 -907.409668 240.024979
-2448.24829 -910.44873 240.024979
-2431.59424 -889.487244 239.255478
-2427.69214 -892.337036 239.255478
-2420.94336 -885.780334 239.255478
-2411.58984 -875.783813 250.369934
-2417.89331 -869.805969 250.369934
-2415.49194 -866.755798 250.369934
-2417.43823 -864.551697 240.968735
-2412.93579 -859.442139 240.968735
-2417.33179 -855.401245 240.968735
-2421.13696 -851.894653 232.132523
-2428.44751 -847.619995 232.132523
-2467.43945 -893.416809 230.374146
3 38 39 20
3 0 19 18
3 21 22 23
3 3 2 1
3 23 24 25
3 5 4 3
3 26 27 28
3 8 7 6
3 28 29 30
3 10 9 8
3 30 31 32
3 12 11 10
3 32 33 34
3 14 13 12
3 34 35 36
3 16 15 14
3 36 37 38
3 18 17 16
3 38 20 21
3 1 0 18
3 21 23 25
3 5 3 1
3 28 30 32
3 12 10 8
3 32 34 36
3 16 14 12
3 36 38 21
3 1 18 16
3 21 25 26
3 6 5 1
3 26 28 32
3 12 8 6
3 32 36 21
3 1 16 12
3 21 26 32
3 12 6 1
3 0 1 21
3 0 21 20
3 1 2 22
3 1 22 21
3 2 3 23
3 2 23 22
3 3 4 24
3 3 24 23
3 4 5 25
3 4 25 24
3 5 6 26
3 5 26 25
3 6 7 27
3 6 27 26
3 7 8 28
3 7 28 27
3 8 9 29
3 8 29 28
3 9 10 30
3 9 30 29
3 10 11 31
3 10 31 30
3 11 12 32
3 11 32 31
3 12 13 33
3 12 33 32
3 13 14 34
3 13 34 33
3 14 15 35
3 14 35 34
3 15 16 36
3 15 36 35
3 16 17 37
3 16 37 36
3 17 18 38
3 17 38 37
3 18 19 39
3 18 39 38
3 19 0 20
3 19 20 39
