ply
format ascii 1.0
element vertex 12
property float x
property float y
property float z
element face 20
property list uchar int vertex_indices
end_header
1318.03137 -699.386963 258.629028
1342.3252 -669.809387 258.129883
1338.31653 -652.577148 258.129883
1302.97485 -632.884705 259.828796
1267.40076 -602.583557 261.662903
1239.44702 -636.647278 256.12973
1318.03137 -699.386963 266.629028
1342.3252 -669.809387 266.129883
1338.31653 -652.577148 266.129883
1302.97485 -632.884705 267.828796
1267.40076 -602.583557 269.662903
1239.44702 -636.647278 264.12973
3 10 11 6
3 0 5 4
3 6 7 8
3 2 1 0
3 9 10 6
3 0 4 3
3 6 8 9
3 3 2 0
3 0 1 7
3 0 7 6
3 1 2 8
3 1 8 7
3 2 3 9
3 2 9 8
3 3 4 10
3 3 10 9
3 4 5 11
3 4 11 10
3 5 0 6
3 5 6 11
