ply
format ascii 1.0
element vertex 8
property float x
property float y
property float z
element face 12
property list uchar int vertex_indices
end_header
-935.005127 -382.237732 248.064835
-908.271301 -382.326782 243.571045
-908.310059 -391.922546 243.571045
-935.03418 -391.833466 248.064835
-935.005127 -382.237732 256.064819
-908.271301 -382.326782 251.571045
-908.310059 -391.922546 251.571045
-935.03418 -391.833466 256.064819
3 5 4 7
3 3 0 1
3 7 6 5
3 1 2 3
3 0 1 5
3 0 5 4
3 1 2 6
3 1 6 5
3 2 3 7
3 2 7 6
3 3 0 4
3 3 4 7
