ply
format ascii 1.0
element vertex 38
property float x
property float y
property float z
element face 36
property list uchar int vertex_indices
end_header
589.205688 -1262.04163 211.227097
587.817261 -1269.92017 211.227097
602.469727 -1264.3811 202.003922
600.83197 -1272.21167 202.003922
615.678711 -1267.59045 202.003922
613.398193 -1275.25842 202.003922
763.347961 -1312.21252 200.268799
761.185303 -1319.91455 200.268799
790.528137 -1316.73474 198.855301
789.564148 -1324.67639 198.855301
818.460205 -1318.86841 199.74971
818.140076 -1326.86194 199.74971
921.617004 -1321.97205 206.74762
921.436707 -1329.96997 206.74762
942.540161 -1321.67419 204.257477
942.884827 -1329.66675 204.257477
959.891541 -1320.31714 204.257477
960.604065 -1328.28528 204.257477
1090.86279 -1308.40637 203.600723
1091.58716 -1316.37354 203.600723
1153.63733 -1302.70447 207.617172
1154.53223 -1310.65417 207.617172
1176.98511 -1298.73218 208.556931
1178.70679 -1306.54468 208.556931
1200.43152 -1292.38379 212.653229
1202.80225 -1300.02454 212.653229
1218.65051 -1285.80103 211.250168
1221.57092 -1293.2489 211.250168
1236.69409 -1278.16174 211.298218
1240.0697 -1285.41479 211.298218
1252.34351 -1270.12842 211.298218
1256.33435 -1277.06189 211.298218
1265.64929 -1261.53137 226.455399
1270.64343 -1267.78101 226.455399
1289.27661 -1240.56653 220.237717
1294.65479 -1246.48901 220.237717
1422.07776 -1119.46765 210.969849
1427.46814 -1125.37891 210.969849
3 0 1 2
3 1 3 2
3 2 3 4
3 3 5 4
3 4 5 6
3 5 7 6
3 6 7 8
3 7 9 8
3 8 9 10
3 9 11 10
3 10 11 12
3 11 13 12
3 12 13 14
3 13 15 14
3 14 15 16
3 15 17 16
3 16 17 18
3 17 19 18
3 18 19 20
3 19 21 20
3 20 21 22
3 21 23 22
3 22 23 24
3 23 25 24
3 24 25 26
3 25 27 26
3 26 27 28
3 27 29 28
3 28 29 30
3 29 31 30
3 30 31 32
3 31 33 32
3 32 33 34
3 33 35 34
3 34 35 36
3 35 37 36
