ply
format ascii 1.0
element vertex 12
property float x
property float y
property float z
element face 20
property list uchar int vertex_indices
end_header
-1361.3031 -51.7635651 238.702087
-1351.03955 -52.3312912 238.702087
-1350.34241 -39.8078499 238.702087
-1313.36438 -41.8561287 244.971619
-1316.27881 -94.6104355 231.229156
-1363.53015 -91.9944305 231.901749
-1361.3031 -51.7635651 246.702087
-1351.03955 -52.3312912 246.702087
-1350.34241 -39.8078499 246.702087
-1313.36438 -41.8561287 252.971619
-1316.27881 -94.6104355 239.229156
-1363.53015 -91.9944305 239.901749
3 7 6 11
3 5 0 1
3 11 10 9
3 3 4 5
3 9 8 7
3 1 2 3
3 7 11 9
3 3 5 1
3 0 1 7
3 0 7 6
3 1 2 8
3 1 8 7
3 2 3 9
3 2 9 8
3 3 4 10
3 3 10 9
3 4 5 11
3 4 11 10
3 5 0 6
3 5 6 11
