ply
format ascii 1.0
element vertex 14
property float x
property float y
property float z
element face 12
property list uchar int vertex_indices
end_header
2374.80859 -1966.82361 184.286148
2372.1687 -1969.12183 184.286148
2385.59131 -1979.40417 187.874695
2382.28125 -1980.54187 187.874695
2395.99658 -2028.19861 192.10611
2392.51929 -2028.59534 192.10611
2394.00513 -2053.58057 191.7547
2390.57959 -2052.86182 191.7547
2386.1936 -2074.0957 193.363235
2383.6543 -2071.68701 193.363235
2369.05151 -2079.01685 193.363235
2369.83105 -2075.60474 193.363235
2335.55518 -2063.36646 194.757507
2337.04004 -2060.19702 194.757507
3 0 1 2
3 1 3 2
3 2 3 4
3 3 5 4
3 4 5 6
3 5 7 6
3 6 7 8
3 7 9 8
3 8 9 10
3 9 11 10
3 10 11 12
3 11 13 12
