ply
format ascii 1.0
element vertex 28
property float x
property float y
property float z
element face 52
property list uchar int vertex_indices
end_header
635.452942 -937.354614 262.184723
632.499756 -929.373047 262.184723
639.868225 -926.645691 263.969116
639.384094 -925.343262 263.969116
650.441711 -921.257812 265.019226
650.925842 -922.560303 265.019226
660.937683 -918.853333 265.019226
663.900574 -926.834961 265.019226
664.742981 -929.139282 259.832062
653.92749 -933.13562 259.832062
653.075378 -930.831299 259.832062
643.867188 -934.237671 262.184723
644.709595 -936.508606 262.184723
636.295349 -939.625549 262.184723
635.452942 -937.354614 270.184723
632.499756 -929.373047 270.184723
639.868225 -926.645691 271.969116
639.384094 -925.343262 271.969116
650.441711 -921.257812 273.019226
650.925842 -922.560303 273.019226
660.937683 -918.853333 273.019226
663.900574 -926.834961 273.019226
664.742981 -929.139282 267.832062
653.92749 -933.13562 267.832062
653.075378 -930.831299 267.832062
643.867188 -934.237671 270.184723
644.709595 -936.508606 270.184723
636.295349 -939.625549 270.184723
3 15 14 27
3 13 0 1
3 27 26 25
3 11 12 13
3 24 23 22
3 8 9 10
3 22 21 20
3 6 7 8
3 19 18 17
3 3 4 5
3 16 15 27
3 13 1 2
3 24 22 20
3 6 8 10
3 19 17 16
3 2 3 5
3 16 27 25
3 11 13 2
3 25 24 20
3 6 10 11
3 19 16 25
3 11 2 5
3 25 20 19
3 5 6 11
3 0 1 15
3 0 15 14
3 1 2 16
3 1 16 15
3 2 3 17
3 2 17 16
3 3 4 18
3 3 18 17
3 4 5 19
3 4 19 18
3 5 6 20
3 5 20 19
3 6 7 21
3 6 21 20
3 7 8 22
3 7 22 21
3 8 9 23
3 8 23 22
3 9 10 24
3 9 24 23
3 10 11 25
3 10 25 24
3 11 12 26
3 11 26 25
3 12 13 27
3 12 27 26
3 13 0 14
3 13 14 27
