ply
format ascii 1.0
element vertex 14
property float x
property float y
property float z
element face 12
property list uchar int vertex_indices
end_header
-1444.12427 -623.358459 255.387024
-1446.01135 -624.020935 255.387024
-1441.50977 -630.806152 255.387024
-1443.39709 -631.467773 255.387024
-1439.63098 -638.130005 255.387024
-1439.67932 -640.129456 255.387024
-1419.11365 -630.934998 256.741486
-1417.86414 -632.496704 256.741486
-1422.03723 -624.610535 256.741486
-1420.14978 -623.948914 256.741486
-1423.92615 -617.275513 257.345032
-1423.87683 -615.276123 257.345032
-1444.73718 -624.633484 255.387024
-1445.39832 -622.745911 255.387024
3 0 1 2
3 1 3 2
3 2 3 4
3 3 5 4
3 4 5 6
3 5 7 6
3 6 7 8
3 7 9 8
3 8 9 10
3 9 11 10
3 10 11 12
3 11 13 12
