ply
format ascii 1.0
element vertex 30
property float x
property float y
property float z
element face 28
property list uchar int vertex_indices
end_header
338.91806 -648.303955 278.519684
333.309601 -644.115295 278.519684
323.661255 -668.71991 292.298981
318.337189 -664.175171 292.298981
309.195679 -683.038696 297.045624
304.819885 -677.574951 297.045624
269.789307 -711.925781 306.473511
265.932373 -706.084167 306.473511
255.891312 -718.076416 307.248535
253.861481 -711.377197 307.248535
240.471359 -720.840454 321.82135
240.214127 -713.845154 321.82135
126.939423 -722.933655 321.777771
126.707283 -715.9375 321.777771
115.375191 -724.915222 321.777771
113.696945 -718.119385 321.777771
103.930519 -728.657532 307.542999
101.302933 -722.169373 307.542999
93.8487396 -733.620972 307.542999
90.1990738 -727.647705 307.542999
23.7665768 -777.692444 302.363708
20.153923 -771.696716 302.363708
11.5593519 -783.108521 302.363708
9.31644249 -776.477539 302.363708
-1.81836617 -786.366272 299.018036
-2.77120996 -779.431396 299.018036
-49.4575043 -791.551025 295.365356
-50.0607758 -784.577087 295.365356
-154.394333 -799.568909 292.149811
-154.927612 -792.589233 292.149811
3 0 1 2
3 1 3 2
3 2 3 4
3 3 5 4
3 4 5 6
3 5 7 6
3 6 7 8
3 7 9 8
3 8 9 10
3 9 11 10
3 10 11 12
3 11 13 12
3 12 13 14
3 13 15 14
3 14 15 16
3 15 17 16
3 16 17 18
3 17 19 18
3 18 19 20
3 19 21 20
3 20 21 22
3 21 23 22
3 22 23 24
3 23 25 24
3 24 25 26
3 25 27 26
3 26 27 28
3 27 29 28
