ply
format ascii 1.0
element vertex 14
property float x
property float y
property float z
element face 24
property list uchar int vertex_indices
end_header
1690.17432 -1073.83228 203.792984
1691.1814 -1076.48169 203.792984
1684.51965 -1079.01978 203.792984
1683.50305 -1076.37036 203.792984
1678.60364 -1078.2406 203.792984
1675.33081 -1069.65784 203.792984
1686.90161 -1065.24963 203.792984
1690.17432 -1073.83228 211.792984
1691.1814 -1076.48169 211.792984
1684.51965 -1079.01978 211.792984
1683.50305 -1076.37036 211.792984
1678.60364 -1078.2406 211.792984
1675.33081 -1069.65784 211.792984
1686.90161 -1065.24963 211.792984
3 8 7 13
3 6 0 1
3 13 12 11
3 4 5 6
3 10 9 8
3 1 2 3
3 13 11 10
3 3 4 6
3 10 8 13
3 6 1 3
3 0 1 8
3 0 8 7
3 1 2 9
3 1 9 8
3 2 3 10
3 2 10 9
3 3 4 11
3 3 11 10
3 4 5 12
3 4 12 11
3 5 6 13
3 5 13 12
3 6 0 7
3 6 7 13
