ply
format ascii 1.0
element vertex 16
property float x
property float y
property float z
element face 14
property list uchar int vertex_indices
end_header
1035.45288 -2476.34668 225.946808
1035.06567 -2524.92651 226.321198
1037.66052 -2530.63721 226.321198
1041.81445 -2534.5332 226.321198
1047.52722 -2535.83569 0.00999999978
1054.93445 -2536.0918 0.00999999978
1063.62939 -2531.68359 232.925552
1069.99097 -2532.46265 232.925552
1072.45996 -2462.32031 229.136673
1067.27014 -2462.57642 229.136673
1066.35999 -2474.78809 233.791763
1063.11621 -2468.8103 229.136673
1056.23193 -2466.47266 229.136673
1049.22168 -2466.3501 226.479767
1040.77844 -2468.68774 226.479767
1037.66052 -2471.41504 226.479767
3 14 15 0
3 0 1 2
3 2 3 4
3 4 5 6
3 6 7 8
3 8 9 10
3 10 11 12
3 12 13 14
3 14 0 2
3 2 4 6
3 6 8 10
3 10 12 14
3 14 2 6
3 6 10 14
