ply
format ascii 1.0
element vertex 18
property float x
property float y
property float z
element face 16
property list uchar int vertex_indices
end_header
-1558.90173 -268.554718 254.763748
-1563.90784 -270.832733 254.763748
-1543.15784 -303.15274 260.588013
-1548.16382 -305.430908 260.588013
-1543.07288 -304.506104 260.588013
-1545.90552 -309.22052 260.588013
-1519.5415 -316.780884 249.229843
-1522.16626 -321.614136 249.229843
-1516.15942 -320.658417 249.229843
-1521.65588 -320.853546 249.229843
-1517.80725 -330.807373 249.229843
-1523.12585 -329.40625 249.229843
-1521.57361 -341.562256 256.954254
-1526.64087 -339.423584 256.954254
-1527.9126 -354.789001 256.954254
-1532.75378 -352.178833 256.954254
-1536.06616 -368.462585 266.614685
-1540.78955 -365.644928 266.614685
3 0 1 2
3 1 3 2
3 2 3 4
3 3 5 4
3 4 5 6
3 5 7 6
3 6 7 8
3 7 9 8
3 8 9 10
3 9 11 10
3 10 11 12
3 11 13 12
3 12 13 14
3 13 15 14
3 14 15 16
3 15 17 16
