ply
format ascii 1.0
element vertex 8
property float x
property float y
property float z
element face 12
property list uchar int vertex_indices
end_header
-1243.09741 -262.324371 237.616333
-1223.22852 -263.226074 234.771515
-1223.67395 -272.966522 234.771515
-1243.54272 -272.06485 237.616333
-1243.09741 -262.324371 240.81633
-1223.22852 -263.226074 237.971512
-1223.67395 -272.966522 237.971512
-1243.54272 -272.06485 240.81633
3 5 4 7
3 3 0 1
3 7 6 5
3 1 2 3
3 0 1 5
3 0 5 4
3 1 2 6
3 1 6 5
3 2 3 7
3 2 7 6
3 3 0 4
3 3 4 7
