ply
format ascii 1.0
element vertex 8
property float x
property float y
property float z
element face 12
property list uchar int vertex_indices
end_header
-734.332214 -159.298187 241.866669
-720.882996 -159.721207 241.962906
-721.551086 -180.738327 241.962906
-735.000305 -180.304184 241.866669
-734.332214 -159.298187 249.866669
-720.882996 -159.721207 249.962906
-721.551086 -180.738327 249.962906
-735.000305 -180.304184 249.866669
3 5 4 7
3 3 0 1
3 7 6 5
3 1 2 3
3 0 1 5
3 0 5 4
3 1 2 6
3 1 6 5
3 2 3 7
3 2 7 6
3 3 0 4
3 3 4 7
