ply
format ascii 1.0
element vertex 12
property float x
property float y
property float z
element face 20
property list uchar int vertex_indices
end_header
987.81427 -514.340576 289.224457
999.326965 -529.647034 275.236481
991.813232 -535.725037 282.530457
987.397949 -530.270386 282.530457
989.499084 -528.5672 282.530457
981.811035 -519.071655 289.224457
987.81427 -514.340576 297.224457
999.326965 -529.647034 283.236481
991.813232 -535.725037 290.530457
987.397949 -530.270386 290.530457
989.499084 -528.5672 290.530457
981.811035 -519.071655 297.224457
3 7 6 11
3 5 0 1
3 10 9 8
3 2 3 4
3 7 11 10
3 4 5 1
3 10 8 7
3 1 2 4
3 0 1 7
3 0 7 6
3 1 2 8
3 1 8 7
3 2 3 9
3 2 9 8
3 3 4 10
3 3 10 9
3 4 5 11
3 4 11 10
3 5 0 6
3 5 6 11
