ply
format ascii 1.0
element vertex 13
property float x
property float y
property float z
element face 11
property list uchar int vertex_indices
end_header
1797.6615 -542.159302 277.609344
1815.29358 -554.371094 273.36264
1807.15051 -568.386169 266.514435
1830.21448 -596.883972 256.42923
1826.59326 -630.79187 254.569305
1786.80725 -682.343933 239.304642
1770.09497 -691.872925 249.97612
1752.41443 -706.789734 249.97612
1737.22241 -699.587341 256.752808
1728.0238 -705.854614 256.752808
1702.24866 -678.726074 267.802643
1752.64685 -630.079468 262.070404
1735.40198 -615.752625 266.781555
3 1 0 12
3 11 10 9
3 8 7 6
3 6 5 4
3 4 3 2
3 2 1 12
3 11 9 8
3 8 6 4
3 4 2 12
3 11 8 4
3 4 12 11
