ply
format ascii 1.0
element vertex 10
property float x
property float y
property float z
element face 16
property list uchar int vertex_indices
end_header
2321.82202 1854.19312 212.813263
2323.14868 1856.87585 216.97496
2334.07056 1873.16199 216.97496
2339.76392 1868.94287 216.97496
2326.48901 1850.82007 212.813263
2321.82202 1854.19312 220.813263
2323.14868 1856.87585 224.97496
2334.07056 1873.16199 224.97496
2339.76392 1868.94287 224.97496
2326.48901 1850.82007 220.813263
3 6 5 9
3 4 0 1
3 9 8 7
3 2 3 4
3 7 6 9
3 4 1 2
3 0 1 6
3 0 6 5
3 1 2 7
3 1 7 6
3 2 3 8
3 2 8 7
3 3 4 9
3 3 9 8
3 4 0 5
3 4 5 9
