ply
format ascii 1.0
element vertex 16
property float x
property float y
property float z
element face 14
property list uchar int vertex_indices
end_header
880.786621 1950.74268 235.83075
884.709106 1949.95898 235.83075
885.119812 1972.07886 235.83075
888.702942 1970.3009 235.83075
899.151978 1987.41418 230.151001
901.530457 1984.19812 230.151001
916.199524 1995.17798 228.719101
917.28772 1991.32886 228.719101
930.034119 1996.14856 228.719101
929.712524 1992.16162 228.719101
946.756348 1992.8125 227.136444
945.795044 1988.92981 227.136444
990.912048 1981.09814 226.099045
990.235596 1977.15576 226.099045
1028.01172 1978.86353 225.007477
1027.7699 1974.87085 225.007477
3 0 1 2
3 1 3 2
3 2 3 4
3 3 5 4
3 4 5 6
3 5 7 6
3 6 7 8
3 7 9 8
3 8 9 10
3 9 11 10
3 10 11 12
3 11 13 12
3 12 13 14
3 13 15 14
