ply
format ascii 1.0
element vertex 8
property float x
property float y
property float z
element face 12
property list uchar int vertex_indices
end_header
1290.96838 -1003.0777 235.051117
1301.25134 -998.947693 233.209412
1299.60535 -972.49823 245.53714
1288.58643 -973.04364 247.030807
1290.96838 -1003.0777 243.051117
1301.25134 -998.947693 241.209412
1299.60535 -972.49823 253.53714
1288.58643 -973.04364 255.030807
3 6 7 4
3 0 3 2
3 4 5 6
3 2 1 0
3 0 1 5
3 0 5 4
3 1 2 6
3 1 6 5
3 2 3 7
3 2 7 6
3 3 0 4
3 3 4 7
