ply
format ascii 1.0
element vertex 8
property float x
property float y
property float z
element face 12
property list uchar int vertex_indices
end_header
-334.022369 -60.76931 239.83638
-321.667328 -63.6858826 225.745071
-327.031494 -86.3616638 235.437119
-339.386566 -83.43396 235.437119
-334.022369 -60.76931 247.83638
-321.667328 -63.6858826 233.745071
-327.031494 -86.3616638 243.437119
-339.386566 -83.43396 243.437119
3 5 4 7
3 3 0 1
3 7 6 5
3 1 2 3
3 0 1 5
3 0 5 4
3 1 2 6
3 1 6 5
3 2 3 7
3 2 7 6
3 3 0 4
3 3 4 7
