ply
format ascii 1.0
element vertex 10
property float x
property float y
property float z
element face 8
property list uchar int vertex_indices
end_header
932.512756 2011.69617 226.641373
933.914917 2015.44226 226.641373
907.518127 2021.05432 230.486221
909.121277 2024.71899 230.486221
896.951111 2027.28015 230.486221
899.141785 2030.62695 230.486221
886.523254 2034.79102 239.568863
889.197327 2037.76575 239.568863
874.577393 2047.36938 231.6633
877.478821 2050.12305 231.6633
3 0 1 2
3 1 3 2
3 2 3 4
3 3 5 4
3 4 5 6
3 5 7 6
3 6 7 8
3 7 9 8
