ply
format ascii 1.0
element vertex 16
property float x
property float y
property float z
element face 14
property list uchar int vertex_indices
end_header
-1315.46619 -876.953674 250.639404
-1325.16675 -874.524902 250.639404
-1320.45435 -896.865112 250.639404
-1330.22925 -894.75531 250.639404
-1321.7865 -906.004272 249.88707
-1331.76306 -905.319702 249.88707
-1321.63904 -914.271423 249.88707
-1331.62012 -914.885925 249.88707
-1320.78162 -922.019165 249.88707
-1330.65723 -923.591187 249.88707
-1318.90881 -931.328796 252.005951
-1328.67627 -933.473083 252.005951
-1317.09155 -938.837646 252.005951
-1326.698 -941.615723 252.005951
-1314.0155 -948.221985 252.005951
-1323.51904 -951.333801 252.005951
3 0 1 2
3 1 3 2
3 2 3 4
3 3 5 4
3 4 5 6
3 5 7 6
3 6 7 8
3 7 9 8
3 8 9 10
3 9 11 10
3 10 11 12
3 11 13 12
3 12 13 14
3 13 15 14
