ply
format ascii 1.0
element vertex 8
property float x
property float y
property float z
element face 12
property list uchar int vertex_indices
end_header
-415.656799 149.079056 216.659851
-385.563141 163.094193 215.850723
-380.905762 153.108826 222.807449
-411.009125 139.093704 216.659851
-415.656799 149.079056 224.659851
-385.563141 163.094193 223.850723
-380.905762 153.108826 230.807449
-411.009125 139.093704 224.659851
3 5 4 7
3 3 0 1
3 7 6 5
3 1 2 3
3 0 1 5
3 0 5 4
3 1 2 6
3 1 6 5
3 2 3 7
3 2 7 6
3 3 0 4
3 3 4 7
