ply
format ascii 1.0
element vertex 16
property float x
property float y
property float z
element face 14
property list uchar int vertex_indices
end_header
-1648.14966 2630.62842 0.0299999993
-1655.80298 2632.95801 0.0299999993
-1665.37866 2574.03369 0.0299999993
-1673.10229 2576.11792 0.0299999993
-1675.39368 2529.69165 318.434021
-1683.22717 2531.31543 318.434021
-1682.85425 2489.71289 318.524231
-1690.75537 2490.96606 318.524231
-1686.74744 2458.16626 318.716766
-1694.72449 2458.771 318.716766
-1690.52234 2388.49121 316.147369
-1698.52148 2388.60669 316.147369
-1690.51221 2196.87988 329.430206
-1698.51221 2196.90063 329.430206
-1691.25793 2104.84106 319.200775
-1699.25757 2104.90576 319.200775
3 0 1 2
3 1 3 2
3 2 3 4
3 3 5 4
3 4 5 6
3 5 7 6
3 6 7 8
3 7 9 8
3 8 9 10
3 9 11 10
3 10 11 12
3 11 13 12
3 12 13 14
3 13 15 14
