ply
format ascii 1.0
element vertex 16
property float x
property float y
property float z
element face 14
property list uchar int vertex_indices
end_header
121.177521 1819.74329 250.767471
128.460571 1823.05347 250.767471
47.3234062 1982.23755 269.84433
54.5768051 1985.61218 269.84433
-28.940134 2142.40479 277.028992
-21.7388554 2145.88916 277.028992
-68.4024429 2221.40479 275.307373
-61.2482452 2224.98511 275.307373
-78.6803665 2241.79956 275.482697
-71.5362701 2245.3999 275.482697
-116.994385 2317.82739 276.12088
-109.831383 2321.38989 276.12088
-141.836197 2368.80566 280.587646
-134.932678 2372.84814 280.587646
-154.879623 2382.69751 277.549072
-149.020035 2388.14404 277.549072
3 0 1 2
3 1 3 2
3 2 3 4
3 3 5 4
3 4 5 6
3 5 7 6
3 6 7 8
3 7 9 8
3 8 9 10
3 9 11 10
3 10 11 12
3 11 13 12
3 12 13 14
3 13 15 14
