ply
format ascii 1.0
element vertex 18
property float x
property float y
property float z
element face 16
property list uchar int vertex_indices
end_header
-353.745239 400.066528 208.14827
-351.790771 402.970001 208.14827
-414.174561 440.74472 203.289246
-412.181549 443.621857 203.289246
-424.609283 449.159912 203.289246
-422.409607 451.882294 203.289246
-436.095612 458.570984 203.662933
-433.135284 460.438202 203.662933
-432.913513 466.571533 203.083679
-432.192535 463.146606 203.083679
-364.040436 476.0914 201.362411
-364.21106 472.595551 201.362411
-362.15329 461.5383 200.708435
-365.652771 461.478394 200.708435
-362.330139 451.09729 200.708435
-365.088623 448.943054 200.708435
-333.974548 425.981842 205.513641
-336.297211 423.363586 205.513641
3 0 1 2
3 1 3 2
3 2 3 4
3 3 5 4
3 4 5 6
3 5 7 6
3 6 7 8
3 7 9 8
3 8 9 10
3 9 11 10
3 10 11 12
3 11 13 12
3 12 13 14
3 13 15 14
3 14 15 16
3 15 17 16
