ply
format ascii 1.0
element vertex 8
property float x
property float y
property float z
element face 12
property list uchar int vertex_indices
end_header
-2077.67407 -970.583496 317.771271
-2014.94983 -959.930237 314.075012
-2013.17786 -970.394287 314.075012
-2075.9021 -981.036438 317.771271
-2077.67407 -970.583496 320.971283
-2014.94983 -959.930237 317.275024
-2013.17786 -970.394287 317.275024
-2075.9021 -981.036438 320.971283
3 5 4 7
3 3 0 1
3 7 6 5
3 1 2 3
3 0 1 5
3 0 5 4
3 1 2 6
3 1 6 5
3 2 3 7
3 2 7 6
3 3 0 4
3 3 4 7
