ply
format ascii 1.0
element vertex 42
property float x
property float y
property float z
element face 80
property list uchar int vertex_indices
end_header
1645.25659 1273.39478 212.992874
1631.99133 1277.71399 217.57312
1633.49219 1282.33374 217.57312
1628.80579 1283.85876 217.57312
1627.85681 1280.93115 217.57312
1618.66797 1283.92566 217.57312
1621.74707 1293.39893 217.57312
1624.95203 1292.35254 217.57312
1627.6438 1300.63464 218.803894
1624.35168 1301.70337 218.803894
1627.98267 1312.86865 218.803894
1638.00427 1309.60706 218.803894
1637.17151 1307.04663 218.803894
1642.40991 1305.34351 212.744995
1643.04895 1307.29163 212.744995
1654.60034 1303.52893 212.744995
1652.5282 1297.1615 212.992874
1651.18237 1297.5957 212.992874
1649.73962 1293.15405 212.992874
1645.97302 1281.599 212.992874
1647.73535 1281.03125 212.992874
1645.25659 1273.39478 220.992874
1631.99133 1277.71399 225.57312
1633.49219 1282.33374 225.57312
1628.80579 1283.85876 225.57312
1627.85681 1280.93115 225.57312
1618.66797 1283.92566 225.57312
1621.74707 1293.39893 225.57312
1624.95203 1292.35254 225.57312
1627.6438 1300.63464 226.803894
1624.35168 1301.70337 226.803894
1627.98267 1312.86865 226.803894
1638.00427 1309.60706 226.803894
1637.17151 1307.04663 226.803894
1642.40991 1305.34351 220.744995
1643.04895 1307.29163 220.744995
1654.60034 1303.52893 220.744995
1652.5282 1297.1615 220.992874
1651.18237 1297.5957 220.992874
1649.73962 1293.15405 220.992874
1645.97302 1281.599 220.992874
1647.73535 1281.03125 220.992874
3 22 21 41
3 20 0 1
3 40 39 38
3 17 18 19
3 38 37 36
3 15 16 17
3 36 35 34
3 13 14 15
3 33 32 31
3 10 11 12
3 31 30 29
3 8 9 10
3 28 27 26
3 5 6 7
3 26 25 24
3 3 4 5
3 23 22 41
3 20 1 2
3 38 36 34
3 13 15 17
3 33 31 29
3 8 10 12
3 28 26 24
3 3 5 7
3 24 23 41
3 20 2 3
3 40 38 34
3 13 17 19
3 34 33 29
3 8 12 13
3 29 28 24
3 3 7 8
3 24 41 40
3 19 20 3
3 40 34 29
3 8 13 19
3 29 24 40
3 19 3 8
3 0 1 22
3 0 22 21
3 1 2 23
3 1 23 22
3 2 3 24
3 2 24 23
3 3 4 25
3 3 25 24
3 4 5 26
3 4 26 25
3 5 6 27
3 5 27 26
3 6 7 28
3 6 28 27
3 7 8 29
3 7 29 28
3 8 9 30
3 8 30 29
3 9 10 31
3 9 31 30
3 10 11 32
3 10 32 31
3 11 12 33
3 11 33 32
3 12 13 34
3 12 34 33
3 13 14 35
3 13 35 34
3 14 15 36
3 14 36 35
3 15 16 37
3 15 37 36
3 16 17 38
3 16 38 37
3 17 18 39
3 17 39 38
3 18 19 40
3 18 40 39
3 19 20 41
3 19 41 40
3 20 0 21
3 20 21 41
