ply
format ascii 1.0
element vertex 34
property float x
property float y
property float z
element face 32
property list uchar int vertex_indices
end_header
2125.18335 2410.93188 189.532349
2125.07397 2408.93481 189.532349
2130.68164 2410.39722 194.089127
2129.31665 2408.9353 194.089127
2179.8335 2360.21655 193.340027
2178.40479 2358.81714 193.340027
2185.24854 2354.68384 199.54007
2183.75684 2353.35156 199.54007
2186.35278 2352.81152 199.54007
2184.4729 2352.12915 199.54007
2187.11816 2349.74121 196.705704
2185.25684 2349.01001 196.705704
2187.80493 2348.90381 196.705704
2186.37109 2347.50952 196.705704
2194.8811 2341.8689 196.705704
2193.47021 2340.45142 196.705704
2198.76416 2337.99487 196.705704
2197.35278 2336.57788 196.705704
2205.85669 2330.92139 196.705704
2204.66772 2329.31323 196.705704
2209.57202 2329.99927 204.038437
2208.67944 2328.20947 204.038437
2211.75586 2327.9353 204.038437
2210.32983 2326.53296 204.038437
2225.45996 2313.91821 196.334473
2224.0083 2312.54224 196.334473
2226.25342 2312.38989 196.334473
2224.27979 2312.06665 196.334473
2226.09668 2310.75293 196.334473
2224.12671 2311.09863 196.334473
2225.58765 2309.00391 196.334473
2224.03564 2310.26514 196.334473
2219.23364 2302.1106 196.334473
2217.76343 2303.46631 196.334473
3 0 1 2
3 1 3 2
3 2 3 4
3 3 5 4
3 4 5 6
3 5 7 6
3 6 7 8
3 7 9 8
3 8 9 10
3 9 11 10
3 10 11 12
3 11 13 12
3 12 13 14
3 13 15 14
3 14 15 16
3 15 17 16
3 16 17 18
3 17 19 18
3 18 19 20
3 19 21 20
3 20 21 22
3 21 23 22
3 22 23 24
3 23 25 24
3 24 25 26
3 25 27 26
3 26 27 28
3 27 29 28
3 28 29 30
3 29 31 30
3 30 31 32
3 31 33 32
