ply
format ascii 1.0
element vertex 8
property float x
property float y
property float z
element face 12
property list uchar int vertex_indices
end_header
-1922.76135 -390.364044 230.724625
-1913.43689 -421.934265 237.981842
-1942.91089 -430.639465 249.702682
-1952.23535 -399.058105 237.857422
-1922.76135 -390.364044 233.924622
-1913.43689 -421.934265 241.181839
-1942.91089 -430.639465 252.902679
-1952.23535 -399.058105 241.057419
3 5 4 7
3 3 0 1
3 7 6 5
3 1 2 3
3 0 1 5
3 0 5 4
3 1 2 6
3 1 6 5
3 2 3 7
3 2 7 6
3 3 0 4
3 3 4 7
