ply
format ascii 1.0
element vertex 14
property float x
property float y
property float z
element face 24
property list uchar int vertex_indices
end_header
-845.585815 490.473663 235.150299
-841.46106 482.659058 235.150299
-850.175415 478.050415 235.150299
-854.309937 485.865051 235.150299
-867.439575 478.92984 240.767929
-872.852173 489.182373 240.767929
-851.008118 500.726196 229.352432
-845.585815 490.473663 243.150299
-841.46106 482.659058 243.150299
-850.175415 478.050415 243.150299
-854.309937 485.865051 243.150299
-867.439575 478.92984 248.767929
-872.852173 489.182373 248.767929
-851.008118 500.726196 237.352432
3 8 7 13
3 6 0 1
3 13 12 11
3 4 5 6
3 10 9 8
3 1 2 3
3 13 11 10
3 3 4 6
3 10 8 13
3 6 1 3
3 0 1 8
3 0 8 7
3 1 2 9
3 1 9 8
3 2 3 10
3 2 10 9
3 3 4 11
3 3 11 10
3 4 5 12
3 4 12 11
3 5 6 13
3 5 13 12
3 6 0 7
3 6 7 13
