ply
format ascii 1.0
element vertex 38
property float x
property float y
property float z
element face 36
property list uchar int vertex_indices
end_header
-2694.91919 1034.7146 253.199249
-2703.19702 1029.10425 253.199249
-2638.21216 951.045227 248.096878
-2646.46216 945.393616 248.096878
-2591.71753 884.066345 248.646912
-2599.9646 878.410645 248.646912
-2562.33691 840.403931 244.255341
-2570.70703 834.932129 244.255341
-2554.62158 827.313232 246.700333
-2563.23999 822.241272 246.700333
-2546.92749 814.220398 239.213821
-2555.77124 809.55249 239.213821
-2534.78125 789.726318 238.291061
-2543.80762 785.42218 238.291061
-2531.54077 781.947632 238.291061
-2540.77344 778.105957 238.291061
-2524.70532 765.500122 236.482742
-2534.16968 762.270874 236.482742
-2504.98584 704.129456 227.81134
-2514.61621 701.434998 227.81134
-2500.19995 677.832275 232.249695
-2510.06812 676.213501 232.249695
-2496.35596 651.681152 232.249695
-2506.28198 650.467468 232.249695
-2490.10425 595.297668 228.784912
-2500.04321 594.195618 228.784912
-2483.85107 538.893982 234.99295
-2493.80591 537.944031 234.99295
-2482.74438 518.003357 236.538696
-2492.74341 517.86908 236.538696
-2483.32544 499.034515 236.538696
-2493.28564 499.924347 236.538696
-2485.99365 481.642853 227.893906
-2495.80737 483.563904 227.893906
-2490.02441 464.798584 227.893906
-2499.6001 467.680267 227.893906
-2500.19849 434.363831 223.168152
-2509.68237 437.534943 223.168152
3 0 1 2
3 1 3 2
3 2 3 4
3 3 5 4
3 4 5 6
3 5 7 6
3 6 7 8
3 7 9 8
3 8 9 10
3 9 11 10
3 10 11 12
3 11 13 12
3 12 13 14
3 13 15 14
3 14 15 16
3 15 17 16
3 16 17 18
3 17 19 18
3 18 19 20
3 19 21 20
3 20 21 22
3 21 23 22
3 22 23 24
3 23 25 24
3 24 25 26
3 25 27 26
3 26 27 28
3 27 29 28
3 28 29 30
3 29 31 30
3 30 31 32
3 31 33 32
3 32 33 34
3 33 35 34
3 34 35 36
3 35 37 36
