ply
format ascii 1.0
element vertex 24
property float x
property float y
property float z
element face 44
property list uchar int vertex_indices
end_header
-2158.33057 -1263.72107 338.596802
-2155.94849 -1273.16101 339.561707
-2152.20142 -1272.21484 339.561707
-2149.05444 -1284.68262 333.076019
-2117.9248 -1277.04602 331.130127
-2121.06201 -1264.57825 339.405914
-2117.3147 -1263.63208 339.405914
-2119.69678 -1254.19214 339.405914
-2127.27832 -1256.10681 339.376343
-2125.44824 -1263.34265 339.376343
-2148.92871 -1269.05334 333.076019
-2150.74902 -1261.8064 339.376343
-2158.33057 -1263.72107 346.596802
-2155.94849 -1273.16101 347.561707
-2152.20142 -1272.21484 347.561707
-2149.05444 -1284.68262 341.076019
-2117.9248 -1277.04602 339.130127
-2121.06201 -1264.57825 347.405914
-2117.3147 -1263.63208 347.405914
-2119.69678 -1254.19214 347.405914
-2127.27832 -1256.10681 347.376343
-2125.44824 -1263.34265 347.376343
-2148.92871 -1269.05334 341.076019
-2150.74902 -1261.8064 347.376343
3 22 23 12
3 0 11 10
3 12 13 14
3 2 1 0
3 14 15 16
3 4 3 2
3 17 18 19
3 7 6 5
3 19 20 21
3 9 8 7
3 22 12 14
3 2 0 10
3 14 16 17
3 5 4 2
3 17 19 21
3 9 7 5
3 21 22 14
3 2 10 9
3 14 17 21
3 9 5 2
3 0 1 13
3 0 13 12
3 1 2 14
3 1 14 13
3 2 3 15
3 2 15 14
3 3 4 16
3 3 16 15
3 4 5 17
3 4 17 16
3 5 6 18
3 5 18 17
3 6 7 19
3 6 19 18
3 7 8 20
3 7 20 19
3 8 9 21
3 8 21 20
3 9 10 22
3 9 22 21
3 10 11 23
3 10 23 22
3 11 0 12
3 11 12 23
