ply
format ascii 1.0
element vertex 16
property float x
property float y
property float z
element face 14
property list uchar int vertex_indices
end_header
3055.15283 348.862061 186.42836
3053.28247 348.153778 186.42836
3063.36011 327.12204 192.694656
3061.38086 326.835449 192.694656
3062.61499 297.439606 195.918228
3060.61572 297.384979 195.918228
3065.84888 236.305527 187.547485
3063.84961 236.245712 187.547485
3067.51465 133.681793 191.324738
3065.51465 133.685364 191.324738
3065.53931 62.5701141 192.100006
3063.53931 62.5752563 192.100006
3067.16235 -1.74019957 189.455002
3065.16968 -1.91107976 189.455002
3070.99536 -4.51658726 191.975754
3069.72192 -6.05876446 191.975754
3 0 1 2
3 1 3 2
3 2 3 4
3 3 5 4
3 4 5 6
3 5 7 6
3 6 7 8
3 7 9 8
3 8 9 10
3 9 11 10
3 10 11 12
3 11 13 12
3 12 13 14
3 13 15 14
