ply
format ascii 1.0
element vertex 24
property float x
property float y
property float z
element face 44
property list uchar int vertex_indices
end_header
-2706.58154 -1689.44031 325.636597
-2707.00757 -1698.16772 325.636597
-2717.78442 -1697.63342 324.443542
-2718.67505 -1715.75623 329.054688
-2707.55957 -1716.30164 326.070557
-2707.90796 -1723.38159 326.070557
-2691.11841 -1724.20532 326.070557
-2690.77954 -1717.28125 326.070557
-2679.63477 -1717.82678 317.019165
-2678.62769 -1697.38843 321.503479
-2690.57617 -1696.79846 325.636597
-2690.25659 -1690.2417 325.636597
-2706.58154 -1689.44031 333.636597
-2707.00757 -1698.16772 333.636597
-2717.78442 -1697.63342 332.443542
-2718.67505 -1715.75623 337.054688
-2707.55957 -1716.30164 334.070557
-2707.90796 -1723.38159 334.070557
-2691.11841 -1724.20532 334.070557
-2690.77954 -1717.28125 334.070557
-2679.63477 -1717.82678 325.019165
-2678.62769 -1697.38843 329.503479
-2690.57617 -1696.79846 333.636597
-2690.25659 -1690.2417 333.636597
3 22 23 12
3 0 11 10
3 13 14 15
3 3 2 1
3 16 17 18
3 6 5 4
3 19 20 21
3 9 8 7
3 22 12 13
3 1 0 10
3 13 15 16
3 4 3 1
3 16 18 19
3 7 6 4
3 19 21 22
3 10 9 7
3 22 13 16
3 4 1 10
3 16 19 22
3 10 7 4
3 0 1 13
3 0 13 12
3 1 2 14
3 1 14 13
3 2 3 15
3 2 15 14
3 3 4 16
3 3 16 15
3 4 5 17
3 4 17 16
3 5 6 18
3 5 18 17
3 6 7 19
3 6 19 18
3 7 8 20
3 7 20 19
3 8 9 21
3 8 21 20
3 9 10 22
3 9 22 21
3 10 11 23
3 10 23 22
3 11 0 12
3 11 12 23
