ply
format ascii 1.0
element vertex 66
property float x
property float y
property float z
element face 128
property list uchar int vertex_indices
end_header
2320.86353 624.891968 191.649597
2317.25195 613.092102 196.332108
2315.58643 607.693115 196.332108
2315.18945 602.55011 196.332108
2314.77319 599.043579 196.332108
2323.07104 598.208679 196.332108
2347.35522 594.479492 197.926208
2368.25024 589.625977 198.864517
2384.13965 584.238098 200.356247
2400.69702 578.327026 199.704712
2437.68457 560.905518 197.835526
2478.30347 532.964355 193.716919
2478.74878 534.912415 193.716919
2481.49854 540.834595 193.716919
2486.19482 553.057495 193.716919
2473.57812 569.087524 196.747253
2459.95483 577.892883 196.747253
2462.1333 585.573914 196.747253
2471.54492 582.301147 196.747253
2480.56909 612.234924 190.371994
2473.52979 635.200134 196.551712
2458.41528 695.390625 196.309021
2445.48877 748.59021 184.191895
2442.91333 754.245239 184.191895
2439.32104 757.863098 184.191895
2434.66357 760.913269 184.191895
2429.69653 762.315857 184.191895
2424.81641 762.638672 184.191895
2420.1687 761.881714 181.056625
2415.89868 760.145142 181.056625
2411.78345 757.384399 181.056625
2372.99487 720.738037 183.952911
2339.30884 688.633484 177.493988
2320.86353 624.891968 194.849594
2317.25195 613.092102 199.532104
2315.58643 607.693115 199.532104
2315.18945 602.55011 199.532104
2314.77319 599.043579 199.532104
2323.07104 598.208679 199.532104
2347.35522 594.479492 201.126205
2368.25024 589.625977 202.064514
2384.13965 584.238098 203.556244
2400.69702 578.327026 202.904709
2437.68457 560.905518 201.035522
2478.30347 532.964355 196.916916
2478.74878 534.912415 196.916916
2481.49854 540.834595 196.916916
2486.19482 553.057495 196.916916
2473.57812 569.087524 199.94725
2459.95483 577.892883 199.94725
2462.1333 585.573914 199.94725
2471.54492 582.301147 199.94725
2480.56909 612.234924 193.571991
2473.52979 635.200134 199.751709
2458.41528 695.390625 199.509018
2445.48877 748.59021 187.391891
2442.91333 754.245239 187.391891
2439.32104 757.863098 187.391891
2434.66357 760.913269 187.391891
2429.69653 762.315857 187.391891
2424.81641 762.638672 187.391891
2420.1687 761.881714 184.256622
2415.89868 760.145142 184.256622
2411.78345 757.384399 184.256622
2372.99487 720.738037 187.152908
2339.30884 688.633484 180.693985
3 64 65 33
3 0 32 31
3 34 35 36
3 3 2 1
3 36 37 38
3 5 4 3
3 43 44 45
3 12 11 10
3 45 46 47
3 14 13 12
3 47 48 49
3 16 15 14
3 50 51 52
3 19 18 17
3 54 55 56
3 23 22 21
3 56 57 58
3 25 24 23
3 58 59 60
3 27 26 25
3 60 61 62
3 29 28 27
3 62 63 64
3 31 30 29
3 64 33 34
3 1 0 31
3 34 36 38
3 5 3 1
3 43 45 47
3 14 12 10
3 50 52 53
3 20 19 17
3 53 54 56
3 23 21 20
3 56 58 60
3 27 25 23
3 60 62 64
3 31 29 27
3 64 34 38
3 5 1 31
3 42 43 47
3 14 10 9
3 49 50 53
3 20 17 16
3 53 56 60
3 27 23 20
3 60 64 38
3 5 31 27
3 41 42 47
3 14 9 8
3 49 53 60
3 27 20 16
3 60 38 39
3 6 5 27
3 40 41 47
3 14 8 7
3 49 60 39
3 6 27 16
3 40 47 49
3 16 14 7
3 49 39 40
3 7 6 16
3 0 1 34
3 0 34 33
3 1 2 35
3 1 35 34
3 2 3 36
3 2 36 35
3 3 4 37
3 3 37 36
3 4 5 38
3 4 38 37
3 5 6 39
3 5 39 38
3 6 7 40
3 6 40 39
3 7 8 41
3 7 41 40
3 8 9 42
3 8 42 41
3 9 10 43
3 9 43 42
3 10 11 44
3 10 44 43
3 11 12 45
3 11 45 44
3 12 13 46
3 12 46 45
3 13 14 47
3 13 47 46
3 14 15 48
3 14 48 47
3 15 16 49
3 15 49 48
3 16 17 50
3 16 50 49
3 17 18 51
3 17 51 50
3 18 19 52
3 18 52 51
3 19 20 53
3 19 53 52
3 20 21 54
3 20 54 53
3 21 22 55
3 21 55 54
3 22 23 56
3 22 56 55
3 23 24 57
3 23 57 56
3 24 25 58
3 24 58 57
3 25 26 59
3 25 59 58
3 26 27 60
3 26 60 59
3 27 28 61
3 27 61 60
3 28 29 62
3 28 62 61
3 29 30 63
3 29 63 62
3 30 31 64
3 30 64 63
3 31 32 65
3 31 65 64
3 32 0 33
3 32 33 65
