ply
format ascii 1.0
element vertex 16
property float x
property float y
property float z
element face 28
property list uchar int vertex_indices
end_header
2871.37061 -1543.42249 263.891541
2876.05688 -1544.02356 263.891541
2875.62134 -1547.32983 263.137909
2870.93481 -1546.72864 263.137909
2870.50879 -1550.04602 263.137909
2865.27051 -1549.35583 263.137909
2866.13232 -1542.74341 263.891541
2868.38818 -1543.03284 263.891541
2871.37061 -1543.42249 271.891541
2876.05688 -1544.02356 271.891541
2875.62134 -1547.32983 271.137909
2870.93481 -1546.72864 271.137909
2870.50879 -1550.04602 271.137909
2865.27051 -1549.35583 271.137909
2866.13232 -1542.74341 271.891541
2868.38818 -1543.03284 271.891541
3 8 15 14
3 6 7 0
3 14 13 12
3 4 5 6
3 11 10 9
3 1 2 3
3 14 12 11
3 3 4 6
3 11 9 8
3 0 1 3
3 8 14 11
3 3 6 0
3 0 1 9
3 0 9 8
3 1 2 10
3 1 10 9
3 2 3 11
3 2 11 10
3 3 4 12
3 3 12 11
3 4 5 13
3 4 13 12
3 5 6 14
3 5 14 13
3 6 7 15
3 6 15 14
3 7 0 8
3 7 8 15
