ply
format ascii 1.0
element vertex 8
property float x
property float y
property float z
element face 12
property list uchar int vertex_indices
end_header
-1191.42102 1293.65491 291.506866
-1166.05249 1297.68469 288.883881
-1164.66785 1288.97949 288.883881
-1190.02673 1284.94971 291.506866
-1191.42102 1293.65491 299.506866
-1166.05249 1297.68469 296.883881
-1164.66785 1288.97949 296.883881
-1190.02673 1284.94971 299.506866
3 5 4 7
3 3 0 1
3 7 6 5
3 1 2 3
3 0 1 5
3 0 5 4
3 1 2 6
3 1 6 5
3 2 3 7
3 2 7 6
3 3 0 4
3 3 4 7
