ply
format ascii 1.0
element vertex 10
property float x
property float y
property float z
element face 16
property list uchar int vertex_indices
end_header
3075.59692 -1116.03357 239.144867
3084.11768 -1108.88684 238.489716
3089.23975 -1114.99829 239.144867
3088.87183 -1115.29883 239.144867
3080.71924 -1122.13391 239.144867
3075.59692 -1116.03357 247.144867
3084.11768 -1108.88684 246.489716
3089.23975 -1114.99829 247.144867
3088.87183 -1115.29883 247.144867
3080.71924 -1122.13391 247.144867
3 6 5 9
3 4 0 1
3 8 7 6
3 1 2 3
3 6 9 8
3 3 4 1
3 0 1 6
3 0 6 5
3 1 2 7
3 1 7 6
3 2 3 8
3 2 8 7
3 3 4 9
3 3 9 8
3 4 0 5
3 4 5 9
