ply
format ascii 1.0
element vertex 44
property float x
property float y
property float z
element face 42
property list uchar int vertex_indices
end_header
-1996.76465 -1115.6748 280.281219
-1999.88477 -1117.26062 280.281219
-1991.08838 -1126.84521 280.281219
-1994.15491 -1128.53223 280.281219
-1989.37476 -1129.23816 280.281219
-1991.87927 -1131.68298 280.281219
-1987.40283 -1130.67236 278.535736
-1988.95178 -1133.81091 278.535736
-1984.55994 -1131.62524 278.535736
-1984.92004 -1135.10669 278.535736
-1981.01965 -1131.31165 278.535736
-1980.2688 -1134.73022 278.535736
-1978.33508 -1130.27844 278.535736
-1976.44653 -1133.22522 278.535736
-1966.51233 -1121.88806 278.535736
-1964.75977 -1124.91772 278.535736
-1960.77063 -1120.24988 273.835236
-1960.21851 -1123.70605 273.835236
-1955.06946 -1120.04651 273.835236
-1955.71423 -1123.48657 273.835236
-1949.74084 -1122.34827 273.835236
-1951.65063 -1125.28137 273.835236
-1945.76819 -1126.10999 273.835236
-1948.67114 -1128.06519 273.835236
-1943.80664 -1131.2572 273.835236
-1947.28247 -1131.6676 273.835236
-1944.52515 -1136.63965 273.835236
-1947.80334 -1135.41345 273.835236
-1947.75769 -1141.54858 273.835236
-1949.81885 -1138.71985 273.835236
-2013.29028 -1187.10352 270.312347
-2015.31189 -1184.24646 270.312347
-2015.30737 -1189.19226 278.855225
-2018.25232 -1187.30078 278.855225
-2016.59424 -1192.22485 278.855225
-2020.04456 -1191.63757 278.855225
-2016.27625 -1195.22998 278.855225
-2019.7428 -1195.71228 278.855225
-2015.78186 -1197.8761 278.855225
-2019.01721 -1199.21106 278.855225
-1980.41467 -1282.00391 273.388062
-1983.66223 -1283.3092 273.388062
-1967.74524 -1317.39966 276.901184
-1971.04065 -1318.5791 276.901184
3 0 1 2
3 1 3 2
3 2 3 4
3 3 5 4
3 4 5 6
3 5 7 6
3 6 7 8
3 7 9 8
3 8 9 10
3 9 11 10
3 10 11 12
3 11 13 12
3 12 13 14
3 13 15 14
3 14 15 16
3 15 17 16
3 16 17 18
3 17 19 18
3 18 19 20
3 19 21 20
3 20 21 22
3 21 23 22
3 22 23 24
3 23 25 24
3 24 25 26
3 25 27 26
3 26 27 28
3 27 29 28
3 28 29 30
3 29 31 30
3 30 31 32
3 31 33 32
3 32 33 34
3 33 35 34
3 34 35 36
3 35 37 36
3 36 37 38
3 37 39 38
3 38 39 40
3 39 41 40
3 40 41 42
3 41 43 42
