ply
format ascii 1.0
element vertex 8
property float x
property float y
property float z
element face 12
property list uchar int vertex_indices
end_header
327.002472 -441.604431 294.755524
341.904053 -487.902191 286.545593
358.074097 -483.137726 278.320984
344.121399 -435.582031 294.755524
327.002472 -441.604431 302.755524
341.904053 -487.902191 294.545593
358.074097 -483.137726 286.320984
344.121399 -435.582031 302.755524
3 6 7 4
3 0 3 2
3 4 5 6
3 2 1 0
3 0 1 5
3 0 5 4
3 1 2 6
3 1 6 5
3 2 3 7
3 2 7 6
3 3 0 4
3 3 4 7
