ply
format ascii 1.0
element vertex 28
property float x
property float y
property float z
element face 52
property list uchar int vertex_indices
end_header
1672.81335 -1180.47644 195.679764
1667.09094 -1183.30396 200.504959
1656.30444 -1161.46301 196.964905
1665.8999 -1156.73193 196.964905
1664.34106 -1153.57043 196.964905
1665.745 -1152.86914 196.964905
1663.69226 -1148.71692 196.964905
1670.96399 -1145.12134 193.380875
1677.13184 -1157.62256 193.380875
1687.19214 -1152.65771 193.380875
1695.42236 -1169.32214 192.529892
1689.95166 -1172.01611 193.380875
1691.22009 -1174.58765 193.380875
1674.08179 -1183.04785 195.679764
1672.81335 -1180.47644 246.879761
1667.09094 -1183.30396 251.704956
1656.30444 -1161.46301 248.164902
1665.8999 -1156.73193 248.164902
1664.34106 -1153.57043 248.164902
1665.745 -1152.86914 248.164902
1663.69226 -1148.71692 248.164902
1670.96399 -1145.12134 244.580872
1677.13184 -1157.62256 244.580872
1687.19214 -1152.65771 244.580872
1695.42236 -1169.32214 243.729889
1689.95166 -1172.01611 244.580872
1691.22009 -1174.58765 244.580872
1674.08179 -1183.04785 246.879761
3 14 27 26
3 12 13 0
3 25 24 23
3 9 10 11
3 22 21 20
3 6 7 8
3 19 18 17
3 3 4 5
3 17 16 15
3 1 2 3
3 14 26 25
3 11 12 0
3 25 23 22
3 8 9 11
3 22 20 19
3 5 6 8
3 19 17 15
3 1 3 5
3 14 25 22
3 8 11 0
3 22 19 15
3 1 5 8
3 15 14 22
3 8 0 1
3 0 1 15
3 0 15 14
3 1 2 16
3 1 16 15
3 2 3 17
3 2 17 16
3 3 4 18
3 3 18 17
3 4 5 19
3 4 19 18
3 5 6 20
3 5 20 19
3 6 7 21
3 6 21 20
3 7 8 22
3 7 22 21
3 8 9 23
3 8 23 22
3 9 10 24
3 9 24 23
3 10 11 25
3 10 25 24
3 11 12 26
3 11 26 25
3 12 13 27
3 12 27 26
3 13 0 14
3 13 14 27
