ply
format ascii 1.0
element vertex 8
property float x
property float y
property float z
element face 12
property list uchar int vertex_indices
end_header
143.225754 -93.7644043 243.290024
165.447449 -88.6103134 229.751221
173.764847 -124.444061 246.935608
151.543152 -129.598145 250.428574
143.225754 -93.7644043 251.290024
165.447449 -88.6103134 237.751221
173.764847 -124.444061 254.935608
151.543152 -129.598145 258.428589
3 5 4 7
3 3 0 1
3 7 6 5
3 1 2 3
3 0 1 5
3 0 5 4
3 1 2 6
3 1 6 5
3 2 3 7
3 2 7 6
3 3 0 4
3 3 4 7
