ply
format ascii 1.0
element vertex 10
property float x
property float y
property float z
element face 16
property list uchar int vertex_indices
end_header
2177.49243 87.6974945 266.136566
2182.76953 103.649574 249.01915
2186.43921 114.703606 249.01915
2212.06909 106.209923 241.127975
2203.12256 79.2038193 258.464142
2177.49243 87.6974945 274.136566
2182.76953 103.649574 257.019165
2186.43921 114.703606 257.019165
2212.06909 106.209923 249.127975
2203.12256 79.2038193 266.464142
3 6 5 9
3 4 0 1
3 9 8 7
3 2 3 4
3 7 6 9
3 4 1 2
3 0 1 6
3 0 6 5
3 1 2 7
3 1 7 6
3 2 3 8
3 2 8 7
3 3 4 9
3 3 9 8
3 4 0 5
3 4 5 9
