ply
format ascii 1.0
element vertex 36
property float x
property float y
property float z
element face 68
property list uchar int vertex_indices
end_header
1504.51929 -683.935791 270.394836
1526.83777 -699.743164 269.994049
1527.84473 -700.511292 269.994049
1528.2998 -701.791443 269.994049
1528.21265 -702.759949 269.994049
1527.71887 -703.583679 269.994049
1507.43372 -732.226196 274.869751
1506.54285 -733.150146 279.095398
1505.48755 -733.751282 279.095398
1504.43213 -733.617737 279.095398
1503.23145 -733.061096 279.095398
1480.92261 -717.253723 279.095398
1480.27393 -716.07373 279.095398
1480.23511 -714.69342 279.095398
1480.73865 -713.324158 279.095398
1501.03345 -684.670532 270.394836
1502.04053 -683.980347 270.394836
1502.96033 -683.846741 270.394836
1504.51929 -683.935791 493.394836
1526.83777 -699.743164 492.994049
1527.84473 -700.511292 492.994049
1528.2998 -701.791443 492.994049
1528.21265 -702.759949 492.994049
1527.71887 -703.583679 492.994049
1507.43372 -732.226196 497.869751
1506.54285 -733.150146 502.095398
1505.48755 -733.751282 502.095398
1504.43213 -733.617737 502.095398
1503.23145 -733.061096 502.095398
1480.92261 -717.253723 502.095398
1480.27393 -716.07373 502.095398
1480.23511 -714.69342 502.095398
1480.73865 -713.324158 502.095398
1501.03345 -684.670532 493.394836
1502.04053 -683.980347 493.394836
1502.96033 -683.846741 493.394836
3 19 18 35
3 17 0 1
3 35 34 33
3 15 16 17
3 33 32 31
3 13 14 15
3 31 30 29
3 11 12 13
3 29 28 27
3 9 10 11
3 27 26 25
3 7 8 9
3 25 24 23
3 5 6 7
3 23 22 21
3 3 4 5
3 21 20 19
3 1 2 3
3 19 35 33
3 15 17 1
3 33 31 29
3 11 13 15
3 29 27 25
3 7 9 11
3 25 23 21
3 3 5 7
3 21 19 33
3 15 1 3
3 33 29 25
3 7 11 15
3 25 21 33
3 15 3 7
3 0 1 19
3 0 19 18
3 1 2 20
3 1 20 19
3 2 3 21
3 2 21 20
3 3 4 22
3 3 22 21
3 4 5 23
3 4 23 22
3 5 6 24
3 5 24 23
3 6 7 25
3 6 25 24
3 7 8 26
3 7 26 25
3 8 9 27
3 8 27 26
3 9 10 28
3 9 28 27
3 10 11 29
3 10 29 28
3 11 12 30
3 11 30 29
3 12 13 31
3 12 31 30
3 13 14 32
3 13 32 31
3 14 15 33
3 14 33 32
3 15 16 34
3 15 34 33
3 16 17 35
3 16 35 34
3 17 0 18
3 17 18 35
