ply
format ascii 1.0
element vertex 8
property float x
property float y
property float z
element face 12
property list uchar int vertex_indices
end_header
3088.32959 -1183.18152 248.293533
3098.97095 -1181.33362 242.142365
3102.87305 -1203.79785 242.142365
3092.22217 -1205.64575 248.293533
3088.32959 -1183.18152 256.293518
3098.97095 -1181.33362 250.142365
3102.87305 -1203.79785 250.142365
3092.22217 -1205.64575 256.293518
3 5 4 7
3 3 0 1
3 7 6 5
3 1 2 3
3 0 1 5
3 0 5 4
3 1 2 6
3 1 6 5
3 2 3 7
3 2 7 6
3 3 0 4
3 3 4 7
