ply
format ascii 1.0
element vertex 14
property float x
property float y
property float z
element face 12
property list uchar int vertex_indices
end_header
-1601.27759 -2538.56396 0.0299999993
-1601.49133 -2542.05762 0.0299999993
-1556.70837 -2541.29126 0.0299999993
-1556.92212 -2544.78491 0.0299999993
-1521.05676 -2543.47314 0.0299999993
-1521.27063 -2546.9668 0.0299999993
-1505.61279 -2544.41943 0.0299999993
-1505.8269 -2547.91284 0.0299999993
-1406.28174 -2550.50708 0.0299999993
-1406.43127 -2554.00366 0.0299999993
-1403.53699 -2549.54956 0.0299999993
-1400.73279 -2551.6438 0.0299999993
-1385.0061 -2520.75098 195.799835
-1382.06299 -2522.64526 195.799835
3 0 1 2
3 1 3 2
3 2 3 4
3 3 5 4
3 4 5 6
3 5 7 6
3 6 7 8
3 7 9 8
3 8 9 10
3 9 11 10
3 10 11 12
3 11 13 12
