ply
format ascii 1.0
element vertex 8
property float x
property float y
property float z
element face 12
property list uchar int vertex_indices
end_header
-1790.95142 -1092.40039 274.555115
-1775.49792 -1089.92908 274.555115
-1773.01917 -1105.49158 272.203247
-1788.47266 -1107.95178 274.555115
-1790.95142 -1092.40039 277.755127
-1775.49792 -1089.92908 277.755127
-1773.01917 -1105.49158 275.403259
-1788.47266 -1107.95178 277.755127
3 5 4 7
3 3 0 1
3 7 6 5
3 1 2 3
3 0 1 5
3 0 5 4
3 1 2 6
3 1 6 5
3 2 3 7
3 2 7 6
3 3 0 4
3 3 4 7
