ply
format ascii 1.0
element vertex 18
property float x
property float y
property float z
element face 16
property list uchar int vertex_indices
end_header
1958.99585 1094.82117 176.099304
1957.21008 1093.92041 176.099304
1972.59521 1067.86084 175.924133
1970.79968 1066.97986 175.924133
1987.45496 1036.81226 177.733032
1985.62683 1036.0011 177.733032
1990.21667 1028.08032 177.733032
1988.24878 1027.72351 177.733032
1990.67664 1019.05414 177.611832
1988.67957 1019.16119 177.611832
1988.99695 1005.3866 177.611832
1987.08655 1005.97845 177.611832
1982.64966 993.116028 177.611832
1980.90442 994.092712 177.611832
1972.047 975.053955 176.592163
1970.32141 976.065002 176.592163
1946.21387 930.927246 176.747025
1944.48792 931.937683 176.747025
3 0 1 2
3 1 3 2
3 2 3 4
3 3 5 4
3 4 5 6
3 5 7 6
3 6 7 8
3 7 9 8
3 8 9 10
3 9 11 10
3 10 11 12
3 11 13 12
3 12 13 14
3 13 15 14
3 14 15 16
3 15 17 16
