ply
format ascii 1.0
element vertex 36
property float x
property float y
property float z
element face 34
property list uchar int vertex_indices
end_header
1036.33813 1242.61121 243.433121
1040.55164 1251.68018 243.433121
1020.08582 1250.16772 245.767517
1023.88293 1259.41882 245.767517
1004.16046 1255.87646 245.767517
1006.49994 1265.599 245.767517
986.010315 1258.41223 246.838379
986.34552 1268.40662 246.838379
876.438538 1260.05823 245.192825
876.66333 1270.05566 245.192825
861.065979 1261.2738 245.192825
862.736267 1271.1333 245.192825
833.625671 1267.26318 248.689896
835.76001 1277.03284 248.689896
699.552368 1296.55371 249.145966
701.604553 1306.34082 249.145966
693.541687 1296.74792 249.463654
693.517273 1306.7478 249.463654
527.300842 1296.02429 240.464035
527.294678 1306.02429 240.464035
476.887024 1296.62183 238.163788
477.434998 1306.60681 238.163788
465.942719 1299.67053 238.163788
469.788574 1308.90137 238.163788
455.882874 1305.21289 238.163788
461.780609 1313.2887 238.163788
446.318573 1313.99231 236.675903
453.89679 1320.51697 236.675903
440.005005 1323.92261 236.675903
449.365784 1327.44055 236.675903
437.947327 1335.96558 233.154922
447.918335 1336.72632 233.154922
437.978363 1347.88525 233.154922
447.964783 1348.40637 233.154922
435.485901 1383.12598 235.389633
445.460999 1383.8313 235.389633
3 0 1 2
3 1 3 2
3 2 3 4
3 3 5 4
3 4 5 6
3 5 7 6
3 6 7 8
3 7 9 8
3 8 9 10
3 9 11 10
3 10 11 12
3 11 13 12
3 12 13 14
3 13 15 14
3 14 15 16
3 15 17 16
3 16 17 18
3 17 19 18
3 18 19 20
3 19 21 20
3 20 21 22
3 21 23 22
3 22 23 24
3 23 25 24
3 24 25 26
3 25 27 26
3 26 27 28
3 27 29 28
3 28 29 30
3 29 31 30
3 30 31 32
3 31 33 32
3 32 33 34
3 33 35 34
