ply
format ascii 1.0
element vertex 12
property float x
property float y
property float z
element face 20
property list uchar int vertex_indices
end_header
-165.3022 40.2419968 224.679169
-157.720688 26.2380047 231.463745
-209.977951 -4.94258547 225.043793
-224.986053 -48.5464287 229.35994
-238.290024 -44.4164772 229.35994
-223.998428 4.92032146 218.107941
-165.3022 40.2419968 227.879166
-157.720688 26.2380047 234.663742
-209.977951 -4.94258547 228.24379
-224.986053 -48.5464287 232.559937
-238.290024 -44.4164772 232.559937
-223.998428 4.92032146 221.307938
3 7 6 11
3 5 0 1
3 11 10 9
3 3 4 5
3 8 7 11
3 5 1 2
3 11 9 8
3 2 3 5
3 0 1 7
3 0 7 6
3 1 2 8
3 1 8 7
3 2 3 9
3 2 9 8
3 3 4 10
3 3 10 9
3 4 5 11
3 4 11 10
3 5 0 6
3 5 6 11
