ply
format ascii 1.0
element vertex 8
property float x
property float y
property float z
element face 12
property list uchar int vertex_indices
end_header
943.825989 -944.690613 235.99585
941.298828 -952.716736 243.086838
932.855591 -950.056213 243.086838
935.382751 -942.030029 243.086838
943.825989 -944.690613 243.99585
941.298828 -952.716736 251.086838
932.855591 -950.056213 251.086838
935.382751 -942.030029 251.086838
3 5 4 7
3 3 0 1
3 7 6 5
3 1 2 3
3 0 1 5
3 0 5 4
3 1 2 6
3 1 6 5
3 2 3 7
3 2 7 6
3 3 0 4
3 3 4 7
