ply
format ascii 1.0
element vertex 18
property float x
property float y
property float z
element face 16
property list uchar int vertex_indices
end_header
-3399.54541 1117.53418 285.872375
-3404.27881 1114.73328 285.872375
-3389.69189 1100.88147 279.883636
-3394.47607 1098.16821 279.883636
-3387.43652 1096.1311 279.883636
-3392.54858 1094.10205 279.883636
-3385.82617 1091.15076 279.883636
-3391.15747 1089.79846 279.883636
-3375.15332 1047.80396 274.359528
-3380.48975 1046.4718 274.359528
-3374.17603 1044.43835 274.359528
-3379.37573 1042.64624 274.359528
-3372.86548 1041.16821 274.359528
-3377.89746 1038.94775 274.359528
-3371.38037 1038.08325 274.359528
-3376.12939 1035.30908 274.359528
-3363.74927 1025.59546 274.359528
-3368.44238 1022.72772 274.359528
3 0 1 2
3 1 3 2
3 2 3 4
3 3 5 4
3 4 5 6
3 5 7 6
3 6 7 8
3 7 9 8
3 8 9 10
3 9 11 10
3 10 11 12
3 11 13 12
3 12 13 14
3 13 15 14
3 14 15 16
3 15 17 16
