ply
format ascii 1.0
element vertex 26
property float x
property float y
property float z
element face 24
property list uchar int vertex_indices
end_header
2156.87256 2197.88257 193.177505
2156.36084 2199.81616 193.177505
2083.46948 2178.45508 190.592026
2082.97485 2180.39307 190.592026
2080.75903 2178.50269 190.592026
2080.82471 2180.50146 190.592026
2078.59302 2178.59424 190.592026
2079.04004 2180.54346 190.592026
2073.36206 2180.19556 190.592026
2074.14307 2182.03687 190.592026
2069.42041 2182.50122 191.260895
2070.62891 2184.09473 191.260895
2066.08105 2185.70728 191.260895
2067.59741 2187.01147 191.260895
2063.23193 2189.68506 191.260895
2064.94653 2190.7146 191.260895
2061.20557 2193.8418 191.260895
2063.09985 2194.48389 191.260895
2060.07886 2199.12451 192.281097
2062.07715 2199.04175 192.281097
2069.29639 2391.06128 192.137634
2071.29541 2391.00146 192.137634
2066.67188 2419.31055 192.668274
2068.67188 2419.32471 192.668274
2068.69604 2476.25977 195.719406
2070.69482 2476.18872 195.719406
3 0 1 2
3 1 3 2
3 2 3 4
3 3 5 4
3 4 5 6
3 5 7 6
3 6 7 8
3 7 9 8
3 8 9 10
3 9 11 10
3 10 11 12
3 11 13 12
3 12 13 14
3 13 15 14
3 14 15 16
3 15 17 16
3 16 17 18
3 17 19 18
3 18 19 20
3 19 21 20
3 20 21 22
3 21 23 22
3 22 23 24
3 23 25 24
