ply
format ascii 1.0
element vertex 64
property float x
property float y
property float z
element face 124
property list uchar int vertex_indices
end_header
1089.2981 -579.262085 280.10611
1089.85974 -578.716614 280.10611
1090.66345 -578.404968 280.10611
1122.11267 -572.18219 278.271973
1122.99377 -572.126526 278.271973
1123.74902 -572.382568 278.271973
1124.25256 -572.950317 278.271973
1124.54297 -573.85199 278.271973
1132.30847 -613.370422 257.291626
1132.30847 -614.03833 257.291626
1132.20203 -614.68396 257.291626
1131.9115 -615.196045 257.291626
1131.36926 -615.652466 257.291626
1130.77856 -615.88623 257.291626
1130.07178 -615.986389 274.983551
1129.43274 -615.930725 274.983551
1128.91956 -615.641296 274.983551
1112.02332 -604.542786 274.983551
1111.58765 -604.442566 274.983551
1104.84851 -605.644836 274.983551
1104.51929 -605.889709 274.983551
1099.30029 -613.181152 282.034271
1098.86462 -613.715515 282.034271
1098.36108 -614.105103 282.034271
1097.68335 -614.283203 282.034271
1096.97644 -614.227539 282.034271
1096.3374 -614.016052 282.034271
1095.84363 -613.604187 282.034271
1095.48535 -613.080994 282.034271
1095.29175 -612.468689 282.034271
1089.07544 -581.009827 280.10611
1089.01733 -580.041321 280.10611
1089.2981 -579.262085 437.10611
1089.85974 -578.716614 437.10611
1090.66345 -578.404968 437.10611
1122.11267 -572.18219 435.271973
1122.99377 -572.126526 435.271973
1123.74902 -572.382568 435.271973
1124.25256 -572.950317 435.271973
1124.54297 -573.85199 435.271973
1132.30847 -613.370422 414.291626
1132.30847 -614.03833 414.291626
1132.20203 -614.68396 414.291626
1131.9115 -615.196045 414.291626
1131.36926 -615.652466 414.291626
1130.77856 -615.88623 414.291626
1130.07178 -615.986389 431.983551
1129.43274 -615.930725 431.983551
1128.91956 -615.641296 431.983551
1112.02332 -604.542786 431.983551
1111.58765 -604.442566 431.983551
1104.84851 -605.644836 431.983551
1104.51929 -605.889709 431.983551
1099.30029 -613.181152 439.034271
1098.86462 -613.715515 439.034271
1098.36108 -614.105103 439.034271
1097.68335 -614.283203 439.034271
1096.97644 -614.227539 439.034271
1096.3374 -614.016052 439.034271
1095.84363 -613.604187 439.034271
1095.48535 -613.080994 439.034271
1095.29175 -612.468689 439.034271
1089.07544 -581.009827 437.10611
1089.01733 -580.041321 437.10611
3 33 32 63
3 31 0 1
3 63 62 61
3 29 30 31
3 61 60 59
3 27 28 29
3 59 58 57
3 25 26 27
3 57 56 55
3 23 24 25
3 55 54 53
3 21 22 23
3 49 48 47
3 15 16 17
3 47 46 45
3 13 14 15
3 45 44 43
3 11 12 13
3 43 42 41
3 9 10 11
3 41 40 39
3 7 8 9
3 39 38 37
3 5 6 7
3 37 36 35
3 3 4 5
3 35 34 33
3 1 2 3
3 33 63 61
3 29 31 1
3 61 59 57
3 25 27 29
3 57 55 53
3 21 23 25
3 49 47 45
3 13 15 17
3 45 43 41
3 9 11 13
3 41 39 37
3 5 7 9
3 37 35 33
3 1 3 5
3 33 61 57
3 25 29 1
3 57 53 52
3 20 21 25
3 49 45 41
3 9 13 17
3 41 37 33
3 1 5 9
3 33 57 52
3 20 25 1
3 49 41 33
3 1 9 17
3 33 52 51
3 19 20 1
3 50 49 33
3 1 17 18
3 33 51 50
3 18 19 1
3 0 1 33
3 0 33 32
3 1 2 34
3 1 34 33
3 2 3 35
3 2 35 34
3 3 4 36
3 3 36 35
3 4 5 37
3 4 37 36
3 5 6 38
3 5 38 37
3 6 7 39
3 6 39 38
3 7 8 40
3 7 40 39
3 8 9 41
3 8 41 40
3 9 10 42
3 9 42 41
3 10 11 43
3 10 43 42
3 11 12 44
3 11 44 43
3 12 13 45
3 12 45 44
3 13 14 46
3 13 46 45
3 14 15 47
3 14 47 46
3 15 16 48
3 15 48 47
3 16 17 49
3 16 49 48
3 17 18 50
3 17 50 49
3 18 19 51
3 18 51 50
3 19 20 52
3 19 52 51
3 20 21 53
3 20 53 52
3 21 22 54
3 21 54 53
3 22 23 55
3 22 55 54
3 23 24 56
3 23 56 55
3 24 25 57
3 24 57 56
3 25 26 58
3 25 58 57
3 26 27 59
3 26 59 58
3 27 28 60
3 27 60 59
3 28 29 61
3 28 61 60
3 29 30 62
3 29 62 61
3 30 31 63
3 30 63 62
3 31 0 32
3 31 32 63
