ply
format ascii 1.0
element vertex 8
property float x
property float y
property float z
element face 12
property list uchar int vertex_indices
end_header
-1669.58911 208.334427 246.000732
-1641.36414 212.687012 248.000427
-1639.13708 198.237747 243.53093
-1667.36206 193.885162 246.000732
-1669.58911 208.334427 254.000732
-1641.36414 212.687012 256.000427
-1639.13708 198.237747 251.53093
-1667.36206 193.885162 254.000732
3 5 4 7
3 3 0 1
3 7 6 5
3 1 2 3
3 0 1 5
3 0 5 4
3 1 2 6
3 1 6 5
3 2 3 7
3 2 7 6
3 3 0 4
3 3 4 7
