ply
format ascii 1.0
element vertex 8
property float x
property float y
property float z
element face 12
property list uchar int vertex_indices
end_header
-1179.08533 -135.965622 235.135132
-1180.84766 -128.25119 235.135132
-1166.70129 -125.000656 235.135132
-1164.92932 -132.726227 235.135132
-1179.08533 -135.965622 238.335129
-1180.84766 -128.25119 238.335129
-1166.70129 -125.000656 238.335129
-1164.92932 -132.726227 238.335129
3 5 4 7
3 3 0 1
3 7 6 5
3 1 2 3
3 0 1 5
3 0 5 4
3 1 2 6
3 1 6 5
3 2 3 7
3 2 7 6
3 3 0 4
3 3 4 7
