ply
format ascii 1.0
element vertex 8
property float x
property float y
property float z
element face 12
property list uchar int vertex_indices
end_header
-953.65387 381.369446 251.415283
-930.802856 378.374939 251.780853
-931.993835 369.224487 246.242264
-954.854553 372.207855 251.415283
-953.65387 381.369446 254.61528
-930.802856 378.374939 254.98085
-931.993835 369.224487 249.442261
-954.854553 372.207855 254.61528
3 5 4 7
3 3 0 1
3 7 6 5
3 1 2 3
3 0 1 5
3 0 5 4
3 1 2 6
3 1 6 5
3 2 3 7
3 2 7 6
3 3 0 4
3 3 4 7
