ply
format ascii 1.0
element vertex 16
property float x
property float y
property float z
element face 28
property list uchar int vertex_indices
end_header
-2526.85205 1127.14319 268.670288
-2519.95801 1127.33252 268.670288
-2519.25122 1101.41736 264.770325
-2557.29443 1100.38208 268.791687
-2558.00122 1126.28613 271.068085
-2550.3811 1126.49756 270.870941
-2550.47778 1129.7926 270.870941
-2526.94897 1130.43835 268.670288
-2526.85205 1127.14319 276.670288
-2519.95801 1127.33252 276.670288
-2519.25122 1101.41736 272.770325
-2557.29443 1100.38208 276.791687
-2558.00122 1126.28613 279.068085
-2550.3811 1126.49756 278.870941
-2550.47778 1129.7926 278.870941
-2526.94897 1130.43835 276.670288
3 8 15 14
3 6 7 0
3 13 12 11
3 3 4 5
3 11 10 9
3 1 2 3
3 8 14 13
3 5 6 0
3 11 9 8
3 0 1 3
3 8 13 11
3 3 5 0
3 0 1 9
3 0 9 8
3 1 2 10
3 1 10 9
3 2 3 11
3 2 11 10
3 3 4 12
3 3 12 11
3 4 5 13
3 4 13 12
3 5 6 14
3 5 14 13
3 6 7 15
3 6 15 14
3 7 0 8
3 7 8 15
