ply
format ascii 1.0
element vertex 14
property float x
property float y
property float z
element face 24
property list uchar int vertex_indices
end_header
2054.20337 248.609818 236.562256
2057.86328 250.780548 236.562256
2063.81812 240.761795 233.368484
2060.1582 238.591064 233.368484
2049.77832 232.412827 233.368484
2041.15112 246.928894 231.73172
2051.53076 253.095993 236.562256
2054.20337 248.609818 244.562256
2057.86328 250.780548 244.562256
2063.81812 240.761795 241.368484
2060.1582 238.591064 241.368484
2049.77832 232.412827 241.368484
2041.15112 246.928894 239.73172
2051.53076 253.095993 244.562256
3 7 13 12
3 5 6 0
3 12 11 10
3 3 4 5
3 10 9 8
3 1 2 3
3 7 12 10
3 3 5 0
3 10 8 7
3 0 1 3
3 0 1 8
3 0 8 7
3 1 2 9
3 1 9 8
3 2 3 10
3 2 10 9
3 3 4 11
3 3 11 10
3 4 5 12
3 4 12 11
3 5 6 13
3 5 13 12
3 6 0 7
3 6 7 13
