ply
format ascii 1.0
element vertex 8
property float x
property float y
property float z
element face 12
property list uchar int vertex_indices
end_header
1538.37952 -1110.83496 213.768982
1522.25781 -1094.22607 214.425003
1531.50476 -1085.25366 214.425003
1547.62634 -1101.86255 213.768982
1538.37952 -1110.83496 221.768982
1522.25781 -1094.22607 222.425003
1531.50476 -1085.25366 222.425003
1547.62634 -1101.86255 221.768982
3 5 4 7
3 3 0 1
3 7 6 5
3 1 2 3
3 0 1 5
3 0 5 4
3 1 2 6
3 1 6 5
3 2 3 7
3 2 7 6
3 3 0 4
3 3 4 7
