ply
format ascii 1.0
element vertex 20
property float x
property float y
property float z
element face 18
property list uchar int vertex_indices
end_header
812.250122 -352.151978 277.377472
812.614807 -348.671021 277.377472
795.990967 -350.448578 280.650452
796.359619 -346.968048 280.650452
792.130859 -350.012939 280.650452
792.163757 -346.513092 280.650452
788.191895 -350.353607 280.650452
787.58197 -346.907166 280.650452
784.375916 -351.389526 280.650452
783.187073 -348.097626 280.650452
769.529907 -357.120087 279.152374
768.268616 -353.855255 279.152374
760.630249 -360.559723 279.152374
759.158508 -357.384216 279.152374
757.024536 -362.855194 279.152374
754.785706 -360.164917 279.152374
754.366882 -365.779236 268.03183
751.536987 -363.719666 268.03183
748.63208 -374.47406 263.769623
745.710693 -372.546509 263.769623
3 0 1 2
3 1 3 2
3 2 3 4
3 3 5 4
3 4 5 6
3 5 7 6
3 6 7 8
3 7 9 8
3 8 9 10
3 9 11 10
3 10 11 12
3 11 13 12
3 12 13 14
3 13 15 14
3 14 15 16
3 15 17 16
3 16 17 18
3 17 19 18
