ply
format ascii 1.0
element vertex 8
property float x
property float y
property float z
element face 12
property list uchar int vertex_indices
end_header
-12.0742645 12.9798527 239.162033
-12.229187 25.9485741 239.162033
33.482605 26.4717751 239.536896
33.6278458 13.4919224 239.536896
-12.0742645 12.9798527 242.36203
-12.229187 25.9485741 242.36203
33.482605 26.4717751 242.736893
33.6278458 13.4919224 242.736893
3 5 4 7
3 3 0 1
3 7 6 5
3 1 2 3
3 0 1 5
3 0 5 4
3 1 2 6
3 1 6 5
3 2 3 7
3 2 7 6
3 3 0 4
3 3 4 7
