ply
format ascii 1.0
element vertex 8
property float x
property float y
property float z
element face 12
property list uchar int vertex_indices
end_header
1977.70068 246.862106 228.701675
2005.19934 262.624939 229.729279
2009.91479 254.409561 229.729279
1982.41614 238.63559 228.701675
1977.70068 246.862106 236.701675
2005.19934 262.624939 237.729279
2009.91479 254.409561 237.729279
1982.41614 238.63559 236.701675
3 5 4 7
3 3 0 1
3 7 6 5
3 1 2 3
3 0 1 5
3 0 5 4
3 1 2 6
3 1 6 5
3 2 3 7
3 2 7 6
3 3 0 4
3 3 4 7
